<svg id="svg" version="1.1" width="400" height="400" xmlns="http://www.w3.org/2000/svg" xmlns:xlink="http://www.w3.org/1999/xlink" style=""><g id="svgg"><path id="path0" d="M18.893 195.440 L 18.893 375.896 199.349 375.896 L 379.805 375.896 379.805 195.440 L 379.805 14.984 199.349 14.984 L 18.893 14.984 18.893 195.440 M95.784 44.023 C 97.050 47.353,100.305 51.293,103.750 53.665 C 110.564 58.358,109.265 58.227,152.769 58.612 C 196.158 58.996,195.145 58.888,196.672 63.270 C 197.134 64.594,197.394 71.886,197.394 83.485 L 197.394 101.629 180.130 101.629 C 157.594 101.629,160.261 97.914,160.261 129.316 L 160.261 154.397 104.859 154.397 L 49.458 154.397 49.663 104.723 C 49.850 59.620,49.973 54.740,51.000 51.690 C 52.640 46.823,55.948 44.196,62.215 42.789 C 62.932 42.628,70.634 42.462,79.332 42.421 L 95.146 42.345 95.784 44.023 M342.178 44.193 C 349.932 48.011,349.837 47.250,349.837 105.674 L 349.837 154.397 296.743 154.397 L 243.648 154.397 243.648 129.316 C 243.648 97.992,246.080 101.629,225.131 101.629 L 209.220 101.629 209.007 81.596 C 208.748 57.174,207.878 54.224,199.693 50.016 C 194.484 47.339,193.994 47.306,154.072 46.939 C 112.118 46.553,111.273 46.479,109.121 42.997 C 108.838 42.539,145.144 42.382,223.897 42.499 L 339.088 42.671 342.178 44.193 M160.261 197.394 C 160.261 208.149,159.865 207.818,172.681 207.818 C 185.958 207.818,185.016 206.920,185.016 219.567 L 185.016 229.967 190.228 229.967 L 195.440 229.967 195.440 232.573 C 195.440 235.034,195.548 235.179,197.394 235.179 L 199.349 235.179 199.349 247.883 L 199.349 260.586 178.176 260.586 L 157.003 260.586 157.003 279.479 L 157.003 298.371 138.762 298.371 L 120.521 298.371 120.521 320.583 L 120.521 342.795 94.300 342.508 C 62.025 342.155,58.451 341.429,53.711 334.266 C 49.764 328.301,49.911 331.110,49.678 257.166 L 49.465 189.577 104.863 189.577 L 160.261 189.577 160.261 197.394 M349.692 257.818 C 349.487 335.466,349.871 330.186,343.987 336.249 C 338.628 341.771,336.329 342.167,307.655 342.516 L 283.388 342.812 283.388 320.591 L 283.388 298.371 265.147 298.371 L 246.906 298.371 246.906 279.479 L 246.906 260.586 225.733 260.586 L 204.560 260.586 204.560 247.883 L 204.560 235.179 206.515 235.179 C 208.360 235.179,208.469 235.034,208.469 232.573 L 208.469 229.967 213.681 229.967 L 218.893 229.967 218.893 219.567 C 218.893 206.920,217.950 207.818,231.228 207.818 C 244.044 207.818,243.648 208.149,243.648 197.394 L 243.648 189.577 296.760 189.577 L 349.872 189.577 349.692 257.818 " stroke="#000000" fill="none" stroke-width="3" class="goOEslaO_0"></path></g><style data-made-with="vivus-instant">.goOEslaO_0{stroke-dasharray:3802 3804;stroke-dashoffset:3803;animation:goOEslaO_draw_0 4500ms linear 0ms infinite,goOEslaO_fade 4500ms linear 0ms infinite;}@keyframes goOEslaO_draw{100%{stroke-dashoffset:0;}}@keyframes goOEslaO_fade{0%{stroke-opacity:1;}91.11111111111111%{stroke-opacity:1;}100%{stroke-opacity:0;}}@keyframes goOEslaO_draw_0{6.666666666666667%{stroke-dashoffset: 3803}73.33333333333333%{ stroke-dashoffset: 0;}100%{ stroke-dashoffset: 0;}}</style></svg>