<svg id="svg" version="1.1" width="400" height="400" xmlns="http://www.w3.org/2000/svg" xmlns:xlink="http://www.w3.org/1999/xlink" style=""><g id="svgg"><path id="path0" d="M163.984 1.563 C 163.124 2.423,162.410 3.785,162.396 4.589 C 162.383 5.393,162.394 11.855,162.419 18.949 L 162.467 31.847 151.268 31.847 C 140.227 31.847,140.047 31.869,138.506 33.411 L 136.943 34.974 136.943 57.209 L 136.943 79.444 138.622 81.123 C 140.184 82.685,140.696 82.803,145.945 82.803 L 151.590 82.803 166.400 112.261 L 181.210 141.720 181.529 178.981 C 181.887 220.948,181.601 218.571,186.929 223.899 C 192.484 229.453,184.284 228.959,274.045 229.147 L 353.503 229.314 353.503 235.673 L 353.503 242.031 188.057 242.194 C 0.877 242.378,20.614 241.780,14.955 247.439 C 9.654 252.740,9.873 251.057,9.873 286.624 C 9.873 322.192,9.654 320.509,14.955 325.809 C 20.614 331.468,0.877 330.870,188.057 331.055 L 353.503 331.217 353.503 337.580 L 353.503 343.942 188.057 344.105 L 22.611 344.268 19.616 345.799 C 5.796 352.862,6.198 373.678,20.290 380.692 C 24.095 382.586,377.378 382.483,381.210 380.586 C 384.472 378.973,388.527 374.917,390.141 371.656 C 392.096 367.704,392.096 307.456,390.141 303.503 C 388.527 300.242,384.472 296.186,381.210 294.573 C 378.694 293.328,376.631 293.310,213.217 293.149 L 47.771 292.986 47.771 286.624 L 47.771 280.262 213.217 280.099 C 400.397 279.915,380.660 280.513,386.319 274.854 C 391.620 269.553,391.401 271.236,391.401 235.669 C 391.401 200.101,391.620 201.784,386.319 196.484 C 380.764 190.929,388.964 191.423,299.204 191.235 L 219.745 191.068 219.745 166.869 L 219.745 142.670 234.715 112.736 L 249.684 82.803 255.328 82.803 C 260.578 82.803,261.090 82.685,262.652 81.123 L 264.331 79.444 264.331 57.325 L 264.331 35.206 262.652 33.526 C 261.728 32.603,260.367 31.834,259.627 31.818 C 258.886 31.801,253.909 31.814,248.567 31.846 L 238.854 31.903 238.854 17.631 L 238.854 3.358 237.174 1.679 L 235.495 0.000 200.521 0.000 L 165.547 0.000 163.984 1.563 M226.115 22.293 L 226.115 31.847 200.637 31.847 L 175.159 31.847 175.159 22.293 L 175.159 12.739 200.637 12.739 L 226.115 12.739 226.115 22.293 M251.592 57.325 L 251.592 70.064 200.637 70.064 L 149.682 70.064 149.682 57.325 L 149.682 44.586 200.637 44.586 L 251.592 44.586 251.592 57.325 M221.656 108.280 L 208.914 133.758 200.637 133.758 L 192.360 133.758 179.618 108.280 L 166.876 82.803 200.637 82.803 L 234.398 82.803 221.656 108.280 M206.993 173.243 C 206.970 189.240,207.202 200.449,207.568 201.134 C 209.037 203.878,207.405 203.823,292.675 203.985 C 381.110 204.153,375.893 203.935,377.828 207.550 C 379.042 209.820,379.042 261.518,377.828 263.787 C 375.866 267.453,388.715 267.186,207.325 267.333 C 28.678 267.479,37.492 267.359,35.992 269.648 C 34.821 271.436,34.470 300.945,35.595 303.048 C 37.091 305.842,30.930 305.739,206.688 305.899 C 388.766 306.064,375.866 305.796,377.828 309.461 C 379.042 311.731,379.042 363.429,377.828 365.698 C 375.866 369.364,389.095 369.092,202.866 369.294 C 108.631 369.396,30.275 369.301,28.742 369.084 C 21.654 368.077,20.527 359.220,27.248 357.353 C 28.851 356.908,83.548 356.694,196.251 356.691 L 362.884 356.688 364.563 355.009 L 366.242 353.329 366.242 337.580 L 366.242 321.830 364.563 320.151 C 363.639 319.227,362.421 318.471,361.856 318.471 C 132.565 318.464,26.950 318.073,25.675 317.228 C 22.649 315.220,22.611 314.838,22.611 286.340 C 22.611 256.170,22.524 256.754,27.223 255.449 C 28.859 254.995,82.441 254.783,196.251 254.781 L 362.884 254.777 364.563 253.098 L 366.242 251.419 366.242 235.669 L 366.242 219.919 364.563 218.240 C 363.639 217.316,362.421 216.560,361.856 216.560 C 251.776 216.546,198.916 216.156,197.706 215.352 C 194.537 213.244,194.598 213.916,194.405 179.140 L 194.224 146.497 200.627 146.497 L 207.030 146.497 206.993 173.243 " stroke="#000000" fill="none" stroke-width="3" class="YbIddRDx_0"></path></g><style data-made-with="vivus-instant">.YbIddRDx_0{stroke-dasharray:6722 6724;stroke-dashoffset:6723;animation:YbIddRDx_draw_0 10200ms linear 0ms infinite,YbIddRDx_fade 10200ms linear 0ms infinite;}@keyframes YbIddRDx_draw{100%{stroke-dashoffset:0;}}@keyframes YbIddRDx_fade{0%{stroke-opacity:1;}96.07843137254902%{stroke-opacity:1;}100%{stroke-opacity:0;}}@keyframes YbIddRDx_draw_0{7.8431372549019605%{stroke-dashoffset: 6723}66.66666666666666%{ stroke-dashoffset: 0;}100%{ stroke-dashoffset: 0;}}</style></svg>
