<svg id="svg" version="1.1" width="400" height="400" viewBox="0 0 400 377.859778597786" xmlns="http://www.w3.org/2000/svg" xmlns:xlink="http://www.w3.org/1999/xlink" style=""><g id="svgg"><path id="path0" d="M77.327 2.990 C 77.201 3.386,76.849 3.806,76.545 3.923 C 76.241 4.040,75.992 4.539,75.992 5.034 C 75.992 5.528,75.652 6.240,75.236 6.616 C 74.820 6.993,74.480 7.673,74.480 8.129 C 74.480 8.584,74.140 9.264,73.724 9.641 C 73.308 10.017,72.968 10.791,72.968 11.360 C 72.968 11.932,72.714 12.493,72.401 12.613 C 72.041 12.751,71.834 13.332,71.834 14.201 C 71.834 15.254,71.658 15.618,71.078 15.769 C 70.524 15.914,70.321 16.285,70.321 17.155 C 70.321 17.934,70.061 18.506,69.565 18.816 C 69.107 19.102,68.809 19.698,68.809 20.328 C 68.809 20.959,68.511 21.554,68.053 21.840 C 67.625 22.107,67.297 22.722,67.297 23.255 C 67.297 23.773,66.957 24.537,66.541 24.953 C 66.125 25.369,65.784 26.116,65.784 26.614 C 65.784 27.111,65.545 27.610,65.253 27.722 C 64.961 27.834,64.598 28.491,64.448 29.181 C 64.297 29.870,63.856 30.841,63.467 31.336 C 63.078 31.832,62.760 32.620,62.760 33.086 C 62.760 33.552,62.503 34.147,62.189 34.407 C 61.876 34.668,61.515 35.529,61.389 36.321 C 61.262 37.113,60.933 37.847,60.657 37.953 C 60.381 38.059,60.044 38.738,59.908 39.462 C 59.772 40.187,59.439 40.865,59.167 40.969 C 58.895 41.073,58.551 41.714,58.402 42.392 C 58.253 43.070,57.896 43.859,57.610 44.145 C 57.323 44.432,57.089 45.127,57.089 45.690 C 57.089 46.252,56.749 47.004,56.333 47.360 C 55.917 47.716,55.577 48.408,55.577 48.898 C 55.577 49.388,55.236 50.096,54.820 50.473 C 54.405 50.849,54.064 51.615,54.064 52.174 C 54.064 52.733,53.724 53.499,53.308 53.875 C 52.839 54.300,52.552 55.040,52.552 55.824 C 52.552 56.653,52.371 57.089,52.025 57.089 C 51.456 57.089,51.040 57.880,51.040 58.964 C 51.040 59.337,50.789 59.851,50.483 60.105 C 50.176 60.359,49.811 61.180,49.670 61.929 C 49.530 62.678,49.100 63.629,48.715 64.042 C 48.326 64.459,48.015 65.349,48.015 66.045 C 48.015 66.863,47.833 67.297,47.488 67.297 C 46.885 67.297,46.503 68.100,46.503 69.367 C 46.503 69.847,46.248 70.338,45.936 70.458 C 45.624 70.578,45.369 70.863,45.369 71.091 C 45.369 71.319,44.922 72.091,44.377 72.806 C 43.439 74.035,43.148 77.679,43.925 78.456 C 44.033 78.564,72.180 78.648,106.474 78.642 C 171.781 78.632,173.535 78.663,173.535 79.827 C 173.535 80.263,173.805 80.529,174.247 80.529 C 174.641 80.529,175.047 80.867,175.157 81.285 C 175.308 81.865,175.673 82.042,176.713 82.042 C 177.820 82.042,178.072 82.182,178.072 82.798 C 178.072 83.302,178.324 83.554,178.828 83.554 C 179.244 83.554,179.584 83.806,179.584 84.114 C 179.584 84.422,179.997 84.777,180.501 84.904 C 181.006 85.031,181.713 85.459,182.072 85.856 C 182.432 86.253,182.960 86.578,183.246 86.578 C 183.532 86.578,183.865 86.834,183.984 87.146 C 184.104 87.457,184.483 87.713,184.827 87.713 C 185.170 87.713,185.664 88.053,185.924 88.469 C 186.183 88.885,186.800 89.225,187.294 89.225 C 187.874 89.225,188.262 89.493,188.389 89.981 C 188.498 90.397,188.858 90.737,189.190 90.737 C 189.521 90.737,190.132 91.078,190.548 91.493 C 190.964 91.909,191.625 92.250,192.016 92.250 C 192.410 92.250,192.817 92.587,192.926 93.006 C 193.054 93.494,193.442 93.762,194.021 93.762 C 194.514 93.762,195.163 94.102,195.463 94.518 C 195.763 94.934,196.291 95.274,196.637 95.274 C 196.982 95.274,197.354 95.614,197.463 96.030 C 197.605 96.573,197.979 96.786,198.786 96.786 C 199.594 96.786,199.968 97.000,200.110 97.543 C 200.224 97.979,200.625 98.299,201.058 98.299 C 201.471 98.299,201.901 98.538,202.013 98.830 C 202.126 99.122,202.739 99.476,203.377 99.616 C 204.015 99.756,204.537 100.095,204.537 100.368 C 204.537 100.950,205.362 101.323,206.647 101.323 C 207.208 101.323,207.561 101.543,207.561 101.890 C 207.561 102.205,207.898 102.457,208.318 102.457 C 208.822 102.457,209.074 102.710,209.074 103.214 C 209.074 103.821,209.326 103.970,210.353 103.970 C 211.314 103.970,211.681 104.158,211.830 104.726 C 211.939 105.142,212.287 105.482,212.605 105.482 C 212.922 105.482,213.290 105.822,213.422 106.238 C 213.575 106.720,213.994 106.994,214.578 106.994 C 215.085 106.994,215.706 107.332,215.967 107.750 C 216.226 108.166,216.738 108.507,217.104 108.507 C 217.470 108.507,217.769 108.767,217.769 109.086 C 217.769 109.404,218.067 109.773,218.431 109.906 C 218.795 110.039,219.498 110.459,219.994 110.839 C 220.490 111.220,221.193 111.531,221.557 111.531 C 221.921 111.531,222.307 111.871,222.416 112.287 C 222.525 112.703,222.866 113.043,223.176 113.043 C 223.485 113.043,223.832 113.289,223.947 113.590 C 224.063 113.890,224.761 114.249,225.500 114.388 C 226.239 114.527,226.843 114.865,226.843 115.139 C 226.843 115.414,227.183 115.747,227.599 115.879 C 228.015 116.011,228.355 116.275,228.355 116.467 C 228.355 116.658,228.951 117.063,229.679 117.367 C 230.406 117.671,231.002 118.099,231.002 118.317 C 231.002 118.536,231.336 118.715,231.745 118.715 C 232.153 118.715,232.670 119.055,232.892 119.471 C 233.115 119.887,233.594 120.227,233.956 120.227 C 234.319 120.227,234.861 120.567,235.161 120.983 C 235.460 121.399,236.008 121.739,236.378 121.739 C 236.748 121.739,237.391 122.079,237.807 122.495 C 238.223 122.911,238.884 123.251,239.275 123.251 C 239.669 123.251,240.076 123.589,240.185 124.008 C 240.294 124.423,240.654 124.764,240.985 124.764 C 241.317 124.764,241.928 125.104,242.344 125.520 C 242.760 125.936,243.440 126.276,243.856 126.276 C 244.272 126.276,244.612 126.528,244.612 126.836 C 244.612 127.144,245.038 127.503,245.558 127.633 C 246.078 127.764,246.503 128.003,246.503 128.164 C 246.503 128.326,247.098 128.741,247.826 129.086 C 248.554 129.432,249.149 129.869,249.149 130.057 C 249.149 130.246,249.745 130.512,250.473 130.649 C 251.230 130.791,251.796 131.121,251.796 131.422 C 251.796 131.711,252.025 131.947,252.305 131.947 C 252.585 131.947,253.212 132.292,253.698 132.714 C 254.184 133.135,254.963 133.576,255.430 133.693 C 255.896 133.810,256.370 134.146,256.483 134.439 C 256.595 134.732,257.183 134.972,257.789 134.972 C 258.573 134.972,258.948 135.190,259.089 135.728 C 259.240 136.307,259.604 136.484,260.645 136.484 C 261.752 136.484,262.004 136.624,262.004 137.240 C 262.004 137.729,262.256 137.996,262.716 137.996 C 263.110 137.996,263.516 138.334,263.626 138.752 C 263.777 139.332,264.141 139.509,265.182 139.509 C 266.289 139.509,266.541 139.649,266.541 140.265 C 266.541 140.753,266.793 141.021,267.253 141.021 C 267.647 141.021,268.053 141.358,268.162 141.777 C 268.314 142.356,268.678 142.533,269.719 142.533 C 270.825 142.533,271.078 142.673,271.078 143.289 C 271.078 143.793,271.330 144.045,271.834 144.045 C 272.338 144.045,272.590 144.297,272.590 144.802 C 272.590 145.414,272.842 145.558,273.913 145.558 C 274.849 145.558,275.236 145.727,275.236 146.137 C 275.236 146.455,275.534 146.827,275.898 146.962 C 276.262 147.098,276.782 147.518,277.054 147.896 C 277.325 148.273,277.866 148.582,278.255 148.582 C 278.645 148.582,279.218 148.837,279.530 149.149 C 279.842 149.461,280.365 149.716,280.691 149.716 C 281.033 149.716,281.285 150.037,281.285 150.473 C 281.285 150.942,281.537 151.229,281.951 151.229 C 282.317 151.229,282.828 151.569,283.088 151.985 C 283.389 152.467,283.970 152.741,284.691 152.741 C 285.570 152.741,285.822 152.910,285.822 153.497 C 285.822 153.986,286.074 154.253,286.534 154.253 C 286.928 154.253,287.335 154.591,287.444 155.009 C 287.587 155.555,287.960 155.766,288.786 155.766 C 289.598 155.766,290.000 155.985,290.170 156.522 C 290.302 156.938,290.739 157.278,291.141 157.278 C 291.543 157.278,291.871 157.515,291.871 157.805 C 291.871 158.383,292.666 158.790,293.793 158.790 C 294.192 158.790,294.518 159.050,294.518 159.369 C 294.518 159.688,294.816 160.058,295.180 160.191 C 295.543 160.325,295.973 160.653,296.135 160.920 C 296.297 161.188,297.020 161.517,297.742 161.653 C 298.464 161.788,299.061 162.093,299.069 162.329 C 299.086 162.870,302.154 164.839,302.979 164.839 C 303.316 164.839,303.592 165.095,303.592 165.406 C 303.592 165.803,303.991 165.974,304.915 165.974 C 305.849 165.974,306.238 166.143,306.238 166.550 C 306.238 166.867,306.640 167.279,307.132 167.466 C 307.623 167.653,308.128 168.074,308.254 168.402 C 308.393 168.763,308.934 168.998,309.629 168.998 C 310.406 168.998,310.775 169.184,310.775 169.577 C 310.775 169.896,311.073 170.267,311.437 170.403 C 311.801 170.539,312.321 170.959,312.592 171.336 C 312.877 171.732,313.557 172.023,314.199 172.023 C 314.946 172.023,315.312 172.213,315.312 172.602 C 315.312 172.920,315.597 173.290,315.945 173.423 C 316.293 173.557,316.888 173.977,317.268 174.357 C 317.648 174.737,318.280 175.047,318.674 175.047 C 319.267 175.047,319.849 175.718,319.849 176.401 C 319.849 176.847,317.734 176.474,317.123 175.921 C 316.688 175.527,315.555 175.220,314.164 175.119 C 312.686 175.013,311.909 174.792,311.909 174.479 C 311.909 173.925,310.732 173.547,308.979 173.540 C 308.188 173.537,307.750 173.349,307.750 173.012 C 307.750 172.401,306.608 172.035,304.675 172.028 C 303.622 172.024,303.256 171.846,303.104 171.267 C 302.939 170.635,302.588 170.510,300.981 170.510 C 299.521 170.510,299.055 170.373,299.055 169.943 C 299.055 169.537,298.640 169.376,297.587 169.376 C 296.436 169.376,296.076 169.212,295.921 168.620 C 295.753 167.978,295.405 167.864,293.608 167.864 C 291.745 167.864,291.493 167.774,291.493 167.108 C 291.493 166.481,291.241 166.352,290.025 166.352 C 288.875 166.352,288.514 166.188,288.359 165.595 C 288.195 164.967,287.844 164.839,286.280 164.839 C 284.716 164.839,284.365 164.712,284.200 164.083 C 284.045 163.487,283.685 163.327,282.499 163.327 C 281.314 163.327,280.954 163.167,280.798 162.571 C 280.634 161.943,280.282 161.815,278.718 161.815 C 277.155 161.815,276.803 161.687,276.639 161.059 C 276.478 160.441,276.123 160.302,274.708 160.302 C 273.384 160.302,272.863 160.124,272.502 159.546 C 272.166 159.008,271.620 158.790,270.608 158.790 C 269.650 158.790,269.187 158.620,269.187 158.267 C 269.187 157.671,268.053 157.291,266.257 157.283 C 265.461 157.280,265.028 157.092,265.028 156.751 C 265.028 156.145,264.224 155.766,262.937 155.766 C 262.444 155.766,261.886 155.488,261.696 155.148 C 261.472 154.748,260.664 154.464,259.408 154.344 C 258.105 154.218,257.467 153.986,257.467 153.638 C 257.467 153.290,256.998 153.119,256.046 153.119 C 255.034 153.119,254.488 152.901,254.152 152.363 C 253.782 151.771,253.270 151.607,251.793 151.607 C 250.158 151.607,249.905 151.506,249.905 150.851 C 249.905 150.211,249.653 150.095,248.263 150.095 C 247.100 150.095,246.420 149.874,245.936 149.338 C 245.530 148.890,244.771 148.582,244.071 148.582 C 243.358 148.582,242.634 148.283,242.243 147.826 C 241.773 147.277,241.127 147.070,239.890 147.070 C 238.685 147.070,238.185 146.916,238.185 146.543 C 238.185 145.928,237.378 145.558,236.040 145.558 C 235.518 145.558,234.658 145.217,234.130 144.802 C 233.561 144.354,232.596 144.045,231.766 144.045 C 230.843 144.045,230.129 143.787,229.679 143.289 C 229.282 142.851,228.514 142.533,227.854 142.533 C 227.227 142.533,226.416 142.263,226.052 141.934 C 225.687 141.604,224.653 141.237,223.753 141.117 C 222.853 140.997,221.941 140.660,221.726 140.368 C 221.511 140.075,220.575 139.735,219.646 139.611 C 218.718 139.488,217.778 139.141,217.557 138.842 C 217.337 138.543,216.316 138.206,215.289 138.093 C 214.262 137.981,213.285 137.658,213.119 137.376 C 212.953 137.093,212.268 136.862,211.596 136.862 C 210.844 136.862,210.128 136.572,209.729 136.106 C 209.263 135.563,208.613 135.350,207.420 135.350 C 206.077 135.350,205.721 135.205,205.562 134.594 C 205.406 133.999,205.046 133.837,203.875 133.837 C 202.866 133.837,202.165 133.594,201.701 133.081 C 201.295 132.633,200.537 132.325,199.836 132.325 C 199.124 132.325,198.399 132.025,198.008 131.569 C 197.539 131.020,196.893 130.813,195.656 130.813 C 194.456 130.813,193.951 130.658,193.951 130.290 C 193.951 129.766,192.856 129.315,191.561 129.306 C 191.182 129.303,190.638 129.066,190.351 128.779 C 190.064 128.492,189.183 128.138,188.393 127.991 C 187.603 127.844,186.672 127.469,186.324 127.157 C 185.976 126.845,184.956 126.492,184.056 126.372 C 183.156 126.252,181.862 125.841,181.179 125.459 C 180.497 125.076,179.270 124.764,178.452 124.764 C 177.351 124.764,176.859 124.567,176.560 124.008 C 176.259 123.447,175.768 123.251,174.656 123.251 C 173.576 123.251,173.157 123.093,173.157 122.684 C 173.157 122.249,172.674 122.117,171.078 122.117 C 169.250 122.117,168.998 122.026,168.998 121.361 C 168.998 120.733,168.746 120.605,167.511 120.605 C 166.357 120.605,165.971 120.436,165.784 119.849 C 165.583 119.215,165.212 119.093,163.491 119.093 C 161.689 119.093,161.437 119.000,161.437 118.336 C 161.437 117.724,161.185 117.580,160.113 117.580 C 159.294 117.580,158.502 117.292,158.034 116.824 C 157.534 116.324,156.774 116.068,155.791 116.068 C 154.636 116.068,154.251 115.899,154.064 115.312 C 153.864 114.681,153.492 114.556,151.814 114.556 C 150.123 114.556,149.773 114.436,149.607 113.800 C 149.456 113.223,149.091 113.043,148.069 113.043 C 147.223 113.043,146.602 112.816,146.384 112.426 C 146.160 112.026,145.352 111.742,144.097 111.622 C 142.832 111.500,142.155 111.261,142.155 110.935 C 142.155 110.604,141.392 110.348,139.909 110.180 C 138.544 110.026,137.585 109.722,137.464 109.406 C 137.209 108.741,135.860 108.728,135.463 109.386 C 135.297 109.661,134.863 109.996,134.499 110.130 C 134.135 110.264,133.837 110.634,133.837 110.952 C 133.837 111.279,133.508 111.531,133.081 111.531 C 132.577 111.531,132.325 111.783,132.325 112.287 C 132.325 112.791,132.073 113.043,131.569 113.043 C 131.065 113.043,130.813 113.296,130.813 113.800 C 130.813 114.348,130.561 114.556,129.896 114.556 C 129.289 114.556,128.213 115.304,126.704 116.776 C 125.452 117.996,124.163 119.097,123.840 119.221 C 123.516 119.345,123.251 119.708,123.251 120.026 C 123.251 120.344,123.008 120.605,122.710 120.605 C 122.412 120.605,122.060 120.945,121.928 121.361 C 121.796 121.777,121.538 122.117,121.355 122.117 C 120.854 122.117,119.093 123.843,119.093 124.334 C 119.093 124.571,118.822 124.764,118.490 124.764 C 118.159 124.764,117.799 125.104,117.690 125.520 C 117.580 125.938,117.174 126.276,116.780 126.276 C 116.320 126.276,116.068 126.544,116.068 127.032 C 116.068 127.536,115.816 127.788,115.312 127.788 C 114.808 127.788,114.556 128.040,114.556 128.544 C 114.556 129.049,114.304 129.301,113.800 129.301 C 113.296 129.301,113.043 129.553,113.043 130.057 C 113.043 130.561,112.791 130.813,112.287 130.813 C 111.783 130.813,111.531 131.065,111.531 131.569 C 111.531 132.073,111.279 132.325,110.775 132.325 C 110.271 132.325,110.019 132.577,110.019 133.081 C 110.019 133.585,109.767 133.837,109.263 133.837 C 108.759 133.837,108.507 134.089,108.507 134.594 C 108.507 135.033,108.255 135.350,107.904 135.350 C 107.573 135.350,107.213 135.690,107.104 136.106 C 106.995 136.522,106.671 136.862,106.383 136.862 C 105.877 136.862,105.505 137.127,103.483 138.929 C 102.961 139.395,102.261 139.881,101.928 140.009 C 101.595 140.136,101.323 140.501,101.323 140.820 C 101.323 141.138,101.063 141.399,100.744 141.399 C 100.426 141.399,100.070 141.648,99.953 141.952 C 99.837 142.256,99.417 142.607,99.020 142.733 C 98.623 142.859,98.299 143.186,98.299 143.460 C 98.299 143.733,97.958 144.046,97.543 144.155 C 97.127 144.264,96.786 144.604,96.786 144.911 C 96.786 145.218,96.446 145.558,96.030 145.667 C 95.614 145.776,95.274 146.116,95.274 146.423 C 95.274 146.730,94.934 147.071,94.518 147.179 C 94.102 147.288,93.762 147.629,93.762 147.936 C 93.762 148.243,93.422 148.583,93.006 148.692 C 92.590 148.801,92.250 149.141,92.250 149.448 C 92.250 149.755,91.909 150.095,91.493 150.204 C 91.078 150.313,90.737 150.653,90.737 150.960 C 90.737 151.267,90.397 151.608,89.981 151.716 C 89.565 151.825,89.225 152.185,89.225 152.517 C 89.225 152.848,88.970 153.119,88.658 153.119 C 88.346 153.119,88.091 153.374,88.091 153.686 C 88.091 154.001,87.755 154.253,87.335 154.253 C 86.830 154.253,86.578 154.505,86.578 155.009 C 86.578 155.514,86.326 155.766,85.822 155.766 C 85.318 155.766,85.066 156.018,85.066 156.522 C 85.066 156.938,84.819 157.278,84.516 157.278 C 83.804 157.278,82.042 159.040,82.042 159.753 C 82.042 160.055,81.769 160.302,81.435 160.302 C 81.102 160.302,79.713 161.366,78.348 162.665 C 76.984 163.965,75.585 165.297,75.240 165.624 C 74.894 165.952,74.327 166.330,73.979 166.463 C 73.631 166.597,73.346 166.947,73.346 167.241 C 73.346 167.535,73.006 167.865,72.590 167.973 C 72.174 168.082,71.834 168.442,71.834 168.774 C 71.834 169.124,71.517 169.376,71.078 169.376 C 70.662 169.376,70.321 169.620,70.321 169.918 C 70.321 170.216,69.981 170.567,69.565 170.699 C 69.149 170.831,68.809 171.163,68.809 171.437 C 68.809 171.711,68.469 172.023,68.053 172.132 C 67.637 172.241,67.297 172.601,67.297 172.932 C 67.297 173.283,66.980 173.535,66.541 173.535 C 66.052 173.535,65.784 173.787,65.784 174.247 C 65.784 174.641,65.447 175.047,65.028 175.157 C 64.612 175.266,64.272 175.626,64.272 175.957 C 64.272 176.288,64.025 176.560,63.722 176.560 C 63.420 176.560,62.720 176.966,62.167 177.462 C 60.376 179.069,59.878 179.449,59.234 179.696 C 58.886 179.829,58.601 180.199,58.601 180.517 C 58.601 180.844,58.272 181.096,57.845 181.096 C 57.341 181.096,57.089 181.348,57.089 181.853 C 57.089 182.357,56.837 182.609,56.333 182.609 C 55.829 182.609,55.577 182.861,55.577 183.365 C 55.577 183.869,55.325 184.121,54.820 184.121 C 54.400 184.121,54.064 184.373,54.064 184.688 C 54.064 185.000,53.750 185.255,53.367 185.255 C 51.155 185.255,50.701 188.958,52.836 189.587 C 53.511 189.786,54.064 190.184,54.064 190.473 C 54.064 190.761,54.405 191.086,54.820 191.195 C 55.236 191.304,55.577 191.644,55.577 191.951 C 55.577 192.258,55.917 192.598,56.333 192.707 C 56.749 192.816,57.089 193.120,57.089 193.384 C 57.089 193.647,57.429 193.952,57.845 194.060 C 58.261 194.169,58.601 194.529,58.601 194.861 C 58.601 195.192,58.850 195.463,59.155 195.463 C 59.460 195.463,59.891 195.803,60.113 196.219 C 60.336 196.635,60.851 196.975,61.258 196.975 C 61.665 196.975,62.210 197.316,62.470 197.732 C 62.729 198.147,63.241 198.488,63.607 198.488 C 64.020 198.488,64.272 198.774,64.272 199.244 C 64.272 199.748,64.524 200.000,65.028 200.000 C 65.532 200.000,65.784 200.252,65.784 200.756 C 65.784 201.260,66.037 201.512,66.541 201.512 C 67.045 201.512,67.297 201.764,67.297 202.268 C 67.297 202.773,67.549 203.025,68.053 203.025 C 68.557 203.025,68.809 203.277,68.809 203.781 C 68.809 204.269,69.061 204.537,69.521 204.537 C 69.915 204.537,70.321 204.875,70.431 205.293 C 70.540 205.709,70.900 206.049,71.231 206.049 C 71.563 206.049,71.834 206.293,71.834 206.591 C 71.834 206.889,72.174 207.240,72.590 207.372 C 73.006 207.504,73.346 207.856,73.346 208.154 C 73.346 208.452,73.559 208.699,73.819 208.703 C 74.078 208.708,75.737 210.065,77.505 211.720 C 79.272 213.375,81.016 214.733,81.380 214.737 C 81.744 214.741,82.042 214.992,82.042 215.295 C 82.042 216.007,83.804 217.769,84.516 217.769 C 84.819 217.769,85.066 218.110,85.066 218.526 C 85.066 219.030,85.318 219.282,85.822 219.282 C 86.326 219.282,86.578 219.534,86.578 220.038 C 86.578 220.542,86.830 220.794,87.335 220.794 C 87.839 220.794,88.091 221.046,88.091 221.550 C 88.091 221.970,88.343 222.306,88.658 222.306 C 88.970 222.306,89.225 222.567,89.225 222.885 C 89.225 223.204,89.497 223.569,89.830 223.696 C 90.583 223.985,92.250 225.626,92.250 226.079 C 92.250 226.263,92.590 226.522,93.006 226.654 C 93.422 226.786,93.762 227.126,93.762 227.410 C 93.762 227.694,94.086 228.029,94.483 228.155 C 94.880 228.281,95.300 228.633,95.416 228.937 C 95.533 229.241,95.889 229.490,96.207 229.490 C 96.534 229.490,96.786 229.819,96.786 230.246 C 96.786 230.734,97.038 231.002,97.498 231.002 C 97.893 231.002,98.299 231.340,98.408 231.758 C 98.517 232.174,98.857 232.514,99.164 232.514 C 99.471 232.514,99.812 232.854,99.921 233.270 C 100.029 233.686,100.389 234.026,100.721 234.026 C 101.052 234.026,101.323 234.287,101.323 234.605 C 101.323 234.924,101.608 235.294,101.956 235.427 C 102.304 235.561,102.899 235.981,103.279 236.361 C 103.659 236.740,104.184 237.051,104.446 237.051 C 104.708 237.051,105.135 237.391,105.394 237.807 C 105.654 238.223,106.100 238.563,106.386 238.563 C 106.672 238.563,106.995 238.904,107.104 239.319 C 107.213 239.735,107.553 240.076,107.860 240.076 C 108.167 240.076,108.507 240.416,108.616 240.832 C 108.725 241.248,109.065 241.588,109.372 241.588 C 109.679 241.588,110.020 241.928,110.128 242.344 C 110.237 242.760,110.597 243.100,110.929 243.100 C 111.260 243.100,111.531 243.355,111.531 243.667 C 111.531 243.982,111.867 244.234,112.287 244.234 C 112.791 244.234,113.043 244.486,113.043 244.991 C 113.043 245.495,113.296 245.747,113.800 245.747 C 114.304 245.747,114.556 245.999,114.556 246.503 C 114.556 246.943,114.808 247.259,115.158 247.259 C 115.490 247.259,115.850 247.599,115.959 248.015 C 116.068 248.434,116.474 248.771,116.868 248.771 C 117.328 248.771,117.580 249.039,117.580 249.527 C 117.580 250.032,117.832 250.284,118.336 250.284 C 118.841 250.284,119.093 250.536,119.093 251.040 C 119.093 251.456,119.336 251.796,119.634 251.796 C 119.932 251.796,120.284 252.136,120.416 252.552 C 120.548 252.968,120.858 253.308,121.105 253.308 C 121.352 253.308,122.051 253.904,122.658 254.631 C 123.264 255.359,123.975 255.955,124.237 255.955 C 124.499 255.955,124.821 256.295,124.953 256.711 C 125.085 257.127,125.452 257.467,125.770 257.467 C 126.087 257.467,126.436 257.807,126.545 258.223 C 126.653 258.639,126.972 258.979,127.252 258.979 C 127.532 258.979,127.944 259.319,128.166 259.735 C 128.431 260.230,128.958 260.491,129.692 260.491 C 130.561 260.491,130.813 260.662,130.813 261.248 C 130.813 261.752,131.065 262.004,131.569 262.004 C 132.073 262.004,132.325 262.256,132.325 262.760 C 132.325 263.264,132.577 263.516,133.081 263.516 C 133.585 263.516,133.837 263.768,133.837 264.272 C 133.837 264.776,134.089 265.028,134.594 265.028 C 135.009 265.028,135.350 265.193,135.350 265.393 C 135.350 266.294,136.842 266.572,137.508 265.795 C 137.978 265.246,138.625 265.028,139.785 265.028 C 140.938 265.028,141.593 264.810,142.054 264.272 C 142.512 263.737,143.169 263.516,144.305 263.516 C 145.522 263.516,146.007 263.334,146.314 262.760 C 146.614 262.199,147.105 262.004,148.217 262.004 C 149.464 262.004,149.716 261.877,149.716 261.248 C 149.716 260.585,149.968 260.491,151.755 260.491 C 153.219 260.491,153.856 260.331,154.012 259.924 C 154.146 259.574,154.721 259.357,155.514 259.357 C 156.225 259.357,157.226 259.020,157.759 258.601 C 158.288 258.185,159.062 257.845,159.481 257.845 C 160.609 257.845,161.437 257.448,161.437 256.907 C 161.437 256.607,162.165 256.359,163.391 256.241 C 164.585 256.126,165.520 255.814,165.795 255.437 C 166.051 255.087,166.775 254.820,167.468 254.820 C 168.373 254.820,168.742 254.624,168.889 254.064 C 169.053 253.436,169.404 253.308,170.968 253.308 C 172.532 253.308,172.883 253.180,173.047 252.552 C 173.202 251.960,173.563 251.796,174.710 251.796 C 175.766 251.796,176.307 251.585,176.647 251.040 C 177.009 250.461,177.529 250.284,178.868 250.284 C 180.044 250.284,180.931 250.036,181.578 249.527 C 182.106 249.112,183.057 248.771,183.690 248.771 C 184.964 248.771,186.767 248.071,186.767 247.576 C 186.767 247.402,187.363 247.259,188.091 247.259 C 188.910 247.259,189.702 246.971,190.170 246.503 C 190.635 246.038,191.430 245.747,192.236 245.747 C 193.159 245.747,193.666 245.523,193.951 244.991 C 194.263 244.407,194.742 244.234,196.055 244.234 C 197.153 244.234,197.826 244.049,197.956 243.712 C 198.066 243.424,198.843 243.080,199.683 242.945 C 200.522 242.811,201.444 242.466,201.731 242.179 C 202.018 241.892,202.949 241.539,203.800 241.396 C 204.650 241.252,205.437 240.896,205.549 240.605 C 205.675 240.277,206.311 240.076,207.224 240.076 C 208.192 240.076,208.955 239.817,209.452 239.319 C 209.927 238.844,210.712 238.563,211.567 238.563 C 212.607 238.563,212.972 238.386,213.123 237.807 C 213.287 237.181,213.639 237.051,215.164 237.051 C 216.597 237.051,217.112 236.883,217.479 236.295 C 217.812 235.761,218.361 235.539,219.342 235.539 C 221.064 235.539,221.928 235.226,221.928 234.601 C 221.928 234.302,222.654 234.053,223.870 233.936 C 225.125 233.815,225.933 233.531,226.157 233.132 C 226.380 232.733,227.001 232.514,227.913 232.514 C 228.889 232.514,229.490 232.282,229.868 231.758 C 230.261 231.212,230.846 231.002,231.972 231.002 C 233.051 231.002,233.742 230.769,234.216 230.246 C 234.676 229.737,235.380 229.490,236.365 229.490 C 237.281 229.490,237.908 229.289,238.036 228.954 C 238.154 228.647,239.048 228.308,240.131 228.159 C 241.170 228.016,242.104 227.679,242.207 227.410 C 242.311 227.141,243.135 226.810,244.040 226.675 C 244.945 226.539,245.874 226.200,246.106 225.920 C 246.338 225.641,247.287 225.299,248.216 225.160 C 249.229 225.008,249.905 224.708,249.905 224.411 C 249.905 224.090,250.592 223.849,251.847 223.728 C 253.103 223.608,253.911 223.323,254.134 222.924 C 254.353 222.534,254.973 222.306,255.820 222.306 C 256.842 222.306,257.207 222.127,257.357 221.550 C 257.521 220.924,257.873 220.794,259.398 220.794 C 260.832 220.794,261.346 220.626,261.713 220.038 C 262.033 219.526,262.595 219.282,263.453 219.282 C 264.403 219.282,264.771 219.092,264.919 218.526 C 265.086 217.888,265.435 217.769,267.152 217.769 C 268.935 217.769,269.187 217.676,269.187 217.013 C 269.187 216.383,269.439 216.257,270.696 216.257 C 271.796 216.257,272.333 216.052,272.678 215.501 C 273.042 214.917,273.559 214.745,274.949 214.745 C 276.497 214.745,276.749 214.639,276.749 213.989 C 276.749 213.333,277.001 213.233,278.651 213.233 C 279.993 213.233,280.617 213.066,280.771 212.665 C 280.905 212.316,281.479 212.098,282.268 212.098 C 283.138 212.098,283.699 211.856,284.020 211.342 C 284.320 210.861,284.905 210.584,285.630 210.581 C 287.340 210.573,288.469 210.182,288.469 209.597 C 288.469 209.248,288.923 209.074,289.827 209.074 C 290.868 209.074,291.232 208.897,291.384 208.318 C 291.551 207.678,291.900 207.561,293.652 207.561 C 295.405 207.561,295.753 207.445,295.921 206.805 C 296.071 206.232,296.436 206.049,297.433 206.049 C 298.430 206.049,298.795 205.866,298.945 205.293 C 299.112 204.655,299.461 204.537,301.178 204.537 C 302.962 204.537,303.214 204.443,303.214 203.781 C 303.214 203.115,303.466 203.025,305.328 203.025 C 307.125 203.025,307.473 202.911,307.641 202.268 C 307.805 201.640,308.157 201.512,309.720 201.512 C 311.284 201.512,311.635 201.385,311.800 200.756 C 311.969 200.108,312.315 200.000,314.222 200.000 C 315.942 200.000,316.617 199.829,317.202 199.244 C 317.678 198.768,318.463 198.488,319.317 198.488 C 320.358 198.488,320.722 198.311,320.873 197.732 C 321.035 197.115,321.359 196.987,322.634 197.039 L 324.197 197.103 322.779 197.251 C 321.679 197.366,321.361 197.563,321.361 198.132 C 321.361 198.605,321.101 198.866,320.630 198.866 C 320.229 198.866,319.792 199.206,319.660 199.622 C 319.491 200.154,319.088 200.378,318.299 200.378 C 317.665 200.378,317.087 200.618,316.966 200.931 C 316.850 201.235,316.430 201.587,316.033 201.712 C 315.636 201.838,315.312 202.166,315.312 202.441 C 315.312 202.716,314.716 203.052,313.989 203.189 C 313.261 203.325,312.665 203.603,312.665 203.806 C 312.665 204.009,312.240 204.369,311.720 204.606 C 311.200 204.843,310.775 205.245,310.775 205.501 C 310.775 205.756,310.180 206.077,309.452 206.213 C 308.660 206.362,308.129 206.682,308.129 207.011 C 308.129 207.314,307.800 207.561,307.398 207.561 C 306.996 207.561,306.559 207.902,306.427 208.318 C 306.257 208.854,305.855 209.074,305.043 209.074 C 304.236 209.074,303.843 209.286,303.711 209.794 C 303.590 210.253,303.054 210.603,302.234 210.757 C 301.525 210.890,300.945 211.165,300.945 211.369 C 300.945 211.572,300.520 211.901,300.000 212.098 C 299.480 212.296,299.055 212.717,299.055 213.034 C 299.055 213.420,298.687 213.611,297.942 213.611 C 297.300 213.611,296.620 213.901,296.335 214.297 C 296.064 214.675,295.543 215.095,295.180 215.230 C 294.816 215.366,294.518 215.738,294.518 216.056 C 294.518 216.466,294.131 216.635,293.195 216.635 C 292.271 216.635,291.871 216.806,291.871 217.202 C 291.871 217.514,291.626 217.769,291.326 217.769 C 291.026 217.769,290.550 218.098,290.269 218.499 C 289.988 218.900,289.284 219.347,288.705 219.493 C 288.126 219.638,287.562 219.990,287.453 220.275 C 287.343 220.561,286.932 220.794,286.538 220.794 C 286.088 220.794,285.822 221.059,285.822 221.508 C 285.822 222.025,285.457 222.291,284.499 222.470 C 283.771 222.607,283.176 222.885,283.176 223.089 C 283.176 223.293,282.750 223.621,282.231 223.819 C 281.711 224.016,281.285 224.437,281.285 224.754 C 281.285 225.071,280.986 225.331,280.620 225.331 C 280.254 225.331,279.743 225.671,279.483 226.087 C 279.222 226.505,278.601 226.843,278.094 226.843 C 277.510 226.843,277.091 227.117,276.938 227.599 C 276.806 228.015,276.369 228.355,275.967 228.355 C 275.488 228.355,275.236 228.616,275.236 229.112 C 275.236 229.724,274.984 229.868,273.913 229.868 C 272.842 229.868,272.590 230.012,272.590 230.624 C 272.590 231.128,272.338 231.380,271.834 231.380 C 271.414 231.380,271.078 231.632,271.078 231.947 C 271.078 232.295,270.724 232.514,270.163 232.514 C 268.858 232.514,268.053 232.890,268.053 233.500 C 268.053 233.789,267.713 234.026,267.297 234.026 C 266.793 234.026,266.541 234.279,266.541 234.783 C 266.541 235.330,266.289 235.539,265.626 235.539 C 264.321 235.539,263.516 235.915,263.516 236.524 C 263.516 236.814,263.176 237.051,262.760 237.051 C 262.256 237.051,262.004 237.303,262.004 237.807 C 262.004 238.416,261.752 238.563,260.706 238.563 C 259.740 238.563,259.347 238.757,259.168 239.319 C 258.998 239.856,258.596 240.076,257.784 240.076 C 256.958 240.076,256.585 240.286,256.442 240.832 C 256.333 241.250,255.927 241.588,255.532 241.588 C 255.141 241.588,254.480 241.928,254.064 242.344 C 253.648 242.760,253.037 243.100,252.706 243.100 C 252.374 243.100,252.014 243.440,251.905 243.856 C 251.766 244.389,251.390 244.612,250.631 244.612 C 249.941 244.612,249.409 244.884,249.149 245.369 C 248.927 245.784,248.437 246.125,248.060 246.125 C 247.684 246.125,247.068 246.465,246.692 246.881 C 246.316 247.297,245.694 247.637,245.310 247.637 C 244.926 247.637,244.609 247.850,244.604 248.110 C 244.597 248.553,243.562 249.216,241.115 250.347 C 240.543 250.611,240.076 251.045,240.076 251.312 C 240.076 251.578,239.735 251.796,239.319 251.796 C 238.904 251.796,238.223 252.136,237.807 252.552 C 237.391 252.968,236.863 253.308,236.633 253.308 C 236.403 253.308,235.710 253.733,235.092 254.253 C 234.474 254.773,233.726 255.198,233.430 255.198 C 233.134 255.198,232.892 255.454,232.892 255.766 C 232.892 256.078,232.578 256.333,232.195 256.333 C 231.811 256.333,231.203 256.658,230.844 257.055 C 230.484 257.452,229.777 257.881,229.273 258.007 C 228.768 258.134,228.355 258.489,228.355 258.797 C 228.355 259.105,228.035 259.357,227.643 259.357 C 227.249 259.357,226.843 259.695,226.734 260.113 C 226.588 260.670,226.218 260.870,225.331 260.870 C 224.444 260.870,224.074 261.069,223.928 261.626 C 223.819 262.044,223.412 262.382,223.018 262.382 C 222.558 262.382,222.306 262.650,222.306 263.138 C 222.306 263.728,222.054 263.894,221.160 263.894 C 220.523 263.894,219.923 264.131,219.810 264.427 C 219.697 264.720,219.192 265.064,218.687 265.190 C 218.182 265.317,217.769 265.673,217.769 265.981 C 217.769 266.289,217.552 266.541,217.286 266.541 C 217.021 266.541,216.512 266.881,216.156 267.297 C 215.800 267.713,215.161 268.053,214.737 268.053 C 214.312 268.053,213.862 268.321,213.736 268.649 C 213.610 268.977,213.105 269.398,212.614 269.585 C 212.122 269.772,211.720 270.184,211.720 270.501 C 211.720 270.893,211.347 271.078,210.551 271.078 C 209.699 271.078,209.327 271.283,209.183 271.834 C 209.074 272.252,208.668 272.590,208.273 272.590 C 207.813 272.590,207.561 272.857,207.561 273.346 C 207.561 273.976,207.309 274.102,206.049 274.102 C 204.789 274.102,204.537 274.228,204.537 274.858 C 204.537 275.451,204.285 275.614,203.367 275.614 C 202.516 275.614,202.144 275.820,202.000 276.371 C 201.872 276.860,201.484 277.127,200.901 277.127 C 200.252 277.127,200.000 277.338,200.000 277.883 C 200.000 278.495,199.748 278.639,198.677 278.639 C 197.753 278.639,197.353 278.810,197.353 279.206 C 197.353 279.518,197.125 279.773,196.845 279.773 C 196.565 279.773,196.037 280.104,195.672 280.508 C 195.306 280.912,194.514 281.351,193.912 281.483 C 193.309 281.615,192.817 281.931,192.817 282.185 C 192.817 282.438,192.221 282.861,191.493 283.124 C 190.766 283.387,190.170 283.762,190.170 283.956 C 190.170 284.151,189.814 284.310,189.379 284.310 C 188.905 284.310,188.508 284.614,188.389 285.066 C 188.280 285.485,187.874 285.822,187.480 285.822 C 187.088 285.822,186.427 286.163,186.011 286.578 C 185.595 286.994,185.011 287.335,184.714 287.335 C 184.416 287.335,184.064 287.675,183.932 288.091 C 183.800 288.507,183.365 288.847,182.964 288.847 C 182.564 288.847,182.025 289.187,181.765 289.603 C 181.505 290.019,180.908 290.359,180.438 290.359 C 179.836 290.359,179.584 290.582,179.584 291.115 C 179.584 291.619,179.332 291.871,178.828 291.871 C 178.324 291.871,178.072 292.124,178.072 292.628 C 178.072 293.258,177.820 293.384,176.560 293.384 C 175.299 293.384,175.047 293.510,175.047 294.140 C 175.047 294.644,174.795 294.896,174.291 294.896 C 173.875 294.896,173.535 295.128,173.535 295.412 C 173.535 296.362,170.416 296.408,107.121 296.408 L 44.216 296.408 43.847 297.378 C 43.178 299.138,43.399 301.474,44.329 302.467 C 45.652 303.880,46.308 305.070,46.667 306.711 C 46.793 307.283,47.147 307.750,47.455 307.750 C 47.839 307.750,48.015 308.151,48.015 309.023 C 48.015 309.722,48.331 310.701,48.716 311.197 C 49.102 311.693,49.532 312.720,49.672 313.480 C 49.812 314.239,50.177 314.957,50.483 315.075 C 50.803 315.197,51.040 315.773,51.040 316.431 C 51.040 317.164,51.311 317.743,51.796 318.046 C 52.288 318.354,52.552 318.928,52.552 319.692 C 52.552 320.386,52.861 321.146,53.308 321.550 C 53.724 321.926,54.064 322.633,54.064 323.121 C 54.064 323.609,54.405 324.348,54.820 324.764 C 55.236 325.180,55.577 325.860,55.577 326.276 C 55.577 326.692,55.917 327.372,56.333 327.788 C 56.756 328.212,57.089 329.049,57.089 329.691 C 57.089 330.334,57.325 330.927,57.628 331.043 C 57.924 331.157,58.279 331.917,58.417 332.733 C 58.561 333.585,58.880 334.216,59.168 334.216 C 59.458 334.216,59.777 334.853,59.924 335.728 C 60.067 336.574,60.394 337.240,60.665 337.240 C 60.937 337.240,61.254 337.885,61.385 338.703 C 61.514 339.508,61.854 340.362,62.142 340.601 C 62.430 340.840,62.775 341.719,62.909 342.555 C 63.042 343.390,63.404 344.171,63.712 344.289 C 64.020 344.408,64.272 344.911,64.272 345.409 C 64.272 345.907,64.612 346.654,65.028 347.070 C 65.444 347.486,65.784 348.152,65.784 348.551 C 65.784 349.678,66.192 350.473,66.770 350.473 C 67.075 350.473,67.297 350.857,67.297 351.387 C 67.297 352.692,67.673 353.497,68.282 353.497 C 68.635 353.497,68.809 353.947,68.809 354.856 C 68.809 355.896,68.986 356.261,69.565 356.412 C 70.138 356.562,70.321 356.928,70.321 357.924 C 70.321 358.921,70.504 359.287,71.078 359.437 C 71.670 359.592,71.834 359.952,71.834 361.103 C 71.834 362.156,71.994 362.571,72.401 362.571 C 72.772 362.571,72.968 362.943,72.968 363.647 C 72.968 364.239,73.308 365.116,73.724 365.595 C 74.140 366.075,74.480 366.861,74.480 367.341 C 74.480 367.828,74.815 368.395,75.236 368.620 C 75.673 368.854,75.992 369.412,75.992 369.939 C 75.992 370.442,76.426 371.287,76.955 371.816 L 77.917 372.779 164.857 372.779 C 251.544 372.779,251.796 372.777,251.796 372.023 C 251.796 371.607,252.033 371.267,252.322 371.267 C 252.893 371.267,253.308 370.475,253.308 369.386 C 253.308 369.009,253.563 368.603,253.875 368.483 C 254.187 368.364,254.442 367.836,254.442 367.312 C 254.442 366.767,254.767 366.155,255.198 365.886 C 255.614 365.626,255.955 365.056,255.955 364.618 C 255.955 364.180,256.295 363.514,256.711 363.138 C 257.127 362.762,257.467 362.081,257.467 361.626 C 257.467 361.170,257.807 360.490,258.223 360.113 C 258.639 359.737,258.979 359.108,258.979 358.716 C 258.979 358.323,259.319 357.637,259.735 357.191 C 260.151 356.744,260.491 356.071,260.491 355.694 C 260.491 355.318,260.832 354.669,261.248 354.253 C 261.664 353.837,262.004 353.150,262.004 352.725 C 262.004 352.301,262.344 351.588,262.760 351.142 C 263.176 350.695,263.516 350.091,263.516 349.799 C 263.516 349.507,263.856 348.836,264.272 348.307 C 264.688 347.779,265.028 347.118,265.028 346.839 C 265.028 346.560,265.368 345.775,265.783 345.094 C 266.198 344.413,266.538 343.585,266.539 343.253 C 266.540 342.922,266.881 342.342,267.297 341.966 C 267.713 341.590,268.053 340.904,268.053 340.441 C 268.053 339.979,268.308 339.389,268.620 339.130 C 268.932 338.872,269.187 338.105,269.187 337.427 C 269.187 336.512,269.382 336.143,269.943 335.996 C 270.453 335.863,270.699 335.481,270.699 334.821 C 270.699 334.253,271.016 333.646,271.456 333.372 C 271.889 333.101,272.212 332.490,272.212 331.940 C 272.212 331.412,272.552 330.735,272.968 330.435 C 273.384 330.135,273.724 329.528,273.724 329.087 C 273.724 328.645,274.064 327.976,274.480 327.599 C 274.896 327.223,275.236 326.468,275.236 325.923 C 275.236 325.364,275.567 324.692,275.992 324.386 C 276.408 324.086,276.749 323.522,276.749 323.133 C 276.749 322.744,277.089 321.993,277.505 321.464 C 277.921 320.936,278.261 320.255,278.261 319.952 C 278.261 319.649,278.601 318.968,279.017 318.440 C 279.433 317.911,279.773 317.182,279.773 316.820 C 279.773 316.457,280.028 315.949,280.340 315.690 C 280.652 315.431,280.907 314.969,280.907 314.664 C 280.907 314.358,281.248 313.675,281.664 313.147 C 282.079 312.618,282.420 311.891,282.420 311.531 C 282.420 311.171,282.738 310.471,283.127 309.975 C 283.515 309.479,283.957 308.509,284.107 307.819 C 284.258 307.130,284.620 306.473,284.913 306.361 C 285.229 306.240,285.444 305.623,285.444 304.839 C 285.444 303.839,285.627 303.473,286.200 303.323 C 286.762 303.176,286.957 302.807,286.957 301.890 C 286.957 300.973,287.151 300.604,287.713 300.458 C 288.286 300.308,288.469 299.942,288.469 298.945 C 288.469 297.949,288.652 297.583,289.225 297.433 C 289.804 297.282,289.981 296.917,289.981 295.877 C 289.981 294.770,290.121 294.518,290.737 294.518 C 291.312 294.518,291.493 294.266,291.493 293.467 C 291.493 292.850,291.805 292.191,292.250 291.871 C 292.665 291.572,293.006 290.895,293.006 290.367 C 293.006 289.816,293.328 289.205,293.762 288.935 C 294.178 288.675,294.518 288.116,294.518 287.694 C 294.518 287.271,294.858 286.560,295.274 286.113 C 295.690 285.667,296.030 284.908,296.030 284.428 C 296.030 283.947,296.180 283.554,296.362 283.554 C 296.545 283.554,296.916 283.001,297.188 282.325 C 297.459 281.649,297.990 280.691,298.368 280.195 C 298.746 279.699,299.055 279.049,299.055 278.750 C 299.055 278.451,299.310 277.952,299.622 277.640 C 299.934 277.328,300.189 276.615,300.189 276.056 C 300.189 275.450,300.494 274.850,300.945 274.568 C 301.427 274.267,301.701 273.686,301.701 272.968 C 301.701 272.250,301.976 271.669,302.457 271.368 C 302.989 271.036,303.214 270.486,303.214 269.518 C 303.214 268.459,303.388 268.095,303.970 267.943 C 304.543 267.793,304.726 267.428,304.726 266.431 C 304.726 265.435,304.909 265.069,305.482 264.919 C 306.055 264.769,306.238 264.403,306.238 263.407 C 306.238 262.410,306.421 262.044,306.994 261.894 C 307.568 261.744,307.750 261.379,307.750 260.382 C 307.750 259.385,307.933 259.020,308.507 258.870 C 309.080 258.720,309.263 258.354,309.263 257.357 C 309.263 256.361,309.446 255.995,310.019 255.845 C 310.530 255.711,310.775 255.329,310.775 254.667 C 310.775 254.127,311.115 253.346,311.531 252.930 C 311.947 252.514,312.287 251.749,312.287 251.229 C 312.287 250.673,312.504 250.284,312.814 250.284 C 313.417 250.284,313.800 249.481,313.800 248.217 C 313.800 247.665,314.076 247.275,314.556 247.149 C 315.055 247.019,315.312 246.634,315.312 246.017 C 315.312 245.504,315.567 244.871,315.879 244.612 C 316.191 244.354,316.446 243.739,316.446 243.246 C 316.446 242.754,316.786 242.138,317.202 241.878 C 317.618 241.619,317.958 241.048,317.958 240.610 C 317.958 240.173,318.299 239.507,318.715 239.130 C 319.130 238.754,319.471 238.132,319.471 237.749 C 319.471 237.365,319.811 236.711,320.227 236.295 C 320.643 235.879,320.983 235.198,320.983 234.783 C 320.983 234.367,321.323 233.686,321.739 233.270 C 322.155 232.854,322.495 232.192,322.495 231.798 C 322.495 231.405,322.734 230.991,323.027 230.879 C 323.319 230.767,323.677 230.136,323.821 229.477 C 323.966 228.818,324.407 227.955,324.802 227.561 C 325.197 227.166,325.520 226.503,325.520 226.087 C 325.520 225.671,325.860 224.991,326.276 224.575 C 326.692 224.159,327.032 223.393,327.032 222.873 C 327.032 222.319,327.249 221.928,327.557 221.928 C 327.859 221.928,328.189 221.358,328.334 220.585 C 328.473 219.846,328.815 219.154,329.095 219.047 C 329.375 218.939,329.711 218.285,329.841 217.592 C 329.970 216.900,330.327 216.125,330.634 215.871 C 330.940 215.616,331.191 214.960,331.191 214.411 C 331.191 213.824,331.501 213.220,331.947 212.942 C 332.429 212.641,332.703 212.061,332.703 211.339 C 332.703 210.624,332.897 210.208,333.230 210.208 C 333.808 210.208,334.216 209.414,334.216 208.287 C 334.216 207.888,334.556 207.221,334.972 206.805 C 335.388 206.389,335.728 205.747,335.728 205.377 C 335.728 205.007,336.068 204.414,336.484 204.057 C 336.900 203.701,337.240 202.978,337.240 202.449 C 337.240 201.921,337.491 201.392,337.797 201.275 C 338.103 201.157,338.460 200.494,338.590 199.801 C 338.720 199.107,339.049 198.455,339.321 198.350 C 339.593 198.246,339.934 197.622,340.078 196.962 C 340.223 196.303,340.665 195.441,341.059 195.047 C 341.454 194.652,341.777 193.977,341.777 193.547 C 341.777 193.118,342.415 192.164,343.195 191.429 C 344.730 189.981,345.401 185.014,344.120 184.587 C 343.187 184.276,341.839 182.493,341.609 181.265 C 341.482 180.589,341.128 179.939,340.821 179.822 C 340.515 179.704,340.265 179.262,340.265 178.840 C 340.265 178.417,339.948 177.755,339.560 177.367 C 339.173 176.980,338.740 176.044,338.598 175.288 C 338.442 174.455,338.123 173.913,337.790 173.913 C 337.455 173.913,337.240 173.543,337.240 172.968 C 337.240 172.448,336.917 171.700,336.522 171.305 C 336.128 170.910,335.692 170.074,335.554 169.446 C 335.416 168.819,335.059 168.211,334.760 168.096 C 334.454 167.979,334.216 167.392,334.216 166.755 C 334.216 166.009,333.957 165.484,333.459 165.217 C 332.967 164.954,332.703 164.426,332.703 163.705 C 332.703 162.984,332.439 162.456,331.947 162.193 C 331.449 161.926,331.191 161.401,331.191 160.655 C 331.191 160.032,330.952 159.431,330.661 159.319 C 330.370 159.207,330.020 158.523,329.884 157.799 C 329.748 157.075,329.408 156.394,329.128 156.287 C 328.848 156.179,328.508 155.499,328.372 154.774 C 328.236 154.050,327.879 153.363,327.578 153.248 C 327.278 153.133,327.032 152.631,327.032 152.133 C 327.032 151.636,326.692 150.888,326.276 150.473 C 325.860 150.057,325.520 149.461,325.520 149.149 C 325.520 148.837,325.180 148.242,324.764 147.826 C 324.348 147.410,324.008 146.730,324.008 146.314 C 324.008 145.898,323.667 145.217,323.251 144.802 C 322.836 144.386,322.495 143.705,322.495 143.289 C 322.495 142.873,322.155 142.193,321.739 141.777 C 321.323 141.361,320.983 140.707,320.983 140.323 C 320.983 139.940,320.643 139.318,320.227 138.941 C 319.811 138.565,319.471 137.943,319.471 137.560 C 319.471 137.176,319.130 136.522,318.715 136.106 C 318.299 135.690,317.958 135.047,317.958 134.677 C 317.958 134.307,317.618 133.759,317.202 133.459 C 316.758 133.139,316.446 132.481,316.446 131.864 C 316.446 131.286,316.283 130.813,316.083 130.813 C 315.883 130.813,315.536 130.132,315.312 129.301 C 315.073 128.412,314.677 127.788,314.352 127.788 C 314.014 127.788,313.800 127.420,313.800 126.839 C 313.800 126.318,313.459 125.599,313.043 125.243 C 312.628 124.887,312.287 124.307,312.287 123.954 C 312.287 122.906,311.864 122.117,311.302 122.117 C 310.949 122.117,310.775 121.668,310.775 120.759 C 310.775 119.718,310.598 119.354,310.019 119.202 C 309.539 119.077,309.263 118.686,309.263 118.134 C 309.263 116.871,308.880 116.068,308.277 116.068 C 307.929 116.068,307.750 115.628,307.750 114.770 C 307.750 113.805,307.557 113.411,306.994 113.233 C 306.432 113.054,306.238 112.660,306.238 111.695 C 306.238 110.649,306.091 110.397,305.482 110.397 C 304.854 110.397,304.726 110.145,304.726 108.910 C 304.726 107.755,304.557 107.370,303.970 107.183 C 303.416 107.008,303.214 106.611,303.214 105.704 C 303.214 104.945,302.921 104.200,302.457 103.781 C 302.042 103.404,301.701 102.696,301.701 102.206 C 301.701 101.716,301.361 101.025,300.945 100.668 C 300.529 100.312,300.189 99.569,300.189 99.017 C 300.189 98.465,299.945 97.810,299.646 97.563 C 299.348 97.315,298.996 96.625,298.866 96.030 C 298.735 95.435,298.384 94.746,298.085 94.498 C 297.787 94.250,297.543 93.836,297.543 93.577 C 297.543 93.319,297.202 92.675,296.786 92.146 C 296.371 91.618,296.030 90.855,296.030 90.453 C 296.030 90.050,295.690 89.412,295.274 89.036 C 294.858 88.660,294.518 87.994,294.518 87.556 C 294.518 87.118,294.178 86.548,293.762 86.288 C 293.346 86.028,293.006 85.418,293.006 84.933 C 293.006 84.447,292.665 83.741,292.250 83.365 C 291.834 82.988,291.493 82.266,291.493 81.759 C 291.493 81.155,291.233 80.768,290.737 80.639 C 290.173 80.491,289.981 80.123,289.981 79.187 C 289.981 78.266,289.781 77.870,289.225 77.694 C 288.662 77.515,288.469 77.122,288.469 76.156 C 288.469 75.110,288.322 74.858,287.713 74.858 C 287.083 74.858,286.957 74.606,286.957 73.346 C 286.957 72.086,286.830 71.834,286.200 71.834 C 285.587 71.834,285.444 71.582,285.444 70.499 C 285.444 69.702,285.230 69.081,284.914 68.960 C 284.623 68.848,284.270 68.149,284.131 67.405 C 283.991 66.662,283.635 65.811,283.338 65.515 C 283.042 65.218,282.688 64.520,282.552 63.962 C 282.416 63.405,281.990 62.543,281.606 62.047 C 281.222 61.551,280.907 60.823,280.907 60.429 C 280.907 60.034,280.652 59.614,280.340 59.494 C 280.028 59.374,279.773 58.896,279.773 58.430 C 279.773 57.965,279.433 57.276,279.017 56.900 C 278.601 56.523,278.261 55.925,278.261 55.569 C 278.261 55.213,277.921 54.490,277.505 53.961 C 277.089 53.432,276.749 52.670,276.749 52.267 C 276.749 51.865,276.408 51.227,275.992 50.851 C 275.575 50.473,275.236 49.686,275.236 49.094 C 275.236 48.431,274.948 47.841,274.480 47.549 C 274.064 47.290,273.724 46.719,273.724 46.281 C 273.724 45.844,273.384 45.178,272.968 44.802 C 272.552 44.425,272.212 43.745,272.212 43.289 C 272.212 42.834,271.871 42.153,271.456 41.777 C 271.040 41.401,270.699 40.694,270.699 40.206 C 270.699 39.572,270.484 39.319,269.943 39.319 C 269.317 39.319,269.187 39.067,269.187 37.853 C 269.187 37.012,268.946 36.187,268.620 35.917 C 268.308 35.658,268.053 35.153,268.053 34.794 C 268.053 34.436,267.713 33.750,267.297 33.270 C 266.881 32.791,266.541 32.107,266.541 31.751 C 266.541 31.395,266.200 30.671,265.784 30.143 C 265.369 29.614,265.028 28.825,265.028 28.390 C 265.028 27.955,264.688 27.259,264.272 26.843 C 263.856 26.427,263.516 25.773,263.516 25.389 C 263.516 25.006,263.176 24.384,262.760 24.008 C 262.344 23.631,262.004 22.951,262.004 22.495 C 262.004 22.040,261.664 21.359,261.248 20.983 C 260.832 20.607,260.491 19.926,260.491 19.471 C 260.491 19.015,260.151 18.335,259.735 17.958 C 259.319 17.582,258.979 16.960,258.979 16.577 C 258.979 16.193,258.639 15.539,258.223 15.123 C 257.807 14.707,257.467 13.943,257.467 13.425 C 257.467 12.892,257.138 12.278,256.711 12.011 C 256.295 11.751,255.955 11.180,255.955 10.743 C 255.955 10.305,255.614 9.639,255.198 9.263 C 254.783 8.886,254.442 8.179,254.442 7.692 C 254.442 7.156,254.218 6.805,253.875 6.805 C 253.527 6.805,253.308 6.452,253.308 5.891 C 253.308 4.616,252.936 3.781,252.367 3.781 C 252.101 3.781,251.795 3.440,251.686 3.025 C 251.382 1.859,77.697 1.825,77.327 2.990 M321.361 177.100 C 321.361 177.398,321.744 177.715,322.212 177.805 C 322.941 177.945,322.914 177.976,322.023 178.020 C 321.354 178.053,320.983 177.881,320.983 177.536 C 320.983 177.242,320.770 176.915,320.510 176.810 C 320.228 176.696,320.304 176.607,320.699 176.589 C 321.063 176.573,321.361 176.803,321.361 177.100 " stroke="#000000" fill="none" stroke-width="3" class="mFHbmMxa_0"></path><path id="path1" d="M77.327 2.990 C 77.201 3.386,76.849 3.806,76.545 3.923 C 76.241 4.040,75.992 4.539,75.992 5.034 C 75.992 5.528,75.652 6.240,75.236 6.616 C 74.820 6.993,74.480 7.673,74.480 8.129 C 74.480 8.584,74.140 9.264,73.724 9.641 C 73.308 10.017,72.968 10.791,72.968 11.360 C 72.968 11.932,72.714 12.493,72.401 12.613 C 72.041 12.751,71.834 13.332,71.834 14.201 C 71.834 15.254,71.658 15.618,71.078 15.769 C 70.524 15.914,70.321 16.285,70.321 17.155 C 70.321 17.934,70.061 18.506,69.565 18.816 C 69.107 19.102,68.809 19.698,68.809 20.328 C 68.809 20.959,68.511 21.554,68.053 21.840 C 67.625 22.107,67.297 22.722,67.297 23.255 C 67.297 23.773,66.957 24.537,66.541 24.953 C 66.125 25.369,65.784 26.116,65.784 26.614 C 65.784 27.111,65.545 27.610,65.253 27.722 C 64.961 27.834,64.598 28.491,64.448 29.181 C 64.297 29.870,63.856 30.841,63.467 31.336 C 63.078 31.832,62.760 32.620,62.760 33.086 C 62.760 33.552,62.503 34.147,62.189 34.407 C 61.876 34.668,61.515 35.529,61.389 36.321 C 61.262 37.113,60.933 37.847,60.657 37.953 C 60.381 38.059,60.044 38.738,59.908 39.462 C 59.772 40.187,59.439 40.865,59.167 40.969 C 58.895 41.073,58.551 41.714,58.402 42.392 C 58.253 43.070,57.896 43.859,57.610 44.145 C 57.323 44.432,57.089 45.127,57.089 45.690 C 57.089 46.252,56.749 47.004,56.333 47.360 C 55.917 47.716,55.577 48.408,55.577 48.898 C 55.577 49.388,55.236 50.096,54.820 50.473 C 54.405 50.849,54.064 51.615,54.064 52.174 C 54.064 52.733,53.724 53.499,53.308 53.875 C 52.839 54.300,52.552 55.040,52.552 55.824 C 52.552 56.653,52.371 57.089,52.025 57.089 C 51.456 57.089,51.040 57.880,51.040 58.964 C 51.040 59.337,50.789 59.851,50.483 60.105 C 50.176 60.359,49.811 61.180,49.670 61.929 C 49.530 62.678,49.100 63.629,48.715 64.042 C 48.326 64.459,48.015 65.349,48.015 66.045 C 48.015 66.863,47.833 67.297,47.488 67.297 C 46.885 67.297,46.503 68.100,46.503 69.367 C 46.503 69.847,46.248 70.338,45.936 70.458 C 45.624 70.578,45.369 70.863,45.369 71.091 C 45.369 71.319,44.922 72.091,44.377 72.806 C 43.439 74.035,43.148 77.679,43.925 78.456 C 44.033 78.564,72.180 78.648,106.474 78.642 C 171.781 78.632,173.535 78.663,173.535 79.827 C 173.535 80.263,173.805 80.529,174.247 80.529 C 174.641 80.529,175.047 80.867,175.157 81.285 C 175.308 81.865,175.673 82.042,176.713 82.042 C 177.820 82.042,178.072 82.182,178.072 82.798 C 178.072 83.302,178.324 83.554,178.828 83.554 C 179.244 83.554,179.584 83.806,179.584 84.114 C 179.584 84.422,179.997 84.777,180.501 84.904 C 181.006 85.031,181.713 85.459,182.072 85.856 C 182.432 86.253,182.960 86.578,183.246 86.578 C 183.532 86.578,183.865 86.834,183.984 87.146 C 184.104 87.457,184.483 87.713,184.827 87.713 C 185.170 87.713,185.664 88.053,185.924 88.469 C 186.183 88.885,186.800 89.225,187.294 89.225 C 187.874 89.225,188.262 89.493,188.389 89.981 C 188.498 90.397,188.858 90.737,189.190 90.737 C 189.521 90.737,190.132 91.078,190.548 91.493 C 190.964 91.909,191.625 92.250,192.016 92.250 C 192.410 92.250,192.817 92.587,192.926 93.006 C 193.054 93.494,193.442 93.762,194.021 93.762 C 194.514 93.762,195.163 94.102,195.463 94.518 C 195.763 94.934,196.291 95.274,196.637 95.274 C 196.982 95.274,197.354 95.614,197.463 96.030 C 197.605 96.573,197.979 96.786,198.786 96.786 C 199.594 96.786,199.968 97.000,200.110 97.543 C 200.224 97.979,200.625 98.299,201.058 98.299 C 201.471 98.299,201.901 98.538,202.013 98.830 C 202.126 99.122,202.739 99.476,203.377 99.616 C 204.015 99.756,204.537 100.095,204.537 100.368 C 204.537 100.950,205.362 101.323,206.647 101.323 C 207.208 101.323,207.561 101.543,207.561 101.890 C 207.561 102.205,207.898 102.457,208.318 102.457 C 208.822 102.457,209.074 102.710,209.074 103.214 C 209.074 103.821,209.326 103.970,210.353 103.970 C 211.314 103.970,211.681 104.158,211.830 104.726 C 211.939 105.142,212.287 105.482,212.605 105.482 C 212.922 105.482,213.290 105.822,213.422 106.238 C 213.575 106.720,213.994 106.994,214.578 106.994 C 215.085 106.994,215.706 107.332,215.967 107.750 C 216.226 108.166,216.738 108.507,217.104 108.507 C 217.470 108.507,217.769 108.767,217.769 109.086 C 217.769 109.404,218.067 109.773,218.431 109.906 C 218.795 110.039,219.498 110.459,219.994 110.839 C 220.490 111.220,221.193 111.531,221.557 111.531 C 221.921 111.531,222.307 111.871,222.416 112.287 C 222.525 112.703,222.866 113.043,223.176 113.043 C 223.485 113.043,223.832 113.289,223.947 113.590 C 224.063 113.890,224.761 114.249,225.500 114.388 C 226.239 114.527,226.843 114.865,226.843 115.139 C 226.843 115.414,227.183 115.747,227.599 115.879 C 228.015 116.011,228.355 116.275,228.355 116.467 C 228.355 116.658,228.951 117.063,229.679 117.367 C 230.406 117.671,231.002 118.099,231.002 118.317 C 231.002 118.536,231.336 118.715,231.745 118.715 C 232.153 118.715,232.670 119.055,232.892 119.471 C 233.115 119.887,233.594 120.227,233.956 120.227 C 234.319 120.227,234.861 120.567,235.161 120.983 C 235.460 121.399,236.008 121.739,236.378 121.739 C 236.748 121.739,237.391 122.079,237.807 122.495 C 238.223 122.911,238.884 123.251,239.275 123.251 C 239.669 123.251,240.076 123.589,240.185 124.008 C 240.294 124.423,240.654 124.764,240.985 124.764 C 241.317 124.764,241.928 125.104,242.344 125.520 C 242.760 125.936,243.440 126.276,243.856 126.276 C 244.272 126.276,244.612 126.528,244.612 126.836 C 244.612 127.144,245.038 127.503,245.558 127.633 C 246.078 127.764,246.503 128.003,246.503 128.164 C 246.503 128.326,247.098 128.741,247.826 129.086 C 248.554 129.432,249.149 129.869,249.149 130.057 C 249.149 130.246,249.745 130.512,250.473 130.649 C 251.230 130.791,251.796 131.121,251.796 131.422 C 251.796 131.711,252.025 131.947,252.305 131.947 C 252.585 131.947,253.212 132.292,253.698 132.714 C 254.184 133.135,254.963 133.576,255.430 133.693 C 255.896 133.810,256.370 134.146,256.483 134.439 C 256.595 134.732,257.183 134.972,257.789 134.972 C 258.573 134.972,258.948 135.190,259.089 135.728 C 259.240 136.307,259.604 136.484,260.645 136.484 C 261.752 136.484,262.004 136.624,262.004 137.240 C 262.004 137.729,262.256 137.996,262.716 137.996 C 263.110 137.996,263.516 138.334,263.626 138.752 C 263.777 139.332,264.141 139.509,265.182 139.509 C 266.289 139.509,266.541 139.649,266.541 140.265 C 266.541 140.753,266.793 141.021,267.253 141.021 C 267.647 141.021,268.053 141.358,268.162 141.777 C 268.314 142.356,268.678 142.533,269.719 142.533 C 270.825 142.533,271.078 142.673,271.078 143.289 C 271.078 143.793,271.330 144.045,271.834 144.045 C 272.338 144.045,272.590 144.297,272.590 144.802 C 272.590 145.414,272.842 145.558,273.913 145.558 C 274.849 145.558,275.236 145.727,275.236 146.137 C 275.236 146.455,275.534 146.827,275.898 146.962 C 276.262 147.098,276.782 147.518,277.054 147.896 C 277.325 148.273,277.866 148.582,278.255 148.582 C 278.645 148.582,279.218 148.837,279.530 149.149 C 279.842 149.461,280.365 149.716,280.691 149.716 C 281.033 149.716,281.285 150.037,281.285 150.473 C 281.285 150.942,281.537 151.229,281.951 151.229 C 282.317 151.229,282.828 151.569,283.088 151.985 C 283.389 152.467,283.970 152.741,284.691 152.741 C 285.570 152.741,285.822 152.910,285.822 153.497 C 285.822 153.986,286.074 154.253,286.534 154.253 C 286.928 154.253,287.335 154.591,287.444 155.009 C 287.587 155.555,287.960 155.766,288.786 155.766 C 289.598 155.766,290.000 155.985,290.170 156.522 C 290.302 156.938,290.739 157.278,291.141 157.278 C 291.543 157.278,291.871 157.515,291.871 157.805 C 291.871 158.383,292.666 158.790,293.793 158.790 C 294.192 158.790,294.518 159.050,294.518 159.369 C 294.518 159.688,294.816 160.058,295.180 160.191 C 295.543 160.325,295.973 160.653,296.135 160.920 C 296.297 161.188,297.020 161.517,297.742 161.653 C 298.464 161.788,299.061 162.093,299.069 162.329 C 299.086 162.870,302.154 164.839,302.979 164.839 C 303.316 164.839,303.592 165.095,303.592 165.406 C 303.592 165.803,303.991 165.974,304.915 165.974 C 305.849 165.974,306.238 166.143,306.238 166.550 C 306.238 166.867,306.640 167.279,307.132 167.466 C 307.623 167.653,308.128 168.074,308.254 168.402 C 308.393 168.763,308.934 168.998,309.629 168.998 C 310.406 168.998,310.775 169.184,310.775 169.577 C 310.775 169.896,311.073 170.267,311.437 170.403 C 311.801 170.539,312.321 170.959,312.592 171.336 C 312.877 171.732,313.557 172.023,314.199 172.023 C 314.946 172.023,315.312 172.213,315.312 172.602 C 315.312 172.920,315.597 173.290,315.945 173.423 C 316.293 173.557,316.888 173.977,317.268 174.357 C 317.648 174.737,318.280 175.047,318.674 175.047 C 319.267 175.047,319.849 175.718,319.849 176.401 C 319.849 176.847,317.734 176.474,317.123 175.921 C 316.688 175.527,315.555 175.220,314.164 175.119 C 312.686 175.013,311.909 174.792,311.909 174.479 C 311.909 173.925,310.732 173.547,308.979 173.540 C 308.188 173.537,307.750 173.349,307.750 173.012 C 307.750 172.401,306.608 172.035,304.675 172.028 C 303.622 172.024,303.256 171.846,303.104 171.267 C 302.939 170.635,302.588 170.510,300.981 170.510 C 299.521 170.510,299.055 170.373,299.055 169.943 C 299.055 169.537,298.640 169.376,297.587 169.376 C 296.436 169.376,296.076 169.212,295.921 168.620 C 295.753 167.978,295.405 167.864,293.608 167.864 C 291.745 167.864,291.493 167.774,291.493 167.108 C 291.493 166.481,291.241 166.352,290.025 166.352 C 288.875 166.352,288.514 166.188,288.359 165.595 C 288.195 164.967,287.844 164.839,286.280 164.839 C 284.716 164.839,284.365 164.712,284.200 164.083 C 284.045 163.487,283.685 163.327,282.499 163.327 C 281.314 163.327,280.954 163.167,280.798 162.571 C 280.634 161.943,280.282 161.815,278.718 161.815 C 277.155 161.815,276.803 161.687,276.639 161.059 C 276.478 160.441,276.123 160.302,274.708 160.302 C 273.384 160.302,272.863 160.124,272.502 159.546 C 272.166 159.008,271.620 158.790,270.608 158.790 C 269.650 158.790,269.187 158.620,269.187 158.267 C 269.187 157.671,268.053 157.291,266.257 157.283 C 265.461 157.280,265.028 157.092,265.028 156.751 C 265.028 156.145,264.224 155.766,262.937 155.766 C 262.444 155.766,261.886 155.488,261.696 155.148 C 261.472 154.748,260.664 154.464,259.408 154.344 C 258.105 154.218,257.467 153.986,257.467 153.638 C 257.467 153.290,256.998 153.119,256.046 153.119 C 255.034 153.119,254.488 152.901,254.152 152.363 C 253.782 151.771,253.270 151.607,251.793 151.607 C 250.158 151.607,249.905 151.506,249.905 150.851 C 249.905 150.211,249.653 150.095,248.263 150.095 C 247.100 150.095,246.420 149.874,245.936 149.338 C 245.530 148.890,244.771 148.582,244.071 148.582 C 243.358 148.582,242.634 148.283,242.243 147.826 C 241.773 147.277,241.127 147.070,239.890 147.070 C 238.685 147.070,238.185 146.916,238.185 146.543 C 238.185 145.928,237.378 145.558,236.040 145.558 C 235.518 145.558,234.658 145.217,234.130 144.802 C 233.561 144.354,232.596 144.045,231.766 144.045 C 230.843 144.045,230.129 143.787,229.679 143.289 C 229.282 142.851,228.514 142.533,227.854 142.533 C 227.227 142.533,226.416 142.263,226.052 141.934 C 225.687 141.604,224.653 141.237,223.753 141.117 C 222.853 140.997,221.941 140.660,221.726 140.368 C 221.511 140.075,220.575 139.735,219.646 139.611 C 218.718 139.488,217.778 139.141,217.557 138.842 C 217.337 138.543,216.316 138.206,215.289 138.093 C 214.262 137.981,213.285 137.658,213.119 137.376 C 212.953 137.093,212.268 136.862,211.596 136.862 C 210.844 136.862,210.128 136.572,209.729 136.106 C 209.263 135.563,208.613 135.350,207.420 135.350 C 206.077 135.350,205.721 135.205,205.562 134.594 C 205.406 133.999,205.046 133.837,203.875 133.837 C 202.866 133.837,202.165 133.594,201.701 133.081 C 201.295 132.633,200.537 132.325,199.836 132.325 C 199.124 132.325,198.399 132.025,198.008 131.569 C 197.539 131.020,196.893 130.813,195.656 130.813 C 194.456 130.813,193.951 130.658,193.951 130.290 C 193.951 129.766,192.856 129.315,191.561 129.306 C 191.182 129.303,190.638 129.066,190.351 128.779 C 190.064 128.492,189.183 128.138,188.393 127.991 C 187.603 127.844,186.672 127.469,186.324 127.157 C 185.976 126.845,184.956 126.492,184.056 126.372 C 183.156 126.252,181.862 125.841,181.179 125.459 C 180.497 125.076,179.270 124.764,178.452 124.764 C 177.351 124.764,176.859 124.567,176.560 124.008 C 176.259 123.447,175.768 123.251,174.656 123.251 C 173.576 123.251,173.157 123.093,173.157 122.684 C 173.157 122.249,172.674 122.117,171.078 122.117 C 169.250 122.117,168.998 122.026,168.998 121.361 C 168.998 120.733,168.746 120.605,167.511 120.605 C 166.357 120.605,165.971 120.436,165.784 119.849 C 165.583 119.215,165.212 119.093,163.491 119.093 C 161.689 119.093,161.437 119.000,161.437 118.336 C 161.437 117.724,161.185 117.580,160.113 117.580 C 159.294 117.580,158.502 117.292,158.034 116.824 C 157.534 116.324,156.774 116.068,155.791 116.068 C 154.636 116.068,154.251 115.899,154.064 115.312 C 153.864 114.681,153.492 114.556,151.814 114.556 C 150.123 114.556,149.773 114.436,149.607 113.800 C 149.456 113.223,149.091 113.043,148.069 113.043 C 147.223 113.043,146.602 112.816,146.384 112.426 C 146.160 112.026,145.352 111.742,144.097 111.622 C 142.832 111.500,142.155 111.261,142.155 110.935 C 142.155 110.604,141.392 110.348,139.909 110.180 C 138.544 110.026,137.585 109.722,137.464 109.406 C 137.209 108.741,135.860 108.728,135.463 109.386 C 135.297 109.661,134.863 109.996,134.499 110.130 C 134.135 110.264,133.837 110.634,133.837 110.952 C 133.837 111.279,133.508 111.531,133.081 111.531 C 132.577 111.531,132.325 111.783,132.325 112.287 C 132.325 112.791,132.073 113.043,131.569 113.043 C 131.065 113.043,130.813 113.296,130.813 113.800 C 130.813 114.348,130.561 114.556,129.896 114.556 C 129.289 114.556,128.213 115.304,126.704 116.776 C 125.452 117.996,124.163 119.097,123.840 119.221 C 123.516 119.345,123.251 119.708,123.251 120.026 C 123.251 120.344,123.008 120.605,122.710 120.605 C 122.412 120.605,122.060 120.945,121.928 121.361 C 121.796 121.777,121.538 122.117,121.355 122.117 C 120.854 122.117,119.093 123.843,119.093 124.334 C 119.093 124.571,118.822 124.764,118.490 124.764 C 118.159 124.764,117.799 125.104,117.690 125.520 C 117.580 125.938,117.174 126.276,116.780 126.276 C 116.320 126.276,116.068 126.544,116.068 127.032 C 116.068 127.536,115.816 127.788,115.312 127.788 C 114.808 127.788,114.556 128.040,114.556 128.544 C 114.556 129.049,114.304 129.301,113.800 129.301 C 113.296 129.301,113.043 129.553,113.043 130.057 C 113.043 130.561,112.791 130.813,112.287 130.813 C 111.783 130.813,111.531 131.065,111.531 131.569 C 111.531 132.073,111.279 132.325,110.775 132.325 C 110.271 132.325,110.019 132.577,110.019 133.081 C 110.019 133.585,109.767 133.837,109.263 133.837 C 108.759 133.837,108.507 134.089,108.507 134.594 C 108.507 135.033,108.255 135.350,107.904 135.350 C 107.573 135.350,107.213 135.690,107.104 136.106 C 106.995 136.522,106.671 136.862,106.383 136.862 C 105.877 136.862,105.505 137.127,103.483 138.929 C 102.961 139.395,102.261 139.881,101.928 140.009 C 101.595 140.136,101.323 140.501,101.323 140.820 C 101.323 141.138,101.063 141.399,100.744 141.399 C 100.426 141.399,100.070 141.648,99.953 141.952 C 99.837 142.256,99.417 142.607,99.020 142.733 C 98.623 142.859,98.299 143.186,98.299 143.460 C 98.299 143.733,97.958 144.046,97.543 144.155 C 97.127 144.264,96.786 144.604,96.786 144.911 C 96.786 145.218,96.446 145.558,96.030 145.667 C 95.614 145.776,95.274 146.116,95.274 146.423 C 95.274 146.730,94.934 147.071,94.518 147.179 C 94.102 147.288,93.762 147.629,93.762 147.936 C 93.762 148.243,93.422 148.583,93.006 148.692 C 92.590 148.801,92.250 149.141,92.250 149.448 C 92.250 149.755,91.909 150.095,91.493 150.204 C 91.078 150.313,90.737 150.653,90.737 150.960 C 90.737 151.267,90.397 151.608,89.981 151.716 C 89.565 151.825,89.225 152.185,89.225 152.517 C 89.225 152.848,88.970 153.119,88.658 153.119 C 88.346 153.119,88.091 153.374,88.091 153.686 C 88.091 154.001,87.755 154.253,87.335 154.253 C 86.830 154.253,86.578 154.505,86.578 155.009 C 86.578 155.514,86.326 155.766,85.822 155.766 C 85.318 155.766,85.066 156.018,85.066 156.522 C 85.066 156.938,84.819 157.278,84.516 157.278 C 83.804 157.278,82.042 159.040,82.042 159.753 C 82.042 160.055,81.769 160.302,81.435 160.302 C 81.102 160.302,79.713 161.366,78.348 162.665 C 76.984 163.965,75.585 165.297,75.240 165.624 C 74.894 165.952,74.327 166.330,73.979 166.463 C 73.631 166.597,73.346 166.947,73.346 167.241 C 73.346 167.535,73.006 167.865,72.590 167.973 C 72.174 168.082,71.834 168.442,71.834 168.774 C 71.834 169.124,71.517 169.376,71.078 169.376 C 70.662 169.376,70.321 169.620,70.321 169.918 C 70.321 170.216,69.981 170.567,69.565 170.699 C 69.149 170.831,68.809 171.163,68.809 171.437 C 68.809 171.711,68.469 172.023,68.053 172.132 C 67.637 172.241,67.297 172.601,67.297 172.932 C 67.297 173.283,66.980 173.535,66.541 173.535 C 66.052 173.535,65.784 173.787,65.784 174.247 C 65.784 174.641,65.447 175.047,65.028 175.157 C 64.612 175.266,64.272 175.626,64.272 175.957 C 64.272 176.288,64.025 176.560,63.722 176.560 C 63.420 176.560,62.720 176.966,62.167 177.462 C 60.376 179.069,59.878 179.449,59.234 179.696 C 58.886 179.829,58.601 180.199,58.601 180.517 C 58.601 180.844,58.272 181.096,57.845 181.096 C 57.341 181.096,57.089 181.348,57.089 181.853 C 57.089 182.357,56.837 182.609,56.333 182.609 C 55.829 182.609,55.577 182.861,55.577 183.365 C 55.577 183.869,55.325 184.121,54.820 184.121 C 54.400 184.121,54.064 184.373,54.064 184.688 C 54.064 185.000,53.750 185.255,53.367 185.255 C 51.155 185.255,50.701 188.958,52.836 189.587 C 53.511 189.786,54.064 190.184,54.064 190.473 C 54.064 190.761,54.405 191.086,54.820 191.195 C 55.236 191.304,55.577 191.644,55.577 191.951 C 55.577 192.258,55.917 192.598,56.333 192.707 C 56.749 192.816,57.089 193.120,57.089 193.384 C 57.089 193.647,57.429 193.952,57.845 194.060 C 58.261 194.169,58.601 194.529,58.601 194.861 C 58.601 195.192,58.850 195.463,59.155 195.463 C 59.460 195.463,59.891 195.803,60.113 196.219 C 60.336 196.635,60.851 196.975,61.258 196.975 C 61.665 196.975,62.210 197.316,62.470 197.732 C 62.729 198.147,63.241 198.488,63.607 198.488 C 64.020 198.488,64.272 198.774,64.272 199.244 C 64.272 199.748,64.524 200.000,65.028 200.000 C 65.532 200.000,65.784 200.252,65.784 200.756 C 65.784 201.260,66.037 201.512,66.541 201.512 C 67.045 201.512,67.297 201.764,67.297 202.268 C 67.297 202.773,67.549 203.025,68.053 203.025 C 68.557 203.025,68.809 203.277,68.809 203.781 C 68.809 204.269,69.061 204.537,69.521 204.537 C 69.915 204.537,70.321 204.875,70.431 205.293 C 70.540 205.709,70.900 206.049,71.231 206.049 C 71.563 206.049,71.834 206.293,71.834 206.591 C 71.834 206.889,72.174 207.240,72.590 207.372 C 73.006 207.504,73.346 207.856,73.346 208.154 C 73.346 208.452,73.559 208.699,73.819 208.703 C 74.078 208.708,75.737 210.065,77.505 211.720 C 79.272 213.375,81.016 214.733,81.380 214.737 C 81.744 214.741,82.042 214.992,82.042 215.295 C 82.042 216.007,83.804 217.769,84.516 217.769 C 84.819 217.769,85.066 218.110,85.066 218.526 C 85.066 219.030,85.318 219.282,85.822 219.282 C 86.326 219.282,86.578 219.534,86.578 220.038 C 86.578 220.542,86.830 220.794,87.335 220.794 C 87.839 220.794,88.091 221.046,88.091 221.550 C 88.091 221.970,88.343 222.306,88.658 222.306 C 88.970 222.306,89.225 222.567,89.225 222.885 C 89.225 223.204,89.497 223.569,89.830 223.696 C 90.583 223.985,92.250 225.626,92.250 226.079 C 92.250 226.263,92.590 226.522,93.006 226.654 C 93.422 226.786,93.762 227.126,93.762 227.410 C 93.762 227.694,94.086 228.029,94.483 228.155 C 94.880 228.281,95.300 228.633,95.416 228.937 C 95.533 229.241,95.889 229.490,96.207 229.490 C 96.534 229.490,96.786 229.819,96.786 230.246 C 96.786 230.734,97.038 231.002,97.498 231.002 C 97.893 231.002,98.299 231.340,98.408 231.758 C 98.517 232.174,98.857 232.514,99.164 232.514 C 99.471 232.514,99.812 232.854,99.921 233.270 C 100.029 233.686,100.389 234.026,100.721 234.026 C 101.052 234.026,101.323 234.287,101.323 234.605 C 101.323 234.924,101.608 235.294,101.956 235.427 C 102.304 235.561,102.899 235.981,103.279 236.361 C 103.659 236.740,104.184 237.051,104.446 237.051 C 104.708 237.051,105.135 237.391,105.394 237.807 C 105.654 238.223,106.100 238.563,106.386 238.563 C 106.672 238.563,106.995 238.904,107.104 239.319 C 107.213 239.735,107.553 240.076,107.860 240.076 C 108.167 240.076,108.507 240.416,108.616 240.832 C 108.725 241.248,109.065 241.588,109.372 241.588 C 109.679 241.588,110.020 241.928,110.128 242.344 C 110.237 242.760,110.597 243.100,110.929 243.100 C 111.260 243.100,111.531 243.355,111.531 243.667 C 111.531 243.982,111.867 244.234,112.287 244.234 C 112.791 244.234,113.043 244.486,113.043 244.991 C 113.043 245.495,113.296 245.747,113.800 245.747 C 114.304 245.747,114.556 245.999,114.556 246.503 C 114.556 246.943,114.808 247.259,115.158 247.259 C 115.490 247.259,115.850 247.599,115.959 248.015 C 116.068 248.434,116.474 248.771,116.868 248.771 C 117.328 248.771,117.580 249.039,117.580 249.527 C 117.580 250.032,117.832 250.284,118.336 250.284 C 118.841 250.284,119.093 250.536,119.093 251.040 C 119.093 251.456,119.336 251.796,119.634 251.796 C 119.932 251.796,120.284 252.136,120.416 252.552 C 120.548 252.968,120.858 253.308,121.105 253.308 C 121.352 253.308,122.051 253.904,122.658 254.631 C 123.264 255.359,123.975 255.955,124.237 255.955 C 124.499 255.955,124.821 256.295,124.953 256.711 C 125.085 257.127,125.452 257.467,125.770 257.467 C 126.087 257.467,126.436 257.807,126.545 258.223 C 126.653 258.639,126.972 258.979,127.252 258.979 C 127.532 258.979,127.944 259.319,128.166 259.735 C 128.431 260.230,128.958 260.491,129.692 260.491 C 130.561 260.491,130.813 260.662,130.813 261.248 C 130.813 261.752,131.065 262.004,131.569 262.004 C 132.073 262.004,132.325 262.256,132.325 262.760 C 132.325 263.264,132.577 263.516,133.081 263.516 C 133.585 263.516,133.837 263.768,133.837 264.272 C 133.837 264.776,134.089 265.028,134.594 265.028 C 135.009 265.028,135.350 265.193,135.350 265.393 C 135.350 266.294,136.842 266.572,137.508 265.795 C 137.978 265.246,138.625 265.028,139.785 265.028 C 140.938 265.028,141.593 264.810,142.054 264.272 C 142.512 263.737,143.169 263.516,144.305 263.516 C 145.522 263.516,146.007 263.334,146.314 262.760 C 146.614 262.199,147.105 262.004,148.217 262.004 C 149.464 262.004,149.716 261.877,149.716 261.248 C 149.716 260.585,149.968 260.491,151.755 260.491 C 153.219 260.491,153.856 260.331,154.012 259.924 C 154.146 259.574,154.721 259.357,155.514 259.357 C 156.225 259.357,157.226 259.020,157.759 258.601 C 158.288 258.185,159.062 257.845,159.481 257.845 C 160.609 257.845,161.437 257.448,161.437 256.907 C 161.437 256.607,162.165 256.359,163.391 256.241 C 164.585 256.126,165.520 255.814,165.795 255.437 C 166.051 255.087,166.775 254.820,167.468 254.820 C 168.373 254.820,168.742 254.624,168.889 254.064 C 169.053 253.436,169.404 253.308,170.968 253.308 C 172.532 253.308,172.883 253.180,173.047 252.552 C 173.202 251.960,173.563 251.796,174.710 251.796 C 175.766 251.796,176.307 251.585,176.647 251.040 C 177.009 250.461,177.529 250.284,178.868 250.284 C 180.044 250.284,180.931 250.036,181.578 249.527 C 182.106 249.112,183.057 248.771,183.690 248.771 C 184.964 248.771,186.767 248.071,186.767 247.576 C 186.767 247.402,187.363 247.259,188.091 247.259 C 188.910 247.259,189.702 246.971,190.170 246.503 C 190.635 246.038,191.430 245.747,192.236 245.747 C 193.159 245.747,193.666 245.523,193.951 244.991 C 194.263 244.407,194.742 244.234,196.055 244.234 C 197.153 244.234,197.826 244.049,197.956 243.712 C 198.066 243.424,198.843 243.080,199.683 242.945 C 200.522 242.811,201.444 242.466,201.731 242.179 C 202.018 241.892,202.949 241.539,203.800 241.396 C 204.650 241.252,205.437 240.896,205.549 240.605 C 205.675 240.277,206.311 240.076,207.224 240.076 C 208.192 240.076,208.955 239.817,209.452 239.319 C 209.927 238.844,210.712 238.563,211.567 238.563 C 212.607 238.563,212.972 238.386,213.123 237.807 C 213.287 237.181,213.639 237.051,215.164 237.051 C 216.597 237.051,217.112 236.883,217.479 236.295 C 217.812 235.761,218.361 235.539,219.342 235.539 C 221.064 235.539,221.928 235.226,221.928 234.601 C 221.928 234.302,222.654 234.053,223.870 233.936 C 225.125 233.815,225.933 233.531,226.157 233.132 C 226.380 232.733,227.001 232.514,227.913 232.514 C 228.889 232.514,229.490 232.282,229.868 231.758 C 230.261 231.212,230.846 231.002,231.972 231.002 C 233.051 231.002,233.742 230.769,234.216 230.246 C 234.676 229.737,235.380 229.490,236.365 229.490 C 237.281 229.490,237.908 229.289,238.036 228.954 C 238.154 228.647,239.048 228.308,240.131 228.159 C 241.170 228.016,242.104 227.679,242.207 227.410 C 242.311 227.141,243.135 226.810,244.040 226.675 C 244.945 226.539,245.874 226.200,246.106 225.920 C 246.338 225.641,247.287 225.299,248.216 225.160 C 249.229 225.008,249.905 224.708,249.905 224.411 C 249.905 224.090,250.592 223.849,251.847 223.728 C 253.103 223.608,253.911 223.323,254.134 222.924 C 254.353 222.534,254.973 222.306,255.820 222.306 C 256.842 222.306,257.207 222.127,257.357 221.550 C 257.521 220.924,257.873 220.794,259.398 220.794 C 260.832 220.794,261.346 220.626,261.713 220.038 C 262.033 219.526,262.595 219.282,263.453 219.282 C 264.403 219.282,264.771 219.092,264.919 218.526 C 265.086 217.888,265.435 217.769,267.152 217.769 C 268.935 217.769,269.187 217.676,269.187 217.013 C 269.187 216.383,269.439 216.257,270.696 216.257 C 271.796 216.257,272.333 216.052,272.678 215.501 C 273.042 214.917,273.559 214.745,274.949 214.745 C 276.497 214.745,276.749 214.639,276.749 213.989 C 276.749 213.333,277.001 213.233,278.651 213.233 C 279.993 213.233,280.617 213.066,280.771 212.665 C 280.905 212.316,281.479 212.098,282.268 212.098 C 283.138 212.098,283.699 211.856,284.020 211.342 C 284.320 210.861,284.905 210.584,285.630 210.581 C 287.340 210.573,288.469 210.182,288.469 209.597 C 288.469 209.248,288.923 209.074,289.827 209.074 C 290.868 209.074,291.232 208.897,291.384 208.318 C 291.551 207.678,291.900 207.561,293.652 207.561 C 295.405 207.561,295.753 207.445,295.921 206.805 C 296.071 206.232,296.436 206.049,297.433 206.049 C 298.430 206.049,298.795 205.866,298.945 205.293 C 299.112 204.655,299.461 204.537,301.178 204.537 C 302.962 204.537,303.214 204.443,303.214 203.781 C 303.214 203.115,303.466 203.025,305.328 203.025 C 307.125 203.025,307.473 202.911,307.641 202.268 C 307.805 201.640,308.157 201.512,309.720 201.512 C 311.284 201.512,311.635 201.385,311.800 200.756 C 311.969 200.108,312.315 200.000,314.222 200.000 C 315.942 200.000,316.617 199.829,317.202 199.244 C 317.678 198.768,318.463 198.488,319.317 198.488 C 320.358 198.488,320.722 198.311,320.873 197.732 C 321.035 197.115,321.359 196.987,322.634 197.039 L 324.197 197.103 322.779 197.251 C 321.679 197.366,321.361 197.563,321.361 198.132 C 321.361 198.605,321.101 198.866,320.630 198.866 C 320.229 198.866,319.792 199.206,319.660 199.622 C 319.491 200.154,319.088 200.378,318.299 200.378 C 317.665 200.378,317.087 200.618,316.966 200.931 C 316.850 201.235,316.430 201.587,316.033 201.712 C 315.636 201.838,315.312 202.166,315.312 202.441 C 315.312 202.716,314.716 203.052,313.989 203.189 C 313.261 203.325,312.665 203.603,312.665 203.806 C 312.665 204.009,312.240 204.369,311.720 204.606 C 311.200 204.843,310.775 205.245,310.775 205.501 C 310.775 205.756,310.180 206.077,309.452 206.213 C 308.660 206.362,308.129 206.682,308.129 207.011 C 308.129 207.314,307.800 207.561,307.398 207.561 C 306.996 207.561,306.559 207.902,306.427 208.318 C 306.257 208.854,305.855 209.074,305.043 209.074 C 304.236 209.074,303.843 209.286,303.711 209.794 C 303.590 210.253,303.054 210.603,302.234 210.757 C 301.525 210.890,300.945 211.165,300.945 211.369 C 300.945 211.572,300.520 211.901,300.000 212.098 C 299.480 212.296,299.055 212.717,299.055 213.034 C 299.055 213.420,298.687 213.611,297.942 213.611 C 297.300 213.611,296.620 213.901,296.335 214.297 C 296.064 214.675,295.543 215.095,295.180 215.230 C 294.816 215.366,294.518 215.738,294.518 216.056 C 294.518 216.466,294.131 216.635,293.195 216.635 C 292.271 216.635,291.871 216.806,291.871 217.202 C 291.871 217.514,291.626 217.769,291.326 217.769 C 291.026 217.769,290.550 218.098,290.269 218.499 C 289.988 218.900,289.284 219.347,288.705 219.493 C 288.126 219.638,287.562 219.990,287.453 220.275 C 287.343 220.561,286.932 220.794,286.538 220.794 C 286.088 220.794,285.822 221.059,285.822 221.508 C 285.822 222.025,285.457 222.291,284.499 222.470 C 283.771 222.607,283.176 222.885,283.176 223.089 C 283.176 223.293,282.750 223.621,282.231 223.819 C 281.711 224.016,281.285 224.437,281.285 224.754 C 281.285 225.071,280.986 225.331,280.620 225.331 C 280.254 225.331,279.743 225.671,279.483 226.087 C 279.222 226.505,278.601 226.843,278.094 226.843 C 277.510 226.843,277.091 227.117,276.938 227.599 C 276.806 228.015,276.369 228.355,275.967 228.355 C 275.488 228.355,275.236 228.616,275.236 229.112 C 275.236 229.724,274.984 229.868,273.913 229.868 C 272.842 229.868,272.590 230.012,272.590 230.624 C 272.590 231.128,272.338 231.380,271.834 231.380 C 271.414 231.380,271.078 231.632,271.078 231.947 C 271.078 232.295,270.724 232.514,270.163 232.514 C 268.858 232.514,268.053 232.890,268.053 233.500 C 268.053 233.789,267.713 234.026,267.297 234.026 C 266.793 234.026,266.541 234.279,266.541 234.783 C 266.541 235.330,266.289 235.539,265.626 235.539 C 264.321 235.539,263.516 235.915,263.516 236.524 C 263.516 236.814,263.176 237.051,262.760 237.051 C 262.256 237.051,262.004 237.303,262.004 237.807 C 262.004 238.416,261.752 238.563,260.706 238.563 C 259.740 238.563,259.347 238.757,259.168 239.319 C 258.998 239.856,258.596 240.076,257.784 240.076 C 256.958 240.076,256.585 240.286,256.442 240.832 C 256.333 241.250,255.927 241.588,255.532 241.588 C 255.141 241.588,254.480 241.928,254.064 242.344 C 253.648 242.760,253.037 243.100,252.706 243.100 C 252.374 243.100,252.014 243.440,251.905 243.856 C 251.766 244.389,251.390 244.612,250.631 244.612 C 249.941 244.612,249.409 244.884,249.149 245.369 C 248.927 245.784,248.437 246.125,248.060 246.125 C 247.684 246.125,247.068 246.465,246.692 246.881 C 246.316 247.297,245.694 247.637,245.310 247.637 C 244.926 247.637,244.609 247.850,244.604 248.110 C 244.597 248.553,243.562 249.216,241.115 250.347 C 240.543 250.611,240.076 251.045,240.076 251.312 C 240.076 251.578,239.735 251.796,239.319 251.796 C 238.904 251.796,238.223 252.136,237.807 252.552 C 237.391 252.968,236.863 253.308,236.633 253.308 C 236.403 253.308,235.710 253.733,235.092 254.253 C 234.474 254.773,233.726 255.198,233.430 255.198 C 233.134 255.198,232.892 255.454,232.892 255.766 C 232.892 256.078,232.578 256.333,232.195 256.333 C 231.811 256.333,231.203 256.658,230.844 257.055 C 230.484 257.452,229.777 257.881,229.273 258.007 C 228.768 258.134,228.355 258.489,228.355 258.797 C 228.355 259.105,228.035 259.357,227.643 259.357 C 227.249 259.357,226.843 259.695,226.734 260.113 C 226.588 260.670,226.218 260.870,225.331 260.870 C 224.444 260.870,224.074 261.069,223.928 261.626 C 223.819 262.044,223.412 262.382,223.018 262.382 C 222.558 262.382,222.306 262.650,222.306 263.138 C 222.306 263.728,222.054 263.894,221.160 263.894 C 220.523 263.894,219.923 264.131,219.810 264.427 C 219.697 264.720,219.192 265.064,218.687 265.190 C 218.182 265.317,217.769 265.673,217.769 265.981 C 217.769 266.289,217.552 266.541,217.286 266.541 C 217.021 266.541,216.512 266.881,216.156 267.297 C 215.800 267.713,215.161 268.053,214.737 268.053 C 214.312 268.053,213.862 268.321,213.736 268.649 C 213.610 268.977,213.105 269.398,212.614 269.585 C 212.122 269.772,211.720 270.184,211.720 270.501 C 211.720 270.893,211.347 271.078,210.551 271.078 C 209.699 271.078,209.327 271.283,209.183 271.834 C 209.074 272.252,208.668 272.590,208.273 272.590 C 207.813 272.590,207.561 272.857,207.561 273.346 C 207.561 273.976,207.309 274.102,206.049 274.102 C 204.789 274.102,204.537 274.228,204.537 274.858 C 204.537 275.451,204.285 275.614,203.367 275.614 C 202.516 275.614,202.144 275.820,202.000 276.371 C 201.872 276.860,201.484 277.127,200.901 277.127 C 200.252 277.127,200.000 277.338,200.000 277.883 C 200.000 278.495,199.748 278.639,198.677 278.639 C 197.753 278.639,197.353 278.810,197.353 279.206 C 197.353 279.518,197.125 279.773,196.845 279.773 C 196.565 279.773,196.037 280.104,195.672 280.508 C 195.306 280.912,194.514 281.351,193.912 281.483 C 193.309 281.615,192.817 281.931,192.817 282.185 C 192.817 282.438,192.221 282.861,191.493 283.124 C 190.766 283.387,190.170 283.762,190.170 283.956 C 190.170 284.151,189.814 284.310,189.379 284.310 C 188.905 284.310,188.508 284.614,188.389 285.066 C 188.280 285.485,187.874 285.822,187.480 285.822 C 187.088 285.822,186.427 286.163,186.011 286.578 C 185.595 286.994,185.011 287.335,184.714 287.335 C 184.416 287.335,184.064 287.675,183.932 288.091 C 183.800 288.507,183.365 288.847,182.964 288.847 C 182.564 288.847,182.025 289.187,181.765 289.603 C 181.505 290.019,180.908 290.359,180.438 290.359 C 179.836 290.359,179.584 290.582,179.584 291.115 C 179.584 291.619,179.332 291.871,178.828 291.871 C 178.324 291.871,178.072 292.124,178.072 292.628 C 178.072 293.258,177.820 293.384,176.560 293.384 C 175.299 293.384,175.047 293.510,175.047 294.140 C 175.047 294.644,174.795 294.896,174.291 294.896 C 173.875 294.896,173.535 295.128,173.535 295.412 C 173.535 296.362,170.416 296.408,107.121 296.408 L 44.216 296.408 43.847 297.378 C 43.178 299.138,43.399 301.474,44.329 302.467 C 45.652 303.880,46.308 305.070,46.667 306.711 C 46.793 307.283,47.147 307.750,47.455 307.750 C 47.839 307.750,48.015 308.151,48.015 309.023 C 48.015 309.722,48.331 310.701,48.716 311.197 C 49.102 311.693,49.532 312.720,49.672 313.480 C 49.812 314.239,50.177 314.957,50.483 315.075 C 50.803 315.197,51.040 315.773,51.040 316.431 C 51.040 317.164,51.311 317.743,51.796 318.046 C 52.288 318.354,52.552 318.928,52.552 319.692 C 52.552 320.386,52.861 321.146,53.308 321.550 C 53.724 321.926,54.064 322.633,54.064 323.121 C 54.064 323.609,54.405 324.348,54.820 324.764 C 55.236 325.180,55.577 325.860,55.577 326.276 C 55.577 326.692,55.917 327.372,56.333 327.788 C 56.756 328.212,57.089 329.049,57.089 329.691 C 57.089 330.334,57.325 330.927,57.628 331.043 C 57.924 331.157,58.279 331.917,58.417 332.733 C 58.561 333.585,58.880 334.216,59.168 334.216 C 59.458 334.216,59.777 334.853,59.924 335.728 C 60.067 336.574,60.394 337.240,60.665 337.240 C 60.937 337.240,61.254 337.885,61.385 338.703 C 61.514 339.508,61.854 340.362,62.142 340.601 C 62.430 340.840,62.775 341.719,62.909 342.555 C 63.042 343.390,63.404 344.171,63.712 344.289 C 64.020 344.408,64.272 344.911,64.272 345.409 C 64.272 345.907,64.612 346.654,65.028 347.070 C 65.444 347.486,65.784 348.152,65.784 348.551 C 65.784 349.678,66.192 350.473,66.770 350.473 C 67.075 350.473,67.297 350.857,67.297 351.387 C 67.297 352.692,67.673 353.497,68.282 353.497 C 68.635 353.497,68.809 353.947,68.809 354.856 C 68.809 355.896,68.986 356.261,69.565 356.412 C 70.138 356.562,70.321 356.928,70.321 357.924 C 70.321 358.921,70.504 359.287,71.078 359.437 C 71.670 359.592,71.834 359.952,71.834 361.103 C 71.834 362.156,71.994 362.571,72.401 362.571 C 72.772 362.571,72.968 362.943,72.968 363.647 C 72.968 364.239,73.308 365.116,73.724 365.595 C 74.140 366.075,74.480 366.861,74.480 367.341 C 74.480 367.828,74.815 368.395,75.236 368.620 C 75.673 368.854,75.992 369.412,75.992 369.939 C 75.992 370.442,76.426 371.287,76.955 371.816 L 77.917 372.779 164.857 372.779 C 251.544 372.779,251.796 372.777,251.796 372.023 C 251.796 371.607,252.033 371.267,252.322 371.267 C 252.893 371.267,253.308 370.475,253.308 369.386 C 253.308 369.009,253.563 368.603,253.875 368.483 C 254.187 368.364,254.442 367.836,254.442 367.312 C 254.442 366.767,254.767 366.155,255.198 365.886 C 255.614 365.626,255.955 365.056,255.955 364.618 C 255.955 364.180,256.295 363.514,256.711 363.138 C 257.127 362.762,257.467 362.081,257.467 361.626 C 257.467 361.170,257.807 360.490,258.223 360.113 C 258.639 359.737,258.979 359.108,258.979 358.716 C 258.979 358.323,259.319 357.637,259.735 357.191 C 260.151 356.744,260.491 356.071,260.491 355.694 C 260.491 355.318,260.832 354.669,261.248 354.253 C 261.664 353.837,262.004 353.150,262.004 352.725 C 262.004 352.301,262.344 351.588,262.760 351.142 C 263.176 350.695,263.516 350.091,263.516 349.799 C 263.516 349.507,263.856 348.836,264.272 348.307 C 264.688 347.779,265.028 347.118,265.028 346.839 C 265.028 346.560,265.368 345.775,265.783 345.094 C 266.198 344.413,266.538 343.585,266.539 343.253 C 266.540 342.922,266.881 342.342,267.297 341.966 C 267.713 341.590,268.053 340.904,268.053 340.441 C 268.053 339.979,268.308 339.389,268.620 339.130 C 268.932 338.872,269.187 338.105,269.187 337.427 C 269.187 336.512,269.382 336.143,269.943 335.996 C 270.453 335.863,270.699 335.481,270.699 334.821 C 270.699 334.253,271.016 333.646,271.456 333.372 C 271.889 333.101,272.212 332.490,272.212 331.940 C 272.212 331.412,272.552 330.735,272.968 330.435 C 273.384 330.135,273.724 329.528,273.724 329.087 C 273.724 328.645,274.064 327.976,274.480 327.599 C 274.896 327.223,275.236 326.468,275.236 325.923 C 275.236 325.364,275.567 324.692,275.992 324.386 C 276.408 324.086,276.749 323.522,276.749 323.133 C 276.749 322.744,277.089 321.993,277.505 321.464 C 277.921 320.936,278.261 320.255,278.261 319.952 C 278.261 319.649,278.601 318.968,279.017 318.440 C 279.433 317.911,279.773 317.182,279.773 316.820 C 279.773 316.457,280.028 315.949,280.340 315.690 C 280.652 315.431,280.907 314.969,280.907 314.664 C 280.907 314.358,281.248 313.675,281.664 313.147 C 282.079 312.618,282.420 311.891,282.420 311.531 C 282.420 311.171,282.738 310.471,283.127 309.975 C 283.515 309.479,283.957 308.509,284.107 307.819 C 284.258 307.130,284.620 306.473,284.913 306.361 C 285.229 306.240,285.444 305.623,285.444 304.839 C 285.444 303.839,285.627 303.473,286.200 303.323 C 286.762 303.176,286.957 302.807,286.957 301.890 C 286.957 300.973,287.151 300.604,287.713 300.458 C 288.286 300.308,288.469 299.942,288.469 298.945 C 288.469 297.949,288.652 297.583,289.225 297.433 C 289.804 297.282,289.981 296.917,289.981 295.877 C 289.981 294.770,290.121 294.518,290.737 294.518 C 291.312 294.518,291.493 294.266,291.493 293.467 C 291.493 292.850,291.805 292.191,292.250 291.871 C 292.665 291.572,293.006 290.895,293.006 290.367 C 293.006 289.816,293.328 289.205,293.762 288.935 C 294.178 288.675,294.518 288.116,294.518 287.694 C 294.518 287.271,294.858 286.560,295.274 286.113 C 295.690 285.667,296.030 284.908,296.030 284.428 C 296.030 283.947,296.180 283.554,296.362 283.554 C 296.545 283.554,296.916 283.001,297.188 282.325 C 297.459 281.649,297.990 280.691,298.368 280.195 C 298.746 279.699,299.055 279.049,299.055 278.750 C 299.055 278.451,299.310 277.952,299.622 277.640 C 299.934 277.328,300.189 276.615,300.189 276.056 C 300.189 275.450,300.494 274.850,300.945 274.568 C 301.427 274.267,301.701 273.686,301.701 272.968 C 301.701 272.250,301.976 271.669,302.457 271.368 C 302.989 271.036,303.214 270.486,303.214 269.518 C 303.214 268.459,303.388 268.095,303.970 267.943 C 304.543 267.793,304.726 267.428,304.726 266.431 C 304.726 265.435,304.909 265.069,305.482 264.919 C 306.055 264.769,306.238 264.403,306.238 263.407 C 306.238 262.410,306.421 262.044,306.994 261.894 C 307.568 261.744,307.750 261.379,307.750 260.382 C 307.750 259.385,307.933 259.020,308.507 258.870 C 309.080 258.720,309.263 258.354,309.263 257.357 C 309.263 256.361,309.446 255.995,310.019 255.845 C 310.530 255.711,310.775 255.329,310.775 254.667 C 310.775 254.127,311.115 253.346,311.531 252.930 C 311.947 252.514,312.287 251.749,312.287 251.229 C 312.287 250.673,312.504 250.284,312.814 250.284 C 313.417 250.284,313.800 249.481,313.800 248.217 C 313.800 247.665,314.076 247.275,314.556 247.149 C 315.055 247.019,315.312 246.634,315.312 246.017 C 315.312 245.504,315.567 244.871,315.879 244.612 C 316.191 244.354,316.446 243.739,316.446 243.246 C 316.446 242.754,316.786 242.138,317.202 241.878 C 317.618 241.619,317.958 241.048,317.958 240.610 C 317.958 240.173,318.299 239.507,318.715 239.130 C 319.130 238.754,319.471 238.132,319.471 237.749 C 319.471 237.365,319.811 236.711,320.227 236.295 C 320.643 235.879,320.983 235.198,320.983 234.783 C 320.983 234.367,321.323 233.686,321.739 233.270 C 322.155 232.854,322.495 232.192,322.495 231.798 C 322.495 231.405,322.734 230.991,323.027 230.879 C 323.319 230.767,323.677 230.136,323.821 229.477 C 323.966 228.818,324.407 227.955,324.802 227.561 C 325.197 227.166,325.520 226.503,325.520 226.087 C 325.520 225.671,325.860 224.991,326.276 224.575 C 326.692 224.159,327.032 223.393,327.032 222.873 C 327.032 222.319,327.249 221.928,327.557 221.928 C 327.859 221.928,328.189 221.358,328.334 220.585 C 328.473 219.846,328.815 219.154,329.095 219.047 C 329.375 218.939,329.711 218.285,329.841 217.592 C 329.970 216.900,330.327 216.125,330.634 215.871 C 330.940 215.616,331.191 214.960,331.191 214.411 C 331.191 213.824,331.501 213.220,331.947 212.942 C 332.429 212.641,332.703 212.061,332.703 211.339 C 332.703 210.624,332.897 210.208,333.230 210.208 C 333.808 210.208,334.216 209.414,334.216 208.287 C 334.216 207.888,334.556 207.221,334.972 206.805 C 335.388 206.389,335.728 205.747,335.728 205.377 C 335.728 205.007,336.068 204.414,336.484 204.057 C 336.900 203.701,337.240 202.978,337.240 202.449 C 337.240 201.921,337.491 201.392,337.797 201.275 C 338.103 201.157,338.460 200.494,338.590 199.801 C 338.720 199.107,339.049 198.455,339.321 198.350 C 339.593 198.246,339.934 197.622,340.078 196.962 C 340.223 196.303,340.665 195.441,341.059 195.047 C 341.454 194.652,341.777 193.977,341.777 193.547 C 341.777 193.118,342.415 192.164,343.195 191.429 C 344.730 189.981,345.401 185.014,344.120 184.587 C 343.187 184.276,341.839 182.493,341.609 181.265 C 341.482 180.589,341.128 179.939,340.821 179.822 C 340.515 179.704,340.265 179.262,340.265 178.840 C 340.265 178.417,339.948 177.755,339.560 177.367 C 339.173 176.980,338.740 176.044,338.598 175.288 C 338.442 174.455,338.123 173.913,337.790 173.913 C 337.455 173.913,337.240 173.543,337.240 172.968 C 337.240 172.448,336.917 171.700,336.522 171.305 C 336.128 170.910,335.692 170.074,335.554 169.446 C 335.416 168.819,335.059 168.211,334.760 168.096 C 334.454 167.979,334.216 167.392,334.216 166.755 C 334.216 166.009,333.957 165.484,333.459 165.217 C 332.967 164.954,332.703 164.426,332.703 163.705 C 332.703 162.984,332.439 162.456,331.947 162.193 C 331.449 161.926,331.191 161.401,331.191 160.655 C 331.191 160.032,330.952 159.431,330.661 159.319 C 330.370 159.207,330.020 158.523,329.884 157.799 C 329.748 157.075,329.408 156.394,329.128 156.287 C 328.848 156.179,328.508 155.499,328.372 154.774 C 328.236 154.050,327.879 153.363,327.578 153.248 C 327.278 153.133,327.032 152.631,327.032 152.133 C 327.032 151.636,326.692 150.888,326.276 150.473 C 325.860 150.057,325.520 149.461,325.520 149.149 C 325.520 148.837,325.180 148.242,324.764 147.826 C 324.348 147.410,324.008 146.730,324.008 146.314 C 324.008 145.898,323.667 145.217,323.251 144.802 C 322.836 144.386,322.495 143.705,322.495 143.289 C 322.495 142.873,322.155 142.193,321.739 141.777 C 321.323 141.361,320.983 140.707,320.983 140.323 C 320.983 139.940,320.643 139.318,320.227 138.941 C 319.811 138.565,319.471 137.943,319.471 137.560 C 319.471 137.176,319.130 136.522,318.715 136.106 C 318.299 135.690,317.958 135.047,317.958 134.677 C 317.958 134.307,317.618 133.759,317.202 133.459 C 316.758 133.139,316.446 132.481,316.446 131.864 C 316.446 131.286,316.283 130.813,316.083 130.813 C 315.883 130.813,315.536 130.132,315.312 129.301 C 315.073 128.412,314.677 127.788,314.352 127.788 C 314.014 127.788,313.800 127.420,313.800 126.839 C 313.800 126.318,313.459 125.599,313.043 125.243 C 312.628 124.887,312.287 124.307,312.287 123.954 C 312.287 122.906,311.864 122.117,311.302 122.117 C 310.949 122.117,310.775 121.668,310.775 120.759 C 310.775 119.718,310.598 119.354,310.019 119.202 C 309.539 119.077,309.263 118.686,309.263 118.134 C 309.263 116.871,308.880 116.068,308.277 116.068 C 307.929 116.068,307.750 115.628,307.750 114.770 C 307.750 113.805,307.557 113.411,306.994 113.233 C 306.432 113.054,306.238 112.660,306.238 111.695 C 306.238 110.649,306.091 110.397,305.482 110.397 C 304.854 110.397,304.726 110.145,304.726 108.910 C 304.726 107.755,304.557 107.370,303.970 107.183 C 303.416 107.008,303.214 106.611,303.214 105.704 C 303.214 104.945,302.921 104.200,302.457 103.781 C 302.042 103.404,301.701 102.696,301.701 102.206 C 301.701 101.716,301.361 101.025,300.945 100.668 C 300.529 100.312,300.189 99.569,300.189 99.017 C 300.189 98.465,299.945 97.810,299.646 97.563 C 299.348 97.315,298.996 96.625,298.866 96.030 C 298.735 95.435,298.384 94.746,298.085 94.498 C 297.787 94.250,297.543 93.836,297.543 93.577 C 297.543 93.319,297.202 92.675,296.786 92.146 C 296.371 91.618,296.030 90.855,296.030 90.453 C 296.030 90.050,295.690 89.412,295.274 89.036 C 294.858 88.660,294.518 87.994,294.518 87.556 C 294.518 87.118,294.178 86.548,293.762 86.288 C 293.346 86.028,293.006 85.418,293.006 84.933 C 293.006 84.447,292.665 83.741,292.250 83.365 C 291.834 82.988,291.493 82.266,291.493 81.759 C 291.493 81.155,291.233 80.768,290.737 80.639 C 290.173 80.491,289.981 80.123,289.981 79.187 C 289.981 78.266,289.781 77.870,289.225 77.694 C 288.662 77.515,288.469 77.122,288.469 76.156 C 288.469 75.110,288.322 74.858,287.713 74.858 C 287.083 74.858,286.957 74.606,286.957 73.346 C 286.957 72.086,286.830 71.834,286.200 71.834 C 285.587 71.834,285.444 71.582,285.444 70.499 C 285.444 69.702,285.230 69.081,284.914 68.960 C 284.623 68.848,284.270 68.149,284.131 67.405 C 283.991 66.662,283.635 65.811,283.338 65.515 C 283.042 65.218,282.688 64.520,282.552 63.962 C 282.416 63.405,281.990 62.543,281.606 62.047 C 281.222 61.551,280.907 60.823,280.907 60.429 C 280.907 60.034,280.652 59.614,280.340 59.494 C 280.028 59.374,279.773 58.896,279.773 58.430 C 279.773 57.965,279.433 57.276,279.017 56.900 C 278.601 56.523,278.261 55.925,278.261 55.569 C 278.261 55.213,277.921 54.490,277.505 53.961 C 277.089 53.432,276.749 52.670,276.749 52.267 C 276.749 51.865,276.408 51.227,275.992 50.851 C 275.575 50.473,275.236 49.686,275.236 49.094 C 275.236 48.431,274.948 47.841,274.480 47.549 C 274.064 47.290,273.724 46.719,273.724 46.281 C 273.724 45.844,273.384 45.178,272.968 44.802 C 272.552 44.425,272.212 43.745,272.212 43.289 C 272.212 42.834,271.871 42.153,271.456 41.777 C 271.040 41.401,270.699 40.694,270.699 40.206 C 270.699 39.572,270.484 39.319,269.943 39.319 C 269.317 39.319,269.187 39.067,269.187 37.853 C 269.187 37.012,268.946 36.187,268.620 35.917 C 268.308 35.658,268.053 35.153,268.053 34.794 C 268.053 34.436,267.713 33.750,267.297 33.270 C 266.881 32.791,266.541 32.107,266.541 31.751 C 266.541 31.395,266.200 30.671,265.784 30.143 C 265.369 29.614,265.028 28.825,265.028 28.390 C 265.028 27.955,264.688 27.259,264.272 26.843 C 263.856 26.427,263.516 25.773,263.516 25.389 C 263.516 25.006,263.176 24.384,262.760 24.008 C 262.344 23.631,262.004 22.951,262.004 22.495 C 262.004 22.040,261.664 21.359,261.248 20.983 C 260.832 20.607,260.491 19.926,260.491 19.471 C 260.491 19.015,260.151 18.335,259.735 17.958 C 259.319 17.582,258.979 16.960,258.979 16.577 C 258.979 16.193,258.639 15.539,258.223 15.123 C 257.807 14.707,257.467 13.943,257.467 13.425 C 257.467 12.892,257.138 12.278,256.711 12.011 C 256.295 11.751,255.955 11.180,255.955 10.743 C 255.955 10.305,255.614 9.639,255.198 9.263 C 254.783 8.886,254.442 8.179,254.442 7.692 C 254.442 7.156,254.218 6.805,253.875 6.805 C 253.527 6.805,253.308 6.452,253.308 5.891 C 253.308 4.616,252.936 3.781,252.367 3.781 C 252.101 3.781,251.795 3.440,251.686 3.025 C 251.382 1.859,77.697 1.825,77.327 2.990 M321.361 177.100 C 321.361 177.398,321.744 177.715,322.212 177.805 C 322.941 177.945,322.914 177.976,322.023 178.020 C 321.354 178.053,320.983 177.881,320.983 177.536 C 320.983 177.242,320.770 176.915,320.510 176.810 C 320.228 176.696,320.304 176.607,320.699 176.589 C 321.063 176.573,321.361 176.803,321.361 177.100 " stroke="#000000" fill="none" stroke-width="3" class="mFHbmMxa_1"></path></g><style data-made-with="vivus-instant">.mFHbmMxa_0{stroke-dasharray:2273 2275;stroke-dashoffset:2274;animation:mFHbmMxa_draw_0 4500ms linear 0ms infinite,mFHbmMxa_fade 4500ms linear 0ms infinite;}.mFHbmMxa_1{stroke-dasharray:2273 2275;stroke-dashoffset:2274;animation:mFHbmMxa_draw_1 4500ms linear 0ms infinite,mFHbmMxa_fade 4500ms linear 0ms infinite;}@keyframes mFHbmMxa_draw{100%{stroke-dashoffset:0;}}@keyframes mFHbmMxa_fade{0%{stroke-opacity:1;}91.11111111111111%{stroke-opacity:1;}100%{stroke-opacity:0;}}@keyframes mFHbmMxa_draw_0{6.666666666666667%{stroke-dashoffset: 2274}73.33333333333333%{ stroke-dashoffset: 0;}100%{ stroke-dashoffset: 0;}}@keyframes mFHbmMxa_draw_1{6.666666666666667%{stroke-dashoffset: 2274}73.33333333333333%{ stroke-dashoffset: 0;}100%{ stroke-dashoffset: 0;}}</style></svg>
