<svg id="svg" version="1.1" width="400" height="350" xmlns="http://www.w3.org/2000/svg" xmlns:xlink="http://www.w3.org/1999/xlink" style=""><g id="svgg"><path id="path0" d="M88.500 0.218 C 44.351 3.790,8.262 35.716,0.506 78.063 L 0.000 80.827 0.000 94.400 L 0.000 107.973 0.502 110.737 C 7.471 149.086,37.799 179.273,77.200 187.078 C 91.528 189.916,111.434 189.671,125.137 186.488 C 153.046 180.006,176.214 160.982,198.500 126.250 C 199.510 124.677,199.188 124.475,201.699 128.250 C 232.584 174.679,261.907 191.412,307.800 188.795 C 373.828 185.029,416.930 120.404,393.355 60.516 C 376.795 18.445,332.816 -5.678,285.057 1.113 C 251.857 5.833,226.375 23.580,201.149 59.550 L 199.431 62.001 197.883 59.750 C 171.633 21.577,142.683 2.936,105.400 0.199 C 102.267 -0.031,91.425 -0.019,88.500 0.218 M375.400 8.100 L 375.400 9.200 376.800 9.200 L 378.200 9.200 378.200 12.900 L 378.200 16.600 379.300 16.600 L 380.400 16.600 380.400 12.900 L 380.400 9.200 381.900 9.200 L 383.400 9.200 383.400 8.100 L 383.400 7.000 379.400 7.000 L 375.400 7.000 375.400 8.100 M383.600 11.791 L 383.600 16.600 384.700 16.600 L 385.800 16.600 385.819 14.150 L 385.838 11.700 386.627 14.150 L 387.416 16.600 388.396 16.600 L 389.376 16.600 389.899 14.850 C 391.003 11.157,390.966 11.184,390.984 14.050 L 391.000 16.600 392.000 16.600 L 393.000 16.600 393.000 11.800 L 393.000 7.000 391.631 7.000 L 390.262 7.000 389.386 9.900 C 388.905 11.495,388.456 12.800,388.389 12.800 C 388.322 12.800,387.863 11.518,387.368 9.950 L 386.468 7.100 385.034 7.041 L 383.600 6.982 383.600 11.791 M102.103 33.606 C 128.855 35.334,148.094 47.758,168.650 76.584 C 172.245 81.624,179.600 92.771,179.600 93.178 C 179.600 93.701,169.290 109.729,165.242 115.500 C 147.951 140.147,132.382 151.734,112.428 154.804 C 101.981 156.412,86.912 155.488,77.608 152.668 C 34.146 139.498,18.403 89.284,47.206 55.700 C 60.403 40.314,80.530 32.213,102.103 33.606 M310.097 33.895 C 343.488 37.905,367.991 65.772,366.184 97.680 C 364.466 127.998,339.700 152.400,307.800 155.206 C 271.335 158.414,251.853 145.469,222.515 98.539 L 219.163 93.178 220.722 90.739 C 240.454 59.856,255.859 44.951,275.351 37.885 C 285.709 34.131,299.178 32.584,310.097 33.895 M287.800 73.200 L 287.800 82.200 278.700 82.200 L 269.600 82.200 269.600 91.700 L 269.600 101.200 278.700 101.200 L 287.800 101.200 287.800 110.300 L 287.800 119.400 297.300 119.400 L 306.800 119.400 306.800 110.300 L 306.800 101.200 315.800 101.200 L 324.800 101.200 324.800 91.700 L 324.800 82.200 315.800 82.200 L 306.800 82.200 306.800 73.200 L 306.800 64.200 297.300 64.200 L 287.800 64.200 287.800 73.200 M65.800 91.800 L 65.800 99.200 99.300 99.200 L 132.800 99.200 132.800 91.800 L 132.800 84.400 99.300 84.400 L 65.800 84.400 65.800 91.800 M371.292 205.028 C 353.907 206.038,344.142 221.037,345.985 243.900 C 347.412 261.620,355.417 270.963,370.044 271.985 C 386.240 273.116,397.130 263.758,399.700 246.500 C 400.179 243.285,400.117 232.510,399.599 228.985 C 397.159 212.366,387.384 204.093,371.292 205.028 M23.296 206.250 C 23.021 207.003,3.761 269.990,3.665 270.450 L 3.550 271.000 10.466 271.000 L 17.381 271.000 17.753 269.750 C 17.958 269.063,18.794 266.228,19.613 263.450 L 21.100 258.401 31.982 258.450 L 42.864 258.500 43.229 259.800 C 43.430 260.515,44.239 263.328,45.027 266.050 L 46.460 271.000 54.147 271.000 C 60.211 271.000,61.814 270.947,61.743 270.750 C 61.693 270.613,57.208 255.989,51.776 238.253 L 41.900 206.005 32.644 206.003 C 25.419 206.001,23.367 206.055,23.296 206.250 M66.800 238.486 L 66.800 271.000 73.700 271.000 L 80.600 271.000 80.600 257.800 L 80.600 244.600 81.050 244.604 C 84.555 244.631,87.251 245.609,88.909 247.453 C 90.011 248.678,90.736 250.157,96.215 262.343 L 100.100 270.986 108.250 270.993 C 112.733 270.997,116.400 270.966,116.400 270.923 C 116.400 270.561,104.016 245.947,103.256 244.800 C 102.037 242.957,100.617 241.367,99.668 240.780 L 98.954 240.339 100.457 239.791 C 108.403 236.894,112.160 230.574,111.211 221.700 C 110.408 214.181,105.933 209.238,98.100 207.215 C 94.153 206.195,93.506 206.154,79.750 206.060 L 66.800 205.972 66.800 238.486 M121.400 238.516 L 121.400 271.031 132.850 270.948 C 145.341 270.856,146.068 270.801,150.880 269.592 C 165.877 265.824,173.469 253.405,172.390 234.408 C 171.399 216.957,163.617 208.189,147.440 206.297 C 145.471 206.067,142.268 206.000,133.151 206.000 L 121.400 206.000 121.400 238.516 M178.252 230.050 L 178.316 254.100 178.772 256.097 C 181.258 266.996,188.711 272.049,202.300 272.049 C 215.014 272.049,223.387 266.548,226.289 256.289 C 227.509 251.975,227.457 253.133,227.543 228.550 L 227.622 206.000 220.618 206.000 L 213.614 206.000 213.550 228.850 L 213.485 251.700 213.038 253.380 C 211.645 258.623,208.773 260.693,202.900 260.687 C 197.996 260.683,195.122 259.229,193.501 255.934 C 192.062 253.010,192.129 254.275,192.053 228.850 L 191.984 206.000 185.086 206.000 L 178.188 206.000 178.252 230.050 M238.000 211.600 L 238.000 217.200 245.200 217.200 L 252.400 217.200 252.400 238.400 L 252.400 259.600 245.200 259.600 L 238.000 259.600 238.000 265.300 L 238.000 271.000 259.600 271.000 L 281.200 271.000 281.200 265.300 L 281.200 259.600 273.900 259.600 L 266.600 259.600 266.600 238.400 L 266.600 217.200 273.900 217.200 L 281.200 217.200 281.200 211.600 L 281.200 206.000 259.600 206.000 L 238.000 206.000 238.000 211.600 M292.000 238.498 L 292.000 271.000 298.399 271.000 L 304.798 271.000 304.849 249.585 L 304.900 228.170 305.663 229.935 C 306.083 230.906,310.531 240.543,315.548 251.350 L 324.669 271.000 332.834 271.000 L 341.000 271.000 341.000 238.500 L 341.000 206.000 334.600 206.000 L 328.200 206.000 328.194 227.150 L 328.187 248.300 327.186 246.000 C 326.636 244.735,322.202 235.240,317.334 224.900 L 308.482 206.100 300.241 206.048 L 292.000 205.996 292.000 238.498 M375.900 217.501 C 382.794 218.952,385.950 226.482,385.537 240.500 C 385.145 253.774,381.234 259.794,373.000 259.794 C 365.222 259.794,361.529 254.683,360.578 242.600 C 359.179 224.832,365.047 215.219,375.900 217.501 M90.282 217.885 C 94.823 218.895,96.700 221.063,96.700 225.296 C 96.700 231.042,93.115 233.557,84.650 233.749 L 80.600 233.841 80.600 225.592 L 80.600 217.343 84.750 217.460 C 87.325 217.533,89.425 217.694,90.282 217.885 M143.122 217.600 C 153.363 218.507,157.610 224.598,157.596 238.360 C 157.582 253.062,152.435 259.081,139.650 259.350 L 135.200 259.443 135.200 238.422 L 135.200 217.400 138.050 217.402 C 139.618 217.403,141.900 217.492,143.122 217.600 M35.787 233.900 C 37.787 240.830,39.469 246.657,39.525 246.850 C 39.621 247.179,39.174 247.200,32.090 247.200 L 24.553 247.200 24.665 246.750 C 24.870 245.930,32.099 221.236,32.126 221.268 C 32.140 221.286,33.788 226.970,35.787 233.900 " stroke="#000000" fill="none" stroke-width="3" class="mOUZIiTb_0"></path></g><style data-made-with="vivus-instant">.mOUZIiTb_0{stroke-dasharray:4634 4636;stroke-dashoffset:4635;animation:mOUZIiTb_draw_0 4500ms linear 0ms infinite,mOUZIiTb_fade 4500ms linear 0ms infinite;}@keyframes mOUZIiTb_draw{100%{stroke-dashoffset:0;}}@keyframes mOUZIiTb_fade{0%{stroke-opacity:1;}91.11111111111111%{stroke-opacity:1;}100%{stroke-opacity:0;}}@keyframes mOUZIiTb_draw_0{6.666666666666667%{stroke-dashoffset: 4635}73.33333333333333%{ stroke-dashoffset: 0;}100%{ stroke-dashoffset: 0;}}</style></svg>