<svg id="svg" version="1.1" width="2000" height="932" xmlns="http://www.w3.org/2000/svg" xmlns:xlink="http://www.w3.org/1999/xlink" style=""><g id="svgg"><path id="path0" d="M198.963 46.616 C 193.105 47.236,188.984 49.387,183.750 54.554 L 181.800 56.479 181.800 52.639 L 181.800 48.800 171.400 48.800 L 161.000 48.800 161.000 73.050 C 161.000 86.388,160.940 106.278,160.867 117.250 L 160.734 137.200 171.158 137.200 L 181.582 137.200 181.656 110.750 C 181.728 84.722,181.736 84.265,182.156 82.100 C 184.336 70.869,191.474 65.242,202.064 66.407 C 204.825 66.711,208.759 68.091,210.155 69.246 C 210.510 69.540,210.184 70.190,214.803 59.982 C 218.701 51.365,218.977 50.680,218.651 50.426 C 215.134 47.678,205.868 45.885,198.963 46.616 M84.500 46.898 C 72.997 48.358,62.959 54.094,56.246 63.043 C 43.370 80.205,43.975 107.683,57.604 124.800 C 71.669 142.465,98.720 145.049,114.033 130.191 L 116.000 128.283 116.000 132.741 L 116.000 137.200 126.400 137.200 L 136.800 137.200 136.800 93.000 L 136.800 48.800 126.400 48.800 L 116.000 48.800 116.000 53.805 L 116.000 58.810 114.807 57.424 C 107.795 49.277,96.542 45.369,84.500 46.898 M269.700 46.905 C 263.605 47.896,257.621 51.157,253.823 55.559 L 252.900 56.629 252.800 52.764 L 252.700 48.900 242.350 48.848 L 232.000 48.796 232.000 93.098 L 232.000 137.400 242.100 137.400 L 252.200 137.400 252.200 112.529 C 252.200 81.423,252.350 79.258,254.848 74.303 C 260.428 63.237,275.319 62.410,279.778 72.920 C 281.726 77.513,281.670 76.494,281.749 109.050 L 281.817 137.400 292.198 137.400 L 302.580 137.400 302.654 110.950 C 302.741 80.078,302.766 79.711,305.092 74.675 C 310.164 63.697,324.976 62.223,329.848 72.211 C 332.125 76.880,332.052 75.719,332.141 108.750 L 332.217 137.200 342.616 137.200 L 353.015 137.200 352.946 106.750 C 352.872 73.722,352.916 75.119,351.773 69.809 C 348.648 55.303,337.927 46.628,323.095 46.604 C 312.974 46.587,304.028 50.653,298.213 57.911 L 297.083 59.322 296.102 57.833 C 290.739 49.688,279.979 45.235,269.700 46.905 M96.500 65.697 C 109.657 67.852,117.278 78.081,117.289 93.600 C 117.298 105.766,112.109 115.093,103.093 119.116 C 85.472 126.980,68.219 114.116,68.335 93.200 C 68.434 75.254,80.848 63.132,96.500 65.697 " stroke="#000000" fill="none" stroke-width="3" class="SdJBMirt_0"></path></g><style data-made-with="vivus-instant">.SdJBMirt_0{stroke-dasharray:1496 1498;stroke-dashoffset:1497;animation:SdJBMirt_draw_0 4500ms linear 0ms infinite,SdJBMirt_fade 4500ms linear 0ms infinite;}@keyframes SdJBMirt_draw{100%{stroke-dashoffset:0;}}@keyframes SdJBMirt_fade{0%{stroke-opacity:1;}91.11111111111111%{stroke-opacity:1;}100%{stroke-opacity:0;}}@keyframes SdJBMirt_draw_0{6.666666666666667%{stroke-dashoffset: 1497}73.33333333333333%{ stroke-dashoffset: 0;}100%{ stroke-dashoffset: 0;}}</style></svg>