<svg id="svg" version="1.1" width="400" height="400" viewBox="0 0 400 400" xmlns="http://www.w3.org/2000/svg" xmlns:xlink="http://www.w3.org/1999/xlink" style=""><g id="svgg"><path id="path0" d="M134.250 116.776 C 124.516 117.961,118.894 123.019,117.050 132.250 C 116.583 134.585,116.583 265.415,117.050 267.750 C 118.761 276.313,123.687 281.239,132.250 282.950 C 134.585 283.417,265.415 283.417,267.750 282.950 C 276.313 281.239,281.239 276.313,282.950 267.750 C 283.417 265.415,283.417 134.585,282.950 132.250 C 281.269 123.833,276.519 118.969,268.173 117.115 L 266.583 116.762 200.667 116.738 C 164.412 116.725,134.525 116.742,134.250 116.776 " stroke="#000000" fill="none" stroke-width="3" class="TmMPUweD_0"></path><path id="path1" d="M102.333 0.390 C 98.629 1.493,95.916 4.276,94.696 8.223 C 94.382 9.239,94.199 36.895,94.472 42.062 C 94.693 46.236,95.414 48.070,97.756 50.411 C 103.979 56.635,114.795 53.370,116.420 44.777 C 116.789 42.823,116.784 9.934,116.414 8.365 C 114.997 2.353,108.361 -1.405,102.333 0.390 M134.167 0.261 C 130.619 1.184,127.667 3.963,126.387 7.585 L 125.917 8.917 125.923 26.500 C 125.928 42.585,125.953 44.176,126.215 45.167 C 129.117 56.135,144.089 56.542,147.694 45.750 L 148.083 44.583 148.131 27.167 C 148.185 7.604,148.235 8.508,146.959 5.958 C 144.723 1.491,139.086 -1.020,134.167 0.261 M165.667 0.268 C 161.998 1.253,159.192 3.892,157.887 7.585 L 157.417 8.917 157.423 26.500 C 157.428 42.585,157.453 44.176,157.715 45.167 C 160.618 56.139,175.572 56.546,179.192 45.750 L 179.583 44.583 179.631 27.167 C 179.685 7.604,179.735 8.508,178.459 5.958 C 176.222 1.489,170.538 -1.040,165.667 0.268 M197.167 0.262 C 193.621 1.190,190.565 4.049,189.380 7.548 L 188.917 8.917 188.917 26.583 C 188.917 43.221,188.934 44.313,189.223 45.333 C 192.329 56.329,207.534 56.387,210.781 45.417 C 211.211 43.963,211.335 10.365,210.916 8.548 C 209.540 2.570,203.124 -1.297,197.167 0.262 M228.696 0.234 C 225.782 0.969,222.855 3.308,221.540 5.952 C 220.265 8.515,220.315 7.607,220.369 27.167 L 220.417 44.583 220.871 45.917 C 224.484 56.526,239.298 56.065,242.272 45.250 C 242.685 43.747,242.833 10.744,242.435 8.833 C 241.160 2.717,234.753 -1.294,228.696 0.234 M260.167 0.262 C 256.242 1.289,252.987 4.626,252.084 8.548 C 251.665 10.365,251.789 43.963,252.219 45.417 C 255.101 55.156,268.231 56.631,272.800 47.729 C 274.156 45.087,274.083 46.296,274.083 26.500 L 274.083 8.917 273.620 7.548 C 271.767 2.078,265.727 -1.193,260.167 0.262 M291.696 0.234 C 287.871 1.199,284.568 4.528,283.585 8.410 C 283.200 9.930,283.208 42.899,283.594 44.799 C 285.906 56.176,302.004 56.641,305.197 45.424 L 305.579 44.083 305.581 26.583 C 305.584 6.885,305.681 8.455,304.285 5.763 C 302.049 1.454,296.508 -0.980,291.696 0.234 M8.750 94.573 C -1.416 96.885,-3.281 110.835,5.958 115.459 C 8.508 116.735,7.604 116.685,27.167 116.631 L 44.583 116.583 45.917 116.129 C 56.533 112.514,56.073 97.746,45.250 94.724 C 43.865 94.337,10.395 94.199,8.750 94.573 M357.083 94.505 C 344.584 95.207,342.241 112.096,354.083 116.129 L 355.417 116.583 372.833 116.631 C 392.376 116.685,391.496 116.733,394.017 115.472 C 402.781 111.085,401.778 98.196,392.415 94.887 L 391.083 94.417 375.167 94.400 C 366.412 94.390,358.275 94.438,357.083 94.505 M8.374 126.166 C -2.877 129.141,-2.747 145.316,8.548 147.916 C 10.365 148.335,43.963 148.211,45.417 147.781 C 56.382 144.536,56.309 129.189,45.314 126.219 C 43.569 125.748,10.137 125.699,8.374 126.166 M356.000 125.998 C 344.031 127.624,342.945 144.337,354.583 147.781 C 356.062 148.218,389.543 148.336,391.464 147.910 C 402.270 145.516,402.985 129.948,392.452 126.380 L 391.083 125.917 374.000 125.895 C 364.604 125.883,356.504 125.929,356.000 125.998 M8.750 157.576 C -2.760 160.142,-2.924 176.872,8.536 179.410 C 10.457 179.836,43.938 179.718,45.417 179.281 C 56.454 176.015,56.337 160.914,45.250 157.715 C 43.897 157.325,10.449 157.197,8.750 157.576 M356.583 157.440 C 350.530 158.186,346.333 162.715,346.333 168.500 C 346.333 173.474,349.695 177.870,354.583 179.287 C 356.074 179.719,389.566 179.831,391.464 179.410 C 402.272 177.016,402.986 161.448,392.452 157.880 L 391.083 157.417 374.083 157.398 C 364.733 157.387,356.858 157.406,356.583 157.440 M8.203 189.167 C -2.361 191.957,-2.864 206.866,7.480 210.569 L 8.917 211.083 26.500 211.077 C 42.585 211.072,44.176 211.047,45.167 210.785 C 56.141 207.881,56.548 192.929,45.750 189.308 L 44.583 188.917 27.000 188.882 C 10.118 188.848,9.368 188.859,8.203 189.167 M355.560 189.015 C 345.197 190.748,342.954 205.206,352.335 209.805 C 355.081 211.151,353.750 211.071,373.500 211.077 L 391.083 211.083 392.520 210.569 C 402.917 206.847,402.367 191.882,391.732 189.162 C 390.343 188.807,357.602 188.674,355.560 189.015 M8.333 220.595 C -3.088 223.584,-2.584 240.280,8.993 242.438 C 11.466 242.899,43.590 242.684,45.392 242.194 C 56.626 239.141,56.179 222.907,44.799 220.594 C 42.951 220.219,9.768 220.220,8.333 220.595 M355.083 220.607 C 343.783 222.994,343.434 239.156,354.617 242.196 C 356.410 242.684,388.543 242.898,391.007 242.438 C 402.639 240.270,403.087 223.498,391.590 220.585 C 390.122 220.213,356.854 220.233,355.083 220.607 M8.333 252.093 C -1.399 254.667,-3.080 268.197,5.763 272.785 C 8.455 274.182,6.884 274.084,26.583 274.078 L 44.083 274.073 45.409 273.694 C 56.110 270.639,56.459 255.961,45.917 252.371 L 44.583 251.917 26.917 251.883 C 11.911 251.855,9.112 251.887,8.333 252.093 M355.250 252.080 C 343.682 254.631,343.314 270.629,354.750 273.771 C 356.035 274.124,388.535 274.342,390.663 274.012 C 402.540 272.169,403.264 255.043,391.590 252.085 C 390.206 251.734,356.838 251.730,355.250 252.080 M9.750 283.329 C -2.068 284.689,-3.589 301.268,7.750 305.129 L 9.083 305.583 24.145 305.631 C 44.588 305.695,45.532 305.631,48.277 303.970 C 56.840 298.790,54.703 285.829,44.912 283.562 C 43.618 283.263,12.142 283.054,9.750 283.329 M357.833 283.338 C 350.616 283.687,346.054 288.328,346.374 294.997 C 346.672 301.236,350.981 305.160,357.938 305.528 C 363.105 305.801,390.761 305.618,391.777 305.304 C 402.832 301.887,402.813 286.829,391.750 283.566 C 390.654 283.243,363.562 283.061,357.833 283.338 M103.415 346.503 C 99.588 347.264,96.362 350.101,95.050 353.861 C 94.407 355.702,94.315 358.693,94.369 375.855 L 94.417 390.917 94.871 392.250 C 98.513 402.945,113.381 402.543,116.445 391.667 C 116.895 390.067,116.901 357.162,116.451 355.173 C 115.100 349.200,109.289 345.335,103.415 346.503 M134.417 346.602 C 130.559 347.530,127.329 350.743,126.229 354.750 C 125.876 356.035,125.658 388.535,125.988 390.663 C 127.629 401.238,142.293 403.543,146.988 393.964 C 148.246 391.398,148.181 392.595,148.129 372.979 L 148.083 355.417 147.631 354.083 C 145.733 348.490,140.018 345.254,134.417 346.602 M166.083 346.579 C 162.137 347.443,158.900 350.586,157.804 354.617 C 157.316 356.410,157.102 388.543,157.562 391.007 C 159.730 402.639,176.502 403.087,179.415 391.590 C 179.800 390.070,179.792 357.101,179.406 355.201 C 178.179 349.165,172.135 345.253,166.083 346.579 M197.203 346.670 C 194.235 347.447,191.513 349.648,190.195 352.335 C 188.849 355.081,188.929 353.750,188.923 373.500 L 188.917 391.083 189.431 392.520 C 192.740 401.763,205.616 402.718,209.959 394.042 C 211.235 391.492,211.185 392.396,211.131 372.833 L 211.083 355.417 210.692 354.250 C 208.752 348.463,202.903 345.176,197.203 346.670 M228.703 346.670 C 224.948 347.653,221.825 350.747,220.713 354.583 C 220.281 356.074,220.169 389.566,220.590 391.464 C 222.984 402.272,238.552 402.986,242.120 392.452 L 242.583 391.083 242.583 373.583 C 242.583 354.057,242.644 355.130,241.385 352.511 C 239.138 347.835,233.741 345.350,228.703 346.670 M260.203 346.670 C 256.436 347.657,253.369 350.696,252.219 354.583 C 251.782 356.062,251.664 389.543,252.090 391.464 C 254.484 402.270,270.052 402.985,273.620 392.452 L 274.083 391.083 274.083 373.417 C 274.083 356.779,274.066 355.687,273.777 354.667 C 272.092 348.700,266.047 345.139,260.203 346.670 M291.703 346.670 C 287.619 347.740,284.428 351.097,283.594 355.201 C 283.208 357.101,283.200 390.070,283.585 391.590 C 286.385 402.641,301.915 402.874,305.277 391.917 C 305.566 390.972,305.583 389.941,305.582 373.417 L 305.581 355.917 305.198 354.591 C 303.474 348.615,297.550 345.138,291.703 346.670 " stroke="#000000" fill="none" stroke-width="3" class="TmMPUweD_1"></path><path id="path2" d="M116.667 41.566 C 116.667 44.074,116.334 45.758,115.511 47.417 C 110.362 57.797,94.962 54.493,94.538 42.917 C 94.447 40.426,94.690 40.572,91.745 41.233 C 66.420 46.911,46.306 67.206,41.102 92.333 C 40.618 94.672,40.502 94.500,42.558 94.500 C 52.369 94.500,57.327 106.068,50.559 113.168 C 48.259 115.581,46.050 116.487,42.125 116.625 L 39.667 116.712 39.667 121.248 L 39.667 125.784 41.958 125.886 C 49.030 126.199,53.661 130.598,53.661 137.000 C 53.661 143.393,49.004 147.850,42.042 148.120 L 39.667 148.213 39.667 152.747 L 39.667 157.282 41.958 157.385 C 49.050 157.702,53.650 162.109,53.664 168.598 C 53.677 174.872,48.954 179.352,42.042 179.620 L 39.667 179.713 39.667 184.250 L 39.667 188.788 42.125 188.876 C 51.076 189.198,56.266 197.285,52.467 204.989 C 50.580 208.817,47.256 210.799,42.417 210.982 L 39.750 211.083 39.706 215.708 L 39.661 220.333 41.588 220.333 C 48.922 220.333,53.989 225.275,53.621 232.068 C 53.288 238.199,48.922 242.227,42.333 242.483 L 39.750 242.583 39.706 247.186 L 39.661 251.788 42.122 251.875 C 49.241 252.126,53.965 256.928,53.626 263.569 C 53.314 269.679,48.919 273.732,42.333 273.984 L 39.750 274.083 39.706 278.708 L 39.661 283.333 41.706 283.336 C 44.139 283.340,45.646 283.627,47.245 284.392 C 57.743 289.413,54.592 305.045,43.000 305.455 C 40.480 305.544,40.659 305.422,40.932 306.863 C 45.800 332.583,67.417 354.200,93.137 359.068 C 94.578 359.341,94.456 359.520,94.545 357.000 C 94.955 345.418,110.617 342.236,115.597 352.723 C 116.374 354.358,116.660 355.855,116.664 358.294 L 116.667 360.339 121.292 360.294 L 125.917 360.250 126.018 357.583 C 126.272 350.873,130.697 346.347,137.015 346.336 C 143.405 346.325,147.900 350.994,148.127 357.878 L 148.208 360.339 152.812 360.294 L 157.417 360.250 157.519 357.667 C 157.782 351.063,161.818 346.686,167.931 346.374 C 174.756 346.026,179.667 351.063,179.667 358.412 L 179.667 360.339 184.292 360.294 L 188.917 360.250 189.018 357.583 C 189.272 350.878,193.708 346.333,200.000 346.333 C 206.364 346.333,210.877 351.016,211.124 357.875 L 211.212 360.333 215.750 360.333 L 220.287 360.333 220.380 357.958 C 220.650 350.995,225.109 346.333,231.500 346.333 C 237.918 346.333,242.307 350.987,242.620 358.125 L 242.717 360.333 247.252 360.333 L 251.787 360.333 251.880 357.958 C 252.150 350.997,256.611 346.333,263.000 346.333 C 269.363 346.333,273.805 350.981,274.113 357.958 L 274.218 360.333 278.775 360.333 L 283.333 360.333 283.333 358.410 C 283.333 353.331,285.366 349.679,289.362 347.580 C 296.720 343.713,305.500 349.081,305.500 357.445 C 305.500 359.497,305.328 359.382,307.667 358.898 C 333.224 353.605,354.250 332.319,359.068 306.863 C 359.341 305.422,359.520 305.544,357.000 305.455 C 345.415 305.045,342.233 289.384,352.723 284.403 C 354.358 283.626,355.855 283.340,358.294 283.336 L 360.339 283.333 360.294 278.708 L 360.250 274.083 357.583 273.982 C 350.873 273.728,346.347 269.303,346.336 262.985 C 346.325 256.595,350.994 252.100,357.878 251.873 L 360.339 251.792 360.294 247.188 L 360.250 242.583 357.667 242.481 C 351.063 242.218,346.686 238.182,346.374 232.069 C 346.026 225.244,351.063 220.333,358.412 220.333 L 360.339 220.333 360.294 215.708 L 360.250 211.083 357.583 210.982 C 350.873 210.728,346.347 206.303,346.336 199.985 C 346.325 193.637,351.020 189.117,357.875 188.875 L 360.333 188.788 360.333 184.250 L 360.333 179.713 357.958 179.620 C 350.995 179.350,346.333 174.891,346.333 168.500 C 346.333 162.082,350.987 157.693,358.125 157.380 L 360.333 157.283 360.333 152.748 L 360.333 148.213 357.958 148.120 C 350.997 147.850,346.333 143.389,346.333 137.000 C 346.333 130.637,350.981 126.195,357.958 125.887 L 360.333 125.782 360.333 121.247 L 360.333 116.712 357.875 116.625 C 353.950 116.487,351.741 115.581,349.441 113.168 C 342.669 106.064,347.625 94.500,357.442 94.500 C 359.498 94.500,359.382 94.672,358.898 92.333 C 353.689 67.185,333.628 46.940,308.266 41.237 C 305.285 40.567,305.500 40.463,305.500 42.574 C 305.500 50.837,296.893 56.187,289.536 52.496 C 285.441 50.443,283.333 46.736,283.333 41.590 L 283.333 39.667 278.775 39.667 L 274.216 39.667 274.114 41.958 C 273.801 49.030,269.402 53.661,263.000 53.661 C 256.605 53.661,252.150 49.005,251.880 42.039 L 251.787 39.661 247.185 39.706 L 242.583 39.750 242.482 42.417 C 242.236 48.921,238.154 53.315,232.069 53.626 C 225.429 53.965,220.626 49.241,220.375 42.125 L 220.288 39.667 215.750 39.667 L 211.213 39.667 211.120 42.042 C 210.850 49.009,206.398 53.661,200.000 53.661 C 193.636 53.661,189.195 49.017,188.887 42.042 L 188.782 39.667 184.247 39.667 L 179.712 39.667 179.624 42.125 C 179.368 49.239,174.564 53.965,167.931 53.626 C 161.846 53.315,157.764 48.921,157.518 42.417 L 157.417 39.750 152.814 39.706 L 148.212 39.661 148.124 42.122 C 147.802 51.071,139.713 56.265,132.011 52.467 C 128.183 50.580,126.201 47.256,126.018 42.417 L 125.917 39.750 121.292 39.706 L 116.667 39.661 116.667 41.566 M232.500 94.542 L 267.250 94.583 269.500 95.035 C 287.135 98.577,301.701 113.256,305.023 130.833 L 305.417 132.917 305.417 200.000 L 305.417 267.083 305.023 269.167 C 301.679 286.861,286.861 301.679,269.167 305.023 L 267.083 305.417 200.000 305.417 L 132.917 305.417 130.833 305.023 C 113.139 301.679,98.321 286.861,94.977 269.167 L 94.583 267.083 94.583 200.000 L 94.583 132.917 94.977 130.833 C 97.158 119.295,104.441 108.482,114.610 101.683 L 116.304 100.551 113.317 97.567 L 110.330 94.583 123.123 94.500 C 130.160 94.454,149.829 94.435,166.833 94.458 C 183.838 94.481,213.387 94.519,232.500 94.542 " stroke="#000000" fill="none" stroke-width="3" class="TmMPUweD_2"></path><path id="path3" d="M123.123 94.500 L 110.330 94.583 113.317 97.567 L 116.304 100.551 114.610 101.683 C 104.441 108.482,97.158 119.295,94.977 130.833 L 94.583 132.917 94.583 200.000 L 94.583 267.083 94.977 269.167 C 98.321 286.861,113.139 301.679,130.833 305.023 L 132.917 305.417 200.000 305.417 L 267.083 305.417 269.167 305.023 C 286.861 301.679,301.679 286.861,305.023 269.167 L 305.417 267.083 305.417 200.000 L 305.417 132.917 305.023 130.833 C 301.701 113.256,287.135 98.577,269.500 95.035 L 267.250 94.583 232.500 94.542 C 213.387 94.519,183.838 94.481,166.833 94.458 C 149.829 94.435,130.160 94.454,123.123 94.500 M268.173 117.115 C 276.519 118.969,281.269 123.833,282.950 132.250 C 283.417 134.585,283.417 265.415,282.950 267.750 C 281.239 276.313,276.313 281.239,267.750 282.950 C 265.415 283.417,134.585 283.417,132.250 282.950 C 123.687 281.239,118.761 276.313,117.050 267.750 C 116.583 265.415,116.583 134.585,117.050 132.250 C 118.894 123.019,124.516 117.961,134.250 116.776 C 134.525 116.742,164.412 116.725,200.667 116.738 L 266.583 116.762 268.173 117.115 " stroke="#000000" fill="none" stroke-width="3" class="TmMPUweD_3"></path></g><style data-made-with="vivus-instant">.TmMPUweD_0{stroke-dasharray:635 637;stroke-dashoffset:636;animation:TmMPUweD_draw_0 4000ms linear 0ms infinite,TmMPUweD_fade 4000ms linear 0ms infinite;}.TmMPUweD_1{stroke-dasharray:3722 3724;stroke-dashoffset:3723;animation:TmMPUweD_draw_1 4000ms linear 0ms infinite,TmMPUweD_fade 4000ms linear 0ms infinite;}.TmMPUweD_2{stroke-dasharray:2452 2454;stroke-dashoffset:2453;animation:TmMPUweD_draw_2 4000ms linear 0ms infinite,TmMPUweD_fade 4000ms linear 0ms infinite;}.TmMPUweD_3{stroke-dasharray:1417 1419;stroke-dashoffset:1418;animation:TmMPUweD_draw_3 4000ms linear 0ms infinite,TmMPUweD_fade 4000ms linear 0ms infinite;}@keyframes TmMPUweD_draw{100%{stroke-dashoffset:0;}}@keyframes TmMPUweD_fade{0%{stroke-opacity:1;}90%{stroke-opacity:1;}100%{stroke-opacity:0;}}@keyframes TmMPUweD_draw_0{7.5%{stroke-dashoffset: 636}70%{ stroke-dashoffset: 0;}100%{ stroke-dashoffset: 0;}}@keyframes TmMPUweD_draw_1{7.5%{stroke-dashoffset: 3723}70%{ stroke-dashoffset: 0;}100%{ stroke-dashoffset: 0;}}@keyframes TmMPUweD_draw_2{7.5%{stroke-dashoffset: 2453}70%{ stroke-dashoffset: 0;}100%{ stroke-dashoffset: 0;}}@keyframes TmMPUweD_draw_3{7.5%{stroke-dashoffset: 1418}70%{ stroke-dashoffset: 0;}100%{ stroke-dashoffset: 0;}}</style></svg>
