<svg id="svg" version="1.1" width="400" height="400" viewBox="0 0 400 400" xmlns="http://www.w3.org/2000/svg" xmlns:xlink="http://www.w3.org/1999/xlink" style=""><g id="svgg"><path id="path0" d="M211.600 31.424 C 211.600 32.207,211.750 32.755,211.933 32.641 C 212.249 32.446,212.083 30.000,211.755 30.000 C 211.670 30.000,211.600 30.641,211.600 31.424 M188.093 31.600 C 188.093 32.370,188.175 32.685,188.276 32.300 C 188.376 31.915,188.376 31.285,188.276 30.900 C 188.175 30.515,188.093 30.830,188.093 31.600 M186.422 34.300 C 185.546 36.411,184.391 38.400,184.041 38.400 C 183.848 38.400,183.574 39.013,183.434 39.761 C 183.293 40.510,182.913 41.224,182.589 41.349 C 182.265 41.473,182.000 41.941,182.000 42.387 C 182.000 42.834,181.658 43.542,181.241 43.959 C 180.823 44.377,180.362 45.262,180.216 45.926 C 180.070 46.590,179.692 47.233,179.376 47.354 C 179.059 47.476,178.800 47.941,178.800 48.387 C 178.800 48.834,178.440 49.560,178.000 50.000 C 177.560 50.440,177.200 51.132,177.200 51.538 C 177.200 51.944,176.840 52.602,176.400 53.000 C 175.960 53.398,175.600 53.983,175.600 54.299 C 175.600 54.615,175.240 55.331,174.800 55.891 C 174.360 56.450,174.000 57.154,174.000 57.454 C 174.000 57.754,173.640 58.360,173.200 58.800 C 172.760 59.240,172.400 59.920,172.400 60.311 C 172.400 60.702,172.040 61.330,171.600 61.707 C 171.160 62.084,170.800 62.825,170.800 63.353 C 170.800 63.882,170.547 64.412,170.238 64.530 C 169.928 64.649,169.551 65.310,169.400 66.000 C 169.249 66.690,168.883 67.347,168.587 67.460 C 168.291 67.574,167.936 68.179,167.799 68.806 C 167.661 69.432,167.290 70.159,166.974 70.421 C 166.658 70.683,166.400 71.236,166.400 71.649 C 166.400 72.062,166.040 72.760,165.600 73.200 C 165.160 73.640,164.800 74.242,164.800 74.538 C 164.800 74.834,164.440 75.402,164.000 75.800 C 163.560 76.198,163.200 76.858,163.200 77.266 C 163.200 77.674,162.840 78.316,162.400 78.693 C 161.960 79.070,161.600 79.786,161.600 80.286 C 161.600 80.785,161.240 81.418,160.800 81.693 C 160.304 82.003,160.000 82.626,160.000 83.334 C 160.000 84.138,159.764 84.537,159.200 84.684 C 158.614 84.837,158.400 85.230,158.400 86.150 C 158.400 86.974,158.124 87.580,157.600 87.907 C 157.160 88.182,156.800 88.767,156.800 89.207 C 156.800 89.648,156.440 90.316,156.000 90.693 C 155.560 91.070,155.190 91.653,155.177 91.989 C 155.164 92.325,154.635 93.500,154.001 94.600 C 153.367 95.700,152.577 97.185,152.245 97.900 C 151.913 98.615,151.472 99.200,151.265 99.200 C 151.058 99.200,150.774 99.813,150.634 100.561 C 150.493 101.310,150.113 102.024,149.789 102.149 C 149.465 102.273,149.200 102.741,149.200 103.187 C 149.200 103.634,148.840 104.360,148.400 104.800 C 147.960 105.240,147.600 105.960,147.600 106.400 C 147.600 106.840,147.240 107.560,146.800 108.000 C 146.360 108.440,146.000 109.070,146.000 109.400 C 146.000 109.730,145.640 110.360,145.200 110.800 C 144.760 111.240,144.400 111.932,144.400 112.338 C 144.400 112.744,144.040 113.402,143.600 113.800 C 143.160 114.198,142.800 114.783,142.800 115.099 C 142.800 115.415,142.440 116.131,142.000 116.691 C 141.560 117.250,141.200 118.049,141.200 118.466 C 141.200 118.884,140.946 119.322,140.636 119.441 C 140.326 119.561,139.951 120.140,139.804 120.729 C 139.656 121.318,139.190 122.122,138.768 122.516 C 138.345 122.909,138.000 123.680,138.000 124.228 C 138.000 124.776,137.746 125.322,137.436 125.441 C 137.126 125.561,136.755 126.126,136.611 126.697 C 136.468 127.269,136.002 128.180,135.575 128.722 C 135.149 129.264,134.800 129.941,134.800 130.225 C 134.800 130.510,134.567 130.981,134.283 131.271 C 133.999 131.562,133.527 132.385,133.235 133.100 C 132.942 133.815,132.545 134.400,132.351 134.400 C 132.158 134.400,132.000 134.760,132.000 135.200 C 132.000 135.640,131.640 136.360,131.200 136.800 C 130.760 137.240,130.400 137.958,130.400 138.397 C 130.400 138.835,130.040 139.418,129.600 139.693 C 129.160 139.968,128.800 140.494,128.800 140.864 C 128.800 141.966,128.351 142.800,127.757 142.800 C 127.405 142.800,127.200 143.240,127.200 143.997 C 127.200 144.760,126.910 145.374,126.400 145.693 C 125.960 145.968,125.600 146.601,125.600 147.100 C 125.600 147.599,125.240 148.316,124.800 148.693 C 124.360 149.070,124.000 149.674,124.000 150.035 C 124.000 150.396,123.640 151.150,123.200 151.709 C 122.760 152.269,122.400 152.985,122.400 153.301 C 122.400 153.617,122.040 154.202,121.600 154.600 C 121.160 154.998,120.800 155.634,120.800 156.013 C 120.800 156.392,120.542 156.917,120.226 157.179 C 119.910 157.441,119.536 158.183,119.394 158.828 C 119.252 159.472,118.901 160.000,118.613 160.000 C 118.325 160.000,117.969 160.639,117.822 161.421 C 117.676 162.203,117.296 162.942,116.978 163.064 C 116.660 163.186,116.400 163.718,116.400 164.247 C 116.400 164.775,116.040 165.516,115.600 165.893 C 115.160 166.270,114.800 166.898,114.800 167.289 C 114.800 167.680,114.440 168.360,114.000 168.800 C 113.560 169.240,113.200 169.846,113.200 170.146 C 113.200 170.446,112.840 171.150,112.400 171.709 C 111.960 172.269,111.600 172.985,111.600 173.301 C 111.600 173.617,111.240 174.202,110.800 174.600 C 110.360 174.998,110.000 175.628,110.000 176.000 C 110.000 176.372,109.640 177.002,109.200 177.400 C 108.760 177.798,108.400 178.552,108.400 179.075 C 108.400 179.597,108.141 180.124,107.824 180.246 C 107.508 180.367,107.124 181.037,106.971 181.733 C 106.818 182.430,106.357 183.235,105.946 183.523 C 105.536 183.810,105.200 184.491,105.200 185.035 C 105.200 185.580,104.941 186.124,104.624 186.246 C 104.308 186.367,103.934 186.990,103.794 187.629 C 103.653 188.268,103.370 188.895,103.163 189.023 C 102.957 189.150,102.514 189.911,102.178 190.713 C 101.843 191.516,101.441 192.268,101.284 192.386 C 101.128 192.504,100.474 193.680,99.831 195.000 C 99.188 196.320,98.423 197.544,98.131 197.720 C 97.839 197.896,97.600 198.479,97.600 199.016 C 97.600 199.560,97.245 200.215,96.800 200.493 C 96.318 200.794,96.000 201.426,96.000 202.082 C 96.000 202.762,95.699 203.333,95.200 203.600 C 94.733 203.850,94.400 204.438,94.400 205.011 C 94.400 205.560,94.047 206.213,93.600 206.493 C 93.160 206.768,92.800 207.401,92.800 207.900 C 92.800 208.399,92.440 209.116,92.000 209.493 C 91.560 209.870,91.200 210.474,91.200 210.835 C 91.200 211.196,90.840 211.950,90.400 212.509 C 89.960 213.069,89.600 213.739,89.600 214.000 C 89.600 214.261,89.240 214.931,88.800 215.491 C 88.360 216.050,88.000 216.732,88.000 217.005 C 88.000 217.278,87.742 217.717,87.426 217.979 C 87.110 218.241,86.739 218.968,86.601 219.594 C 86.464 220.221,86.109 220.826,85.813 220.940 C 85.517 221.053,85.151 221.710,85.000 222.400 C 84.849 223.090,84.489 223.744,84.202 223.855 C 83.914 223.965,83.566 224.656,83.428 225.389 C 83.291 226.123,82.913 226.824,82.589 226.949 C 82.265 227.073,82.000 227.541,82.000 227.987 C 82.000 228.434,81.640 229.160,81.200 229.600 C 80.760 230.040,80.400 230.646,80.400 230.946 C 80.400 231.246,80.040 231.950,79.600 232.509 C 79.160 233.069,78.800 233.785,78.800 234.101 C 78.800 234.417,78.440 235.002,78.000 235.400 C 77.560 235.798,77.200 236.428,77.200 236.800 C 77.200 237.172,76.840 237.802,76.400 238.200 C 75.960 238.598,75.600 239.352,75.600 239.875 C 75.600 240.397,75.335 240.927,75.011 241.051 C 74.687 241.176,74.306 241.895,74.164 242.649 C 74.023 243.404,73.568 244.203,73.153 244.425 C 72.733 244.650,72.400 245.258,72.400 245.800 C 72.400 246.362,72.063 246.952,71.600 247.200 C 71.076 247.480,70.800 248.038,70.800 248.814 C 70.800 249.466,70.622 250.000,70.405 250.000 C 70.188 250.000,69.731 250.669,69.390 251.486 C 69.048 252.303,68.641 253.068,68.484 253.186 C 68.057 253.508,66.398 256.929,66.399 257.486 C 66.400 257.753,66.040 258.165,65.600 258.400 C 65.160 258.635,64.800 259.167,64.800 259.581 C 64.800 260.760,64.366 261.600,63.757 261.600 C 63.430 261.600,63.200 262.012,63.200 262.600 C 63.200 263.150,62.840 263.960,62.400 264.400 C 61.960 264.840,61.600 265.455,61.600 265.767 C 61.600 266.773,61.129 267.600,60.557 267.600 C 60.230 267.600,60.000 268.012,60.000 268.600 C 60.000 269.150,59.640 269.960,59.200 270.400 C 58.760 270.840,58.406 271.605,58.413 272.100 C 58.425 272.945,58.459 272.956,58.970 272.282 C 59.270 271.887,60.161 271.459,60.951 271.330 C 61.741 271.202,62.593 270.849,62.846 270.545 C 63.098 270.241,64.016 269.879,64.886 269.740 C 65.757 269.601,66.563 269.241,66.678 268.941 C 66.793 268.641,67.577 268.285,68.419 268.151 C 69.261 268.016,70.046 267.657,70.163 267.353 C 70.279 267.049,70.893 266.800,71.526 266.800 C 72.159 266.800,73.066 266.463,73.542 266.051 C 74.017 265.639,75.105 265.190,75.959 265.053 C 76.814 264.916,77.617 264.533,77.744 264.202 C 77.875 263.859,78.470 263.600,79.125 263.600 C 79.768 263.600,80.596 263.247,81.000 262.800 C 81.398 262.360,82.163 262.000,82.699 262.000 C 83.235 262.000,84.131 261.640,84.691 261.200 C 85.250 260.760,86.314 260.400,87.054 260.400 C 87.938 260.400,88.400 260.209,88.400 259.843 C 88.400 259.196,89.253 258.800,90.645 258.800 C 91.184 258.800,91.727 258.535,91.851 258.211 C 91.976 257.887,92.735 257.501,93.539 257.353 C 94.342 257.205,95.429 256.750,95.954 256.342 C 96.479 255.934,97.334 255.600,97.854 255.600 C 98.374 255.600,99.160 255.240,99.600 254.800 C 100.040 254.360,100.921 254.000,101.557 254.000 C 102.194 254.000,102.812 253.747,102.930 253.438 C 103.049 253.128,103.681 252.758,104.334 252.615 C 104.987 252.471,106.208 252.004,107.046 251.577 C 107.884 251.150,108.962 250.800,109.442 250.800 C 109.922 250.800,110.418 250.530,110.545 250.200 C 110.675 249.859,111.272 249.600,111.925 249.600 C 112.568 249.600,113.396 249.247,113.800 248.800 C 114.198 248.360,115.008 248.000,115.600 248.000 C 116.192 248.000,116.982 247.662,117.355 247.250 C 117.729 246.837,118.658 246.398,119.421 246.274 C 120.184 246.150,121.089 245.768,121.433 245.424 C 121.776 245.081,122.544 244.800,123.140 244.800 C 123.735 244.800,124.530 244.440,124.907 244.000 C 125.284 243.560,126.044 243.200,126.596 243.200 C 127.148 243.200,127.960 242.840,128.400 242.400 C 128.844 241.956,129.733 241.600,130.400 241.600 C 131.067 241.600,131.956 241.244,132.400 240.800 C 132.840 240.360,133.650 240.000,134.200 240.000 C 134.750 240.000,135.560 239.640,136.000 239.200 C 136.440 238.760,137.122 238.400,137.515 238.400 C 137.909 238.400,138.937 238.040,139.800 237.600 C 140.663 237.160,141.781 236.800,142.285 236.800 C 142.806 236.800,143.200 236.557,143.200 236.235 C 143.200 235.890,143.809 235.567,144.769 235.405 C 145.631 235.260,146.429 234.902,146.541 234.610 C 146.653 234.318,147.466 233.958,148.349 233.809 C 149.232 233.659,150.166 233.282,150.426 232.969 C 150.686 232.656,151.208 232.400,151.588 232.400 C 153.320 232.400,153.888 231.190,154.065 227.121 C 154.187 224.332,154.414 223.043,154.873 222.523 C 155.324 222.011,155.559 220.735,155.676 218.151 C 155.785 215.755,156.057 214.173,156.467 213.546 C 156.877 212.922,157.154 211.319,157.269 208.913 C 157.394 206.301,157.630 205.027,158.085 204.517 C 158.556 203.990,158.762 202.759,158.863 199.867 C 158.974 196.688,159.134 195.837,159.700 195.423 C 160.273 195.005,160.400 194.287,160.400 191.475 C 160.400 188.228,160.915 186.000,161.664 186.000 C 161.849 186.000,162.006 184.425,162.014 182.500 C 162.024 179.881,162.222 178.597,162.800 177.400 C 163.365 176.230,163.577 174.921,163.586 172.529 C 163.597 170.025,163.756 169.101,164.265 168.592 C 164.755 168.103,164.992 166.895,165.165 164.024 C 165.317 161.494,165.605 159.875,165.983 159.420 C 166.375 158.948,166.619 157.451,166.727 154.859 C 166.822 152.571,167.092 150.756,167.390 150.400 C 167.667 150.070,168.008 148.103,168.147 146.029 C 168.287 143.955,168.643 141.885,168.938 141.429 C 169.233 140.973,169.593 138.904,169.738 136.831 C 169.899 134.525,170.217 132.817,170.557 132.431 C 170.922 132.016,171.169 130.447,171.277 127.853 C 171.407 124.730,171.583 123.802,172.121 123.409 C 172.653 123.019,172.800 122.274,172.802 119.956 C 172.805 116.921,173.378 114.000,173.972 114.000 C 174.156 114.000,174.379 112.212,174.467 110.028 C 174.584 107.099,174.797 105.864,175.276 105.328 C 175.758 104.788,175.961 103.584,176.063 100.667 C 176.174 97.488,176.334 96.637,176.900 96.223 C 177.477 95.802,177.600 95.079,177.600 92.110 C 177.600 89.114,177.735 88.337,178.400 87.491 C 179.063 86.647,179.200 85.868,179.200 82.926 C 179.200 80.262,179.366 79.141,179.867 78.426 C 180.316 77.785,180.619 76.220,180.795 73.637 C 180.959 71.231,181.306 69.352,181.726 68.600 C 182.185 67.777,182.396 66.455,182.398 64.389 C 182.399 62.518,182.605 61.079,182.941 60.589 C 183.241 60.152,183.598 58.119,183.742 56.029 C 183.898 53.758,184.240 51.894,184.601 51.343 C 184.931 50.839,185.211 49.479,185.224 48.314 C 185.255 45.513,185.788 42.381,186.287 42.059 C 186.679 41.806,187.436 33.200,187.066 33.200 C 186.963 33.200,186.673 33.695,186.422 34.300 M213.089 37.300 C 213.241 40.221,213.484 41.608,213.934 42.123 C 214.386 42.640,214.611 43.944,214.726 46.723 C 214.842 49.513,215.065 50.801,215.521 51.317 C 215.968 51.822,216.207 53.123,216.331 55.713 C 216.434 57.860,216.734 59.738,217.053 60.224 C 217.353 60.683,217.716 62.755,217.860 64.829 C 218.004 66.903,218.300 68.717,218.518 68.859 C 219.021 69.187,219.545 72.339,219.576 75.220 C 219.589 76.441,219.825 77.665,220.100 77.940 C 220.394 78.234,220.696 80.055,220.833 82.357 C 220.994 85.058,221.273 86.570,221.733 87.226 C 222.222 87.923,222.400 89.040,222.400 91.400 C 222.400 93.825,222.573 94.867,223.100 95.611 C 223.590 96.303,223.875 97.742,224.049 100.400 C 224.200 102.707,224.553 104.672,224.947 105.400 C 225.397 106.233,225.596 107.625,225.598 109.956 C 225.600 112.689,225.730 113.407,226.300 113.823 C 226.870 114.240,227.026 115.098,227.140 118.452 C 227.251 121.705,227.419 122.672,227.940 123.053 C 228.451 123.426,228.632 124.375,228.743 127.247 C 228.840 129.765,229.090 131.271,229.522 131.930 C 229.945 132.575,230.214 134.126,230.324 136.551 C 230.441 139.135,230.676 140.411,231.127 140.923 C 231.588 141.445,231.810 142.722,231.926 145.523 C 232.033 148.087,232.278 149.616,232.650 150.039 C 233.008 150.444,233.306 152.125,233.467 154.639 C 233.607 156.818,233.900 158.717,234.118 158.859 C 234.617 159.185,235.145 162.332,235.176 165.169 C 235.191 166.504,235.430 167.591,235.799 167.999 C 236.194 168.436,236.486 169.947,236.654 172.431 C 236.795 174.504,237.110 176.452,237.355 176.761 C 237.600 177.070,237.905 179.066,238.033 181.198 C 238.193 183.860,238.475 185.372,238.933 186.026 C 239.400 186.693,239.602 187.820,239.605 189.789 C 239.613 193.891,240.833 196.177,241.745 193.800 C 241.879 193.449,242.479 193.200,243.187 193.200 C 243.867 193.200,244.752 192.848,245.200 192.400 C 245.644 191.956,246.533 191.600,247.200 191.600 C 247.860 191.600,248.400 191.449,248.400 191.264 C 248.400 190.821,250.230 190.000,251.219 190.000 C 251.648 190.000,252.360 189.640,252.800 189.200 C 253.240 188.760,254.028 188.400,254.551 188.400 C 255.074 188.400,255.722 188.135,255.991 187.811 C 256.260 187.486,257.086 187.108,257.826 186.969 C 258.566 186.830,259.381 186.464,259.638 186.155 C 259.894 185.846,260.816 185.479,261.686 185.340 C 262.557 185.201,263.363 184.841,263.478 184.541 C 263.593 184.241,264.377 183.885,265.219 183.751 C 266.061 183.616,266.846 183.257,266.963 182.953 C 267.079 182.649,267.693 182.400,268.326 182.400 C 268.959 182.400,269.866 182.063,270.342 181.651 C 270.817 181.239,271.905 180.790,272.759 180.653 C 273.614 180.516,274.417 180.133,274.544 179.802 C 274.679 179.449,275.277 179.200,275.987 179.200 C 276.667 179.200,277.552 178.848,278.000 178.400 C 278.440 177.960,279.250 177.600,279.800 177.600 C 280.350 177.600,281.160 177.240,281.600 176.800 C 282.044 176.356,282.933 176.000,283.600 176.000 C 284.267 176.000,285.156 175.644,285.600 175.200 C 286.040 174.760,286.850 174.400,287.400 174.400 C 288.576 174.400,288.788 173.131,287.780 172.123 C 287.440 171.782,287.059 170.997,286.935 170.377 C 286.812 169.758,286.477 169.162,286.193 169.053 C 285.908 168.943,285.557 168.317,285.413 167.660 C 285.269 167.004,284.902 166.371,284.598 166.254 C 284.293 166.138,283.927 165.415,283.783 164.649 C 283.639 163.882,283.286 163.165,282.998 163.055 C 282.711 162.944,282.351 162.290,282.200 161.600 C 282.049 160.910,281.672 160.249,281.362 160.130 C 281.053 160.012,280.800 159.647,280.800 159.320 C 280.800 158.994,280.440 158.269,280.000 157.709 C 279.560 157.150,279.200 156.384,279.200 156.008 C 279.200 155.632,278.840 154.998,278.400 154.600 C 277.960 154.202,277.600 153.497,277.600 153.034 C 277.600 152.571,277.240 151.968,276.800 151.693 C 276.360 151.418,276.000 150.785,276.000 150.286 C 276.000 149.786,275.640 149.070,275.200 148.693 C 274.760 148.316,274.400 147.599,274.400 147.100 C 274.400 146.601,274.040 145.968,273.600 145.693 C 273.090 145.374,272.800 144.760,272.800 143.997 C 272.800 143.206,272.599 142.800,272.208 142.800 C 271.882 142.800,271.492 142.305,271.342 141.700 C 271.191 141.095,270.776 140.150,270.418 139.600 C 269.320 137.910,268.835 137.051,268.247 135.749 C 267.936 135.061,267.483 134.375,267.241 134.225 C 266.998 134.075,266.800 133.553,266.800 133.065 C 266.800 132.577,266.440 131.870,266.000 131.493 C 265.560 131.116,265.200 130.399,265.200 129.900 C 265.200 129.401,264.840 128.768,264.400 128.493 C 263.960 128.218,263.600 127.662,263.600 127.258 C 263.600 126.853,263.240 126.107,262.800 125.600 C 262.360 125.093,262.000 124.298,262.000 123.835 C 262.000 123.372,261.640 122.768,261.200 122.493 C 260.753 122.213,260.400 121.560,260.400 121.011 C 260.400 120.438,260.067 119.850,259.600 119.600 C 259.154 119.362,258.800 118.762,258.800 118.248 C 258.800 117.740,258.440 116.998,258.000 116.600 C 257.560 116.202,257.200 115.563,257.200 115.181 C 257.200 114.798,256.953 114.391,256.651 114.275 C 256.350 114.159,255.979 113.569,255.827 112.964 C 255.675 112.358,255.202 111.420,254.775 110.878 C 254.349 110.336,254.000 109.576,254.000 109.189 C 254.000 108.802,253.747 108.388,253.438 108.270 C 253.128 108.151,252.750 107.484,252.597 106.786 C 252.444 106.089,251.977 105.177,251.559 104.759 C 251.142 104.342,250.800 103.659,250.800 103.243 C 250.800 102.826,250.530 102.382,250.200 102.255 C 249.870 102.129,249.600 101.684,249.600 101.266 C 249.600 100.849,249.265 100.079,248.855 99.554 C 248.445 99.029,247.988 98.211,247.840 97.736 C 247.691 97.261,247.306 96.654,246.985 96.387 C 246.663 96.120,246.400 95.637,246.400 95.314 C 246.400 94.991,246.040 94.269,245.600 93.709 C 245.160 93.150,244.800 92.446,244.800 92.146 C 244.800 91.846,244.440 91.240,244.000 90.800 C 243.560 90.360,243.200 89.593,243.200 89.096 C 243.200 88.599,242.840 87.968,242.400 87.693 C 241.960 87.418,241.600 86.785,241.600 86.286 C 241.600 85.786,241.240 85.070,240.800 84.693 C 240.360 84.316,240.000 83.599,240.000 83.100 C 240.000 82.601,239.640 81.968,239.200 81.693 C 238.743 81.408,238.400 80.760,238.400 80.184 C 238.400 79.629,238.141 79.076,237.824 78.954 C 237.508 78.833,237.134 78.208,236.993 77.567 C 236.852 76.925,236.582 76.400,236.394 76.400 C 236.206 76.400,235.824 75.770,235.546 75.000 C 235.267 74.230,234.915 73.600,234.763 73.600 C 234.611 73.600,234.205 72.895,233.860 72.034 C 233.516 71.173,233.046 70.352,232.817 70.210 C 232.588 70.069,232.400 69.520,232.400 68.990 C 232.400 68.438,232.060 67.846,231.600 67.600 C 231.133 67.350,230.800 66.762,230.800 66.189 C 230.800 65.640,230.447 64.987,230.000 64.707 C 229.476 64.380,229.200 63.774,229.200 62.950 C 229.200 62.030,228.986 61.637,228.400 61.484 C 227.820 61.332,227.600 60.938,227.600 60.052 C 227.600 59.238,227.332 58.685,226.800 58.400 C 226.360 58.165,226.000 57.640,226.000 57.235 C 226.000 56.830,225.737 56.280,225.415 56.013 C 225.094 55.746,224.709 55.139,224.560 54.664 C 224.412 54.189,223.955 53.371,223.545 52.846 C 223.135 52.321,222.800 51.646,222.800 51.346 C 222.800 51.046,222.440 50.440,222.000 50.000 C 221.560 49.560,221.200 48.913,221.200 48.563 C 221.200 48.213,220.840 47.469,220.400 46.909 C 219.960 46.350,219.600 45.576,219.600 45.189 C 219.600 44.802,219.347 44.388,219.038 44.270 C 218.728 44.151,218.351 43.490,218.200 42.800 C 218.049 42.110,217.689 41.456,217.402 41.345 C 217.114 41.235,216.766 40.544,216.628 39.811 C 216.491 39.077,216.113 38.376,215.789 38.251 C 215.465 38.127,215.200 37.733,215.200 37.376 C 215.200 37.018,214.840 36.269,214.400 35.709 C 213.960 35.150,213.600 34.457,213.600 34.170 C 213.600 33.882,213.437 33.546,213.238 33.423 C 213.025 33.292,212.964 34.894,213.089 37.300 M199.750 71.506 C 199.494 71.673,199.226 73.386,199.128 75.483 C 199.006 78.080,198.768 79.377,198.321 79.883 C 197.865 80.399,197.642 81.687,197.526 84.477 C 197.409 87.304,197.190 88.551,196.720 89.077 C 196.243 89.611,196.039 90.828,195.937 93.733 C 195.830 96.811,195.657 97.770,195.142 98.146 C 194.629 98.521,194.452 99.479,194.342 102.473 C 194.233 105.431,194.039 106.496,193.500 107.090 C 192.950 107.697,192.799 108.587,192.798 111.231 C 192.796 113.574,192.597 114.966,192.147 115.800 C 191.746 116.540,191.402 118.499,191.248 120.915 C 191.078 123.570,190.822 124.939,190.451 125.168 C 190.078 125.399,189.843 126.691,189.708 129.253 C 189.582 131.660,189.289 133.354,188.888 133.990 C 188.491 134.619,188.179 136.387,188.032 138.829 C 187.904 140.946,187.600 142.930,187.355 143.239 C 187.110 143.548,186.795 145.496,186.654 147.569 C 186.500 149.839,186.182 151.589,185.853 151.969 C 185.523 152.350,185.206 154.097,185.053 156.371 C 184.913 158.445,184.557 160.515,184.261 160.971 C 183.966 161.427,183.600 163.593,183.448 165.784 C 183.281 168.198,182.959 170.011,182.631 170.384 C 182.291 170.770,182.027 172.374,181.922 174.683 C 181.799 177.407,181.579 178.560,181.078 179.114 C 180.560 179.686,180.400 180.616,180.400 183.047 C 180.400 185.441,180.202 186.620,179.600 187.800 C 178.994 188.989,178.800 190.159,178.800 192.631 C 178.800 195.227,178.645 196.089,178.042 196.856 C 177.446 197.614,177.253 198.645,177.142 201.669 C 177.033 204.631,176.839 205.696,176.300 206.290 C 175.753 206.894,175.597 207.798,175.586 210.431 C 175.576 212.920,175.371 214.218,174.800 215.400 C 172.988 219.152,174.032 224.424,176.107 222.000 C 176.500 221.541,177.287 221.200,177.953 221.200 C 178.592 221.200,179.209 220.953,179.325 220.651 C 179.441 220.348,180.206 219.975,181.026 219.822 C 181.845 219.668,182.772 219.285,183.086 218.971 C 183.400 218.657,184.353 218.289,185.204 218.153 C 186.054 218.017,186.846 217.657,186.963 217.353 C 187.079 217.049,187.722 216.800,188.391 216.800 C 189.113 216.800,189.887 216.474,190.293 216.000 C 190.670 215.560,191.456 215.200,192.040 215.200 C 192.624 215.200,193.329 214.926,193.607 214.592 C 193.885 214.257,194.891 213.787,195.844 213.547 C 196.796 213.307,197.783 212.861,198.037 212.556 C 198.290 212.250,199.106 212.000,199.849 212.000 C 200.737 212.000,201.200 211.809,201.200 211.443 C 201.200 210.808,202.049 210.400,203.371 210.400 C 203.869 210.400,204.602 210.040,205.000 209.600 C 205.430 209.125,206.232 208.800,206.973 208.800 C 207.727 208.800,208.494 208.483,208.907 208.000 C 209.288 207.555,210.087 207.200,210.707 207.200 C 211.327 207.200,212.126 206.845,212.507 206.400 C 212.884 205.960,213.651 205.600,214.213 205.600 C 214.774 205.600,215.620 205.240,216.092 204.800 C 216.580 204.345,217.504 204.000,218.233 204.000 C 218.981 204.000,219.607 203.760,219.736 203.422 C 219.858 203.104,220.597 202.724,221.379 202.578 L 222.800 202.311 222.800 199.887 C 222.800 198.163,222.603 197.245,222.117 196.709 C 221.602 196.139,221.396 195.005,221.274 192.077 C 221.167 189.513,220.922 187.984,220.550 187.561 C 220.192 187.156,219.894 185.475,219.733 182.961 C 219.593 180.782,219.300 178.883,219.082 178.741 C 218.577 178.411,218.055 175.257,218.024 172.349 C 218.009 170.947,217.791 169.925,217.447 169.639 C 217.074 169.329,216.841 167.965,216.731 165.432 C 216.622 162.942,216.371 161.447,215.983 160.980 C 215.605 160.524,215.317 158.903,215.164 156.357 C 215.015 153.882,214.720 152.186,214.364 151.757 C 214.007 151.327,213.712 149.621,213.561 147.100 C 213.394 144.327,213.152 143.017,212.761 142.776 C 212.358 142.528,212.161 141.324,212.063 138.515 C 211.960 135.580,211.760 134.414,211.263 133.859 C 210.769 133.307,210.564 132.137,210.458 129.273 C 210.348 126.279,210.171 125.321,209.658 124.946 C 209.143 124.570,208.970 123.611,208.863 120.533 C 208.761 117.628,208.557 116.411,208.080 115.877 C 207.610 115.351,207.391 114.104,207.274 111.277 C 207.158 108.487,206.935 107.199,206.479 106.683 C 206.030 106.176,205.796 104.887,205.678 102.283 C 205.559 99.669,205.325 98.390,204.873 97.877 C 204.412 97.355,204.190 96.078,204.074 93.277 C 203.967 90.713,203.722 89.184,203.350 88.761 C 202.992 88.356,202.694 86.675,202.533 84.161 C 202.393 81.982,202.100 80.083,201.882 79.941 C 201.373 79.609,200.854 76.450,200.824 73.500 C 200.800 71.232,200.636 70.927,199.750 71.506 M296.327 190.530 C 296.035 190.822,295.202 191.180,294.475 191.325 C 293.748 191.470,292.881 191.862,292.548 192.195 C 292.215 192.528,291.456 192.800,290.860 192.800 C 290.265 192.800,289.470 193.160,289.093 193.600 C 288.705 194.053,287.913 194.400,287.266 194.400 C 286.632 194.400,285.802 194.756,285.400 195.200 C 284.999 195.643,284.168 196.000,283.538 196.000 C 282.912 196.000,282.040 196.360,281.600 196.800 C 281.160 197.240,280.350 197.600,279.800 197.600 C 279.250 197.600,278.440 197.960,278.000 198.400 C 277.560 198.840,276.737 199.200,276.171 199.200 C 275.606 199.200,274.873 199.470,274.543 199.800 C 274.213 200.130,273.236 200.513,272.372 200.651 C 271.489 200.792,270.800 201.127,270.800 201.416 C 270.800 201.702,270.102 202.048,269.223 202.196 C 268.356 202.343,267.443 202.707,267.195 203.006 C 266.948 203.304,266.172 203.668,265.472 203.814 C 264.773 203.959,263.837 204.307,263.394 204.587 C 262.951 204.866,262.021 205.220,261.328 205.372 C 260.634 205.524,259.967 205.908,259.846 206.224 C 259.724 206.541,259.107 206.800,258.475 206.800 C 257.832 206.800,257.004 207.153,256.600 207.600 C 256.164 208.082,255.368 208.400,254.600 208.400 C 253.832 208.400,253.036 208.718,252.600 209.200 C 252.172 209.673,251.368 210.000,250.634 210.000 C 249.826 210.000,249.218 210.279,248.893 210.800 C 248.574 211.310,247.960 211.600,247.197 211.600 C 244.419 211.600,242.867 219.223,245.133 221.741 C 245.634 222.297,245.834 223.446,245.937 226.341 C 246.038 229.165,246.246 230.392,246.715 230.917 C 247.171 231.429,247.403 232.692,247.522 235.317 C 247.641 237.931,247.875 239.210,248.327 239.723 C 248.787 240.243,249.012 241.528,249.132 244.323 C 249.223 246.455,249.482 248.317,249.706 248.459 C 250.236 248.795,250.746 251.944,250.776 255.067 C 250.790 256.521,250.985 257.595,251.251 257.684 C 251.789 257.863,252.343 260.956,252.376 263.969 C 252.391 265.304,252.630 266.391,252.999 266.799 C 253.394 267.236,253.686 268.747,253.854 271.231 C 253.995 273.304,254.310 275.252,254.555 275.561 C 254.800 275.870,255.106 277.886,255.236 280.043 C 255.385 282.518,255.680 284.214,256.036 284.643 C 256.382 285.061,256.692 286.743,256.839 289.006 C 256.998 291.462,257.298 293.004,257.739 293.634 C 258.234 294.341,258.400 295.475,258.400 298.158 C 258.400 301.005,258.543 301.895,259.100 302.510 C 259.628 303.093,259.834 304.156,259.940 306.841 L 260.080 310.400 311.202 310.400 L 362.325 310.400 362.099 309.537 C 361.975 309.062,361.542 308.342,361.137 307.937 C 360.732 307.532,360.400 306.793,360.400 306.296 C 360.400 305.799,360.040 305.168,359.600 304.893 C 359.160 304.618,358.800 303.985,358.800 303.486 C 358.800 302.986,358.440 302.270,358.000 301.893 C 357.560 301.516,357.200 300.756,357.200 300.204 C 357.200 299.571,356.975 299.200,356.590 299.200 C 356.235 299.200,355.882 298.708,355.744 298.020 C 355.614 297.372,355.169 296.534,354.754 296.158 C 354.339 295.783,354.000 295.244,354.000 294.961 C 354.000 294.412,352.594 291.798,351.762 290.800 C 351.487 290.470,351.141 289.712,350.992 289.116 C 350.843 288.520,350.469 287.823,350.161 287.567 C 349.852 287.311,349.600 286.680,349.600 286.165 C 349.600 285.638,349.250 285.041,348.800 284.800 C 348.360 284.565,348.000 284.025,348.000 283.602 C 348.000 283.178,347.661 282.509,347.247 282.116 C 346.832 281.722,346.371 280.830,346.222 280.133 C 346.073 279.437,345.692 278.767,345.376 278.646 C 345.059 278.524,344.800 278.009,344.800 277.501 C 344.800 276.993,344.440 276.317,344.000 276.000 C 343.560 275.683,343.200 275.103,343.200 274.712 C 343.200 274.320,342.840 273.640,342.400 273.200 C 341.960 272.760,341.600 272.059,341.600 271.643 C 341.600 271.226,341.347 270.788,341.038 270.670 C 340.728 270.551,340.350 269.884,340.197 269.186 C 340.044 268.489,339.577 267.577,339.159 267.159 C 338.742 266.742,338.400 266.059,338.400 265.643 C 338.400 265.226,338.147 264.788,337.838 264.670 C 337.528 264.551,337.150 263.884,336.997 263.186 C 336.844 262.489,336.377 261.577,335.959 261.159 C 335.542 260.742,335.200 260.049,335.200 259.620 C 335.200 259.191,334.953 258.696,334.652 258.520 C 334.351 258.344,333.597 257.120,332.978 255.800 C 332.358 254.480,331.615 253.162,331.326 252.871 C 331.036 252.581,330.800 252.024,330.800 251.633 C 330.800 251.243,330.440 250.598,330.000 250.200 C 329.560 249.802,329.200 249.060,329.200 248.552 C 329.200 248.038,328.846 247.438,328.400 247.200 C 327.876 246.920,327.600 246.362,327.600 245.586 C 327.600 244.839,327.394 244.400,327.043 244.400 C 326.471 244.400,326.000 243.573,326.000 242.567 C 326.000 242.255,325.640 241.640,325.200 241.200 C 324.760 240.760,324.400 240.068,324.400 239.662 C 324.400 239.256,324.040 238.598,323.600 238.200 C 323.160 237.802,322.800 237.226,322.800 236.921 C 322.800 236.616,322.440 235.980,322.000 235.508 C 321.560 235.036,321.200 234.345,321.200 233.974 C 321.200 233.602,320.942 233.083,320.626 232.821 C 320.310 232.559,319.939 231.832,319.801 231.206 C 319.664 230.579,319.309 229.974,319.013 229.860 C 318.717 229.747,318.357 229.117,318.213 228.460 C 318.069 227.804,317.692 227.167,317.376 227.046 C 317.059 226.924,316.800 226.368,316.800 225.809 C 316.800 225.250,316.440 224.484,316.000 224.107 C 315.560 223.730,315.200 223.102,315.200 222.711 C 315.200 222.320,314.840 221.640,314.400 221.200 C 313.960 220.760,313.600 220.154,313.600 219.854 C 313.600 219.554,313.240 218.850,312.800 218.291 C 312.360 217.731,312.000 217.015,312.000 216.699 C 312.000 216.383,311.640 215.798,311.200 215.400 C 310.760 215.002,310.400 214.344,310.400 213.938 C 310.400 213.532,310.040 212.840,309.600 212.400 C 309.160 211.960,308.800 211.280,308.800 210.889 C 308.800 210.498,308.440 209.870,308.000 209.493 C 307.560 209.116,307.200 208.356,307.200 207.804 C 307.200 207.212,306.971 206.800,306.643 206.800 C 306.071 206.800,305.600 205.973,305.600 204.967 C 305.600 204.655,305.240 204.040,304.800 203.600 C 304.360 203.160,304.000 202.451,304.000 202.024 C 304.000 201.597,303.802 201.125,303.559 200.975 C 303.317 200.825,302.856 200.139,302.535 199.451 C 302.214 198.763,301.433 197.300,300.799 196.200 C 300.165 195.100,299.636 193.891,299.623 193.514 C 299.610 193.137,299.240 192.635,298.800 192.400 C 298.332 192.150,298.000 191.562,298.000 190.986 C 298.000 189.898,297.182 189.675,296.327 190.530 M223.800 221.600 C 223.402 222.040,222.637 222.400,222.101 222.400 C 221.565 222.400,220.669 222.760,220.109 223.200 C 219.550 223.640,218.691 224.000,218.200 224.000 C 217.709 224.000,216.850 224.360,216.291 224.800 C 215.731 225.240,214.761 225.600,214.133 225.600 C 213.426 225.600,212.803 225.904,212.493 226.400 C 212.184 226.895,211.560 227.200,210.859 227.200 C 210.232 227.200,209.400 227.558,209.000 228.000 C 208.570 228.475,207.768 228.800,207.027 228.800 C 206.273 228.800,205.506 229.117,205.093 229.600 C 204.700 230.059,203.913 230.400,203.247 230.400 C 202.603 230.400,201.987 230.658,201.864 230.978 C 201.742 231.296,200.962 231.683,200.131 231.839 C 199.300 231.995,198.378 232.365,198.082 232.661 C 197.786 232.957,196.847 233.311,195.996 233.447 C 195.146 233.583,194.358 233.933,194.246 234.225 C 194.134 234.517,193.409 234.875,192.635 235.020 C 191.862 235.165,191.030 235.523,190.787 235.816 C 190.544 236.109,189.772 236.473,189.072 236.625 C 188.373 236.778,187.445 237.149,187.011 237.451 C 186.577 237.753,185.812 238.000,185.311 238.000 C 184.810 238.000,184.040 238.360,183.600 238.800 C 183.160 239.240,182.300 239.600,181.689 239.600 C 181.073 239.600,180.273 239.956,179.893 240.400 C 179.516 240.840,178.801 241.201,178.304 241.203 C 177.807 241.204,176.860 241.563,176.200 242.000 C 175.540 242.437,174.511 242.796,173.914 242.797 C 173.239 242.799,172.666 243.103,172.400 243.600 C 172.126 244.111,171.562 244.400,170.838 244.400 C 169.710 244.400,169.702 244.418,169.424 247.599 C 169.271 249.358,168.918 251.025,168.639 251.304 C 168.349 251.594,168.019 253.417,167.866 255.576 C 167.706 257.830,167.358 259.710,166.999 260.257 C 166.616 260.842,166.399 262.152,166.398 263.886 C 166.395 266.714,165.804 269.600,165.228 269.600 C 165.044 269.600,164.821 271.388,164.733 273.572 C 164.617 276.462,164.400 277.743,163.936 278.272 C 163.478 278.794,163.242 280.126,163.101 282.967 C 162.950 286.011,162.753 287.045,162.252 287.411 C 161.733 287.791,161.600 288.622,161.600 291.490 C 161.600 294.420,161.459 295.272,160.842 296.056 C 160.243 296.817,160.054 297.846,159.942 300.943 C 159.827 304.109,159.665 304.964,159.100 305.377 C 158.577 305.759,158.400 306.457,158.400 308.144 L 158.400 310.400 200.000 310.400 L 241.600 310.400 241.600 307.731 C 241.600 305.785,241.417 304.860,240.922 304.314 C 240.421 303.760,240.201 302.607,240.078 299.883 C 239.959 297.269,239.725 295.990,239.273 295.477 C 238.812 294.955,238.590 293.678,238.474 290.877 C 238.368 288.339,238.121 286.782,237.757 286.369 C 237.417 285.983,237.099 284.275,236.938 281.969 C 236.793 279.896,236.433 277.827,236.138 277.371 C 235.843 276.915,235.484 274.845,235.340 272.771 C 235.196 270.697,234.900 268.883,234.682 268.741 C 234.179 268.413,233.655 265.261,233.624 262.380 C 233.611 261.159,233.375 259.935,233.100 259.660 C 232.805 259.365,232.503 257.529,232.363 255.181 C 232.191 252.292,231.945 251.002,231.463 250.470 C 230.963 249.917,230.800 248.957,230.800 246.563 C 230.800 244.152,230.607 243.029,230.000 241.896 C 229.370 240.720,229.200 239.639,229.200 236.801 C 229.200 234.821,229.049 233.200,228.864 233.200 C 228.108 233.200,227.600 230.959,227.600 227.624 C 227.600 224.908,227.466 224.034,227.022 223.864 C 226.704 223.742,226.324 223.003,226.178 222.221 C 225.870 220.581,224.942 220.338,223.800 221.600 M148.228 253.914 C 147.804 254.009,147.206 254.337,146.900 254.643 C 146.593 254.949,145.930 255.200,145.425 255.200 C 144.921 255.200,144.079 255.534,143.554 255.942 C 143.029 256.350,141.942 256.805,141.139 256.953 C 140.335 257.101,139.576 257.487,139.451 257.811 C 139.321 258.150,138.711 258.400,138.013 258.400 C 137.333 258.400,136.448 258.752,136.000 259.200 C 135.560 259.640,134.742 260.000,134.183 260.000 C 133.624 260.000,132.780 260.360,132.308 260.800 C 131.836 261.240,130.943 261.600,130.325 261.600 C 129.706 261.600,128.840 261.960,128.400 262.400 C 127.956 262.844,127.067 263.200,126.400 263.200 C 125.617 263.200,125.200 263.402,125.200 263.782 C 125.200 264.139,124.619 264.471,123.700 264.640 C 122.875 264.792,121.771 265.250,121.246 265.658 C 120.721 266.066,119.771 266.400,119.134 266.400 C 118.471 266.400,117.876 266.658,117.744 267.002 C 117.617 267.333,116.823 267.715,115.981 267.849 C 115.139 267.984,114.363 268.320,114.257 268.597 C 114.151 268.873,113.374 269.227,112.532 269.383 C 111.689 269.540,110.730 269.900,110.400 270.183 C 110.070 270.467,109.142 270.816,108.339 270.960 C 107.535 271.104,106.776 271.487,106.651 271.811 C 106.525 272.141,105.919 272.400,105.275 272.400 C 104.632 272.400,103.804 272.753,103.400 273.200 C 103.002 273.640,102.299 274.001,101.838 274.001 C 101.377 274.002,100.411 274.362,99.690 274.801 C 98.970 275.241,97.845 275.600,97.190 275.600 C 96.440 275.600,96.000 275.806,96.000 276.157 C 96.000 276.788,95.153 277.200,93.856 277.200 C 93.373 277.200,92.670 277.560,92.293 278.000 C 91.916 278.440,91.139 278.800,90.567 278.800 C 89.995 278.800,89.069 279.160,88.509 279.600 C 87.950 280.040,87.016 280.400,86.435 280.400 C 85.854 280.400,85.070 280.760,84.693 281.200 C 84.316 281.640,83.556 282.000,83.004 282.000 C 81.793 282.000,81.508 286.288,82.581 288.363 C 82.992 289.158,83.275 291.988,83.548 298.043 C 83.760 302.750,84.169 307.455,84.458 308.500 L 84.982 310.400 112.440 310.400 L 139.897 310.400 140.082 307.205 C 140.205 305.081,140.478 303.773,140.896 303.305 C 141.352 302.795,141.563 301.534,141.663 298.741 C 141.765 295.862,141.968 294.694,142.462 294.141 C 142.948 293.596,143.160 292.432,143.262 289.741 C 143.367 286.958,143.567 285.898,144.100 285.310 C 144.650 284.703,144.801 283.813,144.802 281.169 C 144.804 278.843,145.004 277.428,145.448 276.600 C 145.827 275.892,146.206 273.812,146.373 271.528 C 146.535 269.297,146.880 267.386,147.186 267.017 C 147.487 266.654,147.835 264.780,147.989 262.688 C 148.153 260.453,148.523 258.527,148.928 257.800 C 150.155 255.593,149.790 253.564,148.228 253.914 M62.945 290.600 C 62.807 290.959,62.204 291.200,61.446 291.200 C 60.673 291.200,59.910 291.512,59.493 292.000 C 59.105 292.453,58.313 292.800,57.666 292.800 C 57.032 292.800,56.202 293.156,55.800 293.600 C 55.372 294.073,54.568 294.400,53.834 294.400 C 53.026 294.400,52.418 294.679,52.093 295.200 C 51.774 295.710,51.160 296.000,50.397 296.000 C 49.733 296.000,48.843 296.357,48.400 296.800 C 47.960 297.240,47.142 297.600,46.583 297.600 C 46.024 297.600,45.180 297.960,44.708 298.400 C 44.236 298.840,43.613 299.200,43.325 299.200 C 43.018 299.200,42.800 299.661,42.800 300.311 C 42.800 300.927,42.444 301.727,42.000 302.107 C 41.560 302.484,41.200 303.238,41.200 303.782 C 41.200 304.362,40.869 304.949,40.400 305.200 C 39.933 305.450,39.600 306.038,39.600 306.611 C 39.600 307.160,39.247 307.813,38.800 308.093 C 38.360 308.368,38.000 308.999,38.000 309.496 L 38.000 310.400 52.200 310.400 C 67.001 310.400,66.894 310.414,65.902 308.674 C 65.570 308.091,65.337 305.055,65.202 299.561 C 65.051 293.407,64.861 291.155,64.451 290.661 C 63.769 289.840,63.245 289.818,62.945 290.600 M38.700 329.212 C 39.195 329.411,39.600 329.850,39.600 330.187 C 39.600 330.524,39.876 330.800,40.213 330.800 C 40.549 330.800,40.939 331.115,41.078 331.500 C 41.216 331.885,41.570 332.470,41.863 332.800 C 43.303 334.421,44.400 335.960,44.400 336.358 C 44.400 336.601,44.676 336.800,45.013 336.800 C 45.349 336.800,45.732 337.079,45.863 337.420 C 45.994 337.761,46.753 338.745,47.550 339.607 C 49.746 341.981,50.165 342.478,50.600 343.227 C 51.118 344.117,53.598 347.113,54.500 347.938 C 54.885 348.290,55.200 348.808,55.200 349.089 C 55.200 349.370,55.476 349.600,55.813 349.600 C 56.149 349.600,56.543 349.915,56.686 350.300 C 56.830 350.685,57.274 351.235,57.674 351.523 C 58.073 351.810,58.400 352.304,58.400 352.619 C 58.400 352.935,58.760 353.418,59.200 353.693 C 59.640 353.968,60.000 354.509,60.000 354.896 C 60.000 355.283,60.276 355.600,60.613 355.600 C 60.949 355.600,61.332 355.878,61.463 356.219 C 61.593 356.559,62.353 357.522,63.150 358.359 C 65.202 360.512,67.312 363.118,67.913 364.241 C 68.195 364.768,68.588 365.200,68.786 365.200 C 68.984 365.200,69.260 365.560,69.400 366.000 C 69.540 366.440,69.899 366.800,70.198 366.800 C 70.497 366.800,70.824 367.115,70.924 367.500 C 71.044 367.957,71.123 367.839,71.154 367.161 C 71.179 366.590,70.933 365.588,70.607 364.933 C 70.169 364.057,69.949 361.593,69.769 355.572 C 69.598 349.844,69.356 347.020,68.958 346.130 C 68.565 345.249,68.312 342.403,68.132 336.830 L 67.873 328.800 52.837 328.825 C 43.449 328.841,38.138 328.987,38.700 329.212 M86.682 336.300 C 86.815 340.763,87.083 344.022,87.342 344.348 C 87.606 344.679,87.887 348.327,88.052 353.548 C 88.252 359.860,88.493 362.633,88.945 363.800 C 89.388 364.943,89.570 366.901,89.582 370.655 L 89.600 375.909 91.367 376.174 C 92.339 376.320,93.351 376.700,93.616 377.020 C 93.980 377.458,95.102 377.600,98.189 377.600 C 102.152 377.600,104.800 378.096,104.800 378.839 C 104.800 379.038,106.920 379.200,109.511 379.200 C 113.278 379.200,114.414 379.335,115.183 379.873 C 115.895 380.372,117.288 380.592,120.572 380.722 C 123.201 380.827,125.439 381.122,126.080 381.449 C 126.674 381.752,127.240 382.000,127.336 382.000 C 127.433 382.000,127.580 380.666,127.662 379.035 C 127.768 376.944,128.016 375.845,128.506 375.304 C 129.055 374.698,129.200 373.796,129.200 371.000 C 129.200 368.268,129.351 367.296,129.863 366.730 C 130.343 366.200,130.592 364.910,130.763 362.060 C 130.913 359.571,131.208 357.872,131.564 357.443 C 131.922 357.012,132.215 355.313,132.364 352.802 C 132.503 350.467,132.805 348.634,133.100 348.340 C 133.375 348.065,133.611 346.841,133.624 345.620 C 133.655 342.739,134.179 339.587,134.682 339.259 C 134.900 339.117,135.196 337.303,135.340 335.229 C 135.497 332.960,135.840 331.093,136.201 330.543 C 136.530 330.040,136.800 329.442,136.800 329.214 C 136.800 328.933,128.713 328.800,111.628 328.800 L 86.457 328.800 86.682 336.300 M263.821 329.623 C 264.407 330.271,264.601 331.265,264.734 334.316 C 264.858 337.147,265.065 338.306,265.504 338.627 C 265.940 338.946,266.161 340.150,266.311 343.033 C 266.431 345.354,266.741 347.344,267.058 347.829 C 267.355 348.285,267.716 350.355,267.860 352.429 C 268.004 354.503,268.300 356.317,268.518 356.459 C 269.021 356.787,269.545 359.939,269.576 362.820 C 269.589 364.041,269.825 365.265,270.100 365.540 C 270.394 365.834,270.696 367.655,270.833 369.957 C 270.994 372.658,271.273 374.170,271.733 374.826 C 272.217 375.517,272.400 376.633,272.400 378.889 C 272.400 382.129,272.959 382.882,274.339 381.500 C 274.653 381.185,276.576 380.920,279.531 380.784 C 283.048 380.622,284.470 380.397,285.201 379.884 C 285.989 379.333,287.092 379.200,290.889 379.200 C 293.480 379.200,295.600 379.038,295.600 378.839 C 295.600 378.101,298.238 377.600,302.128 377.600 C 305.311 377.600,306.289 377.462,306.875 376.932 C 307.299 376.548,308.544 376.188,309.806 376.083 L 312.000 375.901 312.000 373.695 C 312.000 372.055,311.820 371.357,311.300 370.977 C 310.730 370.560,310.574 369.701,310.460 366.345 C 310.348 363.047,310.168 362.031,309.560 361.258 C 308.943 360.473,308.800 359.624,308.800 356.732 C 308.800 354.047,308.632 352.915,308.116 352.128 C 307.628 351.384,307.386 349.980,307.272 347.242 C 307.156 344.456,306.936 343.200,306.469 342.672 C 305.995 342.136,305.784 340.872,305.667 337.872 C 305.557 335.071,305.344 333.705,304.982 333.496 C 304.693 333.329,304.333 332.204,304.182 330.996 L 303.908 328.800 283.492 328.800 L 263.076 328.800 263.821 329.623 M322.648 329.900 C 322.792 330.505,323.110 331.252,323.355 331.561 C 323.600 331.870,323.912 333.850,324.049 335.961 C 324.201 338.305,324.551 340.267,324.947 341.000 C 325.406 341.850,325.596 343.242,325.598 345.769 C 325.599 348.604,325.744 349.496,326.300 350.110 C 326.845 350.712,327.031 351.775,327.140 354.926 C 327.250 358.110,327.421 359.073,327.940 359.453 C 328.449 359.825,328.653 360.879,328.833 364.068 C 328.961 366.340,329.096 367.885,329.133 367.500 C 329.170 367.115,329.476 366.800,329.813 366.800 C 330.149 366.800,330.530 366.527,330.658 366.194 C 330.786 365.861,331.422 365.019,332.071 364.324 C 332.721 363.629,333.504 362.573,333.811 361.978 C 334.119 361.384,334.647 360.791,334.985 360.661 C 335.323 360.531,335.600 360.245,335.600 360.026 C 335.600 359.806,336.195 359.032,336.922 358.304 C 337.649 357.577,338.364 356.671,338.510 356.291 C 338.656 355.911,339.051 355.600,339.387 355.600 C 339.724 355.600,340.000 355.403,340.000 355.163 C 340.000 354.624,341.320 352.854,343.300 350.739 C 344.125 349.858,344.800 348.977,344.800 348.782 C 344.800 348.588,345.160 348.235,345.600 348.000 C 346.040 347.765,346.400 347.308,346.400 346.986 C 346.400 346.664,346.556 346.400,346.746 346.400 C 346.937 346.400,347.745 345.545,348.542 344.500 C 350.382 342.086,352.196 339.940,354.100 337.925 C 354.925 337.051,355.600 336.254,355.600 336.154 C 355.600 335.777,359.757 330.800,360.072 330.800 C 360.252 330.800,360.400 330.524,360.400 330.187 C 360.400 329.850,360.805 329.411,361.300 329.212 C 361.856 328.989,354.584 328.841,342.292 328.825 L 322.385 328.800 322.648 329.900 " stroke="#000000" fill="none" stroke-width="3" class="aBUAoTeg_0"></path><path id="path1" d="" stroke="#000000" fill="none" stroke-width="3" class="aBUAoTeg_1"></path></g><style data-made-with="vivus-instant">.aBUAoTeg_0{stroke-dasharray:2959 2961;stroke-dashoffset:2960;animation:aBUAoTeg_draw_0 4500ms linear 0ms infinite,aBUAoTeg_fade 4500ms linear 0ms infinite;}.aBUAoTeg_1{stroke-dasharray:0 2;stroke-dashoffset:1;animation:aBUAoTeg_draw_1 4500ms linear 0ms infinite,aBUAoTeg_fade 4500ms linear 0ms infinite;}@keyframes aBUAoTeg_draw{100%{stroke-dashoffset:0;}}@keyframes aBUAoTeg_fade{0%{stroke-opacity:1;}91.11111111111111%{stroke-opacity:1;}100%{stroke-opacity:0;}}@keyframes aBUAoTeg_draw_0{6.666666666666667%{stroke-dashoffset: 2960}73.33333333333333%{ stroke-dashoffset: 0;}100%{ stroke-dashoffset: 0;}}@keyframes aBUAoTeg_draw_1{6.666666666666667%{stroke-dashoffset: 1}73.33333333333333%{ stroke-dashoffset: 0;}100%{ stroke-dashoffset: 0;}}</style></svg>