<svg id="svg" version="1.1" width="400" height="400" xmlns="http://www.w3.org/2000/svg" xmlns:xlink="http://www.w3.org/1999/xlink" style=""><g id="svgg"><path id="path0" d="M99.519 51.053 C 85.087 55.971,81.467 61.781,73.177 93.324 C 69.922 105.709,66.966 116.955,66.607 118.317 L 65.956 120.792 47.126 120.792 C 34.473 120.792,27.823 121.036,26.854 121.535 C 20.647 124.731,16.498 137.203,19.521 143.575 C 21.084 146.868,22.775 147.782,36.130 152.550 C 42.422 154.796,47.710 156.861,47.882 157.139 C 48.054 157.418,43.158 162.135,37.001 167.623 C 16.124 186.234,18.482 174.144,18.482 262.595 L 18.482 335.042 20.627 338.619 C 22.073 341.030,23.832 342.850,26.021 344.201 L 29.269 346.205 51.485 346.205 L 73.701 346.205 76.932 344.207 C 78.933 342.970,80.924 340.980,82.161 338.980 L 84.158 335.751 84.352 316.390 L 84.545 297.030 200.028 297.030 L 315.512 297.030 315.512 316.036 L 315.512 335.042 317.657 338.619 C 319.102 341.030,320.862 342.850,323.051 344.201 L 326.299 346.205 348.515 346.205 L 370.731 346.205 373.962 344.207 C 375.964 342.969,377.952 340.981,379.190 338.978 L 381.188 335.747 381.362 262.971 C 381.574 174.111,383.915 186.269,362.999 167.623 C 356.842 162.135,351.946 157.418,352.118 157.139 C 352.290 156.861,357.578 154.796,363.870 152.550 C 382.453 145.915,384.733 142.630,379.521 129.992 C 375.661 120.631,376.128 120.792,352.864 120.792 L 334.044 120.792 333.389 118.317 C 333.029 116.955,330.070 105.704,326.814 93.314 C 319.444 65.266,317.375 60.983,308.244 54.886 C 299.537 49.072,308.257 49.503,199.765 49.522 L 103.960 49.539 99.519 51.053 M281.188 84.071 C 287.642 87.513,287.957 88.298,295.944 120.781 L 302.763 148.515 296.971 148.515 L 291.179 148.515 290.101 143.668 C 287.476 131.870,287.887 132.018,257.756 132.018 C 227.624 132.018,228.036 131.870,225.411 143.668 L 224.332 148.515 200.000 148.515 L 175.668 148.515 174.589 143.668 C 171.964 131.870,172.376 132.018,142.244 132.018 C 112.113 132.018,112.524 131.870,109.899 143.668 L 108.821 148.515 103.026 148.515 L 97.231 148.515 104.047 120.787 C 112.614 85.934,113.200 84.734,122.442 83.117 C 129.440 81.893,278.787 82.790,281.188 84.071 M83.156 185.503 C 111.792 189.376,112.620 189.640,115.797 195.909 C 117.269 198.815,117.921 208.249,116.870 211.434 L 116.069 213.861 109.685 213.836 C 85.729 213.742,62.187 212.089,59.108 210.285 C 53.360 206.916,50.956 200.260,51.640 189.605 C 52.203 180.831,50.372 181.069,83.156 185.503 M346.861 183.495 C 349.633 186.557,348.748 200.982,345.486 205.911 C 341.495 211.942,329.384 213.682,290.344 213.836 L 283.989 213.861 283.153 211.844 C 281.919 208.864,282.693 198.899,284.423 195.508 C 287.416 189.641,288.280 189.369,316.172 185.532 C 343.451 181.779,345.204 181.663,346.861 183.495 M242.574 199.537 C 245.954 201.057,249.730 204.737,251.072 207.820 C 251.902 209.725,265.347 262.342,265.347 263.684 C 265.347 263.872,235.941 264.026,200.000 264.026 C 156.070 264.026,134.653 263.806,134.653 263.354 C 134.653 261.608,148.027 209.496,148.941 207.681 C 151.378 202.839,155.720 199.593,160.992 198.671 C 167.805 197.480,239.697 198.243,242.574 199.537 M80.443 248.254 C 83.909 249.462,85.103 254.171,82.583 256.691 C 81.340 257.934,64.469 262.374,58.003 263.160 C 51.198 263.987,48.586 251.277,54.989 248.493 C 57.629 247.345,77.305 247.160,80.443 248.254 M344.867 248.465 C 348.736 250.082,349.721 258.860,346.405 262.176 C 344.696 263.885,342.637 263.673,328.803 260.363 C 316.559 257.434,314.554 255.809,316.600 250.476 C 317.720 247.558,339.063 246.040,344.867 248.465 " stroke="#000000" fill="none" stroke-width="3" class="FNkOWkJt_0"></path></g><style data-made-with="vivus-instant">.FNkOWkJt_0{stroke-dasharray:2803 2805;stroke-dashoffset:2804;animation:FNkOWkJt_draw_0 4500ms linear 0ms infinite,FNkOWkJt_fade 4500ms linear 0ms infinite;}@keyframes FNkOWkJt_draw{100%{stroke-dashoffset:0;}}@keyframes FNkOWkJt_fade{0%{stroke-opacity:1;}91.11111111111111%{stroke-opacity:1;}100%{stroke-opacity:0;}}@keyframes FNkOWkJt_draw_0{6.666666666666667%{stroke-dashoffset: 2804}73.33333333333333%{ stroke-dashoffset: 0;}100%{ stroke-dashoffset: 0;}}</style></svg>
