<svg id="svg" version="1.1" width="400" height="400" xmlns="http://www.w3.org/2000/svg" xmlns:xlink="http://www.w3.org/1999/xlink" style=""><g id="svgg"><path id="path0" d="M67.057 34.704 C 53.931 40.014,47.762 126.828,57.380 170.891 L 58.752 177.174 56.474 179.954 C 46.937 191.592,42.151 207.574,40.726 232.539 C 39.089 261.216,32.354 275.462,13.343 290.458 C 4.747 297.239,4.984 296.072,5.745 327.900 C 6.438 356.907,6.555 357.453,12.967 361.775 C 21.262 367.367,38.664 367.966,42.727 362.800 C 47.462 356.781,42.050 347.883,32.645 346.222 L 30.233 345.795 29.812 341.345 C 27.844 320.511,32.038 311.979,46.300 307.804 C 55.486 305.116,60.483 301.349,82.137 280.794 C 99.649 264.171,105.196 260.776,114.858 260.771 C 121.837 260.768,122.592 261.032,133.890 267.425 C 145.489 273.989,150.404 275.151,169.282 275.793 C 177.730 276.080,186.895 276.684,189.649 277.135 C 194.647 277.953,217.088 277.690,224.797 276.723 L 228.225 276.293 228.614 271.869 C 228.828 269.436,229.203 263.754,229.447 259.241 C 229.691 254.729,230.001 251.147,230.136 251.282 C 231.589 252.736,235.026 277.610,237.074 301.503 C 238.838 322.088,239.379 325.215,242.161 330.943 C 244.183 335.107,244.535 336.633,245.085 343.631 C 246.467 361.195,251.313 365.949,267.823 365.940 C 279.906 365.932,285.147 362.252,285.139 353.778 C 285.134 347.899,281.422 344.502,274.288 343.848 C 267.149 343.194,267.245 343.396,266.767 327.880 C 266.094 305.965,267.396 262.437,268.905 256.427 L 270.162 251.419 270.993 261.930 C 272.094 275.872,271.773 275.419,276.949 270.339 C 293.037 254.552,302.774 226.059,304.316 190.263 L 304.591 183.866 297.037 180.729 C 284.896 175.688,283.779 175.000,277.424 168.649 C 264.216 155.450,263.916 141.307,276.168 109.298 C 279.305 101.101,279.559 101.404,277.523 110.917 C 272.765 133.155,271.923 151.469,275.338 158.423 C 279.947 167.810,296.969 175.074,312.714 174.373 C 318.153 174.131,322.189 165.125,324.588 147.875 C 325.780 139.307,323.562 127.340,316.926 106.534 C 315.641 102.506,314.650 99.161,314.724 99.101 C 316.119 97.956,331.399 134.476,332.575 141.768 C 333.344 146.532,333.478 146.787,335.804 147.906 C 344.729 152.200,351.865 152.199,356.594 147.903 C 358.081 146.553,359.108 146.356,365.972 146.111 C 383.076 145.498,392.288 136.337,394.900 117.344 L 395.247 114.822 392.104 115.239 C 385.492 116.117,381.314 106.146,385.126 98.588 C 386.378 96.104,386.327 96.065,376.960 92.153 C 367.990 88.407,366.170 86.932,361.219 79.390 C 355.198 70.219,344.187 65.252,324.337 62.754 C 302.491 60.004,293.896 63.843,279.456 82.805 C 276.722 86.395,268.014 95.670,259.393 104.174 C 251.016 112.437,241.299 122.204,237.801 125.876 C 227.189 137.017,224.683 139.239,219.927 141.721 C 210.678 146.548,198.972 149.114,182.638 149.894 C 151.053 151.403,95.014 159.631,81.808 164.698 C 80.200 165.315,75.597 146.805,74.092 133.668 C 72.837 122.705,73.580 102.806,75.767 88.830 C 78.007 74.516,78.051 47.684,75.845 40.822 C 73.994 35.065,71.117 33.062,67.057 34.704 M356.279 88.873 C 356.692 90.174,356.340 93.517,355.486 96.408 C 354.784 98.788,344.574 96.197,344.574 93.640 C 344.574 89.737,355.182 85.417,356.279 88.873 M389.364 99.923 C 387.005 102.923,388.014 109.953,390.968 111.086 C 395.048 112.652,398.274 109.526,397.850 104.418 C 397.354 98.440,392.538 95.889,389.364 99.923 M106.252 271.134 C 102.907 272.717,99.954 275.134,92.563 282.344 C 83.512 291.171,76.210 297.381,64.194 306.471 L 58.605 310.699 59.060 317.453 C 59.805 328.539,60.818 336.789,61.653 338.564 C 63.470 342.431,79.367 345.051,84.597 342.346 C 92.036 338.499,90.790 328.291,82.352 323.957 C 80.456 322.983,79.190 317.456,79.591 311.909 C 79.990 306.390,81.383 305.091,93.155 299.259 C 105.888 292.952,107.590 291.613,110.436 285.664 C 112.281 281.807,115.526 271.506,115.526 269.505 C 115.526 268.389,110.003 269.360,106.252 271.134 M279.922 278.297 L 273.806 285.476 273.798 311.018 C 273.790 335.269,273.851 336.561,275.004 336.561 C 280.618 336.561,288.042 341.544,288.912 345.897 C 289.425 348.461,291.443 348.376,296.194 345.591 C 305.151 340.342,300.711 329.450,288.568 326.879 L 286.319 326.403 286.586 298.761 C 286.733 283.558,286.670 271.119,286.446 271.119 C 286.221 271.119,283.286 274.349,279.922 278.297 " stroke="#000000" fill="none" stroke-width="3" class="QlpYiykU_0"></path></g><style data-made-with="vivus-instant">.QlpYiykU_0{stroke-dasharray:2470 2472;stroke-dashoffset:2471;animation:QlpYiykU_draw_0 4500ms linear 0ms infinite,QlpYiykU_fade 4500ms linear 0ms infinite;}@keyframes QlpYiykU_draw{100%{stroke-dashoffset:0;}}@keyframes QlpYiykU_fade{0%{stroke-opacity:1;}91.11111111111111%{stroke-opacity:1;}100%{stroke-opacity:0;}}@keyframes QlpYiykU_draw_0{6.666666666666667%{stroke-dashoffset: 2471}73.33333333333333%{ stroke-dashoffset: 0;}100%{ stroke-dashoffset: 0;}}</style></svg>
