<svg id="svg" version="1.1" width="400" height="400" xmlns="http://www.w3.org/2000/svg" xmlns:xlink="http://www.w3.org/1999/xlink" style=""><g id="svgg"><path id="path0" d="M136.250 90.875 L 136.250 106.000 121.125 106.000 L 106.000 106.000 106.000 204.500 L 106.000 303.000 121.123 303.000 L 136.246 303.000 136.311 318.188 L 136.375 333.375 151.563 333.439 L 166.750 333.504 166.750 318.250 L 166.750 302.996 181.813 303.061 L 196.875 303.125 196.939 318.313 L 197.004 333.500 212.127 333.500 L 227.250 333.500 227.250 317.630 L 227.250 301.760 227.813 301.641 C 228.122 301.575,230.625 301.286,233.375 300.998 C 240.320 300.270,243.865 299.192,252.884 295.068 C 271.825 286.407,283.247 272.638,285.918 255.250 C 290.074 228.195,274.693 203.557,249.250 196.515 C 247.669 196.078,246.232 195.673,246.057 195.616 C 245.882 195.558,247.457 194.635,249.557 193.564 C 266.240 185.054,274.419 173.786,275.464 157.875 C 276.767 138.006,269.835 122.658,256.500 115.887 C 247.877 111.509,242.496 109.793,232.438 108.215 L 227.250 107.401 227.250 91.576 L 227.250 75.750 212.125 75.750 L 197.000 75.750 197.000 90.875 L 197.000 106.000 181.875 106.000 L 166.750 106.000 166.750 90.875 L 166.750 75.750 151.500 75.750 L 136.250 75.750 136.250 90.875 M203.545 136.774 C 204.517 136.925,205.934 137.262,206.695 137.524 C 207.456 137.786,208.493 138.000,208.999 138.000 C 210.779 138.000,213.869 139.018,217.646 140.850 C 224.547 144.195,225.517 145.195,227.570 151.069 L 228.375 153.375 228.356 159.000 C 228.319 170.049,225.567 174.352,215.649 178.872 C 209.627 181.616,210.215 181.571,178.813 181.679 L 151.500 181.773 151.500 159.136 L 151.500 136.500 176.640 136.500 C 193.627 136.500,202.352 136.589,203.545 136.774 M211.175 212.637 C 218.902 213.649,227.081 216.523,232.510 220.131 C 239.200 224.579,242.524 232.960,242.176 244.500 C 241.786 257.443,237.239 263.874,225.043 268.733 C 214.716 272.847,216.051 272.731,178.813 272.742 L 151.500 272.750 151.500 242.500 L 151.500 212.250 179.862 212.250 C 204.013 212.250,208.662 212.307,211.175 212.637 " stroke="#000000" fill="none" stroke-width="3" class="ZiAbkmNj_0"></path></g><style data-made-with="vivus-instant">.ZiAbkmNj_0{stroke-dasharray:1477 1479;stroke-dashoffset:1478;animation:ZiAbkmNj_draw_0 4500ms linear 0ms infinite,ZiAbkmNj_fade 4500ms linear 0ms infinite;}@keyframes ZiAbkmNj_draw{100%{stroke-dashoffset:0;}}@keyframes ZiAbkmNj_fade{0%{stroke-opacity:1;}91.11111111111111%{stroke-opacity:1;}100%{stroke-opacity:0;}}@keyframes ZiAbkmNj_draw_0{6.666666666666667%{stroke-dashoffset: 1478}73.33333333333333%{ stroke-dashoffset: 0;}100%{ stroke-dashoffset: 0;}}</style></svg>