<svg id="svg" version="1.1" width="400" height="400" xmlns="http://www.w3.org/2000/svg" xmlns:xlink="http://www.w3.org/1999/xlink" style=""><g id="svgg"><path id="path0" d="M125.000 71.826 L 51.894 114.068 51.894 200.000 L 51.894 285.932 125.000 328.174 C 165.208 351.407,198.617 370.413,199.242 370.410 C 199.867 370.406,233.277 351.393,273.485 328.158 L 346.591 285.912 346.591 199.989 L 346.591 114.066 273.485 71.831 C 233.277 48.601,199.867 29.593,199.242 29.590 C 198.617 29.587,165.208 48.593,125.000 71.826 M266.766 83.890 L 333.333 122.325 333.333 200.000 L 333.333 277.674 266.751 316.110 C 230.131 337.249,199.961 354.545,199.706 354.545 C 199.451 354.545,199.242 342.658,199.242 328.129 L 199.242 301.712 243.157 276.424 L 287.071 251.136 287.071 200.000 L 287.071 148.864 243.725 123.892 C 219.885 110.158,199.867 98.921,199.242 98.921 C 198.617 98.920,178.741 110.101,155.072 123.767 C 128.245 139.256,111.593 148.444,110.857 148.162 C 106.721 146.575,65.986 122.348,66.533 121.800 C 67.868 120.465,198.137 45.491,199.152 45.473 C 199.728 45.463,230.154 62.750,266.766 83.890 M134.173 162.953 L 155.303 175.148 155.313 200.263 L 155.324 225.379 177.094 237.931 L 198.864 250.482 199.063 275.554 L 199.263 300.626 155.697 275.502 L 112.131 250.379 112.126 200.568 C 112.123 173.172,112.328 150.758,112.582 150.758 C 112.835 150.758,122.551 156.245,134.173 162.953 M221.167 163.041 L 242.424 175.324 242.424 200.005 L 242.424 224.686 221.491 236.775 C 209.978 243.424,200.262 248.977,199.901 249.116 C 199.536 249.256,199.242 238.218,199.242 224.399 L 199.242 199.430 178.404 187.421 C 166.942 180.816,157.659 175.130,157.774 174.785 C 158.034 174.003,197.772 150.908,199.008 150.821 C 199.503 150.786,209.475 156.285,221.167 163.041 " stroke="#000000" fill="none" stroke-width="3" class="TZdIhaNo_0"></path></g><style data-made-with="vivus-instant">.TZdIhaNo_0{stroke-dasharray:2845 2847;stroke-dashoffset:2846;animation:TZdIhaNo_draw_0 4500ms linear 0ms infinite,TZdIhaNo_fade 4500ms linear 0ms infinite;}@keyframes TZdIhaNo_draw{100%{stroke-dashoffset:0;}}@keyframes TZdIhaNo_fade{0%{stroke-opacity:1;}91.11111111111111%{stroke-opacity:1;}100%{stroke-opacity:0;}}@keyframes TZdIhaNo_draw_0{6.666666666666667%{stroke-dashoffset: 2846}73.33333333333333%{ stroke-dashoffset: 0;}100%{ stroke-dashoffset: 0;}}</style></svg>
