<svg id="svg" version="1.1" width="400" height="400" xmlns="http://www.w3.org/2000/svg" xmlns:xlink="http://www.w3.org/1999/xlink" style=""><g id="svgg"><path id="path0" d="M88.960 5.448 C 68.608 10.921,59.524 34.693,70.999 52.448 C 77.250 62.120,89.714 67.816,100.692 66.019 C 102.756 65.681,104.652 65.403,104.906 65.401 C 105.227 65.398,147.544 135.609,150.885 141.689 C 151.012 141.919,149.329 143.385,147.145 144.946 C 139.537 150.383,132.801 157.792,128.545 165.402 L 126.301 169.414 116.325 164.809 L 106.349 160.204 106.015 155.133 C 104.132 126.585,63.318 124.900,58.395 153.168 C 54.032 178.220,86.710 190.973,102.230 170.275 L 103.810 168.169 111.429 171.758 C 115.619 173.732,119.934 175.719,121.017 176.173 L 122.986 176.999 121.797 181.674 C 115.914 204.810,122.168 227.738,139.006 244.762 L 143.402 249.206 124.025 272.698 C 113.367 285.619,103.993 297.015,103.193 298.022 L 101.739 299.854 97.931 297.503 C 79.891 286.369,54.794 293.502,45.487 312.410 C 29.433 345.022,63.479 378.892,95.875 362.539 C 115.092 352.838,121.978 327.714,110.350 309.722 C 108.198 306.393,107.982 305.739,108.699 304.716 C 109.153 304.069,118.667 292.425,129.841 278.841 L 150.159 254.143 155.556 256.837 C 171.948 265.020,189.201 266.276,206.564 260.548 C 209.302 259.645,211.769 259.152,212.048 259.453 C 212.327 259.754,223.295 274.506,236.422 292.236 L 260.288 324.472 257.985 327.474 C 235.804 356.381,275.136 392.927,302.478 368.816 C 327.530 346.723,302.041 305.186,271.100 317.683 C 268.854 318.591,266.831 319.126,266.606 318.873 C 266.381 318.620,256.262 304.984,244.119 288.571 C 231.977 272.159,221.371 257.850,220.551 256.774 L 219.061 254.818 223.484 251.796 C 235.611 243.510,245.978 228.101,249.254 213.492 C 249.822 210.960,250.538 208.889,250.845 208.889 C 251.849 208.889,274.549 211.431,276.667 211.780 C 278.432 212.072,278.730 212.382,278.730 213.930 C 278.730 227.688,294.627 244.662,310.320 247.661 C 349.184 255.089,374.691 207.982,346.988 179.942 C 324.678 157.360,285.052 168.739,279.275 199.387 L 278.492 203.536 266.072 202.119 C 259.240 201.339,253.048 200.686,252.311 200.668 C 251.050 200.637,250.950 200.213,250.624 193.492 C 249.895 178.470,243.732 164.517,232.836 153.216 C 230.417 150.708,228.539 148.404,228.663 148.097 C 229.049 147.145,269.905 87.654,270.372 87.366 C 270.615 87.216,272.371 87.497,274.275 87.991 C 304.193 95.751,325.504 58.705,303.664 36.902 C 276.081 9.366,233.406 50.176,259.699 78.945 C 261.436 80.845,262.857 82.555,262.857 82.744 C 262.857 82.932,253.555 96.671,242.186 113.275 L 221.515 143.462 218.853 141.780 C 203.281 131.938,177.941 129.895,161.441 137.149 L 158.755 138.330 151.844 126.784 C 129.712 89.810,113.619 62.752,113.486 62.294 C 113.402 62.006,114.793 60.612,116.576 59.196 C 141.944 39.058,120.339 -2.991,88.960 5.448 " stroke="#000000" fill="none" stroke-width="3" class="IZNlBUvb_0"></path></g><style data-made-with="vivus-instant">.IZNlBUvb_0{stroke-dasharray:2243 2245;stroke-dashoffset:2244;animation:IZNlBUvb_draw_0 4500ms linear 0ms infinite,IZNlBUvb_fade 4500ms linear 0ms infinite;}@keyframes IZNlBUvb_draw{100%{stroke-dashoffset:0;}}@keyframes IZNlBUvb_fade{0%{stroke-opacity:1;}91.11111111111111%{stroke-opacity:1;}100%{stroke-opacity:0;}}@keyframes IZNlBUvb_draw_0{6.666666666666667%{stroke-dashoffset: 2244}73.33333333333333%{ stroke-dashoffset: 0;}100%{ stroke-dashoffset: 0;}}</style></svg>
