<svg id="svg" version="1.1" width="400" height="400" xmlns="http://www.w3.org/2000/svg" xmlns:xlink="http://www.w3.org/1999/xlink" style=""><g id="svgg"><path id="path0" d="M48.933 70.267 L 46.667 72.533 46.667 92.000 L 46.667 111.467 48.933 113.733 C 50.930 115.730,51.613 116.000,54.667 116.000 C 57.720 116.000,58.403 115.730,60.400 113.733 L 62.667 111.467 62.667 97.733 L 62.667 84.000 204.667 84.000 L 346.667 84.000 346.667 109.366 C 346.667 138.435,346.184 135.983,353.284 142.982 L 358.000 147.631 358.000 225.963 L 358.000 304.295 354.188 308.147 L 350.375 312.000 206.442 312.000 L 62.509 312.000 60.231 310.000 C 56.813 306.999,52.090 307.110,48.933 310.267 C 45.477 313.723,45.477 322.277,48.933 325.733 L 51.200 328.000 204.737 328.000 L 358.275 328.000 366.471 319.804 L 374.667 311.608 374.667 226.047 L 374.667 140.487 368.667 134.369 L 362.667 128.250 362.667 100.392 L 362.667 72.533 360.400 70.267 L 358.133 68.000 204.667 68.000 L 51.200 68.000 48.933 70.267 M163.000 114.693 C 122.944 124.310,127.379 179.811,168.366 181.832 C 182.635 182.536,199.308 174.277,205.797 163.292 L 206.872 161.473 209.326 164.570 C 234.483 196.320,282.961 181.242,277.386 143.402 C 272.567 110.690,229.007 103.796,209.055 132.588 L 207.188 135.282 204.383 131.472 C 194.862 118.540,177.053 111.319,163.000 114.693 M16.116 121.543 C 14.682 123.070,14.667 123.340,14.667 147.907 L 14.667 172.727 16.303 174.364 L 17.939 176.000 52.667 176.000 L 87.394 176.000 89.030 174.364 L 90.667 172.727 90.667 148.000 L 90.667 123.273 89.030 121.636 L 87.394 120.000 52.480 120.000 L 17.566 120.000 16.116 121.543 M176.333 127.574 C 181.213 128.880,185.931 131.468,189.846 134.988 C 193.808 138.550,200.225 147.742,199.553 148.893 C 189.872 165.466,172.807 173.506,160.361 167.356 C 137.224 155.923,151.295 120.876,176.333 127.574 M252.413 128.964 C 266.009 135.135,269.423 152.746,258.989 162.880 C 246.557 174.953,225.758 169.216,216.102 151.051 L 214.711 148.436 216.838 144.385 C 224.236 130.290,240.144 123.395,252.413 128.964 M238.000 140.333 L 238.000 144.000 234.333 144.000 L 230.667 144.000 230.667 148.000 L 230.667 152.000 234.333 152.000 L 238.000 152.000 238.000 155.333 L 238.000 158.667 242.000 158.667 L 246.000 158.667 246.000 155.333 L 246.000 152.000 249.333 152.000 L 252.667 152.000 252.667 148.000 L 252.667 144.000 249.333 144.000 L 246.000 144.000 246.000 140.333 L 246.000 136.667 242.000 136.667 L 238.000 136.667 238.000 140.333 M161.333 148.333 L 161.333 152.000 172.000 152.000 L 182.667 152.000 182.667 148.333 L 182.667 144.667 172.000 144.667 L 161.333 144.667 161.333 148.333 M48.933 182.267 L 46.667 184.533 46.667 218.000 L 46.667 251.467 48.933 253.733 C 50.930 255.730,51.613 256.000,54.667 256.000 C 57.720 256.000,58.403 255.730,60.400 253.733 L 62.667 251.467 62.667 218.000 L 62.667 184.533 60.400 182.267 C 58.403 180.270,57.720 180.000,54.667 180.000 C 51.613 180.000,50.930 180.270,48.933 182.267 M175.467 220.800 C 175.027 221.240,174.667 223.040,174.667 224.800 L 174.667 228.000 178.667 228.000 L 182.667 228.000 182.667 224.800 C 182.667 220.972,181.856 220.000,178.667 220.000 C 177.347 220.000,175.907 220.360,175.467 220.800 M187.467 220.800 C 187.027 221.240,186.667 223.040,186.667 224.800 L 186.667 228.000 190.667 228.000 L 194.667 228.000 194.667 224.800 C 194.667 220.972,193.856 220.000,190.667 220.000 C 189.347 220.000,187.907 220.360,187.467 220.800 M199.467 220.800 C 199.027 221.240,198.667 223.040,198.667 224.800 L 198.667 228.000 202.667 228.000 L 206.667 228.000 206.667 224.800 C 206.667 220.972,205.856 220.000,202.667 220.000 C 201.347 220.000,199.907 220.360,199.467 220.800 M211.467 220.800 C 211.027 221.240,210.667 223.040,210.667 224.800 L 210.667 228.000 214.667 228.000 L 218.667 228.000 218.667 224.800 C 218.667 220.972,217.856 220.000,214.667 220.000 C 213.347 220.000,211.907 220.360,211.467 220.800 M223.467 220.800 C 223.027 221.240,222.667 223.040,222.667 224.800 L 222.667 228.000 226.667 228.000 L 230.667 228.000 230.667 224.800 C 230.667 220.972,229.856 220.000,226.667 220.000 C 225.347 220.000,223.907 220.360,223.467 220.800 M235.467 220.800 C 235.027 221.240,234.667 223.040,234.667 224.800 L 234.667 228.000 238.667 228.000 L 242.667 228.000 242.667 224.800 C 242.667 220.972,241.856 220.000,238.667 220.000 C 237.347 220.000,235.907 220.360,235.467 220.800 M247.467 220.800 C 247.027 221.240,246.667 223.040,246.667 224.800 L 246.667 228.000 250.667 228.000 L 254.667 228.000 254.667 224.800 C 254.667 220.972,253.856 220.000,250.667 220.000 C 249.347 220.000,247.907 220.360,247.467 220.800 M259.467 220.800 C 259.027 221.240,258.667 223.040,258.667 224.800 L 258.667 228.000 262.667 228.000 L 266.667 228.000 266.667 224.800 C 266.667 220.972,265.856 220.000,262.667 220.000 C 261.347 220.000,259.907 220.360,259.467 220.800 M271.467 220.800 C 271.027 221.240,270.667 223.040,270.667 224.800 L 270.667 228.000 274.667 228.000 L 278.667 228.000 278.667 224.800 C 278.667 220.972,277.856 220.000,274.667 220.000 C 273.347 220.000,271.907 220.360,271.467 220.800 M283.467 220.800 C 283.027 221.240,282.667 223.040,282.667 224.800 L 282.667 228.000 286.667 228.000 L 290.667 228.000 290.667 224.800 C 290.667 220.972,289.856 220.000,286.667 220.000 C 285.347 220.000,283.907 220.360,283.467 220.800 M295.467 220.800 C 295.027 221.240,294.667 223.040,294.667 224.800 L 294.667 228.000 298.667 228.000 L 302.667 228.000 302.667 224.800 C 302.667 220.972,301.856 220.000,298.667 220.000 C 297.347 220.000,295.907 220.360,295.467 220.800 M307.467 220.800 C 307.027 221.240,306.667 223.040,306.667 224.800 L 306.667 228.000 310.667 228.000 L 314.667 228.000 314.667 224.800 C 314.667 220.972,313.856 220.000,310.667 220.000 C 309.347 220.000,307.907 220.360,307.467 220.800 M319.467 220.800 C 319.027 221.240,318.667 223.040,318.667 224.800 L 318.667 228.000 322.667 228.000 L 326.667 228.000 326.667 224.800 C 326.667 220.972,325.856 220.000,322.667 220.000 C 321.347 220.000,319.907 220.360,319.467 220.800 M331.467 220.800 C 331.027 221.240,330.667 223.040,330.667 224.800 L 330.667 228.000 334.667 228.000 L 338.667 228.000 338.667 224.800 C 338.667 220.972,337.856 220.000,334.667 220.000 C 333.347 220.000,331.907 220.360,331.467 220.800 M167.467 232.800 C 166.329 233.938,166.329 266.062,167.467 267.200 C 168.629 268.362,344.704 268.362,345.867 267.200 C 347.004 266.062,347.004 233.938,345.867 232.800 C 344.704 231.638,168.629 231.638,167.467 232.800 M342.667 250.000 C 342.667 257.953,342.549 258.162,338.981 256.537 C 334.298 254.403,334.144 246.145,338.740 243.597 C 342.403 241.567,342.667 241.996,342.667 250.000 M36.116 261.543 C 34.699 263.052,34.667 263.501,34.667 281.907 L 34.667 300.727 36.303 302.364 L 37.939 304.000 68.667 304.000 L 99.394 304.000 101.030 302.364 L 102.667 300.727 102.667 282.000 L 102.667 263.273 101.030 261.636 L 99.394 260.000 68.480 260.000 L 37.566 260.000 36.116 261.543 M174.667 275.200 C 174.667 279.028,175.477 280.000,178.667 280.000 C 181.856 280.000,182.667 279.028,182.667 275.200 L 182.667 272.000 178.667 272.000 L 174.667 272.000 174.667 275.200 M186.667 275.200 C 186.667 279.028,187.477 280.000,190.667 280.000 C 193.856 280.000,194.667 279.028,194.667 275.200 L 194.667 272.000 190.667 272.000 L 186.667 272.000 186.667 275.200 M198.667 275.200 C 198.667 279.028,199.477 280.000,202.667 280.000 C 205.856 280.000,206.667 279.028,206.667 275.200 L 206.667 272.000 202.667 272.000 L 198.667 272.000 198.667 275.200 M210.667 275.200 C 210.667 279.028,211.477 280.000,214.667 280.000 C 217.856 280.000,218.667 279.028,218.667 275.200 L 218.667 272.000 214.667 272.000 L 210.667 272.000 210.667 275.200 M222.667 275.200 C 222.667 279.028,223.477 280.000,226.667 280.000 C 229.856 280.000,230.667 279.028,230.667 275.200 L 230.667 272.000 226.667 272.000 L 222.667 272.000 222.667 275.200 M234.667 275.200 C 234.667 279.028,235.477 280.000,238.667 280.000 C 241.856 280.000,242.667 279.028,242.667 275.200 L 242.667 272.000 238.667 272.000 L 234.667 272.000 234.667 275.200 M246.667 275.200 C 246.667 279.028,247.477 280.000,250.667 280.000 C 253.856 280.000,254.667 279.028,254.667 275.200 L 254.667 272.000 250.667 272.000 L 246.667 272.000 246.667 275.200 M258.667 275.200 C 258.667 279.028,259.477 280.000,262.667 280.000 C 265.856 280.000,266.667 279.028,266.667 275.200 L 266.667 272.000 262.667 272.000 L 258.667 272.000 258.667 275.200 M270.667 275.200 C 270.667 279.028,271.477 280.000,274.667 280.000 C 277.856 280.000,278.667 279.028,278.667 275.200 L 278.667 272.000 274.667 272.000 L 270.667 272.000 270.667 275.200 M282.667 275.200 C 282.667 279.028,283.477 280.000,286.667 280.000 C 289.856 280.000,290.667 279.028,290.667 275.200 L 290.667 272.000 286.667 272.000 L 282.667 272.000 282.667 275.200 M294.667 275.200 C 294.667 279.028,295.477 280.000,298.667 280.000 C 301.856 280.000,302.667 279.028,302.667 275.200 L 302.667 272.000 298.667 272.000 L 294.667 272.000 294.667 275.200 M306.667 275.200 C 306.667 279.028,307.477 280.000,310.667 280.000 C 313.856 280.000,314.667 279.028,314.667 275.200 L 314.667 272.000 310.667 272.000 L 306.667 272.000 306.667 275.200 M318.667 275.200 C 318.667 279.028,319.477 280.000,322.667 280.000 C 325.856 280.000,326.667 279.028,326.667 275.200 L 326.667 272.000 322.667 272.000 L 318.667 272.000 318.667 275.200 M330.667 275.200 C 330.667 279.028,331.477 280.000,334.667 280.000 C 337.856 280.000,338.667 279.028,338.667 275.200 L 338.667 272.000 334.667 272.000 L 330.667 272.000 330.667 275.200 " stroke="#000000" fill="none" stroke-width="3" class="GRFcSqqx_0"></path></g><style data-made-with="vivus-instant">.GRFcSqqx_0{stroke-dasharray:4574 4576;stroke-dashoffset:4575;animation:GRFcSqqx_draw_0 4500ms linear 0ms infinite,GRFcSqqx_fade 4500ms linear 0ms infinite;}@keyframes GRFcSqqx_draw{100%{stroke-dashoffset:0;}}@keyframes GRFcSqqx_fade{0%{stroke-opacity:1;}91.11111111111111%{stroke-opacity:1;}100%{stroke-opacity:0;}}@keyframes GRFcSqqx_draw_0{6.666666666666667%{stroke-dashoffset: 4575}73.33333333333333%{ stroke-dashoffset: 0;}100%{ stroke-dashoffset: 0;}}</style></svg>
