<svg id="svg" version="1.1" width="400" height="400" xmlns="http://www.w3.org/2000/svg" xmlns:xlink="http://www.w3.org/1999/xlink" style=""><g id="svgg"><path id="path0" d="M191.274 58.639 L 191.274 67.016 193.717 67.016 L 196.161 67.016 196.161 78.534 L 196.161 90.052 132.433 90.052 C 63.252 90.052,64.162 90.006,57.512 93.902 C 50.793 97.839,45.379 105.518,43.984 113.089 C 42.971 118.586,43.356 368.728,44.378 369.069 C 44.790 369.206,64.246 354.389,87.613 336.142 L 130.100 302.967 230.018 302.967 C 346.114 302.967,339.180 303.441,348.342 294.871 C 357.874 285.955,357.524 289.936,357.277 193.368 L 357.068 111.344 355.387 107.155 C 353.063 101.368,346.102 94.406,340.314 92.083 L 336.126 90.401 269.983 90.210 L 203.839 90.018 203.839 78.517 L 203.839 67.016 206.283 67.016 L 208.726 67.016 208.726 58.639 L 208.726 50.262 200.000 50.262 L 191.274 50.262 191.274 58.639 M11.867 180.454 L 11.867 198.255 20.942 198.255 L 30.017 198.255 30.017 180.454 L 30.017 162.653 20.942 162.653 L 11.867 162.653 11.867 180.454 M370.681 180.454 L 370.681 198.255 379.756 198.255 L 388.831 198.255 388.831 180.454 L 388.831 162.653 379.756 162.653 L 370.681 162.653 370.681 180.454 M158.464 193.019 L 158.464 222.688 145.899 222.688 L 133.333 222.688 133.333 193.019 L 133.333 163.351 145.899 163.351 L 158.464 163.351 158.464 193.019 M267.365 193.019 L 267.365 222.688 255.148 222.688 L 242.932 222.688 242.932 193.019 L 242.932 163.351 255.148 163.351 L 267.365 163.351 267.365 193.019 " stroke="#000000" fill="none" stroke-width="3" class="lTrHroxj_0"></path></g><style data-made-with="vivus-instant">.lTrHroxj_0{stroke-dasharray:1756 1758;stroke-dashoffset:1757;animation:lTrHroxj_draw_0 4500ms linear 0ms infinite,lTrHroxj_fade 4500ms linear 0ms infinite;}@keyframes lTrHroxj_draw{100%{stroke-dashoffset:0;}}@keyframes lTrHroxj_fade{0%{stroke-opacity:1;}91.11111111111111%{stroke-opacity:1;}100%{stroke-opacity:0;}}@keyframes lTrHroxj_draw_0{6.666666666666667%{stroke-dashoffset: 1757}73.33333333333333%{ stroke-dashoffset: 0;}100%{ stroke-dashoffset: 0;}}</style></svg>
