<svg id="svg" version="1.1" width="400" height="400" xmlns="http://www.w3.org/2000/svg" xmlns:xlink="http://www.w3.org/1999/xlink" style=""><g id="svgg"><path id="path0" d="M97.010 101.105 C 93.922 101.971,7.188 188.236,5.259 192.359 C 3.587 195.933,3.587 202.738,5.259 206.312 C 7.398 210.884,93.951 296.587,97.419 297.567 C 111.106 301.432,122.698 289.839,118.828 276.157 C 118.163 273.808,112.840 268.190,81.134 236.379 L 44.213 199.336 81.134 162.292 C 112.840 130.481,118.163 124.863,118.828 122.514 C 122.726 108.735,110.962 97.190,97.010 101.105 M289.364 101.895 C 283.105 104.809,279.725 110.151,279.749 117.088 C 279.775 124.677,279.168 123.951,318.462 163.289 L 354.469 199.336 318.462 235.382 C 279.168 274.720,279.775 273.994,279.749 281.583 C 279.706 293.703,292.051 301.875,302.990 296.968 C 307.469 294.960,391.497 211.026,393.749 206.312 C 395.764 202.094,395.852 196.868,393.978 192.691 C 391.970 188.212,308.036 104.184,303.322 101.932 C 298.897 99.819,293.851 99.805,289.364 101.895 M186.116 130.559 C 113.714 146.888,110.720 247.770,182.060 267.230 C 190.363 269.495,209.622 269.500,217.895 267.240 C 286.647 248.453,287.389 152.139,218.937 131.818 C 211.464 129.600,193.435 128.908,186.116 130.559 " stroke="#000000" fill="none" stroke-width="3" class="BpBFZcQZ_0"></path></g><style data-made-with="vivus-instant">.BpBFZcQZ_0{stroke-dasharray:1566 1568;stroke-dashoffset:1567;animation:BpBFZcQZ_draw_0 4500ms linear 0ms infinite,BpBFZcQZ_fade 4500ms linear 0ms infinite;}@keyframes BpBFZcQZ_draw{100%{stroke-dashoffset:0;}}@keyframes BpBFZcQZ_fade{0%{stroke-opacity:1;}91.11111111111111%{stroke-opacity:1;}100%{stroke-opacity:0;}}@keyframes BpBFZcQZ_draw_0{6.666666666666667%{stroke-dashoffset: 1567}73.33333333333333%{ stroke-dashoffset: 0;}100%{ stroke-dashoffset: 0;}}</style></svg>