<svg id="svg" version="1.1" width="400" height="400" xmlns="http://www.w3.org/2000/svg" xmlns:xlink="http://www.w3.org/1999/xlink" style=""><g id="svgg"><path id="path0" d="M64.484 4.650 C 40.962 7.209,28.145 12.347,29.712 18.589 C 30.860 23.166,32.053 23.503,46.700 23.395 C 71.842 23.210,87.579 28.923,100.936 43.082 C 115.886 58.929,114.835 77.362,97.590 101.804 C 89.863 112.756,89.356 114.383,91.329 121.897 C 91.835 123.823,89.526 127.293,37.631 202.619 C 5.494 249.265,7.196 246.602,6.747 250.948 C 5.433 263.682,32.784 283.663,43.731 277.967 C 46.517 276.518,47.095 275.738,70.207 242.226 C 139.737 141.409,132.916 150.681,137.616 150.602 C 138.888 150.581,140.827 149.234,144.490 145.826 C 156.038 135.081,165.979 129.951,176.759 129.172 C 184.602 128.605,185.619 129.052,197.545 138.298 C 203.489 142.906,204.659 141.867,223.156 115.568 L 239.111 92.883 238.795 89.591 C 238.358 85.038,236.687 83.573,229.593 81.522 C 216.149 77.635,208.807 72.053,197.715 57.283 C 190.055 47.084,186.482 43.609,177.414 37.543 C 139.514 12.186,100.272 0.756,64.484 4.650 M256.228 86.860 C 252.996 87.509,210.212 149.509,209.644 154.365 C 208.827 161.363,223.811 169.079,230.568 165.139 C 232.552 163.982,240.247 153.845,252.806 135.843 C 273.930 105.563,274.675 104.205,273.086 98.900 C 271.199 92.602,261.638 85.774,256.228 86.860 M129.905 221.855 C 122.479 225.245,121.768 228.169,121.768 255.319 C 121.768 280.118,121.979 281.653,125.961 285.787 C 130.139 290.125,128.573 290.009,183.306 290.006 L 232.733 290.004 236.128 288.423 C 238.479 287.328,240.089 285.986,241.365 284.058 L 243.208 281.274 243.208 255.260 L 243.208 229.245 241.244 226.465 C 237.102 220.601,240.876 220.970,183.306 220.794 C 135.062 220.646,132.439 220.698,129.905 221.855 M280.477 221.855 C 273.051 225.245,272.340 228.169,272.340 255.319 C 272.340 280.118,272.552 281.653,276.534 285.787 C 280.712 290.125,279.146 290.009,333.879 290.006 L 383.306 290.004 386.701 288.423 C 389.052 287.328,390.662 285.986,391.938 284.058 L 393.781 281.274 393.781 255.260 L 393.781 229.245 391.817 226.465 C 387.674 220.601,391.449 220.970,333.879 220.794 C 285.635 220.646,283.011 220.698,280.477 221.855 M52.040 320.697 C 44.439 324.150,43.871 326.472,43.866 354.098 C 43.862 382.044,44.834 385.497,53.431 388.066 C 56.990 389.129,152.217 389.225,156.020 388.169 C 164.922 385.697,165.720 382.714,165.491 352.756 L 165.303 328.098 163.339 325.310 C 162.259 323.777,160.076 321.837,158.490 321.000 L 155.604 319.476 105.134 319.491 C 57.732 319.504,54.505 319.577,52.040 320.697 M197.054 320.348 C 193.559 321.982,191.816 323.641,190.211 326.861 L 188.543 330.208 188.558 354.138 C 188.575 382.915,189.371 385.730,198.182 388.177 C 201.591 389.123,297.263 389.123,300.673 388.177 C 309.485 385.729,310.282 382.910,310.282 354.173 C 310.282 325.584,309.817 323.713,301.891 320.402 C 298.929 319.164,199.695 319.113,197.054 320.348 " stroke="#000000" fill="none" stroke-width="3" class="XkRIjBLp_0"></path></g><style data-made-with="vivus-instant">.XkRIjBLp_0{stroke-dasharray:2559 2561;stroke-dashoffset:2560;animation:XkRIjBLp_draw_0 7200ms linear 0ms infinite,XkRIjBLp_fade 7200ms linear 0ms infinite;}@keyframes XkRIjBLp_draw{100%{stroke-dashoffset:0;}}@keyframes XkRIjBLp_fade{0%{stroke-opacity:1;}94.44444444444444%{stroke-opacity:1;}100%{stroke-opacity:0;}}@keyframes XkRIjBLp_draw_0{11.11111111111111%{stroke-dashoffset: 2560}52.77777777777778%{ stroke-dashoffset: 0;}100%{ stroke-dashoffset: 0;}}</style></svg>
