<svg id="svg" version="1.1" width="400" height="400" viewBox="0 0 400 400" xmlns="http://www.w3.org/2000/svg" xmlns:xlink="http://www.w3.org/1999/xlink" style=""><g id="svgg"><path id="path0" d="M11.398 0.702 C 11.104 0.869,10.083 1.281,9.129 1.617 C 5.566 2.873,2.287 6.509,0.790 10.864 C -0.099 13.451,-0.342 133.108,0.535 136.531 C 1.966 142.117,6.293 146.815,10.775 147.649 C 11.509 147.786,12.110 148.004,12.110 148.135 C 12.110 148.265,12.752 148.310,13.535 148.236 L 14.960 148.100 14.966 245.644 C 14.973 350.205,14.900 345.865,16.694 349.294 C 18.233 352.238,20.285 353.842,24.180 355.146 C 27.378 356.216,45.301 356.162,48.723 355.071 C 54.277 353.302,57.951 349.776,58.624 345.570 C 58.755 344.750,58.962 344.078,59.084 344.078 C 59.206 344.079,59.262 336.705,59.209 327.694 L 59.113 311.309 200.171 311.309 L 341.229 311.309 341.229 325.378 C 341.229 336.394,341.132 339.449,340.784 339.453 C 340.454 339.457,340.464 339.538,340.819 339.764 C 341.156 339.977,341.263 340.661,341.175 342.040 C 341.107 343.125,341.171 343.937,341.318 343.846 C 341.465 343.755,341.590 343.970,341.596 344.324 C 341.652 347.485,346.642 352.750,350.817 354.053 C 352.106 354.455,353.653 354.940,354.255 355.130 C 356.487 355.837,370.863 355.557,373.880 354.748 C 379.232 353.314,382.339 350.321,383.848 345.147 C 384.162 344.069,384.499 342.947,384.597 342.654 C 384.903 341.737,384.900 342.510,384.971 244.217 L 385.040 148.097 386.287 148.242 C 386.972 148.322,387.533 148.281,387.533 148.150 C 387.533 148.019,388.098 147.820,388.788 147.708 C 393.681 146.914,398.425 141.762,399.635 135.929 C 399.895 134.673,399.983 115.085,399.917 73.019 L 399.822 11.932 398.683 9.521 C 396.585 5.076,394.564 3.102,390.357 1.391 L 387.819 0.358 199.876 0.378 C 96.507 0.390,11.692 0.535,11.398 0.702 M45.236 15.059 C 45.236 15.309,44.785 15.910,44.233 16.394 C 43.239 17.268,29.256 30.688,19.862 39.785 C 17.170 42.391,14.806 44.524,14.608 44.524 C 14.034 44.524,14.119 15.071,14.693 14.840 C 15.800 14.393,45.236 14.604,45.236 15.059 M163.262 14.879 C 163.356 15.030,136.862 41.770,104.387 74.302 L 45.342 133.449 33.535 133.536 C 24.735 133.601,21.728 133.518,21.728 133.209 C 21.728 132.911,20.666 132.828,17.987 132.915 L 14.247 133.037 14.247 118.457 L 14.248 103.877 16.474 101.742 C 17.698 100.567,24.951 93.424,32.592 85.867 C 58.834 59.915,96.353 22.889,100.605 18.748 L 104.862 14.604 133.977 14.604 C 149.991 14.604,163.169 14.728,163.262 14.879 M281.745 15.058 C 281.745 15.309,255.148 42.001,222.639 74.376 L 163.534 133.239 134.151 133.221 C 114.304 133.209,104.695 133.322,104.541 133.571 C 104.416 133.773,104.140 133.831,103.927 133.700 C 103.705 133.562,115.765 121.315,132.358 104.830 C 148.208 89.084,175.042 62.341,191.991 45.402 L 222.806 14.604 252.276 14.604 C 275.941 14.604,281.745 14.693,281.745 15.058 M385.314 22.384 L 385.411 29.986 351.804 63.702 C 333.321 82.245,310.197 105.480,300.417 115.335 L 282.636 133.252 252.837 133.226 C 229.654 133.205,223.006 133.296,222.894 133.635 C 222.804 133.903,222.664 133.934,222.529 133.714 C 222.408 133.519,249.019 106.638,281.665 73.979 L 341.021 14.598 363.120 14.690 L 385.218 14.782 385.314 22.384 M385.396 111.576 L 385.396 133.393 363.314 133.393 L 341.231 133.393 363.045 111.576 C 375.043 99.577,384.981 89.760,385.128 89.760 C 385.276 89.760,385.396 99.577,385.396 111.576 M340.873 185.396 L 340.873 222.618 200.000 222.618 L 59.127 222.618 59.127 185.396 L 59.127 148.175 200.000 148.175 L 340.873 148.175 340.873 185.396 M161.968 237.518 C 161.751 237.779,160.351 238.981,158.855 240.190 C 157.360 241.398,153.528 244.550,150.339 247.195 C 147.150 249.840,144.016 252.404,143.373 252.894 C 142.731 253.384,138.241 257.070,133.396 261.086 C 128.551 265.102,124.158 268.709,123.634 269.101 C 123.110 269.492,120.844 271.345,118.598 273.217 C 116.352 275.089,113.143 277.734,111.467 279.094 C 104.807 284.498,92.699 294.437,91.219 295.715 L 89.651 297.069 74.478 296.976 L 59.305 296.883 59.209 289.517 L 59.113 282.150 60.506 281.146 C 62.549 279.673,68.893 274.842,69.101 274.601 C 69.199 274.487,70.226 273.684,71.383 272.816 C 72.540 271.948,74.636 270.356,76.040 269.279 C 77.445 268.201,79.784 266.409,81.238 265.296 C 82.692 264.183,85.565 261.979,87.622 260.398 C 89.679 258.818,93.835 255.641,96.857 253.339 C 104.213 247.736,106.486 245.997,110.024 243.268 C 111.669 241.999,114.170 240.080,115.582 239.003 L 118.149 237.044 140.255 237.044 C 158.626 237.044,162.295 237.124,161.968 237.518 M340.457 237.211 C 340.392 237.401,338.335 239.173,335.886 241.148 C 333.437 243.124,327.127 248.218,321.864 252.468 C 316.600 256.718,311.768 260.597,311.126 261.086 C 310.483 261.576,308.779 262.945,307.338 264.128 C 305.898 265.311,300.953 269.311,296.349 273.017 C 283.545 283.324,277.788 287.972,271.950 292.716 L 266.607 297.058 244.634 297.060 C 232.548 297.061,222.576 296.925,222.473 296.758 C 222.275 296.439,222.505 296.247,233.838 287.256 C 237.756 284.148,245.690 277.837,251.469 273.233 C 257.248 268.628,265.022 262.436,268.744 259.472 C 272.467 256.508,280.288 250.279,286.126 245.630 L 296.739 237.175 305.218 237.428 C 311.440 237.613,313.764 237.572,313.949 237.273 C 314.274 236.747,340.638 236.685,340.457 237.211 M74.800 237.532 C 74.800 237.702,72.610 239.906,69.934 242.429 C 67.257 244.952,63.851 248.178,62.365 249.596 C 60.878 251.015,59.541 252.177,59.394 252.179 C 59.248 252.180,59.127 248.816,59.127 244.702 L 59.127 237.222 66.963 237.222 C 71.273 237.222,74.800 237.361,74.800 237.532 M251.113 237.540 C 251.113 237.850,249.597 239.118,238.513 248.077 C 235.599 250.433,231.340 253.882,229.047 255.744 C 224.774 259.213,218.207 264.538,209.279 271.772 C 198.376 280.608,193.776 284.337,189.671 287.668 C 187.320 289.576,183.747 292.470,181.732 294.099 L 178.068 297.061 155.107 297.061 C 142.478 297.061,132.146 296.930,132.146 296.769 C 132.146 296.533,142.154 288.477,147.271 284.595 C 147.916 284.105,150.484 282.102,152.978 280.142 C 155.472 278.183,158.034 276.180,158.673 275.690 C 160.863 274.009,163.673 271.813,166.734 269.390 C 170.641 266.298,181.716 257.625,183.251 256.456 C 184.881 255.214,186.595 253.876,190.776 250.579 C 192.764 249.012,196.038 246.447,198.053 244.880 C 200.067 243.313,203.082 240.948,204.752 239.626 L 207.789 237.222 229.451 237.222 C 241.946 237.222,251.113 237.357,251.113 237.540 M340.547 274.176 C 340.531 278.045,340.557 284.737,340.606 289.047 L 340.695 296.883 325.824 296.976 C 314.074 297.050,310.953 296.975,310.953 296.622 C 310.953 296.133,339.791 267.142,340.278 267.142 C 340.442 267.142,340.563 270.307,340.547 274.176 " stroke="#040404" fill="none" stroke-width="3" class="XYzSwCDD_0"></path><path id="path1" d="M7.281 1.592 C 6.847 1.920,6.765 2.119,7.060 2.126 C 7.319 2.132,7.771 1.897,8.065 1.603 C 8.752 0.916,8.185 0.908,7.281 1.592 M392.007 1.592 C 392.387 1.879,392.858 2.114,393.054 2.114 C 393.250 2.114,393.099 1.879,392.719 1.592 C 392.339 1.304,391.867 1.069,391.672 1.069 C 391.476 1.069,391.626 1.304,392.007 1.592 M393.628 2.365 C 393.862 2.955,396.794 5.450,396.794 5.060 C 396.794 4.858,396.273 4.276,395.637 3.766 C 395.000 3.256,394.256 2.654,393.984 2.427 C 393.712 2.201,393.551 2.173,393.628 2.365 M3.919 4.095 C 3.460 4.584,3.163 5.063,3.260 5.160 C 3.357 5.256,3.895 4.856,4.456 4.271 C 5.017 3.685,5.314 3.206,5.115 3.206 C 4.917 3.206,4.379 3.606,3.919 4.095 M1.586 7.157 C 1.272 7.763,1.093 8.336,1.188 8.430 C 1.282 8.525,1.465 8.270,1.594 7.863 C 1.723 7.456,1.961 7.124,2.123 7.124 C 2.285 7.124,2.509 6.883,2.622 6.589 C 3.007 5.587,2.157 6.052,1.586 7.157 M397.968 7.259 C 398.400 7.921,398.805 8.417,398.869 8.361 C 399.086 8.168,397.845 6.055,397.514 6.055 C 397.332 6.055,397.537 6.597,397.968 7.259 M41.305 18.179 C 39.501 19.981,38.262 21.316,38.553 21.146 C 39.596 20.535,44.994 15.312,44.791 15.109 C 44.678 14.995,43.109 16.377,41.305 18.179 M209.617 28.139 C 202.567 35.191,196.987 40.962,197.219 40.962 C 197.451 40.962,203.060 35.535,209.684 28.903 C 222.808 15.763,223.238 15.316,222.760 15.316 C 222.582 15.316,216.668 21.086,209.617 28.139 M268.029 28.251 C 260.978 35.336,255.667 40.734,256.227 40.246 C 258.362 38.384,281.126 15.647,280.990 15.511 C 280.912 15.433,275.079 21.165,268.029 28.251 M281.567 74.507 C 249.047 107.063,222.760 133.470,223.152 133.191 C 224.530 132.211,341.237 15.316,340.838 15.316 C 340.759 15.316,314.087 41.952,281.567 74.507 M384.684 22.407 L 384.684 29.499 374.659 39.513 C 369.146 45.020,364.747 49.638,364.884 49.775 C 365.021 49.912,369.609 45.461,375.081 39.883 L 385.029 29.742 385.035 22.529 C 385.038 18.562,384.960 15.316,384.862 15.316 C 384.764 15.316,384.684 18.507,384.684 22.407 M87.542 32.046 C 81.415 38.113,76.579 43.081,76.794 43.088 C 77.009 43.094,78.612 41.641,80.356 39.860 C 82.100 38.078,84.127 36.049,84.860 35.351 C 85.594 34.654,88.720 31.527,91.806 28.404 C 94.892 25.282,97.817 22.341,98.304 21.871 C 98.792 21.400,99.076 21.015,98.936 21.015 C 98.796 21.015,93.668 25.979,87.542 32.046 M32.385 26.636 C 28.090 30.994,27.372 32.141,31.374 28.252 C 33.023 26.649,34.813 24.994,35.352 24.575 C 36.283 23.851,36.641 23.140,36.064 23.163 C 35.917 23.169,34.262 24.731,32.385 26.636 M21.549 37.177 C 16.809 41.962,17.528 41.540,22.841 36.419 C 24.727 34.601,26.170 33.057,26.047 32.988 C 25.924 32.918,23.900 34.804,21.549 37.177 M57.525 61.676 C 51.350 67.780,46.381 72.857,46.483 72.959 C 46.585 73.061,51.750 68.067,57.961 61.862 C 64.172 55.656,69.141 50.579,69.003 50.579 C 68.865 50.579,63.700 55.573,57.525 61.676 M196.824 99.025 C 178.034 117.830,162.728 133.283,162.810 133.365 C 162.892 133.448,178.427 118.062,197.330 99.174 C 216.234 80.287,231.541 64.834,231.345 64.834 C 231.149 64.834,215.615 80.220,196.824 99.025 M314.311 100.303 C 296.179 118.444,281.446 133.390,281.573 133.517 C 281.699 133.643,291.498 123.970,303.347 112.020 C 315.197 100.071,330.017 85.125,336.282 78.807 C 342.546 72.489,347.583 67.320,347.475 67.320 C 347.367 67.320,332.443 82.162,314.311 100.303 M166.162 71.666 C 164.203 73.650,163.161 74.801,163.847 74.223 C 165.918 72.478,170.274 68.008,169.868 68.045 C 169.789 68.052,168.121 69.682,166.162 71.666 M133.040 104.541 C 116.982 120.508,104.034 133.571,104.267 133.571 C 104.501 133.571,117.747 120.508,133.704 104.541 C 149.661 88.575,162.609 75.512,162.477 75.512 C 162.344 75.512,149.098 88.575,133.040 104.541 M27.605 91.198 C 21.532 97.254,16.710 102.213,16.889 102.218 C 17.275 102.228,37.972 81.676,38.493 80.766 C 38.689 80.423,38.804 80.152,38.748 80.164 C 38.692 80.176,33.678 85.141,27.605 91.198 M384.851 111.843 C 384.851 123.695,384.896 128.544,384.951 122.618 C 385.006 116.692,385.006 106.995,384.951 101.069 C 384.896 95.142,384.851 99.991,384.851 111.843 M34.016 133.215 C 35.652 133.631,42.743 133.631,42.743 133.215 C 42.743 132.992,40.901 132.874,37.845 132.901 C 34.815 132.927,33.355 133.046,34.016 133.215 M0.714 139.377 C 0.711 139.869,1.825 141.838,2.004 141.658 C 2.099 141.564,1.847 140.948,1.445 140.290 C 1.044 139.631,0.714 139.220,0.714 139.377 M398.385 140.620 C 398.004 141.346,397.610 142.021,397.510 142.119 C 396.638 142.975,396.367 143.549,396.939 143.330 C 397.504 143.113,399.485 139.704,399.207 139.427 C 399.136 139.356,398.766 139.893,398.385 140.620 M393.268 146.044 C 392.406 146.628,391.564 147.106,391.398 147.106 C 391.231 147.106,391.095 147.251,391.095 147.428 C 391.095 147.605,391.977 147.272,393.054 146.689 C 394.132 146.105,395.013 145.479,395.013 145.298 C 395.013 144.853,395.045 144.840,393.268 146.044 M5.501 145.648 C 5.774 146.090,7.835 147.225,8.023 147.037 C 8.090 146.971,7.495 146.542,6.701 146.085 C 5.907 145.628,5.367 145.432,5.501 145.648 M12.912 148.776 C 13.255 148.866,13.816 148.866,14.159 148.776 C 14.501 148.687,14.221 148.613,13.535 148.613 C 12.850 148.613,12.569 148.687,12.912 148.776 M59.571 185.663 L 59.484 222.618 200.000 222.618 L 340.516 222.618 340.429 185.663 L 340.342 148.709 340.249 185.307 L 340.157 221.906 200.000 221.906 L 59.843 221.906 59.751 185.307 L 59.658 148.709 59.571 185.663 M333.927 237.211 L 330.009 237.416 334.735 237.586 C 337.334 237.680,339.618 237.703,339.810 237.637 C 340.629 237.360,340.066 236.871,339.003 236.936 C 338.366 236.975,336.082 237.099,333.927 237.211 M117.186 238.160 L 116.296 239.056 117.631 238.282 C 119.036 237.468,119.259 237.208,118.522 237.243 C 118.277 237.255,117.676 237.668,117.186 238.160 M160.429 237.986 C 159.755 238.745,159.756 238.747,160.532 238.340 C 161.398 237.886,161.931 237.222,161.430 237.222 C 161.253 237.222,160.802 237.566,160.429 237.986 M299.911 237.578 L 296.527 237.798 300.199 237.866 C 302.573 237.910,303.793 237.808,303.651 237.578 C 303.530 237.382,303.400 237.252,303.363 237.290 C 303.325 237.327,301.772 237.457,299.911 237.578 M59.484 244.781 L 59.484 251.984 60.265 251.202 C 60.695 250.772,60.927 250.300,60.780 250.154 C 60.633 250.007,60.364 250.123,60.182 250.411 C 59.970 250.745,59.849 248.584,59.845 244.435 L 59.840 237.934 66.671 237.934 L 73.503 237.934 71.297 240.126 C 70.084 241.332,69.174 242.401,69.275 242.501 C 69.376 242.602,70.619 241.536,72.037 240.131 L 74.616 237.578 67.050 237.578 L 59.484 237.578 59.484 244.781 M206.768 238.438 C 206.180 238.909,205.819 239.416,205.966 239.564 C 206.113 239.713,206.233 239.651,206.233 239.427 C 206.233 239.204,206.706 238.776,207.284 238.478 C 208.557 237.819,249.915 237.636,249.510 238.290 C 249.162 238.854,249.909 238.704,250.401 238.112 C 250.794 237.638,248.415 237.578,229.340 237.580 L 207.836 237.581 206.768 238.438 M295.191 238.786 C 294.541 239.280,294.375 239.715,294.839 239.715 C 294.987 239.715,295.309 239.394,295.554 239.003 C 296.072 238.173,296.032 238.148,295.191 238.786 M337.296 239.030 C 336.934 239.706,336.964 239.735,337.640 239.373 C 338.400 238.967,338.647 238.290,338.036 238.290 C 337.847 238.290,337.514 238.623,337.296 239.030 M158.336 239.637 L 157.634 240.606 158.495 240.041 C 159.370 239.466,159.874 238.637,159.335 238.658 C 159.172 238.664,158.722 239.105,158.336 239.637 M247.739 239.637 L 247.037 240.606 247.898 240.041 C 248.774 239.466,249.277 238.637,248.738 238.658 C 248.575 238.664,248.126 239.105,247.739 239.637 M115.253 239.562 C 114.875 239.838,114.679 240.176,114.816 240.313 C 114.954 240.451,115.333 240.296,115.660 239.969 C 116.429 239.201,116.141 238.913,115.253 239.562 M204.096 240.606 C 203.849 240.904,203.810 241.140,204.009 241.140 C 204.205 241.140,204.565 240.899,204.809 240.606 C 205.056 240.307,205.094 240.071,204.896 240.071 C 204.700 240.071,204.340 240.312,204.096 240.606 M155.905 241.606 C 155.473 242.058,154.489 242.899,153.717 243.476 C 152.042 244.725,150.592 246.126,150.973 246.126 C 151.122 246.126,151.716 245.679,152.292 245.131 C 152.868 244.584,154.181 243.528,155.209 242.786 C 156.238 242.043,157.079 241.289,157.079 241.109 C 157.079 240.585,156.743 240.728,155.905 241.606 M245.485 241.211 C 244.813 241.883,244.986 242.272,245.770 241.852 C 246.162 241.642,246.483 241.316,246.483 241.127 C 246.483 240.656,246.000 240.696,245.485 241.211 M201.356 242.764 L 200.000 244.032 201.304 243.282 C 202.021 242.869,202.697 242.299,202.807 242.014 C 203.105 241.237,202.844 241.371,201.356 242.764 M291.273 241.881 C 290.604 242.270,290.429 242.921,290.994 242.921 C 291.183 242.921,291.509 242.600,291.719 242.208 C 292.152 241.398,292.130 241.382,291.273 241.881 M333.749 241.829 C 333.749 242.012,333.080 242.613,332.262 243.164 C 331.445 243.716,330.705 244.384,330.617 244.650 C 330.530 244.915,331.348 244.434,332.434 243.581 C 334.366 242.064,334.821 241.496,334.105 241.496 C 333.909 241.496,333.749 241.646,333.749 241.829 M111.462 242.417 C 111.205 242.727,110.303 243.456,109.459 244.036 C 108.616 244.617,107.930 245.285,107.937 245.520 C 107.944 245.791,108.108 245.746,108.382 245.398 C 108.620 245.096,109.657 244.308,110.686 243.647 C 111.714 242.985,112.556 242.311,112.556 242.148 C 112.556 241.665,111.965 241.810,111.462 242.417 M242.976 243.442 C 241.399 244.556,240.170 246.189,241.626 245.235 C 242.142 244.896,242.565 244.494,242.565 244.340 C 242.565 244.185,243.085 243.726,243.722 243.318 C 244.359 242.910,244.720 242.582,244.524 242.588 C 244.328 242.594,243.631 242.978,242.976 243.442 M288.631 244.087 C 287.814 244.719,286.263 245.914,285.184 246.742 C 284.105 247.570,283.121 248.412,282.997 248.612 C 282.577 249.291,283.343 248.969,284.474 247.991 C 285.093 247.455,286.215 246.508,286.967 245.887 C 290.689 242.812,291.718 241.698,288.631 244.087 M64.648 246.341 C 62.082 249.099,61.887 249.356,63.045 248.451 C 64.553 247.273,67.320 244.566,67.320 244.270 C 67.320 243.657,66.695 244.142,64.648 246.341 M198.468 244.773 C 198.233 245.008,198.041 245.324,198.041 245.474 C 198.041 245.918,199.037 245.405,199.249 244.852 C 199.486 244.234,199.051 244.190,198.468 244.773 M328.166 246.244 C 326.765 247.307,325.977 248.283,326.547 248.248 C 326.688 248.239,327.600 247.518,328.574 246.645 C 330.610 244.821,330.362 244.577,328.166 246.244 M239.236 246.422 C 238.912 246.780,238.646 247.188,238.646 247.329 C 238.646 247.665,240.402 246.384,240.416 246.037 C 240.436 245.560,239.840 245.755,239.236 246.422 M149.342 246.928 C 148.459 248.069,148.463 248.349,149.351 247.701 C 150.296 247.012,150.577 246.483,149.999 246.483 C 149.827 246.483,149.532 246.683,149.342 246.928 M103.811 248.468 L 102.404 249.718 103.741 248.955 C 105.064 248.200,105.636 247.637,105.361 247.361 C 105.282 247.283,104.585 247.781,103.811 248.468 M194.659 247.905 C 194.303 248.298,194.178 248.620,194.380 248.620 C 194.828 248.620,195.717 247.602,195.477 247.362 C 195.383 247.268,195.015 247.512,194.659 247.905 M236.866 248.442 C 236.618 248.740,236.580 248.976,236.778 248.976 C 236.974 248.976,237.334 248.736,237.578 248.442 C 237.825 248.144,237.864 247.907,237.665 247.907 C 237.469 247.907,237.109 248.148,236.866 248.442 M146.894 249.028 C 146.220 249.787,146.221 249.789,146.997 249.382 C 147.863 248.928,148.396 248.264,147.895 248.264 C 147.717 248.264,147.267 248.607,146.894 249.028 M324.844 249.154 C 324.597 249.452,324.558 249.688,324.757 249.688 C 324.953 249.688,325.313 249.448,325.557 249.154 C 325.804 248.856,325.842 248.620,325.644 248.620 C 325.448 248.620,325.088 248.860,324.844 249.154 M233.836 250.929 C 232.857 251.808,232.217 252.523,232.413 252.519 C 232.892 252.508,236.429 249.349,235.973 249.339 C 235.775 249.335,234.814 250.051,233.836 250.929 M281.300 249.828 C 280.649 250.322,280.484 250.757,280.947 250.757 C 281.096 250.757,281.418 250.436,281.663 250.045 C 282.181 249.214,282.140 249.190,281.300 249.828 M101.425 250.073 C 100.756 250.463,100.581 251.113,101.145 251.113 C 101.334 251.113,101.660 250.793,101.870 250.401 C 102.303 249.591,102.281 249.574,101.425 250.073 M144.768 250.782 C 144.399 251.189,143.657 251.783,143.120 252.101 C 142.195 252.647,141.487 253.625,142.041 253.590 C 142.483 253.563,145.828 250.429,145.629 250.230 C 145.525 250.125,145.137 250.374,144.768 250.782 M191.121 250.604 C 190.744 250.880,190.547 251.218,190.685 251.355 C 190.822 251.493,191.201 251.338,191.528 251.011 C 191.854 250.685,192.051 250.347,191.964 250.260 C 191.877 250.174,191.498 250.328,191.121 250.604 M322.785 250.765 C 322.367 251.433,322.387 251.453,323.055 251.035 C 323.451 250.788,323.776 250.464,323.776 250.315 C 323.776 249.801,323.233 250.047,322.785 250.765 M279.059 251.493 C 278.671 252.121,279.080 252.209,279.812 251.655 C 280.415 251.199,280.425 251.134,279.896 251.124 C 279.565 251.118,279.188 251.284,279.059 251.493 M98.569 252.373 C 97.838 252.869,97.240 253.430,97.240 253.619 C 97.240 254.130,97.342 254.073,98.867 252.716 C 100.520 251.245,100.412 251.120,98.569 252.373 M188.335 252.786 C 187.600 253.290,186.999 253.841,186.999 254.011 C 186.999 254.551,187.359 254.349,188.674 253.072 C 190.188 251.602,190.130 251.553,188.335 252.786 M320.669 252.271 C 319.786 253.413,319.797 253.663,320.704 253.068 C 321.621 252.467,321.942 251.825,321.326 251.825 C 321.154 251.825,320.858 252.026,320.669 252.271 M230.642 253.529 L 229.940 254.497 230.801 253.932 C 231.677 253.357,232.180 252.529,231.641 252.549 C 231.478 252.555,231.029 252.996,230.642 253.529 M277.382 252.923 C 276.713 253.312,276.538 253.963,277.102 253.963 C 277.291 253.963,277.618 253.642,277.827 253.250 C 278.261 252.440,278.238 252.424,277.382 252.923 M318.219 254.408 C 317.634 254.849,316.817 255.530,316.403 255.922 C 315.990 256.313,315.224 256.930,314.702 257.292 C 314.181 257.654,313.836 258.033,313.937 258.134 C 314.114 258.311,316.368 256.588,318.579 254.586 C 319.886 253.402,319.686 253.303,318.219 254.408 M95.363 254.866 C 94.632 255.363,94.034 255.924,94.034 256.113 C 94.034 256.301,94.314 256.207,94.657 255.903 C 95.000 255.599,95.681 255.044,96.171 254.668 C 97.466 253.676,96.916 253.811,95.363 254.866 M139.771 254.798 C 139.164 255.220,138.370 255.966,138.006 256.456 C 137.278 257.435,137.692 257.206,139.448 255.657 C 139.840 255.312,140.481 254.794,140.873 254.507 C 142.002 253.680,140.994 253.946,139.771 254.798 M274.408 255.367 C 272.419 256.868,270.411 258.703,271.169 258.327 C 271.523 258.152,272.404 257.507,273.128 256.894 C 273.851 256.282,274.844 255.457,275.334 255.062 C 276.718 253.944,275.965 254.192,274.408 255.367 M185.187 255.301 C 183.677 256.318,181.145 258.593,181.523 258.593 C 181.715 258.593,182.461 258.054,183.180 257.396 C 183.899 256.738,184.531 256.236,184.585 256.281 C 184.639 256.326,185.081 255.983,185.567 255.519 C 186.610 254.522,186.466 254.439,185.187 255.301 M228.388 255.102 C 227.716 255.775,227.889 256.163,228.673 255.744 C 229.065 255.534,229.386 255.208,229.386 255.019 C 229.386 254.547,228.903 254.587,228.388 255.102 M225.966 257.257 C 224.623 258.269,223.246 259.663,223.598 259.656 C 223.903 259.650,227.525 256.456,227.226 256.456 C 227.119 256.456,226.552 256.817,225.966 257.257 M92.263 257.154 C 91.975 257.337,91.859 257.605,92.005 257.751 C 92.150 257.897,92.541 257.745,92.872 257.414 C 93.516 256.770,93.130 256.606,92.263 257.154 M135.807 257.970 C 134.924 259.112,134.935 259.362,135.842 258.767 C 136.759 258.166,137.080 257.524,136.464 257.524 C 136.292 257.524,135.996 257.725,135.807 257.970 M90.554 258.593 C 90.133 258.985,89.640 259.305,89.456 259.305 C 89.273 259.305,89.028 259.554,88.912 259.857 C 88.616 260.629,90.537 259.497,91.128 258.552 C 91.664 257.692,91.509 257.703,90.554 258.593 M269.277 259.485 C 268.818 259.974,268.606 260.374,268.805 260.374 C 269.260 260.374,270.524 259.007,270.287 258.770 C 270.191 258.674,269.737 258.996,269.277 259.485 M179.699 259.659 C 179.344 260.052,179.218 260.374,179.420 260.374 C 179.869 260.374,180.757 259.356,180.518 259.117 C 180.423 259.022,180.055 259.266,179.699 259.659 M133.170 260.269 C 131.227 261.875,130.178 262.867,130.424 262.867 C 130.550 262.867,131.327 262.305,132.150 261.617 C 132.973 260.930,133.909 260.220,134.229 260.041 C 134.549 259.862,134.713 259.616,134.592 259.496 C 134.471 259.375,133.832 259.723,133.170 260.269 M221.898 260.561 C 221.210 261.390,221.701 261.546,222.438 260.732 C 222.794 260.339,222.919 260.018,222.717 260.018 C 222.515 260.018,222.146 260.262,221.898 260.561 M178.005 260.870 C 177.355 261.364,177.189 261.799,177.653 261.799 C 177.801 261.799,178.123 261.478,178.368 261.086 C 178.886 260.256,178.846 260.232,178.005 260.870 M267.409 260.870 C 266.758 261.364,266.593 261.799,267.056 261.799 C 267.205 261.799,267.527 261.478,267.771 261.086 C 268.290 260.256,268.249 260.232,267.409 260.870 M310.037 260.883 C 309.660 261.159,309.475 261.508,309.626 261.659 C 309.777 261.811,310.168 261.667,310.495 261.341 C 311.265 260.571,310.926 260.232,310.037 260.883 M219.557 262.563 C 218.883 263.322,218.883 263.324,219.660 262.917 C 220.525 262.463,221.059 261.799,220.557 261.799 C 220.380 261.799,219.930 262.143,219.557 262.563 M84.503 263.144 C 83.864 263.678,83.343 264.233,83.345 264.378 C 83.347 264.523,83.629 264.411,83.972 264.130 C 84.314 263.848,84.996 263.294,85.485 262.898 C 85.975 262.502,86.215 262.178,86.020 262.176 C 85.824 262.175,85.141 262.611,84.503 263.144 M175.765 262.535 C 175.377 263.163,175.786 263.251,176.518 262.697 C 177.120 262.241,177.130 262.176,176.602 262.166 C 176.270 262.160,175.894 262.326,175.765 262.535 M265.371 262.497 C 265.083 262.679,264.934 262.916,265.041 263.022 C 265.147 263.129,265.543 262.982,265.921 262.697 C 266.672 262.129,266.216 261.963,265.371 262.497 M127.694 264.886 C 126.714 265.764,126.233 266.313,126.625 266.108 C 127.691 265.549,129.852 263.660,129.650 263.463 C 129.554 263.369,128.673 264.009,127.694 264.886 M174.265 263.820 C 173.455 264.385,173.201 265.004,173.779 265.004 C 173.953 265.004,174.357 264.604,174.678 264.114 C 175.352 263.084,175.336 263.073,174.265 263.820 M217.558 264.025 C 217.126 264.466,216.293 265.187,215.708 265.628 C 215.122 266.069,214.773 266.429,214.932 266.429 C 215.398 266.429,218.700 263.906,218.700 263.549 C 218.700 263.038,218.406 263.160,217.558 264.025 M263.491 263.964 C 262.821 264.354,262.647 265.004,263.211 265.004 C 263.400 265.004,263.726 264.684,263.936 264.292 C 264.369 263.482,264.347 263.466,263.491 263.964 M305.805 264.494 L 305.206 265.408 306.120 264.809 C 306.623 264.480,307.035 264.068,307.035 263.895 C 307.035 263.281,306.396 263.592,305.805 264.494 M303.063 266.527 C 302.348 267.159,301.111 268.229,300.314 268.904 C 299.517 269.580,298.936 270.204,299.023 270.290 C 299.109 270.377,299.797 269.904,300.552 269.240 C 302.663 267.382,304.335 266.087,304.630 266.080 C 304.777 266.076,304.898 265.913,304.898 265.717 C 304.898 265.116,304.420 265.327,303.063 266.527 M79.350 267.066 C 78.104 267.973,77.664 268.581,78.272 268.554 C 78.604 268.540,79.800 267.518,80.453 266.691 C 81.111 265.859,80.915 265.926,79.350 267.066 M170.329 266.857 C 170.094 267.092,169.902 267.407,169.902 267.558 C 169.902 268.001,170.898 267.489,171.110 266.936 C 171.347 266.318,170.912 266.274,170.329 266.857 M124.176 267.725 L 123.507 268.642 124.443 268.029 C 124.957 267.692,125.378 267.274,125.378 267.101 C 125.378 266.524,124.852 266.797,124.176 267.725 M213.435 267.506 C 213.017 268.174,213.037 268.194,213.705 267.776 C 214.101 267.529,214.426 267.205,214.426 267.056 C 214.426 266.542,213.883 266.788,213.435 267.506 M259.127 267.498 C 258.773 267.890,258.628 268.205,258.805 268.199 C 259.219 268.184,260.374 267.312,260.374 267.013 C 260.374 266.561,259.759 266.800,259.127 267.498 M325.558 281.919 C 317.625 289.856,311.294 296.347,311.489 296.344 C 311.684 296.342,318.094 290.078,325.735 282.424 L 339.626 268.507 339.804 272.188 C 339.902 274.212,340.078 275.708,340.196 275.512 C 340.314 275.316,340.314 273.431,340.196 271.323 L 339.982 267.489 325.558 281.919 M122.272 269.012 C 121.321 270.242,121.288 270.542,122.168 269.961 C 123.078 269.360,123.528 268.566,122.958 268.566 C 122.770 268.566,122.461 268.767,122.272 269.012 M211.319 269.012 C 210.436 270.153,210.447 270.403,211.354 269.809 C 212.271 269.208,212.592 268.566,211.976 268.566 C 211.804 268.566,211.508 268.767,211.319 269.012 M257.168 269.101 C 256.921 269.399,256.882 269.635,257.081 269.635 C 257.277 269.635,257.637 269.394,257.881 269.101 C 258.128 268.803,258.167 268.566,257.968 268.566 C 257.772 268.566,257.412 268.807,257.168 269.101 M166.607 269.775 C 165.919 270.297,165.797 270.703,166.328 270.703 C 166.517 270.703,166.843 270.383,167.053 269.991 C 167.497 269.161,167.447 269.137,166.607 269.775 M255.426 270.387 C 254.957 270.767,254.681 271.185,254.813 271.316 C 254.944 271.447,255.398 271.207,255.823 270.783 C 256.823 269.782,256.531 269.491,255.426 270.387 M74.963 270.371 C 74.575 270.999,74.984 271.087,75.716 270.533 C 76.319 270.077,76.329 270.012,75.800 270.002 C 75.469 269.996,75.092 270.162,74.963 270.371 M208.864 271.149 C 207.296 272.323,206.049 273.554,206.433 273.547 C 206.617 273.544,207.568 272.823,208.546 271.945 C 210.453 270.232,210.609 269.841,208.864 271.149 M119.504 271.477 C 118.163 272.532,116.807 273.910,117.113 273.906 C 117.430 273.902,121.004 270.726,120.707 270.713 C 120.586 270.708,120.045 271.052,119.504 271.477 M163.758 272.020 C 163.023 272.524,162.422 273.076,162.422 273.245 C 162.422 273.760,162.835 273.594,163.651 272.752 C 164.078 272.311,164.737 271.759,165.116 271.526 C 165.496 271.292,165.646 271.102,165.450 271.102 C 165.254 271.102,164.492 271.515,163.758 272.020 M253.173 272.306 C 252.645 272.796,252.086 273.203,251.930 273.212 C 251.414 273.239,248.853 275.686,249.091 275.924 C 249.220 276.053,249.692 275.762,250.140 275.278 C 250.589 274.795,251.432 274.115,252.014 273.768 C 252.596 273.421,253.360 272.749,253.712 272.276 C 254.528 271.180,254.379 271.188,253.173 272.306 M295.350 272.862 C 294.927 273.539,294.947 273.566,295.620 273.206 C 296.021 272.991,296.349 272.661,296.349 272.472 C 296.349 271.889,295.831 272.091,295.350 272.862 M70.733 273.767 C 69.966 274.433,69.485 274.973,69.665 274.968 C 70.131 274.954,72.515 272.929,72.304 272.725 C 72.207 272.632,71.500 273.101,70.733 273.767 M160.192 274.857 C 159.459 275.378,158.860 275.939,158.860 276.103 C 158.860 276.565,158.987 276.491,160.487 275.156 C 162.155 273.672,162.032 273.547,160.192 274.857 M204.801 274.452 C 204.113 275.281,204.604 275.438,205.341 274.624 C 205.697 274.231,205.822 273.909,205.620 273.909 C 205.417 273.909,205.049 274.153,204.801 274.452 M293.296 274.418 C 292.919 274.694,292.734 275.043,292.885 275.195 C 293.037 275.346,293.427 275.202,293.754 274.876 C 294.524 274.106,294.185 273.768,293.296 274.418 M115.504 274.711 C 114.621 275.852,114.625 276.132,115.513 275.484 C 116.458 274.795,116.739 274.265,116.161 274.265 C 115.989 274.265,115.694 274.466,115.504 274.711 M202.459 276.458 L 201.781 277.225 202.760 276.595 C 203.770 275.945,203.961 275.690,203.439 275.690 C 203.273 275.690,202.833 276.035,202.459 276.458 M290.521 276.725 C 289.764 277.263,288.975 278.011,288.766 278.388 C 288.370 279.104,289.172 278.671,290.116 277.658 C 290.312 277.448,290.934 276.919,291.500 276.483 C 292.957 275.358,292.173 275.553,290.521 276.725 M112.885 276.985 C 112.114 277.823,112.101 277.882,112.763 277.539 C 113.649 277.079,114.564 276.046,114.086 276.046 C 113.900 276.046,113.360 276.469,112.885 276.985 M65.450 277.719 C 64.167 278.600,63.742 279.252,64.450 279.252 C 64.635 279.252,64.995 278.963,65.251 278.611 C 65.507 278.258,66.113 277.697,66.598 277.364 C 67.082 277.031,67.322 276.768,67.132 276.780 C 66.941 276.792,66.184 277.214,65.450 277.719 M200.633 277.560 C 199.682 278.790,199.649 279.090,200.530 278.509 C 201.440 277.909,201.890 277.115,201.320 277.115 C 201.132 277.115,200.823 277.315,200.633 277.560 M110.607 278.818 L 109.905 279.786 110.765 279.222 C 111.641 278.647,112.145 277.818,111.606 277.838 C 111.443 277.845,110.993 278.285,110.607 278.818 M154.586 279.328 C 153.172 280.588,153.122 280.678,154.165 280.093 C 155.401 279.399,156.585 278.279,156.335 278.039 C 156.255 277.962,155.467 278.542,154.586 279.328 M245.407 278.370 C 244.719 279.199,245.210 279.356,245.946 278.542 C 246.302 278.149,246.428 277.827,246.225 277.827 C 246.023 277.827,245.655 278.072,245.407 278.370 M286.910 279.608 C 286.555 280.000,286.426 280.321,286.622 280.321 C 286.817 280.321,287.268 280.000,287.622 279.608 C 287.977 279.216,288.107 278.896,287.911 278.896 C 287.715 278.896,287.265 279.216,286.910 279.608 M198.193 279.779 C 197.816 280.064,197.667 280.301,197.863 280.304 C 198.392 280.313,199.297 279.677,199.073 279.453 C 198.967 279.347,198.571 279.493,198.193 279.779 M243.277 280.142 C 243.030 280.441,242.991 280.677,243.190 280.677 C 243.386 280.677,243.745 280.436,243.989 280.142 C 244.237 279.844,244.275 279.608,244.077 279.608 C 243.881 279.608,243.521 279.849,243.277 280.142 M108.195 280.697 C 107.949 281.100,107.198 281.772,106.526 282.190 C 105.855 282.608,105.490 283.011,105.715 283.086 C 106.146 283.230,109.350 280.726,109.350 280.245 C 109.350 279.697,108.637 279.976,108.195 280.697 M60.433 281.684 L 59.468 282.691 59.573 289.609 L 59.678 296.527 59.759 289.513 L 59.840 282.498 60.908 281.867 C 61.496 281.520,61.977 281.110,61.977 280.956 C 61.977 280.411,61.385 280.690,60.433 281.684 M196.338 281.397 C 195.920 282.065,195.940 282.085,196.608 281.668 C 197.004 281.420,197.329 281.096,197.329 280.947 C 197.329 280.433,196.786 280.679,196.338 281.397 M284.775 281.387 C 284.419 281.780,284.294 282.102,284.496 282.102 C 284.944 282.102,285.833 281.083,285.593 280.844 C 285.499 280.750,285.131 280.994,284.775 281.387 M151.533 281.542 C 151.156 281.818,150.971 282.167,151.122 282.318 C 151.273 282.470,151.664 282.326,151.991 282.000 C 152.761 281.230,152.422 280.891,151.533 281.542 M241.343 281.593 C 240.966 281.868,240.770 282.206,240.907 282.344 C 241.044 282.481,241.424 282.326,241.750 282.000 C 242.077 281.673,242.273 281.335,242.187 281.249 C 242.100 281.162,241.721 281.317,241.343 281.593 M194.751 282.484 C 194.410 282.682,193.953 283.178,193.735 283.585 C 193.341 284.321,193.345 284.321,194.250 283.659 C 194.751 283.292,195.243 282.792,195.343 282.547 C 195.559 282.020,195.548 282.019,194.751 282.484 M239.102 283.443 C 238.471 283.979,237.229 284.956,236.341 285.616 C 234.803 286.760,234.328 287.444,235.072 287.444 C 235.261 287.444,235.578 287.141,235.777 286.769 C 235.976 286.398,236.823 285.660,237.659 285.130 C 238.496 284.599,239.469 283.780,239.821 283.311 C 240.638 282.221,240.515 282.243,239.102 283.443 M282.661 283.017 C 282.284 283.293,282.088 283.631,282.225 283.769 C 282.362 283.906,282.742 283.751,283.068 283.425 C 283.395 283.098,283.591 282.760,283.505 282.673 C 283.418 282.587,283.038 282.742,282.661 283.017 M103.166 284.918 C 102.409 285.455,101.622 286.203,101.418 286.580 C 101.065 287.229,101.993 286.662,102.939 285.651 C 103.037 285.546,103.579 285.106,104.144 284.672 C 105.607 283.548,104.813 283.748,103.166 284.918 M147.626 284.619 C 147.238 285.246,147.647 285.334,148.379 284.781 C 148.981 284.325,148.992 284.260,148.463 284.250 C 148.131 284.244,147.755 284.410,147.626 284.619 M191.774 285.003 C 191.100 285.762,191.101 285.764,191.877 285.357 C 192.743 284.903,193.276 284.239,192.774 284.239 C 192.597 284.239,192.147 284.583,191.774 285.003 M146.117 285.862 C 145.350 286.399,145.047 287.100,145.592 287.077 C 145.845 287.066,147.268 285.307,147.024 285.307 C 146.960 285.307,146.552 285.557,146.117 285.862 M278.542 286.372 C 278.333 286.762,277.726 287.310,277.193 287.591 C 276.153 288.139,273.374 290.654,273.819 290.644 C 273.967 290.641,274.606 290.200,275.239 289.665 C 275.873 289.129,277.115 288.131,278.000 287.446 C 279.562 286.236,279.969 285.663,279.265 285.663 C 279.076 285.663,278.750 285.982,278.542 286.372 M189.575 286.732 C 189.330 287.124,189.260 287.444,189.418 287.444 C 189.789 287.444,190.561 286.675,190.561 286.305 C 190.561 285.780,190.025 286.012,189.575 286.732 M143.900 287.622 C 143.653 287.920,143.614 288.157,143.813 288.157 C 144.009 288.157,144.369 287.916,144.613 287.622 C 144.860 287.324,144.899 287.088,144.700 287.088 C 144.504 287.088,144.144 287.329,143.900 287.622 M99.165 288.209 C 98.491 288.967,98.492 288.970,99.268 288.563 C 100.134 288.109,100.667 287.444,100.165 287.444 C 99.988 287.444,99.538 287.788,99.165 288.209 M186.462 289.443 L 184.684 291.085 186.392 289.905 C 188.194 288.661,189.077 287.801,188.554 287.801 C 188.382 287.801,187.441 288.540,186.462 289.443 M141.225 289.753 C 140.443 290.435,139.964 290.995,140.160 290.998 C 140.356 291.001,141.126 290.443,141.872 289.758 C 143.634 288.140,143.079 288.135,141.225 289.753 M97.240 289.845 C 96.426 290.651,96.416 290.693,97.131 290.331 C 97.906 289.937,98.494 289.277,98.255 289.070 C 98.186 289.010,97.729 289.359,97.240 289.845 M231.516 289.412 C 231.268 289.711,231.136 290.026,231.224 290.114 C 231.311 290.201,231.653 289.957,231.983 289.571 C 232.314 289.185,232.445 288.869,232.275 288.869 C 232.105 288.869,231.763 289.113,231.516 289.412 M95.187 291.243 C 94.940 291.343,94.567 291.743,94.359 292.133 C 94.023 292.761,94.056 292.800,94.660 292.477 C 96.058 291.729,96.490 290.719,95.187 291.243 M183.536 291.451 C 182.585 292.681,182.552 292.982,183.433 292.401 C 184.343 291.800,184.793 291.006,184.223 291.006 C 184.035 291.006,183.726 291.207,183.536 291.451 M272.121 291.549 C 271.433 292.378,271.924 292.535,272.661 291.721 C 273.016 291.328,273.142 291.006,272.939 291.006 C 272.737 291.006,272.369 291.251,272.121 291.549 M137.667 292.660 C 136.266 293.935,136.262 293.946,137.431 293.283 C 138.085 292.912,138.772 292.329,138.958 291.986 C 139.430 291.112,139.283 291.189,137.667 292.660 M227.452 292.635 C 227.075 292.910,226.878 293.248,227.016 293.386 C 227.153 293.523,227.533 293.368,227.859 293.042 C 228.186 292.715,228.382 292.377,228.295 292.290 C 228.209 292.204,227.829 292.359,227.452 292.635 M340.267 294.568 C 340.267 295.646,340.334 296.086,340.415 295.548 C 340.497 295.009,340.497 294.127,340.415 293.589 C 340.334 293.050,340.267 293.491,340.267 294.568 M92.451 293.707 C 91.874 294.129,91.856 294.212,92.342 294.212 C 92.662 294.212,93.029 294.041,93.158 293.832 C 93.536 293.221,93.197 293.161,92.451 293.707 M179.949 294.573 C 178.172 296.223,178.392 296.498,180.232 294.924 C 180.917 294.338,181.598 293.857,181.745 293.857 C 181.892 293.856,182.012 293.695,182.012 293.500 C 182.012 292.863,181.506 293.126,179.949 294.573 M225.378 294.352 C 224.728 294.846,224.562 295.280,225.026 295.280 C 225.174 295.280,225.496 294.960,225.741 294.568 C 226.259 293.738,226.219 293.714,225.378 294.352 M134.907 294.597 C 134.237 294.986,134.062 295.637,134.627 295.637 C 134.816 295.637,135.142 295.316,135.352 294.924 C 135.785 294.114,135.763 294.098,134.907 294.597 M268.057 294.772 C 267.731 295.098,267.555 295.457,267.667 295.569 C 267.779 295.681,268.138 295.505,268.465 295.179 C 268.791 294.852,268.967 294.493,268.855 294.382 C 268.743 294.270,268.384 294.445,268.057 294.772 M90.338 295.508 L 89.669 296.425 90.605 295.812 C 91.119 295.474,91.541 295.057,91.541 294.883 C 91.541 294.306,91.014 294.580,90.338 295.508 M223.483 295.789 C 223.106 296.065,222.889 296.382,223.001 296.494 C 223.113 296.606,223.513 296.472,223.890 296.196 C 224.267 295.921,224.484 295.603,224.372 295.491 C 224.260 295.379,223.860 295.514,223.483 295.789 M59.405 327.427 C 59.350 336.095,59.426 343.340,59.573 343.526 C 59.720 343.712,59.840 336.620,59.840 327.765 C 59.840 318.910,59.764 311.665,59.672 311.665 C 59.580 311.665,59.460 318.758,59.405 327.427 M340.557 316.741 C 340.587 320.417,340.680 321.424,340.893 320.392 C 341.320 318.329,341.304 311.665,340.873 311.665 C 340.650 311.665,340.532 313.567,340.557 316.741 M340.516 343.188 C 340.516 343.482,340.677 343.722,340.873 343.722 C 341.069 343.722,341.229 343.482,341.229 343.188 C 341.229 342.894,341.069 342.654,340.873 342.654 C 340.677 342.654,340.516 342.894,340.516 343.188 M340.873 344.969 C 340.873 345.263,341.033 345.503,341.229 345.503 C 341.425 345.503,341.585 345.263,341.585 344.969 C 341.585 344.675,341.425 344.435,341.229 344.435 C 341.033 344.435,340.873 344.675,340.873 344.969 M58.771 345.681 C 58.771 345.975,58.931 346.215,59.127 346.215 C 59.323 346.215,59.484 345.975,59.484 345.681 C 59.484 345.387,59.323 345.147,59.127 345.147 C 58.931 345.147,58.771 345.387,58.771 345.681 M15.316 348.054 C 15.316 348.631,17.290 351.772,17.883 352.138 C 18.083 352.262,17.669 351.459,16.962 350.356 C 16.256 349.252,15.691 348.256,15.705 348.143 C 15.720 348.030,15.638 347.844,15.524 347.729 C 15.410 347.615,15.316 347.761,15.316 348.054 M344.343 350.882 C 344.883 351.489,345.806 352.234,346.394 352.537 C 347.226 352.967,347.069 352.726,345.681 351.447 C 343.641 349.567,342.891 349.250,344.343 350.882 M55.565 351.511 C 54.880 352.262,54.000 353.048,53.609 353.259 C 53.219 353.470,53.032 353.774,53.193 353.935 C 53.355 354.097,53.674 353.986,53.903 353.689 C 54.132 353.393,55.000 352.618,55.833 351.968 C 56.665 351.318,57.346 350.639,57.346 350.460 C 57.346 349.835,56.804 350.155,55.565 351.511 M380.385 351.801 L 379.163 353.101 380.310 352.313 C 381.500 351.495,382.013 350.906,381.757 350.649 C 381.675 350.568,381.058 351.086,380.385 351.801 M18.735 353.125 C 18.965 353.725,19.947 354.188,19.947 353.697 C 19.947 353.514,19.630 353.195,19.242 352.987 C 18.677 352.685,18.577 352.712,18.735 353.125 M347.640 353.318 C 347.640 353.784,348.990 354.493,349.530 354.310 C 349.764 354.231,349.435 353.896,348.798 353.566 C 348.161 353.235,347.640 353.124,347.640 353.318 M378.162 353.500 C 377.878 353.785,377.546 353.919,377.424 353.797 C 377.303 353.676,377.204 353.764,377.204 353.992 C 377.204 354.221,377.353 354.408,377.535 354.408 C 377.865 354.408,378.985 353.425,378.985 353.136 C 378.985 352.848,378.679 352.983,378.162 353.500 M20.816 354.597 C 21.196 354.885,21.668 355.120,21.864 355.120 C 22.060 355.120,21.909 354.885,21.528 354.597 C 21.148 354.310,20.677 354.074,20.481 354.074 C 20.285 354.074,20.436 354.310,20.816 354.597 " stroke="#040404" fill="none" stroke-width="3" class="XYzSwCDD_1"></path><path id="path2" d="M107.331 0.267 C 158.429 0.317,241.937 0.317,292.905 0.267 C 343.873 0.217,302.066 0.177,200.000 0.177 C 97.934 0.177,56.233 0.217,107.331 0.267 M10.329 0.772 C 9.644 0.966,8.941 1.262,8.768 1.429 C 8.595 1.597,9.105 1.541,9.902 1.306 C 10.699 1.071,11.468 0.761,11.612 0.617 C 11.912 0.317,11.965 0.311,10.329 0.772 M1.058 9.281 C 0.842 9.683,0.719 10.171,0.783 10.365 C 0.848 10.558,1.085 10.229,1.310 9.633 C 1.778 8.393,1.638 8.197,1.058 9.281 M14.693 14.840 C 14.193 15.041,14.016 44.523,14.515 44.524 C 14.662 44.524,14.738 37.955,14.685 29.928 L 14.588 15.331 29.734 15.235 C 38.064 15.181,44.880 15.226,44.880 15.334 C 44.880 15.442,44.679 15.755,44.435 16.029 C 44.056 16.454,44.082 16.458,44.613 16.057 C 46.461 14.658,45.899 14.603,30.187 14.632 C 21.910 14.647,14.938 14.741,14.693 14.840 M104.439 15.047 C 104.141 15.405,109.952 15.477,133.690 15.409 C 149.982 15.363,163.273 15.202,163.224 15.053 C 163.058 14.548,104.858 14.541,104.439 15.047 M222.974 14.960 C 222.974 15.441,280.645 15.441,281.389 14.960 C 281.736 14.735,271.610 14.613,252.449 14.609 C 233.033 14.606,222.974 14.725,222.974 14.960 M340.873 14.960 C 340.873 15.194,348.538 15.316,363.155 15.316 C 377.920 15.316,385.364 15.196,385.218 14.960 C 385.075 14.729,377.260 14.604,362.935 14.604 C 348.464 14.604,340.873 14.726,340.873 14.960 M206.410 31.068 C 197.595 39.928,190.993 46.620,191.738 45.939 C 192.484 45.259,193.205 44.702,193.341 44.702 C 193.477 44.702,193.556 44.605,193.517 44.487 C 193.430 44.227,195.878 41.816,196.102 41.941 C 196.189 41.990,196.240 41.930,196.216 41.809 C 196.192 41.687,202.162 35.596,209.483 28.273 C 216.803 20.951,222.713 14.960,222.615 14.960 C 222.517 14.960,215.225 22.209,206.410 31.068 M268.208 28.762 L 254.853 42.208 268.299 28.853 C 275.695 21.508,281.745 15.457,281.745 15.407 C 281.745 15.156,280.621 16.265,268.208 28.762 M37.036 23.063 L 34.016 26.180 37.133 23.160 C 38.847 21.499,40.249 20.097,40.249 20.043 C 40.249 19.784,39.840 20.169,37.036 23.063 M91.002 28.228 L 85.307 34.016 91.095 28.321 C 96.473 23.031,97.044 22.440,96.790 22.440 C 96.739 22.440,94.134 25.045,91.002 28.228 M27.237 32.502 L 25.111 34.728 27.337 32.602 C 29.405 30.628,29.727 30.276,29.463 30.276 C 29.408 30.276,28.407 31.278,27.237 32.502 M370.441 44.674 C 366.035 49.063,362.284 52.563,362.104 52.452 C 361.925 52.341,361.883 52.420,362.012 52.628 C 362.141 52.837,361.805 53.394,361.265 53.867 C 360.726 54.340,357.242 57.841,353.523 61.647 C 349.804 65.453,353.931 61.434,362.695 52.717 C 371.458 44.001,378.629 36.828,378.629 36.778 C 378.629 36.540,377.931 37.212,370.441 44.674 M18.878 40.427 C 18.013 41.309,17.385 42.030,17.483 42.030 C 17.581 42.030,18.369 41.309,19.234 40.427 C 20.099 39.546,20.727 38.825,20.629 38.825 C 20.531 38.825,19.743 39.546,18.878 40.427 M250.751 46.215 L 247.017 50.045 250.846 46.311 C 252.952 44.257,254.675 42.534,254.675 42.482 C 254.675 42.225,254.218 42.659,250.751 46.215 M73.368 45.423 C 72.679 46.252,73.171 46.408,73.907 45.594 C 74.263 45.201,74.388 44.880,74.186 44.880 C 73.984 44.880,73.616 45.124,73.368 45.423 M188.580 48.887 L 187.533 50.045 188.691 48.998 C 189.328 48.423,189.849 47.902,189.849 47.841 C 189.849 47.566,189.555 47.808,188.580 48.887 M67.832 51.024 L 66.785 52.182 67.943 51.135 C 69.022 50.160,69.264 49.866,68.989 49.866 C 68.928 49.866,68.407 50.387,67.832 51.024 M185.790 51.608 C 185.035 52.396,184.915 52.702,185.278 52.912 C 185.539 53.063,185.630 53.052,185.480 52.887 C 185.331 52.722,185.641 52.135,186.170 51.583 C 186.699 51.031,187.052 50.579,186.954 50.579 C 186.856 50.579,186.332 51.042,185.790 51.608 M245.499 51.172 C 245.252 51.272,244.870 51.700,244.649 52.124 C 244.274 52.845,244.309 52.839,245.188 52.031 C 245.704 51.556,246.126 51.115,246.126 51.051 C 246.126 50.921,246.121 50.922,245.499 51.172 M61.616 57.257 L 56.812 62.155 61.710 57.351 C 64.403 54.709,66.607 52.505,66.607 52.454 C 66.607 52.198,66.078 52.708,61.616 57.257 M183.237 54.230 L 182.191 55.387 183.284 54.403 C 183.885 53.861,184.512 53.541,184.677 53.690 C 184.841 53.840,184.861 53.762,184.720 53.517 C 184.382 52.929,184.435 52.904,183.237 54.230 M242.650 54.022 C 242.402 54.121,242.020 54.549,241.800 54.973 C 241.425 55.694,241.459 55.688,242.338 54.880 C 242.854 54.405,243.277 53.964,243.277 53.901 C 243.277 53.770,243.271 53.771,242.650 54.022 M239.800 56.871 C 239.553 56.971,239.170 57.399,238.950 57.823 C 238.575 58.544,238.610 58.538,239.489 57.730 C 240.005 57.255,240.427 56.814,240.427 56.750 C 240.427 56.620,240.422 56.621,239.800 56.871 M236.331 60.196 C 235.977 60.588,235.847 60.908,236.043 60.908 C 236.239 60.908,236.689 60.588,237.044 60.196 C 237.398 59.804,237.528 59.484,237.332 59.484 C 237.136 59.484,236.686 59.804,236.331 60.196 M233.659 62.869 C 233.199 63.358,232.987 63.758,233.186 63.758 C 233.641 63.758,234.905 62.391,234.668 62.154 C 234.572 62.058,234.118 62.380,233.659 62.869 M45.235 73.198 C 44.775 73.687,44.563 74.087,44.762 74.087 C 45.217 74.087,46.481 72.720,46.244 72.484 C 46.148 72.388,45.694 72.709,45.235 73.198 M42.360 76.098 L 41.496 77.040 42.476 76.413 C 43.014 76.068,43.455 75.644,43.455 75.471 C 43.455 74.987,43.293 75.079,42.360 76.098 M34.902 83.615 L 29.029 89.581 34.996 83.708 C 38.277 80.478,40.962 77.793,40.962 77.742 C 40.962 77.488,40.359 78.073,34.902 83.615 M375.935 98.753 L 374.889 99.911 376.046 98.865 C 377.125 97.890,377.368 97.596,377.092 97.596 C 377.031 97.596,376.510 98.117,375.935 98.753 M373.085 101.603 L 372.039 102.760 373.197 101.714 C 374.276 100.739,374.518 100.445,374.243 100.445 C 374.182 100.445,373.661 100.966,373.085 101.603 M14.829 103.242 C 14.209 103.928,13.901 133.214,14.515 133.215 C 14.662 133.215,14.738 126.727,14.685 118.797 C 14.591 104.821,14.610 104.357,15.295 103.672 C 15.684 103.283,15.869 102.882,15.707 102.782 C 15.544 102.681,15.149 102.889,14.829 103.242 M308.615 106.946 L 307.569 108.103 308.727 107.057 C 309.363 106.482,309.884 105.961,309.884 105.900 C 309.884 105.624,309.590 105.867,308.615 106.946 M129.808 107.302 L 128.762 108.459 129.920 107.413 C 130.999 106.438,131.241 106.144,130.966 106.144 C 130.905 106.144,130.384 106.665,129.808 107.302 M305.766 109.795 L 304.720 110.953 305.877 109.907 C 306.514 109.331,307.035 108.810,307.035 108.749 C 307.035 108.474,306.741 108.716,305.766 109.795 M126.959 110.151 L 125.913 111.309 127.070 110.263 C 128.149 109.288,128.392 108.994,128.117 108.994 C 128.055 108.994,127.534 109.515,126.959 110.151 M292.963 122.618 L 281.923 133.749 293.054 122.709 C 299.176 116.637,304.185 111.628,304.185 111.578 C 304.185 111.327,303.223 112.274,292.963 122.618 M362.043 112.645 L 360.997 113.802 362.155 112.756 C 362.792 112.181,363.313 111.660,363.313 111.599 C 363.313 111.323,363.019 111.566,362.043 112.645 M124.109 113.001 L 123.063 114.159 124.221 113.112 C 125.300 112.137,125.542 111.843,125.267 111.843 C 125.206 111.843,124.685 112.364,124.109 113.001 M121.441 115.672 L 120.214 117.008 121.549 115.781 C 122.284 115.105,122.885 114.504,122.885 114.445 C 122.885 114.173,122.584 114.429,121.441 115.672 M359.194 115.494 L 358.148 116.652 359.305 115.606 C 359.942 115.030,360.463 114.509,360.463 114.448 C 360.463 114.173,360.169 114.415,359.194 115.494 M179.144 117.453 L 177.916 118.789 179.252 117.561 C 179.987 116.886,180.588 116.285,180.588 116.226 C 180.588 115.954,180.286 116.210,179.144 117.453 M118.767 118.344 L 117.720 119.501 118.878 118.455 C 119.957 117.480,120.199 117.186,119.924 117.186 C 119.863 117.186,119.342 117.707,118.767 118.344 M356.344 118.344 L 355.298 119.501 356.456 118.455 C 357.093 117.880,357.614 117.359,357.614 117.298 C 357.614 117.022,357.320 117.265,356.344 118.344 M176.469 120.125 L 175.423 121.282 176.581 120.236 C 177.217 119.661,177.738 119.140,177.738 119.079 C 177.738 118.803,177.444 119.046,176.469 120.125 M110.286 126.758 C 105.432 131.617,103.706 133.557,104.056 133.760 C 104.325 133.916,104.416 133.904,104.261 133.734 C 104.107 133.564,106.991 130.413,110.669 126.731 C 114.348 123.048,117.277 120.036,117.179 120.036 C 117.081 120.036,113.979 123.060,110.286 126.758 M353.495 121.193 L 352.449 122.351 353.606 121.305 C 354.243 120.729,354.764 120.208,354.764 120.147 C 354.764 119.872,354.470 120.114,353.495 121.193 M168.829 127.783 L 162.956 133.749 168.923 127.876 C 174.465 122.420,175.050 121.817,174.796 121.817 C 174.744 121.817,172.060 124.501,168.829 127.783 M345.303 129.386 L 344.256 130.543 345.414 129.497 C 346.051 128.922,346.572 128.401,346.572 128.339 C 346.572 128.064,346.278 128.307,345.303 129.386 M342.479 132.142 C 341.918 132.728,341.527 133.264,341.611 133.334 C 341.695 133.403,342.220 132.924,342.778 132.269 C 344.038 130.789,343.851 130.710,342.479 132.142 M21.728 133.215 C 21.728 133.424,22.974 133.571,24.755 133.571 C 26.536 133.571,27.783 133.424,27.783 133.215 C 27.783 133.005,26.536 132.858,24.755 132.858 C 22.974 132.858,21.728 133.005,21.728 133.215 M0.509 137.667 C 0.649 138.255,0.916 138.892,1.103 139.084 C 1.291 139.275,1.256 138.874,1.025 138.193 C 0.486 136.598,0.183 136.289,0.509 137.667 M14.725 245.770 C 14.697 299.546,14.779 343.914,14.906 344.367 C 15.117 345.114,15.088 214.755,14.867 167.587 C 14.817 156.812,14.753 191.995,14.725 245.770 M129.357 148.442 C 168.081 148.492,231.553 148.492,270.407 148.442 C 309.261 148.392,277.578 148.351,200.000 148.351 C 122.422 148.351,90.633 148.392,129.357 148.442 M385.216 243.989 C 385.216 296.785,385.257 318.384,385.307 291.986 C 385.358 265.588,385.358 222.391,385.307 195.993 C 385.257 169.595,385.216 191.193,385.216 243.989 M313.980 237.222 C 313.721 237.642,320.413 237.652,323.419 237.237 C 324.891 237.033,323.988 236.953,319.789 236.916 C 316.392 236.885,314.114 237.005,313.980 237.222 M71.755 240.516 L 70.347 242.030 71.861 240.622 C 73.269 239.313,73.539 239.003,73.269 239.003 C 73.211 239.003,72.530 239.684,71.755 240.516 M65.876 246.037 L 64.648 247.373 65.984 246.146 C 67.227 245.003,67.483 244.702,67.211 244.702 C 67.152 244.702,66.551 245.303,65.876 246.037 M326.091 248.837 L 324.666 250.112 326.180 248.980 C 327.483 248.005,327.953 247.536,327.605 247.557 C 327.556 247.559,326.874 248.136,326.091 248.837 M60.087 251.302 C 59.537 251.786,59.229 252.182,59.402 252.182 C 59.574 252.182,60.092 251.781,60.552 251.291 C 61.617 250.158,61.381 250.164,60.087 251.302 M144.651 251.490 C 144.183 251.880,143.875 252.275,143.967 252.367 C 144.059 252.460,144.511 252.135,144.970 251.646 C 145.970 250.582,145.826 250.512,144.651 251.490 M312.269 259.851 C 311.719 260.335,311.411 260.730,311.583 260.730 C 311.756 260.730,312.274 260.329,312.734 259.840 C 313.798 258.707,313.563 258.712,312.269 259.851 M171.327 265.760 C 170.085 266.849,170.085 266.850,171.227 266.090 C 171.858 265.671,172.468 265.175,172.584 264.988 C 172.927 264.432,172.642 264.607,171.327 265.760 M336.591 270.614 L 333.215 274.087 336.765 270.703 C 338.718 268.842,340.388 267.280,340.476 267.231 C 340.563 267.182,340.485 267.142,340.302 267.142 C 340.118 267.142,338.449 268.704,336.591 270.614 M73.909 270.913 L 72.841 271.831 73.998 271.065 C 74.635 270.644,75.156 270.230,75.156 270.145 C 75.156 269.878,75.005 269.971,73.909 270.913 M321.814 285.396 L 310.775 296.527 321.906 285.487 C 328.028 279.416,333.037 274.407,333.037 274.357 C 333.037 274.105,332.074 275.052,321.814 285.396 M157.778 276.428 L 156.545 277.522 157.881 276.564 C 159.061 275.717,159.445 275.334,159.114 275.334 C 159.058 275.334,158.456 275.826,157.778 276.428 M340.212 283.526 C 340.212 285.191,340.341 287.275,340.498 288.157 C 340.724 289.426,340.788 288.944,340.803 285.841 C 340.814 283.687,340.685 281.603,340.516 281.211 C 340.314 280.740,340.211 281.524,340.212 283.526 M146.380 285.333 L 145.147 286.427 146.483 285.469 C 147.663 284.622,148.047 284.239,147.716 284.239 C 147.659 284.239,147.058 284.731,146.380 285.333 M132.573 296.064 C 132.338 296.299,132.146 296.620,132.146 296.776 C 132.146 297.441,177.964 297.108,178.695 296.438 C 179.069 296.095,179.195 295.932,178.974 296.074 C 178.207 296.572,132.519 296.579,132.932 296.082 C 133.404 295.514,133.137 295.500,132.573 296.064 M222.665 296.115 C 221.911 297.022,222.824 297.061,244.832 297.061 C 259.890 297.061,266.812 296.945,266.564 296.697 C 266.321 296.455,258.922 296.365,244.439 296.430 C 227.062 296.508,222.753 296.437,223.048 296.082 C 223.251 295.837,223.337 295.637,223.239 295.637 C 223.142 295.637,222.883 295.852,222.665 296.115 M59.314 296.720 C 59.612 297.201,89.644 297.180,89.942 296.698 C 90.093 296.454,85.099 296.342,74.635 296.357 C 64.810 296.370,59.181 296.503,59.314 296.720 M311.309 296.705 C 310.959 296.931,315.920 297.052,325.667 297.056 C 335.505 297.060,340.484 296.941,340.338 296.705 C 340.044 296.230,312.045 296.230,311.309 296.705 M59.484 311.665 C 59.826 311.887,110.295 312.010,200.178 312.010 C 290.061 312.010,340.530 311.887,340.873 311.665 C 341.218 311.442,291.486 311.320,200.178 311.320 C 108.870 311.320,59.138 311.442,59.484 311.665 M340.733 329.682 C 340.359 330.654,340.485 339.448,340.873 339.448 C 341.094 339.448,341.229 337.489,341.229 334.283 C 341.229 329.197,341.161 328.566,340.733 329.682 M340.516 340.674 C 340.516 341.152,340.677 341.642,340.873 341.763 C 341.080 341.892,341.229 341.529,341.229 340.894 C 341.229 340.294,341.069 339.804,340.873 339.804 C 340.677 339.804,340.516 340.195,340.516 340.674 M384.526 342.743 C 384.157 343.960,384.067 344.774,384.320 344.617 C 384.475 344.522,384.673 343.960,384.759 343.370 C 384.918 342.291,384.778 341.914,384.526 342.743 M342.149 346.572 C 342.413 347.564,342.581 347.831,342.803 347.610 C 342.884 347.528,342.718 347.061,342.432 346.571 L 341.912 345.681 342.149 346.572 M22.281 354.748 C 22.479 354.945,23.196 355.192,23.876 355.295 C 25.130 355.486,24.893 355.335,22.982 354.726 C 22.269 354.499,22.040 354.506,22.281 354.748 M48.976 354.983 C 47.561 355.481,47.560 355.483,48.787 355.295 C 49.466 355.192,50.180 354.950,50.372 354.757 C 50.784 354.345,50.800 354.342,48.976 354.983 M373.485 354.808 C 372.713 354.989,371.992 355.228,371.882 355.339 C 371.595 355.629,374.431 355.086,375.067 354.729 C 375.725 354.360,375.309 354.381,373.485 354.808 " stroke="#040404" fill="none" stroke-width="3" class="XYzSwCDD_2"></path><path id="path3" d="M101.746 17.946 C 99.413 20.198,98.698 21.029,99.110 21.011 C 99.291 21.003,104.826 15.316,104.652 15.316 C 104.553 15.316,103.245 16.500,101.746 17.946 M110.722 67.155 C 82.247 95.667,55.784 122.149,51.915 126.004 C 48.045 129.860,44.880 133.142,44.880 133.299 C 44.880 133.455,71.407 107.027,103.829 74.570 C 136.251 42.114,162.778 15.504,162.778 15.437 C 162.778 15.067,158.253 19.563,110.722 67.155 M333.211 22.529 L 326.091 29.742 333.304 22.621 C 340.005 16.005,340.677 15.316,340.424 15.316 C 340.373 15.316,337.128 18.562,333.211 22.529 M385.190 22.440 C 385.190 26.456,385.242 28.099,385.306 26.091 C 385.369 24.083,385.369 20.797,385.306 18.789 C 385.242 16.781,385.190 18.424,385.190 22.440 M41.835 18.255 L 40.427 19.768 41.941 18.360 C 43.349 17.051,43.619 16.741,43.349 16.741 C 43.291 16.741,42.610 17.422,41.835 18.255 M38.074 21.460 C 37.782 21.705,37.317 22.226,37.040 22.618 C 36.763 23.010,37.051 22.860,37.681 22.284 C 38.310 21.709,38.825 21.188,38.825 21.127 C 38.825 20.917,38.605 21.015,38.074 21.460 M33.287 26.447 L 31.879 27.961 33.393 26.553 C 34.801 25.243,35.070 24.933,34.801 24.933 C 34.743 24.933,34.061 25.614,33.287 26.447 M321.988 33.749 L 318.255 37.578 322.084 33.844 C 324.190 31.791,325.913 30.068,325.913 30.015 C 325.913 29.758,325.456 30.192,321.988 33.749 M383.420 31.434 L 382.012 32.947 383.526 31.539 C 384.934 30.230,385.204 29.920,384.934 29.920 C 384.876 29.920,384.195 30.601,383.420 31.434 M26.987 32.089 L 25.824 33.190 27.159 32.225 C 27.894 31.694,28.495 31.199,28.495 31.124 C 28.495 30.793,28.069 31.065,26.987 32.089 M379.508 35.352 L 377.382 37.578 379.608 35.452 C 380.833 34.283,381.834 33.281,381.834 33.226 C 381.834 32.963,381.483 33.284,379.508 35.352 M24.558 34.817 L 23.330 36.153 24.666 34.926 C 25.401 34.251,26.002 33.649,26.002 33.590 C 26.002 33.318,25.700 33.574,24.558 34.817 M258.749 37.845 L 257.703 39.003 258.860 37.957 C 259.497 37.381,260.018 36.860,260.018 36.799 C 260.018 36.524,259.724 36.766,258.749 37.845 M17.453 41.368 C 16.572 42.168,16.171 42.658,16.563 42.457 C 17.233 42.113,19.548 39.881,19.212 39.903 C 19.126 39.909,18.335 40.568,17.453 41.368 M312.011 43.722 L 309.706 46.126 312.110 43.822 C 313.433 42.554,314.515 41.472,314.515 41.417 C 314.515 41.155,314.152 41.489,312.011 43.722 M246.571 49.661 C 243.192 53.043,240.427 55.913,240.427 56.039 C 240.427 56.166,243.255 53.462,246.710 50.030 C 250.166 46.599,252.930 43.729,252.854 43.652 C 252.777 43.575,249.950 46.280,246.571 49.661 M70.874 48.501 C 68.821 50.493,67.620 51.735,68.205 51.262 C 69.610 50.124,75.019 44.880,74.788 44.880 C 74.689 44.880,72.928 46.509,70.874 48.501 M307.903 47.818 L 306.857 48.976 308.014 47.930 C 308.651 47.354,309.172 46.833,309.172 46.772 C 309.172 46.497,308.878 46.739,307.903 47.818 M187.533 50.296 C 186.162 51.706,185.601 52.379,186.287 51.789 C 187.998 50.319,190.527 47.729,190.252 47.730 C 190.128 47.730,188.905 48.885,187.533 50.296 M304.878 50.846 L 303.651 52.182 304.987 50.954 C 306.230 49.812,306.486 49.510,306.214 49.510 C 306.155 49.510,305.554 50.111,304.878 50.846 M177.294 60.376 C 173.425 64.195,170.388 67.320,170.544 67.320 C 170.701 67.320,173.385 64.771,176.510 61.656 C 183.087 55.098,184.707 53.428,184.487 53.430 C 184.399 53.431,181.162 56.557,177.294 60.376 M353.186 61.423 C 348.298 66.272,347.331 67.320,347.743 67.320 C 347.799 67.320,350.383 64.755,353.484 61.621 C 356.586 58.486,359.035 55.922,358.928 55.922 C 358.820 55.922,356.237 58.397,353.186 61.423 M294.011 61.710 L 292.965 62.867 294.123 61.821 C 294.760 61.246,295.280 60.725,295.280 60.664 C 295.280 60.388,294.987 60.631,294.011 61.710 M291.162 64.559 L 290.116 65.717 291.273 64.671 C 291.910 64.095,292.431 63.574,292.431 63.513 C 292.431 63.238,292.137 63.480,291.162 64.559 M224.930 71.683 L 218.522 78.183 225.022 71.776 C 228.598 68.252,231.523 65.326,231.523 65.275 C 231.523 65.022,230.883 65.644,224.930 71.683 M47.729 71.060 C 46.864 71.941,46.236 72.663,46.334 72.663 C 46.432 72.663,47.220 71.941,48.085 71.060 C 48.951 70.178,49.578 69.457,49.480 69.457 C 49.383 69.457,48.594 70.178,47.729 71.060 M41.496 77.375 C 38.327 80.561,38.544 80.796,41.776 77.678 C 43.464 76.050,44.902 74.326,44.447 74.477 C 44.391 74.496,43.063 75.800,41.496 77.375 M217.075 79.519 L 216.028 80.677 217.186 79.631 C 217.823 79.055,218.344 78.534,218.344 78.473 C 218.344 78.198,218.050 78.440,217.075 79.519 M153.673 83.793 L 152.627 84.951 153.785 83.905 C 154.864 82.930,155.106 82.636,154.831 82.636 C 154.769 82.636,154.248 83.157,153.673 83.793 M211.376 85.218 L 210.329 86.376 211.487 85.330 C 212.124 84.754,212.645 84.233,212.645 84.172 C 212.645 83.897,212.351 84.139,211.376 85.218 M146.905 90.561 L 145.859 91.719 147.017 90.672 C 148.096 89.697,148.338 89.403,148.063 89.403 C 148.002 89.403,147.481 89.924,146.905 90.561 M381.448 93.520 C 378.288 96.729,377.698 97.363,378.074 97.150 C 378.160 97.102,379.765 95.550,381.641 93.703 L 385.051 90.344 384.957 111.923 C 384.905 123.792,384.982 133.429,385.129 133.338 C 385.498 133.110,385.468 90.116,385.099 90.116 C 384.935 90.116,383.292 91.648,381.448 93.520 M144.056 93.411 L 143.010 94.568 144.167 93.522 C 145.246 92.547,145.489 92.253,145.214 92.253 C 145.152 92.253,144.631 92.774,144.056 93.411 M321.082 94.123 L 320.036 95.280 321.193 94.234 C 321.830 93.659,322.351 93.138,322.351 93.077 C 322.351 92.802,322.057 93.044,321.082 94.123 M18.868 99.644 L 16.563 102.048 18.967 99.743 C 21.200 97.602,21.534 97.240,21.272 97.240 C 21.217 97.240,20.135 98.321,18.868 99.644 M365.952 109.004 C 361.692 113.303,361.221 113.802,361.428 113.802 C 361.532 113.802,369.393 106.040,370.224 105.117 C 370.598 104.702,370.824 104.363,370.727 104.363 C 370.630 104.363,368.482 106.452,365.952 109.004 M354.181 120.840 C 352.979 122.063,351.376 123.650,350.619 124.367 C 348.533 126.344,342.355 132.775,343.321 131.965 C 344.273 131.166,355.456 120.028,356.171 119.167 C 357.177 117.955,356.256 118.729,354.181 120.840 M30.098 133.215 C 30.686 133.364,32.048 133.487,33.126 133.487 C 34.722 133.487,34.887 133.436,34.016 133.215 C 33.428 133.065,32.066 132.943,30.988 132.943 C 29.391 132.943,29.227 132.993,30.098 133.215 M395.260 144.388 C 394.710 144.838,394.476 145.206,394.739 145.206 C 395.002 145.206,395.500 144.832,395.844 144.375 C 396.619 143.348,396.529 143.350,395.260 144.388 M4.698 144.992 C 4.780 145.239,5.119 145.481,5.451 145.530 C 6.267 145.649,6.211 145.434,5.302 144.947 C 4.715 144.633,4.581 144.643,4.698 144.992 M59.292 148.976 C 59.198 149.221,59.164 165.850,59.215 185.931 L 59.309 222.440 59.396 185.663 L 59.484 148.887 199.998 148.887 L 340.513 148.887 340.606 185.841 L 340.698 222.796 340.785 185.663 L 340.873 148.531 200.167 148.531 C 87.930 148.531,59.427 148.621,59.292 148.976 M327.694 237.230 C 326.224 237.358,327.827 237.388,331.256 237.296 C 334.684 237.204,337.556 237.070,337.637 236.997 C 337.862 236.798,330.729 236.964,327.694 237.230 M59.286 237.677 C 59.190 237.928,59.159 241.254,59.217 245.068 L 59.322 252.004 59.403 244.798 L 59.484 237.592 67.053 237.488 L 74.622 237.385 67.041 237.303 C 61.153 237.240,59.422 237.323,59.286 237.677 M218.611 237.489 C 224.537 237.544,234.234 237.544,240.160 237.489 C 246.086 237.434,241.238 237.389,229.386 237.389 C 217.533 237.389,212.685 237.434,218.611 237.489 M298.586 237.484 C 299.522 237.558,300.965 237.557,301.792 237.482 C 302.618 237.407,301.852 237.347,300.089 237.348 C 298.326 237.349,297.650 237.410,298.586 237.484 M336.064 240.427 C 335.710 240.819,335.204 241.140,334.940 241.140 C 334.677 241.140,334.461 241.306,334.461 241.509 C 334.461 241.750,334.677 241.762,335.089 241.542 C 335.744 241.191,337.197 239.715,336.887 239.715 C 336.789 239.715,336.419 240.036,336.064 240.427 M318.611 254.541 C 317.970 255.086,317.839 255.303,318.284 255.082 C 318.937 254.758,320.162 253.585,319.812 253.619 C 319.739 253.626,319.199 254.041,318.611 254.541 M226.536 257.222 C 225.850 257.823,225.612 258.152,226.006 257.953 C 226.656 257.624,228.270 256.080,227.927 256.114 C 227.848 256.122,227.222 256.621,226.536 257.222 M340.287 270.882 C 340.286 272.645,340.346 273.411,340.421 272.584 C 340.495 271.758,340.496 270.315,340.423 269.379 C 340.349 268.442,340.288 269.118,340.287 270.882 M59.709 282.049 C 59.185 282.628,59.124 283.558,59.217 289.618 L 59.322 296.527 59.403 289.610 C 59.471 283.748,59.574 282.592,60.073 282.041 C 60.397 281.682,60.582 281.389,60.484 281.389 C 60.386 281.389,60.038 281.686,59.709 282.049 M191.075 285.812 C 190.695 286.090,190.478 286.412,190.593 286.527 C 190.709 286.642,191.094 286.415,191.449 286.022 C 192.206 285.186,192.051 285.099,191.075 285.812 M340.249 290.472 C 340.243 291.451,340.357 293.215,340.503 294.390 L 340.768 296.527 340.785 294.568 C 340.794 293.491,340.680 291.728,340.531 290.650 L 340.261 288.691 340.249 290.472 M133.038 295.991 C 132.683 296.384,132.508 296.705,132.651 296.705 C 133.026 296.705,134.041 295.632,133.848 295.439 C 133.759 295.350,133.394 295.598,133.038 295.991 M59.291 326.981 C 59.291 335.503,59.337 338.989,59.394 334.728 C 59.451 330.467,59.451 323.495,59.394 319.234 C 59.337 314.973,59.291 318.459,59.291 326.981 M340.784 321.065 C 340.378 323.711,340.468 327.751,340.908 326.649 C 341.098 326.173,341.208 324.330,341.152 322.553 C 341.060 319.616,341.027 319.481,340.784 321.065 M380.034 351.825 L 378.807 353.161 380.142 351.934 C 381.386 350.791,381.642 350.490,381.370 350.490 C 381.310 350.490,380.709 351.091,380.034 351.825 " stroke="#040404" fill="none" stroke-width="3" class="XYzSwCDD_3"></path><path id="path4" d="M14.766 29.386 C 14.766 37.222,14.813 40.377,14.871 36.397 C 14.928 32.416,14.928 26.005,14.870 22.149 C 14.813 18.293,14.766 21.549,14.766 29.386 M194.460 43.366 L 193.232 44.702 194.568 43.474 C 195.811 42.332,196.068 42.030,195.796 42.030 C 195.736 42.030,195.135 42.631,194.460 43.366 M191.317 46.319 C 190.459 47.095,189.905 47.729,190.087 47.729 C 190.268 47.729,191.042 47.088,191.808 46.305 C 193.581 44.489,193.333 44.496,191.317 46.319 M361.898 52.707 C 360.249 54.269,358.972 55.611,359.059 55.689 C 359.145 55.768,360.568 54.490,362.220 52.849 C 366.030 49.065,365.832 48.978,361.898 52.707 M235.015 61.264 C 233.053 63.224,231.537 64.826,231.646 64.826 C 231.755 64.826,233.470 63.224,235.458 61.264 C 237.446 59.305,238.962 57.703,238.827 57.703 C 238.692 57.703,236.977 59.305,235.015 61.264 M208.358 88.246 L 206.411 90.294 208.459 88.347 C 210.362 86.538,210.671 86.198,210.406 86.198 C 210.351 86.198,209.429 87.119,208.358 88.246 M197.484 99.110 L 196.438 100.267 197.596 99.221 C 198.232 98.646,198.753 98.125,198.753 98.063 C 198.753 97.788,198.459 98.030,197.484 99.110 M14.766 118.611 C 14.766 126.545,14.813 129.791,14.870 125.824 C 14.928 121.857,14.928 115.365,14.870 111.398 C 14.813 107.431,14.766 110.677,14.766 118.611 M27.783 133.215 C 27.783 133.411,28.544 133.552,29.475 133.529 C 30.985 133.491,31.052 133.457,30.098 133.215 C 28.522 132.814,27.783 132.814,27.783 133.215 M326.358 237.125 C 327.093 237.202,328.295 237.202,329.029 237.125 C 329.764 237.048,329.163 236.985,327.694 236.985 C 326.224 236.985,325.623 237.048,326.358 237.125 M322.618 237.473 C 323.059 237.558,323.780 237.558,324.221 237.473 C 324.662 237.388,324.301 237.319,323.419 237.319 C 322.538 237.319,322.177 237.388,322.618 237.473 M61.868 249.521 C 61.318 250.005,61.010 250.401,61.183 250.401 C 61.355 250.401,61.873 250.000,62.333 249.510 C 63.398 248.377,63.162 248.383,61.868 249.521 M340.606 290.828 C 340.610 291.612,340.683 291.890,340.768 291.447 C 340.854 291.004,340.850 290.363,340.761 290.023 C 340.672 289.682,340.602 290.045,340.606 290.828 M340.788 326.981 C 340.365 328.418,340.450 330.161,340.905 329.379 C 341.106 329.033,341.222 328.152,341.161 327.420 C 341.062 326.221,341.025 326.178,340.788 326.981 M33.037 356.098 C 35.240 356.161,38.847 356.161,41.051 356.098 C 43.255 356.036,41.451 355.985,37.044 355.985 C 32.636 355.985,30.833 356.036,33.037 356.098 " stroke="#040404" fill="none" stroke-width="3" class="XYzSwCDD_4"></path></g><style data-made-with="vivus-instant">.XYzSwCDD_0{stroke-dasharray:4784 4786;stroke-dashoffset:4785;animation:XYzSwCDD_draw_0 7200ms ease-out 0ms infinite,XYzSwCDD_fade 7200ms linear 0ms infinite;}.XYzSwCDD_1{stroke-dasharray:3652 3654;stroke-dashoffset:3653;animation:XYzSwCDD_draw_1 7200ms ease-out 0ms infinite,XYzSwCDD_fade 7200ms linear 0ms infinite;}.XYzSwCDD_2{stroke-dasharray:3750 3752;stroke-dashoffset:3751;animation:XYzSwCDD_draw_2 7200ms ease-out 0ms infinite,XYzSwCDD_fade 7200ms linear 0ms infinite;}.XYzSwCDD_3{stroke-dasharray:2123 2125;stroke-dashoffset:2124;animation:XYzSwCDD_draw_3 7200ms ease-out 0ms infinite,XYzSwCDD_fade 7200ms linear 0ms infinite;}.XYzSwCDD_4{stroke-dasharray:194 196;stroke-dashoffset:195;animation:XYzSwCDD_draw_4 7200ms ease-out 0ms infinite,XYzSwCDD_fade 7200ms linear 0ms infinite;}@keyframes XYzSwCDD_draw{100%{stroke-dashoffset:0;}}@keyframes XYzSwCDD_fade{0%{stroke-opacity:1;}94.44444444444444%{stroke-opacity:1;}100%{stroke-opacity:0;}}@keyframes XYzSwCDD_draw_0{11.11111111111111%{stroke-dashoffset: 4785}52.77777777777778%{ stroke-dashoffset: 0;}100%{ stroke-dashoffset: 0;}}@keyframes XYzSwCDD_draw_1{11.11111111111111%{stroke-dashoffset: 3653}52.77777777777778%{ stroke-dashoffset: 0;}100%{ stroke-dashoffset: 0;}}@keyframes XYzSwCDD_draw_2{11.11111111111111%{stroke-dashoffset: 3751}52.77777777777778%{ stroke-dashoffset: 0;}100%{ stroke-dashoffset: 0;}}@keyframes XYzSwCDD_draw_3{11.11111111111111%{stroke-dashoffset: 2124}52.77777777777778%{ stroke-dashoffset: 0;}100%{ stroke-dashoffset: 0;}}@keyframes XYzSwCDD_draw_4{11.11111111111111%{stroke-dashoffset: 195}52.77777777777778%{ stroke-dashoffset: 0;}100%{ stroke-dashoffset: 0;}}</style></svg>