<svg id="svg" version="1.1" width="400" height="400" xmlns="http://www.w3.org/2000/svg" xmlns:xlink="http://www.w3.org/1999/xlink" style=""><g id="svgg"><path id="path0" d="M105.482 9.149 C 83.767 16.886,77.374 44.067,93.481 60.175 C 96.909 63.603,104.281 67.887,106.751 67.887 C 107.707 67.887,107.820 69.835,107.820 86.348 L 107.820 104.810 117.840 114.845 L 127.859 124.880 120.991 126.234 C 107.542 128.887,96.170 134.855,86.356 144.411 L 80.526 150.087 65.221 134.772 L 49.917 119.457 49.917 107.649 C 49.917 98.649,50.115 95.839,50.749 95.834 C 60.948 95.754,71.736 79.477,71.106 65.120 C 69.523 29.059,16.169 26.696,10.623 62.441 C 8.444 76.484,18.558 93.525,30.648 96.180 L 32.612 96.612 32.612 112.028 L 32.612 127.444 48.674 143.516 L 64.736 159.588 60.996 160.675 C 18.514 173.025,1.272 228.492,28.628 264.797 C 42.405 283.080,58.618 290.804,84.359 291.348 L 98.502 291.647 98.502 285.695 L 98.502 279.744 86.664 279.315 C 61.780 278.414,44.213 268.914,34.147 250.915 C 14.807 216.333,37.017 172.457,75.840 168.550 L 80.771 168.053 83.743 163.149 C 95.929 143.042,120.294 132.430,142.883 137.391 C 144.880 137.830,144.911 137.792,146.661 132.864 C 164.385 82.938,236.092 85.481,251.840 136.594 C 252.126 137.523,252.622 137.652,254.384 137.260 C 260.284 135.945,276.333 136.773,282.196 138.695 C 295.401 143.022,305.785 150.948,313.135 162.310 C 316.048 166.814,316.262 166.989,319.308 167.366 C 363.713 172.867,385.312 221.409,358.869 256.276 C 347.201 271.661,332.574 278.203,309.845 278.203 L 298.835 278.203 298.835 284.268 L 298.835 290.334 312.646 290.017 C 324.833 289.738,327.238 289.494,333.111 287.942 C 395.767 271.384,398.773 178.483,337.271 159.350 C 335.166 158.695,333.444 157.987,333.444 157.777 C 333.444 157.566,340.632 150.211,349.418 141.431 L 365.391 125.468 365.391 110.484 L 365.391 95.501 369.218 94.012 C 402.689 80.992,388.572 29.377,353.140 35.228 C 322.535 40.282,317.979 85.088,347.135 94.279 L 350.749 95.418 350.749 106.782 L 350.749 118.147 334.851 134.035 L 318.952 149.922 314.006 144.976 C 304.002 134.972,290.884 128.240,276.523 125.739 L 272.059 124.961 282.120 114.886 L 292.180 104.810 292.180 86.348 C 292.180 71.189,292.342 67.887,293.089 67.887 C 295.609 67.887,303.615 62.950,306.888 59.378 C 325.021 39.586,311.320 7.987,284.606 7.987 C 257.349 7.987,243.593 39.799,262.298 59.577 C 265.528 62.992,273.577 67.887,275.963 67.887 C 276.705 67.887,276.872 70.676,276.872 83.037 L 276.872 98.187 267.168 107.829 L 257.464 117.471 256.353 115.824 C 229.790 76.472,170.728 75.003,145.124 113.058 L 142.272 117.297 132.367 107.409 L 122.463 97.521 122.463 82.704 C 122.463 69.538,122.582 67.887,123.532 67.887 C 130.834 67.887,142.091 56.392,144.737 46.233 C 150.803 22.944,127.788 1.201,105.482 9.149 M121.114 25.849 C 130.978 31.836,130.372 46.264,120.037 51.484 C 108.548 57.286,95.879 46.638,99.490 34.214 C 102.191 24.923,112.816 20.813,121.114 25.849 M287.911 24.273 C 296.825 26.920,300.895 37.490,296.171 45.727 C 291.459 53.943,281.164 55.527,273.921 49.151 C 262.149 38.789,272.831 19.794,287.911 24.273 M47.587 54.071 C 56.412 58.717,58.102 70.248,50.998 77.352 C 38.884 89.466,19.600 74.331,28.278 59.521 C 32.111 52.980,40.837 50.517,47.587 54.071 M365.572 55.034 C 373.196 60.317,374.016 70.640,367.342 77.314 C 360.537 84.119,349.627 82.987,344.694 74.965 C 336.376 61.437,352.542 46.004,365.572 55.034 M188.028 112.222 C 174.335 115.533,162.035 127.363,158.503 140.621 C 157.850 143.071,157.898 143.180,160.281 144.688 C 170.935 151.434,178.349 161.260,176.086 165.635 C 173.027 171.549,168.924 171.267,162.846 164.723 C 144.666 145.151,114.001 146.020,97.758 166.569 C 94.402 170.815,94.474 171.200,98.912 172.709 C 114.622 178.048,130.028 194.559,125.789 201.511 C 122.647 206.665,119.237 206.052,113.731 199.343 C 97.038 179.004,70.423 177.106,52.550 194.979 C 30.085 217.444,39.511 254.094,70.549 264.967 C 75.018 266.532,119.135 267.881,119.135 266.452 C 119.135 266.159,116.817 263.589,113.985 260.740 L 108.836 255.560 127.959 236.437 L 147.082 217.314 157.642 227.858 C 171.564 241.760,170.667 242.126,170.894 222.454 L 171.073 206.988 198.348 206.988 L 225.624 206.988 225.624 222.251 C 225.624 242.342,224.841 242.028,239.194 227.694 L 249.928 216.975 269.213 236.268 L 288.498 255.562 283.602 260.491 C 280.839 263.273,278.903 265.740,279.159 266.154 C 280.054 267.602,317.030 267.117,323.046 265.578 C 356.111 257.122,367.735 217.904,344.162 194.331 C 324.339 174.508,293.230 179.593,279.395 204.919 C 276.344 210.504,267.554 208.463,267.554 202.169 C 267.554 193.589,286.064 176.210,299.334 172.330 C 302.880 171.293,302.861 171.024,298.860 165.601 C 282.953 144.040,252.014 144.336,232.898 166.233 C 228.385 171.403,222.955 170.754,220.993 164.811 C 219.632 160.685,225.857 152.706,235.665 146.004 L 240.121 142.959 239.475 140.531 C 233.942 119.733,210.444 106.803,188.028 112.222 M185.691 233.785 L 185.691 247.271 181.471 248.480 C 179.150 249.144,174.595 251.021,171.349 252.651 L 165.447 255.613 156.265 246.448 L 147.082 237.283 137.940 246.426 L 128.797 255.568 138.000 264.789 L 147.204 274.010 144.568 279.268 C 143.119 282.160,141.237 286.697,140.386 289.351 L 138.839 294.176 125.992 294.176 L 113.145 294.176 113.145 306.489 L 113.145 318.802 126.347 318.802 L 139.549 318.802 140.701 322.962 C 141.334 325.250,143.222 329.922,144.895 333.344 L 147.937 339.566 138.860 348.661 L 129.783 357.755 138.611 366.565 C 143.466 371.410,147.730 375.374,148.087 375.374 C 148.443 375.374,152.678 371.438,157.499 366.628 L 166.263 357.882 172.483 360.943 C 175.903 362.627,180.574 364.516,182.862 365.140 L 187.022 366.275 187.022 378.811 L 187.022 391.348 199.653 391.348 L 212.285 391.348 212.465 378.306 L 212.646 365.265 217.319 363.784 C 219.890 362.969,224.380 361.052,227.297 359.523 L 232.600 356.744 241.758 365.884 L 250.915 375.023 259.900 366.056 L 268.886 357.089 259.837 348.024 L 250.789 338.958 254.159 332.089 C 256.012 328.312,257.885 323.627,258.321 321.679 L 259.114 318.136 272.319 318.136 L 285.524 318.136 285.524 305.491 L 285.524 292.845 272.370 292.845 L 259.217 292.845 258.407 289.351 C 257.962 287.429,256.062 282.748,254.186 278.947 L 250.775 272.038 259.831 262.965 L 268.886 253.892 259.900 244.925 L 250.915 235.958 241.431 245.423 L 231.947 254.888 225.497 251.652 C 221.949 249.872,217.307 247.991,215.180 247.472 L 211.314 246.529 211.134 233.414 L 210.954 220.300 198.322 220.300 L 185.691 220.300 185.691 233.785 M212.788 263.830 C 244.126 273.975,253.471 313.783,229.993 337.115 C 203.753 363.192,160.195 348.014,155.004 310.984 C 150.575 279.380,181.889 253.827,212.788 263.830 M189.462 277.550 C 162.376 287.122,162.212 325.797,189.221 334.186 C 214.724 342.107,237.321 316.172,225.622 292.408 C 219.310 279.585,202.845 272.820,189.462 277.550 " stroke="#000000" fill="none" stroke-width="3" class="fgYFiyqq_0"></path></g><style data-made-with="vivus-instant">.fgYFiyqq_0{stroke-dasharray:5458 5460;stroke-dashoffset:5459;animation:fgYFiyqq_draw_0 5500ms linear 0ms infinite,fgYFiyqq_fade 5500ms linear 0ms infinite;}@keyframes fgYFiyqq_draw{100%{stroke-dashoffset:0;}}@keyframes fgYFiyqq_fade{0%{stroke-opacity:1;}92.72727272727273%{stroke-opacity:1;}100%{stroke-opacity:0;}}@keyframes fgYFiyqq_draw_0{5.454545454545454%{stroke-dashoffset: 5459}78.18181818181819%{ stroke-dashoffset: 0;}100%{ stroke-dashoffset: 0;}}</style></svg>