<svg id="svg" version="1.1" width="400" height="400" xmlns="http://www.w3.org/2000/svg" xmlns:xlink="http://www.w3.org/1999/xlink" style=""><g id="svgg"><path id="path0" d="M227.988 71.575 C 221.366 73.451,220.098 80.798,225.508 85.944 C 234.121 94.135,238.719 95.158,267.313 95.238 C 271.128 95.249,271.500 95.289,271.504 95.688 C 271.506 95.928,273.347 103.530,275.593 112.580 C 279.656 128.943,279.676 129.037,279.152 129.361 C 278.862 129.541,259.234 140.121,235.534 152.874 L 192.443 176.060 191.548 175.164 C 191.055 174.672,177.476 160.061,161.372 142.697 C 132.107 111.141,132.092 111.125,132.983 111.063 C 145.361 110.201,152.868 107.970,156.711 104.011 C 159.499 101.138,159.457 97.297,156.622 95.875 C 155.641 95.383,155.126 95.375,124.250 95.375 L 92.875 95.375 91.801 95.948 C 88.312 97.811,87.404 99.689,87.292 105.271 C 87.002 119.758,90.912 121.736,108.250 115.875 L 113.125 114.227 114.500 115.703 C 132.300 134.812,177.614 183.819,177.584 183.930 C 177.562 184.013,171.149 187.524,163.334 191.733 C 155.519 195.942,148.152 199.912,146.963 200.556 L 144.800 201.725 142.928 199.175 C 117.693 164.812,70.885 156.404,35.500 179.878 C -0.991 204.087,-11.028 253.352,13.116 289.750 C 37.114 325.926,84.031 335.946,127.625 314.205 L 132.125 311.960 132.983 313.043 C 142.015 324.433,157.172 328.464,170.024 322.895 C 173.695 321.304,187.015 313.532,188.283 312.242 C 191.104 309.370,191.235 305.509,188.651 301.347 L 188.013 300.320 195.301 296.472 C 201.291 293.310,202.843 292.380,204.013 291.250 C 209.315 286.132,205.505 277.412,198.136 277.798 L 196.072 277.907 188.180 282.078 C 183.839 284.373,180.190 286.250,180.070 286.250 C 179.853 286.250,170.244 269.909,170.257 269.561 C 170.261 269.459,174.146 267.359,178.891 264.895 C 185.640 261.390,187.714 260.199,188.413 259.425 C 193.171 254.159,189.670 246.000,182.653 246.000 C 180.496 246.000,180.488 246.003,170.790 251.074 C 163.615 254.825,162.153 255.506,161.889 255.219 C 161.715 255.030,160.772 253.509,159.794 251.839 C 156.532 246.268,152.696 244.617,148.250 246.868 C 145.639 248.191,133.370 255.321,131.750 256.458 C 119.310 265.186,115.355 283.273,122.987 296.534 L 123.941 298.192 119.283 300.459 C 106.466 306.695,97.826 308.815,82.875 309.395 C 24.604 311.653,-6.232 242.871,34.467 201.418 C 57.081 178.384,93.612 176.304,118.858 196.611 C 123.837 200.616,131.231 208.780,130.418 209.375 C 130.227 209.514,115.857 217.277,98.484 226.627 C 65.000 244.646,65.461 244.373,64.260 246.855 C 60.969 253.653,68.337 260.749,75.146 257.340 C 75.959 256.933,123.179 231.531,180.079 200.892 C 237.021 170.230,283.623 145.283,283.732 145.404 C 284.018 145.722,290.343 171.240,290.177 171.406 C 290.100 171.483,288.873 172.020,287.450 172.600 C 235.033 193.962,221.318 262.079,261.369 302.131 C 309.845 350.606,392.388 318.960,396.752 250.226 C 399.833 201.679,355.799 160.600,307.830 167.272 C 306.796 167.416,305.918 167.498,305.879 167.454 C 305.640 167.186,287.051 92.345,285.866 86.875 C 285.087 83.280,283.664 81.269,281.022 80.030 L 279.625 79.375 264.500 79.212 C 241.743 78.967,241.131 78.876,237.260 75.148 C 233.601 71.625,231.148 70.680,227.988 71.575 M325.375 183.145 C 369.014 188.589,393.850 235.696,373.835 275.060 C 354.487 313.113,302.913 321.174,272.619 290.881 C 244.480 262.741,249.018 215.587,281.991 193.512 C 286.623 190.411,293.956 186.723,294.284 187.330 C 294.371 187.492,297.892 201.294,302.107 218.000 C 307.659 240.006,309.980 248.808,310.531 249.948 C 313.308 255.692,321.821 255.628,324.652 249.843 C 326.083 246.917,326.437 248.729,317.664 214.125 C 313.341 197.075,309.834 183.092,309.871 183.052 C 310.323 182.559,321.195 182.624,325.375 183.145 M160.194 284.265 C 166.302 294.775,171.348 303.492,171.407 303.635 C 171.553 303.992,164.241 308.096,162.328 308.731 C 156.449 310.683,149.497 308.495,145.706 303.500 C 144.955 302.511,137.584 289.891,136.471 287.690 C 133.682 282.175,134.824 275.641,139.364 271.125 C 141.285 269.214,148.122 264.864,148.856 265.085 C 148.984 265.123,154.086 273.754,160.194 284.265 " stroke="#000000" fill="none" stroke-width="3" class="jdhdXaNT_0"></path></g><style data-made-with="vivus-instant">.jdhdXaNT_0{stroke-dasharray:3201 3203;stroke-dashoffset:3202;animation:jdhdXaNT_draw_0 4500ms linear 0ms infinite,jdhdXaNT_fade 4500ms linear 0ms infinite;}@keyframes jdhdXaNT_draw{100%{stroke-dashoffset:0;}}@keyframes jdhdXaNT_fade{0%{stroke-opacity:1;}91.11111111111111%{stroke-opacity:1;}100%{stroke-opacity:0;}}@keyframes jdhdXaNT_draw_0{6.666666666666667%{stroke-dashoffset: 3202}73.33333333333333%{ stroke-dashoffset: 0;}100%{ stroke-dashoffset: 0;}}</style></svg>
