<svg id="svg" version="1.1" width="400" height="400" xmlns="http://www.w3.org/2000/svg" xmlns:xlink="http://www.w3.org/1999/xlink" style=""><g id="svgg"><path id="path0" d="M111.639 68.358 C 109.766 70.232,109.599 70.806,109.599 75.374 C 109.599 85.790,109.796 85.864,137.626 85.864 L 159.162 85.864 159.162 92.845 L 159.162 99.825 137.284 99.825 C 110.520 99.825,112.552 99.304,96.811 110.209 L 84.592 118.674 74.407 118.674 L 64.223 118.674 64.223 147.993 L 64.223 177.312 57.592 177.312 L 50.960 177.312 50.960 151.585 L 50.960 125.858 49.248 124.011 C 46.761 121.328,36.773 121.223,33.721 123.849 L 31.763 125.534 31.763 187.358 L 31.763 249.183 33.620 251.040 C 36.867 254.288,46.006 254.232,49.293 250.945 L 50.960 249.278 50.960 223.417 L 50.960 197.557 57.592 197.557 L 64.223 197.557 64.223 226.527 L 64.223 255.497 77.146 255.497 L 90.069 255.497 119.390 277.500 L 148.710 299.504 215.891 299.315 L 283.072 299.127 286.562 297.268 C 295.244 292.643,298.762 286.075,298.772 274.474 L 298.778 266.574 300.583 266.795 C 302.182 266.991,302.844 268.086,306.411 276.440 L 310.436 285.864 334.393 285.864 L 358.349 285.864 365.911 268.849 L 373.473 251.834 373.473 209.490 L 373.473 167.146 365.940 150.065 L 358.408 132.984 334.389 132.984 L 310.371 132.984 306.233 142.583 C 300.975 154.777,298.778 156.042,298.778 146.876 C 298.778 141.773,298.688 141.480,296.405 139.197 L 294.031 136.824 281.745 136.824 L 269.459 136.824 269.459 126.826 C 269.459 112.174,266.807 106.585,257.741 102.133 L 253.752 100.175 231.937 99.955 L 210.122 99.736 210.122 92.800 L 210.122 85.864 229.564 85.864 C 255.027 85.864,255.497 85.674,255.497 75.374 C 255.497 70.806,255.330 70.232,253.457 68.358 L 251.416 66.318 182.548 66.318 L 113.680 66.318 111.639 68.358 " stroke="#000000" fill="none" stroke-width="3" class="vfqrPxUz_0"></path></g><style data-made-with="vivus-instant">.vfqrPxUz_0{stroke-dasharray:1514 1516;stroke-dashoffset:1515;animation:vfqrPxUz_draw_0 4500ms linear 0ms infinite,vfqrPxUz_fade 4500ms linear 0ms infinite;}@keyframes vfqrPxUz_draw{100%{stroke-dashoffset:0;}}@keyframes vfqrPxUz_fade{0%{stroke-opacity:1;}91.11111111111111%{stroke-opacity:1;}100%{stroke-opacity:0;}}@keyframes vfqrPxUz_draw_0{6.666666666666667%{stroke-dashoffset: 1515}73.33333333333333%{ stroke-dashoffset: 0;}100%{ stroke-dashoffset: 0;}}</style></svg>