<svg id="svg" version="1.1" width="400" height="400" xmlns="http://www.w3.org/2000/svg" xmlns:xlink="http://www.w3.org/1999/xlink" style=""><g id="svgg"><path id="path0" d="M119.141 24.656 C 118.281 24.853,115.645 25.393,113.281 25.856 C 72.120 33.904,60.998 92.883,96.243 116.207 L 99.219 118.176 99.219 199.909 L 99.219 281.641 94.209 285.348 C 56.137 313.527,77.287 375.348,125.000 375.348 C 166.130 375.348,190.257 327.542,165.439 295.221 L 162.669 291.615 168.639 288.029 C 180.604 280.843,190.450 277.320,209.300 273.478 C 270.947 260.914,298.159 230.517,299.762 172.426 L 300.210 156.180 303.684 153.790 C 347.825 123.420,318.047 52.335,265.582 62.836 C 223.251 71.309,209.947 127.076,244.276 152.152 L 249.351 155.859 248.971 170.313 C 248.054 205.128,237.826 215.475,195.313 224.596 C 183.702 227.087,168.713 231.836,158.984 236.104 C 155.117 237.801,151.514 239.374,150.977 239.600 C 150.200 239.927,150.000 227.591,150.000 179.418 L 150.000 118.825 153.526 116.399 C 188.422 92.390,179.082 37.102,138.281 26.149 C 133.836 24.956,121.886 24.023,119.141 24.656 M137.084 48.311 C 160.377 59.211,160.219 90.787,136.815 101.837 C 117.872 110.781,95.720 96.315,95.720 75.000 C 95.720 53.488,117.759 39.268,137.084 48.311 M287.084 85.811 C 315.722 99.212,306.532 141.780,275.000 141.780 C 248.775 141.780,235.724 110.300,254.267 91.769 C 263.199 82.843,275.837 80.548,287.084 85.811 M137.084 298.311 C 165.722 311.712,156.532 354.280,125.000 354.280 C 98.775 354.280,85.724 322.800,104.267 304.269 C 113.199 295.343,125.837 293.048,137.084 298.311 " stroke="#000000" fill="none" stroke-width="3" class="cMHgnAGq_0"></path></g><style data-made-with="vivus-instant">.cMHgnAGq_0{stroke-dasharray:1976 1978;stroke-dashoffset:1977;animation:cMHgnAGq_draw_0 3500ms linear 0ms infinite,cMHgnAGq_fade 3500ms linear 0ms infinite;}@keyframes cMHgnAGq_draw{100%{stroke-dashoffset:0;}}@keyframes cMHgnAGq_fade{0%{stroke-opacity:1;}88.57142857142857%{stroke-opacity:1;}100%{stroke-opacity:0;}}@keyframes cMHgnAGq_draw_0{8.571428571428571%{stroke-dashoffset: 1977}65.71428571428571%{ stroke-dashoffset: 0;}100%{ stroke-dashoffset: 0;}}</style></svg>