<svg id="svg" version="1.1" width="400" height="400" xmlns="http://www.w3.org/2000/svg" xmlns:xlink="http://www.w3.org/1999/xlink" style=""><g id="svgg"><path id="path0" d="M263.046 12.965 C 252.886 15.686,244.548 17.967,244.517 18.032 C 244.039 19.047,236.972 47.816,236.994 48.659 C 237.027 49.918,249.177 63.254,249.760 62.671 C 249.952 62.480,251.944 55.603,254.188 47.390 C 256.432 39.176,258.462 32.142,258.700 31.758 C 258.937 31.373,265.357 29.388,272.965 27.347 C 289.644 22.871,288.297 24.117,286.039 15.254 C 283.784 6.405,286.519 6.677,263.046 12.965 M300.765 36.799 C 300.599 37.071,298.927 43.196,297.049 50.410 C 295.172 57.624,293.395 64.159,293.101 64.932 C 292.652 66.111,290.120 67.023,277.307 70.620 C 268.913 72.976,262.046 75.061,262.046 75.253 C 262.046 75.445,264.942 78.480,268.482 81.998 L 274.917 88.394 290.748 84.417 C 299.455 82.230,306.678 80.341,306.799 80.219 C 307.159 79.859,316.172 42.121,316.172 40.974 C 316.172 39.574,301.499 35.598,300.765 36.799 M218.963 66.515 C 212.562 72.945,212.513 73.051,214.876 75.271 L 216.551 76.844 170.175 123.224 L 123.799 169.603 126.091 170.394 C 137.452 174.312,150.153 184.993,155.189 194.864 C 155.890 196.237,156.678 197.360,156.942 197.360 C 157.206 197.360,177.633 177.151,202.335 152.450 L 247.248 107.541 248.822 109.216 C 251.060 111.598,251.211 111.526,257.761 104.946 L 263.678 99.000 244.550 79.863 C 234.029 69.338,225.264 60.726,225.073 60.726 C 224.882 60.726,222.132 63.331,218.963 66.515 M94.103 182.575 C 68.054 188.876,54.325 218.849,66.319 243.234 C 81.611 274.326,127.992 274.405,142.843 243.365 C 158.854 209.899,129.988 173.896,94.103 182.575 M116.316 200.147 C 138.432 210.350,136.095 242.496,112.721 249.596 C 88.298 257.014,69.094 227.531,85.148 207.262 C 91.897 198.740,106.193 195.476,116.316 200.147 M99.814 214.922 C 92.703 218.549,92.643 229.830,99.713 233.970 C 106.911 238.185,116.172 232.565,116.172 223.982 C 116.172 216.665,106.691 211.415,99.814 214.922 M141.914 268.971 C 133.794 275.697,124.026 279.913,113.404 281.275 C 110.179 281.689,107.626 282.233,107.731 282.484 C 107.835 282.735,115.644 294.870,125.083 309.451 L 142.244 335.962 167.892 335.968 C 188.143 335.972,193.473 335.800,193.221 335.149 C 192.551 333.422,147.148 265.348,146.688 265.382 C 146.422 265.401,144.274 267.016,141.914 268.971 M122.112 369.637 L 122.112 388.119 184.158 388.119 L 246.205 388.119 246.205 369.637 L 246.205 351.155 184.158 351.155 L 122.112 351.155 122.112 369.637 " stroke="#000000" fill="none" stroke-width="3" class="lDfbcybL_0"></path></g><style data-made-with="vivus-instant">.lDfbcybL_0{stroke-dasharray:1806 1808;stroke-dashoffset:1807;animation:lDfbcybL_draw_0 4500ms linear 0ms infinite,lDfbcybL_fade 4500ms linear 0ms infinite;}@keyframes lDfbcybL_draw{100%{stroke-dashoffset:0;}}@keyframes lDfbcybL_fade{0%{stroke-opacity:1;}91.11111111111111%{stroke-opacity:1;}100%{stroke-opacity:0;}}@keyframes lDfbcybL_draw_0{6.666666666666667%{stroke-dashoffset: 1807}73.33333333333333%{ stroke-dashoffset: 0;}100%{ stroke-dashoffset: 0;}}</style></svg>
