<svg id="svg" version="1.1" width="400" height="400" viewBox="0 0 400 400" xmlns="http://www.w3.org/2000/svg" xmlns:xlink="http://www.w3.org/1999/xlink" style=""><g id="svgg"><path id="path0" d="M195.900 0.276 C 195.515 0.376,195.200 0.625,195.200 0.829 C 195.200 1.033,194.930 1.200,194.600 1.200 C 194.270 1.200,194.000 1.365,194.000 1.567 C 194.000 2.065,190.960 5.200,190.478 5.200 C 190.266 5.200,188.904 6.325,187.451 7.700 C 185.998 9.075,183.626 11.280,182.179 12.600 C 180.732 13.920,177.672 16.845,175.379 19.100 C 173.086 21.355,171.051 23.200,170.858 23.200 C 170.665 23.200,169.517 24.145,168.306 25.300 C 167.095 26.455,164.704 28.660,162.993 30.200 C 161.281 31.740,158.243 34.621,156.241 36.603 C 154.238 38.585,151.970 40.643,151.200 41.177 C 150.430 41.711,148.019 43.915,145.841 46.074 C 143.664 48.233,141.731 50.000,141.546 50.000 C 141.361 50.000,139.319 51.890,137.009 54.200 C 134.699 56.510,132.716 58.400,132.601 58.400 C 132.238 58.400,129.896 60.502,126.800 63.607 C 125.150 65.262,123.170 67.061,122.400 67.605 C 121.630 68.149,119.362 70.215,117.360 72.197 C 115.358 74.179,112.945 76.425,111.997 77.189 C 111.050 77.953,108.902 79.938,107.225 81.600 C 105.547 83.262,103.550 85.065,102.787 85.608 C 102.024 86.150,99.766 88.215,97.769 90.197 C 95.772 92.179,93.439 94.340,92.586 95.000 C 91.732 95.660,89.762 97.460,88.207 99.000 C 86.653 100.540,84.686 102.323,83.836 102.962 C 82.568 103.916,79.211 107.174,76.919 109.675 C 76.655 109.964,76.205 110.382,75.919 110.604 C 75.634 110.825,74.592 111.635,73.604 112.404 C 72.616 113.172,70.352 115.240,68.572 117.000 C 66.793 118.760,64.721 120.687,63.968 121.282 C 63.216 121.876,62.111 122.866,61.514 123.482 C 58.693 126.385,57.570 127.467,56.528 128.285 C 53.811 130.416,52.016 132.004,48.934 135.000 C 47.124 136.760,44.278 139.460,42.611 141.000 C 40.943 142.540,38.994 144.340,38.280 145.000 C 37.566 145.660,36.086 146.920,34.991 147.800 C 33.896 148.680,31.535 150.885,29.744 152.700 C 27.953 154.515,26.374 156.000,26.236 156.000 C 26.097 156.000,25.043 156.903,23.892 158.006 C 19.697 162.029,16.825 164.635,14.861 166.200 C 13.757 167.080,12.640 168.295,12.378 168.900 C 12.117 169.505,11.745 170.000,11.551 170.000 C 11.358 170.000,11.200 170.302,11.200 170.672 C 11.200 171.041,10.981 171.948,10.714 172.688 C 10.332 173.743,10.332 174.200,10.714 174.811 C 10.981 175.239,11.200 175.959,11.200 176.411 C 11.200 177.258,11.651 177.961,12.945 179.128 C 13.354 179.498,13.926 180.025,14.216 180.300 C 14.506 180.575,15.116 180.800,15.571 180.800 C 16.027 180.800,16.400 180.980,16.400 181.200 C 16.400 181.462,23.933 181.600,38.200 181.600 L 60.000 181.600 60.004 287.700 C 60.009 403.832,59.867 396.154,62.053 398.407 L 63.599 400.000 199.967 400.000 L 336.335 400.000 337.967 398.431 C 339.030 397.410,339.600 396.511,339.600 395.855 C 339.600 395.301,339.780 394.736,340.000 394.600 C 340.265 394.436,340.400 358.463,340.400 287.976 L 340.400 181.600 361.976 181.600 C 375.929 181.600,383.640 181.459,383.800 181.200 C 383.936 180.980,384.305 180.800,384.619 180.800 C 385.161 180.800,386.346 179.980,387.345 178.914 C 388.543 177.634,388.800 177.159,388.800 176.217 C 388.800 175.658,388.980 175.200,389.200 175.200 C 389.420 175.200,389.600 174.581,389.600 173.824 C 389.600 173.067,389.420 172.336,389.200 172.200 C 388.980 172.064,388.800 171.513,388.800 170.976 C 388.800 170.439,388.620 170.000,388.400 170.000 C 388.180 170.000,388.000 169.775,388.000 169.500 C 387.999 168.872,386.622 167.316,384.800 165.884 C 383.183 164.613,379.332 161.131,376.193 158.100 C 374.996 156.945,373.917 156.000,373.793 156.000 C 373.670 156.000,372.001 154.425,370.085 152.500 C 368.168 150.575,365.790 148.370,364.800 147.600 C 363.810 146.830,362.429 145.660,361.730 145.000 C 361.032 144.340,359.093 142.540,357.422 141.000 C 355.750 139.460,352.796 136.662,350.858 134.781 C 347.872 131.885,345.414 129.733,342.885 127.800 C 342.597 127.580,342.145 127.160,341.881 126.867 C 340.277 125.090,336.795 121.750,335.610 120.853 C 334.845 120.274,332.763 118.360,330.982 116.600 C 329.201 114.840,326.866 112.680,325.794 111.800 C 324.722 110.920,322.446 108.819,320.737 107.131 C 319.027 105.443,316.958 103.553,316.138 102.931 C 315.319 102.309,312.753 99.955,310.437 97.700 C 308.121 95.445,306.083 93.600,305.908 93.600 C 305.734 93.600,303.701 91.710,301.391 89.400 C 299.081 87.090,297.021 85.200,296.813 85.200 C 296.605 85.200,294.751 83.535,292.693 81.500 C 290.636 79.465,288.343 77.350,287.599 76.800 C 286.855 76.250,284.616 74.179,282.623 72.197 C 280.630 70.215,278.370 68.155,277.600 67.620 C 276.830 67.084,275.930 66.309,275.600 65.899 C 274.089 64.018,267.973 58.400,267.438 58.400 C 267.302 58.400,265.319 56.555,263.030 54.300 C 260.742 52.045,257.298 48.760,255.377 47.000 C 253.455 45.240,251.505 43.436,251.042 42.991 C 250.579 42.547,249.570 41.738,248.800 41.194 C 248.030 40.651,245.755 38.585,243.743 36.603 C 241.732 34.621,238.714 31.740,237.036 30.200 C 235.357 28.660,232.974 26.455,231.738 25.300 C 230.503 24.145,229.333 23.200,229.137 23.200 C 228.942 23.200,226.930 21.355,224.666 19.100 C 222.402 16.845,219.344 13.920,217.870 12.600 C 216.396 11.280,214.002 9.075,212.549 7.700 C 211.096 6.325,209.658 5.200,209.354 5.200 C 209.049 5.200,208.800 5.025,208.800 4.811 C 208.800 4.188,205.231 0.792,204.141 0.378 C 203.151 0.001,197.230 -0.072,195.900 0.276 M203.609 19.707 C 205.265 21.298,207.515 23.394,208.609 24.364 C 209.704 25.334,211.770 27.229,213.200 28.576 C 214.630 29.923,220.120 34.979,225.400 39.812 C 230.680 44.645,235.378 48.960,235.839 49.400 C 236.300 49.840,237.380 50.833,238.239 51.606 C 239.098 52.379,243.117 56.069,247.172 59.806 C 251.226 63.543,255.826 67.770,257.393 69.200 C 258.960 70.630,265.624 76.750,272.201 82.800 C 278.778 88.850,285.338 94.863,286.779 96.161 C 288.221 97.460,290.761 99.800,292.423 101.361 C 295.545 104.292,302.678 110.838,306.196 114.000 C 307.297 114.990,309.369 116.912,310.799 118.270 C 312.230 119.629,313.780 121.069,314.246 121.470 C 315.259 122.345,318.816 125.598,322.430 128.956 C 325.301 131.624,326.526 132.748,334.000 139.578 C 336.750 142.091,340.272 145.329,341.828 146.773 C 343.383 148.218,345.633 150.290,346.828 151.378 C 348.022 152.465,350.081 154.355,351.401 155.578 C 352.722 156.800,355.827 159.666,358.301 161.947 C 360.776 164.228,362.800 166.242,362.800 166.423 C 362.800 166.603,355.465 166.807,346.500 166.876 L 330.200 167.000 328.731 167.994 C 325.486 170.189,325.825 158.214,325.600 278.600 L 325.400 385.800 297.900 385.903 L 270.400 386.006 270.404 352.103 L 270.407 318.200 279.987 308.664 L 289.568 299.127 290.884 299.532 C 308.209 304.861,321.984 283.836,310.307 269.889 C 300.906 258.660,283.810 262.143,278.346 276.400 C 277.515 278.568,277.654 285.356,278.578 287.726 L 279.329 289.652 268.709 300.326 C 262.868 306.197,257.754 311.630,257.345 312.400 C 256.637 313.731,256.595 315.584,256.490 349.900 L 256.380 386.000 248.590 386.000 L 240.800 386.000 240.800 311.895 L 240.800 237.791 247.159 231.441 C 253.082 225.526,253.596 225.110,254.659 225.368 C 263.884 227.608,269.742 226.163,274.959 220.362 C 286.319 207.726,275.817 187.488,259.000 189.609 C 247.446 191.066,241.149 200.818,243.425 213.732 L 243.695 215.264 235.447 223.571 C 230.911 228.140,227.158 231.951,227.106 232.039 C 227.054 232.128,226.919 266.760,226.806 309.000 L 226.600 385.800 218.499 385.908 L 210.399 386.017 210.499 252.728 L 210.600 119.439 212.176 118.620 C 214.139 117.599,218.188 113.902,218.912 112.470 C 219.209 111.882,219.645 111.040,219.880 110.600 C 229.346 92.862,205.838 75.156,190.788 88.687 C 181.810 96.759,183.654 113.647,194.045 118.509 C 194.840 118.881,195.695 119.432,195.945 119.734 C 196.285 120.143,196.376 154.176,196.301 253.042 L 196.200 385.800 188.000 385.800 L 179.800 385.800 179.600 290.400 C 179.432 210.428,179.311 194.838,178.849 194.000 C 178.546 193.450,175.058 189.730,171.096 185.733 C 164.966 179.548,163.928 178.327,164.124 177.533 C 164.250 177.020,164.631 175.520,164.971 174.200 C 170.253 153.648,139.626 142.232,130.633 161.400 C 128.858 165.183,128.643 166.110,128.643 170.000 C 128.643 182.267,141.024 191.602,152.272 187.815 C 153.019 187.564,154.069 188.453,159.573 193.997 L 166.002 200.474 165.901 293.137 L 165.800 385.800 157.710 385.908 L 149.619 386.017 149.510 331.108 L 149.400 276.200 148.513 274.774 C 148.025 273.990,143.108 268.860,137.586 263.374 C 126.049 251.913,126.611 252.634,127.424 250.336 C 133.410 233.409,112.885 218.690,98.679 229.722 C 83.353 241.623,94.068 265.884,113.181 262.556 L 116.562 261.968 126.082 271.482 L 135.603 280.997 135.501 333.398 L 135.400 385.800 105.000 385.800 L 74.600 385.800 74.400 278.600 C 74.175 158.214,74.514 170.189,71.269 167.994 L 69.800 167.000 53.500 166.879 C 44.535 166.813,37.200 166.605,37.200 166.418 C 37.200 166.231,39.225 164.228,41.700 161.966 C 48.512 155.741,55.080 149.698,58.200 146.785 C 59.740 145.346,63.070 142.286,65.600 139.985 C 68.130 137.683,70.471 135.530,70.801 135.200 C 71.132 134.870,72.304 133.790,73.407 132.800 C 75.504 130.916,82.419 124.577,87.588 119.800 C 89.254 118.260,92.683 115.102,95.209 112.781 C 97.734 110.461,102.140 106.413,105.000 103.785 C 107.860 101.157,110.401 98.825,110.646 98.603 C 110.891 98.381,111.971 97.387,113.046 96.394 C 118.333 91.506,129.647 81.133,131.975 79.039 C 133.419 77.740,135.962 75.400,137.627 73.839 C 139.292 72.277,141.545 70.190,142.634 69.200 C 143.722 68.210,147.940 64.342,152.006 60.604 C 156.073 56.867,160.297 52.997,161.394 52.004 C 162.491 51.012,164.831 48.840,166.594 47.177 C 168.357 45.514,170.896 43.174,172.236 41.977 C 176.794 37.902,192.281 23.653,196.861 19.318 C 200.147 16.209,199.959 16.198,203.609 19.707 M205.818 99.782 C 206.358 100.322,206.800 101.027,206.800 101.348 C 206.800 101.670,207.025 102.038,207.300 102.167 C 207.700 102.353,207.700 102.447,207.300 102.633 C 207.025 102.762,206.800 103.130,206.800 103.452 C 206.800 104.670,204.916 106.000,203.190 106.000 C 200.028 106.000,198.450 102.418,200.505 99.908 C 201.734 98.408,204.381 98.345,205.818 99.782 M148.000 166.400 C 148.000 166.620,148.295 166.800,148.656 166.800 C 149.717 166.800,150.374 168.063,150.387 170.129 C 150.400 172.120,149.782 173.200,148.629 173.200 C 148.283 173.200,148.000 173.380,148.000 173.600 C 148.000 174.538,145.861 173.941,144.560 172.640 C 142.748 170.828,142.730 169.269,144.500 167.416 C 145.750 166.108,148.000 165.454,148.000 166.400 M263.971 205.891 C 265.156 207.329,265.625 209.200,264.800 209.200 C 264.580 209.200,264.400 209.437,264.400 209.726 C 264.400 211.821,259.454 212.015,258.245 209.968 C 257.251 208.286,257.803 205.211,259.100 205.203 C 259.375 205.201,259.600 205.020,259.600 204.800 C 259.600 203.634,262.761 204.423,263.971 205.891 M113.101 242.701 C 114.956 246.633,110.293 249.839,107.247 246.724 C 106.036 245.485,105.487 243.200,106.400 243.200 C 106.620 243.200,106.800 242.854,106.800 242.432 C 106.800 241.904,107.174 241.581,107.995 241.401 C 108.653 241.257,109.284 240.987,109.398 240.803 C 109.784 240.179,112.589 241.618,113.101 242.701 M296.800 278.000 C 296.800 278.220,296.988 278.400,297.218 278.400 C 297.448 278.400,298.078 278.842,298.618 279.382 C 300.142 280.905,299.737 284.800,298.056 284.800 C 297.805 284.800,297.600 284.980,297.600 285.200 C 297.600 285.420,296.970 285.600,296.200 285.600 C 295.430 285.600,294.800 285.420,294.800 285.200 C 294.800 284.980,294.485 284.799,294.100 284.797 C 293.271 284.793,292.400 283.104,292.400 281.502 C 292.400 280.265,293.952 278.400,294.982 278.400 C 295.322 278.400,295.600 278.220,295.600 278.000 C 295.600 277.780,295.870 277.600,296.200 277.600 C 296.530 277.600,296.800 277.780,296.800 278.000 " stroke="#000000" fill="none" stroke-width="3" class="ONSDpBnL_0"></path><path id="path1" d="M196.861 19.318 C 192.281 23.653,176.794 37.902,172.236 41.977 C 170.896 43.174,168.357 45.514,166.594 47.177 C 164.831 48.840,162.491 51.012,161.394 52.004 C 160.297 52.997,156.073 56.867,152.006 60.604 C 147.940 64.342,143.722 68.210,142.634 69.200 C 141.545 70.190,139.292 72.277,137.627 73.839 C 135.962 75.400,133.419 77.740,131.975 79.039 C 129.647 81.133,118.333 91.506,113.046 96.394 C 111.971 97.387,110.891 98.381,110.646 98.603 C 110.401 98.825,107.860 101.157,105.000 103.785 C 102.140 106.413,97.734 110.461,95.209 112.781 C 92.683 115.102,89.254 118.260,87.588 119.800 C 82.419 124.577,75.504 130.916,73.407 132.800 C 72.304 133.790,71.132 134.870,70.801 135.200 C 70.471 135.530,68.130 137.683,65.600 139.985 C 63.070 142.286,59.740 145.346,58.200 146.785 C 55.080 149.698,48.512 155.741,41.700 161.966 C 39.225 164.228,37.200 166.231,37.200 166.418 C 37.200 166.605,44.535 166.813,53.500 166.879 L 69.800 167.000 71.269 167.994 C 74.514 170.189,74.175 158.214,74.400 278.600 L 74.600 385.800 105.000 385.800 L 135.400 385.800 135.501 333.398 L 135.603 280.997 126.082 271.482 L 116.562 261.968 113.181 262.556 C 94.068 265.884,83.353 241.623,98.679 229.722 C 112.885 218.690,133.410 233.409,127.424 250.336 C 126.611 252.634,126.049 251.913,137.586 263.374 C 143.108 268.860,148.025 273.990,148.513 274.774 L 149.400 276.200 149.510 331.108 L 149.619 386.017 157.710 385.908 L 165.800 385.800 165.901 293.137 L 166.002 200.474 159.573 193.997 C 154.069 188.453,153.019 187.564,152.272 187.815 C 143.177 190.877,133.050 185.360,129.169 175.228 C 128.481 173.432,128.481 166.568,129.169 164.772 C 132.498 156.080,138.563 151.600,147.000 151.600 C 159.105 151.600,167.928 162.695,164.971 174.200 C 164.631 175.520,164.250 177.020,164.124 177.533 C 163.928 178.327,164.966 179.548,171.096 185.733 C 175.058 189.730,178.546 193.450,178.849 194.000 C 179.311 194.838,179.432 210.428,179.600 290.400 L 179.800 385.800 188.000 385.800 L 196.200 385.800 196.301 253.042 C 196.376 154.176,196.285 120.143,195.945 119.734 C 195.695 119.432,194.840 118.881,194.045 118.509 C 183.654 113.647,181.810 96.759,190.788 88.687 C 205.838 75.156,229.346 92.862,219.880 110.600 C 219.645 111.040,219.209 111.882,218.912 112.470 C 218.188 113.902,214.139 117.599,212.176 118.620 L 210.600 119.439 210.499 252.728 L 210.399 386.017 218.499 385.908 L 226.600 385.800 226.806 309.000 C 226.919 266.760,227.054 232.128,227.106 232.039 C 227.158 231.951,230.911 228.140,235.447 223.571 L 243.695 215.264 243.425 213.732 C 241.149 200.818,247.446 191.066,259.000 189.609 C 275.817 187.488,286.319 207.726,274.959 220.362 C 269.742 226.163,263.884 227.608,254.659 225.368 C 253.596 225.110,253.082 225.526,247.159 231.441 L 240.800 237.791 240.800 311.895 L 240.800 386.000 248.590 386.000 L 256.380 386.000 256.490 349.900 C 256.595 315.584,256.637 313.731,257.345 312.400 C 257.754 311.630,262.868 306.197,268.709 300.326 L 279.329 289.652 278.578 287.726 C 277.654 285.356,277.515 278.568,278.346 276.400 C 283.810 262.143,300.906 258.660,310.307 269.889 C 321.984 283.836,308.209 304.861,290.884 299.532 L 289.568 299.127 279.987 308.664 L 270.407 318.200 270.404 352.103 L 270.400 386.006 297.900 385.903 L 325.400 385.800 325.600 278.600 C 325.825 158.214,325.486 170.189,328.731 167.994 L 330.200 167.000 346.500 166.876 C 355.465 166.807,362.800 166.603,362.800 166.423 C 362.800 166.242,360.776 164.228,358.301 161.947 C 355.827 159.666,352.722 156.800,351.401 155.578 C 350.081 154.355,348.022 152.465,346.828 151.378 C 345.633 150.290,343.383 148.218,341.828 146.773 C 340.272 145.329,336.750 142.091,334.000 139.578 C 326.526 132.748,325.301 131.624,322.430 128.956 C 318.816 125.598,315.259 122.345,314.246 121.470 C 313.780 121.069,312.230 119.629,310.799 118.270 C 309.369 116.912,307.297 114.990,306.196 114.000 C 302.678 110.838,295.545 104.292,292.423 101.361 C 290.761 99.800,288.221 97.460,286.779 96.161 C 285.338 94.863,278.778 88.850,272.201 82.800 C 265.624 76.750,258.960 70.630,257.393 69.200 C 255.826 67.770,251.226 63.543,247.172 59.806 C 243.117 56.069,239.098 52.379,238.239 51.606 C 237.380 50.833,236.300 49.840,235.839 49.400 C 235.378 48.960,230.680 44.645,225.400 39.812 C 220.120 34.979,214.630 29.923,213.200 28.576 C 211.770 27.229,209.704 25.334,208.609 24.364 C 207.515 23.394,205.265 21.298,203.609 19.707 C 199.959 16.198,200.147 16.209,196.861 19.318 " stroke="#000000" fill="none" stroke-width="3" class="ONSDpBnL_1"></path></g><style data-made-with="vivus-instant">.ONSDpBnL_0{stroke-dasharray:4862 4864;stroke-dashoffset:4863;animation:ONSDpBnL_draw_0 4500ms linear 0ms infinite,ONSDpBnL_fade 4500ms linear 0ms infinite;}.ONSDpBnL_1{stroke-dasharray:3406 3408;stroke-dashoffset:3407;animation:ONSDpBnL_draw_1 4500ms linear 0ms infinite,ONSDpBnL_fade 4500ms linear 0ms infinite;}@keyframes ONSDpBnL_draw{100%{stroke-dashoffset:0;}}@keyframes ONSDpBnL_fade{0%{stroke-opacity:1;}91.11111111111111%{stroke-opacity:1;}100%{stroke-opacity:0;}}@keyframes ONSDpBnL_draw_0{6.666666666666667%{stroke-dashoffset: 4863}73.33333333333333%{ stroke-dashoffset: 0;}100%{ stroke-dashoffset: 0;}}@keyframes ONSDpBnL_draw_1{6.666666666666667%{stroke-dashoffset: 3407}73.33333333333333%{ stroke-dashoffset: 0;}100%{ stroke-dashoffset: 0;}}</style></svg>
