<svg id="svg" version="1.1" width="400" height="400" xmlns="http://www.w3.org/2000/svg" xmlns:xlink="http://www.w3.org/1999/xlink" style=""><g id="svgg"><path id="path0" d="M131.467 40.830 C 128.230 42.965,126.872 45.648,126.872 49.913 C 126.872 59.630,128.698 60.302,155.113 60.307 L 176.776 60.312 176.776 66.551 L 176.776 72.790 189.255 72.790 L 201.733 72.790 201.733 66.551 L 201.733 60.312 221.317 60.307 C 239.334 60.303,241.060 60.198,242.883 58.996 C 249.218 54.820,249.218 45.007,242.883 40.830 C 239.796 38.795,134.554 38.795,131.467 40.830 M133.379 86.590 C 126.808 89.574,123.653 94.480,122.363 103.722 C 121.027 113.284,117.895 117.880,110.535 121.076 C 108.284 122.053,104.664 122.334,90.121 122.662 C 70.543 123.103,70.305 123.155,65.442 128.018 C 59.972 133.488,60.342 127.985,60.342 203.813 C 60.342 279.641,59.972 274.137,65.442 279.607 C 70.550 284.715,69.395 284.536,99.827 284.925 C 135.926 285.387,134.428 284.747,144.569 304.017 C 150.397 315.092,153.246 318.828,157.665 321.194 L 160.485 322.704 217.972 322.893 C 283.300 323.107,279.824 323.381,285.585 317.578 C 288.478 314.663,289.898 311.722,301.847 283.882 C 319.520 242.707,317.073 245.266,339.341 244.674 C 356.100 244.228,358.285 243.613,363.276 237.944 C 368.201 232.348,368.113 233.375,368.096 182.023 C 368.079 130.692,368.332 133.370,362.981 128.018 C 357.703 122.741,361.101 123.090,311.265 122.704 C 270.321 122.386,266.320 122.253,263.815 121.122 C 256.378 117.766,253.321 113.268,251.987 103.722 C 250.697 94.480,247.542 89.574,240.971 86.590 C 236.566 84.590,137.784 84.590,133.379 86.590 M17.082 144.817 C 12.177 148.051,12.487 144.063,12.487 203.813 C 12.487 263.563,12.177 259.575,17.082 262.809 C 21.538 265.747,28.933 264.112,31.960 259.521 C 33.169 257.686,33.267 255.930,33.271 235.875 L 33.276 214.211 39.515 214.211 L 45.754 214.211 45.754 201.733 L 45.754 189.255 39.515 189.255 L 33.276 189.255 33.271 169.671 C 33.265 145.609,32.432 143.510,22.877 143.510 C 20.305 143.510,18.419 143.935,17.082 144.817 " stroke="#000000" fill="none" stroke-width="3" class="teABEhTq_0"></path></g><style data-made-with="vivus-instant">.teABEhTq_0{stroke-dasharray:1558 1560;stroke-dashoffset:1559;animation:teABEhTq_draw_0 4000ms linear 0ms infinite,teABEhTq_fade 4000ms linear 0ms infinite;}@keyframes teABEhTq_draw{100%{stroke-dashoffset:0;}}@keyframes teABEhTq_fade{0%{stroke-opacity:1;}90%{stroke-opacity:1;}100%{stroke-opacity:0;}}@keyframes teABEhTq_draw_0{7.5%{stroke-dashoffset: 1559}70%{ stroke-dashoffset: 0;}100%{ stroke-dashoffset: 0;}}</style></svg>
