<svg id="svg" version="1.1" width="400" height="400" xmlns="http://www.w3.org/2000/svg" xmlns:xlink="http://www.w3.org/1999/xlink" style=""><g id="svgg"><path id="path0" d="M10.526 41.776 L 10.526 61.842 200.000 61.842 L 389.474 61.842 389.474 41.776 L 389.474 21.711 200.000 21.711 L 10.526 21.711 10.526 41.776 M88.169 99.507 C 88.182 124.251,88.609 128.231,91.911 134.395 C 103.538 156.103,136.784 153.672,146.169 130.429 C 147.660 126.737,147.702 126.042,147.891 101.809 L 148.086 76.974 118.122 76.974 L 88.158 76.974 88.169 99.507 M251.316 101.337 C 251.316 128.687,251.495 129.965,256.377 137.318 C 268.797 156.030,299.287 153.912,307.991 133.733 L 310.197 128.618 310.390 102.796 L 310.584 76.974 280.950 76.974 L 251.316 76.974 251.316 101.337 M125.822 103.812 C 132.649 106.846,136.194 112.401,136.170 120.030 C 136.105 140.676,107.364 144.443,101.585 124.564 C 97.468 110.401,112.222 97.769,125.822 103.812 M289.029 104.031 C 305.952 112.511,300.157 137.544,281.285 137.486 C 261.168 137.423,256.770 109.956,275.793 103.183 C 280.012 101.680,284.972 101.998,289.029 104.031 M325.658 127.183 C 325.658 134.168,319.401 145.415,311.267 153.050 L 307.667 156.429 313.530 163.577 C 351.530 209.896,348.163 206.206,349.703 203.228 C 352.440 197.935,362.777 190.132,367.052 190.132 C 368.322 190.132,368.611 190.606,347.029 157.242 C 326.632 125.708,325.658 124.338,325.658 127.183 M53.055 158.211 C 41.967 175.392,32.895 189.539,32.895 189.648 C 32.895 189.758,34.875 190.578,37.294 191.470 C 42.131 193.253,47.064 197.456,50.253 202.510 C 52.564 206.173,51.848 206.696,62.260 193.750 C 67.208 187.599,75.966 176.732,81.722 169.601 L 92.187 156.636 87.016 151.509 C 81.380 145.921,76.494 137.418,74.902 130.428 C 74.470 128.528,73.913 126.974,73.665 126.974 C 73.418 126.974,64.143 141.031,53.055 158.211 M133.627 187.882 C 124.914 190.225,116.786 196.927,113.175 204.745 C 111.641 208.066,98.684 268.727,98.684 272.587 C 98.684 272.829,96.094 273.029,92.928 273.033 C 84.203 273.042,77.510 276.959,74.703 283.696 C 73.368 286.902,73.157 336.710,74.474 338.026 C 75.622 339.175,323.720 339.175,324.868 338.026 C 326.382 336.513,325.954 285.391,324.402 282.375 C 321.298 276.341,316.171 273.720,307.431 273.699 L 301.375 273.684 300.959 271.217 C 297.557 251.058,288.563 209.063,286.874 205.454 C 283.039 197.259,274.435 190.194,265.433 187.849 C 259.801 186.382,139.092 186.412,133.627 187.882 M19.433 203.984 C 5.871 210.749,7.965 229.845,22.568 232.585 C 28.214 233.644,36.347 230.232,37.273 226.416 C 37.506 225.456,38.096 224.087,38.585 223.373 C 39.956 221.371,39.738 213.622,38.226 210.665 C 34.614 203.596,26.204 200.606,19.433 203.984 M369.408 203.545 C 361.662 206.929,357.981 216.966,361.842 224.170 C 362.566 225.521,363.158 226.960,363.158 227.370 C 363.158 231.820,376.496 234.133,382.538 230.731 C 397.589 222.258,385.216 196.640,369.408 203.545 M264.064 213.080 C 265.327 214.303,266.664 216.080,267.037 217.027 C 267.558 218.355,273.684 249.086,273.684 250.377 C 273.684 250.531,240.526 250.658,200.000 250.658 C 159.474 250.658,126.316 250.547,126.316 250.411 C 126.316 248.421,133.896 215.700,134.610 214.607 C 137.457 210.251,133.218 210.502,200.786 210.688 L 261.769 210.855 264.064 213.080 M40.789 241.164 C 36.622 243.814,29.964 246.053,26.246 246.053 C 24.123 246.053,23.684 246.278,23.684 247.368 C 23.684 249.250,26.008 251.316,28.125 251.317 C 29.872 251.318,30.338 252.220,41.743 277.734 C 48.237 292.262,53.665 303.806,53.805 303.387 C 53.945 302.967,51.492 290.312,48.354 275.265 L 42.648 247.905 44.011 246.454 C 48.307 241.881,45.893 237.918,40.789 241.164 M354.648 240.051 C 353.605 242.000,353.775 242.983,355.622 245.705 L 357.296 248.173 351.618 275.398 C 348.496 290.373,346.050 302.953,346.184 303.355 C 346.318 303.757,351.740 292.213,358.234 277.701 C 369.607 252.283,370.106 251.316,371.836 251.316 C 373.803 251.316,376.316 249.085,376.316 247.340 C 376.316 246.471,375.438 246.161,372.090 245.848 C 367.894 245.456,361.878 243.113,357.444 240.144 C 355.363 238.750,355.345 238.750,354.648 240.051 M129.721 284.045 C 144.185 290.458,147.231 310.075,135.412 320.701 C 121.911 332.840,100.674 324.267,99.489 306.198 C 98.386 289.385,114.739 277.403,129.721 284.045 M288.495 285.481 C 302.294 292.274,304.831 310.340,293.426 320.595 C 279.916 332.741,258.859 324.424,257.410 306.370 C 256.066 289.629,273.340 278.021,288.495 285.481 M232.350 303.720 C 233.846 305.074,233.892 307.087,232.464 308.665 C 230.865 310.432,170.253 310.540,168.308 308.780 C 166.741 307.361,166.782 305.586,168.421 303.947 C 170.288 302.081,230.302 301.868,232.350 303.720 M86.184 361.819 C 86.184 374.191,83.840 373.026,108.736 373.026 C 133.190 373.026,130.921 374.226,130.921 361.297 L 130.921 351.974 108.553 351.974 L 86.184 351.974 86.184 361.819 M270.511 361.568 C 270.791 374.174,268.579 373.026,292.603 373.026 C 316.720 373.026,314.474 374.177,314.474 361.819 L 314.474 351.974 292.386 351.974 L 270.298 351.974 270.511 361.568 " stroke="#000000" fill="none" stroke-width="3" class="etmOQCEL_0"></path></g><style data-made-with="vivus-instant">.etmOQCEL_0{stroke-dasharray:4199 4201;stroke-dashoffset:4200;animation:etmOQCEL_draw_0 4500ms linear 0ms infinite,etmOQCEL_fade 4500ms linear 0ms infinite;}@keyframes etmOQCEL_draw{100%{stroke-dashoffset:0;}}@keyframes etmOQCEL_fade{0%{stroke-opacity:1;}91.11111111111111%{stroke-opacity:1;}100%{stroke-opacity:0;}}@keyframes etmOQCEL_draw_0{6.666666666666667%{stroke-dashoffset: 4200}73.33333333333333%{ stroke-dashoffset: 0;}100%{ stroke-dashoffset: 0;}}</style></svg>