<svg id="svg" version="1.1" width="400" height="400" xmlns="http://www.w3.org/2000/svg" xmlns:xlink="http://www.w3.org/1999/xlink" style=""><g id="svgg"><path id="path0" d="M314.895 40.631 C 249.775 48.712,227.564 131.831,279.931 171.473 C 319.270 201.254,377.352 182.800,392.763 135.624 C 409.168 85.406,367.149 34.147,314.895 40.631 M57.938 44.301 C 54.229 45.306,3.241 75.017,3.495 76.025 C 3.839 77.391,16.335 99.509,16.762 99.509 C 16.939 99.509,26.650 94.059,38.342 87.398 C 50.034 80.736,59.757 75.286,59.949 75.286 C 61.292 75.286,80.841 93.937,80.777 95.157 C 80.737 95.930,80.188 99.362,79.558 102.782 C 78.192 110.194,78.468 120.360,80.221 127.221 C 81.569 132.494,82.930 130.558,69.428 142.560 L 59.969 150.968 39.968 139.586 C 28.968 133.325,19.208 127.805,18.280 127.318 L 16.592 126.433 9.933 138.095 C 6.270 144.509,3.273 150.056,3.273 150.421 C 3.273 150.961,48.737 177.225,56.105 180.940 C 62.868 184.351,67.052 182.356,83.116 168.064 L 96.201 156.422 101.147 160.352 C 128.564 182.139,166.716 176.856,189.200 148.159 L 190.835 146.073 213.748 149.949 C 241.907 154.711,239.240 154.659,237.362 150.409 C 227.519 128.133,227.208 100.539,236.542 77.644 C 237.805 74.547,238.701 72.013,238.535 72.013 C 238.368 72.013,227.656 73.781,214.730 75.941 C 187.129 80.554,190.381 80.286,189.065 78.058 C 172.268 49.623,123.727 43.911,99.182 67.481 L 96.563 69.995 83.470 58.268 C 67.943 44.361,64.556 42.508,57.938 44.301 M150.693 89.538 C 173.647 100.838,168.355 134.738,142.981 138.942 C 123.253 142.211,106.939 120.259,115.622 102.128 C 121.955 88.905,137.830 83.206,150.693 89.538 M207.254 225.842 C 186.521 258.959,169.558 286.357,169.558 286.726 C 169.558 287.181,192.834 287.391,241.735 287.378 L 313.912 287.358 326.485 257.452 C 333.400 241.005,338.974 227.462,338.870 227.359 C 338.766 227.255,336.423 226.980,333.662 226.746 C 330.901 226.513,328.642 226.170,328.642 225.985 C 328.642 225.799,330.851 221.404,333.552 216.218 C 336.252 211.032,338.462 206.731,338.462 206.660 C 338.462 206.590,332.349 206.535,324.877 206.539 C 293.318 206.556,264.811 192.700,248.445 169.388 C 247.005 167.337,245.629 165.652,245.389 165.644 C 245.148 165.636,227.987 192.726,207.254 225.842 M135.516 304.792 C 117.477 309.551,106.950 323.584,106.204 343.864 L 105.872 352.868 227.241 352.702 L 348.609 352.537 348.609 336.498 C 348.609 315.256,347.202 311.045,338.462 306.120 L 334.861 304.092 236.989 303.967 C 153.266 303.860,138.596 303.979,135.516 304.792 " stroke="#000000" fill="none" stroke-width="3" class="qnlpwExF_0"></path></g><style data-made-with="vivus-instant">.qnlpwExF_0{stroke-dasharray:2537 2539;stroke-dashoffset:2538;animation:qnlpwExF_draw_0 4500ms linear 0ms infinite,qnlpwExF_fade 4500ms linear 0ms infinite;}@keyframes qnlpwExF_draw{100%{stroke-dashoffset:0;}}@keyframes qnlpwExF_fade{0%{stroke-opacity:1;}91.11111111111111%{stroke-opacity:1;}100%{stroke-opacity:0;}}@keyframes qnlpwExF_draw_0{6.666666666666667%{stroke-dashoffset: 2538}73.33333333333333%{ stroke-dashoffset: 0;}100%{ stroke-dashoffset: 0;}}</style></svg>