<svg id="svg" version="1.1" width="400" height="400" xmlns="http://www.w3.org/2000/svg" xmlns:xlink="http://www.w3.org/1999/xlink" style=""><g id="svgg"><path id="path0" d="M18.710 19.355 L 18.710 30.968 34.516 30.968 L 50.323 30.968 50.353 37.258 C 50.439 54.725,53.378 214.883,53.617 215.123 C 54.084 215.589,101.103 179.302,102.938 177.060 C 103.388 176.510,103.885 157.933,104.408 122.147 C 104.842 92.402,105.381 59.718,105.605 49.516 L 106.012 30.968 121.716 30.968 L 137.419 30.968 137.419 19.355 L 137.419 7.742 78.065 7.742 L 18.710 7.742 18.710 19.355 M199.108 122.653 C 174.926 128.330,171.577 162.271,194.102 173.403 C 217.195 184.816,242.485 158.371,229.627 136.253 C 228.945 135.080,228.387 133.991,228.387 133.834 C 228.387 133.677,236.952 133.548,247.419 133.548 L 266.452 133.548 266.452 147.742 L 266.452 161.935 269.843 161.935 L 273.234 161.935 276.025 185.968 C 279.766 218.175,279.365 215.576,280.554 215.348 C 281.389 215.187,287.415 170.902,287.713 162.742 C 287.733 162.190,288.962 161.935,291.613 161.935 L 295.484 161.935 295.484 141.935 L 295.484 121.935 248.548 122.000 C 222.734 122.036,200.486 122.330,199.108 122.653 M211.843 140.588 C 218.140 144.480,218.203 153.650,211.966 158.408 C 202.892 165.329,190.932 154.687,196.324 144.490 C 199.227 139.002,206.370 137.205,211.843 140.588 M158.710 152.300 C 137.770 168.271,65.485 225.361,62.059 228.634 C 45.102 244.834,56.465 275.838,79.344 275.795 C 87.724 275.779,89.826 274.687,104.839 262.555 C 111.581 257.106,135.677 238.143,158.387 220.415 C 181.097 202.687,199.798 188.083,199.946 187.962 C 200.491 187.516,199.462 187.054,195.802 186.101 C 180.161 182.027,168.981 168.274,167.837 151.700 L 167.419 145.657 158.710 152.300 M301.290 222.322 C 287.272 226.064,281.612 231.602,269.677 253.257 C 260.751 269.455,257.609 273.423,251.120 276.696 C 244.948 279.809,243.011 280.126,227.419 280.580 C 210.843 281.062,208.277 281.725,204.178 286.581 C 200.017 291.510,200.030 291.414,200.014 318.548 L 200.000 343.226 222.497 343.226 L 244.995 343.226 245.439 339.298 C 248.048 316.237,270.711 299.650,292.581 304.796 C 309.333 308.738,323.226 324.813,323.226 340.254 L 323.226 343.226 354.194 343.226 L 385.161 343.226 385.161 282.258 L 385.161 221.290 345.000 221.333 C 311.832 221.368,304.221 221.540,301.290 222.322 M87.802 234.404 C 98.370 239.984,96.729 257.444,85.340 260.606 C 72.987 264.037,62.681 252.319,68.001 240.892 C 71.401 233.590,80.570 230.586,87.802 234.404 M14.839 367.097 L 14.839 379.355 200.000 379.355 L 385.161 379.355 385.161 367.097 L 385.161 354.839 200.000 354.839 L 14.839 354.839 14.839 367.097 " stroke="#000000" fill="none" stroke-width="3" class="qoKWlCDk_0"></path></g><style data-made-with="vivus-instant">.qoKWlCDk_0{stroke-dasharray:3056 3058;stroke-dashoffset:3057;animation:qoKWlCDk_draw_0 4500ms linear 0ms infinite,qoKWlCDk_fade 4500ms linear 0ms infinite;}@keyframes qoKWlCDk_draw{100%{stroke-dashoffset:0;}}@keyframes qoKWlCDk_fade{0%{stroke-opacity:1;}91.11111111111111%{stroke-opacity:1;}100%{stroke-opacity:0;}}@keyframes qoKWlCDk_draw_0{6.666666666666667%{stroke-dashoffset: 3057}73.33333333333333%{ stroke-dashoffset: 0;}100%{ stroke-dashoffset: 0;}}</style></svg>