<svg id="svg" version="1.1" width="400" height="400" viewBox="0 0 400 400" xmlns="http://www.w3.org/2000/svg" xmlns:xlink="http://www.w3.org/1999/xlink" style=""><g id="svgg"><path id="path0" d="M195.481 23.813 C 195.071 24.376,194.361 24.800,193.828 24.800 C 193.219 24.800,192.818 25.089,192.676 25.630 C 192.557 26.086,192.103 26.553,191.667 26.667 C 191.231 26.781,190.781 27.231,190.667 27.667 C 190.553 28.103,190.103 28.553,189.667 28.667 C 189.231 28.781,188.781 29.231,188.667 29.667 C 188.553 30.103,188.103 30.553,187.667 30.667 C 187.231 30.781,186.781 31.231,186.667 31.667 C 186.553 32.103,186.103 32.553,185.667 32.667 C 185.231 32.781,184.781 33.231,184.667 33.667 C 184.553 34.103,184.103 34.553,183.667 34.667 C 183.231 34.781,182.781 35.231,182.667 35.667 C 182.553 36.103,182.103 36.553,181.667 36.667 C 181.231 36.781,180.781 37.231,180.667 37.667 C 180.553 38.103,180.096 38.554,179.652 38.670 C 179.208 38.787,178.790 39.268,178.722 39.741 C 178.647 40.270,178.264 40.648,177.725 40.725 C 177.179 40.802,176.802 41.179,176.725 41.725 C 176.647 42.270,176.270 42.647,175.725 42.725 C 175.179 42.802,174.802 43.179,174.725 43.725 C 174.647 44.270,174.270 44.647,173.725 44.725 C 173.179 44.802,172.802 45.179,172.725 45.725 C 172.647 46.270,172.270 46.647,171.725 46.725 C 171.179 46.802,170.802 47.179,170.725 47.725 C 170.646 48.279,170.270 48.647,169.700 48.728 C 169.117 48.811,168.800 49.131,168.800 49.638 C 168.800 50.104,168.396 50.573,167.800 50.800 C 167.250 51.009,166.800 51.459,166.800 51.800 C 166.800 52.141,166.350 52.591,165.800 52.800 C 165.250 53.009,164.800 53.459,164.800 53.800 C 164.800 54.141,164.375 54.582,163.855 54.779 C 163.335 54.977,162.812 55.512,162.692 55.969 C 162.573 56.426,162.191 56.800,161.845 56.800 C 161.499 56.800,161.102 57.250,160.964 57.800 C 160.808 58.421,160.430 58.800,159.964 58.800 C 159.499 58.800,159.120 59.179,158.964 59.800 C 158.814 60.399,158.427 60.800,158.000 60.800 C 157.573 60.800,157.186 61.201,157.036 61.800 C 156.880 62.421,156.501 62.800,156.036 62.800 C 155.576 62.800,155.192 63.176,155.043 63.772 C 154.890 64.379,154.460 64.793,153.899 64.872 C 153.322 64.954,152.954 65.322,152.872 65.900 C 152.802 66.395,152.483 66.800,152.164 66.800 C 151.844 66.800,151.378 67.250,151.127 67.800 C 150.877 68.350,150.425 68.800,150.123 68.800 C 149.822 68.800,149.467 69.082,149.334 69.427 C 149.113 70.004,144.198 75.205,134.300 85.337 C 132.155 87.533,130.400 89.380,130.400 89.443 C 130.400 89.506,128.150 91.830,125.400 94.608 C 122.650 97.386,120.400 99.814,120.400 100.003 C 120.400 100.191,120.049 100.457,119.620 100.594 C 119.192 100.730,118.733 101.183,118.600 101.600 C 118.467 102.017,118.017 102.467,117.600 102.600 C 117.183 102.733,116.733 103.183,116.600 103.600 C 116.467 104.017,116.028 104.464,115.623 104.593 C 115.218 104.721,114.790 105.194,114.673 105.643 C 114.555 106.092,114.103 106.553,113.667 106.667 C 113.231 106.781,112.781 107.231,112.667 107.667 C 112.553 108.103,112.103 108.553,111.667 108.667 C 111.231 108.781,110.781 109.231,110.667 109.667 C 110.553 110.103,110.103 110.553,109.667 110.667 C 109.231 110.781,108.781 111.231,108.667 111.667 C 108.553 112.103,108.103 112.553,107.667 112.667 C 107.231 112.781,106.781 113.231,106.667 113.667 C 106.553 114.103,106.103 114.553,105.667 114.667 C 105.231 114.781,104.781 115.231,104.667 115.667 C 104.553 116.103,104.103 116.553,103.667 116.667 C 103.231 116.781,102.781 117.231,102.667 117.667 C 102.553 118.103,102.096 118.554,101.652 118.670 C 101.208 118.787,100.790 119.268,100.722 119.741 C 100.647 120.270,100.264 120.648,99.725 120.725 C 99.179 120.802,98.802 121.179,98.725 121.725 C 98.647 122.270,98.270 122.647,97.725 122.725 C 97.179 122.802,96.802 123.179,96.725 123.725 C 96.647 124.270,96.270 124.647,95.725 124.725 C 95.179 124.802,94.802 125.179,94.725 125.725 C 94.647 126.270,94.270 126.647,93.725 126.725 C 93.179 126.802,92.802 127.179,92.725 127.725 C 92.647 128.270,92.270 128.647,91.725 128.725 C 91.179 128.802,90.802 129.179,90.725 129.725 C 90.646 130.279,90.270 130.647,89.700 130.728 C 89.117 130.811,88.800 131.131,88.800 131.638 C 88.800 132.104,88.396 132.573,87.800 132.800 C 87.250 133.009,86.800 133.459,86.800 133.800 C 86.800 134.141,86.375 134.582,85.855 134.779 C 85.335 134.977,84.812 135.512,84.692 135.969 C 84.573 136.426,84.217 136.800,83.902 136.800 C 83.586 136.800,83.123 137.250,82.873 137.800 C 82.622 138.350,82.147 138.800,81.816 138.800 C 81.486 138.800,81.102 139.250,80.964 139.800 C 80.814 140.399,80.427 140.800,80.000 140.800 C 79.573 140.800,79.186 141.201,79.036 141.800 C 78.880 142.421,78.501 142.800,78.036 142.800 C 77.570 142.800,77.192 143.179,77.036 143.800 C 76.880 144.421,76.501 144.800,76.036 144.800 C 75.570 144.800,75.192 145.179,75.036 145.800 C 74.880 146.421,74.501 146.800,74.036 146.800 C 73.570 146.800,73.192 147.179,73.036 147.800 C 72.898 148.350,72.514 148.800,72.182 148.800 C 71.851 148.800,71.409 149.250,71.200 149.800 C 70.991 150.350,70.545 150.800,70.210 150.800 C 69.874 150.800,69.600 150.957,69.600 151.149 C 69.600 151.514,63.612 157.863,55.300 166.311 C 52.605 169.050,50.400 171.351,50.400 171.424 C 50.400 171.497,48.150 173.830,45.400 176.608 C 42.650 179.386,40.400 181.814,40.400 182.003 C 40.400 182.191,40.049 182.457,39.620 182.594 C 39.192 182.730,38.733 183.183,38.600 183.600 C 38.467 184.017,38.017 184.467,37.600 184.600 C 37.183 184.733,36.733 185.183,36.600 185.600 C 36.467 186.017,36.028 186.464,35.623 186.593 C 35.218 186.721,34.790 187.194,34.673 187.643 C 34.555 188.092,34.086 188.557,33.630 188.676 C 32.880 188.872,32.800 189.193,32.800 191.984 C 32.800 195.614,33.509 196.753,36.253 197.533 C 37.161 197.792,38.128 198.273,38.402 198.602 C 38.828 199.115,41.285 199.200,55.785 199.200 L 72.672 199.200 73.136 200.219 C 73.483 200.982,73.600 222.228,73.600 284.758 C 73.600 365.042,73.629 368.418,74.354 371.881 C 75.076 375.330,76.027 377.200,77.058 377.200 C 77.322 377.200,78.073 377.650,78.727 378.200 L 79.915 379.200 194.540 379.200 L 309.164 379.200 310.638 378.200 C 311.569 377.568,312.670 377.200,313.628 377.200 C 314.896 377.200,315.165 377.053,315.272 376.300 C 315.354 375.722,315.722 375.354,316.300 375.272 C 316.957 375.179,317.200 374.876,317.200 374.154 C 317.200 373.609,317.650 372.714,318.199 372.165 L 319.198 371.165 319.299 285.283 L 319.400 199.400 340.578 199.296 C 361.072 199.196,361.783 199.167,362.601 198.399 C 363.065 197.963,364.290 197.490,365.323 197.349 C 366.929 197.128,367.200 196.961,367.200 196.188 C 367.200 195.691,367.647 194.860,368.193 194.342 C 369.558 193.048,369.561 190.830,368.200 189.362 C 367.650 188.769,367.200 187.970,367.200 187.588 C 367.200 187.206,366.827 186.796,366.370 186.676 C 365.914 186.557,365.447 186.103,365.333 185.667 C 365.219 185.231,364.769 184.781,364.333 184.667 C 363.897 184.553,363.447 184.103,363.333 183.667 C 363.219 183.231,362.769 182.781,362.333 182.667 C 361.897 182.553,361.447 182.103,361.333 181.667 C 361.219 181.231,360.769 180.781,360.333 180.667 C 359.897 180.553,359.447 180.103,359.333 179.667 C 359.219 179.231,358.769 178.781,358.333 178.667 C 357.897 178.553,357.447 178.103,357.333 177.667 C 357.219 177.231,356.769 176.781,356.333 176.667 C 355.897 176.553,355.447 176.103,355.333 175.667 C 355.219 175.231,354.769 174.781,354.333 174.667 C 353.897 174.553,353.447 174.103,353.333 173.667 C 353.219 173.231,352.769 172.781,352.333 172.667 C 351.897 172.553,351.447 172.103,351.333 171.667 C 351.219 171.231,350.769 170.781,350.333 170.667 C 349.897 170.553,349.447 170.103,349.333 169.667 C 349.219 169.231,348.769 168.781,348.333 168.667 C 347.897 168.553,347.447 168.103,347.333 167.667 C 347.219 167.231,346.769 166.781,346.333 166.667 C 345.897 166.553,345.447 166.103,345.333 165.667 C 345.219 165.231,344.769 164.781,344.333 164.667 C 343.897 164.553,343.443 164.086,343.324 163.630 C 343.204 163.173,342.854 162.800,342.545 162.800 C 342.236 162.800,341.778 162.350,341.527 161.800 C 341.277 161.250,340.827 160.800,340.527 160.800 C 340.228 160.800,339.778 160.350,339.527 159.800 C 339.277 159.250,338.827 158.800,338.527 158.800 C 338.228 158.800,337.778 158.350,337.527 157.800 C 337.277 157.250,336.827 156.800,336.527 156.800 C 336.228 156.800,335.778 156.350,335.527 155.800 C 335.277 155.250,334.827 154.800,334.527 154.800 C 334.228 154.800,333.778 154.350,333.527 153.800 C 333.277 153.250,332.827 152.800,332.527 152.800 C 332.228 152.800,331.778 152.350,331.527 151.800 C 331.277 151.250,330.827 150.800,330.527 150.800 C 330.228 150.800,329.778 150.350,329.527 149.800 C 329.277 149.250,328.827 148.800,328.527 148.800 C 328.228 148.800,327.778 148.350,327.527 147.800 C 327.277 147.250,326.827 146.800,326.527 146.800 C 326.228 146.800,325.778 146.350,325.527 145.800 C 325.277 145.250,324.827 144.800,324.527 144.800 C 324.228 144.800,323.778 144.350,323.527 143.800 C 323.277 143.250,322.827 142.800,322.527 142.800 C 322.228 142.800,321.778 142.350,321.527 141.800 C 321.277 141.250,320.933 140.800,320.764 140.800 C 319.174 140.800,319.200 141.485,319.200 99.268 C 319.200 59.504,319.190 58.986,318.405 58.496 C 317.927 58.198,317.507 57.360,317.354 56.400 C 317.197 55.421,316.881 54.800,316.540 54.800 C 316.234 54.800,315.778 54.350,315.527 53.800 C 315.277 53.250,314.827 52.800,314.527 52.800 C 314.228 52.800,313.778 52.350,313.527 51.800 C 313.277 51.250,312.749 50.800,312.355 50.800 C 311.238 50.800,309.600 49.929,309.600 49.336 C 309.600 48.894,305.194 48.800,284.418 48.800 L 259.236 48.800 258.118 49.830 C 254.973 52.726,254.801 52.972,254.786 54.600 C 254.778 55.480,254.515 57.370,254.200 58.800 C 253.885 60.230,253.622 62.861,253.614 64.646 C 253.603 67.311,253.451 68.081,252.771 68.946 C 251.324 70.786,252.011 71.281,240.770 60.300 C 238.574 58.155,236.615 56.400,236.416 56.400 C 236.217 56.400,235.948 56.067,235.819 55.661 C 235.690 55.254,235.138 54.718,234.592 54.469 C 234.047 54.221,233.600 53.772,233.600 53.473 C 233.600 53.173,233.150 52.723,232.600 52.473 C 232.050 52.222,231.600 51.772,231.600 51.473 C 231.600 51.173,231.150 50.723,230.600 50.473 C 230.050 50.222,229.600 49.743,229.600 49.409 C 229.600 49.074,229.393 48.800,229.140 48.800 C 228.887 48.800,227.721 47.810,226.549 46.600 C 225.377 45.390,224.234 44.400,224.009 44.400 C 223.784 44.400,223.600 44.126,223.600 43.791 C 223.600 43.457,223.150 42.978,222.600 42.727 C 222.050 42.477,221.600 42.027,221.600 41.727 C 221.600 41.428,221.153 40.979,220.608 40.731 C 220.062 40.482,219.510 39.946,219.381 39.539 C 219.252 39.133,218.884 38.800,218.564 38.800 C 218.245 38.800,217.778 38.350,217.527 37.800 C 217.277 37.250,216.827 36.800,216.527 36.800 C 216.228 36.800,215.778 36.350,215.527 35.800 C 215.277 35.250,214.827 34.800,214.527 34.800 C 214.228 34.800,213.785 34.365,213.543 33.834 C 213.301 33.303,212.751 32.776,212.322 32.664 C 211.892 32.551,211.447 32.103,211.333 31.667 C 211.219 31.231,210.769 30.781,210.333 30.667 C 209.897 30.553,209.447 30.103,209.333 29.667 C 209.219 29.231,208.769 28.781,208.333 28.667 C 207.897 28.553,207.447 28.103,207.333 27.667 C 207.219 27.231,206.769 26.781,206.333 26.667 C 205.897 26.553,205.443 26.086,205.324 25.630 C 205.179 25.077,204.782 24.800,204.135 24.800 C 203.601 24.800,202.714 24.350,202.164 23.800 C 200.698 22.334,196.551 22.342,195.481 23.813 M217.951 180.300 C 218.939 181.031,219.691 181.200,221.958 181.200 C 224.868 181.200,226.633 181.650,227.367 182.578 C 227.632 182.913,228.871 183.187,230.553 183.285 C 232.790 183.415,233.440 183.610,234.018 184.322 C 234.559 184.991,235.158 185.200,236.533 185.200 C 237.875 185.200,238.644 185.457,239.527 186.200 C 240.244 186.804,241.215 187.200,241.976 187.200 C 242.787 187.200,243.593 187.556,244.236 188.200 C 244.859 188.823,245.690 189.200,246.437 189.200 C 247.204 189.200,247.973 189.561,248.565 190.200 C 249.110 190.788,249.934 191.200,250.565 191.200 C 251.196 191.200,252.020 191.612,252.565 192.200 C 253.075 192.750,253.884 193.200,254.364 193.200 C 254.844 193.200,255.686 193.650,256.236 194.200 C 256.786 194.750,257.564 195.200,257.964 195.200 C 258.364 195.200,259.120 195.629,259.645 196.152 C 260.170 196.676,260.960 197.172,261.400 197.255 C 261.840 197.337,262.378 197.809,262.595 198.302 C 262.826 198.827,263.343 199.200,263.840 199.200 C 264.308 199.200,265.120 199.611,265.645 200.114 C 266.170 200.617,267.095 201.244,267.700 201.506 C 268.305 201.768,268.800 202.237,268.800 202.548 C 268.800 202.859,269.228 203.221,269.752 203.352 C 270.276 203.484,270.799 203.953,270.915 204.396 C 271.030 204.838,271.430 205.200,271.802 205.200 C 272.174 205.200,272.966 205.695,273.562 206.300 C 274.157 206.905,275.244 207.850,275.977 208.400 C 276.710 208.950,278.985 211.110,281.031 213.200 C 285.023 217.276,285.038 217.292,287.300 220.084 L 288.800 221.935 288.800 225.958 C 288.800 229.762,288.748 230.016,287.842 230.609 C 287.315 230.955,286.792 231.589,286.679 232.019 C 286.567 232.448,286.164 232.800,285.783 232.800 C 285.403 232.800,284.675 233.250,284.165 233.800 C 282.752 235.324,278.293 235.154,277.786 233.557 C 277.640 233.097,277.177 232.800,276.604 232.800 C 275.570 232.800,273.200 230.683,273.200 229.759 C 273.200 229.441,272.750 229.009,272.200 228.800 C 271.604 228.573,271.200 228.104,271.200 227.638 C 271.200 227.131,270.883 226.811,270.300 226.728 C 269.730 226.647,269.354 226.279,269.275 225.725 C 269.198 225.179,268.821 224.802,268.275 224.725 C 267.730 224.647,267.353 224.270,267.275 223.725 C 267.198 223.179,266.821 222.802,266.275 222.725 C 265.721 222.646,265.353 222.270,265.272 221.700 C 265.189 221.117,264.869 220.800,264.362 220.800 C 263.896 220.800,263.427 220.396,263.200 219.800 C 262.977 219.213,262.503 218.800,262.052 218.800 C 261.630 218.800,260.860 218.353,260.342 217.807 C 259.824 217.261,259.179 216.811,258.909 216.807 C 258.639 216.803,258.131 216.361,257.779 215.824 C 257.427 215.287,256.748 214.792,256.270 214.724 C 255.721 214.646,255.353 214.267,255.272 213.700 C 255.179 213.043,254.876 212.800,254.154 212.800 C 253.609 212.800,252.727 212.363,252.193 211.829 C 251.659 211.295,250.812 210.800,250.311 210.729 C 249.722 210.646,249.355 210.282,249.272 209.700 C 249.164 208.940,248.898 208.800,247.564 208.800 C 246.266 208.800,245.901 208.621,245.527 207.800 C 245.177 207.030,244.771 206.800,243.764 206.800 C 242.532 206.800,241.200 205.966,241.200 205.194 C 241.200 205.003,240.435 204.791,239.500 204.723 C 238.187 204.628,237.710 204.395,237.405 203.700 C 237.074 202.946,236.698 202.800,235.087 202.800 C 233.596 202.800,232.950 202.587,232.214 201.850 C 231.474 201.111,230.711 200.861,228.761 200.720 C 226.753 200.575,226.142 200.366,225.680 199.669 C 225.174 198.908,224.737 198.800,222.170 198.800 C 219.098 198.800,217.200 198.241,217.200 197.336 C 217.200 196.064,180.674 196.460,179.268 197.747 C 178.504 198.446,177.724 198.626,174.944 198.742 C 172.005 198.865,171.424 199.012,170.594 199.842 C 169.795 200.641,169.236 200.800,167.218 200.800 C 165.361 200.800,164.800 200.936,164.800 201.386 C 164.800 202.184,163.534 202.800,161.896 202.800 C 160.966 202.800,160.244 203.115,159.600 203.800 C 158.925 204.518,158.242 204.800,157.176 204.800 C 156.034 204.800,155.541 205.031,155.037 205.800 C 154.553 206.538,154.030 206.800,153.037 206.800 C 152.044 206.800,151.521 207.062,151.037 207.800 C 150.676 208.350,150.034 208.800,149.609 208.800 C 149.184 208.800,148.386 209.250,147.836 209.800 C 147.286 210.350,146.421 210.800,145.913 210.800 C 145.339 210.800,144.840 211.141,144.595 211.700 C 144.377 212.197,143.765 212.661,143.228 212.737 C 142.694 212.813,141.916 213.308,141.499 213.837 C 141.082 214.368,140.319 214.800,139.799 214.800 C 139.125 214.800,138.819 215.057,138.728 215.700 C 138.647 216.272,138.279 216.646,137.719 216.725 C 137.234 216.794,136.730 217.190,136.598 217.605 C 136.467 218.020,135.970 218.483,135.495 218.633 C 135.019 218.784,134.295 219.334,133.886 219.854 C 133.477 220.374,132.956 220.800,132.729 220.800 C 132.501 220.800,131.961 221.250,131.529 221.800 C 131.096 222.350,130.485 222.800,130.171 222.800 C 129.857 222.800,129.600 222.968,129.600 223.173 C 129.600 223.379,128.745 224.440,127.700 225.532 C 124.727 228.638,122.400 231.332,122.400 231.666 C 122.400 232.214,120.884 232.800,119.469 232.800 C 118.608 232.800,117.999 233.027,117.855 233.400 C 117.703 233.797,117.076 234.000,116.000 234.000 C 114.924 234.000,114.297 233.797,114.145 233.400 C 114.002 233.028,113.393 232.800,112.539 232.800 C 111.036 232.800,109.200 231.351,109.200 230.164 C 109.200 229.794,108.730 229.056,108.155 228.523 C 106.746 227.218,106.859 222.657,108.323 221.685 C 108.805 221.364,109.200 220.760,109.200 220.341 C 109.200 219.898,109.617 219.422,110.200 219.200 C 110.750 218.991,111.200 218.559,111.200 218.241 C 111.200 217.633,111.714 217.035,116.082 212.552 C 119.731 208.807,121.502 207.200,121.980 207.200 C 122.201 207.200,122.676 206.750,123.037 206.200 C 123.397 205.650,124.010 205.200,124.399 205.200 C 124.788 205.200,125.204 204.827,125.324 204.370 C 125.443 203.914,125.908 203.445,126.357 203.327 C 126.806 203.210,127.279 202.782,127.407 202.377 C 127.536 201.972,128.037 201.517,128.520 201.366 C 129.004 201.216,129.830 200.666,130.355 200.146 C 130.880 199.626,131.692 199.200,132.160 199.200 C 132.657 199.200,133.174 198.827,133.405 198.302 C 133.622 197.809,134.160 197.337,134.600 197.255 C 135.040 197.172,135.830 196.676,136.355 196.152 C 136.880 195.629,137.722 195.200,138.228 195.200 C 138.777 195.200,139.243 194.896,139.386 194.443 C 139.627 193.685,140.696 193.216,142.205 193.205 C 142.653 193.202,143.186 192.801,143.405 192.300 C 143.693 191.644,144.198 191.367,145.269 191.278 C 146.301 191.192,146.927 190.865,147.378 190.178 C 147.880 189.412,148.363 189.200,149.609 189.200 C 150.768 189.200,151.200 189.034,151.200 188.590 C 151.200 187.902,152.746 187.200,154.262 187.200 C 154.817 187.200,155.582 186.817,155.961 186.348 C 156.462 185.730,157.245 185.444,158.825 185.304 C 160.402 185.163,161.183 184.879,161.666 184.270 C 162.202 183.593,162.882 183.399,165.166 183.270 C 166.725 183.182,168.000 182.941,168.000 182.734 C 168.000 181.934,170.856 181.200,173.967 181.200 C 176.473 181.200,177.237 181.063,177.517 180.562 C 178.474 178.852,215.667 178.611,217.951 180.300 M209.458 210.331 C 210.686 210.991,211.888 211.186,215.359 211.292 C 219.342 211.413,219.770 211.501,220.308 212.312 C 220.804 213.059,221.265 213.200,223.218 213.200 C 225.110 213.200,225.758 213.385,226.727 214.200 C 227.577 214.915,228.388 215.200,229.576 215.200 C 230.814 215.200,231.491 215.455,232.236 216.200 C 232.859 216.823,233.690 217.200,234.437 217.200 C 235.204 217.200,235.973 217.561,236.565 218.200 C 237.075 218.750,237.888 219.200,238.372 219.200 C 239.584 219.200,240.800 219.908,240.800 220.614 C 240.800 221.000,241.215 221.200,242.019 221.200 C 242.806 221.200,243.567 221.555,244.165 222.200 C 244.675 222.750,245.382 223.200,245.737 223.200 C 246.091 223.200,246.676 223.650,247.037 224.200 C 247.397 224.750,248.040 225.200,248.465 225.200 C 248.890 225.200,249.635 225.618,250.119 226.130 C 250.604 226.641,251.332 227.182,251.738 227.332 C 252.144 227.482,252.570 227.963,252.685 228.402 C 252.801 228.847,253.230 229.200,253.655 229.200 C 254.080 229.200,254.619 229.643,254.873 230.200 C 255.123 230.750,255.587 231.200,255.904 231.200 C 256.221 231.200,257.982 232.775,259.819 234.700 C 261.656 236.625,263.528 238.579,263.979 239.042 C 264.431 239.505,264.800 240.095,264.800 240.352 C 264.800 240.609,265.250 240.991,265.800 241.200 C 266.350 241.409,266.800 241.879,266.800 242.244 C 266.800 242.609,267.250 243.325,267.800 243.835 C 269.244 245.173,269.286 250.149,267.868 251.869 C 267.356 252.491,266.820 253.319,266.677 253.709 C 266.535 254.099,266.099 254.536,265.709 254.679 C 265.319 254.823,264.604 255.359,264.119 255.870 C 262.799 257.264,257.585 257.254,256.281 255.856 C 255.796 255.336,255.004 254.787,254.520 254.635 C 254.037 254.483,253.530 254.008,253.393 253.579 C 253.257 253.150,252.798 252.613,252.373 252.386 C 251.948 252.158,251.600 251.796,251.600 251.582 C 251.600 251.198,248.904 248.111,247.465 246.846 C 247.061 246.491,245.936 245.447,244.964 244.527 C 243.993 243.606,242.858 242.746,242.443 242.614 C 242.027 242.482,241.598 242.035,241.489 241.621 C 241.381 241.207,240.867 240.808,240.346 240.734 C 239.722 240.646,239.357 240.294,239.272 239.700 C 239.179 239.043,238.876 238.800,238.154 238.800 C 237.609 238.800,236.714 238.350,236.164 237.800 C 235.614 237.250,234.833 236.800,234.428 236.800 C 234.023 236.800,233.397 236.350,233.037 235.800 C 232.545 235.049,232.033 234.800,230.982 234.800 C 229.878 234.800,229.487 234.589,229.127 233.800 C 228.742 232.955,228.400 232.800,226.917 232.800 C 225.559 232.800,224.952 232.574,224.235 231.800 C 223.530 231.039,222.906 230.800,221.628 230.800 C 219.851 230.800,218.410 230.240,217.880 229.342 C 217.657 228.965,216.670 228.800,214.630 228.800 C 210.925 228.800,209.465 228.506,208.444 227.556 C 207.501 226.677,190.800 226.360,190.800 227.220 C 190.800 228.108,188.003 228.800,184.413 228.800 C 181.507 228.800,180.800 228.915,180.800 229.386 C 180.800 230.297,179.459 230.800,177.026 230.800 C 175.338 230.800,174.800 230.942,174.800 231.386 C 174.800 232.195,173.527 232.800,171.826 232.800 C 170.840 232.800,170.400 232.981,170.400 233.386 C 170.400 234.092,169.184 234.800,167.972 234.800 C 167.488 234.800,166.675 235.250,166.165 235.800 C 165.600 236.410,164.799 236.800,164.114 236.800 C 163.333 236.800,162.869 237.074,162.595 237.698 C 162.378 238.191,161.840 238.663,161.400 238.745 C 160.960 238.828,160.170 239.324,159.645 239.848 C 159.120 240.371,158.384 240.800,158.010 240.800 C 157.635 240.800,157.123 241.250,156.873 241.800 C 156.619 242.357,156.080 242.800,155.655 242.800 C 155.221 242.800,154.800 243.156,154.676 243.630 C 154.557 244.086,154.103 244.553,153.667 244.667 C 153.231 244.781,152.781 245.231,152.667 245.667 C 152.553 246.103,152.092 246.555,151.643 246.673 C 151.194 246.790,150.721 247.218,150.593 247.623 C 150.464 248.028,150.028 248.464,149.623 248.593 C 149.218 248.721,148.790 249.194,148.673 249.643 C 148.555 250.092,148.086 250.557,147.630 250.676 C 147.156 250.800,146.800 251.221,146.800 251.657 C 146.800 252.103,146.384 252.578,145.800 252.800 C 145.188 253.033,144.800 253.494,144.800 253.990 C 144.800 254.497,144.536 254.800,144.095 254.800 C 143.707 254.800,143.212 255.205,142.995 255.700 C 141.941 258.101,131.200 256.624,131.200 254.078 C 131.200 253.894,130.750 253.353,130.200 252.875 C 128.528 251.421,129.038 244.000,130.810 244.000 C 131.025 244.000,131.200 243.721,131.200 243.381 C 131.200 243.040,131.618 242.365,132.130 241.881 C 132.641 241.396,133.182 240.668,133.332 240.262 C 133.482 239.856,133.946 239.434,134.365 239.325 C 134.784 239.216,135.219 238.769,135.333 238.333 C 135.447 237.897,135.904 237.446,136.348 237.330 C 136.792 237.213,137.210 236.732,137.278 236.259 C 137.353 235.730,137.736 235.352,138.275 235.275 C 138.821 235.198,139.198 234.821,139.275 234.275 C 139.352 233.736,139.730 233.353,140.259 233.278 C 140.732 233.210,141.213 232.792,141.330 232.348 C 141.446 231.904,141.897 231.447,142.333 231.333 C 142.769 231.219,143.216 230.784,143.325 230.365 C 143.434 229.946,143.856 229.482,144.262 229.333 C 144.668 229.184,145.360 228.725,145.800 228.313 C 148.089 226.171,149.460 225.200,150.194 225.200 C 150.656 225.200,151.182 224.810,151.405 224.302 C 151.622 223.809,152.160 223.337,152.600 223.254 C 153.040 223.171,153.909 222.675,154.531 222.151 C 155.153 221.628,156.001 221.200,156.417 221.200 C 156.832 221.200,157.360 220.848,157.591 220.417 C 157.834 219.962,158.635 219.519,159.505 219.358 C 160.327 219.207,161.396 218.659,161.881 218.141 C 162.443 217.540,163.215 217.200,164.017 217.200 C 164.814 217.200,165.523 216.890,165.961 216.348 C 166.457 215.736,167.258 215.439,168.809 215.290 C 170.320 215.144,171.164 214.839,171.624 214.271 C 172.125 213.653,172.890 213.418,174.841 213.285 C 176.725 213.157,177.644 212.887,178.326 212.261 C 179.131 211.523,179.842 211.392,183.726 211.265 C 187.008 211.157,188.383 210.956,188.889 210.508 C 190.633 208.961,206.653 208.823,209.458 210.331 M204.166 241.571 C 205.248 241.748,206.333 242.167,206.578 242.502 C 206.902 242.945,207.981 243.150,210.547 243.255 C 213.622 243.382,214.164 243.515,214.799 244.300 C 215.366 244.999,215.942 245.200,217.383 245.200 C 218.848 245.200,219.433 245.410,220.165 246.200 C 220.709 246.788,221.534 247.200,222.164 247.200 C 222.775 247.200,223.667 247.631,224.236 248.200 C 224.786 248.750,225.562 249.200,225.960 249.200 C 226.358 249.200,227.121 249.605,227.657 250.100 C 228.192 250.595,229.118 251.221,229.715 251.491 C 230.312 251.762,230.800 252.244,230.800 252.564 C 230.800 252.883,231.205 253.202,231.700 253.272 C 232.195 253.342,232.778 253.805,232.995 254.300 C 233.212 254.795,233.628 255.200,233.919 255.200 C 234.211 255.200,235.502 256.325,236.789 257.700 C 238.076 259.075,239.505 260.579,239.965 261.042 C 240.424 261.505,240.800 262.070,240.800 262.296 C 240.800 262.523,241.250 263.003,241.800 263.363 C 242.350 263.724,242.800 264.228,242.800 264.483 C 242.800 264.739,243.171 265.343,243.624 265.826 C 246.227 268.596,245.774 276.343,242.845 279.157 L 241.135 280.800 237.222 280.800 L 233.309 280.800 231.254 278.778 C 229.894 277.438,229.200 276.426,229.200 275.778 C 229.200 275.183,228.969 274.800,228.610 274.800 C 228.286 274.800,227.741 274.260,227.400 273.600 C 227.059 272.940,226.598 272.400,226.377 272.400 C 226.156 272.400,225.857 272.085,225.712 271.700 C 225.414 270.905,223.441 268.957,222.336 268.366 C 221.931 268.149,221.600 267.708,221.600 267.386 C 221.600 267.064,221.236 266.800,220.791 266.800 C 220.317 266.800,219.794 266.387,219.527 265.800 C 219.236 265.161,218.744 264.800,218.165 264.800 C 217.666 264.800,216.904 264.350,216.471 263.800 C 216.013 263.217,215.274 262.800,214.701 262.800 C 214.160 262.800,213.231 262.350,212.638 261.800 C 211.861 261.080,211.111 260.800,209.960 260.800 C 208.296 260.800,206.000 259.866,206.000 259.190 C 206.000 258.532,190.511 258.680,190.120 259.342 C 189.596 260.229,188.156 260.800,186.444 260.800 C 185.262 260.800,184.571 261.065,183.836 261.800 C 183.273 262.364,182.374 262.800,181.776 262.800 C 181.121 262.800,180.414 263.183,179.929 263.800 C 179.417 264.450,178.742 264.800,177.999 264.800 C 177.118 264.800,176.826 265.006,176.728 265.700 C 176.648 266.263,176.279 266.646,175.741 266.722 C 175.268 266.790,174.787 267.208,174.670 267.652 C 174.554 268.096,174.092 268.555,173.643 268.673 C 173.194 268.790,172.721 269.218,172.593 269.623 C 172.464 270.028,172.028 270.464,171.623 270.593 C 171.218 270.721,170.790 271.194,170.673 271.643 C 170.555 272.092,170.086 272.557,169.630 272.676 C 169.152 272.801,168.800 273.221,168.800 273.664 C 168.800 274.088,168.350 274.920,167.800 275.513 C 167.250 276.107,166.800 276.759,166.800 276.964 C 166.800 277.656,165.482 278.800,164.684 278.800 C 164.248 278.800,163.456 279.270,162.923 279.845 C 161.618 281.254,157.057 281.141,156.085 279.677 C 155.764 279.195,155.161 278.800,154.743 278.800 C 154.300 278.800,153.778 278.341,153.492 277.700 C 153.221 277.095,152.645 276.305,152.210 275.943 C 150.867 274.827,150.795 269.568,152.106 268.258 C 152.651 267.713,153.208 266.824,153.344 266.281 C 153.480 265.739,153.953 265.201,154.396 265.085 C 154.876 264.960,155.200 264.540,155.200 264.044 C 155.200 263.266,155.802 262.447,158.500 259.552 C 159.105 258.903,159.600 258.211,159.600 258.013 C 159.600 257.816,159.951 257.543,160.380 257.406 C 160.808 257.270,161.270 256.809,161.406 256.380 C 161.542 255.952,162.091 255.492,162.627 255.358 C 163.162 255.223,163.600 254.858,163.600 254.547 C 163.600 254.235,164.026 253.818,164.547 253.620 C 165.068 253.422,165.994 252.797,166.605 252.230 C 167.217 251.664,168.051 251.200,168.458 251.200 C 168.866 251.200,169.200 251.033,169.200 250.829 C 169.200 250.143,170.449 249.200,171.356 249.200 C 171.851 249.200,172.647 248.750,173.125 248.200 C 173.669 247.574,174.418 247.200,175.125 247.200 C 175.833 247.200,176.581 246.826,177.125 246.200 C 177.788 245.438,178.384 245.200,179.633 245.200 C 180.850 245.200,181.459 244.968,182.001 244.300 C 182.638 243.513,183.174 243.383,186.265 243.261 C 188.773 243.162,190.007 242.937,190.514 242.486 C 191.793 241.348,199.616 240.824,204.166 241.571 " stroke="#000000" fill="none" stroke-width="3" class="mzXgwnIy_0"></path><path id="path1" d="" stroke="#000000" fill="none" stroke-width="3" class="mzXgwnIy_1"></path></g><style data-made-with="vivus-instant">.mzXgwnIy_0{stroke-dasharray:2295 2297;stroke-dashoffset:2296;animation:mzXgwnIy_draw_0 3500ms linear 0ms infinite,mzXgwnIy_fade 3500ms linear 0ms infinite;}.mzXgwnIy_1{stroke-dasharray:0 2;stroke-dashoffset:1;animation:mzXgwnIy_draw_1 3500ms linear 0ms infinite,mzXgwnIy_fade 3500ms linear 0ms infinite;}@keyframes mzXgwnIy_draw{100%{stroke-dashoffset:0;}}@keyframes mzXgwnIy_fade{0%{stroke-opacity:1;}88.57142857142857%{stroke-opacity:1;}100%{stroke-opacity:0;}}@keyframes mzXgwnIy_draw_0{8.571428571428571%{stroke-dashoffset: 2296}65.71428571428571%{ stroke-dashoffset: 0;}100%{ stroke-dashoffset: 0;}}@keyframes mzXgwnIy_draw_1{8.571428571428571%{stroke-dashoffset: 1}65.71428571428571%{ stroke-dashoffset: 0;}100%{ stroke-dashoffset: 0;}}</style></svg>