<svg id="svg" version="1.1" width="400" height="400" viewBox="0 0 400 400" xmlns="http://www.w3.org/2000/svg" xmlns:xlink="http://www.w3.org/1999/xlink" style=""><g id="svgg"><path id="path0" d="M127.855 95.878 C 127.525 96.208,127.476 96.216,123.513 96.555 C 118.802 96.958,113.977 97.600,112.200 98.059 C 111.320 98.287,108.729 98.892,106.443 99.404 C 104.156 99.916,101.546 100.605,100.643 100.935 C 99.101 101.499,94.953 102.720,94.308 102.801 C 94.148 102.820,93.017 103.279,91.797 103.818 C 90.576 104.358,89.395 104.800,89.172 104.800 C 88.949 104.800,87.612 105.340,86.200 106.000 C 84.788 106.660,83.446 107.200,83.217 107.200 C 82.988 107.200,82.800 107.380,82.800 107.600 C 82.800 107.820,82.611 108.000,82.380 108.000 C 81.465 108.000,71.572 113.031,69.229 114.688 C 69.135 114.754,69.501 115.301,70.042 115.904 C 70.583 116.507,71.643 117.900,72.397 119.000 C 73.151 120.100,73.973 121.180,74.223 121.400 C 74.473 121.620,75.080 122.475,75.571 123.300 C 76.651 125.112,77.034 125.141,79.538 123.600 C 80.611 122.940,81.679 122.400,81.911 122.400 C 82.143 122.400,82.393 122.252,82.467 122.071 C 82.644 121.634,89.902 118.000,90.599 118.000 C 90.898 118.000,91.458 117.685,91.843 117.300 C 92.228 116.915,92.556 116.657,92.571 116.726 C 92.603 116.863,92.772 116.815,96.000 115.739 C 97.210 115.336,98.310 114.855,98.445 114.669 C 98.579 114.484,98.804 114.347,98.945 114.366 C 99.085 114.385,99.245 114.386,99.300 114.369 C 99.355 114.353,99.670 114.271,100.000 114.188 C 102.917 113.455,106.383 112.458,106.706 112.258 C 107.278 111.905,115.199 110.403,116.500 110.401 C 117.105 110.401,117.600 110.231,117.600 110.025 C 117.600 109.819,117.915 109.657,118.300 109.667 C 118.685 109.676,120.890 109.459,123.200 109.185 C 128.951 108.502,145.022 108.486,151.200 109.157 C 153.950 109.455,156.425 109.707,156.700 109.717 C 156.975 109.726,157.200 109.859,157.200 110.012 C 157.200 110.165,158.225 110.410,159.478 110.558 C 162.473 110.910,167.522 111.960,168.347 112.402 C 168.706 112.595,170.350 113.058,172.000 113.431 C 173.650 113.804,175.197 114.263,175.437 114.451 C 175.677 114.639,175.992 114.675,176.137 114.530 C 176.282 114.385,176.400 114.443,176.400 114.658 C 176.400 114.873,177.345 115.290,178.500 115.585 C 180.639 116.132,180.895 116.229,183.000 117.291 C 183.660 117.624,184.920 118.123,185.800 118.399 C 186.680 118.675,187.670 119.126,188.000 119.401 C 188.617 119.916,192.222 121.574,192.664 121.547 C 192.799 121.539,193.021 121.703,193.155 121.912 C 193.464 122.393,196.898 124.189,197.300 124.081 C 197.465 124.036,197.600 124.141,197.600 124.314 C 197.600 125.457,200.150 126.115,200.896 125.164 C 201.311 124.634,203.073 122.404,204.811 120.210 L 207.970 116.219 207.115 115.310 C 206.645 114.809,206.095 114.400,205.892 114.400 C 205.689 114.400,205.046 114.068,204.462 113.662 C 202.448 112.261,198.094 110.039,197.848 110.286 C 197.711 110.422,197.600 110.344,197.600 110.113 C 197.600 109.882,196.565 109.278,195.300 108.771 C 194.035 108.264,192.910 107.749,192.800 107.625 C 192.502 107.290,188.278 105.525,187.700 105.494 C 187.425 105.479,187.200 105.343,187.200 105.192 C 187.200 105.040,185.805 104.503,184.100 103.998 C 182.395 103.492,180.730 102.941,180.400 102.772 C 178.107 101.603,167.784 98.800,165.768 98.800 C 165.236 98.800,164.800 98.645,164.800 98.456 C 164.800 98.266,163.945 98.004,162.900 97.872 C 161.855 97.741,158.930 97.364,156.400 97.035 C 153.870 96.706,150.861 96.375,149.714 96.299 C 148.566 96.223,147.501 96.035,147.347 95.880 C 146.982 95.515,128.220 95.513,127.855 95.878 M127.223 121.963 C 126.906 122.172,126.096 122.269,125.423 122.179 C 124.750 122.088,123.030 122.269,121.600 122.580 C 120.170 122.891,117.470 123.435,115.600 123.788 C 113.730 124.141,111.930 124.505,111.600 124.598 C 111.270 124.691,109.560 125.170,107.800 125.663 C 106.040 126.156,104.510 126.658,104.400 126.780 C 104.290 126.901,103.840 127.062,103.400 127.138 C 102.960 127.214,102.420 127.414,102.200 127.583 C 101.980 127.752,101.260 128.016,100.600 128.171 C 99.178 128.504,96.839 129.563,89.717 133.100 L 84.433 135.723 85.217 136.823 C 85.647 137.428,86.000 138.121,86.000 138.362 C 86.000 138.603,86.152 138.800,86.337 138.800 C 86.523 138.800,87.288 139.700,88.037 140.799 C 88.787 141.899,89.535 142.799,89.700 142.799 C 89.865 142.800,90.000 143.070,90.000 143.400 C 90.000 144.269,90.673 144.144,92.756 142.887 C 94.861 141.616,100.055 139.200,100.683 139.200 C 100.913 139.200,101.311 138.948,101.567 138.640 C 101.822 138.332,103.239 137.759,104.716 137.367 C 106.192 136.974,107.796 136.402,108.279 136.094 C 108.762 135.787,109.260 135.562,109.385 135.594 C 109.767 135.692,115.748 134.367,116.600 133.995 C 117.364 133.662,118.243 133.468,121.066 133.007 C 129.869 131.571,145.415 131.679,154.400 133.241 C 155.830 133.489,157.160 133.656,157.355 133.612 C 157.551 133.568,157.821 133.692,157.955 133.888 C 158.090 134.084,159.820 134.628,161.800 135.097 C 165.582 135.993,170.969 137.801,173.000 138.857 C 173.660 139.200,175.141 139.811,176.291 140.216 C 177.441 140.621,178.300 141.034,178.199 141.134 C 178.098 141.235,178.904 141.729,179.990 142.232 C 181.075 142.735,182.635 143.603,183.456 144.160 C 185.207 145.351,185.436 145.239,187.473 142.200 C 188.210 141.100,189.349 139.499,190.005 138.642 L 191.198 137.084 189.921 136.142 C 189.219 135.624,188.482 135.200,188.284 135.200 C 188.086 135.200,187.446 134.871,186.862 134.470 C 186.278 134.068,185.170 133.497,184.400 133.200 C 183.630 132.903,182.550 132.355,182.000 131.983 C 181.450 131.610,180.550 131.170,180.000 131.005 C 179.450 130.840,178.100 130.297,177.000 129.798 C 175.900 129.299,174.100 128.570,173.000 128.177 C 171.900 127.784,170.803 127.315,170.563 127.135 C 170.323 126.954,170.012 126.921,169.873 127.060 C 169.733 127.200,169.390 127.126,169.110 126.896 C 168.650 126.519,166.178 125.742,164.270 125.375 C 163.115 125.152,161.870 124.780,161.000 124.398 C 160.560 124.204,157.860 123.672,155.000 123.215 C 152.140 122.759,149.170 122.275,148.400 122.140 C 145.950 121.710,127.837 121.559,127.223 121.963 M126.044 147.414 C 123.758 147.713,121.598 148.084,121.244 148.239 C 120.890 148.394,120.240 148.572,119.800 148.635 C 115.657 149.230,100.400 155.365,100.400 156.437 C 100.400 156.605,100.670 157.013,101.000 157.343 C 101.330 157.673,101.600 158.136,101.600 158.371 C 101.600 158.607,101.780 158.800,102.000 158.800 C 102.220 158.800,102.400 158.993,102.400 159.229 C 102.400 159.464,102.666 159.923,102.991 160.248 C 103.316 160.573,103.828 161.190,104.128 161.618 C 104.658 162.375,104.761 162.354,107.837 160.842 C 120.496 154.618,140.031 152.097,150.800 155.297 C 151.636 155.545,152.952 155.870,156.200 156.629 C 157.740 156.989,159.360 157.506,159.800 157.779 C 160.240 158.051,161.088 158.394,161.684 158.540 C 162.281 158.687,164.833 159.796,167.355 161.004 C 169.877 162.212,172.012 163.200,172.100 163.200 C 172.471 163.200,176.047 157.600,175.865 157.305 C 175.442 156.621,164.859 151.600,163.840 151.600 C 163.488 151.600,163.200 151.448,163.200 151.263 C 163.200 151.078,161.535 150.519,159.500 150.021 C 157.465 149.524,155.620 149.005,155.400 148.870 C 154.923 148.575,155.032 148.602,151.000 147.791 C 146.589 146.904,131.672 146.679,126.044 147.414 M103.675 265.000 C 103.197 265.550,102.939 266.003,103.103 266.006 C 103.266 266.009,103.211 266.144,102.981 266.306 C 102.290 266.791,100.904 268.944,100.745 269.782 C 100.600 270.545,104.270 272.654,108.800 274.411 C 109.570 274.710,110.290 275.070,110.400 275.211 C 110.853 275.791,119.431 278.426,122.884 279.045 C 124.928 279.412,126.780 279.848,127.000 280.015 C 127.403 280.322,131.503 280.697,137.400 280.967 C 141.243 281.143,150.280 280.537,151.400 280.027 C 151.840 279.827,153.910 279.357,156.000 278.981 C 158.090 278.606,160.340 278.061,161.000 277.770 C 161.660 277.479,163.460 276.845,165.000 276.360 C 166.540 275.876,167.890 275.360,168.000 275.214 C 168.110 275.069,169.319 274.536,170.688 274.031 C 172.056 273.525,173.368 272.879,173.604 272.595 C 173.840 272.311,174.475 271.967,175.016 271.832 C 176.317 271.505,176.258 271.005,174.686 269.041 C 173.963 268.139,173.058 266.905,172.676 266.300 C 171.895 265.063,171.503 264.954,170.707 265.750 C 170.405 266.052,168.997 266.716,167.579 267.225 C 166.160 267.734,164.640 268.375,164.200 268.650 C 163.760 268.925,162.140 269.460,160.600 269.840 C 159.060 270.220,157.710 270.658,157.600 270.813 C 157.217 271.354,149.368 272.489,144.600 272.693 C 141.960 272.807,139.587 273.070,139.326 273.277 C 139.030 273.513,138.578 273.514,138.126 273.281 C 137.727 273.075,135.330 272.803,132.800 272.675 C 128.321 272.450,121.202 271.352,120.800 270.824 C 120.690 270.679,119.790 270.334,118.800 270.056 C 116.703 269.468,109.986 266.848,109.400 266.390 C 108.792 265.914,105.118 264.000,104.813 264.000 C 104.665 264.000,104.153 264.450,103.675 265.000 M90.400 282.967 C 90.400 283.278,90.264 283.593,90.097 283.667 C 89.600 283.885,87.200 287.081,87.200 287.524 C 87.200 287.749,87.062 287.993,86.893 288.067 C 86.724 288.140,86.181 288.722,85.687 289.361 L 84.789 290.522 86.094 291.335 C 88.708 292.963,97.461 297.274,99.800 298.086 C 101.120 298.544,102.290 299.037,102.400 299.183 C 102.510 299.328,104.040 299.869,105.800 300.384 C 107.560 300.900,109.270 301.466,109.600 301.643 C 111.466 302.643,123.133 304.950,129.400 305.557 C 137.001 306.294,156.565 305.360,159.600 304.115 C 160.556 303.723,160.965 303.620,165.000 302.751 C 167.389 302.236,175.716 299.528,176.000 299.173 C 176.110 299.035,176.740 298.793,177.400 298.634 C 178.060 298.475,180.081 297.637,181.892 296.773 C 183.703 295.908,185.291 295.200,185.422 295.200 C 185.621 295.200,191.105 292.123,191.540 291.767 C 191.618 291.704,191.481 291.416,191.237 291.126 C 190.992 290.837,189.900 289.340,188.809 287.800 C 187.719 286.260,186.571 284.674,186.259 284.276 C 185.724 283.591,185.462 283.671,181.469 285.737 C 179.146 286.939,176.115 288.313,174.732 288.792 C 173.350 289.270,171.765 289.900,171.210 290.191 C 170.654 290.482,169.030 291.029,167.600 291.405 C 166.170 291.781,164.640 292.247,164.200 292.441 C 162.946 292.993,158.458 293.927,155.600 294.229 C 154.170 294.380,152.812 294.652,152.582 294.833 C 152.104 295.209,139.618 295.939,136.600 295.768 C 135.500 295.706,132.537 295.543,130.015 295.406 C 127.494 295.269,125.244 295.009,125.015 294.828 C 124.787 294.647,123.520 294.371,122.200 294.214 C 119.251 293.864,114.749 292.852,114.203 292.415 C 113.982 292.238,113.170 291.970,112.400 291.822 C 110.331 291.421,106.630 290.289,106.400 289.987 C 106.290 289.842,105.718 289.605,105.128 289.461 C 103.932 289.169,98.561 286.791,96.400 285.598 C 95.630 285.172,94.235 284.423,93.300 283.933 C 92.365 283.442,91.600 282.896,91.600 282.720 C 91.600 282.544,91.330 282.400,91.000 282.400 C 90.670 282.400,90.400 282.655,90.400 282.967 M74.970 303.134 C 74.293 303.940,72.855 305.860,71.774 307.400 C 70.692 308.940,69.446 310.527,69.004 310.926 C 68.466 311.412,68.357 311.717,68.674 311.850 C 68.935 311.960,69.835 312.542,70.674 313.143 C 71.513 313.745,72.830 314.482,73.600 314.780 C 74.370 315.079,75.180 315.529,75.400 315.780 C 75.957 316.416,83.335 320.000,84.087 320.000 C 84.425 320.000,84.924 320.267,85.194 320.593 C 85.465 320.920,86.702 321.494,87.943 321.869 C 89.185 322.245,90.484 322.788,90.831 323.076 C 91.179 323.364,91.670 323.600,91.923 323.600 C 92.583 323.600,97.761 325.306,98.000 325.602 C 98.110 325.739,100.000 326.272,102.200 326.788 C 104.400 327.303,106.470 327.867,106.800 328.042 C 107.291 328.302,110.667 328.947,117.800 330.145 C 118.240 330.219,118.870 330.385,119.200 330.514 C 121.767 331.517,140.812 332.110,149.600 331.461 C 155.294 331.041,164.589 329.586,169.200 328.393 C 169.970 328.194,172.490 327.542,174.800 326.944 C 177.110 326.347,179.132 325.665,179.294 325.429 C 179.456 325.193,179.591 325.157,179.594 325.349 C 179.597 325.541,179.825 325.524,180.100 325.311 C 180.375 325.098,181.500 324.686,182.600 324.396 C 183.700 324.105,185.500 323.475,186.600 322.996 C 187.700 322.517,189.230 321.895,190.000 321.613 C 191.561 321.043,202.086 315.951,202.400 315.615 C 202.510 315.497,203.635 314.866,204.900 314.214 C 206.165 313.562,207.197 312.932,207.194 312.814 C 207.185 312.523,201.567 305.092,200.736 304.270 C 200.370 303.909,199.999 303.396,199.909 303.128 C 199.723 302.568,197.200 303.425,197.200 304.049 C 197.200 304.242,197.065 304.357,196.900 304.304 C 196.735 304.251,195.213 304.971,193.519 305.904 C 191.824 306.837,190.343 307.600,190.227 307.600 C 190.110 307.600,188.527 308.306,186.708 309.169 C 184.888 310.032,182.905 310.862,182.300 311.013 C 181.695 311.163,181.200 311.447,181.200 311.643 C 181.200 311.840,181.065 311.969,180.900 311.930 C 180.565 311.852,176.243 313.064,175.000 313.584 C 173.424 314.244,171.765 314.747,169.600 315.222 C 168.390 315.488,167.212 315.853,166.982 316.034 C 166.751 316.215,166.211 316.353,165.782 316.342 C 165.352 316.331,163.740 316.594,162.200 316.927 C 160.660 317.261,158.050 317.659,156.400 317.812 C 154.750 317.965,153.220 318.205,153.000 318.345 C 152.172 318.873,130.568 319.359,129.800 318.868 C 129.580 318.727,128.500 318.586,127.400 318.555 C 126.300 318.523,125.130 318.398,124.800 318.275 C 124.470 318.153,122.369 317.852,120.130 317.607 C 117.892 317.362,115.462 316.973,114.730 316.742 C 113.999 316.511,113.130 316.276,112.800 316.219 C 112.470 316.162,111.750 316.009,111.200 315.878 C 110.650 315.747,108.940 315.343,107.400 314.980 C 105.860 314.617,104.420 314.183,104.200 314.015 C 103.980 313.847,103.530 313.696,103.200 313.680 C 102.870 313.664,101.537 313.279,100.238 312.825 C 98.939 312.371,97.634 312.000,97.338 312.000 C 97.042 312.000,96.800 311.809,96.800 311.576 C 96.800 311.343,96.620 311.264,96.400 311.400 C 96.180 311.536,96.000 311.457,96.000 311.224 C 96.000 310.991,95.685 310.798,95.300 310.796 C 94.915 310.794,93.670 310.359,92.533 309.830 C 91.396 309.300,90.361 308.972,90.233 309.100 C 90.105 309.228,90.000 309.123,90.000 308.867 C 90.000 308.610,89.775 308.400,89.501 308.400 C 88.981 308.400,80.750 304.385,80.400 303.961 C 80.290 303.827,79.525 303.401,78.700 303.014 C 77.875 302.626,77.200 302.149,77.200 301.954 C 77.200 301.181,76.136 301.744,74.970 303.134 " stroke="#000000" fill="none" stroke-width="3" class="WJsTevfP_0"></path><path id="path1" d="M8.400 199.800 L 8.400 254.000 45.400 254.000 L 82.400 254.000 82.400 243.003 L 82.400 232.007 59.700 231.903 L 37.000 231.800 36.898 188.700 L 36.796 145.600 22.598 145.600 L 8.400 145.600 8.400 199.800 M202.000 199.800 L 202.000 254.000 215.996 254.000 L 229.992 254.000 230.096 234.300 L 230.200 214.600 238.800 214.487 C 249.321 214.349,248.897 214.253,250.417 217.107 C 251.088 218.368,252.251 220.390,253.000 221.600 C 253.748 222.810,254.822 224.610,255.384 225.600 C 256.728 227.963,259.248 232.233,260.600 234.435 C 260.820 234.794,261.591 236.147,262.314 237.443 C 263.746 240.009,264.826 241.831,266.203 244.000 C 266.692 244.770,268.218 247.335,269.595 249.700 L 272.099 254.000 287.856 254.000 L 303.613 254.000 302.587 252.100 C 302.023 251.055,300.985 249.256,300.281 248.102 C 299.576 246.949,298.118 244.519,297.039 242.702 C 295.961 240.886,294.521 238.498,293.839 237.396 C 293.158 236.294,292.384 235.034,292.121 234.596 C 291.857 234.158,290.869 232.540,289.925 231.000 C 288.981 229.460,288.026 227.894,287.804 227.519 C 287.582 227.144,286.593 225.524,285.606 223.919 C 284.620 222.314,283.608 220.640,283.358 220.200 C 283.108 219.760,281.708 217.429,280.247 215.019 C 277.292 210.148,277.294 210.101,280.400 209.221 C 296.076 204.783,304.242 189.534,300.651 171.400 C 298.702 161.551,292.079 153.293,283.456 149.959 C 282.325 149.521,280.833 148.902,280.139 148.582 C 278.587 147.865,270.588 146.391,266.000 145.977 C 264.130 145.808,248.965 145.654,232.300 145.635 L 202.000 145.600 202.000 199.800 M261.400 165.616 C 267.115 166.432,270.907 169.344,272.281 173.973 C 274.779 182.389,271.977 190.717,265.630 193.745 L 263.000 195.000 246.700 195.121 L 230.400 195.241 230.400 180.221 L 230.400 165.200 244.500 165.208 C 252.255 165.212,259.860 165.396,261.400 165.616 M130.989 171.606 C 129.003 171.798,126.663 172.131,125.789 172.345 C 121.761 173.330,117.216 174.810,115.302 175.759 C 114.148 176.332,113.126 176.800,113.030 176.800 C 112.244 176.800,107.119 180.833,104.165 183.777 C 98.978 188.947,95.995 193.890,94.581 199.661 C 94.239 201.057,93.791 202.560,93.584 203.000 C 92.394 205.536,92.393 221.711,93.583 224.800 C 93.795 225.350,94.261 226.967,94.619 228.394 C 96.264 234.944,100.344 241.213,105.956 245.812 C 107.410 247.003,108.878 248.216,109.218 248.507 C 110.060 249.228,114.677 251.721,116.400 252.386 C 117.170 252.683,118.532 253.248,119.428 253.640 C 125.366 256.245,142.424 257.665,147.800 256.003 C 148.460 255.799,150.800 255.245,153.000 254.771 C 155.200 254.297,157.182 253.764,157.405 253.585 C 157.628 253.406,158.888 252.860,160.205 252.371 C 161.522 251.881,162.690 251.352,162.800 251.194 C 162.910 251.037,163.775 250.515,164.722 250.035 C 170.926 246.889,178.858 237.879,180.599 232.000 C 180.762 231.450,181.217 230.280,181.610 229.400 C 184.116 223.785,184.132 201.588,181.633 198.200 C 181.471 197.980,181.013 196.900,180.616 195.800 C 177.917 188.326,168.784 178.956,161.413 176.099 C 160.526 175.755,159.584 175.307,159.320 175.104 C 158.657 174.595,152.391 172.817,149.000 172.176 C 145.298 171.477,135.511 171.167,130.989 171.606 M345.389 171.633 C 341.593 171.972,340.431 172.205,335.669 173.576 C 324.873 176.685,317.888 185.241,317.608 195.700 C 317.604 195.865,322.955 195.999,329.500 195.997 L 341.400 195.995 342.400 193.341 C 344.670 187.312,347.812 185.395,355.400 185.410 C 365.251 185.429,368.000 187.930,368.000 196.874 C 368.000 202.012,368.896 201.412,359.752 202.389 C 355.599 202.833,351.570 203.373,350.800 203.589 C 350.030 203.805,347.488 204.345,345.151 204.789 C 334.388 206.834,325.549 210.819,320.653 215.834 C 311.375 225.337,312.496 242.781,322.851 250.019 C 323.593 250.537,324.290 251.078,324.400 251.220 C 326.561 254.020,341.411 256.572,348.691 255.396 C 357.310 254.003,365.090 250.588,367.829 246.998 C 369.360 244.990,369.844 245.200,370.137 247.997 C 370.274 249.316,370.591 251.206,370.841 252.197 L 371.295 254.000 382.610 254.000 L 393.924 254.000 393.371 251.700 C 393.066 250.435,392.599 248.590,392.333 247.600 C 391.985 246.310,391.782 237.642,391.615 217.000 C 391.439 195.271,391.258 187.905,390.880 187.000 C 387.397 178.664,382.097 175.138,368.905 172.380 C 364.217 171.400,352.244 171.020,345.389 171.633 M143.896 189.238 C 150.478 191.014,155.497 195.620,157.369 201.600 C 157.747 202.810,158.269 204.232,158.529 204.761 C 159.166 206.059,159.175 220.545,158.539 222.200 C 158.285 222.860,157.678 224.705,157.189 226.300 C 156.700 227.895,156.154 229.200,155.977 229.200 C 155.799 229.200,155.528 229.596,155.375 230.079 C 154.217 233.726,147.641 237.742,141.609 238.484 C 125.127 240.514,115.354 228.365,117.567 208.600 C 119.228 193.770,130.359 185.584,143.896 189.238 M368.000 218.727 C 368.000 232.454,362.065 239.200,349.989 239.200 C 341.640 239.200,338.000 236.459,338.000 230.173 C 338.000 224.436,341.933 221.128,351.800 218.567 C 358.094 216.934,364.090 215.302,365.400 214.867 C 368.023 213.996,368.000 213.962,368.000 218.727 " stroke="#000000" fill="none" stroke-width="3" class="WJsTevfP_1"></path></g><style data-made-with="vivus-instant">.WJsTevfP_0{stroke-dasharray:1399 1401;stroke-dashoffset:1400;animation:WJsTevfP_draw_0 4500ms linear 0ms infinite,WJsTevfP_fade 4500ms linear 0ms infinite;}.WJsTevfP_1{stroke-dasharray:1899 1901;stroke-dashoffset:1900;animation:WJsTevfP_draw_1 4500ms linear 0ms infinite,WJsTevfP_fade 4500ms linear 0ms infinite;}@keyframes WJsTevfP_draw{100%{stroke-dashoffset:0;}}@keyframes WJsTevfP_fade{0%{stroke-opacity:1;}91.11111111111111%{stroke-opacity:1;}100%{stroke-opacity:0;}}@keyframes WJsTevfP_draw_0{6.666666666666667%{stroke-dashoffset: 1400}73.33333333333333%{ stroke-dashoffset: 0;}100%{ stroke-dashoffset: 0;}}@keyframes WJsTevfP_draw_1{6.666666666666667%{stroke-dashoffset: 1900}73.33333333333333%{ stroke-dashoffset: 0;}100%{ stroke-dashoffset: 0;}}</style></svg>