<svg id="svg" version="1.1" width="400" height="400" xmlns="http://www.w3.org/2000/svg" xmlns:xlink="http://www.w3.org/1999/xlink" style=""><g id="svgg"><path id="path0" d="M163.756 6.997 C 132.506 11.657,104.847 25.712,80.085 49.518 C 63.234 65.717,58.333 77.471,57.321 104.119 C 56.643 121.941,55.771 125.687,49.645 137.065 C 45.223 145.280,38.047 155.836,26.899 170.521 C 21.079 178.188,16.051 185.554,14.648 188.468 C 7.327 203.673,14.064 216.064,32.755 221.770 C 33.310 221.939,32.819 224.064,31.133 228.798 C 26.681 241.298,27.403 247.354,35.337 264.062 C 38.717 271.180,38.699 270.960,36.573 279.141 C 32.628 294.327,37.508 306.018,49.520 310.156 C 54.640 311.920,102.674 318.285,110.873 318.286 L 114.662 318.287 114.662 348.913 L 114.662 379.539 116.474 379.231 C 117.471 379.062,138.748 376.978,163.756 374.598 C 188.764 372.219,209.893 370.135,210.708 369.967 C 212.120 369.676,212.191 369.363,212.191 363.414 L 212.191 357.166 251.895 357.176 L 291.598 357.185 298.175 365.413 L 304.752 373.641 328.217 373.641 L 351.683 373.641 352.397 375.207 C 360.647 393.316,389.607 386.396,390.635 366.071 C 391.712 344.778,362.759 335.118,352.874 353.472 L 351.595 355.848 332.470 355.839 L 313.344 355.830 306.768 347.602 L 300.191 339.374 256.520 339.374 L 212.850 339.374 212.850 327.183 L 212.850 314.992 262.523 314.992 L 312.196 314.992 313.022 316.986 C 316.530 325.455,330.492 329.540,339.887 324.846 C 355.382 317.102,354.980 294.327,339.222 287.245 C 329.874 283.044,316.351 287.167,313.008 295.239 L 312.196 297.199 262.523 297.199 L 212.850 297.199 212.850 286.326 L 212.850 275.453 240.747 275.453 L 268.643 275.453 275.178 266.903 L 281.713 258.352 293.723 258.336 L 305.732 258.320 306.710 260.211 C 314.214 274.722,338.355 272.490,343.773 256.785 C 351.645 233.969,320.161 217.132,307.521 237.397 L 305.569 240.527 288.967 240.527 L 272.365 240.527 265.999 250.082 L 259.633 259.638 236.241 259.638 L 212.850 259.638 212.850 242.834 L 212.850 226.030 221.746 226.030 L 230.643 226.030 230.643 212.970 L 230.643 199.911 234.432 198.733 C 236.516 198.084,240.831 196.349,244.020 194.877 L 249.820 192.200 253.905 196.096 C 256.152 198.239,260.439 202.362,263.433 205.260 L 268.876 210.527 281.840 197.563 L 294.804 184.599 288.918 178.214 C 285.680 174.703,281.609 170.247,279.870 168.312 L 276.709 164.794 279.334 159.333 C 280.777 156.329,282.484 151.870,283.127 149.423 L 284.295 144.975 297.337 144.975 L 310.379 144.975 310.379 127.183 L 310.379 109.390 297.336 109.390 L 284.293 109.390 283.466 106.260 C 283.011 104.539,281.276 100.064,279.609 96.316 L 276.579 89.501 285.659 80.403 L 294.739 71.306 282.011 58.223 C 275.011 51.027,269.178 45.006,269.050 44.842 C 268.922 44.678,264.543 48.810,259.320 54.024 L 249.824 63.503 244.366 60.942 C 241.363 59.533,237.122 57.892,234.939 57.294 L 230.972 56.209 230.794 42.602 L 230.616 28.995 221.423 28.995 L 212.229 28.995 212.045 20.310 L 211.862 11.625 209.885 11.058 C 197.998 7.646,173.732 5.510,163.756 6.997 M211.532 56.972 L 211.532 84.290 209.061 84.674 C 196.732 86.591,189.421 90.007,182.207 97.221 C 157.058 122.370,172.273 165.948,207.743 170.356 L 211.532 170.827 211.532 198.099 L 211.532 225.371 203.295 225.371 L 195.058 225.371 195.058 212.348 L 195.058 199.325 190.939 198.126 C 188.674 197.467,184.152 195.655,180.890 194.099 L 174.959 191.270 165.897 200.240 L 156.834 209.211 143.987 196.375 L 131.139 183.540 140.061 174.602 L 148.982 165.663 146.376 160.426 C 144.943 157.546,143.122 153.040,142.331 150.412 L 140.893 145.634 127.778 145.634 L 114.662 145.634 114.662 127.526 L 114.662 109.418 127.917 109.239 L 141.171 109.061 142.346 105.260 C 142.993 103.169,144.782 98.807,146.323 95.565 L 149.124 89.671 141.845 81.903 C 137.842 77.631,133.785 73.407,132.829 72.516 L 131.092 70.898 143.470 58.468 L 155.848 46.038 164.779 55.384 L 173.710 64.730 177.959 62.570 C 180.296 61.381,184.728 59.592,187.809 58.594 L 193.410 56.779 193.588 43.217 L 193.766 29.654 202.649 29.654 L 211.532 29.654 211.532 56.972 M221.746 86.437 C 232.171 88.598,244.136 97.874,249.230 107.743 C 263.057 134.528,246.378 165.920,216.310 169.705 L 212.850 170.140 212.850 127.566 L 212.850 84.993 215.651 85.373 C 217.191 85.582,219.934 86.061,221.746 86.437 " stroke="#000000" fill="none" stroke-width="3" class="QYfGyXIW_0"></path></g><style data-made-with="vivus-instant">.QYfGyXIW_0{stroke-dasharray:3145 3147;stroke-dashoffset:3146;animation:QYfGyXIW_draw_0 4500ms linear 0ms infinite,QYfGyXIW_fade 4500ms linear 0ms infinite;}@keyframes QYfGyXIW_draw{100%{stroke-dashoffset:0;}}@keyframes QYfGyXIW_fade{0%{stroke-opacity:1;}91.11111111111111%{stroke-opacity:1;}100%{stroke-opacity:0;}}@keyframes QYfGyXIW_draw_0{6.666666666666667%{stroke-dashoffset: 3146}73.33333333333333%{ stroke-dashoffset: 0;}100%{ stroke-dashoffset: 0;}}</style></svg>