<svg id="svg" version="1.1" width="400" height="400" xmlns="http://www.w3.org/2000/svg" xmlns:xlink="http://www.w3.org/1999/xlink" style=""><g id="svgg"><path id="path0" d="M201.629 5.934 C 112.662 11.110,45.452 92.710,57.880 180.459 L 58.757 186.651 43.385 214.691 C 32.681 234.217,28.013 243.343,28.013 244.746 C 28.013 248.581,29.292 249.294,51.198 257.671 L 71.987 265.622 72.313 291.606 C 72.622 316.266,72.710 317.763,74.034 320.990 C 77.058 328.357,82.490 333.916,90.265 337.597 L 94.788 339.739 115.472 339.944 L 136.156 340.148 136.156 360.983 L 136.156 381.818 137.755 383.417 L 139.354 385.016 213.050 385.016 L 286.745 385.016 288.649 383.112 L 290.554 381.208 290.554 335.898 L 290.554 290.587 296.580 286.551 C 309.291 278.036,322.248 266.423,330.872 255.815 C 402.334 167.914,349.886 26.694,238.762 7.801 C 232.293 6.701,213.766 5.022,211.401 5.321 C 211.042 5.366,206.645 5.642,201.629 5.934 M217.433 34.246 C 230.685 40.849,230.741 60.193,217.526 66.152 L 214.984 67.299 214.984 75.622 C 214.984 84.865,214.134 86.645,209.720 86.645 C 205.381 86.645,204.258 84.412,204.019 75.308 L 203.803 67.112 201.476 66.008 C 195.739 63.286,191.889 57.023,191.934 50.489 C 192.025 37.291,205.859 28.479,217.433 34.246 M205.074 44.884 C 199.949 49.464,204.696 58.093,211.413 56.407 C 218.883 54.532,217.523 42.997,209.832 42.997 C 207.834 42.997,206.670 43.459,205.074 44.884 M138.508 67.298 C 146.234 71.213,150.049 79.714,147.618 87.603 L 146.621 90.841 152.464 96.798 C 159.033 103.497,159.745 105.461,156.707 108.499 C 153.516 111.690,151.129 110.887,144.375 104.351 L 138.436 98.605 135.831 99.522 C 130.130 101.529,121.650 99.033,117.287 94.063 C 104.727 79.759,121.457 58.658,138.508 67.298 M296.911 66.819 C 316.112 76.387,304.233 107.125,284.054 100.090 L 281.137 99.073 275.184 104.911 C 268.378 111.586,265.916 112.435,263.239 109.033 C 260.436 105.468,261.234 103.289,267.735 96.755 L 273.581 90.879 272.556 87.948 C 267.625 73.841,283.450 60.111,296.911 66.819 M126.029 77.821 C 123.470 80.380,123.657 84.887,126.429 87.459 C 131.788 92.433,139.860 86.011,136.475 79.466 C 134.574 75.789,128.947 74.903,126.029 77.821 M285.128 77.553 C 281.573 80.349,282.427 86.852,286.574 88.570 C 291.197 90.485,295.765 87.516,295.765 82.598 C 295.765 77.250,289.370 74.216,285.128 77.553 M221.667 91.893 C 224.789 92.760,225.732 94.302,226.761 100.228 C 227.325 103.473,227.924 105.124,228.618 105.352 C 229.181 105.537,231.443 106.504,233.644 107.501 L 237.647 109.313 242.439 106.124 C 249.547 101.394,249.877 101.505,260.423 112.222 C 269.255 121.197,269.330 121.491,264.597 128.531 L 261.441 133.225 263.292 137.134 C 264.310 139.283,265.143 141.418,265.145 141.877 C 265.147 142.860,265.266 142.903,271.866 144.304 C 279.180 145.856,279.473 146.449,279.476 159.675 C 279.480 174.149,279.069 174.892,270.143 176.543 C 267.133 177.100,265.580 177.708,265.344 178.422 C 265.153 179.003,264.192 181.256,263.208 183.428 L 261.421 187.378 264.587 191.855 C 269.440 198.719,269.123 199.755,259.166 209.538 C 249.396 219.138,248.578 219.359,241.332 214.350 L 236.645 211.110 231.841 213.191 C 229.198 214.335,226.952 215.315,226.850 215.367 C 226.749 215.420,226.278 217.898,225.804 220.874 C 224.547 228.777,224.771 228.664,210.171 228.664 C 195.127 228.664,195.487 228.879,193.490 218.768 C 192.804 215.294,192.605 215.010,190.353 214.282 C 189.030 213.854,186.836 212.945,185.476 212.262 L 183.004 211.019 178.093 214.304 C 170.965 219.071,170.666 218.966,160.554 208.124 C 152.029 198.983,151.924 198.554,156.572 191.904 L 159.659 187.488 157.517 182.412 L 155.375 177.336 150.163 176.297 C 142.053 174.679,142.020 174.613,142.020 160.174 L 142.020 148.434 143.811 146.647 C 145.211 145.251,146.702 144.673,150.636 144.002 C 154.795 143.293,155.740 142.904,156.078 141.767 C 156.303 141.010,157.224 138.718,158.125 136.672 L 159.763 132.954 156.624 128.555 C 151.715 121.677,151.785 121.453,161.971 111.349 C 172.022 101.379,171.959 101.398,178.854 106.165 L 183.531 109.399 186.065 108.101 C 187.459 107.388,189.664 106.483,190.966 106.091 C 193.295 105.388,193.349 105.294,194.385 100.125 C 195.485 94.645,197.012 92.161,199.592 91.654 C 202.575 91.069,219.354 91.250,221.667 91.893 M205.209 108.157 C 204.206 114.107,203.001 115.393,196.417 117.537 C 193.550 118.470,189.929 119.963,188.370 120.855 C 184.429 123.108,182.596 122.925,178.502 119.870 C 174.100 116.586,173.081 116.862,166.548 123.118 C 166.243 123.409,167.343 125.616,168.991 128.023 C 172.570 133.251,172.558 133.092,169.798 138.616 C 168.595 141.025,166.970 144.942,166.187 147.318 C 164.390 152.779,163.235 153.795,157.808 154.683 L 153.420 155.401 153.231 160.379 L 153.042 165.357 154.860 165.718 C 155.859 165.917,157.850 166.280,159.283 166.526 C 163.165 167.190,164.630 168.459,165.835 172.202 C 166.432 174.054,168.078 178.020,169.493 181.014 C 172.427 187.222,172.395 187.616,168.454 193.776 C 165.564 198.294,165.516 197.822,169.241 201.490 C 173.006 205.199,172.675 205.181,177.008 201.910 C 181.412 198.585,183.100 198.523,188.729 201.480 C 191.166 202.761,194.625 204.172,196.417 204.617 C 202.227 206.059,203.257 207.364,204.222 214.495 L 204.640 217.590 209.748 217.590 L 214.856 217.590 215.300 213.764 C 215.982 207.890,217.282 206.282,222.670 204.645 C 225.171 203.885,228.933 202.361,231.030 201.258 C 236.240 198.517,237.747 198.606,242.463 201.932 L 246.410 204.715 249.932 201.194 L 253.453 197.673 250.805 194.124 C 247.019 189.050,246.977 188.405,250.021 181.870 C 251.468 178.763,253.145 174.671,253.748 172.777 C 255.062 168.648,256.332 167.712,261.813 166.834 C 266.852 166.027,266.268 166.797,266.544 160.597 L 266.775 155.396 263.192 154.893 C 256.546 153.958,255.531 153.061,253.416 146.254 C 252.971 144.821,251.617 141.653,250.407 139.215 C 247.559 133.473,247.624 132.533,251.198 127.678 L 254.188 123.616 251.060 120.440 C 247.413 116.737,246.905 116.645,243.742 119.124 C 238.544 123.197,237.432 123.298,231.378 120.250 C 228.947 119.025,225.326 117.549,223.331 116.969 C 218.527 115.573,217.519 114.310,216.667 108.624 L 215.961 103.909 210.975 103.720 L 205.990 103.531 205.209 108.157 M220.619 129.732 C 240.572 135.833,249.143 160.681,237.402 178.386 C 225.788 195.900,201.890 198.354,187.361 183.523 C 163.605 159.276,188.032 119.768,220.619 129.732 M203.423 140.326 C 193.634 143.522,187.499 152.650,188.524 162.496 C 191.210 188.295,230.775 186.816,230.888 160.912 C 230.951 146.512,216.849 135.942,203.423 140.326 M331.347 146.265 C 343.451 153.358,342.705 171.111,330.026 177.704 C 321.738 182.013,309.678 177.805,306.191 169.386 L 305.379 167.427 297.924 167.427 C 288.474 167.427,286.060 166.289,286.014 161.814 C 285.967 157.199,287.678 156.352,297.045 156.352 C 305.251 156.352,305.403 156.325,305.778 154.832 C 308.049 145.784,322.350 140.992,331.347 146.265 M105.381 145.646 C 109.002 147.451,112.173 150.634,113.848 154.148 L 114.899 156.352 122.952 156.352 C 132.056 156.352,134.202 157.333,134.202 161.498 C 134.202 165.973,132.047 167.075,122.823 167.318 C 115.076 167.522,114.552 167.619,114.035 168.946 C 109.651 180.199,93.874 183.082,85.038 174.245 C 73.912 163.119,81.933 143.974,97.720 143.974 C 101.035 143.974,102.795 144.358,105.381 145.646 M95.114 156.160 C 88.476 158.587,90.541 168.907,97.664 168.907 C 102.352 168.907,105.296 165.307,104.408 160.660 C 103.733 157.128,98.886 154.782,95.114 156.160 M317.604 157.166 C 314.430 159.924,314.810 165.564,318.325 167.867 C 325.110 172.313,332.794 163.313,327.086 157.605 C 324.604 155.122,320.191 154.918,317.604 157.166 M154.694 214.085 C 159.605 215.970,158.575 221.525,152.109 228.022 L 146.563 233.594 147.625 236.712 C 154.599 257.178,123.426 268.643,113.962 249.093 C 107.406 235.551,122.465 219.085,136.203 224.775 C 138.149 225.581,138.232 225.529,144.241 219.635 C 150.306 213.687,151.712 212.941,154.694 214.085 M274.581 219.566 C 280.242 225.118,280.682 225.413,282.353 224.778 C 298.968 218.461,314.711 241.059,302.146 253.189 C 288.197 266.656,265.604 253.403,271.998 235.505 L 272.929 232.899 267.083 227.024 C 260.492 220.399,259.755 218.361,262.837 215.280 C 265.879 212.237,267.835 212.951,274.581 219.566 M126.531 236.251 C 121.625 240.289,125.734 249.494,131.767 247.980 C 136.791 246.719,139.075 240.414,135.722 237.061 C 133.727 235.067,128.528 234.608,126.531 236.251 M284.640 237.083 C 281.037 240.687,283.122 246.959,288.244 247.920 C 294.921 249.173,299.041 239.198,293.113 236.132 C 290.043 234.545,286.817 234.907,284.640 237.083 M213.385 239.384 C 214.910 240.910,214.984 241.353,214.984 249.057 L 214.984 257.131 217.604 258.313 C 234.337 265.858,228.248 292.096,209.772 292.062 C 191.419 292.028,185.078 266.909,201.329 258.619 L 203.802 257.357 204.018 249.142 C 204.300 238.447,208.290 234.290,213.385 239.384 M206.653 268.082 C 203.706 269.363,202.198 272.942,203.198 276.281 C 205.361 283.501,216.287 281.907,216.287 274.371 C 216.287 268.691,211.877 265.813,206.653 268.082 " stroke="#000000" fill="none" stroke-width="3" class="ZlQaCcUu_0"></path></g><style data-made-with="vivus-instant">.ZlQaCcUu_0{stroke-dasharray:3969 3971;stroke-dashoffset:3970;animation:ZlQaCcUu_draw_0 4500ms linear 0ms infinite,ZlQaCcUu_fade 4500ms linear 0ms infinite;}@keyframes ZlQaCcUu_draw{100%{stroke-dashoffset:0;}}@keyframes ZlQaCcUu_fade{0%{stroke-opacity:1;}91.11111111111111%{stroke-opacity:1;}100%{stroke-opacity:0;}}@keyframes ZlQaCcUu_draw_0{6.666666666666667%{stroke-dashoffset: 3970}73.33333333333333%{ stroke-dashoffset: 0;}100%{ stroke-dashoffset: 0;}}</style></svg>