<svg id="svg" version="1.1" width="400" height="400" xmlns="http://www.w3.org/2000/svg" xmlns:xlink="http://www.w3.org/1999/xlink" style=""><g id="svgg"><path id="path0" d="M196.106 31.920 C 149.976 36.278,138.707 100.709,180.556 120.834 L 186.181 123.540 186.188 135.727 L 186.195 147.914 160.732 148.116 C 129.419 148.365,132.743 146.543,132.743 163.456 C 132.743 180.249,129.331 178.407,160.441 178.407 L 186.195 178.407 186.195 263.717 C 186.195 317.076,185.943 349.027,185.523 349.027 C 182.867 349.027,168.273 345.642,162.145 343.605 C 115.812 328.203,82.206 285.522,78.817 237.774 L 78.372 231.504 87.894 231.504 C 103.083 231.504,103.358 233.610,82.819 192.541 C 65.474 157.858,65.383 157.717,61.252 159.287 C 58.930 160.170,26.903 223.740,26.903 227.466 C 26.903 231.253,27.616 231.504,38.372 231.504 L 48.142 231.504 48.142 235.701 C 48.142 244.973,51.286 262.027,55.201 273.982 C 90.975 383.243,228.046 416.341,309.096 335.291 C 336.079 308.308,353.982 268.586,353.982 235.701 L 353.982 231.504 363.752 231.504 C 374.508 231.504,375.221 231.253,375.221 227.466 C 375.221 223.740,343.194 160.170,340.872 159.287 C 336.741 157.717,336.649 157.858,319.305 192.541 C 298.766 233.610,299.041 231.504,314.230 231.504 L 323.752 231.504 323.297 237.919 C 319.919 285.500,286.234 328.229,239.978 343.605 C 233.851 345.642,219.257 349.027,216.601 349.027 C 216.181 349.027,215.929 317.076,215.929 263.717 L 215.929 178.407 241.683 178.407 C 262.713 178.407,267.586 178.228,268.248 177.430 C 268.809 176.754,268.999 172.354,268.865 163.114 L 268.673 149.775 266.903 148.880 C 265.579 148.211,258.933 147.983,240.531 147.975 L 215.929 147.965 215.936 135.752 L 215.942 123.540 221.777 120.739 C 268.271 98.415,247.645 27.052,196.106 31.920 M210.134 64.608 C 215.328 68.045,216.991 71.434,216.991 78.584 C 216.991 99.951,185.971 101.008,184.894 79.678 C 184.192 65.779,198.760 57.081,210.134 64.608 " stroke="#000000" fill="none" stroke-width="3" class="fygkvECz_0"></path></g><style data-made-with="vivus-instant">.fygkvECz_0{stroke-dasharray:2249 2251;stroke-dashoffset:2250;animation:fygkvECz_draw_0 4500ms linear 0ms infinite,fygkvECz_fade 4500ms linear 0ms infinite;}@keyframes fygkvECz_draw{100%{stroke-dashoffset:0;}}@keyframes fygkvECz_fade{0%{stroke-opacity:1;}91.11111111111111%{stroke-opacity:1;}100%{stroke-opacity:0;}}@keyframes fygkvECz_draw_0{6.666666666666667%{stroke-dashoffset: 2250}73.33333333333333%{ stroke-dashoffset: 0;}100%{ stroke-dashoffset: 0;}}</style></svg>