<svg id="svg" version="1.1" width="400" height="400" xmlns="http://www.w3.org/2000/svg" xmlns:xlink="http://www.w3.org/1999/xlink" style=""><g id="svgg"><path id="path0" d="M13.126 111.917 L 13.126 205.181 33.851 205.181 L 54.577 205.181 54.577 132.642 L 54.577 60.104 116.753 60.104 L 178.929 60.104 178.929 80.829 L 178.929 101.554 137.478 101.554 L 96.028 101.554 96.028 207.945 L 96.028 314.335 116.753 314.335 L 137.478 314.335 137.478 228.670 L 137.478 143.005 178.929 143.005 L 220.380 143.005 220.380 101.554 L 220.380 60.104 282.556 60.104 L 344.732 60.104 344.732 80.829 L 344.732 101.554 303.282 101.554 L 261.831 101.554 261.831 122.280 L 261.831 143.005 324.007 143.005 L 386.183 143.005 386.183 80.829 L 386.183 18.653 199.655 18.653 L 13.126 18.653 13.126 111.917 M178.929 246.632 L 178.929 308.808 241.105 308.808 L 303.282 308.808 303.282 267.358 L 303.282 225.907 324.007 225.907 L 344.732 225.907 344.732 288.083 L 344.732 350.259 199.655 350.259 L 54.577 350.259 54.577 298.446 L 54.577 246.632 33.851 246.632 L 13.126 246.632 13.126 319.171 L 13.126 391.710 199.655 391.710 L 386.183 391.710 386.183 288.083 L 386.183 184.456 324.007 184.456 L 261.831 184.456 261.831 225.907 L 261.831 267.358 241.105 267.358 L 220.380 267.358 220.380 225.907 L 220.380 184.456 199.655 184.456 L 178.929 184.456 178.929 246.632 " stroke="#000000" fill="none" stroke-width="3" class="iblfyCfw_0"></path></g><style data-made-with="vivus-instant">.iblfyCfw_0{stroke-dasharray:4157 4159;stroke-dashoffset:4158;animation:iblfyCfw_draw_0 4500ms linear 0ms infinite,iblfyCfw_fade 4500ms linear 0ms infinite;}@keyframes iblfyCfw_draw{100%{stroke-dashoffset:0;}}@keyframes iblfyCfw_fade{0%{stroke-opacity:1;}91.11111111111111%{stroke-opacity:1;}100%{stroke-opacity:0;}}@keyframes iblfyCfw_draw_0{6.666666666666667%{stroke-dashoffset: 4158}73.33333333333333%{ stroke-dashoffset: 0;}100%{ stroke-dashoffset: 0;}}</style></svg>