<svg id="svg" version="1.1" width="400" height="400" viewBox="0 0 400 400" xmlns="http://www.w3.org/2000/svg" xmlns:xlink="http://www.w3.org/1999/xlink" style=""><g id="svgg"><path id="path0" d="M180.800 33.400 C 180.800 33.893,180.094 34.000,176.849 34.000 C 173.825 34.000,172.781 34.141,172.400 34.600 C 172.046 35.027,171.108 35.200,169.151 35.200 C 167.584 35.200,166.400 35.372,166.400 35.600 C 166.400 35.820,165.444 36.000,164.276 36.000 C 163.029 36.000,161.833 36.242,161.376 36.587 C 160.949 36.910,159.848 37.180,158.929 37.187 C 157.992 37.194,156.993 37.464,156.657 37.800 C 156.320 38.137,155.343 38.400,154.429 38.400 C 153.248 38.400,152.800 38.565,152.800 39.000 C 152.800 39.452,152.316 39.600,150.843 39.600 C 149.472 39.600,148.817 39.780,148.655 40.200 C 148.503 40.596,147.877 40.800,146.813 40.800 C 145.926 40.800,145.200 40.980,145.200 41.200 C 145.200 41.420,144.784 41.600,144.276 41.600 C 143.769 41.600,143.004 41.864,142.576 42.187 C 142.149 42.510,141.305 42.780,140.700 42.787 C 139.995 42.795,139.600 43.015,139.600 43.400 C 139.600 43.820,139.176 44.000,138.187 44.000 C 137.301 44.000,136.689 44.223,136.545 44.600 C 136.413 44.942,135.817 45.200,135.157 45.200 C 134.521 45.200,134.000 45.380,134.000 45.600 C 134.000 45.820,133.544 46.000,132.987 46.000 C 132.431 46.000,131.871 46.270,131.745 46.600 C 131.618 46.930,131.097 47.200,130.586 47.200 C 130.075 47.200,129.387 47.470,129.057 47.800 C 128.727 48.130,128.079 48.400,127.616 48.400 C 127.153 48.400,126.671 48.670,126.545 49.000 C 126.418 49.330,125.878 49.600,125.345 49.600 C 124.811 49.600,124.271 49.870,124.145 50.200 C 124.018 50.530,123.484 50.800,122.957 50.800 C 122.431 50.800,121.998 50.935,121.996 51.100 C 121.994 51.265,121.184 51.755,120.196 52.190 C 119.208 52.624,118.400 53.209,118.400 53.490 C 118.400 53.770,117.944 54.000,117.387 54.000 C 116.831 54.000,116.271 54.270,116.145 54.600 C 116.018 54.930,115.484 55.200,114.957 55.200 C 114.431 55.200,114.000 55.337,114.000 55.505 C 114.000 55.811,112.815 56.533,111.500 57.029 C 111.115 57.174,110.800 57.542,110.800 57.847 C 110.800 58.151,110.462 58.400,110.049 58.400 C 109.636 58.400,109.074 58.670,108.800 59.000 C 108.526 59.330,108.054 59.600,107.751 59.600 C 107.448 59.600,107.200 59.870,107.200 60.200 C 107.200 60.573,106.822 60.800,106.200 60.800 C 105.650 60.800,105.200 60.980,105.200 61.200 C 105.200 61.420,104.930 61.600,104.600 61.600 C 104.270 61.600,104.000 61.870,104.000 62.200 C 104.000 62.536,103.643 62.800,103.187 62.800 C 102.741 62.800,102.271 63.070,102.145 63.400 C 102.018 63.730,101.664 64.000,101.357 64.000 C 101.051 64.000,100.800 64.270,100.800 64.600 C 100.800 64.930,100.530 65.200,100.200 65.200 C 99.870 65.200,99.600 65.360,99.600 65.557 C 99.600 65.753,99.150 66.026,98.600 66.164 C 98.050 66.302,97.600 66.592,97.600 66.808 C 97.600 67.023,97.370 67.200,97.089 67.200 C 96.515 67.200,95.200 68.596,95.200 69.205 C 95.200 69.422,94.930 69.600,94.600 69.600 C 94.270 69.600,94.000 69.870,94.000 70.200 C 94.000 70.538,93.642 70.800,93.181 70.800 C 92.730 70.800,91.945 71.250,91.435 71.800 C 90.925 72.350,90.304 72.800,90.054 72.800 C 89.804 72.800,89.600 73.070,89.600 73.400 C 89.600 73.730,89.330 74.000,89.000 74.000 C 88.670 74.000,88.400 74.270,88.400 74.600 C 88.400 74.930,88.206 75.200,87.969 75.200 C 87.409 75.200,85.200 77.409,85.200 77.969 C 85.200 78.206,84.930 78.400,84.600 78.400 C 84.270 78.400,84.000 78.670,84.000 79.000 C 84.000 79.330,83.730 79.600,83.400 79.600 C 83.070 79.600,82.800 79.849,82.800 80.153 C 82.800 80.458,82.427 80.804,81.970 80.924 C 81.514 81.043,81.043 81.514,80.924 81.970 C 80.804 82.427,80.458 82.800,80.153 82.800 C 79.849 82.800,79.600 83.070,79.600 83.400 C 79.600 83.730,79.330 84.000,79.000 84.000 C 78.670 84.000,78.400 84.270,78.400 84.600 C 78.400 84.930,78.206 85.200,77.969 85.200 C 77.409 85.200,75.200 87.409,75.200 87.969 C 75.200 88.206,74.930 88.400,74.600 88.400 C 74.270 88.400,74.000 88.670,74.000 89.000 C 74.000 89.330,73.730 89.600,73.400 89.600 C 73.070 89.600,72.800 89.804,72.800 90.054 C 72.800 90.304,72.350 90.925,71.800 91.435 C 71.250 91.945,70.800 92.730,70.800 93.181 C 70.800 93.642,70.538 94.000,70.200 94.000 C 69.870 94.000,69.600 94.270,69.600 94.600 C 69.600 94.930,69.420 95.200,69.200 95.200 C 68.681 95.200,67.200 96.681,67.200 97.200 C 67.200 97.420,67.023 97.600,66.808 97.600 C 66.592 97.600,66.302 98.050,66.164 98.600 C 66.026 99.150,65.753 99.600,65.557 99.600 C 65.360 99.600,65.200 99.870,65.200 100.200 C 65.200 100.530,64.951 100.800,64.647 100.800 C 64.342 100.800,63.988 101.115,63.858 101.500 C 63.530 102.479,62.755 103.598,61.700 104.620 C 61.205 105.099,60.800 105.876,60.800 106.346 C 60.800 106.838,60.546 107.200,60.200 107.200 C 59.870 107.200,59.600 107.451,59.600 107.757 C 59.600 108.064,59.330 108.418,59.000 108.545 C 58.670 108.671,58.400 109.231,58.400 109.787 C 58.400 110.344,58.173 110.800,57.895 110.800 C 57.415 110.800,56.750 111.764,56.171 113.300 C 56.026 113.685,55.748 114.000,55.553 114.000 C 55.359 114.000,55.200 114.431,55.200 114.957 C 55.200 115.484,54.930 116.018,54.600 116.145 C 54.270 116.271,54.000 116.831,54.000 117.387 C 54.000 117.944,53.770 118.400,53.490 118.400 C 53.209 118.400,52.624 119.208,52.190 120.196 C 51.755 121.184,51.265 121.994,51.100 121.996 C 50.935 121.998,50.800 122.431,50.800 122.957 C 50.800 123.484,50.530 124.018,50.200 124.145 C 49.870 124.271,49.600 124.831,49.600 125.387 C 49.600 126.021,49.375 126.400,49.000 126.400 C 48.622 126.400,48.400 126.781,48.400 127.429 C 48.400 127.994,48.130 128.727,47.800 129.057 C 47.470 129.387,47.200 130.075,47.200 130.586 C 47.200 131.097,46.930 131.618,46.600 131.745 C 46.270 131.871,46.000 132.431,46.000 132.987 C 46.000 133.544,45.820 134.000,45.600 134.000 C 45.380 134.000,45.200 134.521,45.200 135.157 C 45.200 135.817,44.942 136.413,44.600 136.545 C 44.223 136.689,44.000 137.301,44.000 138.187 C 44.000 139.176,43.820 139.600,43.400 139.600 C 43.015 139.600,42.795 139.995,42.787 140.700 C 42.780 141.305,42.510 142.149,42.187 142.576 C 41.864 143.004,41.600 143.859,41.600 144.476 C 41.600 145.094,41.420 145.600,41.200 145.600 C 40.980 145.600,40.800 146.236,40.800 147.013 C 40.800 147.899,40.577 148.511,40.200 148.655 C 39.780 148.817,39.600 149.472,39.600 150.843 C 39.600 152.316,39.452 152.800,39.000 152.800 C 38.565 152.800,38.400 153.248,38.400 154.429 C 38.400 155.343,38.137 156.320,37.800 156.657 C 37.451 157.006,37.200 157.984,37.200 158.995 C 37.200 159.984,36.995 160.802,36.724 160.892 C 36.443 160.986,36.177 162.150,36.077 163.725 C 35.983 165.196,35.748 166.400,35.553 166.400 C 35.359 166.400,35.200 167.641,35.200 169.157 C 35.200 171.239,35.053 171.971,34.600 172.145 C 34.119 172.329,34.000 173.212,34.000 176.587 C 34.000 180.065,33.895 180.800,33.400 180.800 C 32.491 180.800,32.491 219.107,33.400 219.455 C 33.878 219.639,34.000 220.496,34.000 223.655 C 34.000 226.815,34.122 227.672,34.600 227.855 C 35.052 228.029,35.200 228.758,35.200 230.819 C 35.200 232.323,35.358 233.651,35.551 233.770 C 35.745 233.889,35.984 235.105,36.083 236.471 C 36.183 237.866,36.468 239.023,36.731 239.110 C 36.994 239.198,37.200 240.031,37.200 241.005 C 37.200 242.016,37.451 242.994,37.800 243.343 C 38.137 243.680,38.400 244.657,38.400 245.571 C 38.400 246.752,38.565 247.200,39.000 247.200 C 39.452 247.200,39.600 247.684,39.600 249.157 C 39.600 250.528,39.780 251.183,40.200 251.345 C 40.574 251.488,40.800 252.098,40.800 252.964 C 40.800 253.728,40.980 254.464,41.200 254.600 C 41.420 254.736,41.600 255.355,41.600 255.975 C 41.600 256.595,41.870 257.326,42.200 257.600 C 42.530 257.874,42.800 258.616,42.800 259.249 C 42.800 260.005,43.006 260.400,43.400 260.400 C 43.820 260.400,44.000 260.824,44.000 261.813 C 44.000 262.699,44.223 263.311,44.600 263.455 C 44.942 263.587,45.200 264.183,45.200 264.843 C 45.200 265.479,45.380 266.000,45.600 266.000 C 45.820 266.000,46.000 266.456,46.000 267.013 C 46.000 267.569,46.270 268.129,46.600 268.255 C 46.930 268.382,47.200 268.882,47.200 269.366 C 47.200 269.851,47.464 270.596,47.787 271.024 C 48.110 271.451,48.380 272.186,48.387 272.657 C 48.394 273.129,48.670 273.618,49.000 273.745 C 49.330 273.871,49.600 274.346,49.600 274.800 C 49.600 275.254,49.870 275.729,50.200 275.855 C 50.530 275.982,50.800 276.516,50.800 277.043 C 50.800 277.569,50.935 278.002,51.100 278.004 C 51.265 278.006,51.755 278.816,52.190 279.804 C 52.624 280.792,53.209 281.600,53.490 281.600 C 53.790 281.600,54.000 282.094,54.000 282.800 C 54.000 283.600,54.200 284.000,54.600 284.000 C 54.973 284.000,55.200 284.378,55.200 285.000 C 55.200 285.550,55.359 286.000,55.553 286.000 C 55.748 286.000,56.022 286.315,56.163 286.700 C 56.662 288.061,57.649 289.600,58.022 289.600 C 58.230 289.600,58.400 289.966,58.400 290.413 C 58.400 290.859,58.670 291.329,59.000 291.455 C 59.330 291.582,59.600 291.936,59.600 292.243 C 59.600 292.549,59.870 292.800,60.200 292.800 C 60.573 292.800,60.800 293.178,60.800 293.800 C 60.800 294.350,60.980 294.800,61.200 294.800 C 61.420 294.800,61.600 295.070,61.600 295.400 C 61.600 295.730,61.850 296.000,62.157 296.000 C 62.463 296.000,62.826 296.450,62.964 297.000 C 63.102 297.550,63.392 298.000,63.608 298.000 C 63.823 298.000,64.000 298.245,64.000 298.544 C 64.000 298.843,64.439 299.418,64.976 299.821 C 65.513 300.224,66.056 300.969,66.184 301.477 C 66.311 301.985,66.592 302.400,66.808 302.400 C 67.023 302.400,67.200 302.630,67.200 302.911 C 67.200 303.485,68.596 304.800,69.205 304.800 C 69.422 304.800,69.600 305.070,69.600 305.400 C 69.600 305.730,69.870 306.000,70.200 306.000 C 70.573 306.000,70.800 306.378,70.800 307.000 C 70.800 307.550,70.935 308.001,71.100 308.001 C 71.265 308.002,71.760 308.541,72.200 309.200 C 72.640 309.859,73.225 310.398,73.500 310.399 C 73.775 310.399,74.000 310.670,74.000 311.000 C 74.000 311.330,74.270 311.600,74.600 311.600 C 74.930 311.600,75.200 311.794,75.200 312.031 C 75.200 312.591,77.409 314.800,77.969 314.800 C 78.206 314.800,78.400 315.070,78.400 315.400 C 78.400 315.730,78.670 316.000,79.000 316.000 C 79.330 316.000,79.600 316.270,79.600 316.600 C 79.600 316.930,79.870 317.200,80.200 317.200 C 80.530 317.200,80.800 317.440,80.800 317.734 C 80.800 318.331,82.970 320.400,83.597 320.400 C 83.818 320.400,84.000 320.670,84.000 321.000 C 84.000 321.330,84.270 321.600,84.600 321.600 C 84.930 321.600,85.200 321.794,85.200 322.031 C 85.200 322.591,87.409 324.800,87.969 324.800 C 88.206 324.800,88.400 325.070,88.400 325.400 C 88.400 325.730,88.670 326.000,89.000 326.000 C 89.330 326.000,89.600 326.270,89.600 326.600 C 89.600 326.930,89.774 327.200,89.986 327.200 C 90.199 327.200,90.925 327.740,91.600 328.400 C 92.275 329.060,93.091 329.600,93.414 329.600 C 93.736 329.600,94.000 329.780,94.000 330.000 C 94.000 330.220,94.270 330.400,94.600 330.400 C 94.930 330.400,95.200 330.578,95.200 330.795 C 95.200 331.404,96.515 332.800,97.089 332.800 C 97.370 332.800,97.600 332.977,97.600 333.192 C 97.600 333.408,98.050 333.698,98.600 333.836 C 99.150 333.974,99.600 334.247,99.600 334.443 C 99.600 334.640,99.870 334.800,100.200 334.800 C 100.530 334.800,100.800 335.027,100.800 335.305 C 100.800 335.785,101.764 336.450,103.300 337.029 C 103.685 337.174,104.000 337.542,104.000 337.847 C 104.000 338.151,104.270 338.400,104.600 338.400 C 104.930 338.400,105.200 338.577,105.200 338.792 C 105.200 339.008,105.650 339.298,106.200 339.436 C 106.750 339.574,107.200 339.847,107.200 340.043 C 107.200 340.240,107.451 340.400,107.757 340.400 C 108.064 340.400,108.418 340.670,108.545 341.000 C 108.671 341.330,109.231 341.600,109.787 341.600 C 110.344 341.600,110.800 341.827,110.800 342.105 C 110.800 342.585,111.764 343.250,113.300 343.829 C 113.685 343.974,114.000 344.252,114.000 344.447 C 114.000 344.641,114.450 344.800,115.000 344.800 C 115.622 344.800,116.000 345.027,116.000 345.400 C 116.000 345.800,116.400 346.000,117.200 346.000 C 117.891 346.000,118.402 346.212,118.405 346.500 C 118.407 346.775,119.172 347.357,120.105 347.794 C 121.037 348.231,121.890 348.695,122.000 348.825 C 122.406 349.307,124.946 350.400,125.661 350.400 C 126.068 350.400,126.400 350.670,126.400 351.000 C 126.400 351.378,126.781 351.600,127.429 351.600 C 127.994 351.600,128.727 351.870,129.057 352.200 C 129.387 352.530,130.075 352.800,130.586 352.800 C 131.097 352.800,131.618 353.070,131.745 353.400 C 131.871 353.730,132.431 354.000,132.987 354.000 C 133.544 354.000,134.000 354.180,134.000 354.400 C 134.000 354.620,134.521 354.800,135.157 354.800 C 135.817 354.800,136.413 355.058,136.545 355.400 C 136.689 355.777,137.301 356.000,138.187 356.000 C 139.176 356.000,139.600 356.180,139.600 356.600 C 139.600 356.994,139.995 357.200,140.751 357.200 C 141.384 357.200,142.126 357.470,142.400 357.800 C 142.674 358.130,143.401 358.400,144.016 358.400 C 144.630 358.400,145.197 358.592,145.275 358.826 C 145.353 359.060,146.178 359.354,147.109 359.478 C 148.039 359.603,148.800 359.862,148.800 360.053 C 148.800 360.244,149.700 360.400,150.800 360.400 C 152.311 360.400,152.800 360.547,152.800 361.000 C 152.800 361.442,153.262 361.600,154.557 361.600 C 155.750 361.600,156.388 361.793,156.545 362.200 C 156.704 362.615,157.365 362.804,158.687 362.813 C 159.739 362.820,160.949 363.090,161.376 363.413 C 161.833 363.758,163.029 364.000,164.276 364.000 C 165.444 364.000,166.400 364.180,166.400 364.400 C 166.400 364.628,167.584 364.800,169.151 364.800 C 171.108 364.800,172.046 364.973,172.400 365.400 C 172.781 365.859,173.825 366.000,176.849 366.000 C 180.094 366.000,180.800 366.107,180.800 366.600 C 180.800 367.125,183.195 367.200,199.957 367.200 C 216.617 367.200,219.144 367.122,219.345 366.600 C 219.527 366.125,220.364 366.000,223.359 366.000 C 226.189 366.000,227.294 365.849,227.743 365.400 C 228.153 364.990,229.166 364.800,230.948 364.800 C 232.381 364.800,233.664 364.620,233.800 364.400 C 233.936 364.180,235.005 364.000,236.175 364.000 C 237.578 364.000,238.472 363.796,238.800 363.400 C 239.119 363.016,240.004 362.800,241.262 362.800 C 242.638 362.800,243.294 362.621,243.455 362.200 C 243.612 361.793,244.250 361.600,245.443 361.600 C 246.738 361.600,247.200 361.442,247.200 361.000 C 247.200 360.548,247.686 360.400,249.176 360.400 C 250.263 360.400,251.264 360.220,251.400 360.000 C 251.536 359.780,252.164 359.600,252.795 359.600 C 253.426 359.600,254.213 359.330,254.543 359.000 C 254.873 358.670,255.584 358.400,256.122 358.400 C 256.661 358.400,257.326 358.130,257.600 357.800 C 257.874 357.470,258.616 357.200,259.249 357.200 C 260.005 357.200,260.400 356.994,260.400 356.600 C 260.400 356.167,260.844 356.000,262.000 356.000 C 263.156 356.000,263.600 355.833,263.600 355.400 C 263.600 355.000,264.000 354.800,264.800 354.800 C 265.460 354.800,266.000 354.620,266.000 354.400 C 266.000 354.180,266.540 354.000,267.200 354.000 C 268.000 354.000,268.400 353.800,268.400 353.400 C 268.400 353.040,268.769 352.800,269.324 352.800 C 269.831 352.800,270.596 352.536,271.024 352.213 C 271.451 351.890,272.186 351.620,272.657 351.613 C 273.129 351.606,273.618 351.330,273.745 351.000 C 273.871 350.670,274.431 350.400,274.987 350.400 C 275.544 350.400,276.000 350.240,276.000 350.043 C 276.000 349.847,276.450 349.574,277.000 349.436 C 277.550 349.298,278.000 349.008,278.000 348.792 C 278.000 348.577,278.347 348.400,278.771 348.400 C 279.196 348.400,279.813 348.130,280.143 347.800 C 280.473 347.470,280.936 347.200,281.171 347.200 C 281.407 347.200,281.600 346.930,281.600 346.600 C 281.600 346.200,282.000 346.000,282.800 346.000 C 283.600 346.000,284.000 345.800,284.000 345.400 C 284.000 345.027,284.378 344.800,285.000 344.800 C 285.550 344.800,286.000 344.640,286.000 344.443 C 286.000 344.247,286.450 343.974,287.000 343.836 C 287.550 343.698,288.000 343.408,288.000 343.192 C 288.000 342.977,288.276 342.800,288.613 342.800 C 288.949 342.800,289.329 342.530,289.455 342.200 C 289.582 341.870,290.032 341.600,290.455 341.600 C 290.879 341.600,291.329 341.330,291.455 341.000 C 291.582 340.670,291.936 340.400,292.243 340.400 C 292.549 340.400,292.800 340.240,292.800 340.043 C 292.800 339.847,293.250 339.574,293.800 339.436 C 294.350 339.298,294.800 339.008,294.800 338.792 C 294.800 338.577,295.070 338.400,295.400 338.400 C 295.730 338.400,296.000 338.150,296.000 337.843 C 296.000 337.537,296.450 337.174,297.000 337.036 C 297.550 336.898,298.000 336.608,298.000 336.392 C 298.000 336.177,298.245 336.000,298.544 336.000 C 298.843 336.000,299.418 335.561,299.821 335.024 C 300.224 334.487,300.929 333.954,301.389 333.839 C 302.414 333.581,304.800 331.501,304.800 330.864 C 304.800 330.609,305.070 330.400,305.400 330.400 C 305.730 330.400,306.000 330.240,306.000 330.043 C 306.000 329.847,306.450 329.574,307.000 329.436 C 307.550 329.298,308.000 329.008,308.000 328.792 C 308.000 328.577,308.180 328.400,308.400 328.400 C 308.919 328.400,310.400 326.919,310.400 326.400 C 310.400 326.180,310.670 326.000,311.000 326.000 C 311.330 326.000,311.600 325.730,311.600 325.400 C 311.600 325.070,311.870 324.800,312.200 324.800 C 312.530 324.800,312.800 324.620,312.800 324.400 C 312.800 324.180,313.070 324.000,313.400 324.000 C 313.730 324.000,314.000 323.730,314.000 323.400 C 314.000 323.070,314.270 322.800,314.600 322.800 C 314.930 322.800,315.200 322.530,315.200 322.200 C 315.200 321.870,315.380 321.600,315.600 321.600 C 315.820 321.600,316.000 321.330,316.000 321.000 C 316.000 320.670,316.270 320.400,316.600 320.400 C 316.930 320.400,317.200 320.263,317.200 320.095 C 317.200 319.927,317.605 319.612,318.100 319.395 C 318.595 319.178,319.178 318.595,319.395 318.100 C 319.612 317.605,319.927 317.200,320.095 317.200 C 320.263 317.200,320.400 316.930,320.400 316.600 C 320.400 316.270,320.670 316.000,321.000 316.000 C 321.330 316.000,321.600 315.730,321.600 315.400 C 321.600 315.070,321.870 314.800,322.200 314.800 C 322.530 314.800,322.800 314.620,322.800 314.400 C 322.800 314.180,323.070 314.000,323.400 314.000 C 323.730 314.000,324.000 313.730,324.000 313.400 C 324.000 313.070,324.270 312.800,324.600 312.800 C 324.930 312.800,325.200 312.530,325.200 312.200 C 325.200 311.870,325.380 311.600,325.600 311.600 C 325.820 311.600,326.000 311.330,326.000 311.000 C 326.000 310.670,326.190 310.400,326.423 310.400 C 327.055 310.400,329.196 307.931,329.458 306.900 C 329.584 306.405,329.847 306.000,330.043 306.000 C 330.240 306.000,330.400 305.730,330.400 305.400 C 330.400 305.070,330.609 304.800,330.864 304.800 C 331.524 304.800,333.585 302.397,333.858 301.312 C 333.984 300.810,334.307 300.400,334.576 300.400 C 334.845 300.400,335.320 299.905,335.632 299.300 C 335.945 298.695,336.425 297.962,336.700 297.671 C 336.975 297.381,337.200 296.886,337.200 296.571 C 337.200 296.257,337.470 296.000,337.800 296.000 C 338.130 296.000,338.400 295.730,338.400 295.400 C 338.400 295.070,338.577 294.800,338.792 294.800 C 339.008 294.800,339.298 294.350,339.436 293.800 C 339.574 293.250,339.847 292.800,340.043 292.800 C 340.240 292.800,340.400 292.549,340.400 292.243 C 340.400 291.936,340.670 291.582,341.000 291.455 C 341.330 291.329,341.600 290.879,341.600 290.455 C 341.600 290.032,341.870 289.582,342.200 289.455 C 342.530 289.329,342.800 288.949,342.800 288.613 C 342.800 288.276,342.977 288.000,343.192 288.000 C 343.408 288.000,343.694 287.563,343.828 287.029 C 343.963 286.495,344.326 285.961,344.636 285.841 C 344.946 285.722,345.200 285.259,345.200 284.813 C 345.200 284.366,345.380 284.000,345.600 284.000 C 345.820 284.000,346.000 283.460,346.000 282.800 C 346.000 282.000,346.200 281.600,346.600 281.600 C 346.930 281.600,347.200 281.330,347.200 281.000 C 347.200 280.670,347.377 280.400,347.592 280.400 C 347.808 280.400,348.109 279.907,348.260 279.304 C 348.411 278.701,348.775 277.968,349.067 277.675 C 349.360 277.382,349.600 276.886,349.600 276.571 C 349.600 276.257,349.780 276.000,350.000 276.000 C 350.220 276.000,350.400 275.569,350.400 275.043 C 350.400 274.516,350.670 273.982,351.000 273.855 C 351.330 273.729,351.600 273.191,351.600 272.662 C 351.600 272.132,351.870 271.474,352.200 271.200 C 352.530 270.926,352.800 270.184,352.800 269.551 C 352.800 268.795,353.006 268.400,353.400 268.400 C 353.795 268.400,354.000 268.005,354.000 267.243 C 354.000 266.583,354.258 265.987,354.600 265.855 C 354.930 265.729,355.200 265.270,355.200 264.836 C 355.200 264.402,355.380 263.936,355.600 263.800 C 355.820 263.664,356.000 262.843,356.000 261.976 C 356.000 260.842,356.168 260.400,356.600 260.400 C 356.994 260.400,357.200 260.005,357.200 259.249 C 357.200 258.616,357.470 257.874,357.800 257.600 C 358.130 257.326,358.406 256.629,358.413 256.051 C 358.420 255.473,358.690 254.651,359.013 254.224 C 359.336 253.796,359.600 253.042,359.600 252.547 C 359.600 252.052,359.780 251.536,360.000 251.400 C 360.220 251.264,360.400 250.263,360.400 249.176 C 360.400 247.686,360.548 247.200,361.000 247.200 C 361.430 247.200,361.600 246.761,361.600 245.649 C 361.600 244.758,361.855 243.886,362.200 243.600 C 362.569 243.294,362.800 242.416,362.800 241.322 C 362.800 240.274,363.046 239.296,363.400 238.943 C 363.773 238.570,364.000 237.587,364.000 236.343 C 364.000 235.098,364.227 234.116,364.600 233.743 C 365.008 233.335,365.200 232.326,365.200 230.595 C 365.200 229.194,365.380 227.936,365.600 227.800 C 365.823 227.662,366.000 225.810,366.000 223.619 C 366.000 220.492,366.123 219.638,366.600 219.455 C 367.122 219.255,367.200 216.721,367.200 200.013 C 367.200 183.201,367.125 180.800,366.600 180.800 C 366.105 180.800,366.000 180.069,366.000 176.624 C 366.000 174.271,365.825 172.339,365.600 172.200 C 365.380 172.064,365.200 170.815,365.200 169.425 C 365.200 167.667,365.017 166.746,364.600 166.400 C 364.205 166.072,364.000 165.178,364.000 163.780 C 364.000 162.426,363.783 161.440,363.400 161.057 C 363.040 160.698,362.800 159.719,362.800 158.616 C 362.800 157.348,362.613 156.703,362.200 156.545 C 361.793 156.388,361.600 155.750,361.600 154.557 C 361.600 153.262,361.442 152.800,361.000 152.800 C 360.547 152.800,360.400 152.311,360.400 150.800 C 360.400 149.700,360.220 148.800,360.000 148.800 C 359.780 148.800,359.600 148.294,359.600 147.676 C 359.600 147.059,359.336 146.204,359.013 145.776 C 358.690 145.349,358.420 144.527,358.413 143.949 C 358.406 143.371,358.130 142.674,357.800 142.400 C 357.470 142.126,357.200 141.384,357.200 140.751 C 357.200 139.995,356.994 139.600,356.600 139.600 C 356.167 139.600,356.000 139.156,356.000 138.000 C 356.000 137.120,355.820 136.400,355.600 136.400 C 355.380 136.400,355.200 135.944,355.200 135.387 C 355.200 134.831,354.930 134.271,354.600 134.145 C 354.270 134.018,354.000 133.478,354.000 132.945 C 354.000 132.411,353.730 131.871,353.400 131.745 C 353.066 131.617,352.800 131.022,352.800 130.406 C 352.800 129.797,352.530 129.074,352.200 128.800 C 351.870 128.526,351.600 127.874,351.600 127.351 C 351.600 126.772,351.365 126.400,351.000 126.400 C 350.670 126.400,350.400 126.068,350.400 125.661 C 350.400 124.946,349.307 122.406,348.825 122.000 C 348.695 121.890,348.231 121.037,347.794 120.105 C 347.357 119.172,346.775 118.407,346.500 118.405 C 346.212 118.402,346.000 117.891,346.000 117.200 C 346.000 116.540,345.820 116.000,345.600 116.000 C 345.380 116.000,345.200 115.743,345.200 115.429 C 345.200 115.114,344.975 114.612,344.700 114.312 C 343.970 113.515,343.211 112.301,342.942 111.500 C 342.812 111.115,342.458 110.800,342.153 110.800 C 341.828 110.800,341.600 110.383,341.600 109.787 C 341.600 109.231,341.330 108.671,341.000 108.545 C 340.670 108.418,340.400 108.064,340.400 107.757 C 340.400 107.451,340.240 107.200,340.043 107.200 C 339.847 107.200,339.574 106.750,339.436 106.200 C 339.298 105.650,339.008 105.200,338.792 105.200 C 338.577 105.200,338.400 104.930,338.400 104.600 C 338.400 104.270,338.173 104.000,337.895 104.000 C 337.415 104.000,336.750 103.036,336.171 101.500 C 336.026 101.115,335.748 100.800,335.553 100.800 C 335.359 100.800,335.200 100.530,335.200 100.200 C 335.200 99.870,334.950 99.600,334.643 99.600 C 334.337 99.600,333.974 99.150,333.836 98.600 C 333.698 98.050,333.408 97.600,333.192 97.600 C 332.977 97.600,332.800 97.370,332.800 97.089 C 332.800 96.515,331.404 95.200,330.795 95.200 C 330.578 95.200,330.400 94.930,330.400 94.600 C 330.400 94.270,330.240 94.000,330.043 94.000 C 329.847 94.000,329.574 93.550,329.436 93.000 C 329.298 92.450,329.008 92.000,328.792 92.000 C 328.577 92.000,328.400 91.730,328.400 91.400 C 328.400 91.070,328.130 90.800,327.800 90.800 C 327.470 90.800,327.200 90.530,327.200 90.200 C 327.200 89.870,326.930 89.600,326.600 89.600 C 326.270 89.600,326.000 89.406,326.000 89.168 C 326.000 88.606,322.594 85.200,322.032 85.200 C 321.794 85.200,321.600 84.930,321.600 84.600 C 321.600 84.270,321.330 84.000,321.000 84.000 C 320.670 84.000,320.400 83.818,320.400 83.597 C 320.400 82.970,318.331 80.800,317.734 80.800 C 317.440 80.800,317.200 80.530,317.200 80.200 C 317.200 79.870,316.930 79.600,316.600 79.600 C 316.270 79.600,316.000 79.330,316.000 79.000 C 316.000 78.670,315.820 78.400,315.600 78.400 C 315.380 78.400,315.200 78.130,315.200 77.800 C 315.200 77.470,315.011 77.200,314.781 77.200 C 314.550 77.200,313.945 76.750,313.435 76.200 C 312.925 75.650,312.304 75.200,312.054 75.200 C 311.804 75.200,311.600 74.930,311.600 74.600 C 311.600 74.270,311.330 74.000,311.000 74.000 C 310.670 74.000,310.399 73.775,310.399 73.500 C 310.398 73.225,309.859 72.640,309.200 72.200 C 308.541 71.760,308.002 71.265,308.001 71.100 C 308.001 70.935,307.550 70.800,307.000 70.800 C 306.378 70.800,306.000 70.573,306.000 70.200 C 306.000 69.870,305.730 69.600,305.400 69.600 C 305.070 69.600,304.800 69.391,304.800 69.136 C 304.800 68.499,302.414 66.419,301.389 66.161 C 300.929 66.046,300.224 65.513,299.821 64.976 C 299.418 64.439,298.862 64.000,298.587 64.000 C 298.311 64.000,297.982 63.730,297.855 63.400 C 297.729 63.070,297.259 62.800,296.813 62.800 C 296.357 62.800,296.000 62.536,296.000 62.200 C 296.000 61.870,295.730 61.600,295.400 61.600 C 295.070 61.600,294.800 61.420,294.800 61.200 C 294.800 60.980,294.350 60.800,293.800 60.800 C 293.178 60.800,292.800 60.573,292.800 60.200 C 292.800 59.870,292.549 59.600,292.243 59.600 C 291.936 59.600,291.582 59.330,291.455 59.000 C 291.329 58.670,290.859 58.400,290.413 58.400 C 289.966 58.400,289.600 58.230,289.600 58.022 C 289.600 57.649,288.061 56.662,286.700 56.163 C 286.315 56.022,286.000 55.748,286.000 55.553 C 286.000 55.359,285.550 55.200,285.000 55.200 C 284.378 55.200,284.000 54.973,284.000 54.600 C 284.000 54.200,283.600 54.000,282.800 54.000 C 282.094 54.000,281.600 53.790,281.600 53.490 C 281.600 53.209,280.792 52.624,279.804 52.190 C 278.816 51.755,278.006 51.265,278.004 51.100 C 278.002 50.935,277.569 50.800,277.043 50.800 C 276.516 50.800,275.982 50.530,275.855 50.200 C 275.729 49.870,275.254 49.600,274.800 49.600 C 274.346 49.600,273.871 49.330,273.745 49.000 C 273.618 48.670,273.071 48.400,272.529 48.400 C 271.986 48.400,271.273 48.130,270.943 47.800 C 270.613 47.470,269.925 47.200,269.414 47.200 C 268.903 47.200,268.382 46.930,268.255 46.600 C 268.129 46.270,267.569 46.000,267.013 46.000 C 266.456 46.000,266.000 45.820,266.000 45.600 C 266.000 45.380,265.479 45.200,264.843 45.200 C 264.183 45.200,263.587 44.942,263.455 44.600 C 263.311 44.223,262.699 44.000,261.813 44.000 C 260.824 44.000,260.400 43.820,260.400 43.400 C 260.400 43.006,260.005 42.800,259.249 42.800 C 258.616 42.800,257.874 42.530,257.600 42.200 C 257.326 41.870,256.584 41.600,255.951 41.600 C 255.318 41.600,254.800 41.420,254.800 41.200 C 254.800 40.980,254.074 40.800,253.187 40.800 C 252.123 40.800,251.497 40.596,251.345 40.200 C 251.183 39.780,250.528 39.600,249.157 39.600 C 247.684 39.600,247.200 39.452,247.200 39.000 C 247.200 38.565,246.752 38.400,245.571 38.400 C 244.657 38.400,243.680 38.137,243.343 37.800 C 243.007 37.464,242.008 37.194,241.071 37.187 C 240.152 37.180,239.051 36.910,238.624 36.587 C 238.194 36.262,236.998 36.000,235.947 36.000 C 234.902 36.000,233.936 35.820,233.800 35.600 C 233.664 35.380,232.325 35.200,230.825 35.200 C 228.889 35.200,227.954 35.026,227.600 34.600 C 227.222 34.144,226.196 34.000,223.338 34.000 C 220.362 34.000,219.527 33.875,219.345 33.400 C 219.144 32.878,216.617 32.800,199.957 32.800 C 183.195 32.800,180.800 32.875,180.800 33.400 M214.600 56.392 C 221.916 57.234,225.666 57.782,228.200 58.379 C 229.080 58.586,231.150 59.051,232.800 59.413 C 234.450 59.774,236.610 60.305,237.600 60.591 C 238.590 60.878,240.480 61.419,241.800 61.793 C 269.829 69.740,296.951 88.880,316.063 114.200 C 318.753 117.763,322.400 123.144,322.400 123.548 C 322.400 123.743,322.653 124.112,322.963 124.369 C 323.273 124.626,323.820 125.414,324.180 126.118 C 324.540 126.823,325.209 128.030,325.667 128.800 C 327.660 132.146,332.547 142.270,334.006 146.073 C 334.455 147.243,334.987 148.560,335.188 149.000 C 336.223 151.260,339.388 161.781,340.602 167.000 C 340.961 168.540,341.407 170.430,341.593 171.200 C 343.159 177.664,344.401 190.445,344.401 200.086 C 344.400 213.925,343.013 224.048,339.016 239.400 C 337.340 245.835,332.537 258.212,329.393 264.200 C 326.667 269.390,325.163 272.196,324.680 272.993 C 314.445 289.888,302.526 303.213,286.548 315.624 C 282.920 318.442,273.852 324.283,269.600 326.541 C 262.638 330.238,261.060 331.005,256.600 332.856 C 253.960 333.952,251.440 335.013,251.000 335.214 C 249.772 335.775,241.649 338.436,239.400 339.015 C 236.895 339.660,231.178 341.039,228.800 341.572 C 211.118 345.534,187.268 345.298,168.600 340.976 C 162.335 339.525,159.668 338.840,158.600 338.407 C 158.160 338.229,156.000 337.514,153.800 336.818 C 151.600 336.123,149.483 335.381,149.095 335.170 C 148.708 334.960,147.540 334.498,146.500 334.145 C 143.126 333.000,131.631 327.440,128.334 325.358 C 127.499 324.831,126.694 324.400,126.546 324.400 C 126.397 324.400,125.686 323.950,124.964 323.400 C 124.243 322.850,123.550 322.400,123.424 322.400 C 123.122 322.400,117.252 318.367,114.200 316.063 C 88.840 296.921,69.753 269.874,61.793 241.800 C 61.419 240.480,60.881 238.590,60.597 237.600 C 55.022 218.115,54.082 190.099,58.390 171.800 C 58.597 170.920,59.139 168.580,59.594 166.600 C 60.049 164.620,60.683 162.100,61.002 161.000 C 61.322 159.900,61.842 158.100,62.158 157.000 C 62.473 155.900,63.299 153.470,63.992 151.600 C 64.686 149.730,65.400 147.750,65.578 147.200 C 65.756 146.650,66.388 145.120,66.981 143.800 C 67.574 142.480,68.343 140.770,68.690 140.000 C 82.855 108.531,112.326 79.756,143.200 67.248 C 144.410 66.758,145.760 66.209,146.200 66.028 C 146.640 65.848,147.540 65.479,148.200 65.210 C 167.022 57.533,193.719 53.987,214.600 56.392 M146.000 119.165 C 143.470 120.645,140.410 122.398,139.200 123.060 C 135.737 124.955,126.793 130.013,124.694 131.264 C 123.646 131.889,122.704 132.400,122.601 132.400 C 122.498 132.400,121.238 133.120,119.800 134.000 C 118.362 134.880,117.040 135.600,116.863 135.600 C 116.685 135.600,116.148 136.017,115.670 136.526 L 114.800 137.452 115.065 157.923 C 115.298 175.908,115.408 178.460,115.965 178.935 C 116.581 179.460,121.751 182.594,125.000 184.412 C 129.887 187.147,147.458 197.237,151.035 199.362 L 152.271 200.096 154.635 198.785 C 155.936 198.064,157.671 197.052,158.492 196.537 C 159.313 196.022,160.065 195.600,160.163 195.600 C 160.262 195.600,161.391 194.991,162.671 194.246 C 163.952 193.501,168.420 190.964,172.600 188.610 C 176.780 186.255,182.160 183.219,184.556 181.864 L 188.911 179.400 188.683 158.925 C 188.435 136.656,188.528 137.426,185.933 136.066 C 184.980 135.567,183.660 134.836,183.000 134.443 C 181.796 133.725,174.307 129.380,167.200 125.276 C 165.110 124.070,162.729 122.659,161.908 122.141 C 161.087 121.623,160.339 121.200,160.245 121.200 C 160.151 121.200,158.256 120.120,156.033 118.800 C 151.126 115.887,151.633 115.868,146.000 119.165 M229.200 118.891 C 226.115 120.714,222.541 122.738,217.000 125.802 C 215.900 126.410,214.820 127.039,214.600 127.200 C 214.380 127.361,213.300 127.990,212.200 128.598 C 211.100 129.206,208.580 130.611,206.600 131.720 C 204.620 132.829,202.550 133.986,202.000 134.291 C 201.450 134.597,200.100 135.363,199.000 135.993 L 197.000 137.140 196.931 157.654 C 196.890 169.817,197.015 178.455,197.238 178.871 C 197.609 179.564,199.016 180.442,207.200 185.085 C 213.434 188.622,221.993 193.592,223.692 194.661 C 224.513 195.177,225.281 195.600,225.400 195.600 C 225.519 195.600,226.329 196.050,227.200 196.600 C 228.848 197.640,229.839 197.860,230.067 197.234 C 230.367 196.409,236.973 188.204,242.477 181.818 C 249.752 173.378,258.066 164.898,268.329 155.450 L 270.447 153.500 270.324 145.927 C 270.180 137.103,270.869 138.354,264.000 134.462 C 260.198 132.308,251.632 127.358,248.600 125.563 C 247.940 125.172,246.770 124.499,246.000 124.068 C 245.230 123.636,242.080 121.825,239.000 120.044 C 232.456 116.259,233.456 116.376,229.200 118.891 M310.200 138.896 C 303.732 141.228,285.909 152.314,278.400 158.676 C 268.375 167.168,261.316 173.901,254.586 181.390 C 252.614 183.584,250.667 185.744,250.259 186.190 C 244.302 192.706,232.415 208.780,225.405 219.800 C 224.566 221.120,223.477 222.830,222.986 223.600 C 220.214 227.945,219.200 229.654,219.200 229.979 C 219.200 230.179,218.975 230.581,218.700 230.871 C 218.425 231.162,217.570 232.612,216.800 234.094 C 213.970 239.542,214.170 239.554,210.506 233.696 C 209.238 231.669,206.310 227.004,204.000 223.331 C 201.690 219.658,199.530 216.191,199.200 215.626 C 198.870 215.062,198.502 214.510,198.382 214.400 C 198.263 214.290,196.740 211.860,194.999 209.000 C 193.258 206.140,191.601 203.562,191.317 203.271 C 191.033 202.981,190.800 202.588,190.800 202.399 C 190.800 201.727,188.414 202.810,173.400 210.294 C 165.040 214.462,154.922 219.476,150.915 221.436 C 142.574 225.517,142.640 225.429,146.700 226.959 C 150.671 228.456,152.089 229.075,157.512 231.680 C 162.315 233.987,166.209 236.095,169.200 238.006 C 169.530 238.217,170.335 238.688,170.989 239.051 C 172.269 239.763,176.935 242.847,182.400 246.593 C 185.354 248.618,187.132 249.923,189.599 251.876 C 189.929 252.138,191.730 253.561,193.600 255.037 C 198.942 259.256,207.304 266.537,211.882 270.957 C 217.300 276.188,216.732 276.034,219.011 272.883 C 243.946 238.405,290.161 197.916,312.100 191.326 C 314.770 190.524,314.781 190.480,313.200 187.063 C 312.540 185.637,312.000 184.221,312.000 183.915 C 312.000 183.610,311.839 183.189,311.642 182.980 C 310.568 181.840,309.138 172.532,309.125 166.600 C 309.114 161.289,309.343 159.075,311.830 140.500 C 312.129 138.268,312.079 138.218,310.200 138.896 M108.308 186.200 C 106.617 187.190,105.139 188.000,105.024 188.000 C 104.908 188.000,103.638 188.720,102.200 189.600 C 100.762 190.480,99.502 191.200,99.400 191.200 C 99.298 191.200,98.038 191.920,96.600 192.800 C 95.162 193.680,93.898 194.400,93.792 194.400 C 93.540 194.400,75.913 204.430,75.446 204.839 C 75.067 205.170,75.138 228.760,75.552 240.330 L 75.800 247.260 78.000 248.455 C 79.210 249.112,81.190 250.245,82.400 250.972 C 83.610 251.699,85.410 252.739,86.400 253.283 C 87.390 253.827,90.630 255.680,93.600 257.400 C 96.570 259.120,99.810 260.979,100.800 261.531 C 101.790 262.083,103.680 263.191,105.000 263.993 C 106.320 264.795,108.524 266.067,109.899 266.818 L 112.397 268.183 113.899 267.394 C 115.466 266.571,116.185 266.165,125.496 260.851 C 128.628 259.063,131.280 257.600,131.388 257.600 C 131.497 257.600,132.762 256.880,134.200 256.000 C 135.638 255.120,136.904 254.400,137.015 254.400 C 137.125 254.400,137.887 253.978,138.708 253.463 C 140.046 252.623,142.805 251.072,146.200 249.252 C 148.823 247.846,148.800 247.905,148.800 242.582 L 148.800 237.688 146.900 236.791 C 145.855 236.298,144.550 235.751,144.000 235.577 C 140.034 234.320,138.467 233.474,136.700 231.636 L 134.800 229.659 134.816 225.530 L 134.832 221.400 136.593 219.487 C 137.908 218.058,139.499 217.011,142.877 215.350 C 148.848 212.415,148.800 212.464,148.800 209.213 C 148.800 206.425,148.255 205.508,145.800 204.161 C 143.899 203.119,134.068 197.396,132.708 196.539 C 131.887 196.023,131.125 195.600,131.015 195.600 C 130.904 195.600,129.686 194.910,128.307 194.067 C 126.928 193.224,124.990 192.082,124.000 191.530 C 123.010 190.978,119.830 189.147,116.933 187.463 C 110.701 183.839,112.013 184.032,108.308 186.200 M189.000 187.040 C 185.700 188.931,176.378 194.168,173.200 195.917 C 172.210 196.461,171.220 197.039,171.000 197.200 C 170.780 197.361,169.700 197.990,168.600 198.598 C 167.500 199.206,165.006 200.591,163.059 201.674 C 161.111 202.758,159.131 203.860,158.659 204.122 C 156.462 205.344,155.562 207.304,156.954 207.838 C 157.258 207.954,163.953 204.844,171.832 200.925 L 186.156 193.800 189.486 193.659 C 194.827 193.432,196.777 194.731,200.860 201.236 C 201.883 202.866,204.237 206.630,206.091 209.600 C 212.986 220.645,214.400 222.481,214.400 220.384 C 214.400 220.155,214.740 219.480,215.155 218.884 C 216.926 216.343,224.452 204.731,224.631 204.262 C 224.946 203.443,221.702 201.335,210.800 195.274 C 209.810 194.723,208.370 193.880,207.600 193.400 C 206.830 192.920,205.390 192.075,204.400 191.522 C 203.410 190.969,200.515 189.320,197.966 187.858 C 192.461 184.700,192.997 184.749,189.000 187.040 M156.800 244.704 C 156.800 247.562,156.805 247.571,159.400 249.026 C 161.815 250.381,179.585 260.631,180.600 261.255 C 181.260 261.661,182.070 262.118,182.400 262.271 C 182.730 262.423,184.128 263.235,185.507 264.074 C 186.886 264.913,188.081 265.600,188.163 265.600 C 188.244 265.600,189.531 266.313,191.021 267.183 C 193.775 268.793,194.412 268.886,194.385 267.676 C 194.346 265.933,172.263 250.003,161.800 244.170 C 156.648 241.299,156.800 241.282,156.800 244.704 " stroke="#000000" fill="none" stroke-width="3" class="BWaFzjHU_0"></path><path id="path1" d="M185.000 56.412 C 171.543 57.999,157.854 61.272,148.200 65.210 C 147.540 65.479,146.640 65.848,146.200 66.028 C 145.760 66.209,144.410 66.758,143.200 67.248 C 112.326 79.756,82.855 108.531,68.690 140.000 C 68.343 140.770,67.574 142.480,66.981 143.800 C 66.388 145.120,65.756 146.650,65.578 147.200 C 65.400 147.750,64.686 149.730,63.992 151.600 C 63.299 153.470,62.473 155.900,62.158 157.000 C 61.842 158.100,61.322 159.900,61.002 161.000 C 60.683 162.100,60.049 164.620,59.594 166.600 C 59.139 168.580,58.597 170.920,58.390 171.800 C 54.082 190.099,55.022 218.115,60.597 237.600 C 60.881 238.590,61.419 240.480,61.793 241.800 C 69.753 269.874,88.840 296.921,114.200 316.063 C 117.252 318.367,123.122 322.400,123.424 322.400 C 123.550 322.400,124.243 322.850,124.964 323.400 C 125.686 323.950,126.397 324.400,126.546 324.400 C 126.694 324.400,127.499 324.831,128.334 325.358 C 131.631 327.440,143.126 333.000,146.500 334.145 C 147.540 334.498,148.708 334.960,149.095 335.170 C 149.483 335.381,151.600 336.123,153.800 336.818 C 156.000 337.514,158.160 338.229,158.600 338.407 C 159.668 338.840,162.335 339.525,168.600 340.976 C 187.268 345.298,211.118 345.534,228.800 341.572 C 231.178 341.039,236.895 339.660,239.400 339.015 C 241.649 338.436,249.772 335.775,251.000 335.214 C 251.440 335.013,253.960 333.952,256.600 332.856 C 261.060 331.005,262.638 330.238,269.600 326.541 C 273.852 324.283,282.920 318.442,286.548 315.624 C 301.127 304.300,311.301 293.393,320.906 278.793 C 325.236 272.210,324.713 273.111,329.393 264.200 C 332.537 258.212,337.340 245.835,339.016 239.400 C 343.013 224.048,344.400 213.925,344.401 200.086 C 344.401 190.445,343.159 177.664,341.593 171.200 C 341.407 170.430,340.961 168.540,340.602 167.000 C 339.388 161.781,336.223 151.260,335.188 149.000 C 334.987 148.560,334.455 147.243,334.006 146.073 C 332.547 142.270,327.660 132.146,325.667 128.800 C 325.209 128.030,324.540 126.823,324.180 126.118 C 323.820 125.414,323.273 124.626,322.963 124.369 C 322.653 124.112,322.400 123.743,322.400 123.548 C 322.400 122.790,316.797 114.994,311.269 108.057 C 294.930 87.559,266.948 68.923,241.800 61.793 C 240.480 61.419,238.590 60.878,237.600 60.591 C 236.610 60.305,234.450 59.774,232.800 59.413 C 231.150 59.051,229.080 58.586,228.200 58.379 C 217.310 55.814,197.649 54.919,185.000 56.412 M156.033 118.800 C 158.256 120.120,160.151 121.200,160.245 121.200 C 160.339 121.200,161.087 121.623,161.908 122.141 C 162.729 122.659,165.110 124.070,167.200 125.276 C 174.307 129.380,181.796 133.725,183.000 134.443 C 183.660 134.836,184.980 135.567,185.933 136.066 C 188.528 137.426,188.435 136.656,188.683 158.925 L 188.911 179.400 184.556 181.864 C 182.160 183.219,176.780 186.255,172.600 188.610 C 168.420 190.964,163.952 193.501,162.671 194.246 C 161.391 194.991,160.262 195.600,160.163 195.600 C 160.065 195.600,159.313 196.022,158.492 196.537 C 157.671 197.052,155.936 198.064,154.635 198.785 L 152.271 200.096 151.035 199.362 C 147.458 197.237,129.887 187.147,125.000 184.412 C 121.751 182.594,116.581 179.460,115.965 178.935 C 115.408 178.460,115.298 175.908,115.065 157.923 L 114.800 137.452 115.670 136.526 C 116.148 136.017,116.685 135.600,116.863 135.600 C 117.040 135.600,118.362 134.880,119.800 134.000 C 121.238 133.120,122.498 132.400,122.601 132.400 C 122.704 132.400,123.646 131.889,124.694 131.264 C 126.793 130.013,135.737 124.955,139.200 123.060 C 140.410 122.398,143.470 120.645,146.000 119.165 C 151.633 115.868,151.126 115.887,156.033 118.800 M239.000 120.044 C 242.080 121.825,245.230 123.636,246.000 124.068 C 246.770 124.499,247.940 125.172,248.600 125.563 C 251.632 127.358,260.198 132.308,264.000 134.462 C 270.869 138.354,270.180 137.103,270.324 145.927 L 270.447 153.500 268.329 155.450 C 258.066 164.898,249.752 173.378,242.477 181.818 C 236.973 188.204,230.367 196.409,230.067 197.234 C 229.839 197.860,228.848 197.640,227.200 196.600 C 226.329 196.050,225.519 195.600,225.400 195.600 C 225.281 195.600,224.513 195.177,223.692 194.661 C 221.993 193.592,213.434 188.622,207.200 185.085 C 199.016 180.442,197.609 179.564,197.238 178.871 C 197.015 178.455,196.890 169.817,196.931 157.654 L 197.000 137.140 199.000 135.993 C 200.100 135.363,201.450 134.597,202.000 134.291 C 202.550 133.986,204.620 132.829,206.600 131.720 C 208.580 130.611,211.100 129.206,212.200 128.598 C 213.300 127.990,214.380 127.361,214.600 127.200 C 214.820 127.039,215.900 126.410,217.000 125.802 C 222.541 122.738,226.115 120.714,229.200 118.891 C 233.456 116.376,232.456 116.259,239.000 120.044 M311.830 140.500 C 309.343 159.075,309.114 161.289,309.125 166.600 C 309.138 172.532,310.568 181.840,311.642 182.980 C 311.839 183.189,312.000 183.610,312.000 183.915 C 312.000 184.221,312.540 185.637,313.200 187.063 C 314.781 190.480,314.770 190.524,312.100 191.326 C 290.161 197.916,243.946 238.405,219.011 272.883 C 216.732 276.034,217.300 276.188,211.882 270.957 C 207.304 266.537,198.942 259.256,193.600 255.037 C 191.730 253.561,189.929 252.138,189.599 251.876 C 187.132 249.923,185.354 248.618,182.400 246.593 C 176.935 242.847,172.269 239.763,170.989 239.051 C 170.335 238.688,169.530 238.217,169.200 238.006 C 166.209 236.095,162.315 233.987,157.512 231.680 C 152.089 229.075,150.671 228.456,146.700 226.959 C 142.640 225.429,142.574 225.517,150.915 221.436 C 154.922 219.476,165.040 214.462,173.400 210.294 C 188.414 202.810,190.800 201.727,190.800 202.399 C 190.800 202.588,191.033 202.981,191.317 203.271 C 191.601 203.562,193.258 206.140,194.999 209.000 C 196.740 211.860,198.263 214.290,198.382 214.400 C 198.502 214.510,198.870 215.062,199.200 215.626 C 199.530 216.191,201.690 219.658,204.000 223.331 C 206.310 227.004,209.238 231.669,210.506 233.696 C 214.170 239.554,213.970 239.542,216.800 234.094 C 217.570 232.612,218.425 231.162,218.700 230.871 C 218.975 230.581,219.200 230.179,219.200 229.979 C 219.200 229.654,220.214 227.945,222.986 223.600 C 223.477 222.830,224.566 221.120,225.405 219.800 C 232.415 208.780,244.302 192.706,250.259 186.190 C 250.667 185.744,252.614 183.584,254.586 181.390 C 261.316 173.901,268.375 167.168,278.400 158.676 C 285.909 152.314,303.732 141.228,310.200 138.896 C 312.079 138.218,312.129 138.268,311.830 140.500 M116.933 187.463 C 119.830 189.147,123.010 190.978,124.000 191.530 C 124.990 192.082,126.928 193.224,128.307 194.067 C 129.686 194.910,130.904 195.600,131.015 195.600 C 131.125 195.600,131.887 196.023,132.708 196.539 C 134.068 197.396,143.899 203.119,145.800 204.161 C 148.255 205.508,148.800 206.425,148.800 209.213 C 148.800 212.464,148.848 212.415,142.877 215.350 C 139.499 217.011,137.908 218.058,136.593 219.487 L 134.832 221.400 134.816 225.530 L 134.800 229.659 136.700 231.636 C 138.467 233.474,140.034 234.320,144.000 235.577 C 144.550 235.751,145.855 236.298,146.900 236.791 L 148.800 237.688 148.800 242.582 C 148.800 247.905,148.823 247.846,146.200 249.252 C 142.805 251.072,140.046 252.623,138.708 253.463 C 137.887 253.978,137.125 254.400,137.015 254.400 C 136.904 254.400,135.638 255.120,134.200 256.000 C 132.762 256.880,131.497 257.600,131.388 257.600 C 131.280 257.600,128.628 259.063,125.496 260.851 C 116.185 266.165,115.466 266.571,113.899 267.394 L 112.397 268.183 109.899 266.818 C 108.524 266.067,106.320 264.795,105.000 263.993 C 103.680 263.191,101.790 262.083,100.800 261.531 C 99.810 260.979,96.570 259.120,93.600 257.400 C 90.630 255.680,87.390 253.827,86.400 253.283 C 85.410 252.739,83.610 251.699,82.400 250.972 C 81.190 250.245,79.210 249.112,78.000 248.455 L 75.800 247.260 75.552 240.330 C 75.138 228.760,75.067 205.170,75.446 204.839 C 75.913 204.430,93.540 194.400,93.792 194.400 C 93.898 194.400,95.162 193.680,96.600 192.800 C 98.038 191.920,99.298 191.200,99.400 191.200 C 99.502 191.200,100.762 190.480,102.200 189.600 C 103.638 188.720,104.908 188.000,105.024 188.000 C 105.139 188.000,106.617 187.190,108.308 186.200 C 112.013 184.032,110.701 183.839,116.933 187.463 M197.966 187.858 C 200.515 189.320,203.410 190.969,204.400 191.522 C 205.390 192.075,206.830 192.920,207.600 193.400 C 208.370 193.880,209.810 194.723,210.800 195.274 C 221.702 201.335,224.946 203.443,224.631 204.262 C 224.452 204.731,216.926 216.343,215.155 218.884 C 214.740 219.480,214.400 220.155,214.400 220.384 C 214.400 222.481,212.986 220.645,206.091 209.600 C 204.237 206.630,201.883 202.866,200.860 201.236 C 196.777 194.731,194.827 193.432,189.486 193.659 L 186.156 193.800 171.832 200.925 C 163.953 204.844,157.258 207.954,156.954 207.838 C 155.562 207.304,156.462 205.344,158.659 204.122 C 159.131 203.860,161.111 202.758,163.059 201.674 C 165.006 200.591,167.500 199.206,168.600 198.598 C 169.700 197.990,170.780 197.361,171.000 197.200 C 171.220 197.039,172.210 196.461,173.200 195.917 C 176.378 194.168,185.700 188.931,189.000 187.040 C 192.997 184.749,192.461 184.700,197.966 187.858 M158.800 242.530 C 167.778 247.247,179.007 254.863,191.285 264.563 C 195.782 268.115,195.605 269.862,191.021 267.183 C 189.531 266.313,188.244 265.600,188.163 265.600 C 188.081 265.600,186.886 264.913,185.507 264.074 C 184.128 263.235,182.730 262.423,182.400 262.271 C 182.070 262.118,181.260 261.661,180.600 261.255 C 179.585 260.631,161.815 250.381,159.400 249.026 C 156.805 247.571,156.800 247.562,156.800 244.704 C 156.800 241.798,156.997 241.583,158.800 242.530 " stroke="#000000" fill="none" stroke-width="3" class="BWaFzjHU_1"></path><path id="path2" d="M180.800 33.400 C 180.800 33.893,180.094 34.000,176.849 34.000 C 173.825 34.000,172.781 34.141,172.400 34.600 C 172.046 35.027,171.108 35.200,169.151 35.200 C 167.584 35.200,166.400 35.372,166.400 35.600 C 166.400 35.820,165.444 36.000,164.276 36.000 C 163.029 36.000,161.833 36.242,161.376 36.587 C 160.949 36.910,159.848 37.180,158.929 37.187 C 157.992 37.194,156.993 37.464,156.657 37.800 C 156.320 38.137,155.343 38.400,154.429 38.400 C 153.248 38.400,152.800 38.565,152.800 39.000 C 152.800 39.452,152.316 39.600,150.843 39.600 C 149.472 39.600,148.817 39.780,148.655 40.200 C 148.503 40.596,147.877 40.800,146.813 40.800 C 145.926 40.800,145.200 40.980,145.200 41.200 C 145.200 41.420,144.784 41.600,144.276 41.600 C 143.769 41.600,143.004 41.864,142.576 42.187 C 142.149 42.510,141.305 42.780,140.700 42.787 C 139.995 42.795,139.600 43.015,139.600 43.400 C 139.600 43.820,139.176 44.000,138.187 44.000 C 137.301 44.000,136.689 44.223,136.545 44.600 C 136.413 44.942,135.817 45.200,135.157 45.200 C 134.521 45.200,134.000 45.380,134.000 45.600 C 134.000 45.820,133.544 46.000,132.987 46.000 C 132.431 46.000,131.871 46.270,131.745 46.600 C 131.618 46.930,131.097 47.200,130.586 47.200 C 130.075 47.200,129.387 47.470,129.057 47.800 C 128.727 48.130,128.079 48.400,127.616 48.400 C 127.153 48.400,126.671 48.670,126.545 49.000 C 126.418 49.330,125.878 49.600,125.345 49.600 C 124.811 49.600,124.271 49.870,124.145 50.200 C 124.018 50.530,123.484 50.800,122.957 50.800 C 122.431 50.800,121.998 50.935,121.996 51.100 C 121.994 51.265,121.184 51.755,120.196 52.190 C 119.208 52.624,118.400 53.209,118.400 53.490 C 118.400 53.770,117.944 54.000,117.387 54.000 C 116.831 54.000,116.271 54.270,116.145 54.600 C 116.018 54.930,115.484 55.200,114.957 55.200 C 114.431 55.200,114.000 55.337,114.000 55.505 C 114.000 55.811,112.815 56.533,111.500 57.029 C 111.115 57.174,110.800 57.542,110.800 57.847 C 110.800 58.151,110.462 58.400,110.049 58.400 C 109.636 58.400,109.074 58.670,108.800 59.000 C 108.526 59.330,108.054 59.600,107.751 59.600 C 107.448 59.600,107.200 59.870,107.200 60.200 C 107.200 60.573,106.822 60.800,106.200 60.800 C 105.650 60.800,105.200 60.980,105.200 61.200 C 105.200 61.420,104.930 61.600,104.600 61.600 C 104.270 61.600,104.000 61.870,104.000 62.200 C 104.000 62.536,103.643 62.800,103.187 62.800 C 102.741 62.800,102.271 63.070,102.145 63.400 C 102.018 63.730,101.664 64.000,101.357 64.000 C 101.051 64.000,100.800 64.270,100.800 64.600 C 100.800 64.930,100.530 65.200,100.200 65.200 C 99.870 65.200,99.600 65.360,99.600 65.557 C 99.600 65.753,99.150 66.026,98.600 66.164 C 98.050 66.302,97.600 66.592,97.600 66.808 C 97.600 67.023,97.370 67.200,97.089 67.200 C 96.515 67.200,95.200 68.596,95.200 69.205 C 95.200 69.422,94.930 69.600,94.600 69.600 C 94.270 69.600,94.000 69.870,94.000 70.200 C 94.000 70.538,93.642 70.800,93.181 70.800 C 92.730 70.800,91.945 71.250,91.435 71.800 C 90.925 72.350,90.304 72.800,90.054 72.800 C 89.804 72.800,89.600 73.070,89.600 73.400 C 89.600 73.730,89.330 74.000,89.000 74.000 C 88.670 74.000,88.400 74.270,88.400 74.600 C 88.400 74.930,88.206 75.200,87.969 75.200 C 87.409 75.200,85.200 77.409,85.200 77.969 C 85.200 78.206,84.930 78.400,84.600 78.400 C 84.270 78.400,84.000 78.670,84.000 79.000 C 84.000 79.330,83.730 79.600,83.400 79.600 C 83.070 79.600,82.800 79.849,82.800 80.153 C 82.800 80.458,82.427 80.804,81.970 80.924 C 81.514 81.043,81.043 81.514,80.924 81.970 C 80.804 82.427,80.458 82.800,80.153 82.800 C 79.849 82.800,79.600 83.070,79.600 83.400 C 79.600 83.730,79.330 84.000,79.000 84.000 C 78.670 84.000,78.400 84.270,78.400 84.600 C 78.400 84.930,78.206 85.200,77.969 85.200 C 77.409 85.200,75.200 87.409,75.200 87.969 C 75.200 88.206,74.930 88.400,74.600 88.400 C 74.270 88.400,74.000 88.670,74.000 89.000 C 74.000 89.330,73.730 89.600,73.400 89.600 C 73.070 89.600,72.800 89.804,72.800 90.054 C 72.800 90.304,72.350 90.925,71.800 91.435 C 71.250 91.945,70.800 92.730,70.800 93.181 C 70.800 93.642,70.538 94.000,70.200 94.000 C 69.870 94.000,69.600 94.270,69.600 94.600 C 69.600 94.930,69.420 95.200,69.200 95.200 C 68.681 95.200,67.200 96.681,67.200 97.200 C 67.200 97.420,67.023 97.600,66.808 97.600 C 66.592 97.600,66.302 98.050,66.164 98.600 C 66.026 99.150,65.753 99.600,65.557 99.600 C 65.360 99.600,65.200 99.870,65.200 100.200 C 65.200 100.530,64.951 100.800,64.647 100.800 C 64.342 100.800,63.988 101.115,63.858 101.500 C 63.530 102.479,62.755 103.598,61.700 104.620 C 61.205 105.099,60.800 105.876,60.800 106.346 C 60.800 106.838,60.546 107.200,60.200 107.200 C 59.870 107.200,59.600 107.451,59.600 107.757 C 59.600 108.064,59.330 108.418,59.000 108.545 C 58.670 108.671,58.400 109.231,58.400 109.787 C 58.400 110.344,58.173 110.800,57.895 110.800 C 57.415 110.800,56.750 111.764,56.171 113.300 C 56.026 113.685,55.748 114.000,55.553 114.000 C 55.359 114.000,55.200 114.431,55.200 114.957 C 55.200 115.484,54.930 116.018,54.600 116.145 C 54.270 116.271,54.000 116.831,54.000 117.387 C 54.000 117.944,53.770 118.400,53.490 118.400 C 53.209 118.400,52.624 119.208,52.190 120.196 C 51.755 121.184,51.265 121.994,51.100 121.996 C 50.935 121.998,50.800 122.431,50.800 122.957 C 50.800 123.484,50.530 124.018,50.200 124.145 C 49.870 124.271,49.600 124.831,49.600 125.387 C 49.600 126.021,49.375 126.400,49.000 126.400 C 48.622 126.400,48.400 126.781,48.400 127.429 C 48.400 127.994,48.130 128.727,47.800 129.057 C 47.470 129.387,47.200 130.075,47.200 130.586 C 47.200 131.097,46.930 131.618,46.600 131.745 C 46.270 131.871,46.000 132.431,46.000 132.987 C 46.000 133.544,45.820 134.000,45.600 134.000 C 45.380 134.000,45.200 134.521,45.200 135.157 C 45.200 135.817,44.942 136.413,44.600 136.545 C 44.223 136.689,44.000 137.301,44.000 138.187 C 44.000 139.176,43.820 139.600,43.400 139.600 C 43.015 139.600,42.795 139.995,42.787 140.700 C 42.780 141.305,42.510 142.149,42.187 142.576 C 41.864 143.004,41.600 143.859,41.600 144.476 C 41.600 145.094,41.420 145.600,41.200 145.600 C 40.980 145.600,40.800 146.236,40.800 147.013 C 40.800 147.899,40.577 148.511,40.200 148.655 C 39.780 148.817,39.600 149.472,39.600 150.843 C 39.600 152.316,39.452 152.800,39.000 152.800 C 38.565 152.800,38.400 153.248,38.400 154.429 C 38.400 155.343,38.137 156.320,37.800 156.657 C 37.451 157.006,37.200 157.984,37.200 158.995 C 37.200 159.984,36.995 160.802,36.724 160.892 C 36.443 160.986,36.177 162.150,36.077 163.725 C 35.983 165.196,35.748 166.400,35.553 166.400 C 35.359 166.400,35.200 167.641,35.200 169.157 C 35.200 171.239,35.053 171.971,34.600 172.145 C 34.119 172.329,34.000 173.212,34.000 176.587 C 34.000 180.065,33.895 180.800,33.400 180.800 C 32.491 180.800,32.491 219.107,33.400 219.455 C 33.878 219.639,34.000 220.496,34.000 223.655 C 34.000 226.815,34.122 227.672,34.600 227.855 C 35.052 228.029,35.200 228.758,35.200 230.819 C 35.200 232.323,35.358 233.651,35.551 233.770 C 35.745 233.889,35.984 235.105,36.083 236.471 C 36.183 237.866,36.468 239.023,36.731 239.110 C 36.994 239.198,37.200 240.031,37.200 241.005 C 37.200 242.016,37.451 242.994,37.800 243.343 C 38.137 243.680,38.400 244.657,38.400 245.571 C 38.400 246.752,38.565 247.200,39.000 247.200 C 39.452 247.200,39.600 247.684,39.600 249.157 C 39.600 250.528,39.780 251.183,40.200 251.345 C 40.574 251.488,40.800 252.098,40.800 252.964 C 40.800 253.728,40.980 254.464,41.200 254.600 C 41.420 254.736,41.600 255.355,41.600 255.975 C 41.600 256.595,41.870 257.326,42.200 257.600 C 42.530 257.874,42.800 258.616,42.800 259.249 C 42.800 260.005,43.006 260.400,43.400 260.400 C 43.820 260.400,44.000 260.824,44.000 261.813 C 44.000 262.699,44.223 263.311,44.600 263.455 C 44.942 263.587,45.200 264.183,45.200 264.843 C 45.200 265.479,45.380 266.000,45.600 266.000 C 45.820 266.000,46.000 266.456,46.000 267.013 C 46.000 267.569,46.270 268.129,46.600 268.255 C 46.930 268.382,47.200 268.882,47.200 269.366 C 47.200 269.851,47.464 270.596,47.787 271.024 C 48.110 271.451,48.380 272.186,48.387 272.657 C 48.394 273.129,48.670 273.618,49.000 273.745 C 49.330 273.871,49.600 274.346,49.600 274.800 C 49.600 275.254,49.870 275.729,50.200 275.855 C 50.530 275.982,50.800 276.516,50.800 277.043 C 50.800 277.569,50.935 278.002,51.100 278.004 C 51.265 278.006,51.755 278.816,52.190 279.804 C 52.624 280.792,53.209 281.600,53.490 281.600 C 53.790 281.600,54.000 282.094,54.000 282.800 C 54.000 283.600,54.200 284.000,54.600 284.000 C 54.973 284.000,55.200 284.378,55.200 285.000 C 55.200 285.550,55.359 286.000,55.553 286.000 C 55.748 286.000,56.022 286.315,56.163 286.700 C 56.662 288.061,57.649 289.600,58.022 289.600 C 58.230 289.600,58.400 289.966,58.400 290.413 C 58.400 290.859,58.670 291.329,59.000 291.455 C 59.330 291.582,59.600 291.936,59.600 292.243 C 59.600 292.549,59.870 292.800,60.200 292.800 C 60.573 292.800,60.800 293.178,60.800 293.800 C 60.800 294.350,60.980 294.800,61.200 294.800 C 61.420 294.800,61.600 295.070,61.600 295.400 C 61.600 295.730,61.850 296.000,62.157 296.000 C 62.463 296.000,62.826 296.450,62.964 297.000 C 63.102 297.550,63.392 298.000,63.608 298.000 C 63.823 298.000,64.000 298.245,64.000 298.544 C 64.000 298.843,64.439 299.418,64.976 299.821 C 65.513 300.224,66.056 300.969,66.184 301.477 C 66.311 301.985,66.592 302.400,66.808 302.400 C 67.023 302.400,67.200 302.630,67.200 302.911 C 67.200 303.485,68.596 304.800,69.205 304.800 C 69.422 304.800,69.600 305.070,69.600 305.400 C 69.600 305.730,69.870 306.000,70.200 306.000 C 70.573 306.000,70.800 306.378,70.800 307.000 C 70.800 307.550,70.935 308.001,71.100 308.001 C 71.265 308.002,71.760 308.541,72.200 309.200 C 72.640 309.859,73.225 310.398,73.500 310.399 C 73.775 310.399,74.000 310.670,74.000 311.000 C 74.000 311.330,74.270 311.600,74.600 311.600 C 74.930 311.600,75.200 311.794,75.200 312.031 C 75.200 312.591,77.409 314.800,77.969 314.800 C 78.206 314.800,78.400 315.070,78.400 315.400 C 78.400 315.730,78.670 316.000,79.000 316.000 C 79.330 316.000,79.600 316.270,79.600 316.600 C 79.600 316.930,79.870 317.200,80.200 317.200 C 80.530 317.200,80.800 317.440,80.800 317.734 C 80.800 318.331,82.970 320.400,83.597 320.400 C 83.818 320.400,84.000 320.670,84.000 321.000 C 84.000 321.330,84.270 321.600,84.600 321.600 C 84.930 321.600,85.200 321.794,85.200 322.031 C 85.200 322.591,87.409 324.800,87.969 324.800 C 88.206 324.800,88.400 325.070,88.400 325.400 C 88.400 325.730,88.670 326.000,89.000 326.000 C 89.330 326.000,89.600 326.270,89.600 326.600 C 89.600 326.930,89.774 327.200,89.986 327.200 C 90.199 327.200,90.925 327.740,91.600 328.400 C 92.275 329.060,93.091 329.600,93.414 329.600 C 93.736 329.600,94.000 329.780,94.000 330.000 C 94.000 330.220,94.270 330.400,94.600 330.400 C 94.930 330.400,95.200 330.578,95.200 330.795 C 95.200 331.404,96.515 332.800,97.089 332.800 C 97.370 332.800,97.600 332.977,97.600 333.192 C 97.600 333.408,98.050 333.698,98.600 333.836 C 99.150 333.974,99.600 334.247,99.600 334.443 C 99.600 334.640,99.870 334.800,100.200 334.800 C 100.530 334.800,100.800 335.027,100.800 335.305 C 100.800 335.785,101.764 336.450,103.300 337.029 C 103.685 337.174,104.000 337.542,104.000 337.847 C 104.000 338.151,104.270 338.400,104.600 338.400 C 104.930 338.400,105.200 338.577,105.200 338.792 C 105.200 339.008,105.650 339.298,106.200 339.436 C 106.750 339.574,107.200 339.847,107.200 340.043 C 107.200 340.240,107.451 340.400,107.757 340.400 C 108.064 340.400,108.418 340.670,108.545 341.000 C 108.671 341.330,109.231 341.600,109.787 341.600 C 110.344 341.600,110.800 341.827,110.800 342.105 C 110.800 342.585,111.764 343.250,113.300 343.829 C 113.685 343.974,114.000 344.252,114.000 344.447 C 114.000 344.641,114.450 344.800,115.000 344.800 C 115.622 344.800,116.000 345.027,116.000 345.400 C 116.000 345.800,116.400 346.000,117.200 346.000 C 117.891 346.000,118.402 346.212,118.405 346.500 C 118.407 346.775,119.172 347.357,120.105 347.794 C 121.037 348.231,121.890 348.695,122.000 348.825 C 122.406 349.307,124.946 350.400,125.661 350.400 C 126.068 350.400,126.400 350.670,126.400 351.000 C 126.400 351.378,126.781 351.600,127.429 351.600 C 127.994 351.600,128.727 351.870,129.057 352.200 C 129.387 352.530,130.075 352.800,130.586 352.800 C 131.097 352.800,131.618 353.070,131.745 353.400 C 131.871 353.730,132.431 354.000,132.987 354.000 C 133.544 354.000,134.000 354.180,134.000 354.400 C 134.000 354.620,134.521 354.800,135.157 354.800 C 135.817 354.800,136.413 355.058,136.545 355.400 C 136.689 355.777,137.301 356.000,138.187 356.000 C 139.176 356.000,139.600 356.180,139.600 356.600 C 139.600 356.994,139.995 357.200,140.751 357.200 C 141.384 357.200,142.126 357.470,142.400 357.800 C 142.674 358.130,143.401 358.400,144.016 358.400 C 144.630 358.400,145.197 358.592,145.275 358.826 C 145.353 359.060,146.178 359.354,147.109 359.478 C 148.039 359.603,148.800 359.862,148.800 360.053 C 148.800 360.244,149.700 360.400,150.800 360.400 C 152.311 360.400,152.800 360.547,152.800 361.000 C 152.800 361.442,153.262 361.600,154.557 361.600 C 155.750 361.600,156.388 361.793,156.545 362.200 C 156.704 362.615,157.365 362.804,158.687 362.813 C 159.739 362.820,160.949 363.090,161.376 363.413 C 161.833 363.758,163.029 364.000,164.276 364.000 C 165.444 364.000,166.400 364.180,166.400 364.400 C 166.400 364.628,167.584 364.800,169.151 364.800 C 171.108 364.800,172.046 364.973,172.400 365.400 C 172.781 365.859,173.825 366.000,176.849 366.000 C 180.094 366.000,180.800 366.107,180.800 366.600 C 180.800 367.125,183.195 367.200,199.957 367.200 C 216.617 367.200,219.144 367.122,219.345 366.600 C 219.527 366.125,220.364 366.000,223.359 366.000 C 226.189 366.000,227.294 365.849,227.743 365.400 C 228.153 364.990,229.166 364.800,230.948 364.800 C 232.381 364.800,233.664 364.620,233.800 364.400 C 233.936 364.180,235.005 364.000,236.175 364.000 C 237.578 364.000,238.472 363.796,238.800 363.400 C 239.119 363.016,240.004 362.800,241.262 362.800 C 242.638 362.800,243.294 362.621,243.455 362.200 C 243.612 361.793,244.250 361.600,245.443 361.600 C 246.738 361.600,247.200 361.442,247.200 361.000 C 247.200 360.548,247.686 360.400,249.176 360.400 C 250.263 360.400,251.264 360.220,251.400 360.000 C 251.536 359.780,252.164 359.600,252.795 359.600 C 253.426 359.600,254.213 359.330,254.543 359.000 C 254.873 358.670,255.584 358.400,256.122 358.400 C 256.661 358.400,257.326 358.130,257.600 357.800 C 257.874 357.470,258.616 357.200,259.249 357.200 C 260.005 357.200,260.400 356.994,260.400 356.600 C 260.400 356.167,260.844 356.000,262.000 356.000 C 263.156 356.000,263.600 355.833,263.600 355.400 C 263.600 355.000,264.000 354.800,264.800 354.800 C 265.460 354.800,266.000 354.620,266.000 354.400 C 266.000 354.180,266.540 354.000,267.200 354.000 C 268.000 354.000,268.400 353.800,268.400 353.400 C 268.400 353.040,268.769 352.800,269.324 352.800 C 269.831 352.800,270.596 352.536,271.024 352.213 C 271.451 351.890,272.186 351.620,272.657 351.613 C 273.129 351.606,273.618 351.330,273.745 351.000 C 273.871 350.670,274.431 350.400,274.987 350.400 C 275.544 350.400,276.000 350.240,276.000 350.043 C 276.000 349.847,276.450 349.574,277.000 349.436 C 277.550 349.298,278.000 349.008,278.000 348.792 C 278.000 348.577,278.347 348.400,278.771 348.400 C 279.196 348.400,279.813 348.130,280.143 347.800 C 280.473 347.470,280.936 347.200,281.171 347.200 C 281.407 347.200,281.600 346.930,281.600 346.600 C 281.600 346.200,282.000 346.000,282.800 346.000 C 283.600 346.000,284.000 345.800,284.000 345.400 C 284.000 345.027,284.378 344.800,285.000 344.800 C 285.550 344.800,286.000 344.640,286.000 344.443 C 286.000 344.247,286.450 343.974,287.000 343.836 C 287.550 343.698,288.000 343.408,288.000 343.192 C 288.000 342.977,288.276 342.800,288.613 342.800 C 288.949 342.800,289.329 342.530,289.455 342.200 C 289.582 341.870,290.032 341.600,290.455 341.600 C 290.879 341.600,291.329 341.330,291.455 341.000 C 291.582 340.670,291.936 340.400,292.243 340.400 C 292.549 340.400,292.800 340.240,292.800 340.043 C 292.800 339.847,293.250 339.574,293.800 339.436 C 294.350 339.298,294.800 339.008,294.800 338.792 C 294.800 338.577,295.070 338.400,295.400 338.400 C 295.730 338.400,296.000 338.150,296.000 337.843 C 296.000 337.537,296.450 337.174,297.000 337.036 C 297.550 336.898,298.000 336.608,298.000 336.392 C 298.000 336.177,298.245 336.000,298.544 336.000 C 298.843 336.000,299.418 335.561,299.821 335.024 C 300.224 334.487,300.929 333.954,301.389 333.839 C 302.414 333.581,304.800 331.501,304.800 330.864 C 304.800 330.609,305.070 330.400,305.400 330.400 C 305.730 330.400,306.000 330.240,306.000 330.043 C 306.000 329.847,306.450 329.574,307.000 329.436 C 307.550 329.298,308.000 329.008,308.000 328.792 C 308.000 328.577,308.180 328.400,308.400 328.400 C 308.919 328.400,310.400 326.919,310.400 326.400 C 310.400 326.180,310.670 326.000,311.000 326.000 C 311.330 326.000,311.600 325.730,311.600 325.400 C 311.600 325.070,311.870 324.800,312.200 324.800 C 312.530 324.800,312.800 324.620,312.800 324.400 C 312.800 324.180,313.070 324.000,313.400 324.000 C 313.730 324.000,314.000 323.730,314.000 323.400 C 314.000 323.070,314.270 322.800,314.600 322.800 C 314.930 322.800,315.200 322.530,315.200 322.200 C 315.200 321.870,315.380 321.600,315.600 321.600 C 315.820 321.600,316.000 321.330,316.000 321.000 C 316.000 320.670,316.270 320.400,316.600 320.400 C 316.930 320.400,317.200 320.263,317.200 320.095 C 317.200 319.927,317.605 319.612,318.100 319.395 C 318.595 319.178,319.178 318.595,319.395 318.100 C 319.612 317.605,319.927 317.200,320.095 317.200 C 320.263 317.200,320.400 316.930,320.400 316.600 C 320.400 316.270,320.670 316.000,321.000 316.000 C 321.330 316.000,321.600 315.730,321.600 315.400 C 321.600 315.070,321.870 314.800,322.200 314.800 C 322.530 314.800,322.800 314.620,322.800 314.400 C 322.800 314.180,323.070 314.000,323.400 314.000 C 323.730 314.000,324.000 313.730,324.000 313.400 C 324.000 313.070,324.270 312.800,324.600 312.800 C 324.930 312.800,325.200 312.530,325.200 312.200 C 325.200 311.870,325.380 311.600,325.600 311.600 C 325.820 311.600,326.000 311.330,326.000 311.000 C 326.000 310.670,326.190 310.400,326.423 310.400 C 327.055 310.400,329.196 307.931,329.458 306.900 C 329.584 306.405,329.847 306.000,330.043 306.000 C 330.240 306.000,330.400 305.730,330.400 305.400 C 330.400 305.070,330.609 304.800,330.864 304.800 C 331.524 304.800,333.585 302.397,333.858 301.312 C 333.984 300.810,334.307 300.400,334.576 300.400 C 334.845 300.400,335.320 299.905,335.632 299.300 C 335.945 298.695,336.425 297.962,336.700 297.671 C 336.975 297.381,337.200 296.886,337.200 296.571 C 337.200 296.257,337.470 296.000,337.800 296.000 C 338.130 296.000,338.400 295.730,338.400 295.400 C 338.400 295.070,338.577 294.800,338.792 294.800 C 339.008 294.800,339.298 294.350,339.436 293.800 C 339.574 293.250,339.847 292.800,340.043 292.800 C 340.240 292.800,340.400 292.549,340.400 292.243 C 340.400 291.936,340.670 291.582,341.000 291.455 C 341.330 291.329,341.600 290.879,341.600 290.455 C 341.600 290.032,341.870 289.582,342.200 289.455 C 342.530 289.329,342.800 288.949,342.800 288.613 C 342.800 288.276,342.977 288.000,343.192 288.000 C 343.408 288.000,343.694 287.563,343.828 287.029 C 343.963 286.495,344.326 285.961,344.636 285.841 C 344.946 285.722,345.200 285.259,345.200 284.813 C 345.200 284.366,345.380 284.000,345.600 284.000 C 345.820 284.000,346.000 283.460,346.000 282.800 C 346.000 282.000,346.200 281.600,346.600 281.600 C 346.930 281.600,347.200 281.330,347.200 281.000 C 347.200 280.670,347.377 280.400,347.592 280.400 C 347.808 280.400,348.109 279.907,348.260 279.304 C 348.411 278.701,348.775 277.968,349.067 277.675 C 349.360 277.382,349.600 276.886,349.600 276.571 C 349.600 276.257,349.780 276.000,350.000 276.000 C 350.220 276.000,350.400 275.569,350.400 275.043 C 350.400 274.516,350.670 273.982,351.000 273.855 C 351.330 273.729,351.600 273.191,351.600 272.662 C 351.600 272.132,351.870 271.474,352.200 271.200 C 352.530 270.926,352.800 270.184,352.800 269.551 C 352.800 268.795,353.006 268.400,353.400 268.400 C 353.795 268.400,354.000 268.005,354.000 267.243 C 354.000 266.583,354.258 265.987,354.600 265.855 C 354.930 265.729,355.200 265.270,355.200 264.836 C 355.200 264.402,355.380 263.936,355.600 263.800 C 355.820 263.664,356.000 262.843,356.000 261.976 C 356.000 260.842,356.168 260.400,356.600 260.400 C 356.994 260.400,357.200 260.005,357.200 259.249 C 357.200 258.616,357.470 257.874,357.800 257.600 C 358.130 257.326,358.406 256.629,358.413 256.051 C 358.420 255.473,358.690 254.651,359.013 254.224 C 359.336 253.796,359.600 253.042,359.600 252.547 C 359.600 252.052,359.780 251.536,360.000 251.400 C 360.220 251.264,360.400 250.263,360.400 249.176 C 360.400 247.686,360.548 247.200,361.000 247.200 C 361.430 247.200,361.600 246.761,361.600 245.649 C 361.600 244.758,361.855 243.886,362.200 243.600 C 362.569 243.294,362.800 242.416,362.800 241.322 C 362.800 240.274,363.046 239.296,363.400 238.943 C 363.773 238.570,364.000 237.587,364.000 236.343 C 364.000 235.098,364.227 234.116,364.600 233.743 C 365.008 233.335,365.200 232.326,365.200 230.595 C 365.200 229.194,365.380 227.936,365.600 227.800 C 365.823 227.662,366.000 225.810,366.000 223.619 C 366.000 220.492,366.123 219.638,366.600 219.455 C 367.122 219.255,367.200 216.721,367.200 200.013 C 367.200 183.201,367.125 180.800,366.600 180.800 C 366.105 180.800,366.000 180.069,366.000 176.624 C 366.000 174.271,365.825 172.339,365.600 172.200 C 365.380 172.064,365.200 170.815,365.200 169.425 C 365.200 167.667,365.017 166.746,364.600 166.400 C 364.205 166.072,364.000 165.178,364.000 163.780 C 364.000 162.426,363.783 161.440,363.400 161.057 C 363.040 160.698,362.800 159.719,362.800 158.616 C 362.800 157.348,362.613 156.703,362.200 156.545 C 361.793 156.388,361.600 155.750,361.600 154.557 C 361.600 153.262,361.442 152.800,361.000 152.800 C 360.547 152.800,360.400 152.311,360.400 150.800 C 360.400 149.700,360.220 148.800,360.000 148.800 C 359.780 148.800,359.600 148.294,359.600 147.676 C 359.600 147.059,359.336 146.204,359.013 145.776 C 358.690 145.349,358.420 144.527,358.413 143.949 C 358.406 143.371,358.130 142.674,357.800 142.400 C 357.470 142.126,357.200 141.384,357.200 140.751 C 357.200 139.995,356.994 139.600,356.600 139.600 C 356.167 139.600,356.000 139.156,356.000 138.000 C 356.000 137.120,355.820 136.400,355.600 136.400 C 355.380 136.400,355.200 135.944,355.200 135.387 C 355.200 134.831,354.930 134.271,354.600 134.145 C 354.270 134.018,354.000 133.478,354.000 132.945 C 354.000 132.411,353.730 131.871,353.400 131.745 C 353.066 131.617,352.800 131.022,352.800 130.406 C 352.800 129.797,352.530 129.074,352.200 128.800 C 351.870 128.526,351.600 127.874,351.600 127.351 C 351.600 126.772,351.365 126.400,351.000 126.400 C 350.670 126.400,350.400 126.068,350.400 125.661 C 350.400 124.946,349.307 122.406,348.825 122.000 C 348.695 121.890,348.231 121.037,347.794 120.105 C 347.357 119.172,346.775 118.407,346.500 118.405 C 346.212 118.402,346.000 117.891,346.000 117.200 C 346.000 116.540,345.820 116.000,345.600 116.000 C 345.380 116.000,345.200 115.743,345.200 115.429 C 345.200 115.114,344.975 114.612,344.700 114.312 C 343.970 113.515,343.211 112.301,342.942 111.500 C 342.812 111.115,342.458 110.800,342.153 110.800 C 341.828 110.800,341.600 110.383,341.600 109.787 C 341.600 109.231,341.330 108.671,341.000 108.545 C 340.670 108.418,340.400 108.064,340.400 107.757 C 340.400 107.451,340.240 107.200,340.043 107.200 C 339.847 107.200,339.574 106.750,339.436 106.200 C 339.298 105.650,339.008 105.200,338.792 105.200 C 338.577 105.200,338.400 104.930,338.400 104.600 C 338.400 104.270,338.173 104.000,337.895 104.000 C 337.415 104.000,336.750 103.036,336.171 101.500 C 336.026 101.115,335.748 100.800,335.553 100.800 C 335.359 100.800,335.200 100.530,335.200 100.200 C 335.200 99.870,334.950 99.600,334.643 99.600 C 334.337 99.600,333.974 99.150,333.836 98.600 C 333.698 98.050,333.408 97.600,333.192 97.600 C 332.977 97.600,332.800 97.370,332.800 97.089 C 332.800 96.515,331.404 95.200,330.795 95.200 C 330.578 95.200,330.400 94.930,330.400 94.600 C 330.400 94.270,330.240 94.000,330.043 94.000 C 329.847 94.000,329.574 93.550,329.436 93.000 C 329.298 92.450,329.008 92.000,328.792 92.000 C 328.577 92.000,328.400 91.730,328.400 91.400 C 328.400 91.070,328.130 90.800,327.800 90.800 C 327.470 90.800,327.200 90.530,327.200 90.200 C 327.200 89.870,326.930 89.600,326.600 89.600 C 326.270 89.600,326.000 89.406,326.000 89.168 C 326.000 88.606,322.594 85.200,322.032 85.200 C 321.794 85.200,321.600 84.930,321.600 84.600 C 321.600 84.270,321.330 84.000,321.000 84.000 C 320.670 84.000,320.400 83.818,320.400 83.597 C 320.400 82.970,318.331 80.800,317.734 80.800 C 317.440 80.800,317.200 80.530,317.200 80.200 C 317.200 79.870,316.930 79.600,316.600 79.600 C 316.270 79.600,316.000 79.330,316.000 79.000 C 316.000 78.670,315.820 78.400,315.600 78.400 C 315.380 78.400,315.200 78.130,315.200 77.800 C 315.200 77.470,315.011 77.200,314.781 77.200 C 314.550 77.200,313.945 76.750,313.435 76.200 C 312.925 75.650,312.304 75.200,312.054 75.200 C 311.804 75.200,311.600 74.930,311.600 74.600 C 311.600 74.270,311.330 74.000,311.000 74.000 C 310.670 74.000,310.399 73.775,310.399 73.500 C 310.398 73.225,309.859 72.640,309.200 72.200 C 308.541 71.760,308.002 71.265,308.001 71.100 C 308.001 70.935,307.550 70.800,307.000 70.800 C 306.378 70.800,306.000 70.573,306.000 70.200 C 306.000 69.870,305.730 69.600,305.400 69.600 C 305.070 69.600,304.800 69.391,304.800 69.136 C 304.800 68.499,302.414 66.419,301.389 66.161 C 300.929 66.046,300.224 65.513,299.821 64.976 C 299.418 64.439,298.862 64.000,298.587 64.000 C 298.311 64.000,297.982 63.730,297.855 63.400 C 297.729 63.070,297.259 62.800,296.813 62.800 C 296.357 62.800,296.000 62.536,296.000 62.200 C 296.000 61.870,295.730 61.600,295.400 61.600 C 295.070 61.600,294.800 61.420,294.800 61.200 C 294.800 60.980,294.350 60.800,293.800 60.800 C 293.178 60.800,292.800 60.573,292.800 60.200 C 292.800 59.870,292.549 59.600,292.243 59.600 C 291.936 59.600,291.582 59.330,291.455 59.000 C 291.329 58.670,290.859 58.400,290.413 58.400 C 289.966 58.400,289.600 58.230,289.600 58.022 C 289.600 57.649,288.061 56.662,286.700 56.163 C 286.315 56.022,286.000 55.748,286.000 55.553 C 286.000 55.359,285.550 55.200,285.000 55.200 C 284.378 55.200,284.000 54.973,284.000 54.600 C 284.000 54.200,283.600 54.000,282.800 54.000 C 282.094 54.000,281.600 53.790,281.600 53.490 C 281.600 53.209,280.792 52.624,279.804 52.190 C 278.816 51.755,278.006 51.265,278.004 51.100 C 278.002 50.935,277.569 50.800,277.043 50.800 C 276.516 50.800,275.982 50.530,275.855 50.200 C 275.729 49.870,275.254 49.600,274.800 49.600 C 274.346 49.600,273.871 49.330,273.745 49.000 C 273.618 48.670,273.071 48.400,272.529 48.400 C 271.986 48.400,271.273 48.130,270.943 47.800 C 270.613 47.470,269.925 47.200,269.414 47.200 C 268.903 47.200,268.382 46.930,268.255 46.600 C 268.129 46.270,267.569 46.000,267.013 46.000 C 266.456 46.000,266.000 45.820,266.000 45.600 C 266.000 45.380,265.479 45.200,264.843 45.200 C 264.183 45.200,263.587 44.942,263.455 44.600 C 263.311 44.223,262.699 44.000,261.813 44.000 C 260.824 44.000,260.400 43.820,260.400 43.400 C 260.400 43.006,260.005 42.800,259.249 42.800 C 258.616 42.800,257.874 42.530,257.600 42.200 C 257.326 41.870,256.584 41.600,255.951 41.600 C 255.318 41.600,254.800 41.420,254.800 41.200 C 254.800 40.980,254.074 40.800,253.187 40.800 C 252.123 40.800,251.497 40.596,251.345 40.200 C 251.183 39.780,250.528 39.600,249.157 39.600 C 247.684 39.600,247.200 39.452,247.200 39.000 C 247.200 38.565,246.752 38.400,245.571 38.400 C 244.657 38.400,243.680 38.137,243.343 37.800 C 243.007 37.464,242.008 37.194,241.071 37.187 C 240.152 37.180,239.051 36.910,238.624 36.587 C 238.194 36.262,236.998 36.000,235.947 36.000 C 234.902 36.000,233.936 35.820,233.800 35.600 C 233.664 35.380,232.325 35.200,230.825 35.200 C 228.889 35.200,227.954 35.026,227.600 34.600 C 227.222 34.144,226.196 34.000,223.338 34.000 C 220.362 34.000,219.527 33.875,219.345 33.400 C 219.144 32.878,216.617 32.800,199.957 32.800 C 183.195 32.800,180.800 32.875,180.800 33.400 M214.600 56.392 C 221.916 57.234,225.666 57.782,228.200 58.379 C 229.080 58.586,231.150 59.051,232.800 59.413 C 234.450 59.774,236.610 60.305,237.600 60.591 C 238.590 60.878,240.480 61.419,241.800 61.793 C 269.829 69.740,296.951 88.880,316.063 114.200 C 318.753 117.763,322.400 123.144,322.400 123.548 C 322.400 123.743,322.653 124.112,322.963 124.369 C 323.273 124.626,323.820 125.414,324.180 126.118 C 324.540 126.823,325.209 128.030,325.667 128.800 C 327.660 132.146,332.547 142.270,334.006 146.073 C 334.455 147.243,334.987 148.560,335.188 149.000 C 336.223 151.260,339.388 161.781,340.602 167.000 C 340.961 168.540,341.407 170.430,341.593 171.200 C 343.159 177.664,344.401 190.445,344.401 200.086 C 344.400 213.925,343.013 224.048,339.016 239.400 C 337.340 245.835,332.537 258.212,329.393 264.200 C 326.667 269.390,325.163 272.196,324.680 272.993 C 314.445 289.888,302.526 303.213,286.548 315.624 C 282.920 318.442,273.852 324.283,269.600 326.541 C 262.638 330.238,261.060 331.005,256.600 332.856 C 253.960 333.952,251.440 335.013,251.000 335.214 C 249.772 335.775,241.649 338.436,239.400 339.015 C 236.895 339.660,231.178 341.039,228.800 341.572 C 211.118 345.534,187.268 345.298,168.600 340.976 C 162.335 339.525,159.668 338.840,158.600 338.407 C 158.160 338.229,156.000 337.514,153.800 336.818 C 151.600 336.123,149.483 335.381,149.095 335.170 C 148.708 334.960,147.540 334.498,146.500 334.145 C 143.126 333.000,131.631 327.440,128.334 325.358 C 127.499 324.831,126.694 324.400,126.546 324.400 C 126.397 324.400,125.686 323.950,124.964 323.400 C 124.243 322.850,123.550 322.400,123.424 322.400 C 123.122 322.400,117.252 318.367,114.200 316.063 C 88.840 296.921,69.753 269.874,61.793 241.800 C 61.419 240.480,60.881 238.590,60.597 237.600 C 55.022 218.115,54.082 190.099,58.390 171.800 C 58.597 170.920,59.139 168.580,59.594 166.600 C 60.049 164.620,60.683 162.100,61.002 161.000 C 61.322 159.900,61.842 158.100,62.158 157.000 C 62.473 155.900,63.299 153.470,63.992 151.600 C 64.686 149.730,65.400 147.750,65.578 147.200 C 65.756 146.650,66.388 145.120,66.981 143.800 C 67.574 142.480,68.343 140.770,68.690 140.000 C 82.855 108.531,112.326 79.756,143.200 67.248 C 144.410 66.758,145.760 66.209,146.200 66.028 C 146.640 65.848,147.540 65.479,148.200 65.210 C 167.022 57.533,193.719 53.987,214.600 56.392 M146.000 119.165 C 143.470 120.645,140.410 122.398,139.200 123.060 C 135.737 124.955,126.793 130.013,124.694 131.264 C 123.646 131.889,122.704 132.400,122.601 132.400 C 122.498 132.400,121.238 133.120,119.800 134.000 C 118.362 134.880,117.040 135.600,116.863 135.600 C 116.685 135.600,116.148 136.017,115.670 136.526 L 114.800 137.452 115.065 157.923 C 115.298 175.908,115.408 178.460,115.965 178.935 C 116.581 179.460,121.751 182.594,125.000 184.412 C 129.887 187.147,147.458 197.237,151.035 199.362 L 152.271 200.096 154.635 198.785 C 155.936 198.064,157.671 197.052,158.492 196.537 C 159.313 196.022,160.065 195.600,160.163 195.600 C 160.262 195.600,161.391 194.991,162.671 194.246 C 163.952 193.501,168.420 190.964,172.600 188.610 C 176.780 186.255,182.160 183.219,184.556 181.864 L 188.911 179.400 188.683 158.925 C 188.435 136.656,188.528 137.426,185.933 136.066 C 184.980 135.567,183.660 134.836,183.000 134.443 C 181.796 133.725,174.307 129.380,167.200 125.276 C 165.110 124.070,162.729 122.659,161.908 122.141 C 161.087 121.623,160.339 121.200,160.245 121.200 C 160.151 121.200,158.256 120.120,156.033 118.800 C 151.126 115.887,151.633 115.868,146.000 119.165 M229.200 118.891 C 226.115 120.714,222.541 122.738,217.000 125.802 C 215.900 126.410,214.820 127.039,214.600 127.200 C 214.380 127.361,213.300 127.990,212.200 128.598 C 211.100 129.206,208.580 130.611,206.600 131.720 C 204.620 132.829,202.550 133.986,202.000 134.291 C 201.450 134.597,200.100 135.363,199.000 135.993 L 197.000 137.140 196.931 157.654 C 196.890 169.817,197.015 178.455,197.238 178.871 C 197.609 179.564,199.016 180.442,207.200 185.085 C 213.434 188.622,221.993 193.592,223.692 194.661 C 224.513 195.177,225.281 195.600,225.400 195.600 C 225.519 195.600,226.329 196.050,227.200 196.600 C 228.848 197.640,229.839 197.860,230.067 197.234 C 230.367 196.409,236.973 188.204,242.477 181.818 C 249.752 173.378,258.066 164.898,268.329 155.450 L 270.447 153.500 270.324 145.927 C 270.180 137.103,270.869 138.354,264.000 134.462 C 260.198 132.308,251.632 127.358,248.600 125.563 C 247.940 125.172,246.770 124.499,246.000 124.068 C 245.230 123.636,242.080 121.825,239.000 120.044 C 232.456 116.259,233.456 116.376,229.200 118.891 M310.200 138.896 C 303.732 141.228,285.909 152.314,278.400 158.676 C 268.375 167.168,261.316 173.901,254.586 181.390 C 252.614 183.584,250.667 185.744,250.259 186.190 C 244.302 192.706,232.415 208.780,225.405 219.800 C 224.566 221.120,223.477 222.830,222.986 223.600 C 220.214 227.945,219.200 229.654,219.200 229.979 C 219.200 230.179,218.975 230.581,218.700 230.871 C 218.425 231.162,217.570 232.612,216.800 234.094 C 213.970 239.542,214.170 239.554,210.506 233.696 C 209.238 231.669,206.310 227.004,204.000 223.331 C 201.690 219.658,199.530 216.191,199.200 215.626 C 198.870 215.062,198.502 214.510,198.382 214.400 C 198.263 214.290,196.740 211.860,194.999 209.000 C 193.258 206.140,191.601 203.562,191.317 203.271 C 191.033 202.981,190.800 202.588,190.800 202.399 C 190.800 201.727,188.414 202.810,173.400 210.294 C 165.040 214.462,154.922 219.476,150.915 221.436 C 142.574 225.517,142.640 225.429,146.700 226.959 C 150.671 228.456,152.089 229.075,157.512 231.680 C 162.315 233.987,166.209 236.095,169.200 238.006 C 169.530 238.217,170.335 238.688,170.989 239.051 C 172.269 239.763,176.935 242.847,182.400 246.593 C 185.354 248.618,187.132 249.923,189.599 251.876 C 189.929 252.138,191.730 253.561,193.600 255.037 C 198.942 259.256,207.304 266.537,211.882 270.957 C 217.300 276.188,216.732 276.034,219.011 272.883 C 243.946 238.405,290.161 197.916,312.100 191.326 C 314.770 190.524,314.781 190.480,313.200 187.063 C 312.540 185.637,312.000 184.221,312.000 183.915 C 312.000 183.610,311.839 183.189,311.642 182.980 C 310.568 181.840,309.138 172.532,309.125 166.600 C 309.114 161.289,309.343 159.075,311.830 140.500 C 312.129 138.268,312.079 138.218,310.200 138.896 M108.308 186.200 C 106.617 187.190,105.139 188.000,105.024 188.000 C 104.908 188.000,103.638 188.720,102.200 189.600 C 100.762 190.480,99.502 191.200,99.400 191.200 C 99.298 191.200,98.038 191.920,96.600 192.800 C 95.162 193.680,93.898 194.400,93.792 194.400 C 93.540 194.400,75.913 204.430,75.446 204.839 C 75.067 205.170,75.138 228.760,75.552 240.330 L 75.800 247.260 78.000 248.455 C 79.210 249.112,81.190 250.245,82.400 250.972 C 83.610 251.699,85.410 252.739,86.400 253.283 C 87.390 253.827,90.630 255.680,93.600 257.400 C 96.570 259.120,99.810 260.979,100.800 261.531 C 101.790 262.083,103.680 263.191,105.000 263.993 C 106.320 264.795,108.524 266.067,109.899 266.818 L 112.397 268.183 113.899 267.394 C 115.466 266.571,116.185 266.165,125.496 260.851 C 128.628 259.063,131.280 257.600,131.388 257.600 C 131.497 257.600,132.762 256.880,134.200 256.000 C 135.638 255.120,136.904 254.400,137.015 254.400 C 137.125 254.400,137.887 253.978,138.708 253.463 C 140.046 252.623,142.805 251.072,146.200 249.252 C 148.823 247.846,148.800 247.905,148.800 242.582 L 148.800 237.688 146.900 236.791 C 145.855 236.298,144.550 235.751,144.000 235.577 C 140.034 234.320,138.467 233.474,136.700 231.636 L 134.800 229.659 134.816 225.530 L 134.832 221.400 136.593 219.487 C 137.908 218.058,139.499 217.011,142.877 215.350 C 148.848 212.415,148.800 212.464,148.800 209.213 C 148.800 206.425,148.255 205.508,145.800 204.161 C 143.899 203.119,134.068 197.396,132.708 196.539 C 131.887 196.023,131.125 195.600,131.015 195.600 C 130.904 195.600,129.686 194.910,128.307 194.067 C 126.928 193.224,124.990 192.082,124.000 191.530 C 123.010 190.978,119.830 189.147,116.933 187.463 C 110.701 183.839,112.013 184.032,108.308 186.200 M189.000 187.040 C 185.700 188.931,176.378 194.168,173.200 195.917 C 172.210 196.461,171.220 197.039,171.000 197.200 C 170.780 197.361,169.700 197.990,168.600 198.598 C 167.500 199.206,165.006 200.591,163.059 201.674 C 161.111 202.758,159.131 203.860,158.659 204.122 C 156.462 205.344,155.562 207.304,156.954 207.838 C 157.258 207.954,163.953 204.844,171.832 200.925 L 186.156 193.800 189.486 193.659 C 194.827 193.432,196.777 194.731,200.860 201.236 C 201.883 202.866,204.237 206.630,206.091 209.600 C 212.986 220.645,214.400 222.481,214.400 220.384 C 214.400 220.155,214.740 219.480,215.155 218.884 C 216.926 216.343,224.452 204.731,224.631 204.262 C 224.946 203.443,221.702 201.335,210.800 195.274 C 209.810 194.723,208.370 193.880,207.600 193.400 C 206.830 192.920,205.390 192.075,204.400 191.522 C 203.410 190.969,200.515 189.320,197.966 187.858 C 192.461 184.700,192.997 184.749,189.000 187.040 M156.800 244.704 C 156.800 247.562,156.805 247.571,159.400 249.026 C 161.815 250.381,179.585 260.631,180.600 261.255 C 181.260 261.661,182.070 262.118,182.400 262.271 C 182.730 262.423,184.128 263.235,185.507 264.074 C 186.886 264.913,188.081 265.600,188.163 265.600 C 188.244 265.600,189.531 266.313,191.021 267.183 C 193.775 268.793,194.412 268.886,194.385 267.676 C 194.346 265.933,172.263 250.003,161.800 244.170 C 156.648 241.299,156.800 241.282,156.800 244.704 " stroke="#000000" fill="none" stroke-width="3" class="BWaFzjHU_2"></path></g><style data-made-with="vivus-instant">.BWaFzjHU_0{stroke-dasharray:3547 3549;stroke-dashoffset:3548;animation:BWaFzjHU_draw_0 4500ms linear 0ms infinite,BWaFzjHU_fade 4500ms linear 0ms infinite;}.BWaFzjHU_1{stroke-dasharray:2446 2448;stroke-dashoffset:2447;animation:BWaFzjHU_draw_1 4500ms linear 0ms infinite,BWaFzjHU_fade 4500ms linear 0ms infinite;}.BWaFzjHU_2{stroke-dasharray:3547 3549;stroke-dashoffset:3548;animation:BWaFzjHU_draw_2 4500ms linear 0ms infinite,BWaFzjHU_fade 4500ms linear 0ms infinite;}@keyframes BWaFzjHU_draw{100%{stroke-dashoffset:0;}}@keyframes BWaFzjHU_fade{0%{stroke-opacity:1;}91.11111111111111%{stroke-opacity:1;}100%{stroke-opacity:0;}}@keyframes BWaFzjHU_draw_0{6.666666666666667%{stroke-dashoffset: 3548}73.33333333333333%{ stroke-dashoffset: 0;}100%{ stroke-dashoffset: 0;}}@keyframes BWaFzjHU_draw_1{6.666666666666667%{stroke-dashoffset: 2447}73.33333333333333%{ stroke-dashoffset: 0;}100%{ stroke-dashoffset: 0;}}@keyframes BWaFzjHU_draw_2{6.666666666666667%{stroke-dashoffset: 3548}73.33333333333333%{ stroke-dashoffset: 0;}100%{ stroke-dashoffset: 0;}}</style></svg>
