<svg id="svg" version="1.1" width="400" height="400" xmlns="http://www.w3.org/2000/svg" xmlns:xlink="http://www.w3.org/1999/xlink" style=""><g id="svgg"><path id="path0" d="M311.221 36.010 C 287.190 40.026,268.430 61.010,266.683 85.829 C 265.849 97.668,268.901 105.723,280.602 122.570 C 306.982 160.549,315.063 176.195,319.515 197.914 C 320.676 203.573,320.471 203.833,324.732 191.295 C 331.162 172.378,336.820 161.645,354.783 134.297 C 371.830 108.343,375.000 101.159,375.000 88.489 C 375.000 55.781,344.260 30.487,311.221 36.010 M330.827 63.336 C 349.488 70.318,354.786 95.214,340.625 109.375 C 323.078 126.922,292.858 114.386,293.001 89.619 C 293.115 69.919,312.472 56.469,330.827 63.336 M104.402 78.230 C 58.918 84.071,24.849 122.636,24.883 168.243 C 24.897 187.927,30.161 199.220,56.949 237.034 C 91.861 286.317,104.833 311.906,112.871 347.344 C 114.031 352.457,115.263 357.344,115.610 358.203 C 116.352 360.040,115.908 361.108,120.309 346.875 C 130.396 314.248,143.084 289.618,173.033 244.531 C 202.277 200.505,207.220 189.434,207.218 167.969 C 207.213 113.537,158.762 71.249,104.402 78.230 M126.900 122.643 C 163.730 132.062,176.298 176.415,149.603 202.766 C 119.218 232.759,68.132 211.099,68.453 168.359 C 68.680 138.120,97.938 115.235,126.900 122.643 M268.426 208.677 C 240.325 212.775,222.338 230.268,230.135 245.914 C 232.888 251.439,238.827 256.633,253.298 266.169 C 279.983 283.756,278.430 297.641,249.115 303.571 C 237.264 305.968,173.996 305.852,152.644 303.395 L 148.647 302.935 148.146 305.607 C 147.042 311.488,138.814 340.533,135.105 351.641 C 132.935 358.137,131.368 363.660,131.623 363.914 C 133.530 365.822,217.887 363.745,239.844 361.249 C 308.348 353.464,344.325 308.574,310.210 273.452 C 303.318 266.357,294.896 261.052,275.774 251.761 C 263.609 245.851,258.885 243.134,256.151 240.477 C 240.551 225.316,260.779 214.110,307.587 211.983 C 320.687 211.388,320.359 210.762,306.017 208.987 C 295.880 207.732,276.027 207.568,268.426 208.677 " stroke="#000000" fill="none" stroke-width="3" class="EXfxLrwo_0"></path></g><style data-made-with="vivus-instant">.EXfxLrwo_0{stroke-dasharray:2376 2378;stroke-dashoffset:2377;animation:EXfxLrwo_draw_0 4500ms linear 0ms infinite,EXfxLrwo_fade 4500ms linear 0ms infinite;}@keyframes EXfxLrwo_draw{100%{stroke-dashoffset:0;}}@keyframes EXfxLrwo_fade{0%{stroke-opacity:1;}91.11111111111111%{stroke-opacity:1;}100%{stroke-opacity:0;}}@keyframes EXfxLrwo_draw_0{6.666666666666667%{stroke-dashoffset: 2377}73.33333333333333%{ stroke-dashoffset: 0;}100%{ stroke-dashoffset: 0;}}</style></svg>
