<svg id="svg" version="1.1" width="400" height="400" xmlns="http://www.w3.org/2000/svg" xmlns:xlink="http://www.w3.org/1999/xlink" style=""><g id="svgg"><path id="path0" d="M33.498 197.044 L 33.498 384.236 78.489 384.236 L 123.481 384.236 123.468 328.900 L 123.455 273.563 109.027 265.454 L 94.598 257.345 91.177 259.050 C 76.109 266.559,62.410 246.630,74.652 235.010 C 84.870 225.313,103.011 235.686,99.305 249.107 L 98.646 251.496 112.870 259.512 C 120.693 263.922,127.906 268.094,128.900 268.785 L 130.706 270.040 130.706 327.138 L 130.706 384.236 157.635 384.236 L 184.565 384.236 184.565 336.391 C 184.565 290.056,184.605 288.509,185.825 287.405 C 186.518 286.777,205.952 280.288,229.011 272.983 L 270.936 259.703 270.732 257.984 C 269.870 250.726,277.653 242.390,285.310 242.371 C 299.378 242.336,305.863 259.220,295.333 268.466 C 289.385 273.688,282.525 273.222,274.174 267.030 C 273.603 266.607,260.381 270.513,232.727 279.274 L 192.118 292.141 191.950 338.189 L 191.781 384.236 214.445 384.236 L 237.110 384.236 237.110 354.382 C 237.110 333.302,237.332 324.041,237.865 322.872 C 238.762 320.903,236.981 321.593,269.951 310.427 L 295.895 301.640 296.374 297.862 C 298.331 282.450,317.471 278.828,324.619 292.517 C 331.716 306.109,313.390 320.435,302.032 310.174 L 299.494 307.881 271.914 317.290 L 244.335 326.700 244.335 355.468 L 244.335 384.236 304.433 384.236 L 364.532 384.236 364.532 197.044 L 364.532 9.852 292.611 9.852 L 220.690 9.852 220.717 71.757 L 220.744 133.662 224.050 135.214 C 237.869 141.699,232.734 162.938,217.362 162.876 C 201.370 162.811,196.718 139.700,211.650 134.494 L 213.465 133.862 213.465 71.857 L 213.465 9.852 192.775 9.852 L 172.085 9.852 172.085 82.332 C 172.085 129.742,171.854 155.475,171.418 156.727 C 170.831 158.410,168.566 159.734,152.796 167.613 L 134.841 176.583 134.472 180.162 C 132.966 194.750,115.245 199.777,107.233 187.890 C 97.555 173.528,117.258 157.102,129.912 168.982 L 131.417 170.395 147.811 162.220 L 164.204 154.044 164.204 81.948 L 164.204 9.852 147.455 9.852 L 130.706 9.852 130.706 68.590 C 130.706 116.494,130.545 127.489,129.835 128.199 C 129.356 128.678,120.788 132.911,110.794 137.605 C 92.759 146.078,92.624 146.156,92.618 148.178 C 92.574 161.371,75.179 167.615,66.650 157.500 C 54.390 142.961,74.602 124.293,88.419 137.393 L 90.468 139.335 106.974 131.601 L 123.481 123.868 123.481 66.860 L 123.481 9.852 78.489 9.852 L 33.498 9.852 33.498 197.044 M72.997 23.821 C 82.909 28.953,86.118 41.002,80.022 50.205 C 73.287 60.373,58.794 61.399,50.763 52.275 C 37.238 36.910,54.819 14.411,72.997 23.821 M341.240 23.229 C 352.493 28.469,355.493 42.929,347.266 52.275 C 337.188 63.725,318.374 58.624,315.254 43.596 C 312.256 29.155,327.802 16.971,341.240 23.229 M58.450 30.378 C 49.043 36.780,53.029 51.232,64.201 51.232 C 73.838 51.232,79.303 41.557,74.103 33.700 C 70.917 28.884,63.086 27.222,58.450 30.378 M327.848 30.014 C 320.251 33.757,320.319 46.520,327.955 50.144 C 336.210 54.061,344.499 49.011,344.499 40.066 C 344.499 31.112,336.015 25.991,327.848 30.014 M307.473 134.259 C 321.684 140.197,319.002 161.114,303.813 162.806 L 300.111 163.218 284.357 193.432 C 275.692 210.049,267.855 224.310,266.941 225.123 L 265.280 226.601 209.190 226.601 L 153.099 226.601 152.021 228.874 C 146.171 241.201,128.182 239.808,124.381 226.734 C 119.330 209.360,144.587 200.194,152.030 216.699 L 153.241 219.383 208.094 219.216 L 262.947 219.048 278.233 189.819 L 293.519 160.591 291.660 158.621 C 280.719 147.018,292.942 128.187,307.473 134.259 M73.769 141.182 C 67.217 145.178,70.159 155.665,77.833 155.665 C 85.969 155.665,88.513 143.935,81.052 140.817 C 78.083 139.577,76.252 139.669,73.769 141.182 M211.997 142.475 C 210.053 144.212,209.852 144.740,209.852 148.112 C 209.852 156.942,221.903 159.003,224.662 150.644 C 227.159 143.079,217.961 137.146,211.997 142.475 M297.679 141.583 C 291.314 146.042,294.398 155.665,302.192 155.665 C 307.675 155.665,311.017 151.086,309.422 145.762 C 308.046 141.169,301.563 138.863,297.679 141.583 M115.143 173.370 C 112.745 174.832,111.216 178.771,111.934 181.634 C 113.603 188.281,123.280 189.355,126.441 183.244 C 130.119 176.131,122.103 169.126,115.143 173.370 M135.632 215.371 C 128.622 218.450,129.870 229.086,137.384 230.305 C 144.766 231.503,149.277 222.537,143.965 217.225 C 141.940 215.201,138.011 214.326,135.632 215.371 M79.458 240.310 C 72.938 246.830,80.461 256.790,88.691 252.534 C 93.129 250.239,93.838 243.647,90.014 240.230 C 87.069 237.599,82.131 237.636,79.458 240.310 M281.317 250.874 C 278.919 252.336,277.390 256.275,278.108 259.138 C 279.777 265.785,289.454 266.859,292.615 260.748 C 296.293 253.635,288.277 246.630,281.317 250.874 M307.596 291.896 C 301.978 294.431,302.192 303.081,307.939 305.808 C 312.142 307.803,316.457 306.060,318.341 301.607 C 321.067 295.163,314.170 288.929,307.596 291.896 M70.961 336.626 C 86.137 341.981,87.276 363.159,72.777 370.404 C 59.757 376.911,44.972 366.933,46.136 352.425 C 47.102 340.390,59.416 332.553,70.961 336.626 M341.215 337.178 C 352.457 342.424,355.538 356.835,347.396 366.085 C 336.078 378.943,315.073 371.089,315.015 353.978 C 314.970 340.623,329.135 331.540,341.215 337.178 M61.821 342.894 C 49.112 345.693,51.160 365.189,64.163 365.189 C 71.310 365.189,75.840 360.857,75.840 354.023 C 75.840 346.338,69.399 341.224,61.821 342.894 M327.280 344.232 C 320.156 348.795,320.557 360.590,327.955 364.101 C 336.210 368.018,344.499 362.969,344.499 354.023 C 344.499 344.883,334.839 339.391,327.280 344.232 " stroke="#000000" fill="none" stroke-width="3" class="kiYetHpr_0"></path></g><style data-made-with="vivus-instant">.kiYetHpr_0{stroke-dasharray:5379 5381;stroke-dashoffset:5380;animation:kiYetHpr_draw_0 4500ms linear 0ms infinite,kiYetHpr_fade 4500ms linear 0ms infinite;}@keyframes kiYetHpr_draw{100%{stroke-dashoffset:0;}}@keyframes kiYetHpr_fade{0%{stroke-opacity:1;}91.11111111111111%{stroke-opacity:1;}100%{stroke-opacity:0;}}@keyframes kiYetHpr_draw_0{6.666666666666667%{stroke-dashoffset: 5380}73.33333333333333%{ stroke-dashoffset: 0;}100%{ stroke-dashoffset: 0;}}</style></svg>
