<svg id="svg" version="1.1" width="400" height="400" viewBox="0 0 400 400" xmlns="http://www.w3.org/2000/svg" xmlns:xlink="http://www.w3.org/1999/xlink" style=""><g id="svgg"><path id="path0" d="M43.221 96.345 C 35.419 99.133,35.933 110.097,43.960 112.138 C 50.262 113.740,55.827 107.340,53.499 101.167 C 52.026 97.262,47.109 94.955,43.221 96.345 M351.043 96.523 C 344.577 99.078,344.286 108.536,350.582 111.518 C 357.674 114.878,364.878 107.674,361.518 100.582 C 359.723 96.793,354.996 94.961,351.043 96.523 M166.621 158.434 L 158.117 158.506 145.773 170.852 L 133.430 183.197 133.402 221.661 L 133.375 260.125 134.075 261.625 C 134.985 263.574,136.442 265.038,138.346 265.918 L 139.875 266.625 199.875 266.625 L 259.875 266.625 261.538 265.837 C 263.577 264.871,265.089 263.402,265.963 261.537 L 266.625 260.125 266.625 212.500 L 266.625 164.875 265.963 163.463 C 265.088 161.596,263.575 160.127,261.538 159.166 L 259.875 158.381 217.500 158.371 C 194.194 158.366,171.298 158.394,166.621 158.434 M43.875 279.468 C 34.558 281.905,36.147 295.589,45.750 295.618 C 56.309 295.651,56.818 279.849,46.274 279.350 C 45.367 279.307,44.288 279.360,43.875 279.468 M351.875 279.583 C 342.802 282.600,344.735 295.648,354.250 295.618 C 363.045 295.591,365.546 283.750,357.551 279.991 C 356.122 279.320,353.282 279.116,351.875 279.583 " stroke="#000000" fill="none" stroke-width="3" class="mzcQrYPy_0"></path><path id="path1" d="M38.316 66.757 C 22.683 68.409,10.276 80.684,8.497 96.257 C 8.307 97.927,8.250 127.751,8.305 197.500 L 8.382 296.375 9.042 299.000 C 12.448 312.559,22.988 322.462,36.312 324.623 C 39.826 325.193,360.174 325.193,363.688 324.623 C 377.420 322.396,388.343 311.750,391.175 297.835 C 391.879 294.377,391.875 97.045,391.171 93.750 C 388.250 80.074,378.636 70.394,364.800 67.194 L 362.375 66.634 201.250 66.600 C 112.631 66.581,39.311 66.652,38.316 66.757 M50.986 84.020 C 66.726 87.977,71.939 107.996,60.145 119.198 C 49.847 128.981,33.169 125.880,27.062 113.047 C 19.520 97.201,33.920 79.730,50.986 84.020 M359.267 84.008 C 378.052 88.766,380.583 114.401,363.108 122.903 C 349.370 129.586,333.371 119.461,333.436 104.125 C 333.494 90.522,346.131 80.681,359.267 84.008 M116.036 92.247 C 125.864 95.322,128.145 108.110,119.942 114.148 C 112.308 119.768,101.521 115.249,100.169 105.866 C 98.895 97.022,107.551 89.593,116.036 92.247 M174.121 92.135 C 179.451 93.523,183.224 98.486,183.244 104.135 C 183.283 115.395,169.538 120.881,161.833 112.680 C 153.243 103.537,161.958 88.966,174.121 92.135 M232.804 92.246 C 242.951 95.380,244.746 108.978,235.772 114.736 C 227.692 119.921,216.750 113.904,216.750 104.276 C 216.750 95.791,224.786 89.770,232.804 92.246 M291.036 92.247 C 300.864 95.322,303.145 108.110,294.942 114.148 C 287.308 119.768,276.521 115.249,275.169 105.866 C 273.895 97.022,282.551 89.593,291.036 92.247 M45.188 95.926 C 45.497 95.986,46.003 95.986,46.313 95.926 C 46.622 95.867,46.369 95.818,45.750 95.818 C 45.131 95.818,44.878 95.867,45.188 95.926 M353.688 95.926 C 353.997 95.986,354.503 95.986,354.813 95.926 C 355.122 95.867,354.869 95.818,354.250 95.818 C 353.631 95.818,353.378 95.867,353.688 95.926 M54.068 104.250 C 54.068 104.869,54.117 105.122,54.176 104.813 C 54.236 104.503,54.236 103.997,54.176 103.688 C 54.117 103.378,54.068 103.631,54.068 104.250 M345.818 104.250 C 345.818 104.869,345.867 105.122,345.926 104.813 C 345.986 104.503,345.986 103.997,345.926 103.688 C 345.867 103.378,345.818 103.631,345.818 104.250 M169.604 142.263 C 173.689 143.792,174.847 146.127,174.959 153.063 L 175.044 158.250 166.621 158.250 L 158.199 158.250 158.291 153.188 C 158.382 148.267,158.404 148.083,159.081 146.625 C 160.942 142.622,165.505 140.730,169.604 142.263 M236.350 142.262 C 240.337 143.754,241.582 146.293,241.709 153.188 L 241.801 158.250 233.383 158.250 L 224.964 158.250 225.044 153.063 C 225.124 147.964,225.137 147.851,225.825 146.449 C 227.715 142.600,232.338 140.761,236.350 142.262 M86.625 159.075 C 88.574 159.985,90.038 161.442,90.918 163.346 L 91.625 164.875 91.625 195.875 L 91.625 226.875 90.923 228.375 C 90.029 230.286,88.175 232.055,86.350 232.738 C 84.199 233.543,32.548 233.542,30.396 232.737 C 28.582 232.058,26.702 230.336,25.825 228.551 L 25.125 227.125 25.125 195.875 L 25.125 164.625 25.784 163.250 C 26.534 161.687,27.473 160.605,28.894 159.667 C 31.057 158.239,30.300 158.273,58.875 158.326 L 85.125 158.375 86.625 159.075 M261.538 159.166 C 263.575 160.127,265.088 161.596,265.963 163.463 L 266.625 164.875 266.625 212.500 L 266.625 260.125 265.963 261.537 C 265.089 263.402,263.577 264.871,261.538 265.837 L 259.875 266.625 199.875 266.625 L 139.875 266.625 138.346 265.918 C 136.442 265.038,134.985 263.574,134.075 261.625 L 133.375 260.125 133.402 221.661 L 133.430 183.197 145.773 170.852 L 158.117 158.506 166.621 158.434 C 171.298 158.394,194.194 158.366,217.500 158.371 L 259.875 158.381 261.538 159.166 M368.635 158.636 C 371.201 159.301,373.058 160.835,374.216 163.250 L 374.875 164.625 374.875 175.000 L 374.875 185.375 374.216 186.750 C 373.050 189.180,371.192 190.708,368.597 191.371 C 367.251 191.715,363.955 191.753,340.972 191.693 L 314.875 191.625 313.375 190.925 C 311.426 190.015,309.962 188.558,309.082 186.654 L 308.375 185.125 308.375 175.000 L 308.375 164.875 309.076 163.375 C 310.237 160.889,312.363 159.128,314.936 158.521 C 316.768 158.090,366.939 158.197,368.635 158.636 M133.250 191.647 L 133.250 200.044 128.063 199.959 C 122.967 199.876,122.850 199.863,121.449 199.175 C 116.431 196.710,115.160 190.033,118.950 186.044 C 121.190 183.685,122.505 183.316,128.813 183.277 L 133.250 183.250 133.250 191.647 M278.558 184.198 C 284.813 187.278,284.809 196.102,278.551 199.175 C 277.150 199.863,277.033 199.876,271.938 199.959 L 266.750 200.044 266.750 191.621 L 266.750 183.199 271.818 183.287 L 276.886 183.375 278.558 184.198 M368.635 208.636 C 373.684 209.944,374.875 212.279,374.875 220.875 L 374.875 227.125 374.175 228.551 C 373.298 230.336,371.418 232.058,369.604 232.737 C 367.452 233.542,315.801 233.543,313.650 232.738 C 311.825 232.055,309.971 230.286,309.077 228.375 L 308.375 226.875 308.375 220.875 L 308.375 214.875 309.076 213.375 C 310.237 210.889,312.363 209.128,314.936 208.521 C 316.768 208.090,366.939 208.197,368.635 208.636 M133.250 233.401 L 133.250 241.801 128.188 241.709 C 123.267 241.618,123.083 241.596,121.625 240.919 C 116.560 238.564,115.127 232.050,118.766 227.917 C 120.968 225.415,122.224 225.038,128.438 225.017 L 133.250 225.000 133.250 233.401 M278.551 225.825 C 284.809 228.898,284.813 237.722,278.558 240.802 L 276.886 241.625 271.818 241.713 L 266.750 241.801 266.750 233.383 L 266.750 224.964 271.938 225.044 C 277.036 225.124,277.149 225.137,278.551 225.825 M50.016 267.107 C 66.204 270.538,72.221 290.689,60.504 302.226 C 48.442 314.103,27.939 307.426,25.264 290.750 C 22.991 276.579,36.015 264.139,50.016 267.107 M174.959 271.938 C 174.876 277.033,174.863 277.150,174.175 278.551 C 171.102 284.809,162.278 284.813,159.198 278.558 L 158.375 276.886 158.287 271.818 L 158.199 266.750 166.621 266.750 L 175.044 266.750 174.959 271.938 M241.713 271.818 L 241.625 276.886 240.802 278.558 C 237.722 284.813,228.898 284.809,225.825 278.551 C 225.137 277.149,225.124 277.036,225.044 271.938 L 224.964 266.750 233.383 266.750 L 241.801 266.750 241.713 271.818 M358.448 267.142 C 374.536 270.413,380.494 290.661,368.779 302.255 C 358.177 312.749,340.101 308.919,334.790 295.052 C 328.882 279.625,342.254 263.849,358.448 267.142 M54.068 287.500 C 54.068 288.119,54.117 288.372,54.176 288.063 C 54.236 287.753,54.236 287.247,54.176 286.938 C 54.117 286.628,54.068 286.881,54.068 287.500 M345.818 287.500 C 345.818 288.119,345.867 288.372,345.926 288.063 C 345.986 287.753,345.986 287.247,345.926 286.938 C 345.867 286.628,345.818 286.881,345.818 287.500 " stroke="#000000" fill="none" stroke-width="3" class="mzcQrYPy_1"></path><path id="path2" d="M31.250 158.648 C 28.784 159.314,26.919 160.884,25.784 163.250 L 25.125 164.625 25.125 195.875 L 25.125 227.125 25.825 228.551 C 26.702 230.336,28.582 232.058,30.396 232.737 C 32.548 233.542,84.199 233.543,86.350 232.738 C 88.175 232.055,90.029 230.286,90.923 228.375 L 91.625 226.875 91.625 195.875 L 91.625 164.875 90.918 163.346 C 90.038 161.442,88.574 159.985,86.625 159.075 L 85.125 158.375 58.875 158.326 C 36.341 158.284,32.430 158.330,31.250 158.648 M314.936 158.521 C 312.363 159.128,310.237 160.889,309.076 163.375 L 308.375 164.875 308.375 175.000 L 308.375 185.125 309.082 186.654 C 309.962 188.558,311.426 190.015,313.375 190.925 L 314.875 191.625 340.972 191.693 C 363.955 191.753,367.251 191.715,368.597 191.371 C 371.192 190.708,373.050 189.180,374.216 186.750 L 374.875 185.375 374.875 175.000 L 374.875 164.625 374.216 163.250 C 373.058 160.835,371.201 159.301,368.635 158.636 C 366.939 158.197,316.768 158.090,314.936 158.521 M314.936 208.521 C 312.363 209.128,310.237 210.889,309.076 213.375 L 308.375 214.875 308.375 220.875 L 308.375 226.875 309.077 228.375 C 309.971 230.286,311.825 232.055,313.650 232.738 C 315.801 233.543,367.452 233.542,369.604 232.737 C 371.418 232.058,373.298 230.336,374.175 228.551 L 374.875 227.125 374.875 220.875 C 374.875 212.279,373.684 209.944,368.635 208.636 C 366.939 208.197,316.768 208.090,314.936 208.521 M66.544 330.063 C 66.672 336.891,67.786 339.274,71.696 341.080 L 72.875 341.625 95.755 341.625 L 118.635 341.625 120.307 340.802 C 124.093 338.938,124.851 337.229,124.955 330.313 L 125.036 325.000 95.742 325.000 L 66.449 325.000 66.544 330.063 " stroke="#000000" fill="none" stroke-width="3" class="mzcQrYPy_2"></path><path id="path3" d="M43.108 83.498 C 27.094 85.734,19.533 104.587,29.604 117.168 C 41.875 132.495,66.704 123.650,66.567 104.000 C 66.480 91.572,55.295 81.797,43.108 83.498 M351.515 83.507 C 334.089 85.920,327.183 107.328,339.970 119.291 C 351.853 130.408,371.234 124.263,374.543 108.330 C 377.414 94.501,365.428 81.581,351.515 83.507 M108.750 92.319 C 99.761 95.395,97.077 106.490,103.744 113.014 C 111.084 120.196,123.367 116.025,124.833 105.853 C 126.117 96.935,117.198 89.428,108.750 92.319 M166.994 92.319 C 156.950 95.744,155.312 109.015,164.228 114.736 C 172.366 119.958,183.278 113.875,183.244 104.135 C 183.215 95.688,174.883 89.629,166.994 92.319 M225.771 92.147 C 221.761 93.225,218.187 96.839,217.135 100.879 C 213.882 113.364,229.364 122.051,238.167 112.680 C 246.784 103.509,237.948 88.873,225.771 92.147 M283.750 92.319 C 274.761 95.395,272.077 106.490,278.744 113.014 C 286.084 120.196,298.367 116.025,299.833 105.853 C 301.117 96.935,292.198 89.428,283.750 92.319 M48.875 96.409 C 53.030 97.826,55.337 103.437,53.451 107.537 C 49.731 115.621,37.625 113.106,37.625 104.250 C 37.625 98.165,43.012 94.410,48.875 96.409 M357.641 96.600 C 362.854 98.987,364.081 105.935,360.008 110.008 C 354.859 115.157,345.921 111.591,345.893 104.375 C 345.868 98.128,352.047 94.039,357.641 96.600 M163.579 142.274 C 159.657 143.782,158.417 146.343,158.291 153.188 L 158.199 158.250 166.621 158.250 L 175.044 158.250 174.959 153.063 C 174.876 147.967,174.863 147.850,174.175 146.449 C 172.284 142.598,167.569 140.740,163.579 142.274 M230.325 142.276 C 226.298 143.824,225.152 146.166,225.044 153.063 L 224.964 158.250 233.383 158.250 L 241.801 158.250 241.709 153.188 C 241.618 148.267,241.596 148.083,240.919 146.625 C 239.055 142.616,234.406 140.707,230.325 142.276 M123.336 183.510 C 117.121 184.740,114.622 192.467,118.900 197.225 C 121.000 199.561,122.005 199.861,128.063 199.959 L 133.250 200.044 133.250 191.647 L 133.250 183.250 128.813 183.277 C 126.372 183.292,123.907 183.397,123.336 183.510 M266.750 191.621 L 266.750 200.044 271.938 199.959 C 277.033 199.876,277.150 199.863,278.551 199.175 C 284.809 196.102,284.813 187.278,278.558 184.198 L 276.886 183.375 271.818 183.287 L 266.750 183.199 266.750 191.621 M122.581 225.360 C 115.333 227.626,114.714 237.706,121.625 240.919 C 123.083 241.596,123.267 241.618,128.188 241.709 L 133.250 241.801 133.250 233.401 L 133.250 225.000 128.438 225.017 C 125.222 225.028,123.279 225.142,122.581 225.360 M266.750 233.383 L 266.750 241.801 271.818 241.713 L 276.886 241.625 278.558 240.802 C 284.813 237.722,284.809 228.898,278.551 225.825 C 277.149 225.137,277.036 225.124,271.938 225.044 L 266.750 224.964 266.750 233.383 M41.375 267.161 C 27.521 270.090,20.650 286.318,28.138 298.423 C 36.120 311.328,54.954 311.559,63.247 298.855 C 73.350 283.378,59.513 263.326,41.375 267.161 M158.287 271.818 L 158.375 276.886 159.198 278.558 C 162.278 284.813,171.102 284.809,174.175 278.551 C 174.863 277.150,174.876 277.033,174.959 271.938 L 175.044 266.750 166.621 266.750 L 158.199 266.750 158.287 271.818 M225.044 271.938 C 225.124 277.036,225.137 277.149,225.825 278.551 C 228.898 284.809,237.722 284.813,240.802 278.558 L 241.625 276.886 241.713 271.818 L 241.801 266.750 233.383 266.750 L 224.964 266.750 225.044 271.938 M349.875 267.120 C 335.566 270.268,328.788 286.654,336.750 298.850 C 345.794 312.705,366.924 310.841,373.323 295.624 C 379.786 280.256,366.052 263.560,349.875 267.120 M48.840 279.758 C 54.570 281.902,55.959 289.663,51.340 293.729 C 47.998 296.670,42.796 296.401,39.780 293.129 C 33.849 286.694,40.630 276.687,48.840 279.758 M357.885 280.058 C 365.439 283.937,363.082 295.241,354.625 295.692 C 346.736 296.112,342.750 286.474,348.661 281.271 C 351.086 279.136,355.069 278.613,357.885 280.058 " stroke="#000000" fill="none" stroke-width="3" class="mzcQrYPy_3"></path></g><style data-made-with="vivus-instant">.mzcQrYPy_0{stroke-dasharray:664 666;stroke-dashoffset:665;animation:mzcQrYPy_draw_0 4500ms linear 0ms infinite,mzcQrYPy_fade 4500ms linear 0ms infinite;}.mzcQrYPy_1{stroke-dasharray:3635 3637;stroke-dashoffset:3636;animation:mzcQrYPy_draw_1 4500ms linear 0ms infinite,mzcQrYPy_fade 4500ms linear 0ms infinite;}.mzcQrYPy_2{stroke-dasharray:767 769;stroke-dashoffset:768;animation:mzcQrYPy_draw_2 4500ms linear 0ms infinite,mzcQrYPy_fade 4500ms linear 0ms infinite;}.mzcQrYPy_3{stroke-dasharray:1519 1521;stroke-dashoffset:1520;animation:mzcQrYPy_draw_3 4500ms linear 0ms infinite,mzcQrYPy_fade 4500ms linear 0ms infinite;}@keyframes mzcQrYPy_draw{100%{stroke-dashoffset:0;}}@keyframes mzcQrYPy_fade{0%{stroke-opacity:1;}91.11111111111111%{stroke-opacity:1;}100%{stroke-opacity:0;}}@keyframes mzcQrYPy_draw_0{6.666666666666667%{stroke-dashoffset: 665}73.33333333333333%{ stroke-dashoffset: 0;}100%{ stroke-dashoffset: 0;}}@keyframes mzcQrYPy_draw_1{6.666666666666667%{stroke-dashoffset: 3636}73.33333333333333%{ stroke-dashoffset: 0;}100%{ stroke-dashoffset: 0;}}@keyframes mzcQrYPy_draw_2{6.666666666666667%{stroke-dashoffset: 768}73.33333333333333%{ stroke-dashoffset: 0;}100%{ stroke-dashoffset: 0;}}@keyframes mzcQrYPy_draw_3{6.666666666666667%{stroke-dashoffset: 1520}73.33333333333333%{ stroke-dashoffset: 0;}100%{ stroke-dashoffset: 0;}}</style></svg>
