<svg id="svg" version="1.1" width="400" height="400" viewBox="0 0 400 400" xmlns="http://www.w3.org/2000/svg" xmlns:xlink="http://www.w3.org/1999/xlink" style=""><g id="svgg"><path id="path0" d="M189.714 37.842 C 189.008 38.606,188.425 38.800,186.832 38.800 C 185.237 38.800,184.636 39.001,183.836 39.800 C 183.193 40.444,182.387 40.800,181.576 40.800 C 180.708 40.800,180.070 41.111,179.529 41.800 C 179.096 42.350,178.376 42.800,177.929 42.800 C 177.481 42.800,176.761 43.250,176.329 43.800 C 175.896 44.350,175.199 44.800,174.780 44.800 C 174.361 44.800,173.724 45.250,173.363 45.800 C 173.003 46.350,172.398 46.800,172.018 46.800 C 171.639 46.800,171.123 47.250,170.873 47.800 C 170.622 48.350,170.139 48.800,169.799 48.800 C 169.459 48.800,169.009 49.250,168.800 49.800 C 168.591 50.350,168.157 50.800,167.837 50.800 C 167.516 50.800,167.138 51.166,166.996 51.613 C 166.854 52.060,166.302 52.862,165.769 53.395 C 165.236 53.928,164.800 54.629,164.800 54.953 C 164.800 55.277,164.350 55.896,163.800 56.329 C 163.250 56.761,162.800 57.494,162.800 57.958 C 162.800 58.421,162.659 58.800,162.486 58.800 C 162.000 58.800,160.800 61.028,160.800 61.931 C 160.800 62.375,160.350 63.273,159.800 63.927 C 159.060 64.807,158.800 65.580,158.800 66.904 C 158.800 68.153,158.529 69.037,157.900 69.836 C 157.027 70.946,157.000 71.252,157.000 80.000 C 157.000 88.748,157.027 89.054,157.900 90.164 C 158.545 90.983,158.800 91.844,158.800 93.196 C 158.800 94.655,159.027 95.328,159.800 96.162 C 160.350 96.756,160.800 97.668,160.800 98.190 C 160.800 98.712,161.250 99.673,161.800 100.327 C 162.350 100.981,162.800 101.874,162.800 102.312 C 162.800 102.750,163.250 103.403,163.800 103.763 C 164.350 104.124,164.800 104.692,164.800 105.027 C 164.800 105.362,165.236 106.072,165.769 106.605 C 166.302 107.138,166.854 107.940,166.996 108.387 C 167.138 108.834,167.516 109.200,167.837 109.200 C 168.157 109.200,168.591 109.650,168.800 110.200 C 169.009 110.750,169.459 111.200,169.799 111.200 C 170.139 111.200,170.622 111.650,170.873 112.200 C 171.123 112.750,171.653 113.200,172.050 113.200 C 172.447 113.200,172.965 113.560,173.200 114.001 C 173.436 114.441,174.255 115.063,175.020 115.383 C 175.785 115.702,176.518 116.242,176.648 116.582 C 176.779 116.922,177.213 117.200,177.612 117.200 C 178.012 117.200,178.873 117.650,179.527 118.200 C 180.181 118.750,181.013 119.200,181.378 119.200 C 182.235 119.200,184.400 120.319,184.400 120.762 C 184.400 120.950,185.478 121.182,186.795 121.277 C 188.543 121.404,189.440 121.686,190.120 122.325 C 191.560 123.678,208.875 123.690,209.969 122.338 C 210.501 121.682,211.232 121.434,213.034 121.298 C 214.335 121.199,215.580 120.896,215.800 120.624 C 216.390 119.896,217.833 119.200,218.753 119.200 C 219.196 119.200,220.044 118.750,220.638 118.200 C 221.231 117.650,222.044 117.200,222.444 117.200 C 222.844 117.200,223.365 116.840,223.600 116.400 C 223.835 115.960,224.286 115.600,224.600 115.600 C 224.915 115.600,225.787 115.060,226.539 114.400 C 227.291 113.740,228.184 113.200,228.525 113.200 C 228.866 113.200,229.202 112.795,229.272 112.300 C 229.353 111.730,229.721 111.354,230.275 111.275 C 230.821 111.198,231.198 110.821,231.275 110.275 C 231.354 109.721,231.730 109.353,232.300 109.272 C 232.847 109.194,233.200 108.866,233.200 108.434 C 233.200 108.044,233.575 107.385,234.033 106.970 C 234.491 106.555,235.112 105.628,235.413 104.908 C 235.713 104.189,236.238 103.600,236.580 103.600 C 236.964 103.600,237.200 103.242,237.200 102.658 C 237.200 102.141,237.650 101.231,238.200 100.638 C 238.750 100.044,239.200 99.196,239.200 98.753 C 239.200 97.833,239.896 96.390,240.624 95.800 C 240.896 95.580,241.199 94.335,241.298 93.034 C 241.434 91.232,241.682 90.501,242.338 89.969 C 243.689 88.875,243.682 71.118,242.330 70.024 C 241.655 69.477,241.420 68.768,241.282 66.859 C 241.184 65.507,240.950 64.400,240.762 64.400 C 240.285 64.400,239.200 62.206,239.200 61.240 C 239.200 60.801,238.750 59.956,238.200 59.362 C 237.650 58.769,237.200 57.969,237.200 57.584 C 237.200 57.200,236.922 56.779,236.582 56.648 C 236.242 56.518,235.700 55.779,235.377 55.006 C 235.054 54.233,234.432 53.377,233.995 53.104 C 233.558 52.831,233.200 52.213,233.200 51.732 C 233.200 51.128,232.920 50.816,232.300 50.728 C 231.730 50.647,231.354 50.279,231.275 49.725 C 231.198 49.179,230.821 48.802,230.275 48.725 C 229.721 48.646,229.353 48.270,229.272 47.700 C 229.187 47.103,228.870 46.800,228.330 46.800 C 227.882 46.800,227.161 46.350,226.729 45.800 C 226.296 45.250,225.599 44.800,225.180 44.800 C 224.761 44.800,224.124 44.350,223.763 43.800 C 223.403 43.250,222.744 42.800,222.300 42.800 C 221.855 42.800,221.075 42.350,220.565 41.800 C 219.961 41.148,219.207 40.800,218.400 40.800 C 217.593 40.800,216.839 40.452,216.235 39.800 C 215.476 38.981,214.933 38.800,213.236 38.800 C 211.559 38.800,210.973 38.609,210.164 37.800 L 209.164 36.800 199.882 36.842 C 190.629 36.884,190.597 36.887,189.714 37.842 M204.894 64.300 C 205.472 64.844,206.355 65.200,207.122 65.200 C 207.975 65.200,208.559 65.471,208.897 66.023 C 209.173 66.475,209.956 67.112,210.634 67.437 C 211.313 67.763,212.259 68.724,212.736 69.572 C 213.214 70.421,213.847 71.209,214.144 71.323 C 214.441 71.437,214.787 72.166,214.913 72.942 C 215.039 73.719,215.533 74.883,216.011 75.530 C 217.146 77.065,217.088 84.184,215.935 84.829 C 215.569 85.033,215.148 85.923,214.999 86.805 C 214.835 87.775,214.426 88.572,213.964 88.819 C 213.544 89.044,213.200 89.458,213.200 89.738 C 213.200 90.405,210.852 92.800,210.199 92.800 C 209.920 92.800,209.397 93.250,209.037 93.800 C 208.549 94.544,208.031 94.800,207.013 94.800 C 206.048 94.800,205.460 95.065,205.016 95.700 C 203.966 97.199,196.864 97.300,195.401 95.837 C 194.689 95.125,193.934 94.800,192.996 94.800 C 192.047 94.800,191.500 94.560,191.209 94.016 C 190.978 93.585,190.176 92.941,189.426 92.585 C 188.622 92.204,187.796 91.378,187.415 90.574 C 187.059 89.824,186.415 89.022,185.984 88.791 C 185.440 88.500,185.200 87.953,185.200 87.002 C 185.200 86.096,184.895 85.347,184.300 84.793 C 183.482 84.031,183.400 83.588,183.400 79.942 C 183.400 76.263,183.475 75.869,184.300 75.201 C 184.883 74.729,185.200 74.035,185.200 73.233 C 185.200 72.411,185.536 71.703,186.200 71.125 C 186.750 70.647,187.200 70.052,187.200 69.803 C 187.200 69.249,189.286 67.200,189.850 67.200 C 190.073 67.200,190.647 66.750,191.125 66.200 C 191.688 65.553,192.414 65.200,193.182 65.200 C 193.835 65.200,194.691 64.865,195.084 64.455 C 196.647 62.828,203.218 62.724,204.894 64.300 M191.200 161.550 C 191.200 186.144,191.110 186.784,187.645 186.807 C 187.059 186.811,186.187 187.250,185.658 187.807 C 185.124 188.370,184.258 188.803,183.658 188.807 C 183.058 188.811,182.192 189.244,181.658 189.807 C 181.124 190.370,180.258 190.803,179.658 190.807 C 179.058 190.811,178.192 191.244,177.658 191.807 C 177.124 192.370,176.258 192.803,175.658 192.807 C 175.058 192.811,174.192 193.244,173.658 193.807 C 173.124 194.370,172.258 194.803,171.658 194.807 C 171.058 194.811,170.192 195.244,169.658 195.807 C 169.124 196.370,168.258 196.803,167.658 196.807 C 167.058 196.811,166.192 197.244,165.658 197.807 C 165.124 198.370,164.258 198.803,163.658 198.807 C 163.058 198.811,162.192 199.244,161.658 199.807 C 161.124 200.370,160.258 200.803,159.658 200.807 C 159.058 200.811,158.192 201.244,157.658 201.807 C 157.124 202.370,156.258 202.803,155.658 202.807 C 155.058 202.811,154.192 203.244,153.658 203.807 C 153.124 204.370,152.258 204.803,151.658 204.807 C 151.058 204.811,150.192 205.244,149.658 205.807 C 149.124 206.370,148.258 206.803,147.658 206.807 C 147.058 206.811,146.192 207.244,145.658 207.807 C 145.124 208.370,144.258 208.803,143.658 208.807 C 143.058 208.811,142.192 209.244,141.658 209.807 L 140.716 210.800 105.958 210.800 L 71.200 210.800 71.200 235.000 L 71.200 259.200 80.195 259.200 L 89.190 259.200 89.295 244.300 L 89.400 229.400 114.866 229.297 L 140.332 229.194 141.524 230.197 C 142.179 230.749,143.081 231.200,143.527 231.200 C 143.973 231.200,144.873 231.650,145.527 232.200 C 146.181 232.750,147.081 233.200,147.527 233.200 C 147.973 233.200,148.873 233.650,149.527 234.200 C 150.181 234.750,151.016 235.200,151.384 235.200 C 152.261 235.200,153.717 235.976,154.120 236.658 C 154.296 236.956,154.803 237.200,155.246 237.200 C 156.244 237.200,157.693 237.936,158.120 238.658 C 158.296 238.956,158.803 239.200,159.246 239.200 C 160.244 239.200,161.693 239.936,162.120 240.658 C 162.296 240.956,162.803 241.200,163.246 241.200 C 164.244 241.200,165.693 241.936,166.120 242.658 C 166.296 242.956,166.803 243.200,167.246 243.200 C 168.244 243.200,169.693 243.936,170.120 244.658 C 170.296 244.956,170.803 245.200,171.246 245.200 C 172.244 245.200,173.693 245.936,174.120 246.658 C 174.296 246.956,174.803 247.200,175.246 247.200 C 176.244 247.200,177.693 247.936,178.120 248.658 C 178.296 248.956,178.803 249.200,179.246 249.200 C 180.244 249.200,181.693 249.936,182.120 250.658 C 182.296 250.956,182.803 251.200,183.246 251.200 C 184.244 251.200,185.693 251.936,186.120 252.658 C 186.296 252.956,186.803 253.200,187.246 253.200 C 188.244 253.200,189.693 253.936,190.120 254.658 C 190.296 254.956,190.803 255.200,191.246 255.200 C 192.244 255.200,193.693 255.936,194.120 256.658 C 194.296 256.956,194.803 257.200,195.246 257.200 C 196.244 257.200,197.693 257.936,198.120 258.658 C 198.660 259.573,201.154 259.310,202.473 258.200 C 203.127 257.650,204.027 257.200,204.473 257.200 C 204.919 257.200,205.819 256.750,206.473 256.200 C 207.127 255.650,208.027 255.200,208.473 255.200 C 208.919 255.200,209.819 254.750,210.473 254.200 C 211.127 253.650,212.027 253.200,212.473 253.200 C 212.919 253.200,213.819 252.750,214.473 252.200 C 215.127 251.650,216.027 251.200,216.473 251.200 C 216.919 251.200,217.819 250.750,218.473 250.200 C 219.127 249.650,220.027 249.200,220.473 249.200 C 220.919 249.200,221.819 248.750,222.473 248.200 C 223.127 247.650,224.027 247.200,224.473 247.200 C 224.919 247.200,225.819 246.750,226.473 246.200 C 227.127 245.650,228.027 245.200,228.473 245.200 C 228.919 245.200,229.819 244.750,230.473 244.200 C 231.127 243.650,232.027 243.200,232.473 243.200 C 232.919 243.200,233.819 242.750,234.473 242.200 C 235.127 241.650,236.027 241.200,236.473 241.200 C 236.919 241.200,237.819 240.750,238.473 240.200 C 239.127 239.650,240.027 239.200,240.473 239.200 C 240.919 239.200,241.819 238.750,242.473 238.200 C 243.127 237.650,244.027 237.200,244.473 237.200 C 244.919 237.200,245.819 236.750,246.473 236.200 C 247.127 235.650,248.027 235.200,248.473 235.200 C 248.919 235.200,249.819 234.750,250.473 234.200 C 251.127 233.650,252.027 233.200,252.473 233.200 C 252.919 233.200,253.819 232.750,254.473 232.200 C 255.127 231.650,256.027 231.200,256.473 231.200 C 256.919 231.200,257.819 230.750,258.473 230.200 L 259.661 229.200 285.041 229.200 L 310.420 229.200 310.810 230.226 C 311.036 230.822,311.200 237.115,311.200 245.226 L 311.200 259.200 320.200 259.200 L 329.200 259.200 329.200 235.000 L 329.200 210.800 294.242 210.800 L 259.284 210.800 258.342 209.807 C 257.808 209.244,256.942 208.811,256.342 208.807 C 255.742 208.803,254.876 208.370,254.342 207.807 C 253.808 207.244,252.942 206.811,252.342 206.807 C 251.742 206.803,250.876 206.370,250.342 205.807 C 249.808 205.244,248.942 204.811,248.342 204.807 C 247.742 204.803,246.876 204.370,246.342 203.807 C 245.808 203.244,244.942 202.811,244.342 202.807 C 243.742 202.803,242.876 202.370,242.342 201.807 C 241.808 201.244,240.942 200.811,240.342 200.807 C 239.742 200.803,238.876 200.370,238.342 199.807 C 237.808 199.244,236.942 198.811,236.342 198.807 C 235.742 198.803,234.876 198.370,234.342 197.807 C 233.808 197.244,232.942 196.811,232.342 196.807 C 231.742 196.803,230.876 196.370,230.342 195.807 C 229.808 195.244,228.942 194.811,228.342 194.807 C 227.742 194.803,226.876 194.370,226.342 193.807 C 225.820 193.257,224.940 192.811,224.370 192.807 C 223.795 192.803,222.924 192.358,222.400 191.800 C 221.856 191.221,221.014 190.800,220.400 190.800 C 219.786 190.800,218.944 190.379,218.400 189.800 C 217.856 189.221,217.014 188.800,216.400 188.800 C 215.786 188.800,214.944 188.379,214.400 187.800 C 213.880 187.246,213.011 186.800,212.452 186.800 C 211.898 186.800,210.939 186.316,210.322 185.725 L 209.200 184.650 209.200 162.725 L 209.200 140.800 200.200 140.800 L 191.200 140.800 191.200 161.550 M201.893 200.400 C 202.270 200.840,202.910 201.200,203.315 201.200 C 204.252 201.200,205.705 201.955,206.120 202.658 C 206.296 202.956,206.803 203.200,207.246 203.200 C 208.244 203.200,209.693 203.936,210.120 204.658 C 210.296 204.956,210.803 205.200,211.246 205.200 C 212.244 205.200,213.693 205.936,214.120 206.658 C 214.296 206.956,214.803 207.200,215.246 207.200 C 216.244 207.200,217.693 207.936,218.120 208.658 C 218.296 208.956,218.803 209.200,219.246 209.200 C 220.244 209.200,221.693 209.936,222.120 210.658 C 222.296 210.956,222.803 211.200,223.246 211.200 C 224.244 211.200,225.693 211.936,226.120 212.658 C 226.296 212.956,226.867 213.200,227.389 213.200 C 227.911 213.200,228.873 213.650,229.527 214.200 C 230.181 214.750,231.081 215.200,231.527 215.200 C 231.973 215.200,232.873 215.650,233.527 216.200 C 234.181 216.750,235.070 217.200,235.504 217.200 C 236.831 217.200,238.400 218.724,238.400 220.013 C 238.400 221.424,237.036 222.797,235.625 222.807 C 235.060 222.811,234.177 223.260,233.658 223.807 C 233.124 224.370,232.258 224.803,231.658 224.807 C 231.058 224.811,230.192 225.244,229.658 225.807 C 229.124 226.370,228.258 226.803,227.658 226.807 C 227.058 226.811,226.192 227.244,225.658 227.807 C 225.124 228.370,224.258 228.803,223.658 228.807 C 223.058 228.811,222.192 229.244,221.658 229.807 C 221.124 230.370,220.258 230.803,219.658 230.807 C 219.058 230.811,218.192 231.244,217.658 231.807 C 217.124 232.370,216.258 232.803,215.658 232.807 C 215.058 232.811,214.192 233.244,213.658 233.807 C 213.124 234.370,212.258 234.803,211.658 234.807 C 211.058 234.811,210.192 235.244,209.658 235.807 C 209.124 236.370,208.258 236.803,207.658 236.807 C 207.058 236.811,206.192 237.244,205.658 237.807 C 205.113 238.382,204.266 238.800,203.647 238.800 C 203.059 238.800,202.270 239.160,201.893 239.600 C 201.505 240.053,200.713 240.400,200.066 240.400 C 199.432 240.400,198.602 240.044,198.200 239.600 C 197.802 239.160,196.995 238.800,196.408 238.800 C 195.785 238.800,194.947 238.383,194.400 237.800 C 193.856 237.221,193.014 236.800,192.400 236.800 C 191.786 236.800,190.944 236.379,190.400 235.800 C 189.844 235.209,189.016 234.800,188.372 234.800 C 187.733 234.800,186.895 234.390,186.342 233.807 C 185.808 233.244,184.942 232.811,184.342 232.807 C 183.742 232.803,182.876 232.370,182.342 231.807 C 181.808 231.244,180.942 230.811,180.342 230.807 C 179.742 230.803,178.876 230.370,178.342 229.807 C 177.808 229.244,176.942 228.811,176.342 228.807 C 175.742 228.803,174.876 228.370,174.342 227.807 C 173.808 227.244,172.942 226.811,172.342 226.807 C 171.742 226.803,170.876 226.370,170.342 225.807 C 169.808 225.244,168.942 224.811,168.342 224.807 C 167.742 224.803,166.876 224.370,166.342 223.807 C 165.823 223.260,164.940 222.811,164.375 222.807 C 162.964 222.797,161.600 221.424,161.600 220.013 C 161.600 218.724,163.169 217.200,164.496 217.200 C 164.930 217.200,165.819 216.750,166.473 216.200 C 167.127 215.650,168.027 215.200,168.473 215.200 C 168.919 215.200,169.819 214.750,170.473 214.200 C 171.127 213.650,172.027 213.200,172.473 213.200 C 172.919 213.200,173.819 212.750,174.473 212.200 C 175.127 211.650,176.027 211.200,176.473 211.200 C 176.919 211.200,177.819 210.750,178.473 210.200 C 179.127 209.650,180.027 209.200,180.473 209.200 C 180.919 209.200,181.819 208.750,182.473 208.200 C 183.127 207.650,184.027 207.200,184.473 207.200 C 184.919 207.200,185.819 206.750,186.473 206.200 C 187.127 205.650,188.027 205.200,188.473 205.200 C 188.919 205.200,189.819 204.750,190.473 204.200 C 191.127 203.650,192.027 203.200,192.473 203.200 C 192.919 203.200,193.819 202.750,194.473 202.200 C 195.127 201.650,196.070 201.200,196.569 201.200 C 197.068 201.200,197.802 200.840,198.200 200.400 C 198.602 199.956,199.432 199.600,200.066 199.600 C 200.713 199.600,201.505 199.947,201.893 200.400 M58.806 280.300 C 58.803 280.575,58.363 280.800,57.828 280.800 C 57.124 280.800,56.820 281.049,56.728 281.700 C 56.647 282.270,56.279 282.646,55.725 282.725 C 55.179 282.802,54.802 283.179,54.725 283.725 C 54.647 284.270,54.270 284.647,53.725 284.725 C 53.179 284.802,52.802 285.179,52.725 285.725 C 52.647 286.270,52.270 286.647,51.725 286.725 C 51.179 286.802,50.802 287.179,50.725 287.725 C 50.647 288.270,50.270 288.647,49.725 288.725 C 49.179 288.802,48.802 289.179,48.725 289.725 C 48.647 290.270,48.270 290.647,47.725 290.725 C 47.179 290.802,46.802 291.179,46.725 291.725 C 46.647 292.270,46.270 292.647,45.725 292.725 C 45.179 292.802,44.802 293.179,44.725 293.725 C 44.647 294.270,44.270 294.647,43.725 294.725 C 43.179 294.802,42.802 295.179,42.725 295.725 C 42.646 296.279,42.270 296.647,41.700 296.728 C 41.057 296.819,40.800 297.125,40.800 297.798 C 40.800 298.360,40.517 298.815,40.100 298.924 C 39.535 299.072,39.523 299.116,40.036 299.154 C 40.385 299.179,40.877 299.650,41.127 300.200 C 41.378 300.750,41.828 301.200,42.127 301.200 C 42.427 301.200,42.877 301.650,43.127 302.200 C 43.378 302.750,43.828 303.200,44.127 303.200 C 44.427 303.200,44.877 303.650,45.127 304.200 C 45.378 304.750,45.828 305.200,46.127 305.200 C 46.427 305.200,46.877 305.650,47.127 306.200 C 47.378 306.750,47.828 307.200,48.127 307.200 C 48.427 307.200,48.877 307.650,49.127 308.200 C 49.378 308.750,49.857 309.200,50.191 309.200 C 50.531 309.200,50.800 309.550,50.800 309.992 C 50.800 310.493,51.150 310.873,51.750 311.023 C 52.272 311.154,52.898 311.698,53.141 312.231 C 53.384 312.764,53.828 313.200,54.127 313.200 C 54.427 313.200,54.877 313.650,55.127 314.200 C 55.378 314.750,55.828 315.200,56.127 315.200 C 56.427 315.200,56.877 315.650,57.127 316.200 C 57.378 316.750,57.828 317.200,58.127 317.200 C 58.738 317.200,59.600 318.838,59.600 320.000 C 59.600 321.162,58.738 322.800,58.127 322.800 C 57.828 322.800,57.378 323.250,57.127 323.800 C 56.877 324.350,56.360 324.800,55.979 324.800 C 55.574 324.800,55.183 325.215,55.036 325.800 C 54.880 326.421,54.501 326.800,54.036 326.800 C 53.576 326.800,53.192 327.176,53.043 327.772 C 52.890 328.379,52.460 328.793,51.899 328.872 C 51.322 328.954,50.954 329.322,50.872 329.900 C 50.793 330.457,50.467 330.800,50.016 330.800 C 49.572 330.800,49.189 331.191,49.036 331.800 C 48.880 332.421,48.501 332.800,48.036 332.800 C 47.570 332.800,47.192 333.179,47.036 333.800 C 46.880 334.421,46.501 334.800,46.036 334.800 C 45.570 334.800,45.192 335.179,45.036 335.800 C 44.880 336.421,44.501 336.800,44.036 336.800 C 43.570 336.800,43.192 337.179,43.036 337.800 C 42.880 338.421,42.501 338.800,42.036 338.800 C 41.570 338.800,41.192 339.179,41.036 339.800 C 40.891 340.377,40.492 340.805,40.092 340.812 C 39.441 340.824,39.441 340.848,40.100 341.232 C 40.485 341.456,40.800 341.978,40.800 342.392 C 40.800 342.868,41.131 343.191,41.700 343.272 C 42.270 343.353,42.646 343.721,42.725 344.275 C 42.802 344.821,43.179 345.198,43.725 345.275 C 44.270 345.353,44.647 345.730,44.725 346.275 C 44.802 346.821,45.179 347.198,45.725 347.275 C 46.270 347.353,46.647 347.730,46.725 348.275 C 46.802 348.821,47.179 349.198,47.725 349.275 C 48.270 349.353,48.647 349.730,48.725 350.275 C 48.802 350.821,49.179 351.198,49.725 351.275 C 50.270 351.353,50.647 351.730,50.725 352.275 C 50.802 352.821,51.179 353.198,51.725 353.275 C 52.270 353.353,52.647 353.730,52.725 354.275 C 52.802 354.821,53.179 355.198,53.725 355.275 C 54.270 355.353,54.647 355.730,54.725 356.275 C 54.802 356.821,55.179 357.198,55.725 357.275 C 56.279 357.354,56.647 357.730,56.728 358.300 C 56.808 358.867,57.132 359.200,57.604 359.200 C 58.016 359.200,58.457 359.369,58.585 359.576 C 58.890 360.069,61.194 358.759,61.197 358.091 C 61.199 357.812,61.650 357.378,62.200 357.127 C 62.750 356.877,63.200 356.427,63.200 356.127 C 63.200 355.828,63.650 355.378,64.200 355.127 C 64.750 354.877,65.200 354.427,65.200 354.127 C 65.200 353.828,65.650 353.378,66.200 353.127 C 66.750 352.877,67.200 352.427,67.200 352.127 C 67.200 351.828,67.650 351.378,68.200 351.127 C 68.750 350.877,69.200 350.427,69.200 350.127 C 69.200 349.828,69.650 349.378,70.200 349.127 C 70.750 348.877,71.200 348.427,71.200 348.127 C 71.200 347.828,71.650 347.378,72.200 347.127 C 72.750 346.877,73.200 346.427,73.200 346.127 C 73.200 345.828,73.650 345.378,74.200 345.127 C 74.750 344.877,75.200 344.427,75.200 344.127 C 75.200 343.828,75.650 343.378,76.200 343.127 C 76.750 342.877,77.200 342.435,77.200 342.146 C 77.200 340.001,82.183 340.130,83.172 342.300 C 83.398 342.795,83.828 343.200,84.127 343.200 C 84.427 343.200,84.877 343.650,85.127 344.200 C 85.378 344.750,85.828 345.200,86.127 345.200 C 86.427 345.200,86.877 345.650,87.127 346.200 C 87.378 346.750,87.828 347.200,88.127 347.200 C 88.427 347.200,88.877 347.650,89.127 348.200 C 89.378 348.750,89.828 349.200,90.127 349.200 C 90.427 349.200,90.877 349.650,91.127 350.200 C 91.378 350.750,91.828 351.200,92.127 351.200 C 92.427 351.200,92.877 351.650,93.127 352.200 C 93.378 352.750,93.828 353.200,94.127 353.200 C 94.427 353.200,94.877 353.650,95.127 354.200 C 95.378 354.750,95.828 355.200,96.127 355.200 C 96.427 355.200,96.877 355.650,97.127 356.200 C 97.378 356.750,97.828 357.200,98.127 357.200 C 98.427 357.200,98.877 357.650,99.127 358.200 C 99.378 358.750,99.857 359.200,100.191 359.200 C 100.526 359.200,100.800 359.416,100.800 359.680 C 100.800 360.053,100.907 360.053,101.280 359.680 C 101.544 359.416,102.063 359.200,102.433 359.200 C 102.804 359.200,103.204 358.827,103.324 358.370 C 103.443 357.914,103.897 357.447,104.333 357.333 C 104.769 357.219,105.219 356.769,105.333 356.333 C 105.447 355.897,105.897 355.447,106.333 355.333 C 106.769 355.219,107.219 354.769,107.333 354.333 C 107.447 353.897,107.897 353.447,108.333 353.333 C 108.769 353.219,109.219 352.769,109.333 352.333 C 109.447 351.897,109.897 351.447,110.333 351.333 C 110.769 351.219,111.219 350.769,111.333 350.333 C 111.447 349.897,111.897 349.447,112.333 349.333 C 112.769 349.219,113.219 348.769,113.333 348.333 C 113.447 347.897,113.897 347.447,114.333 347.333 C 114.769 347.219,115.219 346.769,115.333 346.333 C 115.447 345.897,115.897 345.447,116.333 345.333 C 116.769 345.219,117.219 344.769,117.333 344.333 C 117.447 343.897,117.914 343.443,118.370 343.324 C 118.829 343.204,119.200 342.779,119.200 342.373 C 119.200 341.970,119.515 341.456,119.900 341.232 C 120.538 340.861,120.540 340.823,119.928 340.812 C 119.540 340.805,119.202 340.419,119.128 339.900 C 119.047 339.330,118.679 338.954,118.125 338.875 C 117.579 338.798,117.202 338.421,117.125 337.875 C 117.048 337.335,116.670 336.953,116.138 336.877 C 115.613 336.802,115.179 336.372,115.030 335.777 C 114.879 335.176,114.496 334.800,114.036 334.800 C 113.570 334.800,113.192 334.421,113.036 333.800 C 112.880 333.179,112.501 332.800,112.036 332.800 C 111.570 332.800,111.192 332.421,111.036 331.800 C 110.880 331.179,110.501 330.800,110.036 330.800 C 109.570 330.800,109.192 330.421,109.036 329.800 C 108.880 329.179,108.501 328.800,108.036 328.800 C 107.570 328.800,107.192 328.421,107.036 327.800 C 106.880 327.179,106.501 326.800,106.036 326.800 C 105.570 326.800,105.192 326.421,105.036 325.800 C 104.880 325.181,104.501 324.800,104.039 324.800 C 103.621 324.800,103.198 324.436,103.076 323.970 C 102.957 323.514,102.531 323.055,102.130 322.950 C 100.889 322.625,99.663 318.800,100.800 318.800 C 101.020 318.800,101.200 318.526,101.200 318.191 C 101.200 317.857,101.650 317.378,102.200 317.127 C 102.750 316.877,103.200 316.427,103.200 316.127 C 103.200 315.828,103.650 315.378,104.200 315.127 C 104.750 314.877,105.200 314.427,105.200 314.127 C 105.200 313.828,105.650 313.378,106.200 313.127 C 106.750 312.877,107.200 312.427,107.200 312.127 C 107.200 311.828,107.650 311.378,108.200 311.127 C 108.750 310.877,109.200 310.427,109.200 310.127 C 109.200 309.828,109.650 309.378,110.200 309.127 C 110.750 308.877,111.200 308.427,111.200 308.127 C 111.200 307.828,111.650 307.378,112.200 307.127 C 112.750 306.877,113.200 306.427,113.200 306.127 C 113.200 305.828,113.650 305.378,114.200 305.127 C 114.750 304.877,115.200 304.427,115.200 304.127 C 115.200 303.828,115.650 303.378,116.200 303.127 C 116.750 302.877,117.200 302.427,117.200 302.127 C 117.200 301.828,117.650 301.378,118.200 301.127 C 118.750 300.877,119.200 300.439,119.200 300.156 C 119.200 299.872,119.490 299.478,119.844 299.279 C 120.435 298.948,120.435 298.899,119.844 298.672 C 119.490 298.536,119.200 298.072,119.200 297.640 C 119.200 297.131,118.884 296.811,118.300 296.728 C 117.730 296.647,117.354 296.279,117.275 295.725 C 117.198 295.179,116.821 294.802,116.275 294.725 C 115.730 294.647,115.353 294.270,115.275 293.725 C 115.198 293.179,114.821 292.802,114.275 292.725 C 113.730 292.647,113.353 292.270,113.275 291.725 C 113.198 291.179,112.821 290.802,112.275 290.725 C 111.730 290.647,111.353 290.270,111.275 289.725 C 111.198 289.179,110.821 288.802,110.275 288.725 C 109.730 288.647,109.353 288.270,109.275 287.725 C 109.198 287.179,108.821 286.802,108.275 286.725 C 107.730 286.647,107.353 286.270,107.275 285.725 C 107.198 285.179,106.821 284.802,106.275 284.725 C 105.730 284.647,105.353 284.270,105.275 283.725 C 105.198 283.179,104.821 282.802,104.275 282.725 C 103.737 282.648,103.353 282.270,103.278 281.742 C 103.044 280.105,99.440 280.188,99.026 281.840 C 98.879 282.426,98.493 282.800,98.036 282.800 C 97.570 282.800,97.192 283.179,97.036 283.800 C 96.880 284.421,96.501 284.800,96.036 284.800 C 95.570 284.800,95.192 285.179,95.036 285.800 C 94.880 286.421,94.501 286.800,94.036 286.800 C 93.570 286.800,93.192 287.179,93.036 287.800 C 92.880 288.421,92.501 288.800,92.036 288.800 C 91.570 288.800,91.192 289.179,91.036 289.800 C 90.880 290.421,90.501 290.800,90.036 290.800 C 89.570 290.800,89.192 291.179,89.036 291.800 C 88.880 292.421,88.501 292.800,88.036 292.800 C 87.570 292.800,87.192 293.179,87.036 293.800 C 86.898 294.350,86.514 294.800,86.184 294.800 C 85.853 294.800,85.378 295.250,85.127 295.800 C 84.877 296.350,84.427 296.800,84.127 296.800 C 83.828 296.800,83.398 297.205,83.172 297.700 C 82.513 299.146,79.611 300.189,79.000 299.200 C 78.864 298.980,78.416 298.800,78.004 298.800 C 77.532 298.800,77.208 298.467,77.128 297.900 C 77.047 297.330,76.679 296.954,76.125 296.875 C 75.579 296.798,75.202 296.421,75.125 295.875 C 75.047 295.330,74.670 294.953,74.125 294.875 C 73.579 294.798,73.202 294.421,73.125 293.875 C 73.047 293.330,72.670 292.953,72.125 292.875 C 71.579 292.798,71.202 292.421,71.125 291.875 C 71.047 291.330,70.670 290.953,70.125 290.875 C 69.579 290.798,69.202 290.421,69.125 289.875 C 69.047 289.330,68.670 288.953,68.125 288.875 C 67.579 288.798,67.202 288.421,67.125 287.875 C 67.047 287.330,66.670 286.953,66.125 286.875 C 65.579 286.798,65.202 286.421,65.125 285.875 C 65.047 285.330,64.670 284.953,64.125 284.875 C 63.579 284.798,63.202 284.421,63.125 283.875 C 63.047 283.330,62.670 282.953,62.125 282.875 C 61.581 282.798,61.202 282.421,61.125 281.879 C 61.054 281.384,60.655 280.943,60.200 280.858 C 59.760 280.775,59.268 280.503,59.106 280.254 C 58.896 279.929,58.811 279.942,58.806 280.300 M350.400 281.409 C 350.400 281.743,349.950 282.222,349.400 282.473 C 348.850 282.723,348.400 283.173,348.400 283.473 C 348.400 283.772,347.950 284.222,347.400 284.473 C 346.850 284.723,346.400 285.173,346.400 285.473 C 346.400 285.772,345.950 286.222,345.400 286.473 C 344.850 286.723,344.400 287.173,344.400 287.473 C 344.400 287.772,343.950 288.222,343.400 288.473 C 342.850 288.723,342.400 289.173,342.400 289.473 C 342.400 289.772,341.950 290.222,341.400 290.473 C 340.850 290.723,340.400 291.173,340.400 291.473 C 340.400 291.772,339.950 292.222,339.400 292.473 C 338.850 292.723,338.400 293.173,338.400 293.473 C 338.400 293.772,337.950 294.222,337.400 294.473 C 336.850 294.723,336.400 295.173,336.400 295.473 C 336.400 295.772,335.950 296.222,335.400 296.473 C 334.850 296.723,334.400 297.173,334.400 297.473 C 334.400 297.772,333.950 298.222,333.400 298.473 C 332.850 298.723,332.400 299.173,332.400 299.473 C 332.400 299.772,331.950 300.222,331.400 300.473 C 330.850 300.723,330.400 301.173,330.400 301.473 C 330.400 301.772,329.950 302.222,329.400 302.473 C 328.850 302.723,328.400 303.173,328.400 303.473 C 328.400 303.772,327.950 304.222,327.400 304.473 C 326.850 304.723,326.400 305.173,326.400 305.473 C 326.400 305.772,325.950 306.222,325.400 306.473 C 324.850 306.723,324.400 307.173,324.400 307.473 C 324.400 307.772,323.950 308.222,323.400 308.473 C 322.850 308.723,322.400 309.173,322.400 309.473 C 322.400 309.772,321.950 310.222,321.400 310.473 C 320.850 310.723,320.400 311.173,320.400 311.473 C 320.400 311.772,319.950 312.222,319.400 312.473 C 318.850 312.723,318.400 313.173,318.400 313.473 C 318.400 313.772,317.950 314.222,317.400 314.473 C 316.850 314.723,316.400 315.173,316.400 315.473 C 316.400 315.772,315.950 316.222,315.400 316.473 C 314.850 316.723,314.400 317.173,314.400 317.473 C 314.400 317.772,313.950 318.222,313.400 318.473 C 312.850 318.723,312.400 319.163,312.400 319.450 C 312.400 321.030,307.499 321.292,307.275 319.725 C 307.198 319.179,306.821 318.802,306.275 318.725 C 305.730 318.647,305.353 318.270,305.275 317.725 C 305.198 317.179,304.821 316.802,304.275 316.725 C 303.730 316.647,303.353 316.270,303.275 315.725 C 303.198 315.179,302.821 314.802,302.275 314.725 C 301.730 314.647,301.353 314.270,301.275 313.725 C 301.198 313.179,300.821 312.802,300.275 312.725 C 299.730 312.647,299.353 312.270,299.275 311.725 C 299.198 311.179,298.821 310.802,298.275 310.725 C 297.730 310.647,297.353 310.270,297.275 309.725 C 297.198 309.179,296.821 308.802,296.275 308.725 C 295.730 308.647,295.353 308.270,295.275 307.725 C 295.198 307.179,294.821 306.802,294.275 306.725 C 293.730 306.647,293.353 306.270,293.275 305.725 C 293.198 305.179,292.821 304.802,292.275 304.725 C 291.730 304.647,291.353 304.270,291.275 303.725 C 291.198 303.179,290.821 302.802,290.275 302.725 C 289.714 302.645,289.353 302.269,289.269 301.676 L 289.138 300.752 287.669 301.860 C 284.615 304.163,270.000 319.171,270.000 320.005 C 270.000 321.418,308.595 359.749,309.715 359.448 C 310.202 359.318,310.714 359.208,310.853 359.205 C 310.993 359.202,311.204 358.827,311.324 358.370 C 311.443 357.914,311.897 357.447,312.333 357.333 C 312.769 357.219,313.219 356.769,313.333 356.333 C 313.447 355.897,313.897 355.447,314.333 355.333 C 314.769 355.219,315.219 354.769,315.333 354.333 C 315.447 353.897,315.897 353.447,316.333 353.333 C 316.769 353.219,317.219 352.769,317.333 352.333 C 317.447 351.897,317.897 351.447,318.333 351.333 C 318.769 351.219,319.219 350.769,319.333 350.333 C 319.447 349.897,319.897 349.447,320.333 349.333 C 320.769 349.219,321.219 348.769,321.333 348.333 C 321.447 347.897,321.897 347.447,322.333 347.333 C 322.769 347.219,323.219 346.769,323.333 346.333 C 323.447 345.897,323.897 345.447,324.333 345.333 C 324.769 345.219,325.219 344.769,325.333 344.333 C 325.447 343.897,325.897 343.447,326.333 343.333 C 326.769 343.219,327.219 342.769,327.333 342.333 C 327.447 341.897,327.897 341.447,328.333 341.333 C 328.769 341.219,329.219 340.769,329.333 340.333 C 329.447 339.897,329.897 339.447,330.333 339.333 C 330.769 339.219,331.219 338.769,331.333 338.333 C 331.447 337.897,331.897 337.447,332.333 337.333 C 332.769 337.219,333.219 336.769,333.333 336.333 C 333.447 335.897,333.897 335.447,334.333 335.333 C 334.769 335.219,335.219 334.769,335.333 334.333 C 335.447 333.897,335.897 333.447,336.333 333.333 C 336.769 333.219,337.219 332.769,337.333 332.333 C 337.447 331.897,337.897 331.447,338.333 331.333 C 338.769 331.219,339.219 330.769,339.333 330.333 C 339.447 329.897,339.897 329.447,340.333 329.333 C 340.769 329.219,341.219 328.769,341.333 328.333 C 341.447 327.897,341.897 327.447,342.333 327.333 C 342.769 327.219,343.219 326.769,343.333 326.333 C 343.447 325.897,343.897 325.447,344.333 325.333 C 344.769 325.219,345.219 324.769,345.333 324.333 C 345.447 323.897,345.897 323.447,346.333 323.333 C 346.769 323.219,347.219 322.769,347.333 322.333 C 347.447 321.897,347.897 321.447,348.333 321.333 C 348.769 321.219,349.219 320.769,349.333 320.333 C 349.447 319.897,349.897 319.447,350.333 319.333 C 350.769 319.219,351.219 318.769,351.333 318.333 C 351.447 317.897,351.897 317.447,352.333 317.333 C 352.769 317.219,353.219 316.769,353.333 316.333 C 353.447 315.897,353.897 315.447,354.333 315.333 C 354.769 315.219,355.219 314.769,355.333 314.333 C 355.447 313.897,355.897 313.447,356.333 313.333 C 356.769 313.219,357.219 312.769,357.333 312.333 C 357.447 311.897,357.897 311.447,358.333 311.333 C 358.769 311.219,359.219 310.769,359.333 310.333 C 359.447 309.897,359.897 309.447,360.333 309.333 C 360.769 309.219,361.219 308.769,361.333 308.333 C 361.447 307.897,361.897 307.447,362.333 307.333 C 362.769 307.219,363.219 306.769,363.333 306.333 C 363.447 305.897,363.897 305.447,364.333 305.333 C 364.769 305.219,365.219 304.769,365.333 304.333 C 365.447 303.897,365.897 303.447,366.333 303.333 C 366.769 303.219,367.219 302.769,367.333 302.333 C 367.447 301.897,367.897 301.447,368.333 301.333 C 368.769 301.219,369.216 300.783,369.325 300.364 C 369.435 299.945,369.944 299.447,370.456 299.258 L 371.387 298.913 370.493 298.630 C 370.002 298.474,369.600 298.084,369.600 297.764 C 369.600 297.445,369.150 296.978,368.600 296.727 C 368.050 296.477,367.600 296.027,367.600 295.727 C 367.600 295.428,367.150 294.978,366.600 294.727 C 366.050 294.477,365.600 294.027,365.600 293.727 C 365.600 293.428,365.150 292.978,364.600 292.727 C 364.050 292.477,363.600 292.027,363.600 291.727 C 363.600 291.428,363.150 290.978,362.600 290.727 C 362.050 290.477,361.600 290.027,361.600 289.727 C 361.600 289.428,361.150 288.978,360.600 288.727 C 360.050 288.477,359.600 288.027,359.600 287.727 C 359.600 287.428,359.150 286.978,358.600 286.727 C 358.050 286.477,357.600 286.027,357.600 285.727 C 357.600 285.428,357.150 284.978,356.600 284.727 C 356.050 284.477,355.600 284.027,355.600 283.727 C 355.600 283.428,355.165 282.985,354.634 282.743 C 354.103 282.501,353.579 281.964,353.471 281.551 C 353.217 280.577,350.400 280.447,350.400 281.409 " stroke="#000000" fill="none" stroke-width="3" class="YAQVhVmd_0"></path><path id="path1" d="" stroke="#000000" fill="none" stroke-width="3" class="YAQVhVmd_1"></path></g><style data-made-with="vivus-instant">.YAQVhVmd_0{stroke-dasharray:2012 2014;stroke-dashoffset:2013;animation:YAQVhVmd_draw_0 4500ms linear 0ms infinite,YAQVhVmd_fade 4500ms linear 0ms infinite;}.YAQVhVmd_1{stroke-dasharray:0 2;stroke-dashoffset:1;animation:YAQVhVmd_draw_1 4500ms linear 0ms infinite,YAQVhVmd_fade 4500ms linear 0ms infinite;}@keyframes YAQVhVmd_draw{100%{stroke-dashoffset:0;}}@keyframes YAQVhVmd_fade{0%{stroke-opacity:1;}91.11111111111111%{stroke-opacity:1;}100%{stroke-opacity:0;}}@keyframes YAQVhVmd_draw_0{6.666666666666667%{stroke-dashoffset: 2013}73.33333333333333%{ stroke-dashoffset: 0;}100%{ stroke-dashoffset: 0;}}@keyframes YAQVhVmd_draw_1{6.666666666666667%{stroke-dashoffset: 1}73.33333333333333%{ stroke-dashoffset: 0;}100%{ stroke-dashoffset: 0;}}</style></svg>
