<svg id="svg" version="1.1" width="400" height="250" xmlns="http://www.w3.org/2000/svg" xmlns:xlink="http://www.w3.org/1999/xlink" style=""><g id="svgg"><path id="path0" d="M47.727 22.727 L 46.500 23.955 46.500 39.477 C 46.500 56.614,46.431 56.238,49.803 57.520 C 50.566 57.810,65.145 58.000,86.709 58.000 L 122.352 58.000 124.051 56.855 L 125.750 55.711 125.882 39.647 L 126.014 23.583 124.689 22.542 C 123.374 21.507,123.104 21.500,86.160 21.500 L 48.955 21.500 47.727 22.727 M275.727 22.727 L 274.500 23.955 274.500 39.366 C 274.500 56.144,274.519 56.265,277.357 57.441 C 278.382 57.865,288.356 57.984,314.752 57.885 L 350.750 57.750 352.375 56.591 L 354.000 55.432 354.000 39.693 L 354.000 23.955 352.773 22.727 L 351.545 21.500 314.250 21.500 L 276.955 21.500 275.727 22.727 M80.500 77.750 L 80.500 94.000 86.250 94.000 L 92.000 94.000 92.000 77.750 L 92.000 61.500 86.250 61.500 L 80.500 61.500 80.500 77.750 M309.000 70.484 L 309.000 79.500 315.012 79.500 L 321.023 79.500 320.887 70.625 L 320.750 61.750 314.875 61.609 L 309.000 61.468 309.000 70.484 M283.674 82.764 C 283.566 83.047,283.539 87.772,283.614 93.264 L 283.750 103.250 314.875 103.379 L 346.000 103.508 346.000 93.004 L 346.000 82.500 342.750 82.500 C 340.962 82.500,339.331 82.495,339.125 82.490 C 338.919 82.484,338.680 83.271,338.595 84.240 L 338.440 86.000 335.220 86.000 L 332.000 86.000 332.000 84.250 L 332.000 82.500 329.291 82.500 C 327.801 82.500,326.226 82.363,325.791 82.197 C 325.149 81.950,325.000 82.279,325.000 83.947 L 325.000 86.000 321.500 86.000 L 318.000 86.000 318.000 83.947 C 318.000 82.279,317.851 81.950,317.209 82.197 C 316.774 82.363,315.312 82.500,313.959 82.500 L 311.500 82.500 311.500 84.250 L 311.500 86.000 308.030 86.000 L 304.560 86.000 304.405 84.197 L 304.250 82.395 301.000 82.347 L 297.750 82.299 297.595 84.150 L 297.440 86.000 294.220 86.000 L 291.000 86.000 291.000 84.291 L 291.000 82.582 287.435 82.416 C 285.300 82.317,283.792 82.456,283.674 82.764 M244.628 95.625 C 244.357 95.969,244.042 96.550,243.928 96.917 C 243.758 97.468,230.618 101.194,222.500 102.992 C 221.537 103.205,217.150 104.333,212.750 105.499 C 208.350 106.665,203.850 107.800,202.750 108.022 C 201.650 108.244,200.131 108.662,199.375 108.951 L 198.000 109.475 198.000 115.718 L 198.000 121.960 199.875 122.481 C 200.906 122.767,203.100 123.314,204.750 123.697 C 206.400 124.080,212.700 125.686,218.750 127.266 C 224.800 128.847,230.988 130.427,232.500 130.778 C 241.297 132.820,243.960 133.729,244.105 134.741 C 244.278 135.948,272.905 136.616,274.315 135.446 C 275.570 134.405,275.300 96.196,274.033 95.518 C 272.543 94.720,245.265 94.820,244.628 95.625 M72.254 97.628 C 67.945 100.040,68.150 133.907,72.474 134.013 C 72.764 134.020,79.016 134.032,86.369 134.039 L 99.738 134.052 100.125 132.559 C 100.474 131.211,101.505 130.573,110.756 125.985 L 121.000 120.904 121.000 115.752 L 121.000 110.599 110.759 105.528 C 101.479 100.934,100.481 100.317,100.128 98.954 L 99.738 97.450 86.334 97.350 C 78.961 97.295,72.625 97.420,72.254 97.628 M287.000 115.500 L 287.000 126.000 314.750 126.000 L 342.500 126.000 342.500 115.500 L 342.500 105.000 314.750 105.000 L 287.000 105.000 287.000 115.500 M125.500 115.750 L 125.500 121.000 159.250 121.000 L 193.000 121.000 193.000 115.750 L 193.000 110.500 159.250 110.500 L 125.500 110.500 125.500 115.750 M276.000 115.750 L 276.000 121.000 280.750 121.000 L 285.500 121.000 285.500 115.750 L 285.500 110.500 280.750 110.500 L 276.000 110.500 276.000 115.750 M336.273 113.227 C 338.632 115.587,336.902 119.500,333.500 119.500 C 331.580 119.500,329.500 117.550,329.500 115.750 C 329.500 113.950,331.580 112.000,333.500 112.000 C 334.474 112.000,335.499 112.454,336.273 113.227 M283.500 138.417 C 283.500 150.548,283.034 149.291,287.456 149.084 L 291.000 148.918 291.000 147.209 L 291.000 145.500 294.220 145.500 L 297.440 145.500 297.595 147.350 L 297.750 149.201 301.000 149.153 L 304.250 149.105 304.405 147.303 L 304.560 145.500 308.030 145.500 L 311.500 145.500 311.500 147.250 L 311.500 149.000 313.959 149.000 C 315.312 149.000,316.774 149.137,317.209 149.303 C 317.851 149.550,318.000 149.221,318.000 147.553 L 318.000 145.500 321.500 145.500 L 325.000 145.500 325.000 147.553 C 325.000 149.221,325.149 149.550,325.791 149.303 C 326.226 149.137,327.801 149.000,329.291 149.000 L 332.000 149.000 332.000 147.250 L 332.000 145.500 335.220 145.500 L 338.440 145.500 338.595 147.260 C 338.680 148.229,338.919 149.016,339.125 149.010 C 339.331 149.005,340.962 149.000,342.750 149.000 L 346.000 149.000 346.000 138.500 L 346.000 128.000 314.750 128.000 L 283.500 128.000 283.500 138.417 M86.125 137.873 L 80.500 138.033 80.500 154.016 L 80.500 170.000 86.250 170.000 L 92.000 170.000 92.000 153.750 C 92.000 144.813,91.944 137.548,91.875 137.607 C 91.806 137.666,89.219 137.786,86.125 137.873 M309.000 161.000 L 309.000 170.032 314.875 169.891 L 320.750 169.750 320.750 161.000 L 320.750 152.250 314.875 152.109 L 309.000 151.968 309.000 161.000 M50.166 173.847 C 49.570 173.964,48.502 174.597,47.791 175.255 L 46.500 176.452 46.500 191.865 C 46.500 205.005,46.615 207.441,47.278 208.389 L 48.057 209.500 38.305 209.500 L 28.554 209.500 29.333 212.125 C 30.901 217.412,33.614 221.437,36.542 222.821 C 44.690 226.674,48.468 226.991,86.250 226.991 C 119.623 226.991,127.157 226.583,131.814 224.523 C 133.086 223.961,134.328 223.500,134.574 223.500 C 137.435 223.500,142.031 217.126,143.498 211.125 L 143.895 209.500 134.120 209.500 C 124.682 209.500,124.374 209.468,125.173 208.586 C 126.183 207.469,126.444 177.764,125.460 175.925 C 124.167 173.509,123.937 173.495,86.391 173.568 C 67.063 173.606,50.762 173.731,50.166 173.847 M278.166 173.847 C 277.570 173.964,276.502 174.597,275.791 175.255 L 274.500 176.452 274.500 191.865 C 274.500 205.005,274.615 207.441,275.278 208.389 L 276.057 209.500 266.331 209.500 L 256.605 209.500 257.002 211.125 C 258.474 217.149,263.066 223.500,265.948 223.500 C 266.206 223.500,267.504 223.967,268.834 224.537 C 273.636 226.598,280.916 226.991,314.250 226.991 C 352.042 226.991,355.755 226.680,363.966 222.821 C 366.919 221.434,369.642 217.396,371.180 212.125 L 371.946 209.500 362.195 209.500 L 352.443 209.500 353.222 208.389 C 353.885 207.441,354.000 205.005,354.000 191.865 L 354.000 176.452 352.743 175.287 C 352.051 174.646,350.786 173.982,349.930 173.811 C 348.228 173.471,279.922 173.505,278.166 173.847 " stroke="#000000" fill="none" stroke-width="3" class="VBqTLqSn_0"></path></g><style data-made-with="vivus-instant">.VBqTLqSn_0{stroke-dasharray:2507 2509;stroke-dashoffset:2508;animation:VBqTLqSn_draw_0 4500ms linear 0ms infinite,VBqTLqSn_fade 4500ms linear 0ms infinite;}@keyframes VBqTLqSn_draw{100%{stroke-dashoffset:0;}}@keyframes VBqTLqSn_fade{0%{stroke-opacity:1;}91.11111111111111%{stroke-opacity:1;}100%{stroke-opacity:0;}}@keyframes VBqTLqSn_draw_0{6.666666666666667%{stroke-dashoffset: 2508}73.33333333333333%{ stroke-dashoffset: 0;}100%{ stroke-dashoffset: 0;}}</style></svg>
