<svg id="svg" version="1.1" width="400" height="400" xmlns="http://www.w3.org/2000/svg" xmlns:xlink="http://www.w3.org/1999/xlink" style=""><g id="svgg"><path id="path0" d="M351.021 14.295 C 342.453 17.214,336.960 21.535,334.198 27.529 L 332.670 30.846 332.497 180.597 C 332.402 262.960,332.505 330.348,332.726 330.348 C 332.948 330.348,333.972 329.748,335.003 329.014 C 350.381 318.063,374.595 318.123,390.216 329.151 L 392.040 330.439 392.011 180.642 C 391.987 57.234,391.825 30.407,391.093 28.357 C 386.803 16.335,366.228 9.115,351.021 14.295 M15.416 71.864 C 12.082 73.073,8.914 75.929,7.371 79.117 L 5.970 82.011 5.985 227.904 C 6.001 391.660,5.524 376.578,10.830 381.236 C 15.110 384.994,5.306 384.815,195.688 384.606 L 373.134 384.411 377.114 382.460 C 387.461 377.387,391.581 370.079,391.907 356.219 L 392.134 346.600 388.936 343.489 C 372.886 327.874,345.797 329.577,333.529 346.972 C 329.011 353.378,324.682 354.282,321.727 349.436 C 320.415 347.283,320.403 346.018,320.400 209.121 L 320.398 70.978 168.988 71.029 C 54.225 71.067,17.055 71.269,15.416 71.864 M164.378 105.760 C 165.363 106.282,171.689 112.252,178.434 119.027 L 190.700 131.343 220.319 131.343 L 249.939 131.343 250.381 129.519 C 255.015 110.378,284.764 110.783,290.174 130.060 C 296.558 152.804,264.310 166.644,252.377 146.281 L 250.620 143.284 220.329 143.284 L 190.037 143.284 177.115 156.219 C 159.596 173.755,162.078 173.801,143.954 155.600 L 131.688 143.284 103.005 143.284 L 74.322 143.284 73.038 145.771 C 63.465 164.319,34.377 156.977,34.377 136.013 C 34.377 113.010,67.142 106.590,74.780 128.095 L 75.933 131.343 103.783 131.343 L 131.634 131.343 144.958 118.076 C 159.365 103.732,159.907 103.388,164.378 105.760 M151.953 128.094 L 143.044 136.724 151.944 145.642 C 156.839 150.547,161.151 154.561,161.526 154.561 C 162.404 154.561,179.104 137.842,179.104 136.963 C 179.104 136.084,162.359 119.394,161.516 119.434 C 161.157 119.451,156.853 123.348,151.953 128.094 M52.711 126.735 C 49.732 127.612,47.052 130.743,46.638 133.830 C 45.297 143.829,59.569 148.123,63.430 138.882 C 66.417 131.734,60.090 124.565,52.711 126.735 M265.182 127.738 C 259.815 130.651,260.282 139.993,265.941 142.920 C 273.728 146.947,281.703 138.591,277.616 130.687 C 275.598 126.786,269.571 125.357,265.182 127.738 M295.803 205.366 L 297.844 207.083 297.844 235.158 L 297.844 263.232 295.803 264.949 L 293.762 266.667 163.432 266.667 C 19.998 266.667,30.117 266.971,28.596 262.608 C 27.308 258.912,27.604 211.614,28.936 208.284 C 30.929 203.303,19.186 203.704,163.631 203.675 L 293.762 203.648 295.803 205.366 M40.464 235.489 L 40.464 254.726 53.400 254.726 L 66.335 254.726 66.335 243.760 C 66.335 230.907,66.907 228.717,70.674 227.143 C 77.210 224.412,79.511 228.677,79.565 243.615 L 79.602 254.063 91.211 254.063 L 102.819 254.063 102.819 247.129 C 102.819 238.371,104.608 234.826,109.026 234.826 C 113.782 234.826,115.423 238.051,115.423 247.397 L 115.423 254.726 127.363 254.726 L 139.303 254.726 139.303 242.756 C 139.303 229.600,139.713 228.284,144.150 227.170 C 149.862 225.737,151.907 230.198,151.907 244.091 L 151.907 254.726 163.516 254.726 L 175.124 254.726 175.124 247.032 L 175.124 239.337 177.380 237.081 C 183.247 231.215,187.728 235.710,187.728 247.461 L 187.728 254.726 199.668 254.726 L 211.609 254.726 211.609 242.934 C 211.609 229.786,211.864 228.868,215.882 227.542 C 222.187 225.461,224.212 229.401,224.212 243.748 L 224.212 254.726 235.765 254.726 L 247.318 254.726 247.540 246.710 L 247.761 238.694 249.928 236.760 C 255.869 231.456,260.033 235.698,260.033 247.054 L 260.033 254.726 272.968 254.726 L 285.904 254.726 285.904 235.489 L 285.904 216.252 163.184 216.252 L 40.464 216.252 40.464 235.489 M296.560 303.648 C 298.914 304.842,300.847 306.466,302.152 308.347 L 304.146 311.221 304.347 326.049 C 304.568 342.419,304.318 343.685,300.061 347.726 C 295.717 351.849,304.418 351.575,177.415 351.575 L 61.587 351.575 46.216 343.364 C 37.762 338.848,29.037 334.245,26.826 333.136 C 17.912 328.664,18.391 324.834,28.524 319.561 C 31.625 317.947,39.237 313.968,45.439 310.718 C 51.642 307.468,58.209 304.150,60.033 303.343 L 63.350 301.877 178.156 301.851 L 292.963 301.824 296.560 303.648 M69.652 326.700 L 69.652 339.635 162.852 339.635 L 256.053 339.635 256.053 326.700 L 256.053 313.765 162.852 313.765 L 69.652 313.765 69.652 326.700 M267.993 326.715 L 267.993 339.665 280.100 339.484 L 292.206 339.303 292.387 327.450 C 292.616 312.485,293.819 313.765,279.521 313.765 L 267.993 313.765 267.993 326.715 M47.938 322.567 C 43.840 324.816,40.705 326.854,40.973 327.098 C 41.587 327.656,56.327 335.655,56.741 335.655 C 56.910 335.655,57.048 331.774,57.048 327.032 C 57.048 316.814,57.776 317.170,47.938 322.567 " stroke="#000000" fill="none" stroke-width="3" class="uZadnsAl_0"></path></g><style data-made-with="vivus-instant">.uZadnsAl_0{stroke-dasharray:5636 5638;stroke-dashoffset:5637;animation:uZadnsAl_draw_0 4500ms linear 0ms infinite,uZadnsAl_fade 4500ms linear 0ms infinite;}@keyframes uZadnsAl_draw{100%{stroke-dashoffset:0;}}@keyframes uZadnsAl_fade{0%{stroke-opacity:1;}91.11111111111111%{stroke-opacity:1;}100%{stroke-opacity:0;}}@keyframes uZadnsAl_draw_0{6.666666666666667%{stroke-dashoffset: 5637}73.33333333333333%{ stroke-dashoffset: 0;}100%{ stroke-dashoffset: 0;}}</style></svg>
