<svg id="svg" version="1.1" width="400" height="400" viewBox="0 0 400 400" xmlns="http://www.w3.org/2000/svg" xmlns:xlink="http://www.w3.org/1999/xlink" style=""><g id="svgg"><path id="path0" d="M114.800 77.999 C 114.470 78.213,113.356 78.391,112.324 78.394 C 111.292 78.397,110.336 78.580,110.200 78.800 C 110.064 79.020,109.423 79.200,108.776 79.200 C 108.129 79.200,107.600 79.380,107.600 79.600 C 107.600 79.820,107.240 80.000,106.800 80.000 C 106.360 80.000,106.000 80.180,106.000 80.400 C 106.000 80.620,105.640 80.800,105.200 80.800 C 104.760 80.800,104.400 80.980,104.400 81.200 C 104.400 81.420,104.040 81.600,103.600 81.600 C 103.160 81.600,102.800 81.750,102.800 81.932 C 102.800 82.115,102.308 82.520,101.706 82.832 C 99.138 84.165,94.205 90.077,93.746 92.371 C 93.611 93.047,93.343 93.600,93.150 93.600 C 92.958 93.600,92.800 93.960,92.800 94.400 C 92.800 94.840,92.620 95.200,92.400 95.200 C 92.180 95.200,92.000 95.830,92.000 96.600 C 92.000 97.370,91.820 98.000,91.600 98.000 C 91.371 98.000,91.200 99.200,91.200 100.800 C 91.200 102.400,91.029 103.600,90.800 103.600 C 90.536 103.600,90.400 119.925,90.400 151.776 C 90.400 183.463,90.537 200.037,90.800 200.200 C 91.020 200.336,91.200 201.697,91.200 203.224 C 91.200 204.808,91.372 206.000,91.600 206.000 C 91.820 206.000,92.000 206.630,92.000 207.400 C 92.000 208.170,92.180 208.800,92.400 208.800 C 92.620 208.800,92.800 209.160,92.800 209.600 C 92.800 210.040,92.980 210.400,93.200 210.400 C 93.420 210.400,93.600 210.695,93.600 211.056 C 93.600 213.132,100.516 221.600,102.211 221.600 C 102.535 221.600,102.800 221.780,102.800 222.000 C 102.800 222.220,103.083 222.400,103.429 222.400 C 103.774 222.400,104.336 222.679,104.677 223.020 C 105.018 223.360,105.815 223.743,106.448 223.870 C 107.082 223.996,107.600 224.243,107.600 224.418 C 107.600 224.593,108.815 224.849,110.300 224.987 C 111.785 225.125,113.313 225.409,113.695 225.619 C 114.095 225.839,119.975 226.000,127.576 226.000 L 140.764 226.000 140.966 224.700 C 141.078 223.985,141.234 221.375,141.314 218.900 L 141.460 214.400 128.954 214.400 C 121.047 214.400,116.356 214.253,116.200 214.000 C 116.064 213.780,115.331 213.600,114.571 213.600 C 113.811 213.600,112.877 213.440,112.495 213.244 C 112.113 213.049,111.140 212.566,110.334 212.172 C 108.426 211.239,105.200 208.267,105.200 207.443 C 105.200 207.090,105.041 206.800,104.847 206.800 C 104.652 206.800,104.389 206.485,104.261 206.100 C 104.133 205.715,103.755 204.680,103.420 203.800 C 102.681 201.855,102.466 101.454,103.200 101.000 C 103.420 100.864,103.600 100.439,103.600 100.056 C 103.600 99.181,104.499 97.207,104.900 97.203 C 105.065 97.201,105.200 96.952,105.200 96.648 C 105.200 96.124,107.337 93.762,109.097 92.341 C 109.545 91.979,110.470 91.560,111.152 91.411 C 111.833 91.261,112.494 90.972,112.619 90.769 C 112.745 90.566,113.636 90.400,114.600 90.400 C 115.564 90.400,116.464 90.220,116.600 90.000 C 116.942 89.446,283.058 89.446,283.400 90.000 C 283.536 90.220,284.336 90.400,285.178 90.400 C 286.020 90.400,287.224 90.669,287.854 90.998 C 288.484 91.326,289.315 91.596,289.700 91.598 C 290.085 91.599,290.400 91.780,290.400 92.000 C 290.400 92.220,290.670 92.400,291.000 92.400 C 291.330 92.400,291.600 92.580,291.600 92.800 C 291.600 93.020,291.793 93.200,292.029 93.200 C 293.022 93.200,295.108 96.434,296.750 100.519 C 297.292 101.866,297.402 202.395,296.863 203.505 C 296.678 203.887,296.095 205.100,295.569 206.200 C 294.645 208.130,294.356 208.578,293.319 209.686 C 292.323 210.750,291.646 211.165,287.505 213.250 C 287.123 213.443,286.189 213.600,285.429 213.600 C 284.669 213.600,283.936 213.780,283.800 214.000 C 283.638 214.263,268.129 214.400,238.576 214.400 L 193.600 214.400 193.602 216.300 C 193.603 217.345,193.720 219.955,193.862 222.100 L 194.121 226.000 240.260 226.000 C 265.637 226.000,286.400 225.846,286.400 225.658 C 286.400 225.470,287.689 225.208,289.265 225.076 C 290.841 224.944,292.236 224.675,292.365 224.479 C 292.494 224.283,293.082 224.005,293.672 223.861 C 294.262 223.717,295.014 223.329,295.343 222.999 C 295.673 222.670,296.226 222.400,296.571 222.400 C 296.917 222.400,297.200 222.220,297.200 222.000 C 297.200 221.780,297.465 221.600,297.789 221.600 C 298.521 221.600,304.664 215.458,305.005 214.385 C 305.142 213.953,305.422 213.600,305.627 213.600 C 305.832 213.600,306.000 213.240,306.000 212.800 C 306.000 212.360,306.180 212.000,306.400 212.000 C 306.620 212.000,306.800 211.640,306.800 211.200 C 306.800 210.760,306.936 210.400,307.103 210.400 C 307.691 210.400,308.515 206.958,308.706 203.700 C 308.813 201.885,309.058 200.400,309.250 200.400 C 309.448 200.400,309.600 179.374,309.600 152.000 C 309.600 125.196,309.446 103.600,309.255 103.600 C 309.066 103.600,308.818 101.966,308.704 99.968 C 308.590 97.971,308.295 96.135,308.048 95.888 C 307.802 95.642,307.600 95.026,307.600 94.520 C 307.600 94.014,307.420 93.600,307.200 93.600 C 306.980 93.600,306.800 93.240,306.800 92.800 C 306.800 92.360,306.620 92.000,306.400 92.000 C 306.180 92.000,306.000 91.640,306.000 91.200 C 306.000 90.760,305.859 90.400,305.686 90.400 C 305.514 90.400,305.044 89.843,304.642 89.163 C 303.654 87.490,299.058 82.936,298.029 82.609 C 297.573 82.464,297.200 82.178,297.200 81.973 C 297.200 81.768,296.840 81.600,296.400 81.600 C 295.960 81.600,295.600 81.420,295.600 81.200 C 295.600 80.980,295.240 80.800,294.800 80.800 C 294.360 80.800,294.000 80.620,294.000 80.400 C 294.000 80.180,293.640 80.000,293.200 80.000 C 292.760 80.000,292.400 79.820,292.400 79.600 C 292.400 79.380,291.896 79.200,291.280 79.200 C 290.664 79.200,289.989 79.037,289.780 78.837 C 289.571 78.637,288.410 78.345,287.200 78.187 C 283.696 77.730,115.498 77.547,114.800 77.999 M162.800 104.800 C 162.800 105.020,162.260 105.200,161.600 105.200 C 160.940 105.200,160.400 105.380,160.400 105.600 C 160.400 105.820,160.130 106.000,159.800 106.000 C 159.470 106.000,159.200 106.180,159.200 106.400 C 159.200 106.620,158.926 106.800,158.591 106.800 C 157.751 106.800,153.860 110.765,153.169 112.324 C 152.859 113.026,152.469 113.600,152.302 113.600 C 152.136 113.600,152.000 114.140,152.000 114.800 C 152.000 115.460,151.820 116.000,151.600 116.000 C 151.357 116.000,151.200 117.800,151.200 120.600 C 151.200 123.400,151.357 125.200,151.600 125.200 C 151.820 125.200,152.000 125.740,152.000 126.400 C 152.000 127.060,152.180 127.600,152.400 127.600 C 152.620 127.600,152.800 127.960,152.800 128.400 C 152.800 128.840,152.980 129.200,153.200 129.200 C 153.420 129.200,153.600 129.560,153.600 130.000 C 153.600 130.440,153.780 130.800,154.000 130.800 C 154.220 130.800,154.400 131.094,154.400 131.453 C 154.400 131.812,154.717 132.397,155.104 132.753 C 155.492 133.109,156.311 134.075,156.925 134.900 C 157.539 135.725,158.235 136.400,158.473 136.400 C 158.711 136.400,159.197 136.724,159.553 137.120 C 159.909 137.517,160.886 138.160,161.723 138.550 C 164.000 139.610,163.399 140.182,159.868 140.317 C 158.181 140.381,156.800 140.606,156.800 140.817 C 156.800 141.028,155.900 141.200,154.800 141.200 C 153.700 141.200,152.800 141.380,152.800 141.600 C 152.800 141.820,152.091 142.000,151.224 142.000 C 150.357 142.000,149.536 142.180,149.400 142.400 C 149.264 142.620,148.533 142.800,147.776 142.800 C 147.019 142.800,146.400 142.956,146.400 143.146 C 146.400 143.336,145.553 143.607,144.519 143.749 C 142.662 144.004,139.989 144.796,139.600 145.207 C 139.490 145.323,138.905 145.733,138.300 146.118 C 137.695 146.503,137.200 147.084,137.200 147.409 C 137.200 147.734,137.020 148.000,136.800 148.000 C 136.580 148.000,136.400 148.360,136.400 148.800 C 136.400 149.240,136.220 149.600,136.000 149.600 C 135.780 149.600,135.600 150.309,135.600 151.176 C 135.600 152.043,135.420 152.864,135.200 153.000 C 134.980 153.136,134.800 154.047,134.800 155.024 C 134.800 156.001,134.620 156.800,134.400 156.800 C 134.180 156.800,134.000 157.520,134.000 158.400 C 134.000 159.280,133.820 160.000,133.600 160.000 C 133.380 160.000,133.200 160.799,133.200 161.776 C 133.200 162.753,133.020 163.664,132.800 163.800 C 132.580 163.936,132.400 164.656,132.400 165.400 C 132.400 166.144,132.220 166.864,132.000 167.000 C 131.780 167.136,131.600 168.047,131.600 169.024 C 131.600 170.001,131.438 170.800,131.240 170.800 C 131.042 170.800,130.778 171.565,130.653 172.500 C 130.106 176.589,129.894 177.618,129.558 177.826 C 129.361 177.948,129.200 178.746,129.200 179.600 C 129.200 180.454,129.020 181.264,128.800 181.400 C 128.580 181.536,128.400 182.321,128.400 183.144 C 128.400 183.967,128.228 184.812,128.017 185.023 C 127.807 185.233,127.511 186.889,127.360 188.703 C 127.209 190.516,126.931 192.000,126.742 192.000 C 126.554 192.000,126.400 193.530,126.400 195.400 C 126.400 197.270,126.558 198.800,126.750 198.800 C 126.942 198.800,127.204 199.321,127.332 199.958 C 127.489 200.747,127.952 201.289,128.782 201.656 C 129.452 201.953,130.000 202.331,130.000 202.498 C 130.000 202.664,131.260 202.800,132.800 202.800 C 134.400 202.800,135.600 202.629,135.600 202.400 C 135.600 202.180,135.878 202.000,136.218 202.000 C 137.375 202.000,139.600 199.124,139.600 197.629 C 139.600 197.199,139.780 196.736,140.000 196.600 C 140.220 196.464,140.400 195.654,140.400 194.800 C 140.400 193.946,140.568 193.143,140.773 193.017 C 140.978 192.890,141.272 191.349,141.425 189.593 C 141.578 187.837,141.860 186.400,142.052 186.400 C 142.243 186.400,142.400 185.691,142.400 184.824 C 142.400 183.957,142.580 183.136,142.800 183.000 C 143.020 182.864,143.200 181.953,143.200 180.976 C 143.200 179.999,143.380 179.200,143.600 179.200 C 143.820 179.200,144.000 178.491,144.000 177.624 C 144.000 176.757,144.180 175.936,144.400 175.800 C 144.620 175.664,144.800 174.843,144.800 173.976 C 144.800 173.109,144.980 172.400,145.200 172.400 C 145.420 172.400,145.600 171.601,145.600 170.624 C 145.600 169.647,145.780 168.736,146.000 168.600 C 146.220 168.464,146.400 167.643,146.400 166.776 C 146.400 165.909,146.580 165.200,146.800 165.200 C 147.020 165.200,147.200 164.491,147.200 163.624 C 147.200 162.757,147.380 161.936,147.600 161.800 C 147.820 161.664,148.000 160.753,148.000 159.776 C 148.000 158.799,148.180 158.000,148.400 158.000 C 148.620 158.000,148.800 157.730,148.800 157.400 C 148.800 157.070,148.980 156.800,149.200 156.800 C 149.462 156.800,149.600 164.059,149.600 177.776 C 149.600 191.329,149.458 198.840,149.200 199.000 C 148.970 199.142,148.800 201.263,148.800 204.000 C 148.800 206.737,148.630 208.858,148.400 209.000 C 148.171 209.141,148.000 211.196,148.000 213.800 C 148.000 216.404,147.829 218.459,147.600 218.600 C 147.370 218.742,147.200 220.844,147.200 223.544 C 147.200 226.127,147.031 228.411,146.824 228.620 C 146.617 228.829,146.352 231.070,146.235 233.600 C 146.119 236.130,145.836 240.450,145.608 243.200 C 145.379 245.950,145.023 250.450,144.817 253.200 C 144.611 255.950,144.421 258.470,144.395 258.800 C 144.369 259.130,144.461 259.940,144.598 260.600 C 144.736 261.260,144.927 262.190,145.023 262.667 C 145.243 263.756,148.131 266.800,148.945 266.800 C 149.279 266.800,149.664 266.980,149.800 267.200 C 149.936 267.420,151.297 267.600,152.824 267.600 C 154.408 267.600,155.600 267.428,155.600 267.200 C 155.600 266.980,155.960 266.800,156.400 266.800 C 156.840 266.800,157.200 266.620,157.200 266.400 C 157.200 266.180,157.458 266.000,157.773 266.000 C 158.088 266.000,158.460 265.640,158.600 265.200 C 158.740 264.760,159.022 264.400,159.227 264.400 C 159.432 264.400,159.600 264.040,159.600 263.600 C 159.600 263.160,159.780 262.800,160.000 262.800 C 160.222 262.800,160.400 261.733,160.400 260.400 C 160.400 259.067,160.578 258.000,160.800 258.000 C 161.043 258.000,161.200 256.208,161.200 253.424 C 161.200 250.804,161.371 248.742,161.600 248.600 C 161.831 248.458,162.000 246.329,162.000 243.576 C 162.000 240.659,162.156 238.800,162.400 238.800 C 162.644 238.800,162.800 236.933,162.800 234.000 C 162.800 231.067,162.956 229.200,163.200 229.200 C 163.444 229.200,163.600 227.341,163.600 224.424 C 163.600 221.671,163.769 219.542,164.000 219.400 C 164.231 219.258,164.400 217.129,164.400 214.376 C 164.400 211.459,164.556 209.600,164.800 209.600 C 165.020 209.600,165.200 208.790,165.200 207.800 L 165.200 206.000 167.600 206.000 L 170.000 206.000 170.000 209.800 C 170.000 212.067,170.161 213.600,170.400 213.600 C 170.644 213.600,170.800 215.467,170.800 218.400 C 170.800 221.333,170.956 223.200,171.200 223.200 C 171.445 223.200,171.600 225.133,171.600 228.200 C 171.600 231.267,171.755 233.200,172.000 233.200 C 172.243 233.200,172.400 235.000,172.400 237.800 C 172.400 240.600,172.557 242.400,172.800 242.400 C 173.045 242.400,173.200 244.325,173.200 247.376 C 173.200 250.263,173.368 252.457,173.600 252.600 C 173.825 252.739,174.000 254.671,174.000 257.024 C 174.000 259.541,174.159 261.200,174.400 261.200 C 174.620 261.200,174.800 261.700,174.800 262.312 C 174.800 262.965,175.130 263.661,175.600 264.000 C 176.040 264.317,176.403 264.852,176.407 265.188 C 176.419 266.210,179.937 267.600,182.512 267.600 C 183.771 267.600,184.800 267.420,184.800 267.200 C 184.800 266.980,185.223 266.800,185.741 266.800 C 186.887 266.800,188.904 264.944,189.793 263.071 C 190.479 261.625,190.480 262.269,189.779 247.400 C 189.654 244.760,189.383 242.429,189.176 242.220 C 188.969 242.011,188.800 239.842,188.800 237.400 C 188.800 234.958,188.631 232.789,188.424 232.580 C 188.217 232.371,187.947 230.085,187.824 227.500 C 187.701 224.915,187.499 220.685,187.376 218.100 C 187.253 215.515,186.983 213.229,186.776 213.020 C 186.569 212.811,186.400 210.527,186.400 207.944 C 186.400 205.244,186.230 203.142,186.000 203.000 C 185.470 202.673,185.447 156.800,185.976 156.800 C 186.183 156.800,186.464 156.980,186.600 157.200 C 186.736 157.420,187.276 157.600,187.800 157.600 C 188.324 157.600,188.856 157.767,188.983 157.972 C 189.109 158.177,190.200 158.467,191.406 158.618 C 192.613 158.769,193.600 159.051,193.600 159.246 C 193.600 159.441,194.039 159.600,194.576 159.600 C 195.113 159.600,195.664 159.780,195.800 160.000 C 195.936 160.220,196.487 160.400,197.024 160.400 C 197.561 160.400,198.000 160.580,198.000 160.800 C 198.000 161.020,198.540 161.200,199.200 161.200 C 199.860 161.200,200.400 161.380,200.400 161.600 C 200.400 161.820,200.940 162.000,201.600 162.000 C 202.260 162.000,202.800 162.180,202.800 162.400 C 202.800 162.620,203.340 162.800,204.000 162.800 C 204.660 162.800,205.200 162.980,205.200 163.200 C 205.200 163.420,205.740 163.600,206.400 163.600 C 207.060 163.600,207.600 163.780,207.600 164.000 C 207.600 164.220,208.140 164.400,208.800 164.400 C 209.460 164.400,210.000 164.580,210.000 164.800 C 210.000 165.020,210.439 165.200,210.976 165.200 C 211.513 165.200,212.064 165.380,212.200 165.600 C 212.336 165.820,212.887 166.000,213.424 166.000 C 213.961 166.000,214.400 166.180,214.400 166.400 C 214.400 166.620,214.940 166.800,215.600 166.800 C 216.260 166.800,216.800 166.980,216.800 167.200 C 216.800 167.420,217.340 167.600,218.000 167.600 C 218.660 167.600,219.200 167.780,219.200 168.000 C 219.200 168.222,220.259 168.400,221.576 168.400 C 222.883 168.400,224.064 168.220,224.200 168.000 C 224.336 167.780,224.715 167.600,225.042 167.600 C 225.823 167.600,227.600 165.807,227.600 165.018 C 227.600 164.678,227.780 164.400,228.000 164.400 C 228.231 164.400,228.400 163.133,228.400 161.400 C 228.400 159.750,228.264 158.400,228.098 158.400 C 227.931 158.400,227.556 157.860,227.264 157.200 C 226.941 156.469,226.433 156.000,225.966 156.000 C 225.545 156.000,225.200 155.820,225.200 155.600 C 225.200 155.380,224.930 155.200,224.600 155.200 C 224.270 155.200,224.000 155.020,224.000 154.800 C 224.000 154.580,223.561 154.400,223.024 154.400 C 222.487 154.400,221.936 154.220,221.800 154.000 C 221.664 153.780,221.124 153.600,220.600 153.600 C 220.076 153.600,219.536 153.420,219.400 153.200 C 219.264 152.980,218.724 152.800,218.200 152.800 C 217.676 152.800,217.136 152.620,217.000 152.400 C 216.864 152.180,216.324 152.000,215.800 152.000 C 215.276 152.000,214.736 151.820,214.600 151.600 C 214.464 151.380,213.924 151.200,213.400 151.200 C 212.876 151.200,212.336 151.020,212.200 150.800 C 212.064 150.580,211.524 150.400,211.000 150.400 C 210.476 150.400,209.936 150.220,209.800 150.000 C 209.664 149.780,209.113 149.600,208.576 149.600 C 208.039 149.600,207.600 149.420,207.600 149.200 C 207.600 148.980,207.060 148.800,206.400 148.800 C 205.740 148.800,205.200 148.620,205.200 148.400 C 205.200 148.180,204.660 148.000,204.000 148.000 C 203.340 148.000,202.800 147.820,202.800 147.600 C 202.800 147.380,202.260 147.200,201.600 147.200 C 200.940 147.200,200.400 147.020,200.400 146.800 C 200.400 146.580,199.961 146.400,199.424 146.400 C 198.887 146.400,198.336 146.220,198.200 146.000 C 198.064 145.780,197.524 145.600,197.000 145.600 C 196.476 145.600,195.936 145.420,195.800 145.200 C 195.664 144.980,195.023 144.800,194.376 144.800 C 193.729 144.800,193.200 144.641,193.200 144.446 C 193.200 144.251,192.213 143.969,191.006 143.818 C 189.800 143.667,188.709 143.377,188.583 143.172 C 188.456 142.967,187.733 142.800,186.976 142.800 C 186.219 142.800,185.600 142.620,185.600 142.400 C 185.600 142.180,184.891 142.000,184.024 142.000 C 183.157 142.000,182.336 141.820,182.200 141.600 C 182.064 141.380,181.153 141.200,180.176 141.200 C 179.199 141.200,178.400 141.020,178.400 140.800 C 178.400 140.567,177.081 140.400,175.243 140.400 C 172.111 140.400,170.403 139.556,172.307 138.949 C 173.981 138.414,175.062 137.656,177.452 135.335 C 178.853 133.974,180.000 132.577,180.000 132.231 C 180.000 131.884,180.135 131.599,180.300 131.597 C 180.659 131.593,181.600 129.656,181.600 128.920 C 181.600 128.634,181.780 128.400,182.000 128.400 C 182.220 128.400,182.400 128.040,182.400 127.600 C 182.400 127.160,182.580 126.800,182.800 126.800 C 183.020 126.800,183.200 125.900,183.200 124.800 C 183.200 123.700,183.380 122.800,183.600 122.800 C 183.820 122.800,184.000 121.810,184.000 120.600 C 184.000 119.390,183.820 118.400,183.600 118.400 C 183.380 118.400,183.200 117.601,183.200 116.624 C 183.200 115.647,183.020 114.736,182.800 114.600 C 182.580 114.464,182.400 114.003,182.400 113.576 C 182.400 113.149,182.220 112.800,182.000 112.800 C 181.780 112.800,181.600 112.575,181.599 112.300 C 181.599 112.025,181.059 111.170,180.400 110.400 C 179.741 109.630,179.201 108.865,179.201 108.700 C 179.200 108.535,178.928 108.400,178.596 108.400 C 178.264 108.400,177.428 107.860,176.737 107.200 C 176.046 106.540,175.238 106.000,174.941 106.000 C 174.643 106.000,174.400 105.820,174.400 105.600 C 174.400 105.380,173.860 105.200,173.200 105.200 C 172.540 105.200,172.000 105.020,172.000 104.800 C 172.000 104.557,170.200 104.400,167.400 104.400 C 164.600 104.400,162.800 104.557,162.800 104.800 M169.200 140.055 C 169.200 140.245,169.020 140.400,168.800 140.400 C 168.580 140.400,168.400 140.683,168.400 141.029 C 168.400 141.635,167.498 142.800,167.029 142.800 C 166.903 142.800,166.800 142.440,166.800 142.000 C 166.800 141.560,166.620 141.200,166.400 141.200 C 166.180 141.200,166.000 140.865,166.000 140.455 C 166.000 139.852,166.306 139.709,167.600 139.709 C 168.480 139.709,169.200 139.865,169.200 140.055 M250.400 171.200 L 250.400 200.400 256.200 200.400 L 262.000 200.400 262.000 171.200 L 262.000 142.000 256.200 142.000 L 250.400 142.000 250.400 171.200 M167.600 146.800 C 167.600 147.460,167.780 148.000,168.000 148.000 C 168.231 148.000,168.400 149.259,168.400 150.976 C 168.400 152.613,168.580 154.064,168.800 154.200 C 169.020 154.336,169.200 155.686,169.200 157.200 C 169.200 158.714,169.380 160.064,169.600 160.200 C 169.820 160.336,170.000 161.686,170.000 163.200 C 170.000 164.714,170.180 166.064,170.400 166.200 C 170.620 166.336,170.800 167.686,170.800 169.200 C 170.800 170.714,170.980 172.064,171.200 172.200 C 171.420 172.336,171.600 173.337,171.600 174.424 C 171.600 175.511,171.420 176.400,171.200 176.400 C 170.980 176.400,170.800 176.670,170.800 177.000 C 170.800 177.330,170.620 177.600,170.400 177.600 C 170.180 177.600,170.000 177.870,170.000 178.200 C 170.000 178.530,169.820 178.800,169.600 178.800 C 169.380 178.800,169.200 179.070,169.200 179.400 C 169.200 179.730,169.020 180.000,168.800 180.000 C 168.580 180.000,168.400 180.283,168.400 180.629 C 168.400 181.809,167.191 182.651,166.930 181.652 C 166.807 181.184,166.548 180.800,166.353 180.800 C 166.159 180.800,166.000 180.440,166.000 180.000 C 166.000 179.560,165.820 179.200,165.600 179.200 C 165.380 179.200,165.200 178.930,165.200 178.600 C 165.200 178.270,165.065 177.999,164.900 177.997 C 164.735 177.995,164.375 177.509,164.100 176.917 C 163.503 175.631,163.421 170.000,164.000 170.000 C 164.233 170.000,164.400 168.667,164.400 166.800 C 164.400 164.933,164.567 163.600,164.800 163.600 C 165.028 163.600,165.200 162.408,165.200 160.824 C 165.200 159.297,165.380 157.936,165.600 157.800 C 165.820 157.664,166.000 156.314,166.000 154.800 C 166.000 153.286,166.180 151.936,166.400 151.800 C 166.620 151.664,166.800 150.213,166.800 148.576 C 166.800 146.859,166.969 145.600,167.200 145.600 C 167.420 145.600,167.600 146.140,167.600 146.800 M235.280 158.080 C 234.919 158.441,234.800 163.742,234.800 179.480 L 234.800 200.400 240.600 200.400 L 246.400 200.400 246.400 179.000 L 246.400 157.600 241.080 157.600 C 237.476 157.600,235.605 157.755,235.280 158.080 M220.000 185.600 L 220.000 200.400 225.800 200.400 L 231.600 200.400 231.600 185.600 L 231.600 170.800 225.800 170.800 L 220.000 170.800 220.000 185.600 M129.024 262.362 C 128.875 262.603,127.861 262.800,126.771 262.800 C 125.681 262.800,124.477 262.952,124.095 263.137 C 123.713 263.322,122.500 263.905,121.400 264.431 C 120.300 264.957,119.162 265.616,118.871 265.894 C 118.581 266.172,118.190 266.400,118.004 266.400 C 117.460 266.400,114.652 269.299,114.032 270.500 C 113.720 271.105,113.315 271.600,113.132 271.600 C 112.950 271.600,112.800 271.960,112.800 272.400 C 112.800 272.840,112.620 273.200,112.400 273.200 C 112.180 273.200,112.000 273.560,112.000 274.000 C 112.000 274.440,111.820 274.800,111.600 274.800 C 111.380 274.800,111.200 275.340,111.200 276.000 C 111.200 276.660,111.020 277.200,110.800 277.200 C 109.410 277.200,110.909 291.157,112.432 292.400 C 112.567 292.510,112.789 293.061,112.927 293.625 C 113.065 294.188,113.632 295.178,114.188 295.825 C 114.744 296.471,115.199 297.185,115.200 297.412 C 115.200 297.638,115.560 298.083,116.000 298.400 C 116.440 298.717,116.800 299.144,116.800 299.348 C 116.800 299.552,117.410 300.312,118.156 301.037 C 119.605 302.443,119.605 302.800,118.157 302.800 C 117.657 302.800,117.136 302.980,117.000 303.200 C 116.864 303.420,116.403 303.600,115.976 303.600 C 115.549 303.600,115.200 303.780,115.200 304.000 C 115.200 304.220,114.840 304.400,114.400 304.400 C 113.960 304.400,113.600 304.580,113.600 304.800 C 113.600 305.020,113.240 305.200,112.800 305.200 C 112.360 305.200,112.000 305.380,112.000 305.600 C 112.000 305.820,111.732 306.000,111.405 306.000 C 110.800 306.000,109.849 306.676,108.168 308.300 C 107.656 308.795,107.041 309.200,106.801 309.200 C 105.981 309.200,99.600 315.351,99.600 316.142 C 99.600 316.407,99.240 316.883,98.800 317.200 C 98.360 317.517,98.000 318.097,98.000 318.488 C 98.000 318.880,97.864 319.200,97.698 319.200 C 97.531 319.200,97.156 319.785,96.864 320.500 C 95.741 323.250,95.496 323.822,95.153 324.495 C 93.570 327.608,95.764 334.000,98.416 334.000 C 98.821 334.000,99.264 334.180,99.400 334.400 C 99.536 334.620,99.997 334.800,100.424 334.800 C 100.851 334.800,101.200 334.960,101.200 335.156 C 101.200 335.498,102.322 335.766,105.800 336.256 C 106.680 336.380,107.571 336.644,107.780 336.841 C 107.989 337.038,109.258 337.200,110.600 337.200 C 111.942 337.200,113.211 337.369,113.420 337.575 C 114.139 338.286,136.680 339.080,137.342 338.418 C 137.583 338.177,139.661 338.000,142.256 338.000 C 144.823 338.000,146.859 337.828,147.000 337.600 C 147.136 337.380,148.396 337.200,149.800 337.200 C 151.204 337.200,152.464 337.020,152.600 336.800 C 152.736 336.580,153.647 336.400,154.624 336.400 C 155.601 336.400,156.400 336.220,156.400 336.000 C 156.400 335.780,157.019 335.600,157.776 335.600 C 158.533 335.600,159.264 335.420,159.400 335.200 C 159.536 334.980,159.997 334.800,160.424 334.800 C 160.851 334.800,161.200 334.620,161.200 334.400 C 161.200 334.180,161.494 334.000,161.853 334.000 C 162.212 334.000,162.804 333.657,163.168 333.237 C 164.167 332.085,167.600 332.441,167.600 333.698 C 167.600 333.864,167.960 334.000,168.400 334.000 C 168.840 334.000,169.200 334.180,169.200 334.400 C 169.200 334.620,169.560 334.800,170.000 334.800 C 170.440 334.800,170.800 334.980,170.800 335.200 C 170.800 335.420,171.520 335.600,172.400 335.600 C 173.280 335.600,174.000 335.780,174.000 336.000 C 174.000 336.220,174.799 336.400,175.776 336.400 C 176.753 336.400,177.664 336.580,177.800 336.800 C 177.936 337.020,179.207 337.200,180.624 337.200 C 182.041 337.200,183.200 337.369,183.200 337.576 C 183.200 338.698,215.846 338.698,216.980 337.576 C 217.189 337.369,218.393 337.200,219.656 337.200 C 220.919 337.200,222.064 337.020,222.200 336.800 C 222.336 336.580,223.247 336.400,224.224 336.400 C 225.201 336.400,226.000 336.220,226.000 336.000 C 226.000 335.780,226.720 335.600,227.600 335.600 C 228.480 335.600,229.200 335.420,229.200 335.200 C 229.200 334.980,229.560 334.800,230.000 334.800 C 230.440 334.800,230.800 334.620,230.800 334.400 C 230.800 334.180,231.160 334.000,231.600 334.000 C 232.040 334.000,232.400 333.864,232.400 333.698 C 232.400 332.441,235.833 332.085,236.832 333.237 C 237.196 333.657,237.788 334.000,238.147 334.000 C 238.506 334.000,238.800 334.180,238.800 334.400 C 238.800 334.620,239.149 334.800,239.576 334.800 C 240.003 334.800,240.464 334.980,240.600 335.200 C 240.736 335.420,241.467 335.600,242.224 335.600 C 242.981 335.600,243.600 335.780,243.600 336.000 C 243.600 336.220,244.399 336.400,245.376 336.400 C 246.353 336.400,247.264 336.580,247.400 336.800 C 247.536 337.020,248.796 337.200,250.200 337.200 C 251.604 337.200,252.864 337.380,253.000 337.600 C 253.141 337.828,255.177 338.000,257.744 338.000 C 260.339 338.000,262.417 338.177,262.658 338.418 C 263.337 339.097,276.803 338.574,289.000 337.396 C 290.320 337.269,291.760 337.003,292.200 336.807 C 292.640 336.610,293.675 336.348,294.500 336.225 C 297.928 335.711,298.800 335.494,298.800 335.156 C 298.800 334.960,299.149 334.800,299.576 334.800 C 300.003 334.800,300.464 334.620,300.600 334.400 C 300.736 334.180,301.161 334.000,301.545 334.000 C 303.640 334.000,305.200 331.468,305.200 328.070 C 305.200 326.297,305.020 324.736,304.800 324.600 C 304.580 324.464,304.400 323.913,304.400 323.376 C 304.400 322.839,304.220 322.400,304.000 322.400 C 303.780 322.400,303.600 322.166,303.600 321.880 C 303.600 321.144,302.659 319.207,302.300 319.203 C 302.135 319.201,302.000 318.880,302.000 318.488 C 302.000 318.097,301.640 317.517,301.200 317.200 C 300.760 316.883,300.400 316.407,300.400 316.142 C 300.400 315.351,294.019 309.200,293.199 309.200 C 292.959 309.200,292.344 308.795,291.832 308.300 C 290.151 306.676,289.200 306.000,288.595 306.000 C 288.268 306.000,288.000 305.820,288.000 305.600 C 288.000 305.380,287.640 305.200,287.200 305.200 C 286.760 305.200,286.400 305.020,286.400 304.800 C 286.400 304.580,286.040 304.400,285.600 304.400 C 285.160 304.400,284.800 304.220,284.800 304.000 C 284.800 303.780,284.451 303.600,284.024 303.600 C 283.597 303.600,283.136 303.420,283.000 303.200 C 282.864 302.980,282.324 302.800,281.800 302.800 C 280.305 302.800,280.309 302.215,281.813 300.961 C 282.576 300.325,283.200 299.618,283.200 299.391 C 283.200 299.163,283.560 298.717,284.000 298.400 C 284.440 298.083,284.800 297.638,284.800 297.412 C 284.801 297.185,285.264 296.462,285.830 295.804 C 286.396 295.146,286.958 294.111,287.079 293.504 C 287.201 292.897,287.457 292.400,287.650 292.400 C 287.843 292.400,288.000 292.051,288.000 291.624 C 288.000 291.197,288.180 290.736,288.400 290.600 C 288.620 290.464,288.800 289.924,288.800 289.400 C 288.800 288.876,288.980 288.336,289.200 288.200 C 289.435 288.055,289.600 285.729,289.600 282.576 C 289.600 279.259,289.447 277.200,289.200 277.200 C 288.980 277.200,288.800 276.660,288.800 276.000 C 288.800 275.340,288.620 274.800,288.400 274.800 C 288.180 274.800,288.000 274.440,288.000 274.000 C 288.000 273.560,287.820 273.200,287.600 273.200 C 287.380 273.200,287.200 272.840,287.200 272.400 C 287.200 271.960,287.032 271.600,286.827 271.600 C 286.622 271.600,286.334 271.221,286.187 270.759 C 285.848 269.691,282.103 266.000,281.359 266.000 C 281.052 266.000,280.800 265.820,280.800 265.600 C 280.800 265.380,280.575 265.196,280.300 265.191 C 280.025 265.186,279.350 264.830,278.800 264.400 C 278.250 263.970,277.431 263.614,276.980 263.609 C 276.529 263.604,275.989 263.437,275.780 263.237 C 275.394 262.868,271.980 262.376,269.800 262.376 C 267.620 262.376,264.206 262.868,263.820 263.237 C 263.611 263.437,263.152 263.600,262.800 263.600 C 261.969 263.600,260.007 264.512,260.003 264.900 C 260.001 265.065,259.727 265.200,259.394 265.200 C 258.603 265.200,252.800 271.003,252.800 271.794 C 252.800 272.127,252.620 272.400,252.400 272.400 C 252.180 272.400,252.000 272.760,252.000 273.200 C 252.000 273.640,251.820 274.000,251.600 274.000 C 251.380 274.000,251.200 274.540,251.200 275.200 C 251.200 275.860,251.020 276.400,250.800 276.400 C 250.580 276.400,250.400 277.019,250.400 277.776 C 250.400 278.533,250.220 279.264,250.000 279.400 C 249.780 279.536,249.600 280.706,249.600 282.000 C 249.600 283.294,249.780 284.464,250.000 284.600 C 250.220 284.736,250.400 285.739,250.400 286.829 C 250.400 287.919,250.552 289.123,250.738 289.505 C 250.923 289.887,251.283 290.603,251.538 291.095 C 251.792 291.587,252.000 292.262,252.000 292.595 C 252.000 292.928,252.180 293.200,252.400 293.200 C 252.620 293.200,252.800 293.560,252.800 294.000 C 252.800 294.440,252.980 294.800,253.200 294.800 C 253.420 294.800,253.600 295.025,253.601 295.300 C 253.601 295.575,254.141 296.430,254.800 297.200 C 255.459 297.970,255.999 298.749,255.999 298.931 C 256.000 299.114,256.720 299.954,257.600 300.800 C 259.517 302.642,259.549 302.800,258.000 302.800 C 257.340 302.800,256.800 302.980,256.800 303.200 C 256.800 303.420,256.457 303.600,256.038 303.600 C 255.370 303.600,252.145 305.054,251.600 305.601 C 251.490 305.711,250.860 306.070,250.200 306.398 C 249.540 306.726,248.709 307.311,248.353 307.697 C 247.997 308.084,247.494 308.400,247.235 308.400 C 246.976 308.400,246.354 308.805,245.853 309.300 C 245.352 309.795,244.100 310.949,243.071 311.863 C 242.042 312.778,241.200 313.651,241.200 313.803 C 241.200 313.955,240.705 314.556,240.100 315.140 C 239.495 315.723,238.745 316.695,238.432 317.300 C 238.120 317.905,237.715 318.400,237.532 318.400 C 237.350 318.400,237.200 318.760,237.200 319.200 C 237.200 319.640,237.020 320.000,236.800 320.000 C 236.580 320.000,236.400 320.360,236.400 320.800 C 236.400 321.240,236.243 321.600,236.050 321.600 C 235.857 321.600,235.589 322.154,235.454 322.832 C 235.149 324.353,234.000 323.560,234.000 321.829 C 234.000 321.263,233.820 320.800,233.600 320.800 C 233.380 320.800,233.200 320.480,233.200 320.088 C 233.200 319.697,232.840 319.117,232.400 318.800 C 231.960 318.483,231.600 317.975,231.600 317.672 C 231.600 317.369,231.060 316.617,230.400 316.000 C 229.740 315.383,229.200 314.706,229.200 314.494 C 229.200 314.040,227.616 312.413,225.464 310.655 C 224.619 309.965,223.449 308.995,222.864 308.500 C 222.279 308.006,221.615 307.601,221.388 307.600 C 221.162 307.600,220.717 307.240,220.400 306.800 C 220.083 306.360,219.503 306.000,219.112 306.000 C 218.720 306.000,218.400 305.820,218.400 305.600 C 218.400 305.380,218.040 305.200,217.600 305.200 C 217.160 305.200,216.800 305.020,216.800 304.800 C 216.800 304.580,216.440 304.400,216.000 304.400 C 215.560 304.400,215.200 304.220,215.200 304.000 C 215.200 303.780,214.660 303.600,214.000 303.600 C 213.340 303.600,212.800 303.420,212.800 303.200 C 212.800 302.980,212.260 302.800,211.600 302.800 C 210.019 302.800,210.058 302.681,212.400 300.400 C 213.500 299.329,214.400 298.305,214.401 298.126 C 214.401 297.947,214.941 297.170,215.600 296.400 C 216.259 295.630,216.799 294.775,216.799 294.500 C 216.800 294.225,216.980 294.000,217.200 294.000 C 217.420 294.000,217.600 293.460,217.600 292.800 C 217.600 292.140,217.780 291.600,218.000 291.600 C 218.220 291.600,218.400 291.240,218.400 290.800 C 218.400 290.360,218.580 290.000,218.800 290.000 C 219.020 290.000,219.200 289.190,219.200 288.200 C 219.200 287.210,219.380 286.400,219.600 286.400 C 219.841 286.400,220.000 284.741,220.000 282.224 C 220.000 279.871,219.825 277.939,219.600 277.800 C 219.380 277.664,219.200 277.113,219.200 276.576 C 219.200 276.039,219.020 275.600,218.800 275.600 C 218.580 275.600,218.400 275.060,218.400 274.400 C 218.400 273.740,218.220 273.200,218.000 273.200 C 217.780 273.200,217.600 272.957,217.600 272.659 C 217.600 272.362,217.105 271.594,216.500 270.952 C 215.895 270.311,215.145 269.294,214.832 268.693 C 214.520 268.092,214.052 267.600,213.792 267.600 C 213.532 267.600,212.754 267.060,212.063 266.400 C 211.372 265.740,210.536 265.200,210.204 265.200 C 209.872 265.200,209.599 265.065,209.597 264.900 C 209.593 264.499,207.619 263.600,206.744 263.600 C 206.361 263.600,205.950 263.443,205.831 263.250 C 205.620 262.909,201.994 262.347,200.000 262.347 C 198.006 262.347,194.380 262.909,194.169 263.250 C 194.050 263.443,193.513 263.600,192.976 263.600 C 192.439 263.600,192.000 263.780,192.000 264.000 C 192.000 264.220,191.640 264.400,191.200 264.400 C 190.760 264.400,190.400 264.580,190.400 264.800 C 190.400 265.020,190.128 265.200,189.796 265.200 C 189.464 265.200,188.628 265.740,187.937 266.400 C 187.246 267.060,186.468 267.600,186.208 267.600 C 185.948 267.600,185.480 268.095,185.168 268.700 C 184.855 269.305,184.209 270.199,183.731 270.687 C 183.253 271.175,182.746 271.940,182.604 272.387 C 182.462 272.834,182.178 273.200,181.973 273.200 C 181.768 273.200,181.600 273.740,181.600 274.400 C 181.600 275.060,181.420 275.600,181.200 275.600 C 180.980 275.600,180.800 276.039,180.800 276.576 C 180.800 277.113,180.620 277.664,180.400 277.800 C 180.177 277.938,180.000 279.796,180.000 282.000 C 180.000 284.204,180.177 286.062,180.400 286.200 C 180.620 286.336,180.800 287.146,180.800 288.000 C 180.800 288.854,180.980 289.664,181.200 289.800 C 181.420 289.936,181.600 290.397,181.600 290.824 C 181.600 291.251,181.780 291.600,182.000 291.600 C 182.220 291.600,182.400 292.140,182.400 292.800 C 182.400 293.460,182.580 294.000,182.800 294.000 C 183.020 294.000,183.200 294.225,183.201 294.500 C 183.201 294.775,183.741 295.630,184.400 296.400 C 185.059 297.170,185.599 297.947,185.599 298.126 C 185.600 298.305,186.500 299.329,187.600 300.400 C 189.942 302.681,189.981 302.800,188.400 302.800 C 187.740 302.800,187.200 302.980,187.200 303.200 C 187.200 303.420,186.660 303.600,186.000 303.600 C 185.340 303.600,184.800 303.780,184.800 304.000 C 184.800 304.220,184.440 304.400,184.000 304.400 C 183.560 304.400,183.200 304.580,183.200 304.800 C 183.200 305.020,182.840 305.200,182.400 305.200 C 181.960 305.200,181.600 305.380,181.600 305.600 C 181.600 305.820,181.364 306.000,181.075 306.000 C 180.787 306.000,180.164 306.360,179.692 306.800 C 179.220 307.240,178.686 307.600,178.505 307.600 C 178.324 307.600,177.917 307.960,177.600 308.400 C 177.283 308.840,176.838 309.200,176.612 309.200 C 175.879 309.201,170.800 313.809,170.800 314.473 C 170.800 314.696,170.260 315.383,169.600 316.000 C 168.940 316.617,168.400 317.326,168.400 317.577 C 168.400 317.828,168.040 318.420,167.600 318.892 C 167.160 319.364,166.800 319.987,166.800 320.275 C 166.800 320.564,166.620 320.800,166.400 320.800 C 166.180 320.800,166.000 321.321,166.000 321.957 C 166.000 322.594,165.748 323.211,165.439 323.330 C 164.736 323.599,164.400 323.277,164.400 322.333 C 164.400 321.930,164.220 321.600,164.000 321.600 C 163.780 321.600,163.600 321.240,163.600 320.800 C 163.600 320.360,163.420 320.000,163.200 320.000 C 162.980 320.000,162.800 319.640,162.800 319.200 C 162.800 318.760,162.620 318.400,162.400 318.400 C 162.180 318.400,162.000 318.130,162.000 317.800 C 162.000 317.470,161.820 317.200,161.600 317.200 C 161.380 317.200,161.200 317.002,161.200 316.760 C 161.200 316.519,160.660 315.817,160.000 315.200 C 159.340 314.583,158.799 313.926,158.797 313.740 C 158.795 313.553,157.962 312.680,156.946 311.800 C 155.931 310.920,154.680 309.795,154.168 309.300 C 153.656 308.805,153.024 308.400,152.765 308.400 C 152.506 308.400,152.002 308.085,151.646 307.700 C 150.896 306.890,149.236 305.865,147.100 304.894 C 146.275 304.518,145.600 304.074,145.600 303.906 C 145.600 303.738,145.060 303.600,144.400 303.600 C 143.740 303.600,143.200 303.420,143.200 303.200 C 143.200 302.980,142.750 302.800,142.200 302.800 C 140.847 302.800,140.941 302.285,142.600 300.627 C 143.370 299.857,144.000 299.041,144.000 298.813 C 144.000 298.586,144.180 298.400,144.400 298.400 C 144.620 298.400,144.800 298.212,144.800 297.983 C 144.800 297.754,145.160 297.180,145.600 296.708 C 146.040 296.236,146.400 295.613,146.400 295.325 C 146.400 295.036,146.580 294.800,146.800 294.800 C 147.020 294.800,147.200 294.440,147.200 294.000 C 147.200 293.560,147.380 293.200,147.600 293.200 C 147.820 293.200,148.000 292.928,148.000 292.595 C 148.000 292.262,148.180 291.632,148.400 291.195 C 148.620 290.758,148.980 290.042,149.200 289.605 C 149.420 289.168,149.600 287.908,149.600 286.805 C 149.600 285.702,149.780 284.800,150.000 284.800 C 150.225 284.800,150.400 283.675,150.400 282.224 C 150.400 280.807,150.220 279.536,150.000 279.400 C 149.780 279.264,149.600 278.533,149.600 277.776 C 149.600 277.019,149.420 276.400,149.200 276.400 C 148.980 276.400,148.800 275.860,148.800 275.200 C 148.800 274.540,148.620 274.000,148.400 274.000 C 148.180 274.000,148.000 273.640,148.000 273.200 C 148.000 272.760,147.820 272.400,147.600 272.400 C 147.380 272.400,147.200 272.127,147.200 271.794 C 147.200 271.003,141.397 265.200,140.606 265.200 C 140.273 265.200,139.999 265.065,139.997 264.900 C 139.993 264.512,138.031 263.600,137.200 263.600 C 136.848 263.600,136.389 263.437,136.180 263.237 C 135.971 263.037,134.900 262.780,133.800 262.665 C 132.700 262.551,131.236 262.337,130.547 262.190 C 129.788 262.028,129.188 262.096,129.024 262.362 " stroke="#000000" fill="none" stroke-width="3" class="cbbSWsVL_0"></path><path id="path1" d="" stroke="#000000" fill="none" stroke-width="3" class="cbbSWsVL_1"></path></g><style data-made-with="vivus-instant">.cbbSWsVL_0{stroke-dasharray:3147 3149;stroke-dashoffset:3148;animation:cbbSWsVL_draw_0 4500ms linear 0ms infinite,cbbSWsVL_fade 4500ms linear 0ms infinite;}.cbbSWsVL_1{stroke-dasharray:0 2;stroke-dashoffset:1;animation:cbbSWsVL_draw_1 4500ms linear 0ms infinite,cbbSWsVL_fade 4500ms linear 0ms infinite;}@keyframes cbbSWsVL_draw{100%{stroke-dashoffset:0;}}@keyframes cbbSWsVL_fade{0%{stroke-opacity:1;}91.11111111111111%{stroke-opacity:1;}100%{stroke-opacity:0;}}@keyframes cbbSWsVL_draw_0{6.666666666666667%{stroke-dashoffset: 3148}73.33333333333333%{ stroke-dashoffset: 0;}100%{ stroke-dashoffset: 0;}}@keyframes cbbSWsVL_draw_1{6.666666666666667%{stroke-dashoffset: 1}73.33333333333333%{ stroke-dashoffset: 0;}100%{ stroke-dashoffset: 0;}}</style></svg>
