<svg id="svg" version="1.1" width="400" height="400" xmlns="http://www.w3.org/2000/svg" xmlns:xlink="http://www.w3.org/1999/xlink" style=""><g id="svgg"><path id="path0" d="M70.501 81.246 C 65.588 84.241,63.798 89.889,65.332 97.559 L 65.820 100.000 77.832 100.000 L 89.844 100.000 89.825 96.289 C 89.756 82.861,80.135 75.372,70.501 81.246 M312.420 81.456 C 308.922 83.785,307.284 87.429,306.629 94.336 L 306.091 100.000 318.671 100.000 L 331.250 100.000 331.250 93.419 C 331.250 81.825,321.329 75.522,312.420 81.456 M33.347 106.601 C 23.350 110.166,21.897 122.686,30.721 129.225 C 33.803 131.509,126.827 132.236,132.660 130.021 C 143.379 125.951,142.369 109.439,131.205 106.237 C 126.743 104.957,37.019 105.291,33.347 106.601 M268.503 106.589 C 258.901 110.052,257.102 122.365,265.286 128.608 L 268.237 130.859 316.736 131.071 L 365.234 131.282 368.750 129.508 C 377.357 125.166,377.880 112.751,369.671 107.647 L 366.797 105.859 319.141 105.686 C 280.314 105.545,270.932 105.713,268.503 106.589 M189.844 127.892 C 184.523 128.471,173.731 131.473,166.173 134.476 C 154.754 139.013,143.464 142.230,118.469 148.066 C 94.011 153.776,94.568 153.761,94.543 148.747 C 94.537 147.414,94.305 144.162,94.029 141.521 L 93.527 136.719 81.091 136.719 L 68.654 136.719 69.092 140.039 C 69.333 141.865,70.081 149.512,70.755 157.031 C 71.632 166.818,72.366 171.368,73.337 173.044 C 77.628 180.448,88.562 181.051,93.938 174.181 C 95.663 171.977,96.769 171.562,106.702 169.396 C 142.735 161.536,163.045 171.292,173.515 201.489 C 178.429 215.665,183.425 219.936,196.144 220.833 C 214.867 222.154,222.456 217.419,227.787 201.086 C 231.519 189.655,239.111 179.078,246.094 175.585 C 258.936 169.160,296.698 168.078,301.900 173.986 C 308.000 180.913,317.439 180.661,322.794 173.428 C 324.018 171.775,327.282 146.086,327.337 137.675 C 327.342 136.901,324.608 136.727,315.039 136.894 L 302.734 137.109 302.083 144.531 C 301.724 148.613,301.304 152.080,301.150 152.235 C 300.248 153.139,253.072 141.139,242.578 137.337 C 224.729 130.870,220.806 129.645,214.297 128.510 C 208.181 127.444,196.639 127.152,189.844 127.892 M159.766 246.375 C 149.237 251.237,150.861 262.433,163.168 269.828 C 186.922 284.102,218.518 283.677,241.991 268.767 C 259.443 257.681,247.147 238.749,229.466 249.482 C 211.506 260.384,191.645 260.400,173.732 249.526 C 167.239 245.584,163.368 244.711,159.766 246.375 M124.234 267.775 C 115.442 272.192,115.935 281.138,125.516 291.046 C 160.567 327.289,232.951 329.872,272.348 296.285 C 285.629 284.963,288.703 275.532,281.176 269.198 C 275.858 264.723,268.264 266.386,263.232 273.126 C 239.911 304.367,169.816 305.224,141.609 274.612 C 133.936 266.285,130.158 264.798,124.234 267.775 " stroke="#000000" fill="none" stroke-width="3" class="JSsjMLPN_0"></path></g><style data-made-with="vivus-instant">.JSsjMLPN_0{stroke-dasharray:1981 1983;stroke-dashoffset:1982;animation:JSsjMLPN_draw_0 4500ms linear 0ms infinite,JSsjMLPN_fade 4500ms linear 0ms infinite;}@keyframes JSsjMLPN_draw{100%{stroke-dashoffset:0;}}@keyframes JSsjMLPN_fade{0%{stroke-opacity:1;}91.11111111111111%{stroke-opacity:1;}100%{stroke-opacity:0;}}@keyframes JSsjMLPN_draw_0{6.666666666666667%{stroke-dashoffset: 1982}73.33333333333333%{ stroke-dashoffset: 0;}100%{ stroke-dashoffset: 0;}}</style></svg>
