<svg id="svg" version="1.1" width="400" height="400" xmlns="http://www.w3.org/2000/svg" xmlns:xlink="http://www.w3.org/1999/xlink" style=""><g id="svgg"><path id="path0" d="M142.863 32.113 C 140.385 33.849,140.842 36.818,144.588 43.313 C 146.418 46.486,147.797 49.184,147.652 49.309 C 147.506 49.434,138.793 54.489,128.288 60.541 C 106.479 73.107,105.946 73.500,105.946 77.021 C 105.946 79.197,136.139 133.333,137.353 133.333 C 137.498 133.333,147.585 127.525,159.767 120.426 L 181.916 107.518 187.895 117.990 C 191.183 123.750,193.874 128.745,193.874 129.090 C 193.874 129.435,188.360 139.328,181.622 151.075 C 174.883 162.822,169.369 173.041,169.369 173.784 C 169.369 176.873,173.511 178.938,176.499 177.339 C 177.198 176.965,182.609 168.213,188.524 157.890 C 194.439 147.567,199.441 139.128,199.640 139.137 C 199.838 139.147,204.541 147.138,210.090 156.896 C 215.640 166.653,220.771 175.398,221.494 176.327 C 224.272 179.903,230.822 177.260,229.711 173.011 C 229.510 172.240,223.958 162.192,217.375 150.680 C 210.792 139.169,205.405 129.461,205.405 129.107 C 205.405 128.752,208.094 123.754,211.379 117.999 L 217.353 107.537 238.947 120.144 C 250.823 127.078,260.901 132.900,261.341 133.081 C 262.712 133.645,293.333 79.959,293.333 76.992 C 293.333 73.537,292.847 73.174,271.351 60.592 C 261.045 54.559,252.359 49.378,252.050 49.078 C 251.740 48.778,252.954 45.964,254.747 42.825 C 259.225 34.984,258.870 30.991,253.694 30.991 C 250.682 30.991,251.642 29.497,224.827 75.966 C 211.195 99.590,199.861 118.919,199.641 118.919 C 199.421 118.919,187.951 99.321,174.153 75.369 C 160.355 51.416,148.581 31.632,147.988 31.405 C 146.178 30.711,144.542 30.937,142.863 32.113 M101.968 105.645 C 96.823 108.655,92.336 111.383,91.997 111.706 C 91.506 112.175,122.656 167.287,124.747 169.647 C 125.273 170.241,162.162 149.380,162.162 148.489 C 162.162 148.266,157.054 147.177,150.811 146.071 C 136.423 143.521,138.703 145.671,124.699 121.446 C 118.077 109.989,112.358 100.516,111.991 100.393 C 111.624 100.271,107.114 102.634,101.968 105.645 M274.955 121.180 C 260.868 145.296,263.400 142.986,247.748 145.999 C 241.901 147.124,237.117 148.236,237.117 148.470 C 237.117 149.373,273.999 170.249,274.531 169.647 C 276.618 167.281,307.767 112.169,307.278 111.704 C 306.553 111.013,289.244 100.937,288.039 100.504 C 287.569 100.335,281.878 109.328,274.955 121.180 M147.780 132.939 C 137.241 139.271,136.969 138.731,152.141 141.582 C 163.291 143.677,163.604 143.706,163.604 142.644 C 163.604 141.671,156.169 128.268,155.676 128.351 C 155.477 128.384,151.924 130.449,147.780 132.939 M242.375 129.189 C 240.766 131.305,234.955 141.823,234.955 142.619 C 234.955 143.577,234.368 143.657,249.236 140.668 C 260.814 138.340,260.784 138.447,251.447 132.845 C 243.130 127.854,243.329 127.934,242.375 129.189 M125.280 206.825 C 124.220 207.149,122.081 208.129,120.526 209.003 C 116.381 211.332,64.226 267.250,62.171 271.567 C 59.952 276.231,60.070 278.611,64.033 309.189 L 67.443 335.495 199.815 335.678 L 332.186 335.860 332.586 333.515 C 334.456 322.536,339.471 279.446,339.133 277.258 C 338.900 275.750,338.036 273.084,337.213 271.334 C 335.142 266.927,282.085 210.298,277.962 208.094 L 274.955 206.486 201.081 206.361 C 160.450 206.293,126.340 206.501,125.280 206.825 M278.323 233.333 L 289.509 246.126 244.518 246.312 C 219.774 246.414,179.444 246.414,154.896 246.312 L 110.265 246.126 118.996 236.036 C 123.797 230.486,128.839 224.730,130.198 223.243 L 132.671 220.541 199.904 220.541 L 267.137 220.541 278.323 233.333 M52.757 238.703 C 51.471 239.988,51.730 241.319,54.272 246.486 L 56.577 251.171 64.454 251.377 L 72.331 251.583 75.863 248.134 C 77.806 246.237,80.697 243.144,82.287 241.261 L 85.179 237.838 69.400 237.838 C 58.089 237.838,53.377 238.083,52.757 238.703 M318.401 243.423 C 326.334 252.216,325.109 251.610,334.498 251.376 L 342.703 251.171 345.007 246.486 C 349.313 237.733,349.502 237.838,329.509 237.838 L 313.361 237.838 318.401 243.423 M121.441 284.031 C 143.995 287.010,145.586 287.390,145.586 289.793 C 145.586 292.366,143.357 292.613,120.047 292.613 C 94.105 292.613,94.414 292.683,94.414 286.799 C 94.414 280.071,92.751 280.242,121.441 284.031 M304.119 282.475 C 305.468 284.996,305.052 291.020,303.471 291.867 C 300.677 293.362,257.011 292.835,255.095 291.283 C 250.796 287.802,251.883 287.445,277.117 284.047 C 302.163 280.674,303.125 280.618,304.119 282.475 M67.031 348.649 C 67.035 353.473,67.373 356.323,68.113 357.740 C 68.705 358.875,69.189 359.929,69.189 360.082 C 69.189 360.235,62.039 360.360,53.301 360.360 L 37.412 360.360 35.643 362.129 C 33.498 364.274,33.387 366.360,35.315 368.288 C 37.485 370.458,362.251 370.580,364.213 368.412 C 365.449 367.045,365.776 364.191,364.854 362.811 C 363.435 360.685,360.834 360.360,345.254 360.360 L 329.332 360.360 330.432 358.234 C 331.204 356.742,331.532 353.947,331.532 348.865 L 331.532 341.622 307.027 341.622 L 282.523 341.622 282.523 349.389 C 282.523 355.253,282.798 357.549,283.644 358.759 L 284.766 360.360 199.662 360.360 L 114.558 360.360 115.657 358.234 C 116.429 356.742,116.757 353.947,116.757 348.865 L 116.757 341.622 91.892 341.622 L 67.027 341.622 67.031 348.649 " stroke="#000000" fill="none" stroke-width="3" class="EcgNyEAk_0"></path></g><style data-made-with="vivus-instant">.EcgNyEAk_0{stroke-dasharray:3633 3635;stroke-dashoffset:3634;animation:EcgNyEAk_draw_0 4500ms linear 0ms infinite,EcgNyEAk_fade 4500ms linear 0ms infinite;}@keyframes EcgNyEAk_draw{100%{stroke-dashoffset:0;}}@keyframes EcgNyEAk_fade{0%{stroke-opacity:1;}91.11111111111111%{stroke-opacity:1;}100%{stroke-opacity:0;}}@keyframes EcgNyEAk_draw_0{6.666666666666667%{stroke-dashoffset: 3634}73.33333333333333%{ stroke-dashoffset: 0;}100%{ stroke-dashoffset: 0;}}</style></svg>