<svg id="svg" version="1.1" width="400" height="400" xmlns="http://www.w3.org/2000/svg" xmlns:xlink="http://www.w3.org/1999/xlink" style=""><g id="svgg"><path id="path0" d="M262.013 0.765 C 261.299 1.164,260.627 1.559,260.521 1.642 C 260.414 1.726,271.887 26.739,286.014 57.228 C 300.142 87.717,311.583 112.971,311.439 113.348 C 311.295 113.725,306.543 116.159,300.881 118.758 C 295.218 121.357,290.364 123.694,290.096 123.951 C 289.648 124.380,307.224 163.227,308.454 164.527 C 308.908 165.007,356.457 143.586,357.998 142.206 C 358.660 141.614,340.191 101.345,339.245 101.318 C 338.866 101.307,333.786 103.510,327.957 106.212 C 322.128 108.914,317.127 110.887,316.844 110.595 C 316.561 110.304,304.865 85.300,290.852 55.032 C 272.580 15.564,265.083 0.006,264.343 0.020 C 263.776 0.031,262.727 0.366,262.013 0.765 M196.931 31.519 C 171.324 38.416,162.740 70.537,181.495 89.286 C 199.427 107.212,230.741 99.553,238.380 75.372 C 246.456 49.811,222.625 24.599,196.931 31.519 M226.299 107.748 C 224.513 108.789,208.880 119.136,191.558 130.742 L 160.065 151.843 157.935 149.801 C 155.349 147.322,154.739 147.587,151.074 152.769 C 148.875 155.879,148.615 156.581,149.336 157.450 C 149.803 158.013,150.070 158.561,149.930 158.668 C 149.790 158.775,148.684 159.548,147.472 160.386 C 140.942 164.900,131.481 196.122,127.596 225.974 C 125.555 241.655,118.756 247.991,107.543 244.661 C 97.188 241.586,95.656 233.201,100.608 206.694 C 100.929 204.977,101.070 203.450,100.920 203.301 C 100.594 202.975,101.026 202.426,96.498 208.929 C 92.122 215.214,92.987 214.915,88.481 211.688 C 79.848 205.507,75.220 210.542,81.331 219.467 C 82.849 221.684,84.338 223.839,84.640 224.257 C 84.996 224.751,78.304 234.797,65.540 252.930 C 33.063 299.068,34.694 295.904,40.425 301.635 C 47.191 308.400,46.357 308.751,70.589 288.961 C 96.891 267.481,130.353 240.736,140.081 233.420 L 148.322 227.222 160.936 239.836 L 173.549 252.449 164.938 266.504 C 153.089 285.847,152.861 286.836,158.994 292.370 C 163.486 296.424,164.429 295.873,186.169 276.490 L 194.092 269.426 196.811 271.395 C 205.502 277.691,209.656 273.826,204.201 264.519 C 202.189 261.085,201.337 262.537,212.338 250.648 C 224.468 237.538,228.571 232.585,228.571 231.053 C 228.571 228.515,222.037 222.727,219.171 222.727 C 216.510 222.727,216.183 222.894,197.918 233.551 C 191.595 237.241,186.154 240.260,185.827 240.260 C 185.500 240.260,179.781 234.550,173.118 227.571 L 161.003 214.883 164.086 210.877 C 170.688 202.297,203.467 163.237,230.329 131.940 C 242.947 117.239,243.019 117.109,240.997 112.657 C 237.978 106.011,232.448 104.165,226.299 107.748 M169.529 107.849 C 135.655 114.495,111.207 153.129,101.636 215.136 C 98.702 234.149,99.793 239.312,107.347 242.166 C 117.893 246.151,123.500 240.399,125.665 223.377 C 130.594 184.627,143.956 152.038,159.987 139.670 C 164.329 136.320,164.286 136.311,164.286 140.584 C 164.286 142.549,164.566 144.156,164.909 144.156 C 165.455 144.156,218.183 109.114,219.773 107.694 C 220.582 106.971,173.261 107.117,169.529 107.849 M245.455 116.732 C 245.455 119.339,244.757 120.254,226.437 141.700 C 201.201 171.239,181.708 194.407,172.819 205.427 L 165.560 214.425 167.965 217.115 C 169.288 218.595,173.947 223.548,178.318 228.122 L 186.265 236.439 197.341 229.925 C 218.700 217.363,220.550 216.909,226.573 222.754 C 234.727 230.667,234.403 231.647,217.565 249.937 L 208.956 259.289 209.390 263.898 C 209.630 266.432,209.787 269.675,209.741 271.104 C 208.899 296.945,209.198 375.379,210.148 377.884 C 215.042 390.789,232.917 393.843,242.152 383.351 C 247.122 377.705,246.753 387.326,246.753 263.196 C 246.753 202.010,246.872 151.948,247.016 151.948 C 247.161 151.948,249.379 153.242,251.945 154.824 C 267.206 164.234,284.284 165.408,298.833 158.048 L 301.886 156.503 300.988 154.388 C 297.818 146.923,291.572 134.097,291.122 134.129 C 290.827 134.150,288.877 134.988,286.789 135.991 C 275.913 141.215,261.907 134.989,249.898 119.591 C 248.040 117.209,246.280 114.982,245.987 114.643 C 245.694 114.304,245.455 115.244,245.455 116.732 M338.474 124.663 C 343.006 129.691,337.838 137.808,331.448 135.699 C 323.452 133.060,326.070 121.322,334.416 122.391 C 335.882 122.579,337.322 123.385,338.474 124.663 M330.891 126.345 C 328.637 128.599,330.414 133.117,333.554 133.117 C 336.495 133.117,338.155 128.508,335.993 126.345 C 335.431 125.784,334.283 125.325,333.442 125.325 C 332.600 125.325,331.452 125.784,330.891 126.345 M69.156 127.161 C 62.254 130.453,59.904 138.252,63.024 147.512 C 65.299 154.265,68.066 157.589,85.576 174.604 C 101.747 190.318,102.499 191.155,101.596 192.444 C 100.525 193.973,100.373 196.609,101.273 198.033 C 102.107 199.352,102.152 199.239,103.837 191.558 C 105.481 184.068,110.952 166.636,113.388 161.128 C 115.523 156.301,115.998 157.209,105.165 145.395 C 88.810 127.559,78.872 122.526,69.156 127.161 M317.582 132.418 C 321.975 136.810,318.233 144.769,312.157 143.954 C 303.381 142.777,304.033 130.579,312.875 130.534 C 315.125 130.522,316.062 130.897,317.582 132.418 M82.912 133.175 C 86.233 134.783,86.214 134.679,83.865 138.347 C 80.562 143.506,71.855 150.742,70.190 149.712 C 69.080 149.026,67.532 144.870,67.532 142.576 C 67.532 134.400,75.448 129.562,82.912 133.175 M310.390 134.416 C 307.785 137.020,309.354 140.909,313.011 140.909 C 316.256 140.909,317.532 136.048,314.791 134.128 C 312.883 132.792,311.953 132.853,310.390 134.416 M164.286 254.221 C 164.286 260.543,164.582 260.815,167.045 256.758 C 169.268 253.096,169.265 252.607,167.010 250.446 C 164.402 247.948,164.286 248.109,164.286 254.221 M190.584 277.072 C 182.895 284.165,167.741 296.839,166.069 297.575 L 164.250 298.377 164.430 337.013 L 164.610 375.649 166.436 379.366 C 173.196 393.134,193.314 393.257,200.313 379.574 L 202.273 375.743 202.455 326.824 L 202.637 277.905 200.831 277.253 C 199.838 276.894,197.963 276.022,196.665 275.313 C 193.756 273.727,194.419 273.535,190.584 277.072 " stroke="#000000" fill="none" stroke-width="3" class="XNSjMJsG_0"></path></g><style data-made-with="vivus-instant">.XNSjMJsG_0{stroke-dasharray:3484 3486;stroke-dashoffset:3485;animation:XNSjMJsG_draw_0 4500ms linear 0ms infinite,XNSjMJsG_fade 4500ms linear 0ms infinite;}@keyframes XNSjMJsG_draw{100%{stroke-dashoffset:0;}}@keyframes XNSjMJsG_fade{0%{stroke-opacity:1;}91.11111111111111%{stroke-opacity:1;}100%{stroke-opacity:0;}}@keyframes XNSjMJsG_draw_0{6.666666666666667%{stroke-dashoffset: 3485}73.33333333333333%{ stroke-dashoffset: 0;}100%{ stroke-dashoffset: 0;}}</style></svg>