<svg id="svg" version="1.1" width="400" height="400" xmlns="http://www.w3.org/2000/svg" xmlns:xlink="http://www.w3.org/1999/xlink" style=""><g id="svgg"><path id="path0" d="M154.000 30.145 C 135.575 39.555,115.258 50.022,108.852 53.404 L 97.203 59.553 134.780 74.298 C 155.447 82.408,172.665 88.696,173.043 88.272 C 173.420 87.847,176.971 71.750,180.933 52.500 C 184.896 33.250,188.381 16.488,188.678 15.250 C 189.465 11.964,190.316 11.598,154.000 30.145 M198.000 20.246 C 198.000 23.062,211.261 103.635,211.808 104.145 C 212.798 105.068,269.221 127.113,269.606 126.727 C 269.783 126.551,256.608 106.627,240.330 82.453 C 224.052 58.279,207.868 34.228,204.367 29.008 C 200.865 23.787,198.000 19.844,198.000 20.246 M185.728 55.820 C 182.018 73.794,178.986 89.219,178.991 90.098 C 178.997 91.218,182.883 93.201,192.000 96.737 C 200.401 99.996,205.000 101.336,205.000 100.526 C 205.000 98.817,193.054 23.721,192.731 23.397 C 192.589 23.256,189.437 37.846,185.728 55.820 M102.500 71.114 C 113.840 83.574,163.339 135.992,163.541 135.756 C 163.985 135.235,172.110 94.781,171.811 94.578 C 171.485 94.358,102.967 67.609,99.500 66.348 C 98.242 65.891,99.355 67.659,102.500 71.114 M90.963 68.050 C 90.943 68.847,87.216 96.500,82.682 129.500 L 74.438 189.500 78.469 190.175 C 89.219 191.974,150.263 196.193,150.889 195.179 C 151.254 194.588,153.940 182.553,156.858 168.434 L 162.163 142.763 159.245 139.632 C 157.641 137.909,142.009 121.200,124.508 102.500 C 107.007 83.800,92.308 68.073,91.844 67.550 C 91.336 66.978,90.985 67.177,90.963 68.050 M177.000 97.390 C 177.000 97.679,174.979 107.633,172.509 119.510 L 168.019 141.104 193.755 168.473 C 207.911 183.525,219.635 195.698,219.810 195.524 C 220.316 195.017,206.999 110.649,206.170 109.110 C 205.265 107.430,177.000 96.075,177.000 97.390 M213.516 118.750 C 214.198 123.013,217.357 143.150,220.538 163.500 C 223.718 183.850,226.431 200.645,226.566 200.823 C 227.012 201.408,267.487 189.720,268.066 188.839 C 268.522 188.144,273.622 146.001,274.317 137.177 C 274.474 135.179,217.785 111.000,212.943 111.000 C 212.577 111.000,212.835 114.487,213.516 118.750 M161.597 172.015 C 158.901 185.222,156.876 196.209,157.097 196.430 C 157.606 196.938,216.373 201.853,216.860 201.428 C 217.227 201.107,168.192 148.703,167.101 148.251 C 166.770 148.114,164.294 158.807,161.597 172.015 M73.504 197.479 C 72.512 202.268,66.868 245.202,67.189 245.523 C 67.637 245.970,141.992 225.294,143.941 224.180 C 145.354 223.373,150.331 202.998,149.354 202.021 C 147.311 199.978,73.897 195.582,73.504 197.479 M153.500 211.001 C 152.531 215.990,151.977 220.310,152.268 220.601 C 152.783 221.116,206.021 207.313,206.896 206.437 C 207.137 206.197,206.156 206.000,204.717 206.000 C 202.147 206.000,171.914 203.576,160.881 202.486 L 155.262 201.930 153.500 211.001 M203.500 213.397 C 193.050 216.308,176.735 220.859,167.244 223.509 L 149.989 228.328 149.077 231.914 C 146.157 243.395,137.737 282.066,138.085 282.392 C 139.189 283.426,333.270 380.063,333.594 379.740 C 333.799 379.535,337.740 371.072,342.352 360.934 L 350.738 342.500 344.169 335.500 C 332.276 322.825,222.781 207.999,222.639 208.052 C 222.563 208.081,213.950 210.486,203.500 213.397 M107.000 240.433 C 89.125 245.476,73.889 249.820,73.142 250.087 C 72.396 250.353,81.289 254.904,92.905 260.198 L 114.024 269.825 120.687 260.162 C 124.351 254.848,130.239 246.306,133.772 241.181 C 137.304 236.055,140.038 231.727,139.847 231.563 C 139.656 231.399,124.875 235.390,107.000 240.433 M130.750 255.017 C 124.838 263.716,120.000 271.247,120.000 271.753 C 120.000 272.800,132.087 278.246,132.809 277.524 C 133.295 277.038,141.981 239.634,141.672 239.356 C 141.578 239.271,136.662 246.318,130.750 255.017 M56.771 308.842 C 52.581 339.447,49.231 364.550,49.327 364.628 C 49.491 364.763,108.703 278.110,110.224 275.510 C 110.883 274.382,101.351 269.694,69.444 255.454 L 64.389 253.197 56.771 308.842 M94.331 308.291 C 82.688 325.456,67.768 347.407,61.175 357.072 L 49.189 374.644 81.054 382.142 L 112.920 389.640 113.453 387.070 C 113.747 385.657,118.063 362.675,123.045 336.000 C 128.027 309.325,132.314 286.781,132.571 285.902 C 132.979 284.506,118.851 276.875,116.166 277.041 C 115.800 277.064,105.974 291.126,94.331 308.291 " stroke="#000000" fill="none" stroke-width="3" class="kKZuZWyM_0"></path></g><style data-made-with="vivus-instant">.kKZuZWyM_0{stroke-dasharray:3722 3724;stroke-dashoffset:3723;animation:kKZuZWyM_draw_0 4500ms linear 0ms infinite,kKZuZWyM_fade 4500ms linear 0ms infinite;}@keyframes kKZuZWyM_draw{100%{stroke-dashoffset:0;}}@keyframes kKZuZWyM_fade{0%{stroke-opacity:1;}91.11111111111111%{stroke-opacity:1;}100%{stroke-opacity:0;}}@keyframes kKZuZWyM_draw_0{6.666666666666667%{stroke-dashoffset: 3723}73.33333333333333%{ stroke-dashoffset: 0;}100%{ stroke-dashoffset: 0;}}</style></svg>