<svg id="svg" version="1.1" width="400" height="400" xmlns="http://www.w3.org/2000/svg" xmlns:xlink="http://www.w3.org/1999/xlink" style=""><g id="svgg"><path id="path0" d="M141.048 33.768 C 140.280 33.945,138.925 34.540,138.036 35.089 C 136.519 36.026,136.320 36.047,134.766 35.430 C 130.780 33.846,125.603 34.263,121.862 36.468 C 120.682 37.163,119.920 37.279,118.012 37.055 C 114.734 36.670,112.749 37.133,111.263 38.630 C 110.099 39.801,109.688 39.916,106.000 40.091 C 101.420 40.310,98.475 41.382,96.423 43.579 C 95.308 44.772,94.796 44.969,92.569 45.064 C 85.870 45.351,82.380 50.601,84.585 57.073 C 85.230 58.965,85.216 59.253,84.367 61.657 C 83.202 64.956,83.470 68.128,85.155 71.003 C 86.147 72.696,86.351 73.537,86.267 75.594 C 86.157 78.270,86.751 80.136,88.801 83.556 C 89.724 85.096,90.010 86.169,90.044 88.222 C 90.098 91.455,91.177 93.769,93.732 96.129 C 95.135 97.425,95.557 98.143,95.560 99.240 C 95.569 102.336,98.436 106.477,102.485 109.243 C 103.291 109.795,104.443 111.370,105.276 113.063 C 106.897 116.356,108.885 118.058,112.831 119.534 C 115.217 120.426,115.416 120.614,115.898 122.413 C 116.540 124.813,118.166 126.780,120.770 128.306 C 123.109 129.677,123.183 129.565,118.000 132.446 C 100.517 142.164,94.030 151.764,92.469 170.222 C 91.783 178.345,90.398 181.786,86.826 184.246 C 81.685 187.787,76.205 194.800,72.671 202.362 C 63.203 222.625,66.375 246.553,80.541 261.718 C 81.872 263.143,82.716 264.600,83.281 266.444 C 83.730 267.911,85.147 271.911,86.429 275.333 C 87.712 278.756,89.005 282.856,89.304 284.444 C 93.452 306.510,110.689 328.205,127.556 332.588 C 128.167 332.747,130.053 333.998,131.748 335.369 C 138.512 340.839,145.698 344.954,154.256 348.259 C 157.322 349.443,159.027 350.427,160.861 352.073 C 182.297 371.303,217.703 371.303,239.139 352.073 C 240.955 350.443,242.679 349.443,245.634 348.301 C 254.027 345.060,260.345 341.493,267.778 335.799 C 269.896 334.176,272.679 332.544,274.662 331.760 C 292.161 324.844,306.665 305.806,310.710 284.444 C 311.011 282.856,312.301 278.756,313.578 275.333 C 314.854 271.911,316.262 267.911,316.705 266.444 C 317.248 264.650,318.116 263.115,319.361 261.751 C 339.251 239.958,336.068 200.013,313.186 184.254 C 309.601 181.785,308.218 178.354,307.531 170.222 C 305.945 151.462,299.467 141.973,281.596 132.231 C 276.962 129.705,276.878 129.586,278.984 128.502 C 281.428 127.245,283.122 125.261,284.024 122.597 C 284.770 120.393,284.947 120.212,287.058 119.494 C 290.912 118.184,293.108 116.344,294.717 113.077 C 295.741 110.995,296.684 109.794,298.007 108.884 C 301.711 106.336,304.415 102.243,304.435 99.154 C 304.442 97.942,304.802 97.335,306.238 96.106 C 308.791 93.920,309.920 91.487,309.892 88.227 C 309.875 86.282,310.100 85.240,310.727 84.360 C 312.709 81.576,313.828 78.336,313.732 75.661 C 313.655 73.530,313.856 72.692,314.849 70.997 C 316.516 68.153,316.775 64.974,315.611 61.661 C 314.786 59.314,314.765 58.945,315.355 57.271 C 317.777 50.408,313.417 44.354,306.484 44.951 C 305.272 45.056,304.720 44.802,303.636 43.642 C 301.523 41.380,298.618 40.311,294.000 40.096 C 290.459 39.931,289.880 39.784,288.956 38.816 C 287.458 37.246,285.999 36.823,282.457 36.933 C 279.896 37.013,278.825 36.811,276.508 35.811 C 272.546 34.103,269.779 33.903,266.318 35.074 L 263.525 36.020 261.540 34.856 C 258.931 33.327,256.145 33.332,252.668 34.870 C 250.320 35.908,249.851 35.972,247.593 35.562 C 244.701 35.038,243.247 35.357,239.883 37.254 C 238.030 38.299,236.999 38.571,234.825 38.591 C 231.232 38.623,229.401 39.449,226.240 42.464 C 223.811 44.780,223.453 44.969,221.256 45.091 C 213.916 45.496,206.242 52.947,201.685 64.094 C 199.949 68.341,200.043 68.344,198.244 63.987 C 193.561 52.645,185.470 44.937,178.206 44.899 C 176.368 44.890,175.992 44.686,173.983 42.614 C 171.142 39.683,168.592 38.517,165.111 38.557 C 162.935 38.582,162.016 38.345,160.117 37.265 C 156.741 35.345,155.282 35.021,152.557 35.582 C 150.469 36.012,149.936 35.949,147.446 34.974 C 143.894 33.584,142.769 33.372,141.048 33.768 M138.933 52.649 C 141.300 53.495,144.015 54.702,144.967 55.332 C 147.582 57.063,148.569 55.561,146.618 52.821 C 144.737 50.179,147.114 50.949,152.795 54.822 C 157.501 58.030,159.298 57.711,158.516 53.804 C 158.367 53.056,158.400 52.444,158.591 52.444 C 160.073 52.444,166.642 58.359,166.681 59.729 C 166.724 61.227,168.000 58.182,168.000 56.582 C 168.000 54.006,168.232 54.113,171.501 58.189 C 173.054 60.126,174.895 62.257,175.592 62.924 L 176.859 64.137 177.318 62.929 C 177.571 62.264,177.778 61.433,177.778 61.082 C 177.778 58.188,185.349 67.281,188.903 74.444 C 194.367 85.456,193.569 93.610,186.516 98.829 C 183.722 100.896,183.841 100.912,179.237 97.838 C 170.238 91.829,153.640 83.545,152.628 84.557 C 152.553 84.633,154.258 85.988,156.417 87.569 C 165.441 94.177,177.778 106.418,177.778 108.765 C 177.778 110.961,175.215 115.364,172.443 117.930 C 167.055 122.919,160.788 124.844,148.889 125.168 L 141.111 125.380 142.887 123.821 C 145.292 121.709,144.728 121.295,138.802 120.815 C 133.217 120.364,125.595 118.222,129.572 118.222 C 130.344 118.222,132.889 116.869,132.889 116.458 C 132.889 116.327,131.539 115.755,129.889 115.187 C 126.297 113.952,120.444 111.145,120.444 110.658 C 120.444 110.467,121.145 110.330,122.001 110.354 C 124.652 110.429,124.915 109.492,122.537 108.440 C 119.780 107.220,114.353 104.135,112.532 102.752 C 110.851 101.474,111.227 100.911,113.778 100.889 C 117.008 100.861,116.800 100.332,111.829 95.943 C 106.422 91.167,106.364 91.064,109.273 91.409 C 112.383 91.777,112.346 91.160,109.071 88.028 C 104.298 83.464,102.124 79.922,104.696 80.900 C 109.040 82.552,110.491 81.031,107.329 78.141 C 104.981 75.995,102.236 72.033,102.226 70.778 C 102.224 70.394,103.056 70.222,104.919 70.222 C 108.281 70.222,108.146 69.220,103.946 63.005 C 102.998 61.602,102.222 60.352,102.222 60.227 C 102.222 60.102,105.161 60.000,108.754 60.000 L 115.285 60.000 113.865 58.534 C 112.054 56.666,112.070 56.580,114.328 55.972 C 116.581 55.365,120.055 55.695,124.001 56.889 C 127.615 57.983,128.317 57.495,126.230 55.341 C 123.811 52.845,124.240 52.888,136.111 56.323 C 137.485 56.721,136.985 55.195,135.055 53.101 C 132.801 50.657,133.222 50.608,138.933 52.649 M254.137 51.444 C 254.049 51.628,253.604 52.510,253.148 53.404 C 251.649 56.344,252.381 56.644,256.313 54.703 C 260.121 52.823,265.687 50.873,266.091 51.276 C 266.232 51.418,265.620 52.422,264.729 53.508 C 261.950 56.900,261.915 56.889,269.106 54.847 C 275.396 53.061,275.926 53.117,273.770 55.341 C 271.683 57.495,272.385 57.983,275.999 56.889 C 279.945 55.695,283.419 55.365,285.672 55.972 C 287.930 56.580,287.946 56.666,286.135 58.534 L 284.715 60.000 291.246 60.000 C 294.839 60.000,297.778 60.111,297.778 60.247 C 297.778 60.382,297.007 61.632,296.064 63.024 C 291.847 69.254,291.715 70.222,295.081 70.222 C 296.944 70.222,297.776 70.394,297.774 70.778 C 297.765 71.987,295.076 75.903,292.712 78.149 C 289.532 81.172,290.399 82.240,294.969 80.930 C 297.802 80.117,296.365 82.707,291.164 87.789 C 287.593 91.278,287.579 91.778,291.060 91.375 L 293.556 91.086 292.434 92.099 C 291.818 92.656,289.555 94.691,287.406 96.623 C 283.197 100.406,283.102 100.870,286.529 100.882 C 290.359 100.896,288.444 102.793,280.558 106.798 C 275.266 109.486,274.617 110.613,278.556 110.275 C 281.382 110.032,274.851 113.780,269.667 115.376 C 266.442 116.368,266.694 117.110,270.667 118.317 C 272.203 118.783,266.142 120.397,261.383 120.789 C 255.347 121.285,254.932 121.576,257.191 123.716 L 258.889 125.326 253.333 125.327 C 240.843 125.330,232.590 122.876,227.301 117.587 C 224.551 114.837,222.222 110.784,222.222 108.747 C 222.222 106.189,236.219 92.608,245.889 85.784 C 247.050 84.964,248.000 84.248,248.000 84.193 C 248.000 84.020,240.355 86.962,237.721 88.148 C 233.860 89.886,227.402 93.563,221.819 97.202 C 215.991 101.001,215.885 101.009,212.473 97.942 C 206.494 92.566,205.956 84.981,210.838 74.889 C 214.236 67.865,222.222 58.179,222.222 61.082 C 222.222 61.433,222.429 62.264,222.682 62.929 L 223.141 64.137 224.348 62.977 C 225.012 62.339,226.856 60.215,228.444 58.257 C 231.801 54.121,232.000 54.027,232.000 56.582 C 232.000 58.182,233.276 61.227,233.319 59.729 C 233.358 58.369,239.924 52.444,241.392 52.444 C 241.574 52.444,241.607 53.152,241.467 54.018 C 241.265 55.261,241.421 55.814,242.214 56.658 L 243.218 57.726 245.586 55.938 C 249.075 53.304,254.649 50.374,254.137 51.444 M208.276 132.484 C 224.229 136.388,234.356 147.536,229.961 156.356 C 222.467 171.394,178.778 171.672,170.211 156.736 C 164.871 147.425,176.123 135.939,194.667 131.773 C 198.299 130.957,203.048 131.205,208.276 132.484 M156.301 137.365 C 158.213 137.626,160.053 138.109,160.390 138.437 C 164.938 142.871,121.439 180.945,110.040 182.508 C 106.969 182.929,106.455 181.795,106.854 175.489 C 108.485 149.707,129.287 133.668,156.301 137.365 M262.222 138.239 C 280.791 142.579,291.914 156.011,293.153 175.590 C 293.537 181.660,292.995 182.917,290.157 182.536 C 278.609 180.988,235.061 142.971,239.616 138.416 C 241.343 136.689,255.130 136.581,262.222 138.239 M168.526 173.559 C 193.302 178.667,198.728 213.301,177.713 232.196 C 161.399 246.864,137.448 245.818,128.753 230.058 C 114.313 203.886,139.828 167.643,168.526 173.559 M243.908 173.593 C 270.900 179.141,285.130 215.383,267.822 234.502 C 255.495 248.118,230.435 244.155,217.299 226.513 C 198.244 200.922,214.975 167.647,243.908 173.593 M104.952 194.505 C 114.170 203.337,105.819 250.424,95.034 250.424 C 91.809 250.424,86.864 243.962,84.169 236.228 C 78.770 220.734,83.502 204.838,96.212 195.769 C 100.758 192.525,102.606 192.257,104.952 194.505 M302.746 195.103 C 316.043 203.832,321.172 219.560,315.994 235.725 C 314.044 241.812,309.121 249.205,306.302 250.276 C 295.221 254.489,285.077 203.525,295.179 194.390 C 297.462 192.325,298.692 192.441,302.746 195.103 M210.000 243.975 C 252.046 254.885,238.513 311.084,195.111 305.803 C 154.298 300.836,154.117 249.504,194.889 242.954 C 197.830 242.481,206.502 243.068,210.000 243.975 M125.000 258.116 C 150.567 270.785,165.805 309.466,147.475 315.170 C 132.554 319.814,111.394 305.792,106.571 288.064 C 104.069 278.867,106.435 262.309,110.823 258.312 C 114.157 255.274,119.126 255.205,125.000 258.116 M287.415 256.977 C 294.201 260.366,296.809 280.602,291.960 292.249 C 281.976 316.232,246.051 325.455,244.546 304.422 C 242.984 282.587,272.744 249.650,287.415 256.977 M214.522 319.778 C 232.345 321.984,235.187 327.450,224.311 338.604 C 209.169 354.132,190.072 353.773,174.861 337.674 C 166.651 328.984,167.354 324.410,177.378 321.306 C 184.210 319.191,203.404 318.401,214.522 319.778 " stroke="#000000" fill="none" stroke-width="3" class="oBlEMtig_0"></path></g><style data-made-with="vivus-instant">.oBlEMtig_0{stroke-dasharray:3812 3814;stroke-dashoffset:3813;animation:oBlEMtig_draw_0 4500ms linear 0ms infinite,oBlEMtig_fade 4500ms linear 0ms infinite;}@keyframes oBlEMtig_draw{100%{stroke-dashoffset:0;}}@keyframes oBlEMtig_fade{0%{stroke-opacity:1;}91.11111111111111%{stroke-opacity:1;}100%{stroke-opacity:0;}}@keyframes oBlEMtig_draw_0{6.666666666666667%{stroke-dashoffset: 3813}73.33333333333333%{ stroke-dashoffset: 0;}100%{ stroke-dashoffset: 0;}}</style></svg>