<svg id="svg" version="1.1" width="400" height="400" xmlns="http://www.w3.org/2000/svg" xmlns:xlink="http://www.w3.org/1999/xlink" style=""><g id="svgg"><path id="path0" d="M126.042 52.241 C 86.471 76.523,53.773 96.713,53.379 97.107 C 52.871 97.614,95.225 97.822,199.005 97.822 C 322.465 97.822,345.192 97.680,344.365 96.911 C 342.531 95.207,199.815 8.040,198.900 8.065 C 198.400 8.079,165.613 27.958,126.042 52.241 M207.439 38.456 C 223.092 45.745,223.338 67.901,207.849 75.507 C 202.410 78.178,195.594 78.185,190.177 75.524 C 170.622 65.921,177.250 36.864,198.995 36.864 C 202.879 36.864,204.796 37.225,207.439 38.456 M22.781 122.948 L 22.781 136.013 31.156 136.013 L 39.531 136.013 39.531 143.049 L 39.531 150.084 45.226 150.084 L 50.921 150.084 50.921 239.196 L 50.921 328.308 45.226 328.308 L 39.531 328.308 39.531 335.343 L 39.531 342.379 31.156 342.379 L 22.781 342.379 22.781 355.109 L 22.781 367.839 15.745 367.839 L 8.710 367.839 8.710 380.905 L 8.710 393.970 199.330 393.970 L 389.950 393.970 389.950 380.905 L 389.950 367.839 382.580 367.839 L 375.209 367.839 375.209 355.109 L 375.209 342.379 366.834 342.379 L 358.459 342.379 358.459 335.343 L 358.459 328.308 352.764 328.308 L 347.069 328.308 347.069 239.196 L 347.069 150.084 352.764 150.084 L 358.459 150.084 358.459 143.049 L 358.459 136.013 366.834 136.013 L 375.209 136.013 375.209 122.948 L 375.209 109.883 198.995 109.883 L 22.781 109.883 22.781 122.948 M125.293 143.049 L 125.293 150.084 130.988 150.084 L 136.683 150.084 136.683 239.196 L 136.683 328.308 130.988 328.308 L 125.293 328.308 125.293 335.343 L 125.293 342.379 113.233 342.379 L 101.173 342.379 101.173 335.343 L 101.173 328.308 95.477 328.308 L 89.782 328.308 89.782 239.196 L 89.782 150.084 95.477 150.084 L 101.173 150.084 101.173 143.049 L 101.173 136.013 113.233 136.013 L 125.293 136.013 125.293 143.049 M211.055 143.049 L 211.055 150.084 217.085 150.084 L 223.116 150.084 223.116 239.196 L 223.116 328.308 217.420 328.308 L 211.725 328.308 211.725 335.343 L 211.725 342.379 199.330 342.379 L 186.935 342.379 186.935 335.343 L 186.935 328.308 180.905 328.308 L 174.874 328.308 174.874 239.196 L 174.874 150.084 180.570 150.084 L 186.265 150.084 186.265 143.049 L 186.265 136.013 198.660 136.013 L 211.055 136.013 211.055 143.049 M296.817 143.049 L 296.817 150.084 302.513 150.084 L 308.208 150.084 308.208 239.196 L 308.208 328.308 302.513 328.308 L 296.817 328.308 296.817 335.343 L 296.817 342.379 284.757 342.379 L 272.697 342.379 272.697 335.343 L 272.697 328.308 267.002 328.308 L 261.307 328.308 261.307 239.196 L 261.307 150.084 267.002 150.084 L 272.697 150.084 272.697 143.049 L 272.697 136.013 284.757 136.013 L 296.817 136.013 296.817 143.049 " stroke="#000000" fill="none" stroke-width="3" class="foEfIrgK_0"></path></g><style data-made-with="vivus-instant">.foEfIrgK_0{stroke-dasharray:3726 3728;stroke-dashoffset:3727;animation:foEfIrgK_draw_0 4500ms linear 0ms infinite,foEfIrgK_fade 4500ms linear 0ms infinite;}@keyframes foEfIrgK_draw{100%{stroke-dashoffset:0;}}@keyframes foEfIrgK_fade{0%{stroke-opacity:1;}91.11111111111111%{stroke-opacity:1;}100%{stroke-opacity:0;}}@keyframes foEfIrgK_draw_0{6.666666666666667%{stroke-dashoffset: 3727}73.33333333333333%{ stroke-dashoffset: 0;}100%{ stroke-dashoffset: 0;}}</style></svg>