<svg id="svg" version="1.1" width="400" height="427.79999999999995" viewBox="0 0 400 427.79999999999995" xmlns="http://www.w3.org/2000/svg" xmlns:xlink="http://www.w3.org/1999/xlink" style=""><g id="svgg"><path id="path0" d="M142.389 115.119 C 95.590 142.134,57.232 164.302,57.149 164.380 C 57.067 164.457,57.022 179.207,57.049 197.157 L 57.100 229.793 113.900 197.003 L 170.700 164.213 170.751 197.023 C 170.778 215.068,170.876 229.803,170.967 229.766 C 171.059 229.730,183.838 222.365,199.366 213.400 L 227.598 197.100 227.599 131.550 C 227.600 95.498,227.572 66.000,227.539 66.000 C 227.505 66.000,189.187 88.104,142.389 115.119 M370.129 115.099 C 354.635 124.044,341.877 131.443,341.778 131.542 C 341.673 131.647,341.620 145.289,341.649 164.334 L 341.700 196.946 369.892 180.671 C 385.397 171.720,398.155 164.325,398.242 164.238 C 398.330 164.150,398.378 149.399,398.351 131.457 L 398.300 98.836 370.129 115.099 M256.200 246.599 L 227.900 262.939 227.849 295.682 C 227.822 313.690,227.867 328.385,227.949 328.337 C 228.032 328.289,240.700 320.982,256.100 312.099 C 271.500 303.217,284.213 295.845,284.351 295.717 C 284.550 295.532,284.591 288.799,284.551 262.871 L 284.500 230.258 256.200 246.599 M170.800 361.513 L 170.800 427.036 171.983 426.368 C 172.634 426.001,185.411 418.635,200.378 410.000 L 227.589 394.300 227.591 361.500 L 227.592 328.700 199.873 312.700 C 184.627 303.900,171.849 296.540,171.477 296.345 L 170.800 295.990 170.800 361.513 " stroke="#000000" fill="none" stroke-width="3" class="rqfXFZEx_0"></path><path id="path1" d="M224.200 2.150 C 222.385 3.206,219.775 4.717,218.400 5.509 C 217.025 6.300,214.145 7.963,212.000 9.204 C 207.340 11.900,202.422 14.739,199.000 16.709 C 197.625 17.500,194.745 19.163,192.600 20.404 C 190.455 21.646,187.215 23.517,185.400 24.562 C 180.002 27.672,177.315 29.223,173.200 31.604 C 171.055 32.846,167.815 34.717,166.000 35.762 C 164.185 36.808,161.575 38.311,160.200 39.104 C 158.825 39.896,156.890 41.016,155.900 41.593 C 154.910 42.169,153.740 42.846,153.300 43.096 C 152.860 43.346,151.960 43.863,151.300 44.244 C 149.117 45.507,143.340 48.840,140.800 50.304 C 139.425 51.096,137.490 52.216,136.500 52.793 C 135.510 53.369,134.340 54.046,133.900 54.296 C 133.460 54.546,132.560 55.063,131.900 55.444 C 129.717 56.707,123.940 60.040,121.400 61.504 C 120.025 62.296,118.090 63.416,117.100 63.993 C 116.110 64.569,114.940 65.246,114.500 65.496 C 113.552 66.035,112.242 66.790,108.600 68.897 C 107.115 69.757,104.460 71.290,102.700 72.304 C 100.940 73.319,98.690 74.620,97.700 75.195 C 96.710 75.771,95.540 76.446,95.100 76.696 C 94.660 76.947,92.545 78.166,90.400 79.406 C 88.255 80.646,85.060 82.491,83.300 83.505 C 81.540 84.519,79.290 85.820,78.300 86.395 C 77.310 86.971,76.140 87.646,75.700 87.896 C 75.260 88.147,73.145 89.366,71.000 90.606 C 65.735 93.649,61.016 96.373,58.000 98.109 C 56.625 98.900,53.745 100.563,51.600 101.804 C 46.940 104.500,42.022 107.339,38.600 109.309 C 37.225 110.100,34.345 111.763,32.200 113.004 C 26.877 116.084,22.188 118.790,19.200 120.506 C 17.825 121.295,15.260 122.776,13.500 123.795 C 11.740 124.815,8.815 126.505,7.000 127.552 C -0.705 131.994,-0.039 131.327,2.047 132.510 C 4.805 134.074,5.232 134.319,7.100 135.405 C 8.090 135.980,10.340 137.281,12.100 138.295 C 13.860 139.309,17.055 141.155,19.200 142.396 C 21.345 143.637,24.225 145.300,25.600 146.091 C 29.022 148.061,33.940 150.900,38.600 153.596 C 40.745 154.837,43.625 156.502,45.000 157.295 C 49.623 159.961,54.291 162.657,55.500 163.357 C 56.160 163.740,56.790 164.056,56.900 164.059 C 57.119 164.066,57.737 163.720,64.400 159.863 C 66.875 158.430,70.385 156.403,72.200 155.357 C 76.084 153.121,77.767 152.149,83.800 148.660 C 86.275 147.229,89.785 145.203,91.600 144.157 C 95.484 141.921,97.167 140.949,103.200 137.460 C 105.675 136.029,109.185 134.003,111.000 132.957 C 114.982 130.664,116.741 129.649,122.600 126.259 C 125.075 124.828,128.270 122.982,129.700 122.159 C 131.130 121.335,135.495 118.815,139.400 116.559 C 143.305 114.304,147.670 111.784,149.100 110.959 C 150.530 110.135,158.135 105.745,166.000 101.203 C 173.865 96.661,181.740 92.116,183.500 91.101 C 185.260 90.087,187.555 88.763,188.600 88.159 C 191.131 86.696,202.783 79.974,206.300 77.948 C 207.840 77.061,209.820 75.912,210.700 75.394 C 211.580 74.876,214.775 73.031,217.800 71.294 C 220.825 69.556,224.269 67.565,225.452 66.868 C 228.026 65.352,227.374 65.353,229.948 66.864 C 232.446 68.331,233.393 68.881,234.500 69.507 C 234.940 69.755,236.110 70.429,237.100 71.005 C 238.090 71.580,240.340 72.881,242.100 73.895 C 243.860 74.909,247.055 76.755,249.200 77.996 C 251.345 79.237,254.225 80.900,255.600 81.691 C 259.022 83.661,263.940 86.500,268.600 89.196 C 270.745 90.437,273.625 92.101,275.000 92.893 C 276.375 93.686,279.570 95.529,282.100 96.990 C 284.630 98.450,287.060 99.851,287.500 100.102 C 287.940 100.353,289.110 101.029,290.100 101.605 C 291.090 102.180,293.340 103.481,295.100 104.495 C 296.860 105.509,300.055 107.355,302.200 108.596 C 304.345 109.837,307.225 111.500,308.600 112.291 C 312.022 114.261,316.940 117.100,321.600 119.796 C 323.745 121.037,326.625 122.702,328.000 123.495 C 331.329 125.415,337.008 128.693,338.500 129.556 C 341.924 131.535,341.308 131.451,343.421 130.231 C 344.345 129.698,348.295 127.416,352.200 125.160 C 358.854 121.316,360.938 120.113,367.200 116.501 C 384.236 106.676,386.377 105.440,391.100 102.700 C 392.640 101.807,394.822 100.544,395.950 99.893 C 397.077 99.242,398.000 98.654,398.000 98.587 C 398.000 98.520,396.628 97.671,394.950 96.701 C 393.273 95.730,390.865 94.335,389.600 93.600 C 388.335 92.865,384.825 90.843,381.800 89.106 C 378.775 87.369,375.580 85.524,374.700 85.006 C 373.820 84.488,371.840 83.339,370.300 82.452 C 366.783 80.426,355.131 73.704,352.600 72.241 C 351.555 71.637,349.215 70.288,347.400 69.243 C 345.585 68.197,342.075 66.171,339.600 64.740 C 337.125 63.310,333.975 61.490,332.600 60.698 C 327.933 58.007,324.714 56.149,317.600 52.041 C 313.695 49.785,309.330 47.265,307.900 46.441 C 305.613 45.122,294.525 38.719,289.200 35.641 C 288.155 35.037,285.815 33.688,284.000 32.643 C 282.185 31.597,278.675 29.571,276.200 28.140 C 270.167 24.651,268.484 23.679,264.600 21.443 C 262.785 20.397,259.275 18.371,256.800 16.940 C 254.325 15.510,251.175 13.690,249.800 12.898 C 245.864 10.629,242.433 8.649,234.848 4.271 C 230.969 2.032,227.729 0.207,227.648 0.215 C 227.567 0.223,226.015 1.094,224.200 2.150 M223.000 200.032 C 220.525 201.468,217.600 203.159,216.500 203.791 C 215.400 204.423,212.970 205.824,211.100 206.905 C 209.230 207.986,206.575 209.518,205.200 210.310 C 198.991 213.888,197.257 214.888,193.600 217.003 C 191.455 218.243,188.530 219.934,187.100 220.759 C 185.670 221.584,183.015 223.117,181.200 224.165 C 177.555 226.269,173.165 228.797,171.849 229.549 L 170.997 230.036 174.649 232.142 C 176.657 233.300,178.660 234.452,179.100 234.703 C 179.540 234.954,180.710 235.631,181.700 236.207 C 182.690 236.784,184.625 237.904,186.000 238.696 C 188.540 240.160,194.317 243.493,196.500 244.756 C 197.160 245.137,198.060 245.654,198.500 245.904 C 198.940 246.154,200.110 246.831,201.100 247.407 C 202.090 247.984,204.025 249.104,205.400 249.896 C 206.775 250.689,209.385 252.192,211.200 253.238 C 213.015 254.283,216.255 256.154,218.400 257.396 C 226.377 262.012,227.505 262.649,227.700 262.652 C 227.873 262.654,230.385 261.230,238.900 256.302 C 240.928 255.129,252.233 248.607,256.500 246.148 C 258.040 245.261,260.020 244.112,260.900 243.594 C 261.780 243.076,264.975 241.229,268.000 239.491 C 271.025 237.752,274.760 235.597,276.300 234.701 C 277.840 233.805,280.248 232.413,281.650 231.608 C 283.053 230.804,284.197 230.090,284.193 230.022 C 284.189 229.955,282.907 229.167,281.343 228.270 C 278.865 226.850,263.807 218.168,258.400 215.042 C 257.355 214.437,255.015 213.088,253.200 212.043 C 251.385 210.997,247.875 208.971,245.400 207.540 C 242.925 206.110,239.775 204.290,238.400 203.498 C 237.025 202.705,235.045 201.562,234.000 200.957 C 228.937 198.026,227.820 197.401,227.666 197.411 C 227.575 197.417,225.475 198.596,223.000 200.032 " stroke="#000000" fill="none" stroke-width="3" class="rqfXFZEx_1"></path><path id="path2" d="M227.849 98.692 L 227.900 131.418 284.373 164.024 C 315.434 181.958,340.971 196.678,341.123 196.737 C 341.358 196.827,341.400 191.903,341.398 164.171 L 341.395 131.500 284.762 98.800 C 253.613 80.815,228.054 66.070,227.963 66.033 C 227.873 65.996,227.822 80.693,227.849 98.692 M0.049 164.332 L 0.100 197.089 28.400 213.425 L 56.700 229.761 56.751 197.141 C 56.778 179.200,56.732 164.452,56.647 164.367 C 56.562 164.282,43.895 156.939,28.497 148.049 C 13.098 139.159,0.387 131.816,0.249 131.731 C 0.049 131.607,0.009 138.126,0.049 164.332 M142.250 180.932 L 114.000 197.241 114.000 295.770 L 114.001 394.300 142.250 410.608 L 170.500 426.917 170.550 361.258 C 170.578 325.146,170.631 295.600,170.669 295.600 C 170.707 295.600,183.509 302.974,199.119 311.986 L 227.500 328.372 227.551 295.736 C 227.599 265.360,227.580 263.083,227.267 262.853 C 227.082 262.716,214.257 255.291,198.767 246.353 L 170.605 230.100 170.552 197.362 L 170.500 164.623 142.250 180.932 " stroke="#000000" fill="none" stroke-width="3" class="rqfXFZEx_2"></path></g><style data-made-with="vivus-instant">.rqfXFZEx_0{stroke-dasharray:1506 1508;stroke-dashoffset:1507;animation:rqfXFZEx_draw_0 4500ms linear 0ms infinite,rqfXFZEx_fade 4500ms linear 0ms infinite;}.rqfXFZEx_1{stroke-dasharray:1180 1182;stroke-dashoffset:1181;animation:rqfXFZEx_draw_1 4500ms linear 0ms infinite,rqfXFZEx_fade 4500ms linear 0ms infinite;}.rqfXFZEx_2{stroke-dasharray:1375 1377;stroke-dashoffset:1376;animation:rqfXFZEx_draw_2 4500ms linear 0ms infinite,rqfXFZEx_fade 4500ms linear 0ms infinite;}@keyframes rqfXFZEx_draw{100%{stroke-dashoffset:0;}}@keyframes rqfXFZEx_fade{0%{stroke-opacity:1;}91.11111111111111%{stroke-opacity:1;}100%{stroke-opacity:0;}}@keyframes rqfXFZEx_draw_0{6.666666666666667%{stroke-dashoffset: 1507}73.33333333333333%{ stroke-dashoffset: 0;}100%{ stroke-dashoffset: 0;}}@keyframes rqfXFZEx_draw_1{6.666666666666667%{stroke-dashoffset: 1181}73.33333333333333%{ stroke-dashoffset: 0;}100%{ stroke-dashoffset: 0;}}@keyframes rqfXFZEx_draw_2{6.666666666666667%{stroke-dashoffset: 1376}73.33333333333333%{ stroke-dashoffset: 0;}100%{ stroke-dashoffset: 0;}}</style></svg>