<svg id="svg" version="1.1" width="400" height="400" xmlns="http://www.w3.org/2000/svg" xmlns:xlink="http://www.w3.org/1999/xlink" style=""><g id="svgg"><path id="path0" d="M177.949 66.615 L 176.000 68.564 176.000 78.449 L 176.000 88.333 159.500 90.909 C 150.425 92.325,142.393 93.615,141.651 93.776 C 140.752 93.971,138.415 92.694,134.651 89.948 C 94.754 60.850,38.549 76.771,21.568 121.982 C 17.543 132.696,17.899 129.983,9.063 217.333 C 2.990 277.371,3.055 276.489,3.974 286.424 C 7.114 320.387,25.338 336.518,59.000 335.128 C 82.567 334.156,98.382 324.631,116.202 300.678 C 126.679 286.594,145.382 262.766,147.372 260.965 C 149.648 258.905,250.385 258.935,252.663 260.996 C 254.631 262.778,272.968 286.159,283.817 300.721 C 302.295 325.522,319.337 335.309,344.079 335.328 C 375.855 335.353,392.832 319.345,396.040 286.333 C 396.928 277.194,396.903 276.853,391.277 221.000 C 383.812 146.898,382.676 136.876,380.998 130.261 C 367.904 78.643,307.954 58.463,264.055 90.896 C 260.812 93.291,259.359 93.978,258.055 93.733 C 257.108 93.556,249.059 92.268,240.168 90.872 L 224.003 88.333 224.001 78.449 L 224.000 68.564 222.051 66.615 L 220.103 64.667 200.000 64.667 L 179.897 64.667 177.949 66.615 M309.185 144.371 C 310.930 145.593,311.520 164.213,309.867 165.867 C 308.552 167.181,289.726 166.964,288.381 165.619 C 287.015 164.253,286.832 146.886,288.167 145.204 C 289.884 143.039,306.352 142.387,309.185 144.371 M116.233 148.582 C 117.188 149.376,117.333 151.247,117.333 162.748 L 117.333 176.000 130.585 176.000 C 146.980 176.000,145.667 174.942,145.667 188.156 C 145.667 200.947,146.903 200.000,130.206 200.000 L 117.333 200.000 117.333 213.252 C 117.333 229.633,118.367 228.333,105.333 228.333 C 92.300 228.333,93.333 229.633,93.333 213.252 L 93.333 200.000 80.038 200.000 C 63.547 200.000,64.667 200.874,64.667 188.000 C 64.667 175.126,63.549 176.000,80.024 176.000 L 93.306 176.000 93.486 162.519 L 93.667 149.038 95.333 148.169 C 97.669 146.952,114.677 147.287,116.233 148.582 M276.518 177.038 C 278.929 178.726,278.803 197.443,276.370 199.037 C 273.782 200.733,256.941 200.194,255.612 198.373 C 254.346 196.640,254.253 179.443,255.500 177.871 C 257.217 175.706,273.685 175.053,276.518 177.038 M341.163 176.419 C 344.569 177.332,345.351 196.092,342.093 198.727 C 340.497 200.018,326.769 200.635,322.875 199.591 C 319.006 198.553,318.711 177.465,322.552 176.450 C 324.277 175.993,339.481 175.968,341.163 176.419 M309.867 210.133 C 311.631 211.898,310.917 230.472,309.037 231.704 C 306.448 233.400,289.608 232.861,288.278 231.039 C 286.842 229.072,286.928 211.834,288.381 210.381 C 289.726 209.036,308.552 208.819,309.867 210.133 " stroke="#000000" fill="none" stroke-width="3" class="IannfKvl_0"></path></g><style data-made-with="vivus-instant">.IannfKvl_0{stroke-dasharray:1945 1947;stroke-dashoffset:1946;animation:IannfKvl_draw_0 4500ms linear 0ms infinite,IannfKvl_fade 4500ms linear 0ms infinite;}@keyframes IannfKvl_draw{100%{stroke-dashoffset:0;}}@keyframes IannfKvl_fade{0%{stroke-opacity:1;}91.11111111111111%{stroke-opacity:1;}100%{stroke-opacity:0;}}@keyframes IannfKvl_draw_0{6.666666666666667%{stroke-dashoffset: 1946}73.33333333333333%{ stroke-dashoffset: 0;}100%{ stroke-dashoffset: 0;}}</style></svg>
