<svg id="svg" version="1.1" width="400" height="400" xmlns="http://www.w3.org/2000/svg" xmlns:xlink="http://www.w3.org/1999/xlink" style=""><g id="svgg"><path id="path0" d="M256.316 20.726 C 215.066 31.789,181.012 40.950,180.641 41.084 C 180.270 41.218,174.912 50.206,168.735 61.058 L 157.504 80.789 134.570 80.578 L 111.635 80.367 55.818 136.067 C 25.118 166.702,-0.000 192.052,0.000 192.402 C 0.000 192.751,25.134 217.992,55.854 248.492 L 111.707 303.947 134.641 303.947 L 157.575 303.947 168.823 323.703 L 180.070 343.458 254.377 363.313 C 329.320 383.337,333.283 384.281,333.884 382.237 C 334.034 381.730,343.195 347.644,354.244 306.489 L 374.332 231.663 362.886 212.279 C 356.590 201.618,351.431 192.655,351.421 192.362 C 351.412 192.069,356.564 183.087,362.871 172.403 L 374.338 152.977 353.880 76.756 C 335.257 7.376,333.327 0.539,332.368 0.574 C 331.789 0.595,297.566 9.664,256.316 20.726 M276.725 59.605 C 276.304 60.257,261.329 86.072,243.446 116.974 L 210.933 173.158 144.287 173.158 L 77.641 173.158 88.956 161.711 C 95.179 155.414,106.905 143.513,115.014 135.263 C 123.122 127.013,136.970 112.948,145.787 104.007 L 161.818 87.751 218.672 73.128 C 280.285 57.282,277.860 57.847,276.725 59.605 M326.827 134.388 C 335.559 165.604,342.734 191.549,342.772 192.042 C 342.833 192.858,310.968 307.493,310.755 307.222 C 309.892 306.124,244.563 192.726,244.562 192.324 C 244.561 191.754,310.638 77.298,310.842 77.516 C 310.902 77.580,318.095 103.172,326.827 134.388 M244.245 268.936 C 262.427 300.338,277.230 326.103,277.141 326.193 C 277.023 326.310,192.882 304.919,163.620 297.332 C 161.964 296.903,80.675 215.389,78.758 212.235 C 78.437 211.707,91.641 211.602,144.772 211.708 L 211.187 211.842 244.245 268.936 " stroke="#000000" fill="none" stroke-width="3" class="WpuIpOuO_0"></path></g><style data-made-with="vivus-instant">.WpuIpOuO_0{stroke-dasharray:2731 2733;stroke-dashoffset:2732;animation:WpuIpOuO_draw_0 4500ms linear 0ms infinite,WpuIpOuO_fade 4500ms linear 0ms infinite;}@keyframes WpuIpOuO_draw{100%{stroke-dashoffset:0;}}@keyframes WpuIpOuO_fade{0%{stroke-opacity:1;}91.11111111111111%{stroke-opacity:1;}100%{stroke-opacity:0;}}@keyframes WpuIpOuO_draw_0{6.666666666666667%{stroke-dashoffset: 2732}73.33333333333333%{ stroke-dashoffset: 0;}100%{ stroke-dashoffset: 0;}}</style></svg>