<svg id="svg" version="1.1" width="400" height="400" xmlns="http://www.w3.org/2000/svg" xmlns:xlink="http://www.w3.org/1999/xlink" style=""><g id="svgg"><path id="path0" d="M222.658 1.606 C 210.076 4.859,197.507 13.293,190.411 23.245 L 189.082 25.108 184.042 24.067 C 125.431 11.961,103.404 96.741,160.526 114.578 L 165.461 116.118 236.842 116.118 L 308.224 116.118 312.675 114.581 C 349.836 101.746,340.808 46.499,301.534 46.399 L 294.844 46.382 293.689 42.105 C 285.613 12.220,253.163 -6.282,222.658 1.606 M169.566 203.572 C 166.004 204.843,167.161 203.546,140.461 236.184 C 126.969 252.676,115.528 266.474,115.037 266.846 C 114.546 267.218,97.418 269.531,76.974 271.986 C 31.322 277.468,32.514 277.193,29.590 282.924 C 27.636 286.754,27.563 350.300,29.509 353.958 C 32.292 359.190,34.952 360.168,47.096 360.429 L 57.895 360.662 57.899 357.798 C 57.936 335.158,80.280 313.816,103.947 313.816 C 127.789 313.816,150.000 335.220,150.000 358.196 L 150.000 360.526 199.586 360.526 L 249.172 360.526 249.639 355.787 C 252.278 329.007,277.917 309.631,303.970 314.729 C 323.801 318.609,339.798 336.212,341.278 355.781 L 341.646 360.639 355.248 360.418 C 378.510 360.041,377.060 363.255,376.824 312.609 L 376.645 273.910 374.802 271.494 C 371.364 266.988,370.603 266.814,352.705 266.447 L 336.661 266.118 318.036 236.842 C 298.871 206.717,297.225 204.517,292.963 203.334 C 288.912 202.209,172.757 202.433,169.566 203.572 M295.592 246.467 C 302.394 257.180,307.845 266.059,307.705 266.198 C 307.565 266.338,271.393 266.377,227.322 266.286 L 147.194 266.118 163.201 246.546 L 179.207 226.974 231.215 226.982 L 283.224 226.990 295.592 246.467 M95.144 325.732 C 72.776 330.983,61.578 359.352,74.250 378.666 C 93.620 408.190,138.900 395.023,138.800 359.895 C 138.733 336.752,117.842 320.403,95.144 325.732 M285.979 325.988 C 259.819 333.179,251.700 367.223,271.723 385.762 C 294.057 406.439,330.501 390.384,330.501 359.868 C 330.501 336.743,308.303 319.851,285.979 325.988 M108.091 349.573 C 110.971 350.777,114.313 354.725,114.843 357.552 C 117.029 369.201,101.492 375.997,94.913 366.269 C 88.747 357.152,98.042 345.375,108.091 349.573 M300.459 350.063 C 308.285 353.852,308.559 365.005,300.936 369.472 C 290.383 375.657,278.973 362.023,287.027 352.851 C 290.783 348.573,295.401 347.615,300.459 350.063 " stroke="#000000" fill="none" stroke-width="3" class="xdQsNnpj_0"></path></g><style data-made-with="vivus-instant">.xdQsNnpj_0{stroke-dasharray:2510 2512;stroke-dashoffset:2511;animation:xdQsNnpj_draw_0 4500ms linear 0ms infinite,xdQsNnpj_fade 4500ms linear 0ms infinite;}@keyframes xdQsNnpj_draw{100%{stroke-dashoffset:0;}}@keyframes xdQsNnpj_fade{0%{stroke-opacity:1;}91.11111111111111%{stroke-opacity:1;}100%{stroke-opacity:0;}}@keyframes xdQsNnpj_draw_0{6.666666666666667%{stroke-dashoffset: 2511}73.33333333333333%{ stroke-dashoffset: 0;}100%{ stroke-dashoffset: 0;}}</style></svg>
