<svg id="svg" version="1.1" width="400" height="400" xmlns="http://www.w3.org/2000/svg" xmlns:xlink="http://www.w3.org/1999/xlink" style=""><g id="svgg"><path id="path0" d="M193.000 66.638 C 148.383 70.059,112.063 90.853,88.618 126.400 C 30.122 215.088,93.773 333.357,200.000 333.357 C 297.895 333.357,362.066 232.297,320.835 143.059 C 298.596 94.926,244.650 62.677,193.000 66.638 M215.113 75.797 C 310.515 87.775,357.592 198.292,299.966 275.000 C 241.172 353.263,119.496 336.627,83.475 245.400 C 49.020 158.138,122.003 64.107,215.113 75.797 M187.200 89.408 C 155.436 93.365,127.872 109.672,109.379 135.447 C 108.181 137.117,107.200 138.645,107.200 138.842 C 107.200 139.306,121.586 139.282,129.600 138.805 C 133.010 138.602,138.083 138.311,140.872 138.159 L 145.945 137.883 147.172 139.111 C 149.691 141.629,148.297 145.950,144.760 146.585 C 144.012 146.720,140.763 147.048,137.540 147.315 L 131.680 147.800 151.936 208.100 C 163.076 241.265,172.284 268.400,172.398 268.400 C 172.512 268.400,178.082 251.961,184.777 231.869 L 196.949 195.337 188.422 171.969 C 183.731 159.116,179.821 148.408,179.732 148.172 C 179.640 147.930,177.100 147.529,173.885 147.249 C 164.521 146.433,162.673 145.219,164.139 140.851 C 165.117 137.934,165.740 137.788,174.693 138.362 C 179.042 138.642,187.370 138.966,193.200 139.084 C 202.668 139.275,207.095 139.141,224.803 138.129 C 230.595 137.798,233.229 140.067,231.605 143.987 C 230.698 146.179,225.015 147.573,216.900 147.595 C 214.729 147.601,212.392 139.918,235.217 207.819 C 255.942 269.472,255.457 268.072,255.775 267.157 C 256.778 264.270,269.907 222.220,270.998 218.400 C 278.057 193.690,276.455 180.967,263.593 159.600 C 256.046 147.063,254.129 140.775,255.642 133.520 C 257.388 125.147,264.764 118.544,272.614 118.328 C 275.676 118.244,275.677 118.305,272.600 115.617 C 250.013 95.876,216.888 85.710,187.200 89.408 M297.495 148.100 C 299.307 158.209,296.925 176.923,292.033 191.000 C 267.503 261.600,255.756 295.824,256.018 295.924 C 256.761 296.207,266.019 289.821,271.600 285.178 C 310.756 252.597,322.514 196.062,299.622 150.444 C 297.373 145.961,297.048 145.603,297.495 148.100 M97.264 157.101 C 76.895 207.145,94.055 263.291,138.792 292.977 C 143.387 296.026,151.102 300.231,151.454 299.879 C 151.589 299.745,101.583 162.136,98.988 155.500 C 98.552 154.384,98.260 154.655,97.264 157.101 M185.205 257.700 C 176.110 284.155,168.595 306.008,168.505 306.263 C 168.185 307.176,178.883 309.568,188.000 310.622 C 194.878 311.418,208.901 311.227,215.400 310.249 C 225.339 308.754,237.423 305.497,236.958 304.440 C 235.974 302.199,230.744 288.002,217.382 251.304 C 209.032 228.372,202.097 209.607,201.971 209.604 C 201.845 209.602,194.300 231.245,185.205 257.700 " stroke="#000000" fill="none" stroke-width="3" class="qXrAxCxf_0"></path></g><style data-made-with="vivus-instant">.qXrAxCxf_0{stroke-dasharray:3467 3469;stroke-dashoffset:3468;animation:qXrAxCxf_draw_0 4500ms linear 0ms infinite,qXrAxCxf_fade 4500ms linear 0ms infinite;}@keyframes qXrAxCxf_draw{100%{stroke-dashoffset:0;}}@keyframes qXrAxCxf_fade{0%{stroke-opacity:1;}91.11111111111111%{stroke-opacity:1;}100%{stroke-opacity:0;}}@keyframes qXrAxCxf_draw_0{6.666666666666667%{stroke-dashoffset: 3468}73.33333333333333%{ stroke-dashoffset: 0;}100%{ stroke-dashoffset: 0;}}</style></svg>