<svg id="svg" version="1.1" width="400" height="400" xmlns="http://www.w3.org/2000/svg" xmlns:xlink="http://www.w3.org/1999/xlink" style=""><g id="svgg"><path id="path0" d="M92.504 53.589 L 92.504 83.573 86.762 83.573 L 81.021 83.573 81.021 56.778 L 81.021 29.984 79.585 29.993 C 73.138 30.036,62.510 34.788,56.456 40.335 C 43.179 52.501,36.494 71.124,34.121 102.552 L 33.724 107.815 45.251 107.815 L 56.778 107.815 56.778 110.686 L 56.778 113.557 38.915 113.557 L 21.053 113.557 21.053 119.617 L 21.053 125.678 104.944 125.678 L 188.836 125.678 188.836 119.617 L 188.836 113.557 129.187 113.557 L 69.537 113.557 69.537 110.686 L 69.537 107.815 122.822 107.815 L 176.106 107.815 175.724 102.552 C 172.519 58.435,157.565 33.587,132.217 30.259 L 128.868 29.820 128.868 56.696 L 128.868 83.573 123.126 83.573 L 117.384 83.573 117.384 53.589 L 117.384 23.604 104.944 23.604 L 92.504 23.604 92.504 53.589 M39.944 139.234 C 48.093 186.323,87.794 214.228,125.811 199.589 C 147.050 191.410,165.911 165.721,169.891 139.553 L 170.255 137.161 104.920 137.161 L 39.585 137.161 39.944 139.234 M74.641 225.512 L 74.641 243.186 89.646 260.668 C 97.899 270.283,104.783 278.150,104.944 278.150 C 105.105 278.150,111.990 270.283,120.242 260.668 L 135.247 243.186 135.247 225.512 C 135.247 211.612,135.077 207.913,134.450 208.188 C 114.183 217.075,95.705 217.075,75.439 208.188 C 74.811 207.913,74.641 211.612,74.641 225.512 M190.307 240.774 L 188.517 242.313 188.346 298.031 C 188.221 339.130,188.370 354.216,188.915 355.532 C 190.407 359.138,190.697 359.171,221.021 359.171 L 248.804 359.171 248.804 340.989 L 248.804 322.807 245.325 322.807 C 239.092 322.807,239.494 323.318,228.644 301.627 C 223.241 290.824,218.820 281.351,218.820 280.576 C 218.820 277.810,245.674 251.738,248.524 251.738 C 254.278 251.738,254.976 255.483,251.288 266.551 L 248.668 274.411 252.886 280.746 L 257.104 287.081 266.348 287.081 L 275.591 287.081 279.868 280.658 L 284.145 274.234 281.466 266.118 C 277.893 255.290,278.316 252.635,283.785 251.584 C 286.554 251.051,313.876 277.653,313.876 280.881 C 313.876 281.852,309.638 291.096,304.314 301.738 C 293.670 323.018,293.839 322.807,287.432 322.807 L 283.892 322.807 283.892 341.008 L 283.892 359.208 312.582 359.030 L 341.273 358.852 342.726 357.399 L 344.179 355.946 344.348 299.565 L 344.518 243.184 342.856 241.209 L 341.194 239.234 266.646 239.234 L 192.097 239.234 190.307 240.774 M41.543 248.193 C 30.182 252.012,20.788 255.235,20.669 255.354 C 20.550 255.473,18.151 277.517,15.338 304.340 C 12.524 331.164,10.048 354.474,9.836 356.140 L 9.450 359.171 57.356 359.171 L 105.263 359.171 105.277 351.994 C 105.310 335.241,106.082 334.928,147.400 334.928 L 176.715 334.928 176.715 292.972 L 176.715 251.015 162.520 246.309 C 154.713 243.721,147.967 241.471,147.528 241.308 C 146.977 241.103,146.730 241.772,146.728 243.472 C 146.727 244.826,146.189 246.794,145.533 247.847 C 142.920 252.040,108.305 291.635,106.728 292.235 C 103.452 293.480,102.194 292.307,83.372 270.460 C 63.748 247.682,63.158 246.892,63.158 243.413 C 63.158 240.622,65.805 240.036,41.543 248.193 M233.799 279.439 L 231.295 282.003 238.603 296.664 L 245.911 311.324 250.908 311.324 C 260.473 311.324,260.287 310.801,260.287 337.767 L 260.287 359.171 266.348 359.171 L 272.408 359.171 272.412 338.596 C 272.417 311.310,272.412 311.324,282.262 311.324 L 287.076 311.324 294.096 297.294 C 297.957 289.578,301.116 282.890,301.116 282.432 C 301.116 281.543,296.201 276.448,295.796 276.915 C 295.663 277.068,292.594 281.643,288.975 287.081 C 280.561 299.727,282.918 298.520,266.593 298.544 C 249.995 298.569,251.999 299.607,243.349 286.511 C 236.045 275.453,237.000 276.161,233.799 279.439 M116.746 352.791 L 116.746 359.171 147.443 359.171 L 178.139 359.171 177.738 357.735 C 177.517 356.946,177.154 354.075,176.931 351.356 L 176.525 346.411 146.636 346.411 L 116.746 346.411 116.746 352.791 M22.329 393.567 C 22.329 394.240,21.970 394.935,21.531 395.112 C 21.093 395.289,22.026 395.423,23.604 395.410 C 25.183 395.397,25.973 395.255,25.359 395.095 C 24.745 394.934,24.242 394.250,24.242 393.574 C 24.242 392.898,23.812 392.344,23.285 392.344 C 22.759 392.344,22.329 392.895,22.329 393.567 M42.743 393.939 C 42.743 394.932,43.105 395.534,43.700 395.534 C 44.296 395.534,44.657 394.932,44.657 393.939 C 44.657 392.947,44.296 392.344,43.700 392.344 C 43.105 392.344,42.743 392.947,42.743 393.939 M51.037 393.939 C 51.037 395.469,51.188 395.530,54.705 395.423 C 57.887 395.326,58.014 395.279,55.662 395.067 C 53.486 394.871,52.951 394.578,52.951 393.584 C 52.951 392.902,52.520 392.344,51.994 392.344 C 51.398 392.344,51.037 392.947,51.037 393.939 M79.745 393.939 C 79.745 394.932,80.106 395.534,80.702 395.534 C 81.297 395.534,81.659 394.932,81.659 393.939 C 81.659 392.947,81.297 392.344,80.702 392.344 C 80.106 392.344,79.745 392.947,79.745 393.939 M83.573 393.939 C 83.573 394.932,83.934 395.534,84.530 395.534 C 85.056 395.534,85.486 395.247,85.486 394.896 C 85.486 394.034,87.806 394.092,90.369 395.019 C 92.944 395.950,93.740 395.339,92.189 393.624 C 90.273 391.507,83.573 391.752,83.573 393.939 M4.944 395.347 C 5.734 395.499,7.026 395.499,7.815 395.347 C 8.604 395.195,7.959 395.070,6.380 395.070 C 4.801 395.070,4.155 395.195,4.944 395.347 M14.203 395.354 C 15.173 395.501,16.608 395.497,17.393 395.345 C 18.178 395.194,17.384 395.074,15.630 395.079 C 13.876 395.084,13.234 395.207,14.203 395.354 M29.825 395.347 C 30.614 395.499,31.906 395.499,32.695 395.347 C 33.485 395.195,32.839 395.070,31.260 395.070 C 29.681 395.070,29.035 395.195,29.825 395.347 M38.763 395.348 C 39.557 395.500,40.705 395.494,41.315 395.335 C 41.925 395.175,41.276 395.050,39.872 395.057 C 38.469 395.064,37.970 395.195,38.763 395.348 M75.765 395.348 C 76.559 395.500,77.707 395.494,78.317 395.335 C 78.927 395.175,78.278 395.050,76.874 395.057 C 75.470 395.064,74.971 395.195,75.765 395.348 M97.138 395.354 C 98.108 395.501,99.543 395.497,100.328 395.345 C 101.112 395.194,100.319 395.074,98.565 395.079 C 96.810 395.084,96.168 395.207,97.138 395.354 M105.104 395.347 C 105.893 395.499,107.185 395.499,107.974 395.347 C 108.764 395.195,108.118 395.070,106.539 395.070 C 104.960 395.070,104.314 395.195,105.104 395.347 M111.811 395.354 C 112.781 395.501,114.216 395.497,115.001 395.345 C 115.785 395.194,114.992 395.074,113.238 395.079 C 111.483 395.084,110.841 395.207,111.811 395.354 " stroke="#000000" fill="none" stroke-width="3" class="AVttfkrr_0"></path></g><style data-made-with="vivus-instant">.AVttfkrr_0{stroke-dasharray:3548 3550;stroke-dashoffset:3549;animation:AVttfkrr_draw_0 4500ms linear 0ms infinite,AVttfkrr_fade 4500ms linear 0ms infinite;}@keyframes AVttfkrr_draw{100%{stroke-dashoffset:0;}}@keyframes AVttfkrr_fade{0%{stroke-opacity:1;}91.11111111111111%{stroke-opacity:1;}100%{stroke-opacity:0;}}@keyframes AVttfkrr_draw_0{6.666666666666667%{stroke-dashoffset: 3549}73.33333333333333%{ stroke-dashoffset: 0;}100%{ stroke-dashoffset: 0;}}</style></svg>
