<svg id="svg" version="1.1" width="400" height="400" xmlns="http://www.w3.org/2000/svg" xmlns:xlink="http://www.w3.org/1999/xlink" ><g id="svgg"><path id="path0" d="M213.968 53.738 L 213.968 107.475 217.364 114.531 C 219.232 118.412,221.070 122.302,221.448 123.175 C 221.949 124.331,222.148 108.930,222.179 66.508 L 222.222 8.254 273.968 8.254 L 325.714 8.254 325.714 85.397 L 325.714 162.540 277.871 162.540 L 230.028 162.540 230.300 165.873 C 230.449 167.706,230.684 169.563,230.822 170.000 C 231.019 170.626,241.917 170.794,282.520 170.794 L 333.968 170.794 333.968 85.397 L 333.968 0.000 273.968 0.000 L 213.968 0.000 213.968 53.738 M136.917 14.297 C 110.703 20.942,101.591 53.831,120.628 73.092 C 140.400 93.095,174.842 82.638,180.016 55.060 C 180.459 52.699,180.459 52.698,178.229 52.698 C 167.495 52.698,148.107 46.551,142.222 41.282 C 139.719 39.041,139.835 39.051,144.937 41.513 C 161.810 49.655,201.376 46.187,205.181 36.232 C 207.504 30.154,195.528 24.611,178.095 23.695 C 170.780 23.311,170.375 23.215,167.937 21.292 C 159.222 14.416,147.169 11.698,136.917 14.297 M229.206 21.587 L 229.206 27.937 273.651 27.937 L 318.095 27.937 318.095 21.587 L 318.095 15.238 273.651 15.238 L 229.206 15.238 229.206 21.587 M229.206 52.698 L 229.206 71.746 239.048 71.746 L 248.889 71.746 248.889 52.698 L 248.889 33.651 239.048 33.651 L 229.206 33.651 229.206 52.698 M252.698 52.698 L 252.698 71.746 262.222 71.746 L 271.746 71.746 271.746 52.698 L 271.746 33.651 262.222 33.651 L 252.698 33.651 252.698 52.698 M278.730 80.635 L 278.730 127.619 298.413 127.619 L 318.095 127.619 318.095 80.635 L 318.095 33.651 298.413 33.651 L 278.730 33.651 278.730 80.635 M243.175 63.492 L 243.175 66.032 239.048 66.032 L 234.921 66.032 234.921 63.492 L 234.921 60.952 239.048 60.952 L 243.175 60.952 243.175 63.492 M266.667 63.492 L 266.667 66.032 262.222 66.032 L 257.778 66.032 257.778 63.492 L 257.778 60.952 262.222 60.952 L 266.667 60.952 266.667 63.492 M229.206 94.603 L 229.206 113.651 239.048 113.651 L 248.889 113.651 248.889 94.603 L 248.889 75.556 239.048 75.556 L 229.206 75.556 229.206 94.603 M252.698 94.603 L 252.698 113.651 262.222 113.651 L 271.746 113.651 271.746 94.603 L 271.746 75.556 262.222 75.556 L 252.698 75.556 252.698 94.603 M110.476 92.214 C 98.997 93.816,86.310 105.753,79.754 121.118 C 70.713 142.309,67.520 165.904,68.091 207.302 L 68.407 230.159 64.879 233.788 C 61.550 237.214,61.411 237.483,62.401 238.577 C 63.396 239.677,62.828 240.358,51.408 251.767 C 38.012 265.149,38.526 264.334,41.602 267.315 L 43.838 269.483 56.114 257.219 C 67.643 245.702,68.472 245.007,69.739 245.798 C 70.974 246.569,71.356 246.378,74.226 243.551 C 77.299 240.524,77.447 240.460,81.513 240.369 C 88.946 240.203,93.968 234.950,93.968 227.343 C 93.968 223.903,94.035 223.777,97.919 219.858 L 101.869 215.872 97.512 211.481 L 93.155 207.090 93.510 190.053 C 94.041 164.617,98.127 139.235,102.846 132.063 C 103.262 131.431,103.476 142.540,103.482 165.165 L 103.492 199.218 107.901 200.852 C 119.914 205.305,122.540 205.398,122.540 201.368 C 122.540 195.749,122.020 195.873,145.518 195.873 L 165.824 195.873 167.357 197.654 C 168.416 198.886,168.889 200.208,168.889 201.940 C 168.889 203.346,169.197 204.444,169.591 204.444 C 171.096 204.444,178.332 202.336,183.010 200.535 L 187.925 198.642 188.090 165.194 L 188.254 131.746 190.264 137.778 C 196.204 155.606,198.763 182.797,197.470 214.353 L 196.823 230.142 198.459 233.484 C 203.134 243.040,217.321 242.701,221.226 232.940 C 223.939 226.159,223.770 181.625,220.947 159.644 C 215.921 120.497,201.825 96.538,181.433 92.478 C 174.161 91.030,150.661 91.843,150.273 93.555 C 150.104 94.306,149.324 98.706,148.542 103.333 C 147.134 111.661,147.102 111.746,145.431 111.746 C 143.750 111.746,143.737 111.709,142.279 102.625 C 141.474 97.609,140.632 93.213,140.408 92.857 C 139.901 92.052,115.405 91.526,110.476 92.214 M243.175 105.079 L 243.175 107.937 239.048 107.937 L 234.921 107.937 234.921 105.079 L 234.921 102.222 239.048 102.222 L 243.175 102.222 243.175 105.079 M266.667 105.079 L 266.667 107.937 262.222 107.937 L 257.778 107.937 257.778 105.079 L 257.778 102.222 262.222 102.222 L 266.667 102.222 266.667 105.079 M229.206 136.190 L 229.206 154.921 239.048 154.921 L 248.889 154.921 248.889 136.190 L 248.889 117.460 239.048 117.460 L 229.206 117.460 229.206 136.190 M252.698 136.190 L 252.698 154.921 262.222 154.921 L 271.746 154.921 271.746 136.190 L 271.746 117.460 262.222 117.460 L 252.698 117.460 252.698 136.190 M278.730 143.175 L 278.730 154.921 282.222 154.921 L 285.714 154.921 285.714 143.175 L 285.714 131.429 282.222 131.429 L 278.730 131.429 278.730 143.175 M289.524 143.175 L 289.524 154.921 293.016 154.921 L 296.508 154.921 296.508 143.175 L 296.508 131.429 293.016 131.429 L 289.524 131.429 289.524 143.175 M300.952 143.175 L 300.952 154.921 304.127 154.921 L 307.302 154.921 307.302 143.175 L 307.302 131.429 304.127 131.429 L 300.952 131.429 300.952 143.175 M311.746 143.175 L 311.746 154.921 314.921 154.921 L 318.095 154.921 318.095 143.175 L 318.095 131.429 314.921 131.429 L 311.746 131.429 311.746 143.175 M134.603 139.683 L 134.603 141.587 123.810 141.587 L 113.016 141.587 113.016 139.683 L 113.016 137.778 123.810 137.778 L 134.603 137.778 134.603 139.683 M177.778 139.683 L 177.778 141.587 167.302 141.587 L 156.825 141.587 156.825 139.683 L 156.825 137.778 167.302 137.778 L 177.778 137.778 177.778 139.683 M243.175 146.984 L 243.175 149.841 239.048 149.841 L 234.921 149.841 234.921 146.984 L 234.921 144.127 239.048 144.127 L 243.175 144.127 243.175 146.984 M266.667 146.984 L 266.667 149.841 262.222 149.841 L 257.778 149.841 257.778 146.984 L 257.778 144.127 262.222 144.127 L 266.667 144.127 266.667 146.984 M125.503 198.519 C 125.270 198.751,125.079 204.612,125.079 211.543 L 125.079 224.145 145.556 223.977 L 166.032 223.810 166.205 211.828 C 166.325 203.529,166.154 199.578,165.651 198.971 C 164.878 198.040,126.414 197.607,125.503 198.519 M103.641 286.436 L 103.810 367.937 105.242 370.618 C 112.695 384.565,132.817 384.528,140.189 370.555 L 141.905 367.302 142.080 309.683 L 142.255 252.063 145.397 252.063 L 148.539 252.063 148.714 309.365 L 148.889 366.667 150.674 370.301 C 158.114 385.454,180.785 384.236,186.721 368.364 C 187.969 365.026,188.397 205.079,187.157 205.080 C 186.713 205.080,184.860 205.646,183.040 206.338 C 181.221 207.029,177.317 208.201,174.365 208.941 L 168.998 210.287 168.785 217.264 C 168.475 227.398,170.301 226.667,145.326 226.667 C 120.645 226.667,122.540 227.452,122.540 217.215 L 122.540 210.303 119.689 209.875 C 117.152 209.495,107.551 206.654,104.594 205.408 C 103.526 204.958,103.481 208.764,103.641 286.436 M196.190 268.254 L 196.190 273.016 278.730 273.016 L 361.270 273.016 361.270 268.254 L 361.270 263.492 278.730 263.492 L 196.190 263.492 196.190 268.254 M34.931 268.243 L 32.124 271.103 34.282 273.329 C 36.993 276.126,37.295 276.111,40.308 273.026 L 42.778 270.496 40.876 268.146 C 38.304 264.969,38.142 264.971,34.931 268.243 M238.730 317.460 C 238.730 319.940,238.783 320.000,240.952 320.000 L 243.175 320.000 243.175 325.714 L 243.175 331.429 230.476 331.429 L 217.778 331.429 217.778 355.873 L 217.778 380.317 266.349 380.317 L 314.921 380.317 314.921 355.873 L 314.921 331.429 302.222 331.429 L 289.524 331.429 289.524 325.714 L 289.524 320.000 291.746 320.000 C 293.915 320.000,293.968 319.940,293.968 317.460 L 293.968 314.921 266.349 314.921 L 238.730 314.921 238.730 317.460 M284.444 326.667 L 284.444 331.429 266.349 331.429 L 248.254 331.429 248.254 326.667 L 248.254 321.905 266.349 321.905 L 284.444 321.905 284.444 326.667 " stroke="#000000" fill="none" stroke-width="3"></path></g></svg>
