<svg id="svg" version="1.1" width="400" height="400" xmlns="http://www.w3.org/2000/svg" xmlns:xlink="http://www.w3.org/1999/xlink" style=""><g id="svgg"><path id="path0" d="M35.167 0.668 C 26.515 2.997,19.444 10.241,17.110 19.167 C 16.159 22.803,16.159 202.197,17.110 205.833 C 19.334 214.338,25.637 221.125,33.944 223.961 L 36.500 224.833 89.000 225.000 L 141.500 225.167 141.576 228.333 C 142.200 254.499,152.327 278.885,171.083 299.384 L 174.667 303.301 174.667 351.650 L 174.667 400.000 241.500 400.000 L 308.333 400.000 308.333 381.383 L 308.333 362.765 311.528 362.540 C 334.344 360.937,352.656 344.938,357.550 322.333 C 357.986 320.322,358.120 317.080,358.238 305.764 L 358.384 291.695 368.136 291.597 L 377.887 291.500 379.518 290.491 C 381.713 289.134,383.084 286.898,383.261 284.391 C 383.432 281.976,380.350 273.164,363.481 227.833 C 358.033 213.193,357.877 212.701,356.973 207.333 C 349.059 160.377,313.126 125.067,265.667 117.612 C 259.535 116.648,242.148 116.504,236.583 117.371 L 233.333 117.877 233.333 69.658 C 233.333 22.659,233.317 21.373,232.671 18.803 C 230.457 9.985,223.348 2.876,214.530 0.662 C 210.502 -0.349,38.925 -0.343,35.167 0.668 M211.667 17.621 C 213.712 18.695,214.591 19.556,215.533 21.406 L 216.333 22.978 216.333 112.500 L 216.333 202.022 215.533 203.594 C 213.652 207.290,212.134 207.893,204.333 208.048 C 197.403 208.186,195.294 208.785,193.508 211.127 C 188.140 218.164,194.042 236.777,206.624 252.495 C 208.089 254.325,209.242 255.869,209.186 255.925 C 208.931 256.180,201.111 254.181,197.021 252.818 C 177.347 246.255,163.572 233.146,158.704 216.352 C 157.517 212.257,156.541 210.679,154.424 209.435 L 152.833 208.500 96.333 208.333 L 39.833 208.167 38.127 207.266 C 36.266 206.285,34.958 204.923,34.071 203.043 C 33.536 201.910,33.500 196.151,33.500 112.500 L 33.500 23.167 34.285 21.587 C 35.560 19.022,37.582 17.526,40.500 16.990 C 41.233 16.856,79.708 16.765,126.000 16.789 L 210.167 16.833 211.667 17.621 M95.833 25.907 C 94.349 26.732,92.990 28.398,83.393 41.167 C 77.468 49.050,72.499 55.544,72.352 55.597 C 72.204 55.651,69.500 54.413,66.342 52.847 C 60.930 50.163,60.478 50.000,58.456 50.000 C 51.034 50.000,47.283 57.897,51.857 63.894 C 52.506 64.745,54.921 66.108,62.668 69.995 C 78.735 78.057,76.264 79.207,94.160 55.338 C 108.368 36.389,108.477 36.213,108.277 32.680 C 107.933 26.592,101.198 22.926,95.833 25.907 M124.667 50.000 L 124.667 58.333 162.333 58.333 L 200.000 58.333 200.000 50.000 L 200.000 41.667 162.333 41.667 L 124.667 41.667 124.667 50.000 M98.500 83.317 C 95.238 83.823,94.933 84.150,83.393 99.501 C 77.468 107.384,72.499 113.877,72.352 113.931 C 72.204 113.984,69.500 112.747,66.342 111.181 C 58.975 107.527,56.499 107.348,52.763 110.198 C 48.990 113.076,49.024 120.304,52.825 123.175 C 53.379 123.594,58.080 126.051,63.271 128.635 C 78.681 136.307,76.338 137.441,94.146 113.691 C 101.519 103.857,107.727 95.306,107.942 94.689 C 110.111 88.469,104.996 82.309,98.500 83.317 M124.667 108.333 L 124.667 116.667 162.333 116.667 L 200.000 116.667 200.000 108.333 L 200.000 100.000 162.333 100.000 L 124.667 100.000 124.667 108.333 M62.723 150.868 C 56.368 154.035,56.668 160.543,63.482 167.322 L 66.988 170.810 63.335 174.513 C 57.571 180.355,56.697 184.314,60.168 188.864 C 63.730 193.535,69.543 192.655,75.650 186.520 L 79.134 183.021 82.984 186.786 C 88.411 192.095,91.977 193.092,96.198 190.483 C 101.859 186.983,101.461 181.133,95.120 174.650 L 91.354 170.800 94.856 167.317 C 101.426 160.781,101.929 154.727,96.198 151.184 C 91.977 148.574,88.411 149.572,82.984 154.880 L 79.134 158.646 75.650 155.147 C 70.351 149.824,67.026 148.723,62.723 150.868 M124.667 166.500 L 124.667 175.000 162.333 175.000 L 200.000 175.000 200.000 166.500 L 200.000 158.000 162.333 158.000 L 124.667 158.000 124.667 166.500 M326.080 218.106 C 337.796 223.860,333.859 241.167,320.833 241.167 C 307.156 241.167,303.856 222.741,316.617 217.622 C 319.056 216.643,323.571 216.874,326.080 218.106 " stroke="#000000" fill="none" stroke-width="3" class="wDEjuTlq_0"></path></g><style data-made-with="vivus-instant">.wDEjuTlq_0{stroke-dasharray:3359 3361;stroke-dashoffset:3360;animation:wDEjuTlq_draw_0 4500ms linear 0ms infinite,wDEjuTlq_fade 4500ms linear 0ms infinite;}@keyframes wDEjuTlq_draw{100%{stroke-dashoffset:0;}}@keyframes wDEjuTlq_fade{0%{stroke-opacity:1;}91.11111111111111%{stroke-opacity:1;}100%{stroke-opacity:0;}}@keyframes wDEjuTlq_draw_0{6.666666666666667%{stroke-dashoffset: 3360}73.33333333333333%{ stroke-dashoffset: 0;}100%{ stroke-dashoffset: 0;}}</style></svg>
