<svg id="svg" version="1.1" width="400" height="400" xmlns="http://www.w3.org/2000/svg" xmlns:xlink="http://www.w3.org/1999/xlink" style=""><g id="svgg"><path id="path0" d="M91.097 38.311 C 88.168 39.188,84.470 42.688,83.107 45.873 C 81.718 49.118,81.477 349.992,82.860 353.660 C 84.094 356.931,88.230 360.849,91.372 361.722 C 95.151 362.772,304.849 362.772,308.628 361.722 C 311.770 360.849,315.906 356.931,317.140 353.660 C 318.840 349.149,318.235 114.893,316.515 112.109 C 313.651 107.472,252.917 38.945,251.039 38.231 C 248.591 37.300,94.217 37.378,91.097 38.311 M242.212 84.961 C 242.239 120.947,242.158 120.230,246.404 121.844 C 247.737 122.351,259.080 122.656,276.613 122.656 L 304.688 122.656 304.688 187.891 L 304.688 253.125 200.000 253.125 L 95.313 253.125 95.313 152.344 L 95.313 51.563 168.750 51.563 L 242.188 51.563 242.212 84.961 M189.063 101.111 L 189.063 110.816 186.261 111.741 C 177.523 114.625,172.787 124.906,176.231 133.514 C 177.497 136.678,176.897 138.987,170.680 154.883 C 170.263 155.950,169.220 156.250,165.932 156.250 L 161.719 156.250 161.719 153.516 C 161.719 151.120,161.477 150.781,159.766 150.781 L 157.813 150.781 157.813 158.594 L 157.813 166.406 159.766 166.406 C 161.477 166.406,161.719 166.068,161.719 163.672 C 161.719 161.003,161.793 160.938,164.844 160.938 C 168.786 160.938,169.002 159.606,161.972 178.664 C 156.259 194.151,155.983 195.200,156.159 200.795 C 156.315 205.756,153.913 220.280,151.930 226.367 C 150.892 229.553,153.358 226.218,157.422 218.941 C 160.198 213.970,164.048 208.476,166.863 205.469 L 171.617 200.391 182.030 173.604 C 187.757 158.871,192.691 147.094,192.996 147.432 C 193.300 147.770,198.184 160.000,203.849 174.609 C 214.137 201.142,214.154 201.176,218.297 205.078 C 220.578 207.227,223.320 210.566,224.389 212.500 C 229.353 221.479,232.982 227.434,233.298 227.119 C 233.488 226.929,232.558 221.897,231.232 215.936 C 229.331 207.389,228.926 204.106,229.316 200.401 C 229.789 195.908,229.536 194.960,223.499 178.657 C 220.028 169.282,217.188 161.459,217.188 161.274 C 217.188 161.089,218.594 160.938,220.313 160.938 C 223.363 160.938,223.438 161.003,223.438 163.672 C 223.438 166.068,223.679 166.406,225.391 166.406 L 227.344 166.406 227.344 158.594 L 227.344 150.781 225.391 150.781 C 223.679 150.781,223.438 151.120,223.438 153.516 L 223.438 156.250 219.323 156.250 L 215.208 156.250 211.123 145.117 C 207.373 134.901,207.107 133.734,207.882 130.946 C 209.965 123.456,204.526 113.782,197.121 111.805 L 194.922 111.218 194.703 101.312 L 194.485 91.406 191.774 91.406 L 189.063 91.406 189.063 101.111 M197.608 118.663 C 206.651 125.097,202.635 138.295,191.640 138.276 C 184.072 138.263,178.846 129.571,182.342 122.811 C 185.416 116.867,192.412 114.966,197.608 118.663 M187.557 123.933 C 182.889 129.868,190.807 137.268,195.958 131.786 C 198.214 129.384,198.166 125.751,195.848 123.574 C 193.290 121.170,189.605 121.330,187.557 123.933 M147.216 269.144 C 150.197 269.775,152.959 270.616,153.355 271.011 C 154.616 272.272,151.500 283.737,150.048 283.180 C 130.262 275.587,113.755 286.240,113.693 306.641 C 113.637 325.225,126.619 333.560,148.886 329.236 L 151.288 328.769 152.272 334.275 C 153.455 340.899,153.418 340.974,148.245 342.304 C 124.652 348.370,102.215 336.853,97.654 316.338 C 90.951 286.191,115.836 262.496,147.216 269.144 M274.345 269.856 C 293.467 273.544,303.125 285.233,303.125 304.688 C 303.125 325.208,292.959 337.500,272.379 341.865 C 266.701 343.069,245.033 343.517,241.031 342.512 L 239.063 342.018 239.063 306.180 L 239.063 270.342 240.820 269.950 C 247.026 268.564,267.352 268.507,274.345 269.856 M208.853 281.445 C 210.860 287.998,215.975 304.533,220.220 318.189 L 227.937 343.018 219.295 342.798 L 210.652 342.578 207.844 333.203 L 205.036 323.828 194.042 323.612 L 183.048 323.396 180.391 333.180 L 177.734 342.964 169.459 342.966 L 161.183 342.969 170.445 312.695 C 175.539 296.045,180.593 279.521,181.675 275.977 L 183.644 269.531 194.424 269.531 L 205.205 269.531 208.853 281.445 M257.617 281.006 L 254.688 281.344 254.688 305.844 L 254.688 330.345 257.075 330.869 C 270.858 333.896,283.894 324.563,285.930 310.211 C 288.736 290.421,277.397 278.724,257.617 281.006 M191.166 289.648 C 190.049 294.268,188.273 301.123,187.219 304.883 L 185.304 311.719 193.824 311.719 C 198.818 311.719,202.344 311.405,202.344 310.960 C 202.344 310.542,200.986 305.532,199.327 299.827 C 197.668 294.121,195.875 287.607,195.343 285.352 C 193.984 279.591,193.471 280.119,191.166 289.648 " stroke="#000000" fill="none" stroke-width="3" class="VFsbVevS_0"></path></g><style data-made-with="vivus-instant">.VFsbVevS_0{stroke-dasharray:3570 3572;stroke-dashoffset:3571;animation:VFsbVevS_draw_0 4500ms linear 0ms infinite,VFsbVevS_fade 4500ms linear 0ms infinite;}@keyframes VFsbVevS_draw{100%{stroke-dashoffset:0;}}@keyframes VFsbVevS_fade{0%{stroke-opacity:1;}91.11111111111111%{stroke-opacity:1;}100%{stroke-opacity:0;}}@keyframes VFsbVevS_draw_0{6.666666666666667%{stroke-dashoffset: 3571}73.33333333333333%{ stroke-dashoffset: 0;}100%{ stroke-dashoffset: 0;}}</style></svg>
