<svg id="svg" version="1.1" width="400" height="400" xmlns="http://www.w3.org/2000/svg" xmlns:xlink="http://www.w3.org/1999/xlink" style=""><g id="svgg"><path id="path0" d="M48.571 11.155 C 41.364 14.896,41.270 15.330,41.270 44.699 L 41.270 69.841 61.743 69.841 L 82.215 69.841 103.891 91.510 L 125.566 113.178 128.881 112.383 C 151.703 106.908,167.298 133.765,150.849 150.214 C 134.230 166.834,106.337 150.160,113.085 127.639 L 113.877 124.996 94.879 105.990 L 75.881 86.984 58.575 86.984 L 41.270 86.984 41.270 156.190 L 41.270 225.397 63.342 225.397 L 85.414 225.397 93.806 216.984 L 102.198 208.571 101.211 205.397 C 94.422 183.561,123.722 166.834,139.400 183.595 C 155.056 200.333,138.705 228.055,117.143 221.331 L 113.968 220.341 103.168 231.123 L 92.368 241.905 66.804 241.905 L 41.241 241.905 41.414 280.209 L 41.587 318.512 43.332 320.799 C 44.291 322.057,46.006 323.749,47.141 324.559 L 49.206 326.032 96.984 326.202 L 144.762 326.373 144.762 307.012 L 144.762 287.652 142.698 286.589 C 123.262 276.578,127.755 247.887,149.385 243.889 C 173.996 239.339,186.153 274.950,163.870 286.318 L 161.270 287.645 161.270 306.997 L 161.270 326.349 199.518 326.349 L 237.767 326.349 224.280 312.852 L 210.794 299.354 210.794 265.708 L 210.794 232.061 207.884 230.518 C 184.338 218.027,200.338 181.359,225.942 189.136 C 244.749 194.848,247.372 222.888,229.840 230.794 L 227.302 231.939 227.302 262.164 L 227.302 292.390 244.303 309.382 L 261.304 326.375 305.514 326.203 L 349.724 326.032 352.164 324.067 C 353.505 322.986,355.241 320.986,356.021 319.622 L 357.439 317.143 357.450 279.524 L 357.460 241.905 339.847 241.905 L 322.233 241.905 309.212 228.900 L 296.190 215.896 293.016 216.883 C 271.058 223.714,254.358 194.463,271.214 178.696 C 287.907 163.081,314.959 178.802,308.967 200.635 L 308.009 204.127 318.601 214.762 L 329.192 225.397 343.326 225.397 L 357.460 225.397 357.460 144.127 L 357.460 62.857 341.106 62.857 L 324.752 62.857 309.931 77.688 L 295.110 92.519 296.227 97.114 C 302.050 121.072,270.386 135.254,255.616 115.304 C 243.269 98.627,260.400 74.042,280.088 80.184 L 283.033 81.103 300.718 63.409 L 318.404 45.714 337.967 45.714 L 357.529 45.714 357.336 31.905 C 357.120 16.449,357.031 16.127,351.910 12.221 L 349.623 10.476 253.224 10.311 L 156.825 10.147 156.825 36.667 L 156.825 63.187 169.152 75.501 L 181.478 87.815 184.548 86.938 C 207.450 80.397,223.608 109.540,206.002 125.631 C 189.461 140.749,163.606 124.877,168.890 102.851 L 169.685 99.537 155.001 84.843 L 140.317 70.149 140.317 40.154 L 140.317 10.159 95.397 10.163 C 55.979 10.166,50.243 10.288,48.571 11.155 " stroke="#000000" fill="none" stroke-width="3" class="AEBAhRqu_0"></path></g><style data-made-with="vivus-instant">.AEBAhRqu_0{stroke-dasharray:3117 3119;stroke-dashoffset:3118;animation:AEBAhRqu_draw_0 4500ms linear 0ms infinite,AEBAhRqu_fade 4500ms linear 0ms infinite;}@keyframes AEBAhRqu_draw{100%{stroke-dashoffset:0;}}@keyframes AEBAhRqu_fade{0%{stroke-opacity:1;}91.11111111111111%{stroke-opacity:1;}100%{stroke-opacity:0;}}@keyframes AEBAhRqu_draw_0{6.666666666666667%{stroke-dashoffset: 3118}73.33333333333333%{ stroke-dashoffset: 0;}100%{ stroke-dashoffset: 0;}}</style></svg>
