<svg id="svg" version="1.1" width="400" height="400" xmlns="http://www.w3.org/2000/svg" xmlns:xlink="http://www.w3.org/1999/xlink" style=""><g id="svgg"><path id="path0" d="M66.032 92.698 L 66.032 149.841 37.778 149.841 L 9.524 149.841 9.524 247.619 L 9.524 345.397 200.000 345.397 L 390.476 345.397 390.476 227.619 L 390.476 109.841 364.444 109.841 L 338.413 109.841 338.413 133.651 L 338.413 157.460 304.444 157.460 L 270.476 157.460 270.476 174.286 L 270.476 191.111 266.032 191.111 L 261.587 191.111 261.587 134.603 L 261.587 78.095 230.476 78.095 L 199.365 78.095 199.365 103.492 L 199.365 128.889 166.667 128.889 L 133.968 128.889 133.968 162.222 L 133.968 195.556 122.222 195.556 L 110.476 195.556 110.476 115.556 L 110.476 35.556 88.254 35.556 L 66.032 35.556 66.032 92.698 M102.222 71.429 L 102.222 90.794 93.016 90.794 L 83.810 90.794 83.810 71.429 L 83.810 52.063 93.016 52.063 L 102.222 52.063 102.222 71.429 M246.984 116.825 L 246.984 135.873 237.778 135.873 L 228.571 135.873 228.571 116.825 L 228.571 97.778 237.778 97.778 L 246.984 97.778 246.984 116.825 M102.222 137.143 L 102.222 156.190 93.016 156.190 L 83.810 156.190 83.810 137.143 L 83.810 118.095 93.016 118.095 L 102.222 118.095 102.222 137.143 M375.238 152.063 L 375.238 171.429 367.302 171.429 L 359.365 171.429 359.365 152.063 L 359.365 132.698 367.302 132.698 L 375.238 132.698 375.238 152.063 M179.048 172.698 L 179.048 191.746 170.159 191.746 L 161.270 191.746 161.270 172.698 L 161.270 153.651 170.159 153.651 L 179.048 153.651 179.048 172.698 M246.984 172.698 L 246.984 191.746 237.778 191.746 L 228.571 191.746 228.571 172.698 L 228.571 153.651 237.778 153.651 L 246.984 153.651 246.984 172.698 M344.127 207.937 L 344.127 240.635 336.190 240.635 L 328.254 240.635 328.254 207.937 L 328.254 175.238 336.190 175.238 L 344.127 175.238 344.127 207.937 M310.476 199.683 L 310.476 219.048 301.587 219.048 L 292.698 219.048 292.698 199.683 L 292.698 180.317 301.587 180.317 L 310.476 180.317 310.476 199.683 M58.413 216.825 L 58.413 250.159 50.159 250.159 L 41.905 250.159 41.905 216.825 L 41.905 183.492 50.159 183.492 L 58.413 183.492 58.413 216.825 M102.222 202.857 L 102.222 222.222 93.016 222.222 L 83.810 222.222 83.810 202.857 L 83.810 183.492 93.016 183.492 L 102.222 183.492 102.222 202.857 M215.238 218.413 L 215.238 237.460 206.349 237.460 L 197.460 237.460 197.460 218.413 L 197.460 199.365 206.349 199.365 L 215.238 199.365 215.238 218.413 " stroke="#000000" fill="none" stroke-width="3" class="McpjPsFV_0"></path></g><style data-made-with="vivus-instant">.McpjPsFV_0{stroke-dasharray:3122 3124;stroke-dashoffset:3123;animation:McpjPsFV_draw_0 4500ms linear 0ms infinite,McpjPsFV_fade 4500ms linear 0ms infinite;}@keyframes McpjPsFV_draw{100%{stroke-dashoffset:0;}}@keyframes McpjPsFV_fade{0%{stroke-opacity:1;}91.11111111111111%{stroke-opacity:1;}100%{stroke-opacity:0;}}@keyframes McpjPsFV_draw_0{6.666666666666667%{stroke-dashoffset: 3123}73.33333333333333%{ stroke-dashoffset: 0;}100%{ stroke-dashoffset: 0;}}</style></svg>
