<svg id="svg" version="1.1" width="400" height="400" xmlns="http://www.w3.org/2000/svg" xmlns:xlink="http://www.w3.org/1999/xlink" style=""><g id="svgg"><path id="path0" d="M40.173 29.484 C 28.364 32.345,18.599 41.897,15.465 53.651 C 14.381 57.716,14.210 312.764,15.289 317.443 C 17.910 328.817,27.932 338.817,39.812 341.912 C 42.984 342.738,291.429 343.508,291.429 342.692 C 291.429 342.601,287.912 334.244,283.615 324.120 L 275.801 305.714 163.932 305.554 L 52.063 305.393 52.063 211.744 L 52.063 118.095 187.619 118.095 L 323.175 118.095 323.175 175.145 L 323.175 232.195 341.429 239.919 C 351.468 244.167,359.897 247.637,360.159 247.631 C 361.167 247.606,360.696 60.396,359.676 55.556 C 356.965 42.702,347.116 32.513,334.538 29.548 C 328.956 28.232,45.593 28.170,40.173 29.484 M71.519 64.464 C 74.891 66.440,77.552 70.764,77.951 74.914 C 79.267 88.614,61.254 95.019,53.528 83.597 C 45.383 71.555,58.967 57.108,71.519 64.464 M111.916 63.873 C 120.050 67.984,122.174 78.081,116.281 84.618 C 107.420 94.446,91.984 88.255,92.815 75.206 C 93.440 65.392,103.321 59.529,111.916 63.873 M151.913 63.221 C 155.489 64.440,159.624 68.700,160.583 72.156 C 164.621 86.699,145.886 95.931,136.706 83.922 C 128.778 73.551,139.479 58.985,151.913 63.221 M193.592 147.509 C 188.366 150.268,188.630 149.534,171.454 209.135 C 162.710 239.476,155.557 265.048,155.559 265.960 C 155.590 280.278,179.883 286.790,186.382 274.222 C 187.200 272.641,216.246 173.030,218.455 164.232 C 221.482 152.175,205.330 141.312,193.592 147.509 M125.433 162.217 C 122.724 163.182,81.481 203.646,79.607 207.177 C 78.015 210.177,77.778 214.851,79.046 218.250 C 80.453 222.018,119.779 262.022,124.166 264.146 C 135.506 269.636,151.229 256.186,147.947 243.803 C 147.287 241.313,145.450 239.198,133.437 227.091 L 119.683 213.230 132.771 200.424 C 139.970 193.381,146.332 186.695,146.909 185.566 C 152.924 173.797,138.118 157.699,125.433 162.217 M238.413 162.422 C 234.148 164.427,227.562 171.974,226.743 175.794 C 225.220 182.893,226.195 184.470,241.796 200.152 L 254.896 213.320 241.185 227.136 C 222.664 245.801,221.834 249.037,232.810 259.807 C 238.686 265.573,243.888 266.966,250.020 264.415 C 253.907 262.798,293.539 222.856,295.286 218.795 C 296.797 215.282,296.726 210.440,295.118 207.370 C 293.595 204.464,253.585 164.075,250.989 162.823 C 247.474 161.128,241.566 160.940,238.413 162.422 M291.672 250.068 C 286.770 252.361,283.590 258.899,284.911 263.972 C 285.709 267.041,315.280 336.812,316.918 339.492 C 321.821 347.515,330.673 346.510,340.306 336.837 L 346.313 330.805 356.490 340.895 C 364.604 348.940,367.181 351.126,369.206 351.680 C 379.491 354.491,387.886 348.313,387.923 337.905 C 387.942 332.285,387.186 331.131,376.296 320.161 L 366.687 310.481 372.524 304.606 C 380.376 296.702,382.123 291.725,379.109 285.848 C 376.953 281.644,375.248 280.776,338.022 264.942 C 297.841 247.851,296.994 247.580,291.672 250.068 " stroke="#000000" fill="none" stroke-width="3" class="cVFkhRGI_0"></path></g><style data-made-with="vivus-instant">.cVFkhRGI_0{stroke-dasharray:3512 3514;stroke-dashoffset:3513;animation:cVFkhRGI_draw_0 4500ms linear 0ms infinite,cVFkhRGI_fade 4500ms linear 0ms infinite;}@keyframes cVFkhRGI_draw{100%{stroke-dashoffset:0;}}@keyframes cVFkhRGI_fade{0%{stroke-opacity:1;}91.11111111111111%{stroke-opacity:1;}100%{stroke-opacity:0;}}@keyframes cVFkhRGI_draw_0{6.666666666666667%{stroke-dashoffset: 3513}73.33333333333333%{ stroke-dashoffset: 0;}100%{ stroke-dashoffset: 0;}}</style></svg>
