<svg id="svg" version="1.1" width="400" height="400" xmlns="http://www.w3.org/2000/svg" xmlns:xlink="http://www.w3.org/1999/xlink" style=""><g id="svgg"><path id="path0" d="M190.188 46.150 C 183.793 47.048,185.752 46.317,105.945 77.610 C 19.743 111.411,22.944 109.816,18.657 121.098 C 16.685 126.287,16.685 275.051,18.657 280.240 C 22.833 291.231,22.195 290.889,82.885 314.671 L 135.334 335.223 137.007 332.996 C 165.133 295.553,223.684 294.215,254.604 330.309 C 257.027 333.137,259.352 335.416,259.772 335.372 C 262.029 335.137,365.990 293.810,368.327 292.219 C 371.723 289.907,375.633 284.704,377.330 280.240 C 379.301 275.051,379.301 126.287,377.330 121.098 C 375.635 116.638,371.726 111.434,368.327 109.113 C 365.197 106.976,216.409 48.401,210.702 47.059 C 205.773 45.900,195.278 45.435,190.188 46.150 M234.114 161.976 L 234.114 238.334 215.886 269.616 C 202.432 292.706,197.468 300.693,196.931 300.115 C 196.531 299.684,188.479 285.595,179.038 268.807 L 161.873 238.283 161.873 161.951 L 161.873 85.619 197.993 85.619 L 234.114 85.619 234.114 161.976 M181.271 115.719 L 181.271 125.753 197.993 125.753 L 214.716 125.753 214.716 115.719 L 214.716 105.686 197.993 105.686 L 181.271 105.686 181.271 115.719 M181.277 189.130 L 181.283 233.110 189.195 247.157 C 193.547 254.883,197.361 261.204,197.672 261.204 C 197.983 261.204,201.938 254.883,206.462 247.157 L 214.686 233.110 214.701 189.130 L 214.716 145.151 197.993 145.151 L 181.271 145.151 181.277 189.130 M189.298 323.767 C 178.395 325.270,166.821 330.711,158.747 338.131 C 156.235 340.439,154.331 342.462,154.515 342.626 C 154.699 342.791,161.034 345.348,168.594 348.310 C 193.878 358.217,201.642 358.268,226.254 348.694 C 240.999 342.957,240.816 343.145,235.953 338.771 C 222.858 326.990,205.773 321.496,189.298 323.767 " stroke="#000000" fill="none" stroke-width="3" class="fcAWZRRC_0"></path></g><style data-made-with="vivus-instant">.fcAWZRRC_0{stroke-dasharray:2209 2211;stroke-dashoffset:2210;animation:fcAWZRRC_draw_0 4500ms linear 0ms infinite,fcAWZRRC_fade 4500ms linear 0ms infinite;}@keyframes fcAWZRRC_draw{100%{stroke-dashoffset:0;}}@keyframes fcAWZRRC_fade{0%{stroke-opacity:1;}91.11111111111111%{stroke-opacity:1;}100%{stroke-opacity:0;}}@keyframes fcAWZRRC_draw_0{6.666666666666667%{stroke-dashoffset: 2210}73.33333333333333%{ stroke-dashoffset: 0;}100%{ stroke-dashoffset: 0;}}</style></svg>
