<svg id="svg" version="1.1" width="400" height="400" xmlns="http://www.w3.org/2000/svg" xmlns:xlink="http://www.w3.org/1999/xlink" style=""><g id="svgg"><path id="path0" d="M182.050 13.886 C 173.491 18.780,173.434 18.176,187.712 73.153 C 194.301 98.523,199.762 119.886,199.846 120.628 C 199.975 121.761,198.790 122.302,192.432 124.011 C 183.248 126.481,180.901 128.448,180.901 133.679 C 180.901 139.694,232.301 336.245,234.785 339.729 C 252.567 364.669,293.914 354.226,299.869 323.291 C 300.548 319.763,250.580 122.637,247.474 116.589 C 245.206 112.172,240.314 111.466,230.606 114.152 L 224.455 115.854 212.234 68.558 C 205.512 42.545,199.344 19.981,198.527 18.416 C 195.596 12.804,187.726 10.640,182.050 13.886 M224.548 123.625 C 224.305 124.920,223.470 126.789,222.692 127.778 L 221.278 129.576 228.477 168.514 C 232.436 189.931,235.657 207.722,235.634 208.051 C 235.612 208.380,229.829 191.658,222.783 170.892 L 209.973 133.136 207.225 131.253 C 202.590 128.076,201.455 125.631,205.723 128.016 C 213.193 132.191,223.839 127.418,224.242 119.713 C 224.338 117.888,224.349 117.883,224.665 119.554 C 224.844 120.498,224.791 122.330,224.548 123.625 M82.959 139.506 C 79.181 142.685,79.288 139.024,79.283 265.587 L 79.279 384.507 83.784 391.533 C 89.201 399.982,88.084 399.973,93.514 391.607 L 98.018 384.667 98.014 265.667 C 98.011 186.721,97.762 145.773,97.272 144.010 C 96.169 140.039,92.936 137.658,88.649 137.658 C 85.951 137.658,84.656 138.078,82.959 139.506 M111.279 140.108 L 108.829 142.559 108.829 264.024 L 108.829 385.490 112.973 392.015 C 118.005 399.940,117.126 399.973,122.447 391.656 L 126.863 384.754 126.675 263.909 C 126.497 149.818,126.415 142.958,125.215 141.192 C 122.237 136.809,115.131 136.257,111.279 140.108 M141.418 138.782 C 137.429 141.576,137.658 133.908,137.658 264.750 L 137.658 385.428 141.969 391.993 C 147.154 399.891,145.998 399.918,151.277 391.769 L 155.676 384.979 155.676 264.899 C 155.676 133.403,155.934 141.109,151.444 138.787 C 148.643 137.338,143.482 137.336,141.418 138.782 M299.972 328.333 C 294.486 357.256,258.508 367.037,238.218 345.122 C 233.682 340.222,233.475 340.576,235.885 349.123 C 237.431 354.610,237.639 354.925,241.448 357.562 C 261.734 371.608,290.923 364.371,302.257 342.486 L 304.982 337.224 303.340 330.414 C 301.390 322.325,301.141 322.171,299.972 328.333 M303.074 346.667 C 291.801 369.082,261.342 376.174,241.949 360.900 C 238.050 357.829,238.046 357.767,242.865 376.208 C 249.795 402.726,246.350 401.422,283.839 391.714 C 319.121 382.578,317.347 384.652,311.020 359.948 C 305.665 339.038,306.342 340.170,303.074 346.667 " stroke="#000000" fill="none" stroke-width="3" class="VRCKCDxU_0"></path></g><style data-made-with="vivus-instant">.VRCKCDxU_0{stroke-dasharray:3036 3038;stroke-dashoffset:3037;animation:VRCKCDxU_draw_0 4500ms linear 0ms infinite,VRCKCDxU_fade 4500ms linear 0ms infinite;}@keyframes VRCKCDxU_draw{100%{stroke-dashoffset:0;}}@keyframes VRCKCDxU_fade{0%{stroke-opacity:1;}91.11111111111111%{stroke-opacity:1;}100%{stroke-opacity:0;}}@keyframes VRCKCDxU_draw_0{6.666666666666667%{stroke-dashoffset: 3037}73.33333333333333%{ stroke-dashoffset: 0;}100%{ stroke-dashoffset: 0;}}</style></svg>
