<svg id="svg" version="1.1" width="400" height="400" viewBox="0 0 400 400" xmlns="http://www.w3.org/2000/svg" xmlns:xlink="http://www.w3.org/1999/xlink" style=""><g id="svgg"><path id="path0" d="M153.500 3.166 C 80.415 6.280,22.357 28.789,6.835 60.027 C -13.432 100.813,48.062 141.107,140.500 147.612 C 255.289 155.690,351.703 109.994,326.278 59.561 C 308.683 24.658,232.518 -0.202,153.500 3.166 M330.311 100.161 C 328.995 117.025,309.370 135.930,280.414 148.225 C 181.238 190.336,17.319 163.415,3.517 102.749 L 3.034 100.625 3.092 128.500 C 3.156 159.311,3.048 157.144,4.782 162.375 C 20.451 209.637,135.675 237.728,232.472 217.885 C 234.175 217.536,235.594 217.250,235.625 217.250 C 235.656 217.250,236.158 216.041,236.740 214.563 C 251.040 178.274,286.650 154.257,326.165 154.251 L 329.955 154.250 330.234 152.563 C 330.430 151.377,330.492 143.218,330.443 125.125 C 330.404 110.963,330.345 99.729,330.311 100.161 M3.092 204.250 C 3.156 235.061,3.048 232.894,4.782 238.125 C 15.086 269.206,69.988 293.946,140.125 299.115 C 153.431 300.095,177.540 300.248,189.063 299.424 L 193.250 299.125 212.077 280.302 L 230.904 261.479 230.547 258.677 C 230.062 254.872,230.068 245.494,230.557 241.750 C 230.764 240.169,230.914 238.850,230.891 238.820 C 230.867 238.789,229.375 239.037,227.574 239.371 C 217.863 241.168,204.053 242.793,191.500 243.616 C 98.006 249.745,13.029 220.309,3.517 178.499 L 3.034 176.375 3.092 204.250 M319.750 185.010 C 268.956 189.896,243.032 248.638,273.716 289.322 C 302.903 328.021,362.899 322.220,384.352 278.625 C 406.652 233.307,369.989 180.178,319.750 185.010 M353.826 206.106 C 370.536 210.345,375.951 231.271,363.419 243.176 C 349.552 256.348,326.609 246.321,326.694 227.125 C 326.757 212.969,340.107 202.626,353.826 206.106 M3.091 280.000 C 3.154 310.819,3.045 308.641,4.783 313.875 C 14.359 342.702,63.559 366.554,127.750 373.488 C 135.955 374.374,147.923 375.250,151.827 375.250 L 153.807 375.250 153.649 374.438 C 152.433 368.185,153.580 350.971,155.701 343.625 C 158.031 335.557,159.856 332.607,166.926 325.477 L 172.030 320.330 162.828 320.157 C 77.851 318.566,11.937 291.297,3.517 254.249 L 3.035 252.125 3.091 280.000 M218.625 316.784 C 200.475 335.079,185.442 350.403,185.218 350.836 C 182.915 355.299,182.653 372.709,184.765 380.905 C 187.038 389.726,192.605 392.344,209.125 392.366 C 221.124 392.381,224.006 391.706,228.239 387.884 L 230.603 385.750 240.239 385.748 C 251.225 385.745,251.341 385.725,253.337 383.512 C 255.025 381.639,255.000 381.828,255.000 371.021 L 255.000 361.277 264.813 361.201 C 275.779 361.116,275.688 361.130,277.584 359.300 C 279.672 357.284,279.616 357.629,279.698 346.448 L 279.771 336.521 289.823 336.448 C 300.911 336.367,300.542 336.419,302.199 334.725 C 303.395 333.501,303.785 332.220,303.699 329.790 L 303.625 327.710 300.000 326.514 C 289.004 322.885,278.679 316.975,271.156 310.004 L 269.938 308.875 241.281 337.690 C 209.462 369.685,211.731 367.630,208.250 367.603 C 204.095 367.570,201.317 364.967,201.054 360.862 C 200.808 357.036,198.096 360.089,231.042 327.109 L 260.278 297.842 258.676 295.484 C 256.660 292.515,254.649 289.076,253.095 285.938 C 252.430 284.597,251.828 283.505,251.756 283.510 C 251.684 283.516,236.775 298.489,218.625 316.784 " stroke="#000000" fill="none" stroke-width="3" class="rEGMJFru_0"></path><path id="path1" d="M153.500 3.166 C 80.415 6.280,22.357 28.789,6.835 60.027 C -13.432 100.813,48.062 141.107,140.500 147.612 C 255.289 155.690,351.703 109.994,326.278 59.561 C 308.683 24.658,232.518 -0.202,153.500 3.166 M330.311 100.161 C 328.995 117.025,309.370 135.930,280.414 148.225 C 181.238 190.336,17.319 163.415,3.517 102.749 L 3.034 100.625 3.092 128.500 C 3.156 159.311,3.048 157.144,4.782 162.375 C 20.451 209.637,135.675 237.728,232.472 217.885 C 234.175 217.536,235.594 217.250,235.625 217.250 C 235.656 217.250,236.158 216.041,236.740 214.563 C 251.040 178.274,286.650 154.257,326.165 154.251 L 329.955 154.250 330.234 152.563 C 330.430 151.377,330.492 143.218,330.443 125.125 C 330.404 110.963,330.345 99.729,330.311 100.161 M3.092 204.250 C 3.156 235.061,3.048 232.894,4.782 238.125 C 15.086 269.206,69.988 293.946,140.125 299.115 C 153.431 300.095,177.540 300.248,189.063 299.424 L 193.250 299.125 212.077 280.302 L 230.904 261.479 230.547 258.677 C 230.062 254.872,230.068 245.494,230.557 241.750 C 230.764 240.169,230.914 238.850,230.891 238.820 C 230.867 238.789,229.375 239.037,227.574 239.371 C 217.863 241.168,204.053 242.793,191.500 243.616 C 98.006 249.745,13.029 220.309,3.517 178.499 L 3.034 176.375 3.092 204.250 M319.750 185.010 C 268.956 189.896,243.032 248.638,273.716 289.322 C 302.903 328.021,362.899 322.220,384.352 278.625 C 406.652 233.307,369.989 180.178,319.750 185.010 M353.826 206.106 C 370.536 210.345,375.951 231.271,363.419 243.176 C 349.552 256.348,326.609 246.321,326.694 227.125 C 326.757 212.969,340.107 202.626,353.826 206.106 M3.091 280.000 C 3.154 310.819,3.045 308.641,4.783 313.875 C 14.359 342.702,63.559 366.554,127.750 373.488 C 135.955 374.374,147.923 375.250,151.827 375.250 L 153.807 375.250 153.649 374.438 C 152.433 368.185,153.580 350.971,155.701 343.625 C 158.031 335.557,159.856 332.607,166.926 325.477 L 172.030 320.330 162.828 320.157 C 77.851 318.566,11.937 291.297,3.517 254.249 L 3.035 252.125 3.091 280.000 M218.625 316.784 C 200.475 335.079,185.442 350.403,185.218 350.836 C 182.915 355.299,182.653 372.709,184.765 380.905 C 187.038 389.726,192.605 392.344,209.125 392.366 C 221.124 392.381,224.006 391.706,228.239 387.884 L 230.603 385.750 240.239 385.748 C 251.225 385.745,251.341 385.725,253.337 383.512 C 255.025 381.639,255.000 381.828,255.000 371.021 L 255.000 361.277 264.813 361.201 C 275.779 361.116,275.688 361.130,277.584 359.300 C 279.672 357.284,279.616 357.629,279.698 346.448 L 279.771 336.521 289.823 336.448 C 300.911 336.367,300.542 336.419,302.199 334.725 C 303.395 333.501,303.785 332.220,303.699 329.790 L 303.625 327.710 300.000 326.514 C 289.004 322.885,278.679 316.975,271.156 310.004 L 269.938 308.875 241.281 337.690 C 209.462 369.685,211.731 367.630,208.250 367.603 C 204.095 367.570,201.317 364.967,201.054 360.862 C 200.808 357.036,198.096 360.089,231.042 327.109 L 260.278 297.842 258.676 295.484 C 256.660 292.515,254.649 289.076,253.095 285.938 C 252.430 284.597,251.828 283.505,251.756 283.510 C 251.684 283.516,236.775 298.489,218.625 316.784 " stroke="#000000" fill="none" stroke-width="3" class="rEGMJFru_1"></path><path id="path2" d="M153.500 3.166 C 80.415 6.280,22.357 28.789,6.835 60.027 C -13.432 100.813,48.062 141.107,140.500 147.612 C 255.289 155.690,351.703 109.994,326.278 59.561 C 308.683 24.658,232.518 -0.202,153.500 3.166 M330.311 100.161 C 328.995 117.025,309.370 135.930,280.414 148.225 C 181.238 190.336,17.319 163.415,3.517 102.749 L 3.034 100.625 3.092 128.500 C 3.156 159.311,3.048 157.144,4.782 162.375 C 20.451 209.637,135.675 237.728,232.472 217.885 C 234.175 217.536,235.594 217.250,235.625 217.250 C 235.656 217.250,236.158 216.041,236.740 214.563 C 251.040 178.274,286.650 154.257,326.165 154.251 L 329.955 154.250 330.234 152.563 C 330.430 151.377,330.492 143.218,330.443 125.125 C 330.404 110.963,330.345 99.729,330.311 100.161 M3.092 204.250 C 3.156 235.061,3.048 232.894,4.782 238.125 C 15.086 269.206,69.988 293.946,140.125 299.115 C 153.431 300.095,177.540 300.248,189.063 299.424 L 193.250 299.125 212.077 280.302 L 230.904 261.479 230.547 258.677 C 230.062 254.872,230.068 245.494,230.557 241.750 C 230.764 240.169,230.914 238.850,230.891 238.820 C 230.867 238.789,229.375 239.037,227.574 239.371 C 217.863 241.168,204.053 242.793,191.500 243.616 C 98.006 249.745,13.029 220.309,3.517 178.499 L 3.034 176.375 3.092 204.250 M319.750 185.010 C 268.956 189.896,243.032 248.638,273.716 289.322 C 302.903 328.021,362.899 322.220,384.352 278.625 C 406.652 233.307,369.989 180.178,319.750 185.010 M353.826 206.106 C 370.536 210.345,375.951 231.271,363.419 243.176 C 349.552 256.348,326.609 246.321,326.694 227.125 C 326.757 212.969,340.107 202.626,353.826 206.106 M3.091 280.000 C 3.154 310.819,3.045 308.641,4.783 313.875 C 14.359 342.702,63.559 366.554,127.750 373.488 C 135.955 374.374,147.923 375.250,151.827 375.250 L 153.807 375.250 153.649 374.438 C 152.433 368.185,153.580 350.971,155.701 343.625 C 158.031 335.557,159.856 332.607,166.926 325.477 L 172.030 320.330 162.828 320.157 C 77.851 318.566,11.937 291.297,3.517 254.249 L 3.035 252.125 3.091 280.000 M218.625 316.784 C 200.475 335.079,185.442 350.403,185.218 350.836 C 182.915 355.299,182.653 372.709,184.765 380.905 C 187.038 389.726,192.605 392.344,209.125 392.366 C 221.124 392.381,224.006 391.706,228.239 387.884 L 230.603 385.750 240.239 385.748 C 251.225 385.745,251.341 385.725,253.337 383.512 C 255.025 381.639,255.000 381.828,255.000 371.021 L 255.000 361.277 264.813 361.201 C 275.779 361.116,275.688 361.130,277.584 359.300 C 279.672 357.284,279.616 357.629,279.698 346.448 L 279.771 336.521 289.823 336.448 C 300.911 336.367,300.542 336.419,302.199 334.725 C 303.395 333.501,303.785 332.220,303.699 329.790 L 303.625 327.710 300.000 326.514 C 289.004 322.885,278.679 316.975,271.156 310.004 L 269.938 308.875 241.281 337.690 C 209.462 369.685,211.731 367.630,208.250 367.603 C 204.095 367.570,201.317 364.967,201.054 360.862 C 200.808 357.036,198.096 360.089,231.042 327.109 L 260.278 297.842 258.676 295.484 C 256.660 292.515,254.649 289.076,253.095 285.938 C 252.430 284.597,251.828 283.505,251.756 283.510 C 251.684 283.516,236.775 298.489,218.625 316.784 " stroke="#000000" fill="none" stroke-width="3" class="rEGMJFru_2"></path><path id="path3" d="M153.500 3.166 C 80.415 6.280,22.357 28.789,6.835 60.027 C -13.432 100.813,48.062 141.107,140.500 147.612 C 255.289 155.690,351.703 109.994,326.278 59.561 C 308.683 24.658,232.518 -0.202,153.500 3.166 M330.311 100.161 C 328.995 117.025,309.370 135.930,280.414 148.225 C 181.238 190.336,17.319 163.415,3.517 102.749 L 3.034 100.625 3.092 128.500 C 3.156 159.311,3.048 157.144,4.782 162.375 C 20.451 209.637,135.675 237.728,232.472 217.885 C 234.175 217.536,235.594 217.250,235.625 217.250 C 235.656 217.250,236.158 216.041,236.740 214.563 C 251.040 178.274,286.650 154.257,326.165 154.251 L 329.955 154.250 330.234 152.563 C 330.430 151.377,330.492 143.218,330.443 125.125 C 330.404 110.963,330.345 99.729,330.311 100.161 M3.092 204.250 C 3.156 235.061,3.048 232.894,4.782 238.125 C 15.086 269.206,69.988 293.946,140.125 299.115 C 153.431 300.095,177.540 300.248,189.063 299.424 L 193.250 299.125 212.077 280.302 L 230.904 261.479 230.547 258.677 C 230.062 254.872,230.068 245.494,230.557 241.750 C 230.764 240.169,230.914 238.850,230.891 238.820 C 230.867 238.789,229.375 239.037,227.574 239.371 C 217.863 241.168,204.053 242.793,191.500 243.616 C 98.006 249.745,13.029 220.309,3.517 178.499 L 3.034 176.375 3.092 204.250 M319.750 185.010 C 268.956 189.896,243.032 248.638,273.716 289.322 C 302.903 328.021,362.899 322.220,384.352 278.625 C 406.652 233.307,369.989 180.178,319.750 185.010 M353.826 206.106 C 370.536 210.345,375.951 231.271,363.419 243.176 C 349.552 256.348,326.609 246.321,326.694 227.125 C 326.757 212.969,340.107 202.626,353.826 206.106 M3.091 280.000 C 3.154 310.819,3.045 308.641,4.783 313.875 C 14.359 342.702,63.559 366.554,127.750 373.488 C 135.955 374.374,147.923 375.250,151.827 375.250 L 153.807 375.250 153.649 374.438 C 152.433 368.185,153.580 350.971,155.701 343.625 C 158.031 335.557,159.856 332.607,166.926 325.477 L 172.030 320.330 162.828 320.157 C 77.851 318.566,11.937 291.297,3.517 254.249 L 3.035 252.125 3.091 280.000 M218.625 316.784 C 200.475 335.079,185.442 350.403,185.218 350.836 C 182.915 355.299,182.653 372.709,184.765 380.905 C 187.038 389.726,192.605 392.344,209.125 392.366 C 221.124 392.381,224.006 391.706,228.239 387.884 L 230.603 385.750 240.239 385.748 C 251.225 385.745,251.341 385.725,253.337 383.512 C 255.025 381.639,255.000 381.828,255.000 371.021 L 255.000 361.277 264.813 361.201 C 275.779 361.116,275.688 361.130,277.584 359.300 C 279.672 357.284,279.616 357.629,279.698 346.448 L 279.771 336.521 289.823 336.448 C 300.911 336.367,300.542 336.419,302.199 334.725 C 303.395 333.501,303.785 332.220,303.699 329.790 L 303.625 327.710 300.000 326.514 C 289.004 322.885,278.679 316.975,271.156 310.004 L 269.938 308.875 241.281 337.690 C 209.462 369.685,211.731 367.630,208.250 367.603 C 204.095 367.570,201.317 364.967,201.054 360.862 C 200.808 357.036,198.096 360.089,231.042 327.109 L 260.278 297.842 258.676 295.484 C 256.660 292.515,254.649 289.076,253.095 285.938 C 252.430 284.597,251.828 283.505,251.756 283.510 C 251.684 283.516,236.775 298.489,218.625 316.784 " stroke="#000000" fill="none" stroke-width="3" class="rEGMJFru_3"></path><path id="path4" d="M153.500 3.166 C 80.415 6.280,22.357 28.789,6.835 60.027 C -13.432 100.813,48.062 141.107,140.500 147.612 C 255.289 155.690,351.703 109.994,326.278 59.561 C 308.683 24.658,232.518 -0.202,153.500 3.166 M330.311 100.161 C 328.995 117.025,309.370 135.930,280.414 148.225 C 181.238 190.336,17.319 163.415,3.517 102.749 L 3.034 100.625 3.092 128.500 C 3.156 159.311,3.048 157.144,4.782 162.375 C 20.451 209.637,135.675 237.728,232.472 217.885 C 234.175 217.536,235.594 217.250,235.625 217.250 C 235.656 217.250,236.158 216.041,236.740 214.563 C 251.040 178.274,286.650 154.257,326.165 154.251 L 329.955 154.250 330.234 152.563 C 330.430 151.377,330.492 143.218,330.443 125.125 C 330.404 110.963,330.345 99.729,330.311 100.161 M3.092 204.250 C 3.156 235.061,3.048 232.894,4.782 238.125 C 15.086 269.206,69.988 293.946,140.125 299.115 C 153.431 300.095,177.540 300.248,189.063 299.424 L 193.250 299.125 212.077 280.302 L 230.904 261.479 230.547 258.677 C 230.062 254.872,230.068 245.494,230.557 241.750 C 230.764 240.169,230.914 238.850,230.891 238.820 C 230.867 238.789,229.375 239.037,227.574 239.371 C 217.863 241.168,204.053 242.793,191.500 243.616 C 98.006 249.745,13.029 220.309,3.517 178.499 L 3.034 176.375 3.092 204.250 M319.750 185.010 C 268.956 189.896,243.032 248.638,273.716 289.322 C 302.903 328.021,362.899 322.220,384.352 278.625 C 406.652 233.307,369.989 180.178,319.750 185.010 M353.826 206.106 C 370.536 210.345,375.951 231.271,363.419 243.176 C 349.552 256.348,326.609 246.321,326.694 227.125 C 326.757 212.969,340.107 202.626,353.826 206.106 M3.091 280.000 C 3.154 310.819,3.045 308.641,4.783 313.875 C 14.359 342.702,63.559 366.554,127.750 373.488 C 135.955 374.374,147.923 375.250,151.827 375.250 L 153.807 375.250 153.649 374.438 C 152.433 368.185,153.580 350.971,155.701 343.625 C 158.031 335.557,159.856 332.607,166.926 325.477 L 172.030 320.330 162.828 320.157 C 77.851 318.566,11.937 291.297,3.517 254.249 L 3.035 252.125 3.091 280.000 M218.625 316.784 C 200.475 335.079,185.442 350.403,185.218 350.836 C 182.915 355.299,182.653 372.709,184.765 380.905 C 187.038 389.726,192.605 392.344,209.125 392.366 C 221.124 392.381,224.006 391.706,228.239 387.884 L 230.603 385.750 240.239 385.748 C 251.225 385.745,251.341 385.725,253.337 383.512 C 255.025 381.639,255.000 381.828,255.000 371.021 L 255.000 361.277 264.813 361.201 C 275.779 361.116,275.688 361.130,277.584 359.300 C 279.672 357.284,279.616 357.629,279.698 346.448 L 279.771 336.521 289.823 336.448 C 300.911 336.367,300.542 336.419,302.199 334.725 C 303.395 333.501,303.785 332.220,303.699 329.790 L 303.625 327.710 300.000 326.514 C 289.004 322.885,278.679 316.975,271.156 310.004 L 269.938 308.875 241.281 337.690 C 209.462 369.685,211.731 367.630,208.250 367.603 C 204.095 367.570,201.317 364.967,201.054 360.862 C 200.808 357.036,198.096 360.089,231.042 327.109 L 260.278 297.842 258.676 295.484 C 256.660 292.515,254.649 289.076,253.095 285.938 C 252.430 284.597,251.828 283.505,251.756 283.510 C 251.684 283.516,236.775 298.489,218.625 316.784 " stroke="#000000" fill="none" stroke-width="3" class="rEGMJFru_4"></path></g><style data-made-with="vivus-instant">.rEGMJFru_0{stroke-dasharray:3807 3809;stroke-dashoffset:3808;animation:rEGMJFru_draw_0 7200ms linear 0ms infinite,rEGMJFru_fade 7200ms linear 0ms infinite;}.rEGMJFru_1{stroke-dasharray:3807 3809;stroke-dashoffset:3808;animation:rEGMJFru_draw_1 7200ms linear 0ms infinite,rEGMJFru_fade 7200ms linear 0ms infinite;}.rEGMJFru_2{stroke-dasharray:3807 3809;stroke-dashoffset:3808;animation:rEGMJFru_draw_2 7200ms linear 0ms infinite,rEGMJFru_fade 7200ms linear 0ms infinite;}.rEGMJFru_3{stroke-dasharray:3807 3809;stroke-dashoffset:3808;animation:rEGMJFru_draw_3 7200ms linear 0ms infinite,rEGMJFru_fade 7200ms linear 0ms infinite;}.rEGMJFru_4{stroke-dasharray:3807 3809;stroke-dashoffset:3808;animation:rEGMJFru_draw_4 7200ms linear 0ms infinite,rEGMJFru_fade 7200ms linear 0ms infinite;}@keyframes rEGMJFru_draw{100%{stroke-dashoffset:0;}}@keyframes rEGMJFru_fade{0%{stroke-opacity:1;}94.44444444444444%{stroke-opacity:1;}100%{stroke-opacity:0;}}@keyframes rEGMJFru_draw_0{11.11111111111111%{stroke-dashoffset: 3808}52.77777777777778%{ stroke-dashoffset: 0;}100%{ stroke-dashoffset: 0;}}@keyframes rEGMJFru_draw_1{11.11111111111111%{stroke-dashoffset: 3808}52.77777777777778%{ stroke-dashoffset: 0;}100%{ stroke-dashoffset: 0;}}@keyframes rEGMJFru_draw_2{11.11111111111111%{stroke-dashoffset: 3808}52.77777777777778%{ stroke-dashoffset: 0;}100%{ stroke-dashoffset: 0;}}@keyframes rEGMJFru_draw_3{11.11111111111111%{stroke-dashoffset: 3808}52.77777777777778%{ stroke-dashoffset: 0;}100%{ stroke-dashoffset: 0;}}@keyframes rEGMJFru_draw_4{11.11111111111111%{stroke-dashoffset: 3808}52.77777777777778%{ stroke-dashoffset: 0;}100%{ stroke-dashoffset: 0;}}</style></svg>