<svg id="svg" version="1.1" width="400" height="300" xmlns="http://www.w3.org/2000/svg" xmlns:xlink="http://www.w3.org/1999/xlink" style=""><g id="svgg"><path id="path0" d="M277.431 6.888 C 271.273 10.017,268.275 15.632,268.298 23.990 C 268.308 27.518,268.683 30.404,269.131 30.404 C 269.579 30.404,269.705 30.794,269.411 31.270 C 269.095 31.781,267.783 31.724,266.211 31.130 C 262.232 29.628,257.031 31.011,253.251 34.576 C 251.416 36.306,249.658 37.465,249.344 37.151 C 249.030 36.837,248.897 37.007,249.050 37.530 C 249.202 38.052,248.325 41.045,247.101 44.181 C 245.354 48.656,244.866 51.783,244.831 58.728 L 244.785 67.574 241.739 67.312 C 237.176 66.919,235.629 68.749,235.629 74.542 C 235.629 77.265,235.135 81.956,234.530 84.966 C 233.327 90.955,233.928 92.118,238.242 92.147 C 239.418 92.155,240.380 92.635,240.380 93.213 C 240.380 93.792,239.744 94.021,238.966 93.723 C 238.189 93.424,237.615 93.485,237.692 93.858 C 237.769 94.232,237.497 95.303,237.088 96.240 C 236.680 97.176,236.728 102.451,237.196 107.961 C 237.972 117.091,237.898 118.059,236.363 118.880 C 235.437 119.376,234.679 120.622,234.679 121.649 C 234.679 122.675,234.145 123.522,233.492 123.530 C 232.651 123.540,232.695 123.792,233.642 124.392 C 235.112 125.322,235.674 131.117,234.295 131.116 C 233.822 131.116,234.136 131.892,234.994 132.839 C 236.419 134.414,236.432 135.253,235.142 142.578 C 234.367 146.987,233.731 153.080,233.731 156.119 C 233.729 161.814,232.409 165.791,230.842 164.823 C 230.352 164.520,230.179 164.868,230.459 165.596 C 230.738 166.325,229.452 169.221,227.601 172.032 C 225.750 174.843,223.982 178.652,223.674 180.495 C 222.750 186.011,222.244 187.234,221.162 186.565 C 220.559 186.193,220.407 186.372,220.795 186.999 C 221.158 187.587,220.836 189.265,220.080 190.728 C 218.531 193.723,217.799 200.429,218.838 202.110 C 219.569 203.292,215.849 219.479,214.848 219.476 C 214.520 219.475,214.252 221.719,214.252 224.464 C 214.252 230.693,215.656 231.545,224.821 230.879 L 231.354 230.404 231.087 227.078 C 230.939 225.249,230.587 221.615,230.303 219.002 C 229.997 216.185,230.267 213.092,230.966 211.401 C 231.614 209.834,232.202 208.337,232.271 208.076 C 233.526 203.356,234.933 202.592,238.480 204.704 C 239.441 205.276,239.349 204.917,238.197 203.602 C 236.679 201.868,236.648 201.493,237.914 200.226 C 238.698 199.442,239.096 198.557,238.798 198.260 C 238.500 197.962,239.628 194.811,241.303 191.258 C 242.978 187.705,244.468 182.874,244.613 180.523 C 244.907 175.745,246.524 171.021,247.864 171.021 C 248.348 171.021,249.641 169.500,250.738 167.640 C 252.016 165.475,253.160 164.505,253.920 164.942 C 254.573 165.318,254.790 165.275,254.403 164.848 C 254.015 164.420,254.063 163.603,254.508 163.033 C 254.954 162.462,255.551 160.475,255.836 158.616 C 256.120 156.758,257.101 153.551,258.014 151.490 C 258.928 149.430,259.610 147.423,259.529 147.031 C 259.448 146.639,259.835 146.318,260.389 146.318 C 260.942 146.318,261.153 145.927,260.857 145.449 C 260.562 144.970,261.392 143.305,262.701 141.749 C 264.011 140.192,265.083 138.445,265.083 137.868 C 265.083 135.984,266.653 136.761,267.761 139.192 C 268.376 140.544,269.641 141.568,270.696 141.568 C 272.994 141.568,275.773 144.214,274.921 145.592 C 274.571 146.158,274.732 146.339,275.282 145.999 C 275.831 145.660,278.116 148.214,280.402 151.724 C 285.616 159.726,287.368 161.356,290.181 160.818 C 293.975 160.093,295.321 167.749,292.186 172.225 C 291.468 173.250,291.040 174.575,291.235 175.168 C 291.540 176.093,292.093 181.313,292.911 190.974 C 293.021 192.280,293.432 193.588,293.823 193.879 C 295.021 194.773,296.631 205.390,296.112 208.973 C 295.842 210.831,295.002 215.238,294.245 218.765 C 292.693 225.993,292.424 225.712,300.439 225.233 C 302.379 225.117,304.517 225.366,305.190 225.786 C 307.890 227.472,326.186 228.113,327.724 226.575 C 329.423 224.877,326.559 221.029,322.457 219.498 C 312.507 215.784,307.990 204.038,312.038 192.405 C 312.964 189.744,313.074 188.080,312.407 186.834 C 311.884 185.856,311.730 183.502,312.065 181.602 C 313.609 172.844,313.134 153.104,311.348 151.797 C 310.405 151.107,309.508 149.912,309.357 149.143 C 309.089 147.786,308.759 146.928,305.657 139.507 C 304.855 137.590,304.448 135.773,304.752 135.469 C 305.056 135.166,304.875 134.917,304.349 134.917 C 302.487 134.917,301.011 130.108,302.347 128.397 C 303.395 127.056,303.360 126.998,302.099 127.980 C 300.408 129.296,297.746 126.190,298.927 124.280 C 299.291 123.692,299.154 123.485,298.620 123.815 C 297.321 124.618,291.408 117.133,292.257 115.760 C 292.646 115.131,292.513 114.929,291.942 115.282 C 290.829 115.969,289.705 111.532,290.480 109.512 C 290.809 108.654,291.832 108.403,293.505 108.771 C 297.541 109.657,299.871 105.644,300.117 97.387 C 300.225 93.729,300.551 89.388,300.839 87.741 C 301.427 84.390,298.836 77.843,297.056 78.178 C 296.158 78.348,295.979 74.318,296.844 73.400 C 296.965 73.271,300.305 74.842,304.265 76.891 C 308.225 78.941,311.317 80.766,311.135 80.947 C 308.634 83.448,321.349 80.685,324.685 78.003 C 328.872 74.636,329.169 74.104,330.244 68.048 C 330.682 65.586,331.492 64.208,332.685 63.896 C 334.284 63.478,334.406 62.792,333.849 57.352 C 333.212 51.135,335.047 46.593,337.566 48.150 C 338.122 48.494,338.246 48.281,337.858 47.653 C 337.485 47.049,337.658 46.556,338.242 46.556 C 338.827 46.556,339.048 46.141,338.735 45.634 C 337.807 44.133,342.132 43.549,351.763 43.875 C 358.486 44.102,360.696 43.889,360.370 43.046 C 360.129 42.422,360.717 41.893,361.676 41.871 C 362.636 41.849,367.162 41.558,371.734 41.224 C 376.364 40.886,380.048 40.988,380.048 41.455 C 380.048 41.917,381.971 42.141,384.323 41.954 C 387.675 41.687,388.599 41.246,388.599 39.909 C 388.599 38.188,381.167 36.543,380.048 38.016 C 379.427 38.833,366.782 38.962,366.889 38.151 C 367.143 36.228,366.581 35.154,365.321 35.154 C 364.291 35.154,363.895 34.099,363.895 31.354 C 363.895 29.264,363.468 27.553,362.945 27.553 C 362.423 27.553,361.995 29.477,361.995 31.829 C 361.995 34.181,361.568 36.105,361.045 36.105 C 360.523 36.105,360.095 35.677,360.095 35.154 C 360.095 34.546,351.544 34.204,336.342 34.204 C 321.140 34.204,312.589 33.862,312.589 33.254 C 312.589 32.732,311.948 32.304,311.164 32.304 C 310.372 32.304,309.739 31.459,309.739 30.404 C 309.739 29.359,309.311 28.504,308.789 28.504 C 308.266 28.504,307.838 29.484,307.838 30.682 C 307.838 32.785,302.546 35.154,297.849 35.154 C 295.208 35.154,296.020 28.814,298.749 28.129 C 302.575 27.169,303.524 20.421,300.739 13.973 C 300.334 13.036,300.250 12.023,300.551 11.721 C 301.596 10.676,288.384 4.756,284.999 4.754 C 283.151 4.752,279.745 5.713,277.431 6.888 M22.200 32.694 C 19.206 34.088,16.649 36.103,15.582 37.910 C 14.625 39.530,13.578 40.855,13.255 40.855 C 12.932 40.855,12.615 41.390,12.549 42.043 C 12.483 42.696,12.091 44.941,11.678 47.031 C 11.265 49.121,11.140 61.520,11.401 74.584 L 11.876 98.337 14.608 102.363 C 16.419 105.034,19.017 107.210,22.323 108.828 L 27.308 111.267 56.647 110.978 C 80.304 110.745,86.446 110.419,88.361 109.297 C 89.667 108.532,91.052 107.891,91.437 107.872 C 92.700 107.812,97.165 100.489,98.360 96.519 L 99.530 92.637 66.392 92.898 L 33.254 93.159 33.254 70.820 L 33.254 48.481 66.271 48.231 C 95.041 48.013,99.247 47.798,98.971 46.556 C 98.797 45.772,98.583 44.703,98.496 44.181 C 98.409 43.658,97.389 41.761,96.230 39.966 C 94.554 37.371,94.350 36.397,95.234 35.216 C 96.148 33.992,96.117 33.932,95.055 34.876 C 94.035 35.781,93.246 35.662,91.300 34.308 C 86.167 30.739,83.021 30.404,54.728 30.413 C 27.575 30.422,26.991 30.463,22.200 32.694 M127.553 31.358 C 126.378 31.845,125.416 32.026,125.416 31.760 C 125.416 31.494,124.244 32.363,122.813 33.691 C 121.381 35.018,119.916 36.105,119.557 36.105 C 115.585 36.105,111.493 64.838,115.143 67.094 C 115.639 67.400,115.779 68.343,115.454 69.188 C 115.129 70.034,115.157 70.433,115.515 70.075 C 116.244 69.346,120.325 74.132,119.952 75.279 C 119.822 75.681,120.036 75.914,120.428 75.797 C 121.314 75.533,127.316 78.197,127.315 78.854 C 127.315 79.119,140.141 79.209,155.819 79.055 L 184.323 78.775 184.323 84.915 C 184.323 95.092,187.894 94.173,148.992 94.006 C 130.214 93.926,114.626 94.083,114.353 94.357 C 113.537 95.173,117.381 102.948,119.555 104.878 C 120.663 105.862,121.301 107.104,120.971 107.637 C 120.641 108.171,120.831 108.323,121.392 107.977 C 121.953 107.630,123.088 108.022,123.914 108.848 C 124.740 109.674,125.416 110.053,125.416 109.690 C 125.416 109.328,125.965 109.487,126.637 110.044 C 128.369 111.482,184.989 111.570,190.286 110.143 C 208.752 105.171,209.801 70.787,191.717 63.233 C 188.804 62.016,183.436 61.758,161.091 61.758 L 133.997 61.758 134.070 54.609 L 134.144 47.460 168.609 47.721 L 203.074 47.981 201.781 44.317 C 201.070 42.302,200.765 40.205,201.103 39.657 C 201.452 39.092,201.265 38.942,200.670 39.310 C 199.558 39.997,197.025 36.293,197.502 34.679 C 197.657 34.157,197.468 34.044,197.083 34.429 C 196.698 34.814,194.845 34.173,192.966 33.004 C 189.240 30.687,132.616 29.262,127.553 31.358 M323.040 49.406 C 323.040 50.932,322.432 51.292,319.952 51.231 C 318.254 51.190,317.399 50.941,318.052 50.677 C 318.705 50.414,319.240 49.592,319.240 48.852 C 319.240 48.112,320.095 47.506,321.140 47.506 C 322.407 47.506,323.040 48.139,323.040 49.406 M321.378 52.886 C 320.724 53.149,320.190 53.918,320.190 54.595 C 320.190 57.203,317.249 58.518,315.812 56.552 C 313.467 53.345,314.171 52.251,318.527 52.332 C 320.748 52.373,322.031 52.622,321.378 52.886 M24.474 132.468 C 22.519 133.166,19.740 134.525,18.298 135.488 C 16.857 136.452,15.325 137.134,14.894 137.005 C 14.463 136.876,14.342 137.145,14.625 137.603 C 14.909 138.061,14.299 140.086,13.271 142.103 C 10.766 147.017,10.401 194.341,12.823 200.139 C 14.434 203.993,19.482 210.130,20.338 209.274 C 20.649 208.963,20.903 209.137,20.903 209.660 C 20.903 211.141,21.397 211.168,55.107 211.565 C 101.467 212.111,101.886 211.849,101.673 182.511 C 101.586 170.630,101.854 166.735,102.799 166.136 C 103.480 165.703,90.249 165.343,73.397 165.335 C 40.720 165.320,41.022 165.273,44.234 169.860 C 45.048 171.021,45.443 171.971,45.112 171.971 C 43.886 171.971,50.181 176.703,52.661 177.645 C 54.074 178.183,61.846 178.622,69.933 178.622 L 84.635 178.622 84.360 186.936 L 84.086 195.249 56.353 195.501 L 28.620 195.753 28.536 171.489 L 28.451 147.224 65.057 147.484 C 99.768 147.730,101.663 147.655,101.663 146.034 C 101.662 141.234,94.706 133.812,88.625 132.124 C 83.066 130.580,28.950 130.871,24.474 132.468 M133.017 131.699 C 125.318 134.318,122.679 136.256,120.234 141.088 L 117.712 146.074 117.873 173.476 L 118.035 200.877 121.488 204.557 C 128.314 211.832,128.258 211.822,161.407 211.903 C 180.981 211.952,191.563 211.628,192.843 210.943 C 193.905 210.374,194.774 210.193,194.774 210.539 C 194.774 211.985,203.923 201.966,204.290 200.118 C 204.511 199.008,204.705 186.099,204.721 171.432 C 204.754 141.441,204.248 138.769,197.876 135.338 C 196.170 134.419,194.774 133.379,194.774 133.025 C 194.774 131.799,136.408 130.545,133.017 131.699 M188.124 171.496 L 188.124 196.675 161.520 196.675 L 134.917 196.675 134.917 171.496 L 134.917 146.318 161.520 146.318 L 188.124 146.318 188.124 171.496 " stroke="#000000" fill="none" stroke-width="3" class="QOhJsiwc_0"></path></g><style data-made-with="vivus-instant">.QOhJsiwc_0{stroke-dasharray:3167 3169;stroke-dashoffset:3168;animation:QOhJsiwc_draw_0 4500ms linear 0ms infinite,QOhJsiwc_fade 4500ms linear 0ms infinite;}@keyframes QOhJsiwc_draw{100%{stroke-dashoffset:0;}}@keyframes QOhJsiwc_fade{0%{stroke-opacity:1;}91.11111111111111%{stroke-opacity:1;}100%{stroke-opacity:0;}}@keyframes QOhJsiwc_draw_0{6.666666666666667%{stroke-dashoffset: 3168}73.33333333333333%{ stroke-dashoffset: 0;}100%{ stroke-dashoffset: 0;}}</style></svg>
