<svg id="svg" version="1.1" width="400" height="400" xmlns="http://www.w3.org/2000/svg" xmlns:xlink="http://www.w3.org/1999/xlink" style=""><g id="svgg"><path id="path0" d="M68.495 44.231 C 52.037 48.544,38.372 62.301,34.150 78.810 C 32.922 83.610,32.831 86.343,32.831 118.365 L 32.831 152.764 48.871 152.764 L 64.911 152.764 65.119 120.101 C 65.349 83.882,65.141 85.598,69.924 80.511 C 75.006 75.105,72.538 75.377,116.583 75.377 L 155.779 75.377 159.299 77.327 C 167.998 82.147,168.174 83.021,168.174 121.380 L 168.174 152.764 184.590 152.764 L 201.005 152.764 201.005 121.322 C 201.005 102.474,200.715 87.796,200.282 84.679 C 197.581 65.262,183.167 48.998,164.407 44.200 C 156.611 42.206,76.124 42.232,68.495 44.231 M154.042 172.786 C 146.840 175.615,141.394 181.070,138.693 188.158 C 137.357 191.667,137.337 192.816,137.511 256.835 L 137.688 321.943 139.658 325.955 C 142.167 331.064,146.658 335.555,151.767 338.064 L 155.779 340.034 250.705 340.210 L 345.630 340.387 349.386 338.981 C 356.168 336.444,362.351 330.354,364.983 323.618 C 366.462 319.835,367.212 199.324,365.802 191.982 C 364.263 183.965,359.209 177.327,351.919 173.748 L 348.074 171.859 252.596 171.718 C 161.973 171.585,156.962 171.639,154.042 172.786 M258.168 222.172 C 272.000 226.885,276.054 245.840,265.307 255.550 L 262.647 257.953 262.647 274.891 C 262.647 296.313,262.748 296.140,250.251 296.140 C 237.776 296.140,237.856 296.288,237.856 273.182 L 237.856 255.510 236.235 253.987 C 222.127 240.734,239.345 215.758,258.168 222.172 " stroke="#000000" fill="none" stroke-width="3" class="PKOMuoBK_0"></path></g><style data-made-with="vivus-instant">.PKOMuoBK_0{stroke-dasharray:1605 1607;stroke-dashoffset:1606;animation:PKOMuoBK_draw_0 4500ms linear 0ms infinite,PKOMuoBK_fade 4500ms linear 0ms infinite;}@keyframes PKOMuoBK_draw{100%{stroke-dashoffset:0;}}@keyframes PKOMuoBK_fade{0%{stroke-opacity:1;}91.11111111111111%{stroke-opacity:1;}100%{stroke-opacity:0;}}@keyframes PKOMuoBK_draw_0{6.666666666666667%{stroke-dashoffset: 1606}73.33333333333333%{ stroke-dashoffset: 0;}100%{ stroke-dashoffset: 0;}}</style></svg>
