<svg id="svg" version="1.1" width="400" height="400" xmlns="http://www.w3.org/2000/svg" xmlns:xlink="http://www.w3.org/1999/xlink" style=""><g id="svgg"><path id="path0" d="M235.556 30.844 C 232.773 32.038,217.479 47.115,215.828 50.292 C 208.697 64.010,226.175 77.040,238.060 66.867 L 240.750 64.564 271.792 95.601 C 302.458 126.262,302.864 126.638,305.385 126.638 C 308.975 126.638,311.284 124.283,311.284 120.623 L 311.284 117.956 280.267 86.934 L 249.250 55.911 250.937 54.146 C 261.706 42.878,249.744 24.756,235.556 30.844 M118.413 41.296 C 109.683 42.990,95.611 45.709,87.143 47.338 L 71.746 50.301 71.746 85.228 L 71.746 120.156 67.945 124.219 C 61.639 130.961,63.116 136.852,69.902 132.020 L 71.746 130.707 71.750 132.814 C 71.770 141.901,78.362 156.537,86.397 165.328 L 89.657 168.895 81.518 187.460 C 75.126 202.039,72.966 206.354,71.452 207.559 C 47.002 227.021,33.450 267.338,37.871 307.460 L 38.273 311.111 109.283 311.111 L 180.293 311.111 180.767 309.365 C 181.028 308.405,181.248 300.905,181.256 292.698 L 181.270 277.778 257.143 277.460 L 333.016 277.143 336.030 275.658 C 348.183 269.673,348.183 252.231,336.030 246.246 L 333.016 244.762 253.164 244.591 L 173.312 244.421 170.892 239.194 C 169.561 236.320,167.318 232.073,165.908 229.756 L 163.343 225.544 221.671 167.218 C 253.752 135.138,280.000 108.602,280.000 108.248 C 280.000 107.417,258.284 85.714,257.452 85.714 C 257.106 85.714,230.571 111.968,198.485 144.055 L 140.146 202.396 137.851 201.083 C 136.588 200.361,135.502 199.745,135.438 199.714 C 135.373 199.683,134.870 196.806,134.321 193.321 C 133.771 189.836,133.173 186.263,132.991 185.381 C 132.669 183.822,132.798 183.757,137.684 182.988 C 149.341 181.154,159.386 176.357,156.532 173.988 C 156.021 173.564,154.986 171.601,154.231 169.625 C 151.384 162.175,152.097 141.119,155.018 146.349 C 157.723 151.192,167.868 158.232,173.446 159.137 L 175.749 159.511 178.321 154.853 C 179.736 152.291,181.546 148.187,182.344 145.733 C 183.714 141.520,183.964 141.187,186.805 139.800 C 194.440 136.070,194.982 128.060,187.921 123.306 C 185.876 121.930,185.631 121.398,184.577 116.060 C 181.916 102.580,174.637 90.155,164.888 82.448 L 161.791 80.000 178.991 80.000 C 194.975 80.000,198.715 79.617,194.814 78.379 C 194.057 78.138,188.090 75.304,181.555 72.080 L 169.673 66.219 179.425 62.157 C 184.788 59.923,189.183 57.885,189.191 57.627 C 189.200 57.370,179.307 57.084,167.207 56.992 L 145.208 56.825 156.718 50.794 C 168.448 44.646,169.841 43.673,166.190 44.171 C 162.687 44.649,124.581 48.254,123.040 48.253 C 122.060 48.253,123.655 46.991,127.937 44.377 C 131.429 42.246,135.143 39.965,136.190 39.309 L 138.095 38.117 136.190 38.166 C 135.143 38.194,127.143 39.602,118.413 41.296 M277.151 66.710 C 275.759 67.404,273.539 69.028,272.219 70.317 L 269.818 72.662 281.093 83.950 C 293.616 96.488,293.043 96.142,295.891 92.899 C 307.885 79.238,293.194 58.708,277.151 66.710 M114.716 84.570 C 113.277 87.123,110.205 90.761,106.230 94.620 L 100.000 100.669 96.650 100.334 L 93.300 100.000 101.201 92.125 C 108.004 85.345,115.601 79.616,116.740 80.408 C 116.867 80.497,115.956 82.370,114.716 84.570 M85.980 110.457 C 85.485 112.366,85.079 114.371,85.079 114.912 C 85.079 116.318,72.644 128.559,72.104 127.685 C 70.362 124.867,72.414 121.054,79.559 113.831 C 83.433 109.914,86.666 106.772,86.742 106.848 C 86.818 106.924,86.475 108.548,85.980 110.457 M317.068 194.866 C 312.252 197.053,312.381 196.340,312.381 220.776 L 312.381 242.540 317.460 242.540 L 322.540 242.540 322.540 218.095 L 322.540 193.651 321.111 193.665 C 320.325 193.672,318.506 194.213,317.068 194.866 M342.378 224.924 C 323.729 243.583,324.524 242.530,329.048 242.568 C 330.881 242.583,333.524 243.005,334.921 243.506 L 337.460 244.417 350.045 231.844 C 364.323 217.580,364.661 216.993,361.786 211.460 C 359.664 207.378,360.480 206.812,342.378 224.924 M260.713 282.530 C 255.544 295.448,265.397 305.023,278.016 299.345 C 280.896 298.050,283.226 296.021,290.049 288.869 L 298.511 280.000 291.314 280.000 L 284.118 280.000 284.324 282.698 C 284.613 286.497,282.347 290.549,278.463 293.175 C 269.816 299.023,261.508 292.023,266.331 282.952 L 267.901 280.000 264.813 280.000 C 261.805 280.000,261.699 280.066,260.713 282.530 M314.762 292.222 C 314.463 315.237,314.390 314.196,316.584 318.100 C 324.020 331.329,339.892 325.901,340.823 309.810 C 341.481 298.447,335.664 290.971,326.613 291.547 L 322.540 291.806 322.540 285.903 L 322.540 280.000 318.730 280.000 L 314.921 280.000 314.762 292.222 M331.244 298.390 C 335.197 300.800,337.113 306.938,335.553 312.191 C 333.387 319.485,326.569 321.673,322.104 316.508 C 314.790 308.047,322.386 292.989,331.244 298.390 " stroke="#000000" fill="none" stroke-width="3" class="ojqwajzS_0"></path></g><style data-made-with="vivus-instant">.ojqwajzS_0{stroke-dasharray:2739 2741;stroke-dashoffset:2740;animation:ojqwajzS_draw_0 4500ms linear 0ms infinite,ojqwajzS_fade 4500ms linear 0ms infinite;}@keyframes ojqwajzS_draw{100%{stroke-dashoffset:0;}}@keyframes ojqwajzS_fade{0%{stroke-opacity:1;}91.11111111111111%{stroke-opacity:1;}100%{stroke-opacity:0;}}@keyframes ojqwajzS_draw_0{6.666666666666667%{stroke-dashoffset: 2740}73.33333333333333%{ stroke-dashoffset: 0;}100%{ stroke-dashoffset: 0;}}</style></svg>
