<svg id="svg" version="1.1" width="642" height="602" xmlns="http://www.w3.org/2000/svg" xmlns:xlink="http://www.w3.org/1999/xlink" style=""><g id="svgg"><path id="path0" d="M38.119 12.772 C 26.618 14.867,20.485 21.332,18.617 33.333 C 18.267 35.583,18.104 85.333,18.208 158.255 L 18.380 279.439 19.777 283.549 C 22.357 291.137,26.728 295.112,35.249 297.618 C 38.627 298.611,44.181 298.722,100.532 298.916 L 162.124 299.127 161.713 305.483 C 159.893 333.617,158.652 336.113,141.352 346.417 C 129.281 353.608,126.244 356.539,127.494 359.796 C 128.319 361.946,129.943 361.994,201.517 361.994 L 272.897 361.994 274.197 360.694 C 277.079 357.811,274.467 354.468,265.241 349.228 C 245.559 338.051,243.501 335.165,242.036 316.683 C 241.553 310.591,241.032 304.149,240.877 302.367 L 240.595 299.128 301.450 298.905 C 354.048 298.713,362.728 298.552,365.421 297.723 C 375.154 294.725,379.551 289.876,381.646 279.827 C 383.165 272.540,382.708 32.823,381.166 28.321 C 378.682 21.067,373.703 16.103,366.355 13.554 L 362.305 12.150 202.492 12.046 C 71.709 11.961,41.851 12.093,38.119 12.772 M351.610 98.910 C 351.838 130.008,352.024 172.344,352.025 192.991 L 352.025 230.530 200.000 230.530 L 47.975 230.530 47.975 136.449 L 47.975 42.368 199.586 42.368 L 351.196 42.368 351.610 98.910 M160.858 95.338 C 144.669 98.719,135.893 115.902,137.314 141.433 C 138.596 164.485,147.933 176.813,164.590 177.450 C 183.746 178.183,193.886 165.681,194.814 140.187 C 195.917 109.885,181.620 91.001,160.858 95.338 M279.751 95.388 C 263.386 98.584,254.496 117.214,256.688 143.717 C 258.574 166.514,267.754 177.259,285.348 177.259 C 304.834 177.259,313.714 164.574,313.702 136.760 C 313.689 107.509,300.429 91.350,279.751 95.388 M99.688 103.774 C 88.187 111.239,86.613 112.798,86.608 116.729 C 86.599 123.108,92.801 125.013,101.168 121.200 L 105.919 119.035 105.919 147.368 L 105.919 175.701 114.642 175.701 L 123.364 175.701 123.364 136.137 L 123.364 96.573 116.978 96.635 L 110.592 96.696 99.688 103.774 M222.638 101.431 C 218.583 104.103,213.508 107.351,211.360 108.648 C 199.031 116.096,207.024 127.353,220.290 121.224 L 224.922 119.084 224.922 147.393 L 224.922 175.701 233.645 175.701 L 242.368 175.701 242.368 136.137 L 242.368 96.573 236.190 96.573 L 230.012 96.573 222.638 101.431 M171.223 113.082 C 179.187 119.783,178.643 155.656,170.502 160.688 C 159.135 167.713,151.614 146.819,156.730 122.430 C 158.845 112.351,165.360 108.148,171.223 113.082 M289.341 112.831 C 297.802 119.487,297.475 155.551,288.907 160.775 C 278.081 167.376,270.390 146.250,275.142 122.964 C 277.209 112.835,283.573 108.294,289.341 112.831 " stroke="#000000" fill="none" stroke-width="3" class="HfnEipMH_0"></path></g><style data-made-with="vivus-instant">.HfnEipMH_0{stroke-dasharray:3608 3610;stroke-dashoffset:3609;animation:HfnEipMH_draw_0 4500ms linear 0ms infinite,HfnEipMH_fade 4500ms linear 0ms infinite;}@keyframes HfnEipMH_draw{100%{stroke-dashoffset:0;}}@keyframes HfnEipMH_fade{0%{stroke-opacity:1;}91.11111111111111%{stroke-opacity:1;}100%{stroke-opacity:0;}}@keyframes HfnEipMH_draw_0{6.666666666666667%{stroke-dashoffset: 3609}73.33333333333333%{ stroke-dashoffset: 0;}100%{ stroke-dashoffset: 0;}}</style></svg>
