<svg id="svg" version="1.1" width="400" height="400" xmlns="http://www.w3.org/2000/svg" xmlns:xlink="http://www.w3.org/1999/xlink" style=""><g id="svgg"><path id="path0" d="M64.048 35.727 C 30.855 44.651,25.783 89.687,56.167 105.701 L 60.667 108.073 60.670 128.203 C 60.676 160.735,59.984 160.000,90.645 160.000 L 110.667 160.000 110.667 197.333 L 110.667 234.667 90.645 234.667 C 59.982 234.667,60.676 233.929,60.670 266.479 L 60.667 286.626 57.080 288.382 C 20.356 306.364,34.779 361.825,75.662 359.836 C 114.320 357.954,125.048 305.419,90.253 288.382 L 86.667 286.626 86.667 273.313 L 86.667 260.000 98.598 260.000 L 110.530 260.000 110.765 268.167 C 111.035 277.550,112.034 280.013,116.867 283.212 L 119.569 285.000 198.667 285.000 L 277.764 285.000 280.467 283.212 C 285.936 279.592,286.304 278.298,286.547 261.833 L 286.760 247.333 298.713 247.333 L 310.667 247.333 310.667 266.979 L 310.667 286.626 307.080 288.382 C 270.356 306.364,284.779 361.825,325.662 359.836 C 364.320 357.954,375.048 305.419,340.253 288.382 L 336.667 286.626 336.667 197.349 L 336.667 108.073 341.167 105.701 C 375.898 87.395,362.907 34.667,323.667 34.667 C 284.058 34.667,271.410 88.203,306.799 106.067 L 310.667 108.019 310.667 165.010 L 310.667 222.000 298.682 222.000 L 286.698 222.000 286.516 170.167 L 286.333 118.333 284.751 115.788 C 283.881 114.389,281.953 112.439,280.467 111.455 L 277.764 109.667 198.667 109.667 L 119.569 109.667 116.867 111.455 C 112.034 114.653,111.035 117.116,110.765 126.500 L 110.530 134.667 98.598 134.667 L 86.667 134.667 86.667 121.370 L 86.667 108.073 91.167 105.701 C 130.324 85.062,106.754 24.246,64.048 35.727 M242.007 149.435 C 243.860 150.524,245.652 152.316,246.674 154.101 L 248.333 157.000 248.333 197.333 L 248.333 237.667 246.565 240.674 C 245.476 242.526,243.684 244.318,241.899 245.340 L 239.000 247.000 198.667 247.000 L 158.333 247.000 155.435 245.340 C 153.649 244.318,151.857 242.526,150.768 240.674 L 149.000 237.667 149.000 197.333 L 149.000 157.000 150.641 154.134 C 154.504 147.387,154.134 147.436,200.333 147.562 L 239.000 147.667 242.007 149.435 M173.333 197.333 L 173.333 222.667 198.667 222.667 L 224.000 222.667 224.000 197.333 L 224.000 172.000 198.667 172.000 L 173.333 172.000 173.333 197.333 " stroke="#000000" fill="none" stroke-width="3" class="WwdRruoI_0"></path></g><style data-made-with="vivus-instant">.WwdRruoI_0{stroke-dasharray:2702 2704;stroke-dashoffset:2703;animation:WwdRruoI_draw_0 4500ms linear 0ms infinite,WwdRruoI_fade 4500ms linear 0ms infinite;}@keyframes WwdRruoI_draw{100%{stroke-dashoffset:0;}}@keyframes WwdRruoI_fade{0%{stroke-opacity:1;}91.11111111111111%{stroke-opacity:1;}100%{stroke-opacity:0;}}@keyframes WwdRruoI_draw_0{6.666666666666667%{stroke-dashoffset: 2703}73.33333333333333%{ stroke-dashoffset: 0;}100%{ stroke-dashoffset: 0;}}</style></svg>
