<svg id="svg" version="1.1" width="400" height="400" xmlns="http://www.w3.org/2000/svg" xmlns:xlink="http://www.w3.org/1999/xlink" style=""><g id="svgg"><path id="path0" d="M142.521 32.531 C 124.135 36.619,119.141 55.017,130.547 76.639 C 132.400 80.151,137.685 90.424,142.291 99.466 L 150.665 115.907 149.521 118.962 C 148.891 120.642,147.652 123.466,146.767 125.238 L 145.159 128.459 142.594 125.214 C 102.087 73.969,16.493 107.445,21.157 172.709 C 25.265 230.195,94.329 257.809,135.933 218.599 C 138.838 215.862,140.760 214.519,141.318 214.838 C 141.795 215.112,144.206 216.814,146.676 218.621 C 150.671 221.544,175.844 231.933,178.931 231.933 C 179.320 231.933,180.215 232.665,180.919 233.561 C 184.116 237.625,192.224 238.371,196.635 235.006 C 200.201 232.286,200.989 230.076,203.075 216.946 C 204.130 210.302,205.080 204.789,205.186 204.693 C 205.830 204.109,262.409 183.529,262.665 183.785 C 262.837 183.958,262.115 189.643,261.059 196.419 L 259.138 208.739 251.988 209.249 C 193.601 213.408,165.527 281.567,204.751 323.933 C 242.750 364.975,310.730 345.962,322.165 291.092 C 329.129 257.676,307.189 220.460,275.778 212.410 C 272.802 211.647,272.350 211.321,272.624 210.130 C 272.800 209.365,274.159 201.025,275.645 191.597 C 280.366 161.639,282.821 157.062,291.872 161.344 C 300.898 165.614,307.540 162.030,307.086 153.135 C 306.809 147.698,311.554 142.521,316.815 142.521 C 322.949 142.521,326.715 138.916,326.720 133.041 C 326.725 127.378,325.341 126.212,311.261 120.015 C 290.230 110.759,291.260 111.604,274.813 90.131 C 242.749 48.269,245.031 50.421,229.095 47.034 C 223.816 45.912,207.222 42.285,192.220 38.974 C 159.125 31.671,151.082 30.628,142.521 32.531 M274.958 38.237 C 251.222 46.033,256.173 80.450,281.008 80.302 C 308.784 80.136,309.764 38.924,282.017 37.886 C 279.059 37.775,275.882 37.933,274.958 38.237 M205.042 80.252 C 217.798 83.004,228.784 85.359,229.455 85.485 C 230.351 85.653,233.047 91.247,239.611 106.555 C 251.697 134.740,253.469 138.376,256.551 141.298 C 258.863 143.491,269.772 150.764,271.726 151.416 C 272.419 151.647,268.840 162.264,267.646 163.523 C 267.386 163.796,254.933 159.937,239.973 154.948 L 212.773 145.876 212.674 134.619 C 212.525 117.591,209.335 111.347,186.367 83.122 C 182.410 78.259,179.884 74.648,180.592 74.864 C 181.283 75.075,192.286 77.500,205.042 80.252 M263.852 107.459 C 275.515 122.495,280.001 126.577,290.399 131.611 C 295.402 134.033,299.632 136.128,299.799 136.266 C 299.966 136.404,298.839 137.780,297.294 139.325 L 294.486 142.132 291.277 140.592 C 286.020 138.068,273.435 131.032,271.183 129.358 C 269.132 127.833,267.073 123.642,258.495 103.529 C 255.723 97.029,255.812 97.094,263.852 107.459 M173.642 105.378 C 176.540 109.158,176.589 109.303,175.820 111.933 L 175.033 114.622 173.841 110.608 C 173.186 108.401,172.066 105.452,171.353 104.054 C 169.542 100.503,170.193 100.880,173.642 105.378 M103.193 115.328 C 119.226 119.688,140.262 137.857,136.870 144.416 C 135.327 147.399,135.346 147.391,111.597 154.582 C 82.321 163.446,82.689 163.269,82.689 168.442 C 82.689 171.694,84.529 173.459,98.062 183.193 C 109.053 191.099,110.253 192.157,110.650 194.286 C 111.793 200.425,116.133 203.901,122.844 204.053 C 129.567 204.205,130.076 205.337,125.357 209.650 C 98.758 233.960,54.147 224.073,39.353 190.588 C 21.111 149.299,59.910 103.559,103.193 115.328 M188.104 126.218 C 189.654 130.288,189.569 137.901,187.979 137.406 C 184.419 136.299,183.415 135.721,183.705 134.949 C 183.877 134.492,184.580 131.924,185.267 129.244 C 186.637 123.898,187.052 123.456,188.104 126.218 M169.717 134.622 C 169.295 136.567,168.142 138.114,167.554 137.526 C 167.294 137.266,169.546 132.437,169.926 132.437 C 170.072 132.437,169.978 133.420,169.717 134.622 M184.706 150.880 C 186.647 151.519,188.235 152.442,188.235 152.932 C 188.235 153.949,184.834 179.309,183.131 190.995 L 181.993 198.796 178.896 199.821 C 177.192 200.385,173.337 201.770,170.328 202.899 L 164.858 204.952 166.361 199.451 C 167.188 196.425,170.557 183.891,173.848 171.598 C 177.139 159.304,180.134 149.353,180.504 149.483 C 180.874 149.613,182.765 150.242,184.706 150.880 M161.184 166.199 L 157.647 179.328 157.658 167.670 C 157.665 159.126,157.897 155.783,158.526 155.155 C 159.281 154.400,164.082 152.643,164.546 152.952 C 164.643 153.016,163.130 158.978,161.184 166.199 M231.470 166.457 C 242.124 170.008,250.746 173.003,250.630 173.112 C 249.994 173.714,208.156 188.884,207.883 188.612 C 207.704 188.432,208.355 182.299,209.330 174.983 C 210.306 167.667,211.101 161.303,211.098 160.840 C 211.090 159.624,210.412 159.437,231.470 166.457 M124.281 166.218 C 123.473 167.732,119.036 175.136,117.232 177.981 L 116.274 179.492 110.533 175.306 C 107.271 172.927,105.173 170.985,105.674 170.807 C 106.412 170.545,124.317 164.910,124.898 164.756 C 125.003 164.729,124.726 165.387,124.281 166.218 M140.510 188.315 C 138.320 194.032,137.525 195.220,136.620 194.129 C 136.027 193.415,136.466 192.192,138.582 188.659 C 141.763 183.347,142.461 183.223,140.510 188.315 M152.530 198.418 C 150.770 204.982,150.878 204.775,149.715 203.810 C 148.972 203.193,149.208 202.243,151.034 198.504 C 152.257 195.999,153.262 193.521,153.267 192.997 C 153.273 192.473,153.448 192.215,153.656 192.424 C 153.865 192.632,153.358 195.330,152.530 198.418 M179.496 215.423 C 179.496 216.817,178.475 217.250,176.411 216.732 L 174.608 216.279 176.212 215.390 C 178.325 214.219,179.496 214.230,179.496 215.423 M256.807 223.101 C 256.807 223.421,254.974 235.143,252.735 249.152 C 247.815 279.932,247.815 279.921,250.659 282.462 C 253.516 285.014,256.720 285.036,259.507 282.521 L 261.555 280.672 265.903 253.166 C 268.294 238.037,270.396 225.514,270.574 225.336 C 273.298 222.613,293.843 237.231,299.968 246.251 C 329.667 289.984,287.204 346.542,237.493 329.465 C 193.348 314.300,187.316 253.918,227.592 230.342 C 236.171 225.320,256.807 220.206,256.807 223.101 M18.151 250.420 L 18.151 256.134 25.203 256.134 L 32.255 256.134 46.547 268.335 C 54.409 275.045,61.531 281.158,62.375 281.918 C 63.830 283.229,65.849 283.394,100.993 285.079 C 135.563 286.737,138.136 286.944,138.944 288.135 C 139.421 288.837,149.727 302.697,161.847 318.935 L 183.882 348.458 249.075 363.425 C 284.932 371.657,314.341 378.320,314.430 378.231 C 314.519 378.142,315.161 375.667,315.857 372.732 L 317.121 367.395 315.031 366.923 C 285.115 360.174,192.285 338.692,191.446 338.324 C 190.808 338.044,179.851 323.824,167.096 306.723 L 143.905 275.630 140.692 275.623 C 138.925 275.619,122.353 274.865,103.866 273.948 C 85.378 273.031,69.898 272.277,69.465 272.274 C 69.032 272.271,61.469 266.075,52.658 258.505 L 36.639 244.741 27.395 244.724 L 18.151 244.706 18.151 250.420 " stroke="#000000" fill="none" stroke-width="3" class="xdbBIcNG_0"></path></g><style data-made-with="vivus-instant">.xdbBIcNG_0{stroke-dasharray:3980 3982;stroke-dashoffset:3981;animation:xdbBIcNG_draw_0 4500ms linear 0ms infinite,xdbBIcNG_fade 4500ms linear 0ms infinite;}@keyframes xdbBIcNG_draw{100%{stroke-dashoffset:0;}}@keyframes xdbBIcNG_fade{0%{stroke-opacity:1;}91.11111111111111%{stroke-opacity:1;}100%{stroke-opacity:0;}}@keyframes xdbBIcNG_draw_0{6.666666666666667%{stroke-dashoffset: 3981}73.33333333333333%{ stroke-dashoffset: 0;}100%{ stroke-dashoffset: 0;}}</style></svg>
