<svg id="svg" version="1.1" width="400" height="400" xmlns="http://www.w3.org/2000/svg" xmlns:xlink="http://www.w3.org/1999/xlink" style=""><g id="svgg"><path id="path0" d="M124.547 46.129 L 124.547 69.852 104.360 69.852 C 71.066 69.852,71.170 69.749,71.170 102.679 L 71.170 123.888 46.787 123.888 L 22.405 123.888 22.405 140.033 L 22.405 156.178 46.787 156.178 L 71.170 156.178 71.170 169.028 L 71.170 181.878 46.787 181.878 L 22.405 181.878 22.405 197.694 L 22.405 213.509 46.787 213.509 L 71.170 213.509 71.170 226.359 L 71.170 239.209 46.787 239.209 L 22.405 239.209 22.405 255.025 L 22.405 270.840 46.787 270.840 L 71.170 270.840 71.170 291.390 C 71.170 323.555,71.173 323.558,104.360 323.558 L 124.547 323.558 124.547 348.270 L 124.547 372.982 140.362 372.982 L 156.178 372.982 156.178 348.270 L 156.178 323.558 169.028 323.558 L 181.878 323.558 181.878 348.270 L 181.878 372.982 197.694 372.982 L 213.509 372.982 213.509 348.270 L 213.509 323.558 226.359 323.558 L 239.209 323.558 239.209 348.270 L 239.209 372.982 255.025 372.982 L 270.840 372.982 270.840 348.270 L 270.840 323.558 291.027 323.558 C 324.214 323.558,324.217 323.555,324.217 291.390 L 324.217 270.840 348.600 270.840 L 372.982 270.840 372.982 255.025 L 372.982 239.209 348.600 239.209 L 324.217 239.209 324.217 226.359 L 324.217 213.509 348.600 213.509 L 372.982 213.509 372.982 197.694 L 372.982 181.878 348.600 181.878 L 324.217 181.878 324.217 169.028 L 324.217 156.178 348.600 156.178 L 372.982 156.178 372.982 140.362 L 372.982 124.547 348.600 124.547 L 324.217 124.547 324.203 103.295 C 324.180 70.141,324.331 70.296,291.763 69.975 L 270.840 69.768 270.840 46.087 L 270.840 22.405 255.025 22.405 L 239.209 22.405 239.209 46.129 L 239.209 69.852 226.359 69.852 L 213.509 69.852 213.509 46.129 L 213.509 22.405 197.694 22.405 L 181.878 22.405 181.878 46.129 L 181.878 69.852 169.028 69.852 L 156.178 69.852 156.178 46.129 L 156.178 22.405 140.362 22.405 L 124.547 22.405 124.547 46.129 M292.586 196.705 L 292.586 291.269 197.694 291.269 L 102.801 291.269 102.801 196.705 L 102.801 102.142 197.694 102.142 L 292.586 102.142 292.586 196.705 M145.066 134.675 C 141.899 135.821,137.948 139.344,136.234 142.550 L 134.761 145.305 134.761 196.705 L 134.761 248.105 136.221 250.835 C 141.086 259.932,139.598 259.727,199.064 259.500 L 249.528 259.308 252.753 257.314 C 254.751 256.078,256.737 254.092,257.973 252.094 L 259.967 248.868 260.151 197.416 C 260.357 139.412,260.606 142.487,255.343 137.855 C 253.761 136.462,251.303 134.974,249.880 134.548 C 246.124 133.422,148.199 133.541,145.066 134.675 M228.007 197.035 L 228.007 228.007 197.364 228.007 L 166.722 228.007 166.722 197.035 L 166.722 166.063 197.364 166.063 L 228.007 166.063 228.007 197.035 " stroke="#000000" fill="none" stroke-width="3" class="GnwcgHAv_0"></path></g><style data-made-with="vivus-instant">.GnwcgHAv_0{stroke-dasharray:3635 3637;stroke-dashoffset:3636;animation:GnwcgHAv_draw_0 4500ms linear 0ms infinite,GnwcgHAv_fade 4500ms linear 0ms infinite;}@keyframes GnwcgHAv_draw{100%{stroke-dashoffset:0;}}@keyframes GnwcgHAv_fade{0%{stroke-opacity:1;}91.11111111111111%{stroke-opacity:1;}100%{stroke-opacity:0;}}@keyframes GnwcgHAv_draw_0{6.666666666666667%{stroke-dashoffset: 3636}73.33333333333333%{ stroke-dashoffset: 0;}100%{ stroke-dashoffset: 0;}}</style></svg>
