<svg id="svg" version="1.1" width="400" height="400" xmlns="http://www.w3.org/2000/svg" xmlns:xlink="http://www.w3.org/1999/xlink" style=""><g id="svgg"><path id="path0" d="M64.099 36.334 C 31.557 45.082,26.584 89.235,56.373 104.936 L 60.784 107.261 60.788 126.996 C 60.794 158.890,60.115 158.170,90.175 158.170 L 109.804 158.170 109.804 194.771 L 109.804 231.373 90.175 231.373 C 60.113 231.373,60.794 230.650,60.788 262.562 L 60.784 282.313 57.268 284.034 C 21.264 301.664,35.404 356.038,75.486 354.087 C 113.386 352.243,123.903 300.738,89.790 284.034 L 86.275 282.313 86.275 269.261 L 86.275 256.209 97.972 256.209 L 109.670 256.209 109.900 264.216 C 110.165 273.415,111.145 275.830,115.882 278.966 L 118.532 280.719 196.078 280.719 L 273.625 280.719 276.274 278.966 C 281.637 275.417,281.998 274.148,282.235 258.007 L 282.444 243.791 294.163 243.791 L 305.882 243.791 305.882 263.052 L 305.882 282.313 302.366 284.034 C 266.362 301.664,280.502 356.038,320.584 354.087 C 358.484 352.243,369.001 300.738,334.889 284.034 L 331.373 282.313 331.373 194.787 L 331.373 107.261 335.784 104.936 C 369.834 86.989,357.099 35.294,318.627 35.294 C 279.795 35.294,267.396 87.780,302.090 105.294 L 305.882 107.208 305.882 163.081 L 305.882 218.954 294.133 218.954 L 282.384 218.954 282.205 168.137 L 282.026 117.320 280.475 114.825 C 279.622 113.453,277.732 111.541,276.274 110.577 L 273.625 108.824 196.078 108.824 L 118.532 108.824 115.882 110.577 C 111.145 113.712,110.165 116.127,109.900 125.327 L 109.670 133.333 97.972 133.333 L 86.275 133.333 86.275 120.297 L 86.275 107.261 90.686 104.936 C 129.076 84.702,105.968 25.078,64.099 36.334 M238.569 147.812 C 240.385 148.879,242.142 150.636,243.144 152.387 L 244.771 155.229 244.771 194.771 L 244.771 234.314 243.038 237.262 C 241.970 239.078,240.213 240.835,238.463 241.837 L 235.621 243.464 196.078 243.464 L 156.536 243.464 153.694 241.837 C 151.943 240.835,150.187 239.078,149.119 237.262 L 147.386 234.314 147.386 194.771 L 147.386 155.229 148.995 152.419 C 152.782 145.804,152.419 145.852,197.712 145.975 L 235.621 146.078 238.569 147.812 M171.242 194.771 L 171.242 219.608 196.078 219.608 L 220.915 219.608 220.915 194.771 L 220.915 169.935 196.078 169.935 L 171.242 169.935 171.242 194.771 " stroke="#000000" fill="none" stroke-width="3" class="zhLZnXAH_0"></path></g><style data-made-with="vivus-instant">.zhLZnXAH_0{stroke-dasharray:2649 2651;stroke-dashoffset:2650;animation:zhLZnXAH_draw_0 4500ms linear 0ms infinite,zhLZnXAH_fade 4500ms linear 0ms infinite;}@keyframes zhLZnXAH_draw{100%{stroke-dashoffset:0;}}@keyframes zhLZnXAH_fade{0%{stroke-opacity:1;}91.11111111111111%{stroke-opacity:1;}100%{stroke-opacity:0;}}@keyframes zhLZnXAH_draw_0{6.666666666666667%{stroke-dashoffset: 2650}73.33333333333333%{ stroke-dashoffset: 0;}100%{ stroke-dashoffset: 0;}}</style></svg>
