<svg id="svg" version="1.1" width="598" height="600" xmlns="http://www.w3.org/2000/svg" xmlns:xlink="http://www.w3.org/1999/xlink" style=""><g id="svgg"><path id="path0" d="M292.260 25.664 C 286.631 27.182,283.167 29.652,253.216 53.512 C 216.528 82.739,213.844 84.281,199.666 84.281 C 185.458 84.281,182.824 82.784,146.154 53.863 C 129.599 40.806,114.468 29.354,112.531 28.415 C 97.294 21.026,78.855 28.725,73.619 44.663 C 72.263 48.790,72.241 49.980,72.241 118.649 L 72.241 188.441 83.779 191.507 C 168.034 213.894,220.046 214.142,307.829 192.574 L 327.120 187.835 326.938 116.827 L 326.756 45.819 324.675 41.472 C 318.666 28.913,304.974 22.236,292.260 25.664 M16.293 189.889 C -1.022 194.401,6.059 214.546,30.769 231.069 C 112.559 285.761,286.485 285.936,367.224 231.408 C 387.767 217.534,396.569 202.126,388.734 193.753 C 381.972 186.527,373.862 187.361,322.408 200.571 C 222.794 226.146,173.772 225.961,72.575 199.628 C 37.345 190.460,23.377 188.044,16.293 189.889 M37.793 304.980 C 33.518 306.730,32.333 312.584,35.671 315.456 C 37.407 316.949,38.064 317.057,45.424 317.057 L 53.316 317.057 54.111 321.873 C 61.736 368.045,115.550 390.938,154.965 364.777 C 169.478 355.144,180.929 337.194,182.954 320.903 L 183.432 317.057 199.743 317.057 L 216.054 317.057 216.054 318.978 C 216.054 331.076,226.940 351.170,238.713 360.802 C 277.592 392.610,336.958 370.912,345.131 321.906 L 345.940 317.057 354.271 317.057 C 362.225 317.057,362.677 316.982,364.244 315.415 C 367.295 312.364,365.834 307.103,361.423 305.260 C 358.932 304.219,40.325 303.944,37.793 304.980 " stroke="#000000" fill="none" stroke-width="3" class="siiRhTqo_0"></path></g><style data-made-with="vivus-instant">.siiRhTqo_0{stroke-dasharray:2491 2493;stroke-dashoffset:2492;animation:siiRhTqo_draw_0 4500ms linear 0ms infinite,siiRhTqo_fade 4500ms linear 0ms infinite;}@keyframes siiRhTqo_draw{100%{stroke-dashoffset:0;}}@keyframes siiRhTqo_fade{0%{stroke-opacity:1;}91.11111111111111%{stroke-opacity:1;}100%{stroke-opacity:0;}}@keyframes siiRhTqo_draw_0{6.666666666666667%{stroke-dashoffset: 2492}73.33333333333333%{ stroke-dashoffset: 0;}100%{ stroke-dashoffset: 0;}}</style></svg>
