<svg id="svg" version="1.1" width="400" height="400" xmlns="http://www.w3.org/2000/svg" xmlns:xlink="http://www.w3.org/1999/xlink" style=""><g id="svgg"><path id="path0" d="M308.889 12.029 C 306.548 12.987,305.326 15.055,304.768 19.006 C 303.446 28.360,297.427 34.270,288.098 35.375 C 278.172 36.551,278.719 46.616,288.790 48.111 C 297.922 49.466,304.551 56.213,304.714 64.317 C 304.913 74.299,316.090 74.444,317.500 64.483 C 318.861 54.873,323.812 49.941,334.037 48.007 C 339.589 46.958,340.952 45.672,340.952 41.487 C 340.952 38.010,338.728 35.556,335.578 35.556 C 326.974 35.556,318.731 28.352,317.729 19.956 C 316.895 12.968,313.667 10.073,308.889 12.029 M187.530 24.429 C 182.406 25.359,179.504 26.221,174.921 28.172 L 171.746 29.524 177.061 29.869 C 184.908 30.379,186.032 31.768,186.032 40.962 L 186.032 47.619 188.909 47.619 C 197.904 47.619,198.206 48.554,197.968 75.663 L 197.778 97.249 195.704 99.100 C 193.905 100.708,193.130 100.952,189.843 100.952 C 186.327 100.952,186.027 101.067,185.655 102.550 C 184.652 106.548,183.991 106.667,162.772 106.667 C 149.928 106.667,143.492 106.886,143.492 107.323 C 143.492 111.507,147.133 114.992,154.286 117.654 C 181.335 127.722,216.077 127.584,242.877 117.302 C 250.436 114.401,253.790 109.082,256.579 95.567 C 265.152 54.034,229.094 16.886,187.530 24.429 M215.183 39.382 C 231.823 45.799,243.915 62.235,244.916 79.794 C 245.607 91.931,235.077 92.906,234.021 80.802 C 232.786 66.647,223.686 54.355,211.111 49.856 C 202.997 46.954,202.258 38.562,210.020 37.485 C 210.119 37.472,212.442 38.325,215.183 39.382 M151.110 46.190 C 141.455 58.450,137.146 73.786,138.699 90.362 L 139.156 95.238 156.721 95.224 L 174.286 95.211 175.238 93.164 C 176.477 90.501,178.526 89.545,183.016 89.533 L 186.667 89.524 186.667 74.286 L 186.667 59.048 182.491 59.048 C 175.756 59.048,174.603 57.477,174.603 48.303 L 174.603 41.270 164.794 41.270 L 154.986 41.270 151.110 46.190 M80.586 85.031 C 79.264 86.353,78.730 87.506,78.730 89.042 C 78.730 98.017,71.984 105.289,62.409 106.636 C 53.302 107.918,52.218 119.365,61.203 119.365 C 70.346 119.365,78.730 127.749,78.730 136.892 C 78.730 145.878,90.178 144.793,91.459 135.686 C 92.794 126.204,100.031 119.365,108.733 119.365 C 113.414 119.365,116.515 114.007,114.267 109.806 C 113.339 108.073,110.313 106.668,107.492 106.660 C 100.056 106.641,91.454 98.040,91.435 90.603 C 91.418 83.889,85.016 80.601,80.586 85.031 M239.713 97.553 C 243.947 102.122,236.353 114.335,230.539 112.308 C 226.470 110.889,225.838 107.515,228.676 102.371 C 232.538 95.371,236.206 93.770,239.713 97.553 M140.333 125.556 C 140.341 126.167,141.296 132.621,142.455 139.898 L 144.563 153.129 171.012 179.583 C 200.915 209.493,201.074 209.721,194.486 213.230 C 191.259 214.949,190.885 214.649,169.090 192.890 C 157.478 181.297,147.868 171.940,147.735 172.096 C 147.380 172.514,165.340 286.822,165.839 287.321 C 166.072 287.553,180.558 266.302,198.032 240.095 C 215.505 213.889,230.363 192.146,231.050 191.779 C 234.919 189.708,239.365 192.385,239.365 196.785 C 239.365 197.496,224.508 220.368,206.349 247.613 C 188.190 274.858,173.333 297.290,173.333 297.463 C 173.333 297.636,185.905 297.778,201.270 297.778 C 216.635 297.778,229.202 297.563,229.197 297.302 C 229.192 297.040,235.230 258.173,242.615 210.930 C 249.999 163.688,255.887 124.882,255.699 124.694 C 255.512 124.506,252.105 125.639,248.130 127.212 C 216.858 139.580,179.376 139.597,148.176 127.257 C 140.012 124.028,140.313 124.094,140.333 125.556 M166.349 309.417 C 166.349 309.534,164.778 314.867,162.857 321.270 C 160.937 327.673,159.365 333.006,159.365 333.122 C 159.365 333.238,176.794 333.333,198.095 333.333 C 219.397 333.333,236.825 333.238,236.825 333.122 C 236.825 333.006,235.254 327.673,233.333 321.270 C 231.413 314.867,229.841 309.534,229.841 309.417 C 229.841 309.301,215.556 309.206,198.095 309.206 C 180.635 309.206,166.349 309.301,166.349 309.417 M154.081 350.443 C 153.146 353.567,152.381 356.424,152.381 356.792 C 152.381 357.254,166.510 357.460,198.095 357.460 C 229.680 357.460,243.810 357.254,243.810 356.792 C 243.810 356.424,243.044 353.567,242.109 350.443 L 240.409 344.762 198.095 344.762 L 155.782 344.762 154.081 350.443 " stroke="#000000" fill="none" stroke-width="3" class="GabQyWnR_0"></path></g><style data-made-with="vivus-instant">.GabQyWnR_0{stroke-dasharray:2442 2444;stroke-dashoffset:2443;animation:GabQyWnR_draw_0 4500ms linear 0ms infinite,GabQyWnR_fade 4500ms linear 0ms infinite;}@keyframes GabQyWnR_draw{100%{stroke-dashoffset:0;}}@keyframes GabQyWnR_fade{0%{stroke-opacity:1;}91.11111111111111%{stroke-opacity:1;}100%{stroke-opacity:0;}}@keyframes GabQyWnR_draw_0{6.666666666666667%{stroke-dashoffset: 2443}73.33333333333333%{ stroke-dashoffset: 0;}100%{ stroke-dashoffset: 0;}}</style></svg>
