<svg id="svg" version="1.1" width="400" height="400" xmlns="http://www.w3.org/2000/svg" xmlns:xlink="http://www.w3.org/1999/xlink" style=""><g id="svgg"><path id="path0" d="M175.530 1.039 C 61.511 14.706,-16.219 121.909,6.242 234.517 C 28.626 346.740,143.035 415.930,253.321 383.942 C 357.215 353.808,416.871 244.442,386.316 140.126 C 359.644 49.069,269.741 -10.253,175.530 1.039 M210.994 31.001 C 225.496 31.758,243.124 35.770,258.420 41.794 C 268.548 45.782,265.688 41.638,280.238 73.409 C 286.977 88.124,292.756 100.457,293.080 100.816 C 293.404 101.175,306.068 107.194,321.223 114.193 L 348.777 126.917 351.881 134.666 C 361.201 157.933,365.713 188.959,363.028 211.320 L 362.609 214.810 340.358 235.397 C 326.330 248.376,317.930 256.612,317.626 257.682 C 317.361 258.616,315.649 272.300,313.821 288.091 C 310.058 320.615,311.153 317.027,302.930 323.776 C 286.487 337.271,263.815 349.049,243.067 354.875 C 230.145 358.503,234.309 359.784,204.351 342.966 C 189.907 334.857,177.578 328.222,176.952 328.222 C 176.327 328.222,162.678 330.853,146.621 334.069 L 117.426 339.916 114.143 337.981 C 91.288 324.505,71.733 305.215,57.235 281.846 L 54.170 276.905 60.038 247.609 C 63.265 231.495,65.905 217.806,65.905 217.189 C 65.905 216.571,59.299 204.291,51.223 189.900 C 43.148 175.509,36.542 163.086,36.543 162.292 C 36.552 148.936,54.015 111.693,69.194 92.659 C 77.071 82.781,73.056 84.128,106.036 80.301 C 121.827 78.469,135.515 76.756,136.454 76.494 C 137.535 76.193,144.319 69.331,154.985 57.749 C 164.239 47.700,173.573 37.622,175.727 35.353 L 179.643 31.228 188.516 30.726 C 193.397 30.450,198.858 30.316,200.653 30.428 C 202.447 30.540,207.100 30.798,210.994 31.001 M148.279 172.763 L 130.489 207.812 158.393 235.699 L 186.297 263.587 221.356 245.823 C 249.869 231.376,256.420 227.815,256.441 226.754 C 256.463 225.662,244.678 149.919,244.448 149.674 C 244.234 149.445,168.487 137.666,167.374 137.688 C 166.313 137.710,162.739 144.274,148.279 172.763 " stroke="#000000" fill="none" stroke-width="3" class="miqlLKAd_0"></path></g><style data-made-with="vivus-instant">.miqlLKAd_0{stroke-dasharray:2687 2689;stroke-dashoffset:2688;animation:miqlLKAd_draw_0 4500ms linear 0ms infinite,miqlLKAd_fade 4500ms linear 0ms infinite;}@keyframes miqlLKAd_draw{100%{stroke-dashoffset:0;}}@keyframes miqlLKAd_fade{0%{stroke-opacity:1;}91.11111111111111%{stroke-opacity:1;}100%{stroke-opacity:0;}}@keyframes miqlLKAd_draw_0{6.666666666666667%{stroke-dashoffset: 2688}73.33333333333333%{ stroke-dashoffset: 0;}100%{ stroke-dashoffset: 0;}}</style></svg>
