<svg id="svg" version="1.1" width="400" height="300" viewBox="0 0 400 300" xmlns="http://www.w3.org/2000/svg" xmlns:xlink="http://www.w3.org/1999/xlink" style=""><g id="svgg"><path id="path0" d="M189.197 21.905 C 189.095 22.071,188.378 22.207,187.604 22.208 C 183.664 22.216,172.921 23.906,166.392 25.545 C 162.465 26.530,154.479 29.058,154.239 29.392 C 154.156 29.506,152.603 30.184,150.788 30.899 C 144.019 33.563,139.950 35.765,131.583 41.292 C 123.575 46.583,113.079 56.431,111.151 60.465 C 107.241 68.642,119.291 75.405,124.125 67.747 C 125.817 65.068,133.375 58.176,138.364 54.764 C 139.571 53.938,140.792 53.035,141.079 52.756 C 145.748 48.210,165.409 40.463,177.494 38.409 C 179.640 38.044,181.611 37.637,181.874 37.504 C 184.605 36.124,212.378 36.112,215.604 37.489 C 215.934 37.630,218.022 38.043,220.244 38.408 C 228.522 39.765,238.390 42.624,244.411 45.410 C 249.487 47.758,257.545 51.895,258.215 52.496 C 258.545 52.793,260.165 53.885,261.815 54.923 C 264.966 56.904,267.540 58.772,269.720 60.661 C 276.834 66.823,286.527 60.960,282.738 52.786 C 281.639 50.416,270.075 41.727,263.916 38.644 C 262.926 38.149,261.660 37.401,261.104 36.983 C 259.836 36.031,251.698 32.257,247.712 30.773 C 246.062 30.159,244.576 29.548,244.411 29.416 C 241.760 27.295,217.267 22.208,209.695 22.206 C 208.921 22.206,208.204 22.071,208.102 21.905 C 207.985 21.716,204.504 21.605,198.650 21.605 C 192.795 21.605,189.314 21.716,189.197 21.905 M192.348 46.240 C 181.869 46.862,168.450 49.487,162.855 52.011 C 161.994 52.399,160.211 53.106,158.893 53.581 C 155.678 54.741,147.657 58.799,145.236 60.490 C 144.164 61.239,143.015 61.963,142.685 62.099 C 142.041 62.362,137.383 65.722,136.384 66.642 C 136.054 66.947,134.366 68.399,132.633 69.869 C 129.223 72.763,125.473 76.553,122.491 80.120 C 121.456 81.358,120.299 82.708,119.919 83.121 C 118.530 84.630,116.473 87.226,114.925 89.422 C 114.053 90.660,113.022 91.994,112.636 92.387 C 112.249 92.779,110.494 95.278,108.736 97.938 C 106.977 100.599,105.451 102.843,105.343 102.926 C 104.602 103.494,101.465 109.417,101.291 110.578 C 100.351 116.848,106.516 121.131,112.228 118.176 C 114.143 117.185,114.222 117.094,116.579 113.205 C 117.899 111.026,119.722 108.208,120.630 106.943 C 121.538 105.678,123.445 103.008,124.867 101.009 C 126.290 99.010,127.708 97.096,128.018 96.757 C 129.113 95.558,132.821 91.063,133.325 90.323 C 134.093 89.195,142.205 81.056,143.618 79.995 C 146.430 77.884,149.898 75.190,150.038 75.008 C 150.420 74.509,157.722 70.423,160.540 69.131 C 162.273 68.336,163.759 67.592,163.842 67.478 C 163.926 67.363,165.613 66.709,167.593 66.023 C 190.192 58.197,216.880 59.243,236.654 68.729 C 239.049 69.878,241.077 70.818,241.159 70.818 C 241.892 70.818,250.655 76.438,256.153 80.433 C 261.511 84.327,271.857 94.405,275.701 99.475 C 280.603 105.940,281.717 106.806,285.156 106.819 C 290.063 106.838,293.280 102.824,292.267 97.945 C 291.281 93.195,277.122 77.617,266.617 69.723 C 264.966 68.483,263.211 67.122,262.716 66.698 C 258.833 63.379,247.150 56.810,240.210 54.044 C 238.065 53.189,235.769 52.234,235.109 51.922 C 226.390 47.795,207.788 45.324,192.348 46.240 M187.547 71.419 C 182.270 72.128,175.477 73.680,174.494 74.401 C 174.329 74.523,172.911 75.058,171.343 75.591 C 167.908 76.760,158.774 81.181,158.541 81.788 C 158.450 82.026,158.249 82.221,158.094 82.221 C 157.759 82.221,153.849 84.824,151.590 86.550 C 144.667 91.841,131.834 106.447,129.162 112.078 C 128.909 112.611,128.445 113.323,128.131 113.661 C 127.433 114.410,125.862 116.862,124.530 119.280 C 123.562 121.038,120.711 125.433,120.345 125.731 C 120.244 125.814,119.723 126.489,119.188 127.232 C 115.745 132.010,110.069 137.518,104.922 141.075 C 100.566 144.085,100.085 144.492,99.388 145.754 C 96.010 151.871,102.146 158.842,108.562 156.175 C 111.047 155.142,116.279 151.676,118.019 149.910 C 118.382 149.541,119.944 148.181,121.489 146.889 C 123.034 145.596,124.684 144.006,125.155 143.356 C 125.626 142.705,127.017 141.103,128.245 139.797 C 129.474 138.490,131.668 135.635,133.123 133.452 C 134.577 131.269,135.842 129.415,135.933 129.332 C 136.024 129.250,136.782 128.035,137.618 126.632 C 140.724 121.418,143.189 117.506,143.561 117.197 C 143.773 117.022,144.803 115.664,145.852 114.179 C 160.894 92.867,182.484 83.065,207.952 85.987 C 213.819 86.660,224.169 89.143,224.756 90.018 C 224.839 90.141,225.244 90.344,225.656 90.470 C 227.942 91.164,237.813 96.559,238.560 97.523 C 238.642 97.629,239.452 98.263,240.360 98.932 C 245.196 102.492,250.943 108.571,254.284 113.658 C 255.072 114.857,255.878 116.005,256.076 116.209 C 257.302 117.472,261.373 125.836,262.755 129.932 C 263.229 131.335,263.701 132.551,263.806 132.633 C 265.146 133.691,265.116 153.338,263.770 156.489 C 263.629 156.819,263.152 159.587,262.710 162.641 C 262.268 165.694,261.459 171.230,260.912 174.944 C 258.537 191.060,258.654 198.516,261.404 206.392 C 263.064 211.143,268.284 219.971,271.099 222.787 C 271.419 223.107,272.644 224.526,273.822 225.941 C 274.999 227.356,276.882 229.322,278.007 230.311 C 279.131 231.299,280.269 232.327,280.535 232.595 C 282.799 234.869,287.656 234.726,290.028 232.315 C 293.852 228.431,293.338 224.332,288.432 219.593 C 282.070 213.448,277.352 206.770,275.499 201.288 C 273.255 194.650,273.356 192.467,277.086 167.142 C 277.827 162.108,278.590 156.302,278.782 154.239 C 278.973 152.176,279.271 150.190,279.443 149.826 C 279.870 148.927,279.894 135.661,279.469 135.386 C 279.297 135.275,279.060 134.319,278.943 133.263 C 278.431 128.652,273.164 114.248,271.580 113.128 C 271.463 113.046,270.934 112.157,270.403 111.154 C 267.869 106.363,260.885 97.226,257.132 93.794 C 256.242 92.979,254.431 91.292,253.107 90.043 C 247.333 84.594,233.489 76.697,227.005 75.153 C 226.511 75.035,225.515 74.676,224.792 74.354 C 218.180 71.407,198.928 69.891,187.547 71.419 M193.248 95.330 C 191.356 95.530,185.704 96.646,185.195 96.922 C 184.920 97.070,183.143 97.686,181.245 98.290 C 177.238 99.567,171.136 102.432,169.077 104.003 C 168.292 104.602,166.961 105.533,166.120 106.071 C 162.263 108.540,154.526 115.929,152.323 119.247 C 151.704 120.180,150.853 121.312,150.432 121.762 C 148.490 123.841,142.754 133.665,140.537 138.710 C 138.994 142.221,137.906 144.389,137.036 145.686 C 135.610 147.815,132.110 152.324,130.543 154.053 C 129.609 155.083,128.651 156.191,128.414 156.514 C 127.136 158.253,116.018 167.888,112.528 170.280 C 111.620 170.902,110.726 171.601,110.541 171.833 C 110.355 172.064,108.262 173.524,105.889 175.076 C 100.244 178.769,100.109 178.883,99.201 180.705 C 96.260 186.607,100.952 192.828,107.306 191.453 C 109.221 191.038,119.947 183.851,124.681 179.810 C 126.002 178.683,127.892 177.142,128.882 176.386 C 129.872 175.629,132.011 173.713,133.634 172.126 C 135.258 170.540,136.693 169.242,136.824 169.242 C 136.955 169.242,138.324 167.791,139.866 166.017 C 141.408 164.242,143.260 162.183,143.981 161.440 C 145.198 160.187,148.774 154.997,151.321 150.788 C 151.920 149.797,153.143 147.299,154.038 145.236 C 157.688 136.826,162.872 129.085,168.505 123.631 C 170.125 122.063,171.730 120.506,172.071 120.170 C 172.413 119.835,173.908 118.742,175.394 117.743 C 186.878 110.014,198.057 108.041,210.578 111.535 C 212.104 111.961,213.353 112.427,213.353 112.569 C 213.353 112.712,213.522 112.830,213.728 112.833 C 216.026 112.859,224.922 118.654,229.104 122.849 C 240.854 134.631,242.812 145.161,238.068 171.043 C 234.559 190.186,234.531 190.405,234.528 198.950 C 234.520 218.720,242.757 237.848,254.614 245.592 C 255.604 246.238,256.954 247.131,257.614 247.576 C 260.521 249.533,267.851 252.571,270.393 252.872 C 279.517 253.953,281.751 241.422,272.998 238.257 C 265.478 235.538,261.675 232.937,257.863 227.907 C 257.238 227.082,256.530 226.177,256.292 225.897 C 253.860 223.044,249.362 208.249,249.362 203.104 C 249.362 202.489,249.227 201.902,249.062 201.800 C 248.897 201.698,248.762 200.551,248.762 199.250 C 248.762 197.949,248.897 196.801,249.062 196.699 C 249.227 196.597,249.368 195.813,249.375 194.956 C 249.393 192.815,250.484 185.785,252.458 175.094 C 255.869 156.609,256.233 147.442,253.963 137.146 C 252.983 132.699,250.049 124.904,249.105 124.238 C 248.983 124.152,247.944 122.604,246.797 120.799 C 243.703 115.932,237.707 109.748,232.912 106.481 C 231.660 105.627,230.071 104.498,229.381 103.972 C 227.451 102.498,221.093 99.522,217.254 98.295 C 215.356 97.688,213.591 97.078,213.331 96.938 C 210.985 95.680,199.021 94.723,193.248 95.330 M284.619 115.788 C 281.322 117.286,279.819 121.392,281.199 125.131 C 283.461 131.261,285.318 138.699,285.846 143.736 C 285.958 144.809,286.155 145.821,286.284 145.986 C 287.350 147.350,287.344 173.699,286.278 175.094 C 286.152 175.259,285.956 176.407,285.844 177.644 C 285.550 180.868,284.354 188.436,283.256 194.009 C 281.498 202.931,283.647 206.742,290.248 206.407 C 294.913 206.170,296.459 204.213,297.948 196.663 C 303.356 169.240,302.638 139.385,296.165 122.468 C 294.092 117.051,292.028 115.242,287.922 115.242 C 286.531 115.242,285.415 115.426,284.619 115.788 M194.006 120.964 C 191.879 121.274,187.431 122.550,185.500 123.404 C 184.061 124.041,179.703 126.548,179.445 126.888 C 179.362 126.996,178.764 127.482,178.114 127.966 C 172.690 132.014,169.771 136.032,164.479 146.737 C 160.856 154.067,158.535 158.490,158.191 158.721 C 158.053 158.814,156.949 160.443,155.737 162.341 C 153.297 166.161,151.432 168.775,150.494 169.691 C 150.155 170.022,149.110 171.245,148.171 172.409 C 144.100 177.460,135.500 185.155,125.889 192.348 C 119.929 196.809,109.034 204.676,105.336 207.190 C 99.564 211.114,98.425 212.621,98.425 216.333 C 98.425 222.106,104.292 225.488,109.262 222.581 C 111.315 221.381,115.654 218.397,116.579 217.549 C 117.074 217.096,118.762 215.874,120.330 214.835 C 123.351 212.831,126.292 210.666,127.529 209.535 C 127.940 209.160,128.381 208.852,128.510 208.852 C 128.805 208.852,134.905 204.362,138.485 201.510 C 139.970 200.326,142.131 198.637,143.286 197.755 C 144.441 196.874,146.197 195.370,147.187 194.414 C 148.177 193.457,149.595 192.202,150.338 191.623 C 152.649 189.823,159.979 181.875,162.953 177.944 C 164.514 175.881,165.876 174.126,165.980 174.044 C 166.401 173.710,170.720 166.833,171.917 164.592 C 172.622 163.272,173.314 162.120,173.456 162.033 C 173.778 161.833,178.567 152.209,179.562 149.760 C 186.055 133.781,206.306 130.484,214.052 144.145 C 219.188 153.202,219.076 161.223,213.654 172.744 C 211.820 176.640,204.561 188.187,203.309 189.199 C 202.906 189.526,199.704 193.520,198.861 194.749 C 197.199 197.172,183.468 211.713,180.120 214.595 C 178.758 215.767,177.644 216.837,177.644 216.973 C 177.644 217.108,176.058 218.608,174.119 220.306 C 172.179 222.003,169.791 224.186,168.812 225.156 C 167.832 226.126,166.304 227.457,165.415 228.113 C 164.527 228.769,162.886 230.169,161.768 231.224 C 160.650 232.278,158.710 233.927,157.457 234.888 C 156.205 235.848,154.124 237.538,152.834 238.643 C 149.761 241.276,138.448 249.959,134.184 252.960 C 130.779 255.354,129.729 259.323,131.501 263.093 C 133.245 266.803,138.920 267.987,142.441 265.375 C 142.966 264.985,143.487 264.666,143.598 264.666 C 143.813 264.666,145.835 263.112,146.916 262.116 C 147.275 261.785,148.333 260.975,149.268 260.315 C 152.954 257.714,155.041 256.132,156.189 255.068 C 156.849 254.457,157.862 253.641,158.440 253.254 C 159.603 252.476,163.869 249.072,165.041 247.985 C 165.454 247.603,167.547 245.836,169.692 244.059 C 180.297 235.276,192.383 223.934,201.659 214.060 C 207.822 207.499,215.283 198.483,217.391 195.049 C 217.847 194.306,218.382 193.563,218.581 193.398 C 219.446 192.679,223.179 186.622,225.516 182.146 C 225.990 181.238,226.529 180.293,226.713 180.045 C 229.584 176.191,232.638 164.447,232.644 157.239 C 232.649 150.220,229.070 137.660,226.572 135.934 C 226.453 135.851,225.847 134.984,225.226 134.007 C 219.184 124.494,206.410 119.158,194.006 120.964 M197.074 148.898 C 196.455 149.062,195.949 149.319,195.949 149.467 C 195.949 149.616,195.762 149.737,195.534 149.737 C 194.759 149.737,192.789 152.063,192.070 153.829 C 191.060 156.306,188.521 161.359,188.180 161.570 C 188.024 161.667,187.387 162.656,186.766 163.769 C 185.588 165.876,181.036 172.882,180.674 173.143 C 180.487 173.278,177.351 177.401,175.082 180.495 C 174.598 181.155,173.504 182.438,172.651 183.346 C 171.799 184.254,170.227 186.077,169.160 187.397 C 165.347 192.111,148.000 209.175,142.386 213.734 C 141.065 214.806,139.242 216.389,138.335 217.252 C 137.427 218.114,136.347 219.038,135.934 219.304 C 135.308 219.707,131.866 222.459,128.732 225.061 C 127.478 226.102,117.042 233.837,114.426 235.665 C 107.475 240.519,110.053 249.989,118.224 249.617 C 120.771 249.501,120.960 249.408,125.725 245.911 C 127.074 244.921,129.282 243.314,130.631 242.340 C 131.980 241.366,133.421 240.234,133.833 239.825 C 134.246 239.415,135.124 238.739,135.784 238.321 C 136.835 237.656,140.208 235.028,143.425 232.368 C 147.158 229.281,152.012 225.215,152.138 225.070 C 152.221 224.975,153.768 223.616,155.576 222.051 C 168.890 210.526,186.951 190.770,193.980 180.041 C 195.114 178.310,196.156 176.849,196.296 176.794 C 196.616 176.668,201.239 168.862,202.545 166.242 C 203.080 165.169,203.697 164.088,203.915 163.840 C 207.454 159.806,207.285 152.193,203.611 150.214 C 203.028 149.900,202.551 149.545,202.551 149.426 C 202.551 148.740,198.968 148.395,197.074 148.898 M217.315 204.827 C 215.088 205.937,213.318 208.912,211.846 214.022 C 211.500 215.222,211.107 216.411,210.973 216.664 C 209.606 219.241,209.608 233.003,210.976 235.549 C 211.112 235.802,211.638 237.391,212.146 239.081 C 213.228 242.684,216.773 249.892,218.309 251.613 C 218.898 252.273,219.871 253.556,220.471 254.464 C 222.010 256.791,232.432 267.067,233.254 267.067 C 233.364 267.067,234.051 267.523,234.782 268.081 C 238.993 271.295,245.152 269.537,246.552 264.722 C 247.625 261.030,246.139 257.695,242.302 255.180 C 239.858 253.579,234.094 247.793,231.587 244.426 C 225.595 236.375,223.443 227.710,225.480 219.825 C 225.904 218.185,226.353 216.767,226.479 216.674 C 227.776 215.710,228.698 211.233,228.075 208.920 C 226.989 204.885,221.437 202.773,217.315 204.827 M186.447 242.469 C 183.445 243.010,176.458 246.007,176.094 246.910 C 176.039 247.046,174.981 247.841,173.743 248.676 C 169.099 251.810,160.959 259.834,159.503 262.715 C 155.511 270.610,165.612 277.975,171.343 271.347 C 171.920 270.679,172.673 269.814,173.015 269.425 C 177.034 264.855,183.593 259.480,187.125 257.863 C 192.903 255.218,198.560 260.190,201.959 270.900 C 203.600 276.071,206.080 278.470,209.784 278.470 C 215.316 278.470,218.321 274.120,216.812 268.296 C 215.825 264.489,212.565 256.738,211.482 255.624 C 211.262 255.399,210.705 254.563,210.243 253.768 C 205.758 246.046,194.984 240.930,186.447 242.469 " stroke="#343434" fill="none" stroke-width="3" class="dfpWizJK_0"></path><path id="path1" d="" stroke="#343434" fill="none" stroke-width="3" class="dfpWizJK_1"></path><path id="path2" d="" stroke="#343434" fill="none" stroke-width="3" class="dfpWizJK_2"></path><path id="path3" d="" stroke="#343434" fill="none" stroke-width="3" class="dfpWizJK_3"></path><path id="path4" d="" stroke="#343434" fill="none" stroke-width="3" class="dfpWizJK_4"></path></g><style data-made-with="vivus-instant">.dfpWizJK_0{stroke-dasharray:3733 3735;stroke-dashoffset:3734;animation:dfpWizJK_draw_0 9200ms linear 0ms infinite,dfpWizJK_fade 9200ms linear 0ms infinite;}.dfpWizJK_1{stroke-dasharray:0 2;stroke-dashoffset:1;animation:dfpWizJK_draw_1 9200ms linear 0ms infinite,dfpWizJK_fade 9200ms linear 0ms infinite;}.dfpWizJK_2{stroke-dasharray:0 2;stroke-dashoffset:1;animation:dfpWizJK_draw_2 9200ms linear 0ms infinite,dfpWizJK_fade 9200ms linear 0ms infinite;}.dfpWizJK_3{stroke-dasharray:0 2;stroke-dashoffset:1;animation:dfpWizJK_draw_3 9200ms linear 0ms infinite,dfpWizJK_fade 9200ms linear 0ms infinite;}.dfpWizJK_4{stroke-dasharray:0 2;stroke-dashoffset:1;animation:dfpWizJK_draw_4 9200ms linear 0ms infinite,dfpWizJK_fade 9200ms linear 0ms infinite;}@keyframes dfpWizJK_draw{100%{stroke-dashoffset:0;}}@keyframes dfpWizJK_fade{0%{stroke-opacity:1;}95.65217391304348%{stroke-opacity:1;}100%{stroke-opacity:0;}}@keyframes dfpWizJK_draw_0{8.695652173913043%{stroke-dashoffset: 3734}63.04347826086957%{ stroke-dashoffset: 0;}100%{ stroke-dashoffset: 0;}}@keyframes dfpWizJK_draw_1{8.695652173913043%{stroke-dashoffset: 1}63.04347826086957%{ stroke-dashoffset: 0;}100%{ stroke-dashoffset: 0;}}@keyframes dfpWizJK_draw_2{8.695652173913043%{stroke-dashoffset: 1}63.04347826086957%{ stroke-dashoffset: 0;}100%{ stroke-dashoffset: 0;}}@keyframes dfpWizJK_draw_3{8.695652173913043%{stroke-dashoffset: 1}63.04347826086957%{ stroke-dashoffset: 0;}100%{ stroke-dashoffset: 0;}}@keyframes dfpWizJK_draw_4{8.695652173913043%{stroke-dashoffset: 1}63.04347826086957%{ stroke-dashoffset: 0;}100%{ stroke-dashoffset: 0;}}</style></svg>