<svg id="svg" version="1.1" width="400" height="400" xmlns="http://www.w3.org/2000/svg" xmlns:xlink="http://www.w3.org/1999/xlink" style=""><g id="svgg"><path id="path0" d="M300.349 28.283 C 295.190 30.304,289.812 35.475,287.370 40.763 L 285.370 45.095 285.190 185.838 C 284.990 342.067,284.683 331.366,289.570 338.505 C 300.787 354.891,330.478 351.771,337.319 333.487 C 338.739 329.691,338.739 329.679,338.561 186.704 L 338.382 43.718 336.683 40.275 C 331.004 28.770,313.692 23.056,300.349 28.283 M264.372 59.119 C 209.847 93.902,117.298 131.135,66.389 138.770 L 63.339 139.227 63.339 187.637 L 63.339 236.047 67.298 236.832 C 130.354 249.340,204.711 279.198,263.339 315.550 L 269.535 319.392 269.711 253.273 C 269.807 216.908,269.807 157.605,269.711 121.489 L 269.535 55.825 264.372 59.119 M353.873 187.594 C 353.873 214.297,354.134 236.145,354.453 236.145 C 362.276 236.145,378.623 223.993,384.810 213.579 C 401.363 185.716,386.048 146.650,355.766 139.492 L 353.873 139.044 353.873 187.594 M27.309 142.796 L 14.343 143.546 12.335 145.794 L 10.327 148.042 10.327 187.242 C 10.327 216.167,10.543 226.914,11.150 228.246 C 12.598 231.425,14.706 231.930,29.711 232.698 C 37.415 233.092,44.725 233.598,45.955 233.823 L 48.193 234.232 48.193 188.028 L 48.193 141.824 44.234 141.936 C 42.057 141.997,34.441 142.384,27.309 142.796 M82.616 318.830 L 82.616 381.549 84.957 383.890 L 87.298 386.231 112.463 386.231 C 139.247 386.231,140.102 386.134,142.331 382.854 C 143.462 381.191,143.559 377.367,143.734 327.617 L 143.922 274.167 130.309 269.664 C 112.285 263.702,85.869 256.110,83.147 256.110 C 82.855 256.110,82.616 284.334,82.616 318.830 " stroke="#000000" fill="none" stroke-width="3" class="mqGfspiv_0"></path></g><style data-made-with="vivus-instant">.mqGfspiv_0{stroke-dasharray:2359 2361;stroke-dashoffset:2360;animation:mqGfspiv_draw_0 4500ms linear 0ms infinite,mqGfspiv_fade 4500ms linear 0ms infinite;}@keyframes mqGfspiv_draw{100%{stroke-dashoffset:0;}}@keyframes mqGfspiv_fade{0%{stroke-opacity:1;}91.11111111111111%{stroke-opacity:1;}100%{stroke-opacity:0;}}@keyframes mqGfspiv_draw_0{6.666666666666667%{stroke-dashoffset: 2360}73.33333333333333%{ stroke-dashoffset: 0;}100%{ stroke-dashoffset: 0;}}</style></svg>
