<svg id="svg" version="1.1" width="400" height="400" xmlns="http://www.w3.org/2000/svg" xmlns:xlink="http://www.w3.org/1999/xlink" style=""><g id="svgg"><path id="path0" d="M194.499 4.734 C 189.276 7.693,189.251 7.826,189.251 32.899 C 189.251 54.845,189.265 55.071,190.741 57.446 C 194.799 63.971,205.201 63.971,209.259 57.446 C 211.474 53.884,211.602 12.202,209.410 8.469 C 207.626 5.433,203.720 3.279,200.000 3.279 C 198.167 3.279,196.105 3.824,194.499 4.734 M71.889 54.638 C 66.588 57.120,64.039 64.504,66.732 69.576 C 68.078 72.113,96.348 100.001,98.828 101.239 C 106.866 105.253,116.313 97.268,113.975 88.436 C 113.274 85.786,88.358 59.474,82.596 55.297 C 79.964 53.389,75.183 53.095,71.889 54.638 M318.241 54.621 C 313.744 56.778,286.220 85.093,285.647 88.152 C 283.790 98.062,292.924 105.481,301.492 101.022 C 305.021 99.186,331.966 71.901,333.201 68.913 C 336.999 59.725,327.173 50.337,318.241 54.621 M189.309 93.179 C 109.917 102.246,76.889 193.876,131.316 254.072 C 143.330 267.359,150.394 281.157,153.748 297.884 C 156.983 314.023,157.325 314.139,201.029 313.879 L 234.306 313.681 237.494 311.709 C 241.801 309.046,244.017 305.268,245.319 298.371 C 248.473 281.667,255.497 267.801,267.431 254.723 C 290.738 229.179,299.391 199.598,292.837 167.866 C 283.109 120.771,237.271 87.702,189.309 93.179 M205.278 121.988 C 215.471 128.741,209.858 140.243,195.791 141.430 C 172.103 143.429,152.553 163.670,152.433 186.319 C 152.375 197.379,142.019 202.516,134.806 195.062 L 132.573 192.754 132.640 184.488 C 132.909 150.877,163.404 120.963,197.786 120.580 C 202.232 120.530,203.414 120.752,205.278 121.988 M22.632 177.461 C 14.232 180.517,13.139 192.504,20.847 197.032 C 23.551 198.620,61.785 199.490,66.583 198.073 C 75.798 195.350,77.778 183.309,69.823 178.363 C 66.814 176.492,27.369 175.738,22.632 177.461 M332.843 177.153 C 324.103 179.888,322.455 192.080,330.177 196.881 C 333.980 199.246,375.522 199.211,379.336 196.840 C 386.161 192.597,386.058 182.269,379.151 178.211 C 376.716 176.781,336.936 175.872,332.843 177.153 M98.697 274.209 C 94.738 276.056,67.499 303.809,66.462 307.052 C 63.849 315.223,71.610 323.567,79.642 321.222 C 83.847 319.994,112.918 290.860,113.981 286.808 C 116.369 277.712,107.268 270.210,98.697 274.209 M291.531 273.884 C 286.189 276.258,283.722 283.360,286.330 288.856 C 288.284 292.973,316.583 320.315,319.761 321.156 C 328.506 323.471,336.106 314.950,332.875 306.453 C 331.937 303.986,304.064 275.295,301.357 274.011 C 298.703 272.751,294.210 272.693,291.531 273.884 M162.541 328.611 C 157.293 330.953,155.700 334.687,155.700 344.642 C 155.700 357.995,159.507 364.741,168.576 367.458 C 170.984 368.179,171.292 368.524,171.971 371.259 C 175.931 387.207,176.583 387.588,199.957 387.608 C 222.270 387.627,223.555 387.007,227.086 374.504 L 228.859 368.226 231.465 367.445 C 240.505 364.737,244.300 357.976,244.300 344.581 C 244.300 334.830,242.551 330.824,237.317 328.584 C 234.282 327.286,165.455 327.310,162.541 328.611 " stroke="#000000" fill="none" stroke-width="3" class="nZdeyDoc_0"></path></g><style data-made-with="vivus-instant">.nZdeyDoc_0{stroke-dasharray:2162 2164;stroke-dashoffset:2163;animation:nZdeyDoc_draw_0 4500ms linear 0ms infinite,nZdeyDoc_fade 4500ms linear 0ms infinite;}@keyframes nZdeyDoc_draw{100%{stroke-dashoffset:0;}}@keyframes nZdeyDoc_fade{0%{stroke-opacity:1;}91.11111111111111%{stroke-opacity:1;}100%{stroke-opacity:0;}}@keyframes nZdeyDoc_draw_0{6.666666666666667%{stroke-dashoffset: 2163}73.33333333333333%{ stroke-dashoffset: 0;}100%{ stroke-dashoffset: 0;}}</style></svg>
