<svg id="svg" version="1.1" width="400" height="400" xmlns="http://www.w3.org/2000/svg" xmlns:xlink="http://www.w3.org/1999/xlink" ><g id="svgg"><path id="path0" d="M176.028 124.891 L 148.724 151.187 154.516 153.487 C 187.006 166.394,189.481 209.213,158.584 223.876 C 130.451 237.228,102.694 216.610,104.370 183.605 C 104.635 178.387,104.195 177.711,99.267 175.755 C 75.493 166.318,23.280 148.023,23.280 149.129 C 23.280 150.807,87.700 278.029,89.016 278.952 C 91.565 280.737,314.182 280.655,316.774 278.868 C 319.546 276.958,318.784 278.400,351.198 213.757 C 381.228 153.868,384.207 147.584,382.223 148.302 C 381.718 148.484,363.369 155.214,341.446 163.257 L 301.587 177.881 301.806 185.079 C 302.954 222.891,263.469 242.305,237.743 216.578 C 218.631 197.467,222.779 172.721,247.795 156.621 C 251.384 154.311,254.912 152.006,255.634 151.500 C 256.835 150.658,255.280 148.969,237.292 131.590 C 226.481 121.146,214.418 109.449,210.484 105.598 L 203.332 98.595 176.028 124.891 M66.661 293.379 C 54.316 298.987,55.308 320.224,68.078 323.732 C 72.072 324.829,334.277 324.829,338.272 323.732 C 351.041 320.224,352.033 298.987,339.689 293.379 C 335.282 291.377,71.067 291.377,66.661 293.379 " stroke="#000000" fill="none" stroke-width='3'></path></g></svg>
