<svg id="svg" version="1.1" width="400" height="400" xmlns="http://www.w3.org/2000/svg" xmlns:xlink="http://www.w3.org/1999/xlink" style=""><g id="svgg"><path id="path0" d="M89.090 78.415 C 64.856 83.682,46.183 110.791,50.761 134.058 C 51.446 137.543,51.392 138.087,50.094 140.768 C 46.709 147.761,49.873 164.565,56.167 173.016 C 56.947 174.063,57.953 176.063,58.402 177.460 C 59.478 180.803,61.267 184.341,63.893 188.320 C 65.404 190.609,66.031 192.286,66.029 194.034 L 66.025 196.508 60.972 198.022 C 23.358 209.292,-1.632 246.550,17.297 263.136 C 25.748 270.540,43.066 276.781,65.079 280.354 C 75.567 282.056,107.028 282.452,106.358 280.872 C 104.096 275.540,103.725 270.932,104.831 261.905 C 107.456 240.481,119.265 223.835,138.834 213.972 C 141.920 212.416,144.534 211.095,144.643 211.035 C 144.752 210.975,143.561 208.377,141.996 205.262 L 139.152 199.598 135.290 198.428 L 131.429 197.259 131.429 194.785 C 131.429 193.024,132.160 191.098,133.968 188.101 C 135.821 185.029,136.509 183.192,136.510 181.310 C 136.511 179.891,138.237 171.302,140.346 162.222 C 142.454 153.143,144.800 143.000,145.560 139.683 C 150.067 120.001,146.211 100.894,136.687 95.713 C 134.920 94.752,131.336 91.828,128.723 89.215 C 118.934 79.426,103.627 75.255,89.090 78.415 M290.540 79.107 C 278.840 81.938,263.476 94.705,257.614 106.468 C 251.019 119.703,251.094 125.142,258.289 155.238 C 261.128 167.111,263.642 178.540,263.877 180.635 C 264.327 184.656,265.264 186.996,267.713 190.219 C 270.627 194.053,269.880 196.935,265.585 198.426 L 261.965 199.683 258.950 205.563 L 255.936 211.444 260.508 213.742 C 277.009 222.037,288.486 235.032,293.533 251.137 C 296.680 261.176,297.382 272.467,295.238 278.565 C 294.540 280.552,293.968 282.402,293.968 282.676 C 293.968 284.085,325.700 282.805,337.778 280.909 C 372.411 275.474,391.956 263.599,390.179 249.071 C 387.680 228.633,366.532 207.804,339.269 198.925 L 333.968 197.199 333.968 194.729 C 333.968 193.295,334.489 191.528,335.211 190.514 C 336.787 188.300,342.222 177.170,342.222 176.156 C 342.222 175.736,342.675 175.018,343.228 174.559 C 348.997 169.771,353.250 148.827,349.962 141.395 C 348.766 138.691,348.699 137.980,349.332 134.739 C 352.706 117.480,348.134 100.508,338.832 95.763 C 337.443 95.054,334.281 92.402,331.804 89.868 C 322.054 79.894,305.322 75.531,290.540 79.107 M190.316 100.899 C 174.115 104.443,160.411 116.766,155.658 132.063 C 152.328 142.784,144.762 179.348,144.762 184.721 C 144.762 195.033,147.998 203.652,154.463 210.564 L 158.132 214.487 153.828 215.916 C 127.368 224.702,112.436 243.740,112.392 268.751 C 112.376 277.982,114.343 281.374,122.990 287.027 C 158.576 310.289,255.878 308.074,282.534 283.396 C 288.348 278.013,289.274 275.209,288.347 265.786 C 285.989 241.817,270.940 224.016,246.172 215.898 L 241.868 214.487 245.670 210.423 C 252.650 202.961,256.302 192.658,255.665 182.222 C 255.317 176.517,246.113 135.508,243.783 129.280 C 235.959 108.371,212.671 96.009,190.316 100.899 M297.460 123.322 C 307.485 127.197,310.562 127.808,320.952 127.985 L 330.476 128.148 331.906 130.202 C 334.010 133.223,334.750 136.715,334.259 141.301 L 333.828 145.321 336.208 146.316 L 338.589 147.310 338.201 150.584 C 337.566 155.941,334.622 163.915,332.570 165.833 C 331.400 166.927,330.414 168.810,329.822 171.082 C 328.612 175.728,326.189 180.442,322.770 184.801 L 320.000 188.333 319.986 200.992 C 319.965 220.315,314.952 227.550,301.587 227.550 C 288.253 227.550,283.074 220.098,282.660 200.317 L 282.394 187.619 279.683 184.003 C 276.369 179.582,274.638 176.072,273.385 171.230 C 272.750 168.778,271.803 166.954,270.564 165.796 C 266.869 162.344,263.519 146.032,266.505 146.032 C 268.346 146.032,268.916 145.021,270.088 139.683 C 273.861 122.486,282.281 117.453,297.460 123.322 M94.795 123.767 C 103.931 127.486,108.626 128.428,118.704 128.565 L 127.884 128.690 129.498 131.120 C 130.910 133.248,131.123 134.283,131.204 139.428 C 131.306 145.885,131.542 146.667,133.387 146.667 C 136.229 146.667,136.080 151.817,132.989 160.393 C 131.498 164.531,130.571 165.968,128.058 168.036 C 127.567 168.439,126.972 169.977,126.737 171.452 C 126.163 175.041,123.717 180.076,120.281 184.744 L 117.460 188.575 117.458 200.478 L 117.455 212.381 109.680 220.489 C 98.906 231.723,98.260 231.694,86.825 219.462 L 80.000 212.160 80.000 200.294 L 80.000 188.428 77.054 184.532 C 73.560 179.912,71.415 175.536,70.379 170.916 C 69.901 168.788,69.174 167.306,68.402 166.894 C 63.707 164.381,60.660 146.539,64.820 145.922 C 66.033 145.742,66.367 144.990,67.313 140.301 C 70.728 123.384,80.061 117.769,94.795 123.767 M212.552 136.667 C 218.380 143.290,221.871 146.614,225.443 148.942 C 231.717 153.031,231.365 151.875,230.599 165.874 C 229.698 182.332,227.642 187.941,219.437 196.326 L 216.508 199.319 216.508 207.237 C 216.508 215.467,216.915 217.550,218.916 219.551 C 220.511 221.146,202.792 244.762,200.000 244.762 C 197.829 244.762,179.251 220.949,180.755 220.094 C 182.750 218.959,183.492 215.477,183.492 207.244 L 183.492 199.209 179.768 195.229 C 171.577 186.473,168.889 177.357,168.889 158.342 C 168.889 151.591,169.125 151.351,176.233 150.885 C 186.381 150.218,196.034 146.270,205.079 139.086 C 210.470 134.805,210.816 134.693,212.552 136.667 " stroke="#000000" fill="none" stroke-width="3" class="xkFpqrdp_0"></path></g><style data-made-with="vivus-instant">.xkFpqrdp_0{stroke-dasharray:2720 2722;stroke-dashoffset:2721;animation:xkFpqrdp_draw_0 4500ms linear 0ms infinite,xkFpqrdp_fade 4500ms linear 0ms infinite;}@keyframes xkFpqrdp_draw{100%{stroke-dashoffset:0;}}@keyframes xkFpqrdp_fade{0%{stroke-opacity:1;}91.11111111111111%{stroke-opacity:1;}100%{stroke-opacity:0;}}@keyframes xkFpqrdp_draw_0{6.666666666666667%{stroke-dashoffset: 2721}73.33333333333333%{ stroke-dashoffset: 0;}100%{ stroke-dashoffset: 0;}}</style></svg>
