<svg id="svg" version="1.1" width="400" height="400" xmlns="http://www.w3.org/2000/svg" xmlns:xlink="http://www.w3.org/1999/xlink" style=""><g id="svgg"><path id="path0" d="M336.825 25.397 L 311.434 50.795 324.289 63.650 L 337.144 76.505 362.695 50.953 L 388.247 25.402 375.558 12.701 C 368.579 5.715,362.722 -0.000,362.543 -0.000 C 362.363 -0.000,350.790 11.429,336.825 25.397 M235.238 126.985 L 209.846 152.382 222.701 165.237 L 235.557 178.092 261.108 152.541 L 286.660 126.989 273.971 114.288 C 266.992 107.303,261.135 101.587,260.955 101.587 C 260.776 101.587,249.203 113.016,235.238 126.985 M133.650 228.572 L 108.259 253.969 121.114 266.824 L 133.969 279.680 159.521 254.128 L 185.072 228.576 172.383 215.876 C 165.404 208.890,159.548 203.175,159.368 203.175 C 159.189 203.175,147.616 214.603,133.650 228.572 M32.063 330.159 L 6.672 355.557 19.527 368.412 L 32.382 381.267 57.934 355.715 L 83.485 330.164 70.796 317.463 C 63.817 310.477,57.960 304.762,57.781 304.762 C 57.601 304.762,46.028 316.191,32.063 330.159 " stroke="#000000" fill="none" stroke-width="3" class="DQITziTg_0"></path></g><style data-made-with="vivus-instant">.DQITziTg_0{stroke-dasharray:868 870;stroke-dashoffset:869;animation:DQITziTg_draw_0 4500ms linear 0ms infinite,DQITziTg_fade 4500ms linear 0ms infinite;}@keyframes DQITziTg_draw{100%{stroke-dashoffset:0;}}@keyframes DQITziTg_fade{0%{stroke-opacity:1;}91.11111111111111%{stroke-opacity:1;}100%{stroke-opacity:0;}}@keyframes DQITziTg_draw_0{6.666666666666667%{stroke-dashoffset: 869}73.33333333333333%{ stroke-dashoffset: 0;}100%{ stroke-dashoffset: 0;}}</style></svg>
