<svg id="svg" version="1.1" width="400" height="400" xmlns="http://www.w3.org/2000/svg" xmlns:xlink="http://www.w3.org/1999/xlink" style=""><g id="svgg"><path id="path0" d="M194.545 9.588 C 193.056 11.234,193.075 11.882,195.191 31.111 C 197.480 51.918,197.036 50.159,200.000 50.159 C 202.964 50.159,202.520 51.918,204.809 31.111 C 206.925 11.882,206.944 11.234,205.455 9.588 C 203.690 7.637,196.310 7.637,194.545 9.588 M117.460 29.899 C 111.287 33.573,111.603 34.573,124.505 52.175 C 130.474 60.320,135.598 67.236,135.890 67.544 C 136.633 68.327,140.683 65.781,140.426 64.693 C 139.828 62.160,125.945 31.220,124.860 30.000 C 123.244 28.185,120.406 28.146,117.460 29.899 M275.143 30.000 C 274.049 31.233,260.120 62.254,259.566 64.693 C 259.319 65.781,263.370 68.327,264.102 67.544 C 268.594 62.743,286.349 37.019,286.349 35.312 C 286.349 30.280,278.288 26.459,275.143 30.000 M59.934 86.970 C 54.817 89.038,54.180 97.061,58.951 99.349 C 64.154 101.844,91.514 113.651,92.094 113.651 C 92.761 113.651,95.017 109.382,94.558 108.989 C 92.991 107.646,65.365 87.622,64.327 87.078 C 62.729 86.238,61.801 86.215,59.934 86.970 M333.154 88.730 C 322.630 95.926,305.436 109.020,305.431 109.841 C 305.414 112.512,307.635 113.910,310.238 112.868 C 326.565 106.333,343.427 98.197,344.123 96.519 C 345.728 92.642,341.620 86.349,337.483 86.349 C 337.017 86.349,335.069 87.421,333.154 88.730 M185.583 94.241 C 145.165 101.898,117.213 139.003,121.189 179.721 C 122.559 193.753,125.653 201.027,137.123 217.184 C 151.427 237.331,157.859 253.251,161.122 276.577 C 161.805 281.464,162.500 284.444,162.955 284.444 C 163.358 284.444,180.449 282.016,200.934 279.048 C 221.419 276.079,238.388 273.651,238.643 273.651 C 238.898 273.651,239.896 270.008,240.863 265.556 C 245.238 245.390,250.702 233.811,265.355 213.651 C 296.470 170.838,272.906 109.846,219.683 95.437 C 212.206 93.412,193.431 92.754,185.583 94.241 M36.594 167.665 C 34.281 169.484,34.100 176.329,36.310 178.388 C 38.103 180.058,38.587 180.045,58.730 177.778 C 68.040 176.730,76.062 175.873,76.558 175.873 C 77.197 175.873,77.460 175.081,77.460 173.157 L 77.460 170.441 58.571 168.381 C 36.355 165.958,38.669 166.033,36.594 167.665 M339.841 168.467 L 322.540 170.424 322.540 173.149 C 322.540 175.079,322.802 175.873,323.442 175.873 C 323.938 175.873,331.960 176.730,341.270 177.778 C 365.223 180.473,365.079 180.503,365.079 172.862 C 365.079 165.573,365.215 165.596,339.841 168.467 M74.358 239.941 C 54.074 248.944,53.316 249.624,56.845 255.647 C 60.487 261.861,61.389 261.580,78.815 248.809 C 86.975 242.829,93.919 237.689,94.248 237.387 C 95.028 236.669,92.995 232.360,91.915 232.443 C 91.473 232.478,83.572 235.852,74.358 239.941 M306.218 234.610 C 305.563 235.983,305.385 237.050,305.752 237.389 C 306.081 237.692,313.019 242.832,321.172 248.811 C 338.593 261.588,339.506 261.872,343.155 255.647 C 346.703 249.592,345.788 248.787,325.079 239.735 C 305.680 231.255,307.573 231.769,306.218 234.610 M199.365 289.327 C 179.263 292.251,166.104 294.442,165.206 295.014 C 163.024 296.404,163.380 302.184,165.714 303.262 C 167.846 304.246,234.355 294.820,235.810 293.328 C 237.680 291.409,237.757 287.858,235.966 286.067 C 233.966 284.067,237.969 283.711,199.365 289.327 M202.222 309.018 C 172.244 313.398,171.429 313.611,171.429 317.059 C 171.429 322.029,174.056 322.532,200.043 322.536 C 217.491 322.539,221.960 322.360,224.684 321.551 C 232.376 319.267,238.165 309.911,234.286 306.032 C 232.692 304.438,235.109 304.213,202.222 309.018 M184.131 336.032 C 184.140 346.990,188.478 351.111,200.000 351.111 C 211.522 351.111,215.860 346.990,215.869 336.032 L 215.873 332.063 200.000 332.063 L 184.127 332.063 184.131 336.032 " stroke="#000000" fill="none" stroke-width="3" class="GwFYFPvj_0"></path></g><style data-made-with="vivus-instant">.GwFYFPvj_0{stroke-dasharray:1840 1842;stroke-dashoffset:1841;animation:GwFYFPvj_draw_0 4500ms linear 0ms infinite,GwFYFPvj_fade 4500ms linear 0ms infinite;}@keyframes GwFYFPvj_draw{100%{stroke-dashoffset:0;}}@keyframes GwFYFPvj_fade{0%{stroke-opacity:1;}91.11111111111111%{stroke-opacity:1;}100%{stroke-opacity:0;}}@keyframes GwFYFPvj_draw_0{6.666666666666667%{stroke-dashoffset: 1841}73.33333333333333%{ stroke-dashoffset: 0;}100%{ stroke-dashoffset: 0;}}</style></svg>
