<svg id="svg" version="1.1" width="400" height="400" xmlns="http://www.w3.org/2000/svg" xmlns:xlink="http://www.w3.org/1999/xlink" style=""><g id="svgg"><path id="path0" d="M248.198 64.542 C 245.868 69.845,242.871 76.683,241.538 79.739 L 239.115 85.294 225.790 95.035 C 218.461 100.393,212.588 104.974,212.737 105.215 C 212.886 105.457,219.644 108.573,227.754 112.141 L 242.499 118.627 252.132 131.835 C 257.430 139.100,262.058 144.958,262.417 144.853 C 262.776 144.749,266.032 138.008,269.653 129.875 L 276.237 115.086 289.262 105.546 C 296.426 100.299,302.288 95.711,302.288 95.350 C 302.288 94.989,295.624 91.736,287.481 88.121 L 272.674 81.548 262.971 68.246 C 257.634 60.929,253.080 54.934,252.851 54.922 C 252.622 54.911,250.528 59.240,248.198 64.542 M127.628 93.843 L 110.486 101.295 91.681 99.080 C 81.338 97.862,72.752 96.984,72.601 97.128 C 72.450 97.272,75.742 105.404,79.915 115.198 L 87.504 133.007 85.285 151.610 C 84.065 161.842,83.202 170.348,83.366 170.512 C 83.530 170.676,91.678 167.405,101.473 163.242 L 119.281 155.674 137.857 157.900 C 148.073 159.124,156.567 159.991,156.732 159.826 C 156.896 159.661,153.630 151.595,149.473 141.902 L 141.915 124.277 143.830 107.727 C 144.883 98.624,145.919 90.074,146.132 88.725 C 146.651 85.448,147.445 85.228,127.628 93.843 M218.182 136.825 C 216.858 137.319,214.916 138.280,213.867 138.960 C 209.961 141.491,38.530 310.573,37.172 313.234 C 30.090 327.117,45.200 342.550,59.118 335.648 C 63.084 333.681,236.209 163.273,237.904 159.668 C 243.888 146.938,231.016 132.029,218.182 136.825 M266.787 186.928 C 266.422 187.827,264.534 192.167,262.590 196.573 L 259.057 204.583 250.934 210.538 C 246.466 213.812,242.573 216.710,242.284 216.975 C 241.994 217.241,246.059 219.339,251.317 221.638 L 260.877 225.817 267.173 234.433 C 270.636 239.173,273.634 242.948,273.836 242.823 C 274.038 242.698,276.078 238.366,278.370 233.196 L 282.537 223.795 290.942 217.706 C 295.564 214.356,299.342 211.429,299.336 211.200 C 299.330 210.971,295.139 208.975,290.022 206.764 L 280.719 202.744 275.654 195.980 C 272.868 192.260,269.882 188.333,269.019 187.255 L 267.450 185.294 266.787 186.928 " stroke="#000000" fill="none" stroke-width="3" class="ywQlOOhy_0"></path></g><style data-made-with="vivus-instant">.ywQlOOhy_0{stroke-dasharray:1322 1324;stroke-dashoffset:1323;animation:ywQlOOhy_draw_0 4500ms linear 0ms infinite,ywQlOOhy_fade 4500ms linear 0ms infinite;}@keyframes ywQlOOhy_draw{100%{stroke-dashoffset:0;}}@keyframes ywQlOOhy_fade{0%{stroke-opacity:1;}91.11111111111111%{stroke-opacity:1;}100%{stroke-opacity:0;}}@keyframes ywQlOOhy_draw_0{6.666666666666667%{stroke-dashoffset: 1323}73.33333333333333%{ stroke-dashoffset: 0;}100%{ stroke-dashoffset: 0;}}</style></svg>
