<svg id="svg" version="1.1" width="400" height="400" xmlns="http://www.w3.org/2000/svg" xmlns:xlink="http://www.w3.org/1999/xlink" style=""><g id="svgg"><path id="path0" d="M183.614 17.831 C 161.366 27.120,161.117 27.643,169.443 47.597 C 171.940 53.584,173.750 58.667,173.465 58.894 C 173.179 59.121,170.488 61.142,167.484 63.386 C 160.407 68.674,149.371 79.699,144.205 86.644 C 141.963 89.658,139.943 92.357,139.716 92.643 C 139.489 92.928,134.486 91.152,128.599 88.696 C 108.312 80.232,107.644 80.561,98.425 103.572 C 89.454 125.962,89.708 126.739,108.562 134.566 C 121.850 140.083,120.659 138.775,119.484 146.575 C 118.944 150.154,118.501 156.671,118.498 161.057 C 118.493 169.433,118.655 169.863,121.822 169.863 C 130.485 169.863,143.511 183.114,146.567 195.034 C 147.436 198.425,147.764 198.509,151.330 196.258 C 157.381 192.438,168.379 190.523,174.886 192.156 C 177.119 192.716,177.123 192.544,175.044 186.430 C 162.398 149.249,183.358 107.479,221.032 94.787 C 258.136 82.287,298.990 102.050,312.345 138.959 C 333.910 198.556,274.906 255.238,216.212 231.308 L 210.616 229.027 210.558 235.575 C 210.494 242.678,209.027 248.020,205.800 252.895 C 203.640 256.160,203.533 255.927,207.584 256.796 C 221.292 259.736,233.512 274.023,233.554 287.158 L 233.562 289.726 244.692 289.721 C 250.813 289.719,258.745 289.277,262.319 288.741 C 265.892 288.204,268.851 287.821,268.895 287.890 C 268.939 287.958,271.055 293.099,273.597 299.315 C 281.513 318.670,282.392 318.966,304.933 309.861 C 327.528 300.734,327.978 299.852,319.933 280.406 L 315.209 268.986 320.790 264.855 C 328.046 259.484,340.507 247.037,345.705 239.968 L 349.808 234.387 361.228 239.111 C 380.674 247.156,381.556 246.706,390.683 224.111 C 399.752 201.658,399.475 200.808,380.479 192.822 C 374.452 190.288,369.434 188.134,369.327 188.035 C 369.221 187.937,369.607 184.254,370.184 179.852 C 371.521 169.652,371.520 157.738,370.181 147.525 C 369.602 143.112,369.371 139.287,369.667 139.026 C 369.963 138.765,374.212 136.923,379.110 134.934 C 400.211 126.364,400.404 125.861,391.131 103.694 C 381.223 80.012,380.789 79.782,361.354 87.929 C 348.525 93.307,350.552 93.548,344.695 85.951 C 338.564 78.000,328.642 68.137,321.117 62.513 L 315.179 58.076 316.551 54.894 C 328.692 26.756,328.892 27.374,304.452 17.484 C 282.347 8.539,281.506 8.834,273.545 28.296 L 268.836 39.812 266.781 39.428 C 256.733 37.554,239.570 37.119,229.110 38.474 C 225.719 38.913,222.238 39.297,221.374 39.328 C 219.980 39.377,219.286 38.149,215.210 28.425 C 206.829 8.431,206.440 8.300,183.614 17.831 M233.224 118.230 C 198.279 126.677,185.980 171.201,211.575 196.599 C 241.390 226.183,291.096 205.610,291.096 163.685 C 291.096 133.287,262.818 111.076,233.224 118.230 M93.503 195.320 C 90.541 197.650,89.726 200.499,89.726 208.527 L 89.726 215.727 87.842 216.135 C 79.677 217.902,67.717 222.679,62.941 226.079 L 60.832 227.581 55.587 222.428 C 46.423 213.425,43.547 213.333,34.756 221.760 C 23.371 232.674,23.029 236.145,32.397 245.694 L 37.244 250.635 35.367 253.913 C 31.381 260.872,28.201 268.819,26.038 277.226 L 25.290 280.137 17.405 280.137 C 4.345 280.137,3.425 281.197,3.425 296.233 C 3.425 311.338,4.263 312.329,17.051 312.329 L 25.245 312.329 26.059 316.267 C 27.311 322.335,30.554 330.727,33.942 336.673 L 37.015 342.064 31.940 347.231 C 22.536 356.804,22.696 358.796,33.748 369.743 C 43.237 379.141,46.173 379.253,55.096 370.556 L 60.616 365.177 64.510 367.476 C 70.011 370.723,76.874 373.634,83.601 375.574 L 89.384 377.241 89.726 385.400 C 90.279 398.579,91.471 399.518,107.238 399.191 L 117.786 398.973 120.023 396.735 L 122.260 394.497 122.603 385.876 L 122.945 377.254 129.291 375.652 C 135.073 374.192,145.564 369.684,150.105 366.708 L 151.922 365.517 157.297 370.495 C 166.948 379.435,169.924 379.246,179.890 369.056 C 189.658 359.068,189.754 356.085,180.604 346.759 L 175.744 341.806 177.303 339.225 C 181.248 332.692,185.697 321.547,187.289 314.212 L 187.697 312.329 195.595 312.329 C 208.670 312.329,209.589 311.272,209.589 296.233 C 209.589 281.208,208.662 280.137,195.656 280.137 L 187.819 280.137 186.621 275.171 C 184.995 268.426,181.978 260.879,178.659 255.252 L 175.899 250.572 181.011 245.319 C 189.491 236.605,189.125 233.728,178.177 223.033 L 171.256 216.272 167.104 216.572 L 162.952 216.873 157.332 222.440 C 152.025 227.697,151.636 227.949,150.342 226.961 C 146.154 223.760,134.125 218.663,125.569 216.464 L 122.714 215.731 122.487 207.126 L 122.260 198.521 119.702 196.179 L 117.143 193.836 106.267 193.836 C 96.147 193.836,95.259 193.939,93.503 195.320 M118.335 259.296 C 149.329 269.642,154.609 310.233,127.316 328.343 C 101.872 345.225,67.773 326.570,67.816 295.792 C 67.854 269.400,93.374 250.964,118.335 259.296 " stroke="#000000" fill="none" stroke-width="3" class="WqSreuCe_0"></path></g><style data-made-with="vivus-instant">.WqSreuCe_0{stroke-dasharray:2853 2855;stroke-dashoffset:2854;animation:WqSreuCe_draw_0 4500ms linear 0ms infinite,WqSreuCe_fade 4500ms linear 0ms infinite;}@keyframes WqSreuCe_draw{100%{stroke-dashoffset:0;}}@keyframes WqSreuCe_fade{0%{stroke-opacity:1;}91.11111111111111%{stroke-opacity:1;}100%{stroke-opacity:0;}}@keyframes WqSreuCe_draw_0{6.666666666666667%{stroke-dashoffset: 2854}73.33333333333333%{ stroke-dashoffset: 0;}100%{ stroke-dashoffset: 0;}}</style></svg>
