<svg id="svg" version="1.1" width="400" height="400" xmlns="http://www.w3.org/2000/svg" xmlns:xlink="http://www.w3.org/1999/xlink" style=""><g id="svgg"><path id="path0" d="M131.746 18.027 C 127.503 19.376,125.376 20.753,122.363 24.104 C 117.192 29.856,117.460 26.410,117.460 87.083 L 117.460 140.923 105.238 154.221 C 93.111 167.415,93.013 167.503,92.662 165.484 C 91.952 161.404,90.666 161.066,83.912 163.183 C 78.499 164.880,70.395 164.876,64.444 163.175 C 57.367 161.151,55.873 161.691,55.873 166.273 C 55.873 167.832,55.200 168.732,52.222 171.156 C 48.595 174.108,9.079 220.260,7.227 223.707 C 3.266 231.079,9.149 240.598,17.682 240.624 C 23.345 240.642,24.720 239.564,35.188 226.897 C 43.071 217.357,44.796 215.573,44.957 216.798 C 45.064 217.615,44.564 226.466,43.846 236.465 C 43.127 246.465,42.540 255.922,42.540 257.482 L 42.540 260.317 46.349 260.317 C 51.052 260.317,51.098 254.068,45.999 308.385 C 41.374 357.648,41.387 356.096,45.575 360.284 C 51.189 365.898,60.839 364.380,64.521 357.303 C 65.136 356.120,66.773 341.189,69.602 310.953 C 73.533 268.930,73.919 265.420,74.528 266.085 C 74.662 266.230,76.643 286.398,78.931 310.903 C 81.918 342.894,83.365 355.986,84.062 357.335 C 87.655 364.282,97.164 365.860,102.612 360.413 C 107.228 355.797,107.238 358.237,102.386 306.667 L 98.055 260.635 102.043 260.447 L 106.032 260.259 106.032 258.127 C 106.032 255.777,102.500 206.436,101.889 200.253 L 101.506 196.378 112.093 184.169 L 122.679 171.960 124.356 173.565 C 125.277 174.448,127.460 175.828,129.206 176.633 L 132.381 178.095 233.333 178.095 L 334.286 178.095 337.632 176.583 C 341.834 174.684,346.799 169.379,348.187 165.306 C 349.738 160.752,349.738 34.803,348.187 30.249 C 346.799 26.176,341.834 20.872,337.632 18.973 L 334.286 17.460 234.286 17.340 C 154.878 17.245,133.763 17.386,131.746 18.027 M333.140 30.448 C 337.801 33.290,337.460 27.982,337.460 97.778 C 337.460 167.573,337.801 162.265,333.140 165.107 C 330.416 166.768,137.242 167.090,134.049 165.439 C 130.070 163.381,130.119 163.234,137.639 154.564 C 145.270 145.766,146.411 143.479,145.710 138.385 L 145.292 135.339 169.630 107.916 C 197.152 76.906,197.682 76.095,192.120 73.561 C 188.988 72.134,187.972 73.100,162.941 101.318 L 138.374 129.014 133.949 129.110 L 129.523 129.206 129.523 81.887 C 129.524 29.605,129.253 33.054,133.566 30.424 C 136.718 28.502,329.987 28.526,333.140 30.448 M205.079 52.381 L 205.079 58.413 234.286 58.413 L 263.492 58.413 263.492 52.381 L 263.492 46.349 234.286 46.349 L 205.079 46.349 205.079 52.381 M205.079 75.238 L 205.079 81.270 263.175 81.270 L 321.270 81.270 321.270 75.238 L 321.270 69.206 263.175 69.206 L 205.079 69.206 205.079 75.238 M205.079 97.778 L 205.079 103.492 250.476 103.492 L 295.873 103.492 295.873 97.778 L 295.873 92.063 250.476 92.063 L 205.079 92.063 205.079 97.778 M65.606 107.860 C 55.416 111.636,49.528 119.696,49.016 130.569 C 47.510 162.595,93.942 167.856,99.753 136.318 C 103.230 117.449,83.683 101.159,65.606 107.860 M205.079 120.317 L 205.079 126.349 263.175 126.349 L 321.270 126.349 321.270 120.317 L 321.270 114.286 263.175 114.286 L 205.079 114.286 205.079 120.317 M205.079 143.175 L 205.079 149.206 258.095 149.206 L 311.111 149.206 311.111 143.175 L 311.111 137.143 258.095 137.143 L 205.079 137.143 205.079 143.175 " stroke="#000000" fill="none" stroke-width="3" class="JFIyrXKR_0"></path></g><style data-made-with="vivus-instant">.JFIyrXKR_0{stroke-dasharray:3619 3621;stroke-dashoffset:3620;animation:JFIyrXKR_draw_0 4500ms linear 0ms infinite,JFIyrXKR_fade 4500ms linear 0ms infinite;}@keyframes JFIyrXKR_draw{100%{stroke-dashoffset:0;}}@keyframes JFIyrXKR_fade{0%{stroke-opacity:1;}91.11111111111111%{stroke-opacity:1;}100%{stroke-opacity:0;}}@keyframes JFIyrXKR_draw_0{6.666666666666667%{stroke-dashoffset: 3620}73.33333333333333%{ stroke-dashoffset: 0;}100%{ stroke-dashoffset: 0;}}</style></svg>
