<svg id="svg" version="1.1" width="400" height="400" xmlns="http://www.w3.org/2000/svg" xmlns:xlink="http://www.w3.org/1999/xlink" style=""><g id="svgg"><path id="path0" d="M362.918 37.353 C 360.902 38.396,301.595 69.822,231.125 107.189 C 91.329 181.316,99.553 176.629,100.475 181.645 C 101.218 185.692,102.921 187.157,121.698 199.915 C 145.460 216.060,145.078 215.869,149.328 213.671 C 153.902 211.306,374.919 47.896,375.617 46.363 C 379.290 38.302,371.615 32.857,362.918 37.353 M168.896 91.178 C 97.045 111.137,37.586 127.637,36.764 127.844 C 32.803 128.842,30.267 134.272,31.916 138.220 C 32.746 140.205,82.928 175.515,85.881 176.190 C 86.290 176.284,87.040 175.152,87.546 173.675 C 90.000 166.521,84.540 169.680,197.512 110.062 C 253.966 80.270,300.421 55.635,300.747 55.319 C 301.834 54.260,300.096 54.732,168.896 91.178 M261.300 148.633 C 205.031 189.975,158.920 224.044,158.831 224.342 C 158.742 224.640,168.663 231.602,180.878 239.813 C 268.601 298.788,261.612 294.246,264.641 294.246 C 266.654 294.246,267.858 293.858,268.982 292.846 C 270.834 291.179,365.222 73.359,364.059 73.436 C 363.811 73.452,317.570 107.291,261.300 148.633 M113.552 242.768 C 118.062 262.698,122.387 281.792,123.164 285.198 C 125.409 295.037,130.852 298.142,136.572 292.846 L 138.756 290.824 144.650 260.135 C 147.892 243.256,150.544 229.329,150.544 229.187 C 150.544 229.044,149.174 228.927,147.499 228.927 C 141.191 228.927,137.124 226.992,121.279 216.454 C 113.074 210.997,106.133 206.532,105.857 206.532 C 105.580 206.532,109.043 222.838,113.552 242.768 M160.498 243.202 C 160.498 243.526,159.225 250.419,157.670 258.519 C 156.116 266.619,154.941 273.345,155.061 273.465 C 155.389 273.793,176.050 253.794,176.050 253.149 C 176.050 252.634,161.570 242.613,160.827 242.613 C 160.646 242.613,160.498 242.878,160.498 243.202 " stroke="#000000" fill="none" stroke-width="3" class="JnBRFTBV_0"></path></g><style data-made-with="vivus-instant">.JnBRFTBV_0{stroke-dasharray:2189 2191;stroke-dashoffset:2190;animation:JnBRFTBV_draw_0 4500ms linear 0ms infinite,JnBRFTBV_fade 4500ms linear 0ms infinite;}@keyframes JnBRFTBV_draw{100%{stroke-dashoffset:0;}}@keyframes JnBRFTBV_fade{0%{stroke-opacity:1;}91.11111111111111%{stroke-opacity:1;}100%{stroke-opacity:0;}}@keyframes JnBRFTBV_draw_0{6.666666666666667%{stroke-dashoffset: 2190}73.33333333333333%{ stroke-dashoffset: 0;}100%{ stroke-dashoffset: 0;}}</style></svg>