<svg id="svg" version="1.1" width="400" height="300" xmlns="http://www.w3.org/2000/svg" xmlns:xlink="http://www.w3.org/1999/xlink" style=""><g id="svgg"><path id="path0" d="M35.080 37.049 C 33.251 37.800,33.263 37.530,33.263 76.960 C 33.263 119.325,33.524 115.862,30.288 116.474 C 27.298 117.039,27.368 116.726,27.368 129.508 L 27.368 140.992 28.478 141.864 C 29.088 142.344,30.101 142.737,30.728 142.737 C 33.363 142.737,33.231 141.037,33.358 176.653 L 33.474 209.053 34.442 210.610 C 36.470 213.872,37.348 214.105,47.579 214.105 C 57.810 214.105,58.688 213.872,60.716 210.610 L 61.684 209.053 61.895 176.000 L 62.105 142.947 77.263 142.722 C 91.545 142.509,92.552 142.444,94.685 141.584 C 99.563 139.619,101.890 137.015,103.006 132.273 C 103.876 128.577,103.837 46.310,102.964 43.836 C 102.057 41.267,100.492 39.448,98.002 38.068 L 95.789 36.842 65.895 36.756 C 48.996 36.708,35.600 36.835,35.080 37.049 M122.677 37.039 C 120.257 38.042,120.420 32.137,120.428 118.094 C 120.436 203.737,120.346 200.379,122.752 204.486 C 125.295 208.824,129.382 212.008,133.988 213.237 C 138.677 214.488,179.951 214.044,183.264 212.706 C 187.878 210.843,191.896 206.815,193.775 202.169 L 194.737 199.789 194.848 119.342 L 194.960 38.896 193.867 37.869 L 192.774 36.842 180.842 36.842 L 168.910 36.842 167.823 37.863 L 166.737 38.884 166.737 112.515 C 166.737 194.396,166.969 188.150,163.891 189.072 C 160.533 190.078,151.343 189.432,150.008 188.096 L 148.842 186.928 148.733 112.903 L 148.625 38.877 147.542 37.860 L 146.460 36.842 135.019 36.754 C 128.727 36.705,123.173 36.834,122.677 37.039 M213.606 37.048 C 211.787 37.796,211.789 37.744,211.789 71.972 C 211.789 108.646,211.996 106.111,208.958 106.751 C 205.546 107.470,205.443 107.863,205.574 119.722 C 205.696 130.793,205.850 131.368,208.697 131.368 C 209.261 131.368,210.188 131.833,210.756 132.402 L 211.789 133.435 211.789 172.750 L 211.789 212.064 212.764 212.979 L 213.738 213.895 239.514 213.895 C 264.493 213.895,265.370 213.868,267.885 213.020 C 273.279 211.203,277.466 207.206,279.658 201.779 L 280.632 199.368 280.632 165.684 L 280.632 132.000 279.678 129.643 C 278.996 127.957,277.532 125.979,274.538 122.696 L 270.352 118.105 271.964 117.409 C 273.976 116.539,276.226 114.321,277.278 112.170 C 278.310 110.060,278.911 84.687,278.522 59.617 C 278.134 34.585,281.671 36.872,243.158 36.756 C 226.987 36.708,214.126 36.835,213.606 37.048 M305.163 37.690 C 301.262 39.123,297.893 42.405,296.307 46.316 L 295.368 48.632 295.368 125.315 L 295.368 201.998 297.053 205.297 C 299.022 209.153,301.697 211.604,305.488 213.022 C 307.853 213.907,308.294 213.921,330.053 213.804 L 352.211 213.684 354.707 212.515 C 359.574 210.236,362.856 206.535,364.599 201.359 C 365.463 198.795,365.474 198.206,365.474 153.511 L 365.474 108.258 364.538 107.603 C 363.341 106.764,335.746 106.609,334.183 107.431 C 332.672 108.227,332.645 108.435,332.638 119.408 C 332.631 131.273,332.655 131.368,335.687 131.368 C 339.103 131.368,338.947 129.979,338.947 160.497 L 338.947 187.407 337.914 188.440 C 336.458 189.896,326.046 190.046,324.632 188.632 C 323.366 187.366,323.295 62.473,324.559 61.328 C 325.439 60.533,340.268 60.282,341.474 61.043 C 341.989 61.368,342.144 63.003,342.316 69.917 C 342.590 80.974,341.447 80.000,354.152 80.000 C 366.961 80.000,365.474 82.509,365.474 60.908 C 365.474 40.864,365.522 41.136,361.507 38.421 L 359.484 37.053 333.110 37.082 C 311.855 37.106,306.431 37.224,305.163 37.690 M251.006 61.436 L 252.000 62.241 252.000 84.211 L 252.000 106.180 251.006 106.985 C 250.157 107.672,249.311 107.789,245.217 107.789 C 238.018 107.789,238.737 110.406,238.737 84.211 C 238.737 58.015,238.018 60.632,245.217 60.632 C 249.311 60.632,250.157 60.749,251.006 61.436 M74.335 62.507 L 75.368 63.541 75.368 88.585 C 75.368 115.050,75.346 115.348,73.325 116.185 C 71.282 117.031,63.901 116.635,62.780 115.619 C 61.420 114.387,61.379 63.673,62.737 62.316 C 64.137 60.915,72.887 61.060,74.335 62.507 M251.177 134.928 L 252.211 135.962 252.211 161.618 C 252.211 192.331,252.931 189.195,245.822 189.402 C 241.449 189.529,240.943 189.464,239.889 188.635 L 238.737 187.728 238.737 161.684 L 238.737 135.640 239.846 134.767 C 241.646 133.352,249.715 133.466,251.177 134.928 " stroke="#000000" fill="none" stroke-width="3" class="YEBGTBcU_0"></path></g><style data-made-with="vivus-instant">.YEBGTBcU_0{stroke-dasharray:2891 2893;stroke-dashoffset:2892;animation:YEBGTBcU_draw_0 4500ms linear 0ms infinite,YEBGTBcU_fade 4500ms linear 0ms infinite;}@keyframes YEBGTBcU_draw{100%{stroke-dashoffset:0;}}@keyframes YEBGTBcU_fade{0%{stroke-opacity:1;}91.11111111111111%{stroke-opacity:1;}100%{stroke-opacity:0;}}@keyframes YEBGTBcU_draw_0{6.666666666666667%{stroke-dashoffset: 2892}73.33333333333333%{ stroke-dashoffset: 0;}100%{ stroke-dashoffset: 0;}}</style></svg>
