<svg id="svg" version="1.1" width="400" height="400" xmlns="http://www.w3.org/2000/svg" xmlns:xlink="http://www.w3.org/1999/xlink" style=""><g id="svgg"><path id="path0" d="M190.850 15.559 C 173.562 18.092,159.998 40.383,166.292 55.916 C 166.641 56.779,166.430 57.050,165.408 57.050 C 161.126 57.050,163.020 72.134,167.950 77.293 C 168.997 78.388,169.857 79.752,169.860 80.323 C 169.864 80.894,170.593 82.922,171.481 84.829 C 172.888 87.851,173.094 89.185,173.080 95.202 L 173.064 102.107 165.810 105.997 C 157.199 110.614,141.466 120.968,135.348 126.044 C 128.877 131.414,128.757 131.755,128.477 145.705 L 128.239 157.536 195.724 157.536 L 263.209 157.536 263.209 146.204 C 263.209 131.831,262.924 131.001,256.145 125.634 C 249.322 120.232,236.558 111.868,226.904 106.472 L 218.801 101.942 218.616 95.402 C 218.452 89.568,218.600 88.528,219.995 85.760 C 220.855 84.054,221.763 81.709,222.014 80.549 C 222.265 79.389,223.300 77.610,224.315 76.596 C 228.467 72.443,230.395 58.838,227.038 57.374 C 225.901 56.878,225.640 56.372,225.928 55.221 C 229.259 41.895,225.496 25.932,219.023 25.932 C 218.613 25.932,217.316 24.809,216.141 23.436 C 213.293 20.110,206.203 16.453,200.946 15.600 C 196.339 14.853,195.685 14.850,190.850 15.559 M184.117 200.606 C 169.180 203.756,159.734 212.802,158.971 224.687 C 158.549 231.274,158.871 231.448,171.457 231.422 C 182.179 231.399,182.822 231.203,184.378 227.479 C 189.178 215.992,204.938 217.693,207.487 229.974 C 209.311 238.762,206.145 244.807,195.542 252.776 C 185.090 260.632,181.661 265.473,181.036 273.255 C 180.547 279.343,180.696 279.417,193.439 279.417 C 205.722 279.417,205.635 279.453,207.096 273.619 C 208.425 268.308,210.367 265.789,215.414 262.832 C 232.960 252.550,238.625 235.536,230.357 217.950 C 223.895 204.205,203.438 196.532,184.117 200.606 M63.124 232.593 C 47.030 238.356,37.842 253.475,41.071 268.882 C 41.770 272.217,41.770 272.934,41.072 272.934 C 36.688 272.934,38.527 288.827,43.449 293.472 C 44.511 294.475,45.381 295.799,45.381 296.414 C 45.381 297.029,46.110 299.181,47.002 301.197 C 48.388 304.332,48.622 305.826,48.622 311.538 L 48.622 318.215 40.756 322.576 C 24.695 331.482,7.628 343.760,5.502 347.938 C 4.433 350.039,4.213 352.113,4.016 361.912 L 3.785 373.420 71.260 373.420 L 138.736 373.420 138.725 361.912 C 138.713 348.367,138.361 347.344,131.920 342.104 C 126.107 337.375,110.866 327.383,102.431 322.771 C 98.331 320.529,94.761 318.390,94.499 318.018 C 93.429 316.499,93.965 305.372,95.228 302.892 C 95.901 301.569,96.831 299.219,97.293 297.670 C 97.756 296.121,98.907 294.028,99.850 293.018 C 104.542 287.995,105.828 274.174,101.731 272.808 C 101.207 272.633,101.227 271.774,101.806 269.671 C 104.656 259.320,101.821 246.130,96.092 243.087 C 94.923 242.467,92.509 240.595,90.726 238.928 C 83.659 232.317,71.614 229.553,63.124 232.593 M311.183 232.766 C 302.125 236.009,293.806 244.168,290.529 253.023 C 289.015 257.115,288.656 265.210,289.776 270.016 C 290.163 271.675,290.153 272.689,289.749 272.829 C 285.705 274.239,287.051 288.447,291.666 293.062 C 292.635 294.032,293.809 296.099,294.274 297.656 C 294.740 299.212,295.671 301.569,296.345 302.892 C 297.609 305.375,298.140 316.441,297.073 318.069 C 296.811 318.468,294.737 319.730,292.465 320.873 C 286.493 323.877,274.247 331.462,266.949 336.676 C 252.765 346.811,252.836 346.683,252.836 362.049 L 252.836 373.420 320.322 373.420 L 387.808 373.420 387.582 361.912 C 387.372 351.181,387.252 350.222,385.804 347.694 C 383.263 343.256,366.626 331.356,350.205 322.232 L 342.874 318.159 343.137 310.943 C 343.421 303.147,345.324 296.348,348.027 293.471 C 352.982 288.197,354.877 274.206,350.782 273.135 C 349.706 272.854,349.648 272.551,350.272 270.445 C 353.396 259.901,349.153 242.464,343.464 242.464 C 343.059 242.464,341.536 241.221,340.081 239.701 C 333.040 232.353,320.645 229.378,311.183 232.766 M183.079 290.034 C 180.421 291.234,180.227 291.925,180.227 300.168 C 180.227 309.815,180.318 309.887,192.579 309.887 C 205.186 309.887,205.511 309.620,205.511 299.258 C 205.511 289.926,205.027 289.517,193.736 289.296 C 187.410 289.173,184.550 289.371,183.079 290.034 " stroke="#000000" fill="none" stroke-width="3" class="nKyUgXbe_0"></path></g><style data-made-with="vivus-instant">.nKyUgXbe_0{stroke-dasharray:1916 1918;stroke-dashoffset:1917;animation:nKyUgXbe_draw_0 4500ms linear 0ms infinite,nKyUgXbe_fade 4500ms linear 0ms infinite;}@keyframes nKyUgXbe_draw{100%{stroke-dashoffset:0;}}@keyframes nKyUgXbe_fade{0%{stroke-opacity:1;}91.11111111111111%{stroke-opacity:1;}100%{stroke-opacity:0;}}@keyframes nKyUgXbe_draw_0{6.666666666666667%{stroke-dashoffset: 1917}73.33333333333333%{ stroke-dashoffset: 0;}100%{ stroke-dashoffset: 0;}}</style></svg>
