<svg id="svg" version="1.1" width="400" height="400" xmlns="http://www.w3.org/2000/svg" xmlns:xlink="http://www.w3.org/1999/xlink" style=""><g id="svgg"><path id="path0" d="M186.072 34.480 C 122.980 41.131,73.476 92.225,69.749 154.539 L 69.183 164.000 86.191 164.000 L 103.200 164.000 103.200 158.828 C 103.200 95.799,175.422 49.867,235.453 74.716 C 269.010 88.607,295.200 124.635,295.200 156.905 L 295.200 160.000 281.002 160.000 L 266.803 160.000 289.800 182.996 L 312.796 205.993 335.198 183.602 C 347.519 171.287,357.600 160.938,357.600 160.605 C 357.600 160.272,351.174 160.000,343.321 160.000 L 329.041 160.000 328.541 152.389 C 323.908 81.848,257.566 26.943,186.072 34.480 M187.600 145.984 C 144.999 155.362,130.047 208.336,161.352 238.979 C 195.596 272.498,253.828 247.724,253.915 199.600 C 253.979 164.635,221.641 138.490,187.600 145.984 M63.200 216.400 L 40.411 239.200 54.895 239.200 L 69.380 239.200 69.932 246.200 C 75.886 321.698,146.593 376.277,221.617 363.286 C 282.712 352.707,329.304 298.382,329.586 237.400 L 329.600 234.400 312.947 234.400 L 296.295 234.400 295.350 243.460 C 286.637 327.050,186.690 361.454,129.200 300.653 C 114.839 285.466,105.567 265.320,103.559 244.945 L 102.993 239.200 117.097 239.200 C 124.853 239.200,131.200 238.928,131.200 238.595 C 131.200 237.936,87.045 193.600,86.389 193.600 C 86.169 193.600,75.734 203.860,63.200 216.400 " stroke="#000000" fill="none" stroke-width="3" class="bEfIogJw_0"></path></g><style data-made-with="vivus-instant">.bEfIogJw_0{stroke-dasharray:2191 2193;stroke-dashoffset:2192;animation:bEfIogJw_draw_0 12500ms linear 0ms infinite,bEfIogJw_fade 12500ms linear 0ms infinite;}@keyframes bEfIogJw_draw{100%{stroke-dashoffset:0;}}@keyframes bEfIogJw_fade{0%{stroke-opacity:1;}96.8%{stroke-opacity:1;}100%{stroke-opacity:0;}}@keyframes bEfIogJw_draw_0{2.4%{stroke-dashoffset: 2192}26.400000000000002%{ stroke-dashoffset: 0;}100%{ stroke-dashoffset: 0;}}</style></svg>
