<svg id="svg" version="1.1" width="400" height="400" xmlns="http://www.w3.org/2000/svg" xmlns:xlink="http://www.w3.org/1999/xlink" style=""><g id="svgg"><path id="path0" d="M313.129 1.993 C 310.541 3.039,310.351 5.888,312.480 11.761 C 314.992 18.689,321.676 35.794,322.165 36.542 C 323.145 38.042,325.867 37.790,326.623 36.128 C 327.161 34.949,327.295 35.410,323.798 26.409 C 319.130 14.392,316.970 8.583,317.074 8.331 C 317.125 8.209,323.092 10.259,330.333 12.887 C 345.865 18.524,346.667 18.625,346.667 14.947 C 346.667 12.965,348.316 13.666,317.333 2.464 C 315.021 1.628,314.248 1.542,313.129 1.993 M345.334 18.166 L 333.839 29.665 339.833 35.666 C 343.129 38.966,345.979 41.667,346.165 41.667 C 346.605 41.667,369.000 19.268,369.000 18.828 C 369.000 18.500,357.319 6.667,356.995 6.667 C 356.904 6.667,351.657 11.841,345.334 18.166 M316.415 50.085 C 306.837 59.664,299.000 67.654,299.000 67.839 C 299.000 68.025,300.951 70.123,303.335 72.502 L 307.670 76.827 325.168 59.332 C 334.792 49.709,342.667 41.683,342.667 41.496 C 342.667 41.166,334.319 32.667,333.994 32.667 C 333.904 32.667,325.994 40.505,316.415 50.085 M288.762 68.150 C 287.066 68.680,284.980 69.878,283.130 71.385 C 280.227 73.748,210.717 136.344,209.830 137.392 C 205.866 142.082,205.202 149.544,208.230 155.381 C 209.688 158.193,217.212 165.754,219.913 167.123 C 226.062 170.238,233.492 169.347,238.382 164.906 C 239.645 163.759,296.405 100.726,303.092 93.045 C 309.662 85.497,309.248 80.947,301.283 73.139 C 295.689 67.657,293.338 66.720,288.762 68.150 M198.412 157.754 C 196.719 159.455,195.333 160.994,195.333 161.175 C 195.333 161.611,214.073 180.333,214.509 180.333 C 214.944 180.333,220.667 174.594,220.667 174.158 C 220.667 173.977,216.352 169.516,211.079 164.246 L 201.491 154.662 198.412 157.754 M183.935 163.643 C 182.891 163.977,181.316 164.784,180.435 165.437 C 177.052 167.945,115.788 229.725,114.883 231.540 C 112.986 235.347,112.993 239.677,114.903 243.489 C 115.884 245.449,144.068 273.979,146.384 275.357 C 147.132 275.802,147.989 276.393,148.288 276.669 C 148.588 276.946,152.722 287.521,157.475 300.169 C 162.227 312.818,166.171 323.235,166.238 323.319 C 166.305 323.402,172.576 317.255,180.174 309.659 L 193.989 295.847 192.637 294.470 C 191.411 293.221,191.090 293.074,189.204 292.898 C 184.362 292.445,182.272 290.957,181.023 287.073 C 180.610 285.786,179.179 282.731,177.843 280.284 L 175.415 275.833 181.791 269.413 L 188.167 262.994 188.167 259.413 C 188.167 255.983,188.116 255.727,186.952 253.290 L 185.738 250.747 188.301 248.199 L 190.865 245.650 193.182 247.444 C 220.649 268.706,255.500 274.598,288.167 263.502 C 294.558 261.331,295.689 260.871,295.543 260.501 C 294.866 258.783,281.194 225.471,281.130 225.383 C 281.083 225.319,279.530 225.805,277.679 226.463 C 258.000 233.462,237.556 231.095,220.728 219.871 L 218.290 218.244 222.135 214.352 C 227.179 209.245,227.833 207.941,227.833 203.000 C 227.833 197.239,228.416 198.016,211.035 180.617 C 202.857 172.432,195.552 165.357,194.801 164.895 C 191.712 162.997,187.480 162.509,183.935 163.643 M131.711 182.789 L 113.590 200.912 115.321 211.706 C 116.273 217.643,117.153 222.839,117.277 223.253 C 117.480 223.931,118.040 223.466,122.929 218.571 L 128.356 213.137 127.814 210.819 C 127.435 209.197,127.308 207.422,127.392 204.913 L 127.511 201.326 138.005 190.823 C 150.983 177.834,151.930 177.328,159.000 179.619 L 161.167 180.321 166.152 175.340 C 168.894 172.601,171.069 170.292,170.985 170.209 C 170.872 170.097,150.200 164.667,149.887 164.667 C 149.856 164.667,141.677 172.822,131.711 182.789 M70.000 286.167 L 28.835 327.333 59.500 358.000 C 76.366 374.867,90.253 388.667,90.359 388.667 C 90.499 388.667,127.689 274.007,130.450 265.064 L 130.790 263.961 121.314 254.481 C 116.102 249.266,111.687 245.000,111.502 245.000 C 111.317 245.000,92.641 263.525,70.000 286.167 M182.467 256.347 C 183.778 259.624,183.692 259.799,177.976 265.524 C 171.975 271.535,172.776 271.170,171.247 268.583 L 170.015 266.500 175.754 260.750 C 182.254 254.237,181.754 254.565,182.467 256.347 M25.175 331.250 C 21.554 336.171,21.413 343.031,24.839 347.605 C 27.980 351.798,70.014 393.231,72.086 394.176 C 76.994 396.414,83.349 395.531,87.333 392.057 L 88.500 391.040 57.834 360.353 C 40.968 343.476,26.982 329.667,26.754 329.667 C 26.526 329.667,25.816 330.379,25.175 331.250 " stroke="#000000" fill="none" stroke-width="3" class="xKnBaCqu_0"></path></g><style data-made-with="vivus-instant">.xKnBaCqu_0{stroke-dasharray:2117 2119;stroke-dashoffset:2118;animation:xKnBaCqu_draw_0 12500ms linear 0ms infinite,xKnBaCqu_fade 12500ms linear 0ms infinite;}@keyframes xKnBaCqu_draw{100%{stroke-dashoffset:0;}}@keyframes xKnBaCqu_fade{0%{stroke-opacity:1;}96.8%{stroke-opacity:1;}100%{stroke-opacity:0;}}@keyframes xKnBaCqu_draw_0{2.4%{stroke-dashoffset: 2118}26.400000000000002%{ stroke-dashoffset: 0;}100%{ stroke-dashoffset: 0;}}</style></svg>
