<svg id="svg" version="1.1" width="400" height="400" xmlns="http://www.w3.org/2000/svg" xmlns:xlink="http://www.w3.org/1999/xlink" style=""><g id="svgg"><path id="path0" d="M166.691 1.179 L 161.000 2.222 144.997 29.841 L 128.994 57.460 131.322 61.625 C 132.603 63.916,140.508 77.695,148.889 92.245 L 164.127 118.700 199.323 118.556 L 234.520 118.413 251.863 88.352 C 261.402 71.819,269.206 57.933,269.206 57.495 C 269.206 57.057,262.124 44.441,253.468 29.460 L 237.729 2.222 231.722 1.143 C 223.057 -0.413,175.227 -0.387,166.691 1.179 M137.143 8.816 C 116.484 16.124,98.429 25.896,82.222 38.540 C 75.962 43.425,67.109 51.211,66.770 52.131 C 66.642 52.478,77.459 52.646,93.678 52.547 L 120.800 52.381 134.031 29.524 C 141.307 16.952,147.270 6.452,147.281 6.190 C 147.317 5.352,145.892 5.721,137.143 8.816 M251.444 6.190 C 251.452 6.452,257.408 16.952,264.680 29.524 L 277.902 52.381 304.983 52.546 C 319.877 52.638,332.043 52.495,332.017 52.229 C 331.992 51.963,329.482 49.536,326.440 46.834 C 306.890 29.469,284.604 16.555,259.712 8.165 C 252.037 5.578,251.420 5.431,251.444 6.190 M51.086 69.048 C 37.710 85.655,23.622 111.007,19.067 126.667 L 18.328 129.206 34.111 156.508 L 49.893 183.810 85.402 183.810 L 120.912 183.810 137.251 155.556 C 146.238 140.016,154.077 126.412,154.671 125.324 L 155.751 123.347 138.125 92.785 L 120.499 62.222 88.541 62.222 L 56.584 62.222 51.086 69.048 M260.703 92.615 C 251.062 109.331,243.175 123.235,243.175 123.514 C 243.175 123.793,250.960 137.540,260.476 154.063 L 277.778 184.106 313.245 183.958 L 348.713 183.810 364.520 156.508 C 377.105 134.770,380.253 128.883,379.965 127.619 C 377.033 114.715,360.950 85.573,347.643 69.048 L 342.146 62.222 310.189 62.222 L 278.231 62.222 260.703 92.615 M146.541 158.731 L 128.954 189.198 146.541 219.672 L 164.127 250.147 199.365 250.141 L 234.603 250.135 251.955 220.005 C 261.498 203.433,269.212 189.444,269.097 188.917 C 268.983 188.390,261.175 174.538,251.746 158.134 L 234.603 128.308 199.365 128.286 L 164.127 128.265 146.541 158.731 M13.968 142.563 C 13.968 142.901,13.273 146.605,12.423 150.795 C 7.610 174.530,7.588 202.688,12.365 227.077 C 13.244 231.565,13.964 235.333,13.966 235.450 C 13.983 236.935,17.317 231.616,28.529 212.213 L 41.835 189.188 28.762 166.499 C 16.418 145.073,13.968 141.109,13.968 142.563 M370.326 165.705 L 356.842 189.107 370.234 212.331 C 377.599 225.105,383.844 235.556,384.111 235.556 C 384.710 235.556,386.942 225.030,388.419 215.238 C 390.019 204.638,389.980 172.888,388.355 162.540 C 386.970 153.719,384.807 143.338,384.230 142.738 C 383.999 142.498,377.742 152.833,370.326 165.705 M49.288 195.709 C 48.789 196.498,41.615 208.857,33.345 223.175 L 18.308 249.206 19.057 251.746 C 23.666 267.380,37.681 292.662,50.823 309.053 L 56.046 315.567 88.493 315.403 L 120.941 315.238 138.230 285.397 C 147.739 268.984,155.513 255.270,155.504 254.921 C 155.496 254.571,147.702 240.857,138.183 224.444 L 120.878 194.603 85.536 194.439 L 50.195 194.275 49.288 195.709 M277.632 195.074 C 272.364 201.777,243.143 255.011,243.897 256.531 C 244.373 257.490,252.190 271.153,261.270 286.895 L 277.778 315.515 310.162 315.535 L 342.547 315.556 348.005 308.730 C 361.009 292.468,371.475 274.159,378.118 256.051 L 380.498 249.563 373.095 236.686 C 369.024 229.604,361.898 217.238,357.261 209.206 L 348.829 194.603 313.544 194.439 C 285.790 194.310,278.126 194.446,277.632 195.074 M148.889 286.162 C 140.508 300.712,132.604 314.492,131.325 316.785 L 129.000 320.952 144.978 348.571 L 160.957 376.190 167.304 377.258 C 187.499 380.653,213.740 380.531,233.502 376.949 L 237.728 376.183 253.707 348.568 L 269.686 320.952 267.700 317.402 C 266.608 315.449,258.714 301.674,250.159 286.790 L 234.603 259.729 199.365 259.718 L 164.127 259.708 148.889 286.162 M66.770 326.287 C 67.636 328.658,87.362 344.232,97.778 350.768 C 112.335 359.901,145.242 374.335,147.153 372.424 C 147.323 372.254,141.469 361.746,134.144 349.073 L 120.826 326.032 93.691 325.866 C 77.301 325.766,66.641 325.933,66.770 326.287 M277.228 327.143 C 273.349 333.325,251.338 372.185,251.580 372.426 C 252.514 373.361,273.564 365.442,283.899 360.267 C 300.793 351.808,320.268 338.260,329.811 328.327 L 332.321 325.714 305.223 325.714 L 278.125 325.714 277.228 327.143 " stroke="#000000" fill="none" stroke-width="3" class="fOucyZIk_0"></path></g><style data-made-with="vivus-instant">.fOucyZIk_0{stroke-dasharray:4127 4129;stroke-dashoffset:4128;animation:fOucyZIk_draw_0 7500ms linear 0ms infinite,fOucyZIk_fade 7500ms linear 0ms infinite;}@keyframes fOucyZIk_draw{100%{stroke-dashoffset:0;}}@keyframes fOucyZIk_fade{0%{stroke-opacity:1;}94.66666666666667%{stroke-opacity:1;}100%{stroke-opacity:0;}}@keyframes fOucyZIk_draw_0{4%{stroke-dashoffset: 4128}84%{ stroke-dashoffset: 0;}100%{ stroke-dashoffset: 0;}}</style></svg>
