<svg id="svg" version="1.1" width="400" height="400" xmlns="http://www.w3.org/2000/svg" xmlns:xlink="http://www.w3.org/1999/xlink" style=""><g id="svgg"><path id="path0" d="M183.810 0.429 C 132.243 6.892,92.377 51.737,86.123 110.317 L 85.835 113.016 139.425 113.016 L 193.016 113.016 193.016 56.508 L 193.016 0.000 189.365 0.095 C 187.357 0.147,184.857 0.298,183.810 0.429 M206.984 56.780 L 206.984 113.016 257.400 113.016 L 307.816 113.016 307.519 110.317 C 300.823 49.332,263.741 7.488,210.635 0.990 L 206.984 0.544 206.984 56.780 M274.249 47.593 C 284.186 54.669,275.142 70.475,263.981 65.538 C 253.480 60.893,257.206 45.052,268.613 45.849 C 271.010 46.016,272.822 46.577,274.249 47.593 M182.970 137.510 C 158.423 141.445,135.400 152.566,117.836 168.972 L 113.449 173.069 118.153 176.606 C 129.244 184.946,151.885 196.825,156.688 196.825 C 156.988 196.825,160.353 193.040,164.166 188.413 C 179.085 170.310,200.061 151.016,215.063 141.595 C 220.166 138.391,220.739 137.859,219.508 137.463 C 216.483 136.491,189.109 136.525,182.970 137.510 M227.619 144.983 C 211.282 152.900,191.469 169.701,172.857 191.421 C 165.065 200.514,165.182 199.576,171.587 201.601 C 199.019 210.275,244.010 217.743,284.127 220.283 C 290.063 220.659,296.496 221.094,298.421 221.251 C 301.896 221.534,301.931 221.519,303.183 219.234 C 305.657 214.720,307.703 214.818,310.365 219.582 C 311.785 222.122,311.960 222.222,314.968 222.222 C 318.685 222.222,318.619 222.692,315.918 215.440 C 303.553 182.236,274.670 153.876,242.061 142.921 C 236.464 141.041,235.459 141.184,227.619 144.983 M103.399 184.936 C 82.269 213.246,74.338 248.671,81.336 283.492 C 82.647 290.013,87.452 305.407,88.170 305.383 C 88.391 305.376,90.681 301.305,93.259 296.336 C 107.273 269.330,126.336 238.521,144.214 213.985 C 147.642 209.280,150.239 205.234,149.985 204.994 C 149.732 204.754,146.949 203.569,143.801 202.361 C 133.008 198.219,121.137 191.687,111.729 184.711 C 105.691 180.235,106.934 180.201,103.399 184.936 M152.586 216.984 C 132.679 244.340,116.078 271.298,100.182 302.083 C 92.138 317.660,92.284 315.909,98.268 325.079 C 113.866 348.987,136.223 366.252,162.784 374.903 C 175.522 379.051,174.358 379.098,174.837 374.419 C 179.244 331.408,228.372 292.377,294.190 279.598 L 299.809 278.507 299.399 275.944 C 297.342 263.079,297.340 248.285,299.393 233.175 L 299.846 229.841 295.161 229.835 C 261.276 229.790,200.887 220.643,167.344 210.476 C 163.313 209.254,159.772 208.254,159.477 208.254 C 159.181 208.254,156.080 212.183,152.586 216.984 M314.708 236.032 C 315.379 242.259,315.399 266.189,314.738 272.063 L 314.238 276.508 318.079 276.292 C 321.226 276.116,322.061 275.829,322.693 274.705 C 323.973 272.430,323.723 246.820,322.347 239.365 C 320.731 230.608,321.035 231.111,317.363 231.111 L 314.177 231.111 314.708 236.032 M316.190 285.511 C 312.159 285.926,311.256 286.319,310.878 287.828 C 309.458 293.485,303.941 293.727,302.103 288.213 C 301.789 287.271,293.812 288.723,280.704 292.109 C 227.786 305.777,191.805 337.832,187.391 375.238 C 186.684 381.234,185.015 380.636,202.435 380.630 C 246.583 380.616,284.703 358.822,307.095 320.795 C 314.780 307.743,322.757 284.885,319.524 285.181 C 318.913 285.237,317.413 285.385,316.190 285.511 " stroke="#000000" fill="none" stroke-width="3" class="NwSTBqeP_0"></path></g><style data-made-with="vivus-instant">.NwSTBqeP_0{stroke-dasharray:2818 2820;stroke-dashoffset:2819;animation:NwSTBqeP_draw_0 4500ms linear 0ms infinite,NwSTBqeP_fade 4500ms linear 0ms infinite;}@keyframes NwSTBqeP_draw{100%{stroke-dashoffset:0;}}@keyframes NwSTBqeP_fade{0%{stroke-opacity:1;}91.11111111111111%{stroke-opacity:1;}100%{stroke-opacity:0;}}@keyframes NwSTBqeP_draw_0{6.666666666666667%{stroke-dashoffset: 2819}73.33333333333333%{ stroke-dashoffset: 0;}100%{ stroke-dashoffset: 0;}}</style></svg>
