<svg id="svg" version="1.1" width="400" height="400" xmlns="http://www.w3.org/2000/svg" xmlns:xlink="http://www.w3.org/1999/xlink" style=""><g id="svgg"><path id="path0" d="M104.485 88.895 C 61.075 108.249,25.558 124.226,25.558 124.402 C 25.561 124.921,138.378 176.380,139.908 176.560 C 140.678 176.651,151.212 172.176,163.317 166.616 L 185.327 156.507 185.490 105.048 C 185.645 56.317,185.594 53.592,184.533 53.648 C 183.917 53.681,147.895 69.542,104.485 88.895 M209.895 105.057 L 209.901 156.619 232.005 166.722 C 245.317 172.807,254.639 176.719,255.443 176.559 C 257.117 176.227,369.362 124.837,369.366 124.402 C 369.370 124.050,212.379 54.032,210.844 53.701 C 210.001 53.519,209.889 59.580,209.895 105.057 M10.363 185.971 L 10.526 238.760 97.608 277.561 L 184.689 316.362 184.852 264.915 C 184.942 236.620,184.799 213.259,184.533 213.004 C 183.973 212.463,12.992 133.992,11.320 133.507 C 10.257 133.199,10.208 135.888,10.363 185.971 M296.970 173.147 L 210.207 212.930 210.044 264.733 C 209.948 295.165,210.117 316.448,210.454 316.322 C 210.769 316.205,250.244 298.630,298.177 277.267 L 385.327 238.425 385.327 185.879 C 385.327 144.260,385.161 133.336,384.530 133.348 C 384.091 133.357,344.689 151.266,296.970 173.147 " stroke="#000000" fill="none" stroke-width="3" class="JRsVGtez_0"></path></g><style data-made-with="vivus-instant">.JRsVGtez_0{stroke-dasharray:2087 2089;stroke-dashoffset:2088;animation:JRsVGtez_draw_0 4500ms linear 0ms infinite,JRsVGtez_fade 4500ms linear 0ms infinite;}@keyframes JRsVGtez_draw{100%{stroke-dashoffset:0;}}@keyframes JRsVGtez_fade{0%{stroke-opacity:1;}91.11111111111111%{stroke-opacity:1;}100%{stroke-opacity:0;}}@keyframes JRsVGtez_draw_0{6.666666666666667%{stroke-dashoffset: 2088}73.33333333333333%{ stroke-dashoffset: 0;}100%{ stroke-dashoffset: 0;}}</style></svg>
