<svg id="svg" version="1.1" width="400" height="400" xmlns="http://www.w3.org/2000/svg" xmlns:xlink="http://www.w3.org/1999/xlink" style=""><g id="svgg"><path id="path0" d="M187.960 28.428 L 187.960 56.856 219.732 56.856 L 251.505 56.856 251.505 28.428 L 251.505 0.000 219.732 0.000 L 187.960 0.000 187.960 28.428 M180.602 89.298 L 180.602 109.030 156.856 109.030 L 133.110 109.030 133.110 147.492 L 133.110 185.953 160.535 185.953 L 187.960 185.953 187.960 184.281 C 187.960 182.773,188.226 182.609,190.664 182.609 C 216.079 182.609,244.312 159.099,251.601 131.866 C 253.056 126.431,253.062 126.421,255.292 126.421 L 257.525 126.421 257.525 97.993 L 257.525 69.565 219.064 69.565 L 180.602 69.565 180.602 89.298 M111.745 116.469 C 81.355 119.990,55.793 145.060,51.560 175.494 C 51.162 178.357,50.836 189.256,50.836 199.714 L 50.836 218.729 82.609 218.729 L 114.381 218.729 114.381 201.094 C 114.381 181.710,114.586 180.698,118.719 179.661 L 120.401 179.239 120.401 147.479 L 120.401 115.719 118.562 115.806 C 117.550 115.854,114.482 116.152,111.745 116.469 M44.147 260.535 L 44.147 288.963 46.463 288.963 C 48.628 288.963,48.824 289.147,49.495 291.806 C 55.877 317.107,75.310 336.887,99.900 343.111 C 104.653 344.314,104.684 344.336,104.890 346.743 L 105.097 349.164 133.820 349.164 L 162.542 349.164 162.542 310.368 L 162.542 271.572 141.806 271.572 L 121.070 271.572 121.070 251.839 L 121.070 232.107 82.609 232.107 L 44.147 232.107 44.147 260.535 M218.879 247.324 L 219.064 257.860 235.284 258.039 L 251.505 258.218 251.505 264.895 L 251.505 271.572 232.107 271.572 L 212.709 271.572 212.709 275.251 L 212.709 278.930 193.980 278.930 L 175.251 278.930 175.251 310.368 L 175.251 341.806 193.980 341.806 L 212.709 341.806 212.709 345.485 L 212.709 349.164 263.880 349.164 L 315.050 349.164 315.050 345.485 L 315.050 341.806 333.445 341.806 L 351.839 341.806 351.839 310.368 L 351.839 278.930 333.445 278.930 L 315.050 278.930 315.050 275.251 L 315.050 271.572 295.318 271.572 L 275.585 271.572 275.585 264.883 L 275.585 258.194 291.973 258.194 L 308.361 258.194 308.361 247.492 L 308.361 236.789 263.528 236.789 L 218.695 236.789 218.879 247.324 M323.413 352.206 C 304.080 383.225,304.822 400.442,325.525 401.227 C 348.793 402.110,350.551 383.657,330.215 352.007 C 326.453 346.152,327.200 346.130,323.413 352.206 " stroke="#000000" fill="none" stroke-width="3" class="uPHPHlEJ_0"></path></g><style data-made-with="vivus-instant">.uPHPHlEJ_0{stroke-dasharray:2295 2297;stroke-dashoffset:2296;animation:uPHPHlEJ_draw_0 4500ms linear 0ms infinite,uPHPHlEJ_fade 4500ms linear 0ms infinite;}@keyframes uPHPHlEJ_draw{100%{stroke-dashoffset:0;}}@keyframes uPHPHlEJ_fade{0%{stroke-opacity:1;}91.11111111111111%{stroke-opacity:1;}100%{stroke-opacity:0;}}@keyframes uPHPHlEJ_draw_0{6.666666666666667%{stroke-dashoffset: 2296}73.33333333333333%{ stroke-dashoffset: 0;}100%{ stroke-dashoffset: 0;}}</style></svg>
