<svg id="svg" version="1.1" width="400" height="400" xmlns="http://www.w3.org/2000/svg" xmlns:xlink="http://www.w3.org/1999/xlink" style=""><g id="svgg"><path id="path0" d="M186.263 15.231 C 170.470 20.372,158.096 35.024,157.036 49.839 L 156.623 55.602 140.967 55.602 L 125.311 55.602 125.311 71.369 L 125.311 87.137 198.340 87.137 L 271.369 87.137 271.369 71.369 L 271.369 55.602 255.602 55.602 L 239.834 55.602 239.824 52.075 C 239.756 27.734,210.235 7.427,186.263 15.231 M43.293 57.762 C 38.696 60.053,35.715 63.298,33.636 68.275 C 32.511 70.968,32.365 88.604,32.365 222.209 L 32.365 373.102 35.062 377.600 C 36.880 380.631,39.092 382.920,41.844 384.618 L 45.928 387.137 198.340 387.137 L 350.753 387.137 354.815 384.625 C 357.333 383.069,359.832 380.569,361.389 378.051 L 363.900 373.989 363.900 221.577 L 363.900 69.164 361.381 65.080 C 359.683 62.328,357.394 60.116,354.364 58.299 L 349.866 55.602 325.970 55.602 L 302.075 55.602 302.075 86.722 L 302.075 117.842 198.340 117.842 L 94.606 117.842 94.606 86.722 L 94.606 55.602 71.117 55.602 L 47.629 55.602 43.293 57.762 M177.593 200.830 L 177.593 242.324 136.100 242.324 L 94.606 242.324 94.606 200.830 L 94.606 159.336 136.100 159.336 L 177.593 159.336 177.593 200.830 M115.353 200.830 L 115.353 221.577 136.100 221.577 L 156.846 221.577 156.846 200.830 L 156.846 180.083 136.100 180.083 L 115.353 180.083 115.353 200.830 M302.075 200.830 L 302.075 221.577 260.581 221.577 L 219.087 221.577 219.087 200.830 L 219.087 180.083 260.581 180.083 L 302.075 180.083 302.075 200.830 M150.837 282.773 L 165.575 268.052 172.413 274.890 L 179.251 281.728 164.530 296.466 L 149.810 311.203 164.530 325.941 L 179.251 340.679 172.413 347.517 L 165.575 354.355 150.837 339.634 L 136.100 324.914 121.362 339.634 L 106.624 354.355 99.786 347.517 L 92.948 340.679 107.669 325.941 L 122.389 311.203 107.669 296.466 L 92.948 281.728 99.786 274.890 L 106.624 268.052 121.362 282.773 L 136.100 297.493 150.837 282.773 M302.075 304.564 L 302.075 325.311 260.581 325.311 L 219.087 325.311 219.087 304.564 L 219.087 283.817 260.581 283.817 L 302.075 283.817 302.075 304.564 " stroke="#000000" fill="none" stroke-width="3" class="YHzQLqpl_0"></path></g><style data-made-with="vivus-instant">.YHzQLqpl_0{stroke-dasharray:3230 3232;stroke-dashoffset:3231;animation:YHzQLqpl_draw_0 4500ms linear 0ms infinite,YHzQLqpl_fade 4500ms linear 0ms infinite;}@keyframes YHzQLqpl_draw{100%{stroke-dashoffset:0;}}@keyframes YHzQLqpl_fade{0%{stroke-opacity:1;}91.11111111111111%{stroke-opacity:1;}100%{stroke-opacity:0;}}@keyframes YHzQLqpl_draw_0{6.666666666666667%{stroke-dashoffset: 3231}73.33333333333333%{ stroke-dashoffset: 0;}100%{ stroke-dashoffset: 0;}}</style></svg>
