<svg id="svg" version="1.1" width="400" height="400" xmlns="http://www.w3.org/2000/svg" xmlns:xlink="http://www.w3.org/1999/xlink" style=""><g id="svgg"><path id="path0" d="M195.474 61.420 C 189.529 64.115,188.859 67.137,189.126 90.034 C 189.409 114.219,190.403 116.495,200.687 116.495 C 211.164 116.495,212.027 114.376,212.027 88.660 C 212.027 66.299,211.920 65.686,207.398 62.316 C 205.017 60.541,198.495 60.051,195.474 61.420 M133.803 87.594 C 127.136 89.971,124.434 97.170,127.781 103.636 C 129.467 106.892,154.348 131.627,156.918 132.600 C 164.708 135.552,172.509 130.495,172.509 122.493 C 172.509 116.934,171.017 114.870,156.933 100.937 C 141.977 86.140,140.412 85.237,133.803 87.594 M259.107 87.358 C 257.025 88.172,231.240 113.671,229.851 116.289 C 225.239 124.981,233.850 135.586,243.113 132.619 C 246.245 131.617,272.436 106.127,273.959 102.599 C 278.098 93.015,268.864 83.539,259.107 87.358 M13.014 151.718 C 4.094 156.241,4.005 156.826,4.261 208.761 C 4.491 255.339,4.253 253.063,9.387 257.825 C 13.994 262.098,8.343 261.821,92.206 261.888 L 168.729 261.948 187.170 246.631 C 213.522 224.743,213.721 227.831,184.765 209.296 C 159.730 193.272,160.233 194.666,175.004 182.230 C 184.234 174.458,185.468 172.771,184.257 169.586 C 183.598 167.854,171.934 153.089,169.598 151.031 C 168.315 149.901,163.647 149.828,92.487 149.828 L 16.741 149.828 13.014 151.718 M217.495 151.515 C 214.546 154.464,215.120 157.743,219.584 163.448 C 226.460 172.236,226.384 172.558,215.206 182.029 C 205.887 189.927,204.807 191.186,204.822 194.139 C 204.838 197.380,204.930 197.454,225.895 210.998 C 252.365 228.100,251.853 226.080,233.546 241.181 C 220.069 252.299,218.292 254.390,219.297 257.954 C 220.698 262.926,213.717 262.543,302.997 262.539 C 391.602 262.535,386.759 262.791,391.706 257.844 C 396.777 252.773,396.645 254.264,396.419 204.413 L 396.220 160.372 394.147 157.021 C 392.639 154.581,391.075 153.147,388.399 151.749 L 384.723 149.828 301.952 149.828 L 219.182 149.828 217.495 151.515 M156.014 280.384 C 151.354 282.873,127.334 307.931,126.781 310.879 C 124.940 320.690,132.403 327.969,141.329 325.069 C 144.451 324.055,169.676 299.575,171.449 295.839 C 176.260 285.700,165.754 275.180,156.014 280.384 M234.550 280.388 C 229.130 282.848,227.106 290.111,230.180 296.075 C 232.297 300.184,256.858 324.032,260.036 325.065 C 269.596 328.174,278.307 318.064,273.815 309.072 C 272.296 306.032,248.352 281.996,245.216 280.364 C 241.996 278.689,238.274 278.697,234.550 280.388 M195.474 296.472 C 189.529 299.166,188.859 302.188,189.126 325.086 C 189.409 349.270,190.403 351.546,200.687 351.546 C 211.164 351.546,212.027 349.428,212.027 323.711 C 212.027 301.351,211.920 300.738,207.398 297.367 C 205.017 295.592,198.495 295.103,195.474 296.472 " stroke="#000000" fill="none" stroke-width="3" class="WdwQaXnx_0"></path></g><style data-made-with="vivus-instant">.WdwQaXnx_0{stroke-dasharray:2034 2036;stroke-dashoffset:2035;animation:WdwQaXnx_draw_0 12500ms linear 0ms infinite,WdwQaXnx_fade 12500ms linear 0ms infinite;}@keyframes WdwQaXnx_draw{100%{stroke-dashoffset:0;}}@keyframes WdwQaXnx_fade{0%{stroke-opacity:1;}96.8%{stroke-opacity:1;}100%{stroke-opacity:0;}}@keyframes WdwQaXnx_draw_0{2.4%{stroke-dashoffset: 2035}26.400000000000002%{ stroke-dashoffset: 0;}100%{ stroke-dashoffset: 0;}}</style></svg>
