<svg id="svg" version="1.1" width="400" height="400" xmlns="http://www.w3.org/2000/svg" xmlns:xlink="http://www.w3.org/1999/xlink" style=""><g id="svgg"><path id="path0" d="M39.401 66.872 C 36.801 68.653,36.426 70.157,36.426 78.794 C 36.426 84.095,36.734 86.007,38.144 89.479 C 39.089 91.805,39.863 93.809,39.863 93.933 C 39.863 94.847,36.623 93.642,31.147 90.690 C 23.413 86.520,23.368 86.539,23.368 93.879 L 23.368 99.704 29.053 106.895 C 36.586 116.422,40.159 126.691,45.065 152.921 L 48.279 170.103 53.314 178.776 C 57.414 185.837,58.679 188.747,60.122 194.439 L 61.894 201.431 82.202 229.243 L 102.509 257.056 111.736 281.876 C 121.967 309.398,121.351 306.454,120.516 323.859 L 120.070 333.158 115.829 335.752 C 111.531 338.380,107.107 344.547,108.224 346.353 C 108.742 347.193,137.193 347.396,137.673 346.564 C 137.837 346.280,137.393 342.027,136.688 337.113 C 135.542 329.135,135.489 326.965,136.195 316.838 C 136.873 307.102,136.824 304.176,135.846 296.149 C 135.220 291.006,134.506 282.145,134.259 276.456 L 133.812 266.113 136.769 259.186 C 139.361 253.117,139.906 252.302,141.169 252.604 C 141.963 252.793,149.324 254.164,157.529 255.650 L 172.446 258.352 194.642 253.592 C 206.850 250.974,217.457 248.683,218.214 248.501 C 219.343 248.229,221.496 250.749,230.241 262.581 L 240.893 276.992 251.981 284.528 L 263.068 292.065 269.355 303.778 L 275.641 315.490 273.731 324.452 L 271.821 333.413 267.217 336.259 C 262.579 339.126,258.716 344.902,260.347 346.532 C 260.665 346.851,266.470 347.027,273.247 346.924 L 285.567 346.735 285.974 339.175 C 286.308 332.978,286.899 329.943,289.254 322.340 L 292.128 313.065 290.791 308.594 C 290.056 306.135,289.108 300.190,288.684 295.381 C 288.051 288.199,287.183 284.109,283.819 272.463 C 281.568 264.667,279.725 257.820,279.725 257.247 C 279.725 256.470,284.733 248.839,287.029 246.118 C 287.156 245.968,291.619 250.086,296.948 255.270 L 306.637 264.694 318.783 270.550 L 330.928 276.405 349.600 279.010 L 368.272 281.615 379.620 287.543 C 390.250 293.096,393.127 294.243,393.127 292.929 C 393.127 292.630,389.919 285.187,385.998 276.387 L 378.870 260.388 365.997 250.185 L 353.123 239.983 330.208 232.176 L 307.293 224.368 298.796 216.480 C 291.425 209.636,289.408 207.253,283.562 198.488 L 276.824 188.385 266.763 184.478 C 261.229 182.329,254.072 179.516,250.859 178.228 L 245.017 175.885 215.464 173.559 L 185.911 171.233 166.667 166.991 L 147.423 162.749 138.144 157.730 C 130.039 153.345,99.961 130.490,99.702 128.519 C 99.677 128.328,103.754 127.118,108.763 125.830 C 128.749 120.691,128.802 121.511,107.912 112.569 C 91.908 105.718,91.703 105.604,84.058 99.274 C 76.743 93.218,76.142 92.867,72.366 92.453 C 66.353 91.793,66.327 91.773,54.299 78.074 C 42.244 64.344,42.647 64.647,39.401 66.872 M77.320 106.641 L 79.381 108.684 76.632 108.204 C 73.601 107.675,72.446 106.964,71.380 104.971 C 70.242 102.847,74.776 104.121,77.320 106.641 " stroke="#000000" fill="none" stroke-width="3" class="BCakjOeF_0"></path></g><style data-made-with="vivus-instant">.BCakjOeF_0{stroke-dasharray:1422 1424;stroke-dashoffset:1423;animation:BCakjOeF_draw_0 4500ms linear 0ms infinite,BCakjOeF_fade 4500ms linear 0ms infinite;}@keyframes BCakjOeF_draw{100%{stroke-dashoffset:0;}}@keyframes BCakjOeF_fade{0%{stroke-opacity:1;}91.11111111111111%{stroke-opacity:1;}100%{stroke-opacity:0;}}@keyframes BCakjOeF_draw_0{6.666666666666667%{stroke-dashoffset: 1423}73.33333333333333%{ stroke-dashoffset: 0;}100%{ stroke-dashoffset: 0;}}</style></svg>
