<svg id="svg" version="1.1" width="400" height="400" xmlns="http://www.w3.org/2000/svg" xmlns:xlink="http://www.w3.org/1999/xlink" class="" style=""><g id="svgg"><path id="path0" d="M297.778 13.477 C 286.581 28.294,285.511 29.285,278.730 31.111 C 270.354 33.367,263.447 40.110,257.596 51.746 C 255.155 56.601,252.690 58.705,238.229 68.282 C 230.790 73.208,230.574 73.789,235.246 76.317 C 241.087 79.478,250.413 79.788,258.809 77.100 C 259.729 76.806,259.639 77.041,258.413 78.135 C 256.254 80.059,251.234 82.264,246.843 83.216 C 243.413 83.960,242.973 84.284,239.009 88.981 C 230.461 99.110,221.603 105.437,204.794 113.420 C 202.037 114.729,200.045 115.885,200.367 115.988 C 200.689 116.091,202.875 116.393,205.226 116.659 L 209.499 117.143 205.543 120.312 C 199.989 124.761,193.907 128.029,157.143 146.316 C 113.266 168.142,96.310 177.884,88.624 185.685 C 73.168 201.370,64.039 231.206,63.067 269.206 L 62.701 283.492 64.700 281.612 C 67.480 278.997,72.458 271.352,76.340 263.735 L 79.614 257.312 78.526 251.658 C 76.402 240.619,75.441 226.570,76.754 225.758 C 77.064 225.567,77.515 226.720,77.755 228.321 C 78.591 233.900,81.989 244.799,84.544 250.100 C 86.598 254.361,87.045 255.900,86.760 257.720 C 85.896 263.234,75.552 281.274,65.436 294.912 L 61.097 300.761 60.083 308.137 C 56.970 330.783,57.695 370.079,61.330 375.714 C 62.731 377.886,91.880 377.961,94.042 375.799 C 98.453 371.388,93.320 364.619,83.492 361.884 L 79.683 360.824 79.500 351.999 C 79.021 328.803,86.521 317.942,121.014 291.883 C 136.749 279.996,144.991 269.309,163.922 236.242 C 167.004 230.858,169.639 226.340,169.777 226.202 C 169.915 226.064,168.048 231.297,165.627 237.832 C 160.411 251.916,160.401 251.679,166.034 247.569 C 175.702 240.516,186.443 234.545,199.048 229.217 C 202.540 227.741,209.800 224.418,215.182 221.834 C 220.563 219.250,225.042 217.211,225.135 217.304 C 225.502 217.671,228.603 243.807,230.201 260.000 C 232.051 278.748,232.285 287.653,231.140 295.798 C 230.320 301.636,230.578 304.487,232.427 310.003 C 233.100 312.012,233.651 314.053,233.651 314.539 C 233.651 319.678,238.788 328.831,242.731 330.717 C 246.916 332.719,264.514 332.962,267.095 331.054 C 273.089 326.621,269.580 319.444,259.932 316.403 C 252.325 314.005,250.877 309.161,253.320 294.286 C 254.095 289.564,254.937 279.062,255.533 266.667 C 256.874 238.771,257.716 228.503,259.436 219.049 C 261.147 209.643,261.890 208.519,271.847 200.278 C 282.084 191.806,283.596 189.908,293.319 173.329 C 301.443 159.478,303.304 155.642,306.996 145.145 C 309.651 137.595,309.652 137.592,310.390 139.708 C 312.574 145.972,315.257 130.884,314.231 118.114 C 312.372 94.986,319.207 65.754,329.634 52.238 C 332.662 48.313,333.296 44.983,332.105 39.249 C 330.897 33.430,330.365 33.118,326.644 36.050 C 316.007 44.431,314.306 43.980,317.849 33.720 C 322.508 20.226,319.372 8.584,310.020 4.666 C 305.873 2.928,305.602 3.123,297.778 13.477 M284.444 37.523 C 284.444 39.946,282.787 43.579,281.447 44.093 C 280.074 44.620,280.059 44.557,280.672 40.725 C 281.405 36.134,284.444 33.555,284.444 37.523 M276.265 204.706 C 265.778 213.624,265.633 213.846,264.435 222.923 C 260.316 254.111,259.143 283.684,261.276 302.540 C 261.789 307.079,262.212 311.102,262.216 311.479 C 262.219 311.856,263.683 312.848,265.468 313.684 C 271.108 316.326,274.134 320.689,275.241 327.778 L 275.613 330.159 283.453 330.159 C 292.232 330.159,292.063 330.252,292.063 325.394 C 292.063 320.530,287.358 316.446,282.628 317.202 L 280.150 317.599 278.502 312.609 C 277.595 309.864,276.094 304.476,275.167 300.635 L 273.482 293.651 273.869 268.571 C 274.446 231.108,274.871 227.727,280.995 211.883 C 283.985 204.144,285.853 197.436,285.007 197.470 C 284.872 197.475,280.938 200.731,276.265 204.706 M98.907 317.302 C 92.913 323.114,89.157 328.170,86.107 334.536 L 83.883 339.177 85.358 342.445 C 89.230 351.020,91.647 355.586,92.067 355.118 C 92.321 354.835,93.340 349.532,94.332 343.333 C 96.244 331.387,96.388 331.102,99.176 333.774 C 101.636 336.130,101.835 335.693,103.435 324.444 C 104.204 319.032,104.980 314.103,105.158 313.492 C 105.797 311.303,103.902 312.458,98.907 317.302 " stroke="#000000" fill="none" stroke-width="3" class="ZFmVvMPW_0"></path></g><style data-made-with="vivus-instant">.ZFmVvMPW_0{stroke-dasharray:1972 1974;stroke-dashoffset:1973;}.start .ZFmVvMPW_0{animation:ZFmVvMPW_draw_0 4500ms linear 0ms infinite,ZFmVvMPW_fade 4500ms linear 0ms infinite;}@keyframes ZFmVvMPW_draw{100%{stroke-dashoffset:0;}}@keyframes ZFmVvMPW_fade{0%{stroke-opacity:1;}91.11111111111111%{stroke-opacity:1;}100%{stroke-opacity:0;}}@keyframes ZFmVvMPW_draw_0{6.666666666666667%{stroke-dashoffset: 1973}73.33333333333333%{ stroke-dashoffset: 0;}100%{ stroke-dashoffset: 0;}}</style></svg>
