<svg id="svg" version="1.1" width="614" height="609" xmlns="http://www.w3.org/2000/svg" xmlns:xlink="http://www.w3.org/1999/xlink" style=""><g id="svgg"><path id="path0" d="M222.223 120.899 C 207.961 124.735,197.445 138.315,197.404 152.950 L 197.394 156.388 192.997 155.951 C 188.626 155.516,188.569 155.484,183.633 150.792 C 176.632 144.139,170.036 143.065,162.786 147.401 C 160.651 148.677,90.040 214.928,80.936 224.197 C 65.801 239.605,70.511 267.308,89.822 276.457 L 94.137 278.502 139.251 278.682 L 184.365 278.862 184.365 322.514 C 184.365 370.640,184.211 368.742,188.469 373.184 C 195.862 380.896,210.426 379.874,215.791 371.266 C 218.870 366.326,218.957 364.495,218.755 308.997 L 218.567 257.003 217.015 253.850 C 212.793 245.275,210.290 244.750,172.206 244.455 L 140.829 244.211 155.919 229.825 C 164.219 221.912,175.920 211.212,181.922 206.047 C 192.139 197.253,197.141 192.086,199.809 187.569 C 201.196 185.222,209.124 184.495,208.108 186.808 C 206.114 191.345,207.985 196.185,212.181 197.351 C 215.833 198.365,279.073 198.223,282.067 197.195 C 286.107 195.806,294.236 182.208,310.668 149.353 C 321.712 127.268,322.111 125.919,318.617 122.425 C 316.132 119.940,311.690 119.733,309.207 121.987 C 308.319 122.793,302.550 132.906,296.385 144.461 L 285.178 165.469 282.642 162.588 C 279.623 159.159,276.480 157.883,269.663 157.321 L 264.734 156.914 265.003 155.083 C 268.023 134.504,243.752 115.110,222.223 120.899 " stroke="#000000" fill="none" stroke-width="3" class="VZPwxKiG_0"></path></g><style data-made-with="vivus-instant">.VZPwxKiG_0{stroke-dasharray:1088 1090;stroke-dashoffset:1089;animation:VZPwxKiG_draw_0 4500ms linear 0ms infinite,VZPwxKiG_fade 4500ms linear 0ms infinite;}@keyframes VZPwxKiG_draw{100%{stroke-dashoffset:0;}}@keyframes VZPwxKiG_fade{0%{stroke-opacity:1;}91.11111111111111%{stroke-opacity:1;}100%{stroke-opacity:0;}}@keyframes VZPwxKiG_draw_0{6.666666666666667%{stroke-dashoffset: 1089}73.33333333333333%{ stroke-dashoffset: 0;}100%{ stroke-dashoffset: 0;}}</style></svg>
