<svg id="svg" version="1.1" width="400" height="400" xmlns="http://www.w3.org/2000/svg" xmlns:xlink="http://www.w3.org/1999/xlink" class="" style=""><g id="svgg"><path id="path0" d="M56.190 8.655 C 28.158 12.988,12.167 43.592,24.718 68.889 C 44.408 108.574,104.183 94.732,104.118 50.502 C 104.079 24.610,81.352 4.766,56.190 8.655 M71.746 15.663 C 98.669 23.057,107.200 56.019,87.343 75.926 C 65.123 98.201,26.631 82.307,26.479 50.794 C 26.363 26.855,48.878 9.382,71.746 15.663 M173.333 76.825 L 173.333 135.238 186.667 135.238 L 200.000 135.238 200.000 133.016 L 200.000 130.794 188.889 130.794 L 177.778 130.794 177.778 76.825 L 177.778 22.857 282.222 22.857 L 386.667 22.857 386.667 76.825 L 386.667 130.794 306.349 130.794 L 226.032 130.794 226.032 133.016 L 226.032 135.238 308.571 135.238 L 391.111 135.238 391.111 76.825 L 391.111 18.413 282.222 18.413 L 173.333 18.413 173.333 76.825 M60.962 37.937 C 60.967 46.929,61.182 54.608,61.438 55.002 C 61.695 55.396,66.787 58.160,72.754 61.144 L 83.603 66.570 84.900 63.902 L 86.196 61.233 76.431 56.264 L 66.667 51.294 66.667 36.441 L 66.667 21.587 63.810 21.587 L 60.952 21.587 60.962 37.937 M181.587 76.825 L 181.587 127.619 190.794 127.619 L 200.000 127.619 200.000 120.952 L 200.000 114.286 213.016 114.286 L 226.032 114.286 226.032 120.952 L 226.032 127.619 253.333 127.619 L 280.635 127.619 280.635 76.825 L 280.635 26.032 231.111 26.032 L 181.587 26.032 181.587 76.825 M283.810 76.825 L 283.810 127.619 333.651 127.619 L 383.492 127.619 383.492 76.825 L 383.492 26.032 333.651 26.032 L 283.810 26.032 283.810 76.825 M310.747 42.903 C 305.020 53.890,311.446 66.721,323.492 68.354 L 326.667 68.784 323.492 70.257 C 304.094 79.256,290.143 50.207,309.117 40.324 C 313.184 38.206,313.190 38.215,310.747 42.903 M230.476 72.698 C 215.050 88.129,207.125 95.633,206.702 95.210 C 206.278 94.786,213.780 86.859,229.206 71.429 C 244.633 55.998,252.558 48.494,252.981 48.917 C 253.404 49.341,245.903 57.268,230.476 72.698 M231.746 59.534 C 231.746 60.452,217.398 74.329,216.931 73.862 C 216.465 73.396,230.342 59.048,231.259 59.048 C 231.527 59.048,231.746 59.267,231.746 59.534 M367.619 66.511 C 367.619 67.440,321.525 113.059,321.058 112.593 C 320.591 112.126,366.211 66.032,367.140 66.032 C 367.403 66.032,367.619 66.247,367.619 66.511 M117.331 69.048 C 112.278 74.440,111.162 81.673,114.268 88.905 C 116.874 94.974,116.960 98.413,114.616 102.722 C 112.768 106.117,112.700 108.115,114.420 108.446 C 118.594 109.250,120.669 95.215,117.534 87.385 C 114.808 80.577,115.387 76.763,120.011 71.080 C 122.608 67.888,120.159 66.030,117.331 69.048 M130.798 70.152 C 126.456 76.463,125.927 81.749,128.889 89.206 C 131.346 95.392,131.352 98.492,128.915 103.126 C 126.954 106.853,126.953 108.571,128.910 108.571 C 132.659 108.571,135.148 95.839,132.696 89.206 C 129.401 80.294,129.450 78.049,133.042 73.342 C 135.532 70.080,135.972 67.302,133.999 67.302 C 133.245 67.302,131.991 68.418,130.798 70.152 M145.848 69.330 C 141.117 75.649,140.312 82.277,143.416 89.351 C 146.122 95.515,145.927 99.676,142.717 104.285 C 141.328 106.280,141.715 108.762,143.365 108.444 C 148.131 107.527,149.833 95.435,146.389 86.961 C 143.843 80.695,144.293 77.339,148.400 71.935 C 149.250 70.817,149.848 69.391,149.728 68.768 C 149.356 66.840,147.513 67.107,145.848 69.330 M236.190 78.413 C 231.351 83.266,228.719 85.481,228.296 85.058 C 227.873 84.635,230.081 81.996,234.921 77.143 C 239.760 72.289,242.392 70.074,242.815 70.498 C 243.238 70.921,241.030 73.559,236.190 78.413 M346.032 76.677 C 346.032 77.595,331.683 91.472,331.217 91.005 C 330.750 90.539,344.627 76.190,345.545 76.190 C 345.813 76.190,346.032 76.409,346.032 76.677 M357.460 88.106 C 357.460 89.023,343.112 102.900,342.646 102.434 C 342.179 101.967,356.056 87.619,356.974 87.619 C 357.241 87.619,357.460 87.838,357.460 88.106 M124.796 120.040 C 108.322 122.796,97.001 140.652,101.290 157.116 C 109.090 187.064,151.862 187.064,159.663 157.116 C 165.184 135.919,146.790 116.360,124.796 120.040 M207.619 167.302 L 207.619 212.698 213.016 212.698 L 218.413 212.698 218.413 193.333 L 218.413 173.968 224.444 173.968 L 230.476 173.968 230.476 197.460 L 230.476 220.952 218.730 220.952 L 206.984 220.952 206.984 224.127 L 206.984 227.302 234.286 227.302 L 261.587 227.302 261.587 224.127 L 261.587 220.952 249.841 220.952 L 238.095 220.952 238.095 193.968 L 238.095 166.984 228.254 166.984 L 218.413 166.984 218.413 144.444 L 218.413 121.905 213.016 121.905 L 207.619 121.905 207.619 167.302 M77.751 163.385 C 65.412 166.538,57.657 175.680,52.349 193.333 C 42.266 226.871,43.269 263.829,54.587 275.796 C 63.815 285.554,74.642 286.033,107.937 278.155 C 119.635 275.387,129.300 273.216,129.415 273.331 C 129.530 273.446,127.030 285.453,123.860 300.013 C 117.676 328.413,117.268 331.761,119.416 336.508 C 125.267 349.433,144.441 349.534,150.050 336.670 C 151.462 333.432,168.889 252.889,168.889 249.601 L 168.889 246.984 215.238 246.984 L 261.587 246.984 261.587 309.524 L 261.587 372.063 268.889 372.063 L 276.190 372.063 276.190 309.524 L 276.190 246.984 286.349 246.984 L 296.508 246.984 296.508 240.000 L 296.508 233.016 217.937 232.996 L 139.365 232.977 122.704 236.965 C 107.229 240.669,106.043 241.051,106.038 242.338 C 106.034 243.105,105.536 243.872,104.921 244.055 C 103.428 244.499,95.256 246.349,94.787 246.349 C 94.582 246.349,94.587 243.909,94.797 240.926 L 95.180 235.502 82.545 216.199 C 67.534 193.265,67.702 193.567,67.681 189.507 C 67.625 178.832,80.258 172.740,88.349 179.541 C 89.481 180.492,92.809 184.940,95.746 189.426 C 101.744 198.590,101.914 198.633,102.985 191.287 C 105.746 172.344,93.911 159.257,77.751 163.385 M75.569 179.841 C 70.918 182.218,68.676 186.897,69.800 191.881 C 70.110 193.256,76.062 202.952,84.139 215.241 C 99.057 237.940,99.765 238.730,105.186 238.730 C 108.394 238.730,159.183 226.218,161.585 224.836 C 169.619 220.213,167.890 207.749,158.838 205.037 C 156.290 204.273,154.996 204.515,133.529 209.769 C 115.042 214.294,110.763 215.154,110.123 214.478 C 109.691 214.023,104.859 206.794,99.383 198.413 C 85.633 177.367,83.566 175.755,75.569 179.841 M14.756 196.822 C 9.190 200.216,9.250 197.737,13.252 259.121 C 17.137 318.706,14.085 312.593,40.095 312.895 L 57.016 313.091 57.373 315.117 C 57.569 316.231,57.921 319.618,58.154 322.642 L 58.578 328.142 54.845 328.546 C 33.486 330.858,17.143 339.280,17.143 347.975 C 17.143 350.657,16.946 351.025,14.762 352.433 C 5.952 358.113,10.406 372.671,20.952 372.671 C 30.691 372.671,35.502 360.582,28.536 353.615 C 25.373 350.452,25.309 348.703,28.263 346.109 C 33.454 341.551,47.655 337.156,57.228 337.145 L 59.535 337.143 59.952 341.429 C 60.182 343.786,60.528 346.889,60.720 348.325 C 61.049 350.777,60.935 351.018,58.834 352.317 C 49.055 358.361,55.497 374.591,66.825 372.450 C 75.844 370.745,78.935 360.638,72.587 353.611 C 70.147 350.911,70.107 350.392,71.527 339.841 C 71.962 336.609,72.773 336.487,82.587 338.169 C 98.715 340.933,110.124 348.734,103.528 352.487 C 96.995 356.204,97.882 367.944,104.953 371.368 C 117.436 377.410,127.784 359.325,115.867 352.293 C 113.755 351.047,113.651 350.819,113.651 347.430 C 113.651 338.827,97.822 330.792,76.483 328.561 L 72.648 328.160 73.430 320.747 C 73.860 316.669,74.228 313.279,74.249 313.213 C 74.269 313.147,81.786 313.004,90.952 312.896 C 110.080 312.669,110.876 312.472,113.492 307.311 C 116.034 302.297,114.614 296.729,110.075 293.908 L 107.619 292.381 71.930 292.202 L 36.240 292.023 35.921 289.980 C 35.745 288.856,34.443 269.365,33.028 246.667 C 31.613 223.968,30.306 204.477,30.123 203.352 C 29.105 197.090,20.390 193.387,14.756 196.822 M165.186 224.156 L 162.436 227.302 176.773 227.302 L 191.111 227.302 191.111 224.127 L 191.111 220.952 179.524 220.981 L 167.937 221.010 165.186 224.156 " stroke="#000000" fill="none" stroke-width="3" class="LarLtYgJ_0"></path></g><style data-made-with="vivus-instant">.LarLtYgJ_0{stroke-dasharray:6439 6441;stroke-dashoffset:6440;}.start .LarLtYgJ_0{animation:LarLtYgJ_draw_0 4500ms linear 0ms infinite,LarLtYgJ_fade 4500ms linear 0ms infinite;}@keyframes LarLtYgJ_draw{100%{stroke-dashoffset:0;}}@keyframes LarLtYgJ_fade{0%{stroke-opacity:1;}91.11111111111111%{stroke-opacity:1;}100%{stroke-opacity:0;}}@keyframes LarLtYgJ_draw_0{6.666666666666667%{stroke-dashoffset: 6440}73.33333333333333%{ stroke-dashoffset: 0;}100%{ stroke-dashoffset: 0;}}</style></svg>
