<svg id="svg" version="1.1" width="400" height="400" xmlns="http://www.w3.org/2000/svg" xmlns:xlink="http://www.w3.org/1999/xlink" style=""><g id="svgg"><path id="path0" d="M8.529 25.226 C 8.732 25.754,31.910 51.376,60.037 82.164 C 88.163 112.951,122.219 150.228,135.716 165.002 C 149.213 179.775,160.256 192.053,160.256 192.285 C 160.256 192.517,126.074 230.136,84.295 275.882 C 42.516 321.628,8.333 359.328,8.333 359.660 C 8.333 360.018,11.249 360.135,15.545 359.948 C 19.511 359.775,27.048 359.483,32.294 359.298 C 87.388 357.359,109.643 345.869,147.693 299.720 C 178.493 262.364,196.489 241.192,200.427 237.678 C 202.115 236.171,212.237 247.676,244.143 287.366 C 284.557 337.640,298.760 348.473,333.333 355.389 C 346.279 357.978,391.300 361.408,392.847 359.922 C 393.688 359.115,363.366 325.572,280.150 235.252 C 241.231 193.009,241.026 192.784,241.026 192.259 C 241.026 191.769,241.961 190.744,291.041 137.500 C 365.453 56.776,393.658 25.496,392.807 24.645 C 391.308 23.146,346.523 26.587,333.483 29.203 C 298.396 36.243,284.959 46.465,244.219 97.115 C 227.826 117.496,219.582 127.452,208.738 139.964 L 201.603 148.196 197.502 143.810 C 190.569 136.394,174.744 117.773,158.308 97.689 C 109.404 37.933,91.640 27.622,33.654 25.334 C 28.718 25.139,20.963 24.819,16.420 24.623 C 9.250 24.313,8.209 24.392,8.529 25.226 " stroke="#000000" fill="none" stroke-width="3" class="TAeMspfo_0"></path></g><style data-made-with="vivus-instant">.TAeMspfo_0{stroke-dasharray:1872 1874;stroke-dashoffset:1873;animation:TAeMspfo_draw_0 4500ms linear 0ms infinite,TAeMspfo_fade 4500ms linear 0ms infinite;}@keyframes TAeMspfo_draw{100%{stroke-dashoffset:0;}}@keyframes TAeMspfo_fade{0%{stroke-opacity:1;}91.11111111111111%{stroke-opacity:1;}100%{stroke-opacity:0;}}@keyframes TAeMspfo_draw_0{6.666666666666667%{stroke-dashoffset: 1873}73.33333333333333%{ stroke-dashoffset: 0;}100%{ stroke-dashoffset: 0;}}</style></svg>
