<svg id="svg" version="1.1" width="400" height="400" xmlns="http://www.w3.org/2000/svg" xmlns:xlink="http://www.w3.org/1999/xlink" class="" style=""><g id="svgg"><path id="path0" d="M142.334 33.695 C 132.619 35.607,123.756 44.256,122.225 53.318 C 121.983 54.747,121.435 55.873,120.980 55.873 C 119.522 55.873,118.753 63.932,120.159 64.471 C 120.742 64.695,120.952 67.170,120.952 73.817 C 120.952 105.783,157.824 113.562,169.182 83.992 C 171.939 76.815,171.948 76.391,169.365 75.691 C 168.230 75.384,161.961 73.735,155.433 72.027 C 148.906 70.319,143.653 68.834,143.760 68.727 C 143.866 68.620,151.752 69.699,161.282 71.125 C 181.389 74.131,181.626 74.132,182.380 71.201 C 183.014 68.740,182.064 67.281,179.002 66.013 C 177.372 65.338,177.142 64.920,177.139 62.621 C 177.112 43.148,161.257 29.971,142.334 33.695 M151.974 40.656 C 159.069 43.311,164.036 49.877,164.852 57.682 C 165.369 62.624,162.371 63.097,161.635 58.189 C 159.481 43.829,140.458 37.894,130.024 48.328 C 128.337 50.015,127.296 50.759,127.709 49.983 C 132.338 41.286,142.855 37.244,151.974 40.656 M302.857 78.753 C 284.873 80.777,259.659 83.526,246.825 84.861 L 223.492 87.289 223.492 121.423 L 223.492 155.556 230.635 155.541 C 234.563 155.533,256.635 155.112,279.683 154.604 C 302.730 154.097,325.087 153.675,329.365 153.667 L 337.143 153.651 337.143 114.286 C 337.143 83.176,336.976 74.937,336.349 74.997 C 335.913 75.039,320.841 76.730,302.857 78.753 M330.159 113.016 L 330.159 143.492 326.508 143.496 C 324.500 143.498,302.286 144.209,277.143 145.076 C 252.000 145.943,230.786 146.655,230.000 146.659 L 228.571 146.667 228.571 119.683 L 228.571 92.698 230.000 92.658 C 230.786 92.636,253.286 90.383,280.000 87.652 C 306.714 84.921,328.929 82.653,329.365 82.613 C 329.990 82.555,330.159 89.019,330.159 113.016 M315.238 87.677 C 311.320 88.894,309.206 91.786,309.206 95.929 C 309.206 105.390,322.321 105.604,324.447 96.177 C 325.790 90.226,321.066 85.867,315.238 87.677 M291.429 89.940 C 290.556 90.074,288.913 90.334,287.778 90.517 L 285.714 90.851 285.714 98.492 L 285.714 106.133 287.460 105.802 C 288.421 105.620,291.706 105.286,294.762 105.060 L 300.317 104.648 300.317 97.086 L 300.317 89.524 296.667 89.610 C 294.659 89.658,292.302 89.806,291.429 89.940 M320.346 91.717 C 322.312 93.683,322.331 95.942,320.400 98.187 C 316.364 102.878,309.232 97.840,312.766 92.794 C 314.778 89.922,318.082 89.452,320.346 91.717 M270.317 91.895 L 267.302 92.133 267.302 99.400 L 267.302 106.667 269.683 106.662 C 270.992 106.660,273.992 106.475,276.349 106.253 L 280.635 105.848 280.635 98.638 L 280.635 91.429 276.984 91.543 C 274.976 91.606,271.976 91.764,270.317 91.895 M100.627 93.802 C 85.228 99.312,83.381 102.989,71.326 152.136 L 62.000 190.159 61.982 198.095 C 61.965 205.249,62.423 208.569,66.630 231.746 C 69.197 245.889,71.268 258.603,71.232 260.000 C 71.185 261.838,67.392 271.053,57.513 293.333 C 43.656 324.586,41.724 329.996,42.835 334.424 L 43.199 335.873 66.339 335.873 C 92.803 335.873,90.794 336.368,90.794 329.851 C 90.794 325.960,89.540 322.815,87.785 322.304 C 74.216 318.357,73.932 321.569,90.735 288.947 C 107.379 256.633,106.245 261.740,102.907 234.141 C 99.937 209.578,100.022 210.794,101.270 210.794 C 101.794 210.794,102.219 211.008,102.216 211.270 C 102.213 211.532,103.548 221.294,105.184 232.964 C 108.485 256.509,108.477 259.975,105.109 265.721 C 103.787 267.976,103.426 270.109,102.257 282.564 C 101.521 290.408,100.194 304.147,99.310 313.097 C 98.425 322.046,97.790 330.760,97.899 332.462 L 98.095 335.556 121.415 335.722 L 144.734 335.889 145.143 334.259 C 145.812 331.592,145.030 326.377,143.687 324.556 C 142.619 323.108,132.811 319.720,128.760 319.400 C 126.784 319.244,127.176 314.479,131.177 290.020 C 137.008 254.375,137.609 260.426,124.695 224.715 C 119.319 209.848,114.921 197.198,114.921 196.605 C 114.921 195.623,129.849 148.022,130.288 147.605 C 130.391 147.507,133.905 152.374,138.095 158.421 C 148.056 172.794,146.332 171.883,165.164 172.724 C 173.324 173.089,181.214 173.535,182.698 173.716 L 185.397 174.046 185.397 177.499 L 185.397 180.952 257.460 180.952 L 329.524 180.952 329.524 173.651 L 329.524 166.349 316.190 166.349 L 302.857 166.349 302.857 162.438 L 302.857 158.526 286.190 158.944 C 277.024 159.174,265.167 159.363,259.841 159.364 L 250.159 159.365 250.159 162.857 L 250.159 166.349 238.492 166.349 L 226.825 166.349 226.454 164.490 C 226.219 163.317,224.008 160.467,220.461 156.765 L 214.840 150.898 207.164 151.701 L 199.487 152.504 183.281 149.810 C 174.367 148.327,166.809 146.943,166.485 146.732 C 166.161 146.521,159.825 137.206,152.406 126.032 C 137.740 103.943,136.804 102.756,131.128 99.060 C 122.228 93.265,108.664 90.927,100.627 93.802 M249.841 93.657 C 246.000 94.092,240.643 94.651,237.937 94.898 L 233.016 95.346 233.016 98.209 L 233.016 101.072 236.032 100.706 C 237.690 100.505,243.048 100.031,247.937 99.654 C 260.368 98.693,259.683 98.933,259.683 95.543 C 259.683 92.257,260.612 92.435,249.841 93.657 M251.746 102.257 C 249.651 102.534,244.579 102.966,240.476 103.217 L 233.016 103.672 233.016 106.439 C 233.016 108.232,233.295 109.205,233.810 109.202 C 234.246 109.200,239.746 108.775,246.032 108.258 C 252.317 107.742,257.960 107.315,258.571 107.310 C 259.464 107.303,259.683 106.739,259.683 104.444 C 259.683 101.197,259.710 101.205,251.746 102.257 M314.603 106.980 C 310.912 108.298,309.210 110.710,309.224 114.603 C 309.259 124.932,324.144 124.371,324.594 114.023 C 324.855 108.022,320.427 104.900,314.603 106.980 M282.111 109.611 C 275.847 111.831,271.051 118.467,270.588 125.556 C 270.383 128.691,270.111 129.526,269.291 129.536 C 267.443 129.558,245.577 130.736,239.206 131.156 C 233.252 131.550,233.016 131.622,233.016 133.054 C 233.016 134.448,233.209 134.525,236.032 134.253 C 239.082 133.959,266.428 132.698,269.754 132.698 C 271.222 132.698,271.910 133.268,273.467 135.772 C 280.287 146.743,298.790 143.002,302.564 129.889 C 306.457 116.362,295.030 105.033,282.111 109.611 M320.794 111.209 C 322.449 113.164,322.162 115.396,319.975 117.583 C 315.751 121.807,309.355 116.712,312.766 111.842 C 314.774 108.975,318.645 108.669,320.794 111.209 M247.302 111.158 C 244.508 111.440,240.151 111.855,237.619 112.080 L 233.016 112.489 233.016 115.310 L 233.016 118.131 236.984 117.785 C 242.289 117.322,257.820 116.190,258.857 116.190 C 259.412 116.190,259.683 115.254,259.683 113.333 L 259.683 110.476 256.032 110.561 C 254.024 110.607,250.095 110.876,247.302 111.158 M294.428 112.791 C 303.586 118.011,302.486 132.464,292.553 137.414 C 287.027 140.168,281.732 139.412,277.600 135.280 C 274.702 132.382,274.869 132.233,281.587 131.730 C 287.247 131.305,287.619 131.191,287.619 129.877 C 287.619 128.499,287.504 128.481,280.539 128.768 L 273.459 129.060 273.803 125.268 C 274.840 113.828,285.225 107.546,294.428 112.791 M248.254 119.722 C 242.841 120.163,237.198 120.548,235.714 120.579 L 233.016 120.635 233.016 123.586 L 233.016 126.537 238.889 126.131 C 242.119 125.907,248.119 125.536,252.222 125.305 L 259.683 124.886 259.683 121.808 C 259.683 119.718,259.428 118.761,258.889 118.826 C 258.452 118.878,253.667 119.282,248.254 119.722 M314.603 126.050 C 307.519 128.518,307.070 138.967,313.966 140.871 C 320.445 142.660,325.172 138.136,324.496 130.794 C 324.128 126.803,319.210 124.445,314.603 126.050 M318.975 128.971 C 322.281 130.478,322.311 136.120,319.019 137.383 C 313.636 139.449,309.635 134.077,313.602 130.110 C 315.627 128.085,316.584 127.882,318.975 128.971 M250.000 138.244 L 246.984 138.482 246.984 141.013 L 246.984 143.543 252.222 143.359 L 257.460 143.175 257.656 140.476 L 257.851 137.778 255.433 137.892 C 254.104 137.955,251.659 138.114,250.000 138.244 M260.952 140.635 L 260.952 143.492 265.662 143.492 C 271.903 143.492,272.381 143.261,272.381 140.250 L 272.381 137.778 266.667 137.778 L 260.952 137.778 260.952 140.635 M234.074 138.836 C 233.841 139.069,233.651 140.394,233.651 141.782 L 233.651 144.304 236.984 143.903 C 238.817 143.683,241.246 143.501,242.381 143.498 C 244.364 143.492,244.444 143.393,244.444 140.952 L 244.444 138.413 239.471 138.413 C 236.735 138.413,234.307 138.603,234.074 138.836 M177.143 190.472 L 177.143 198.086 219.953 198.250 L 262.763 198.413 226.302 245.394 L 189.841 292.376 189.841 314.124 L 189.841 335.873 243.175 335.873 L 296.508 335.873 296.508 328.889 L 296.508 321.905 248.571 321.905 L 200.635 321.905 200.675 309.365 L 200.715 296.825 239.256 247.302 L 277.797 197.778 308.105 197.613 L 338.413 197.448 338.413 190.153 L 338.413 182.857 257.778 182.857 L 177.143 182.857 177.143 190.472 " stroke="#000000" fill="none" class="vernyVvw_0"></path></g><style data-made-with="vivus-instant">.vernyVvw_0{stroke-dasharray:4260 4262;stroke-dashoffset:4261;}.start .vernyVvw_0{animation:vernyVvw_draw_0 4500ms linear 0ms infinite,vernyVvw_fade 4500ms linear 0ms infinite;}@keyframes vernyVvw_draw{100%{stroke-dashoffset:0;}}@keyframes vernyVvw_fade{0%{stroke-opacity:1;}91.11111111111111%{stroke-opacity:1;}100%{stroke-opacity:0;}}@keyframes vernyVvw_draw_0{6.666666666666667%{stroke-dashoffset: 4261}73.33333333333333%{ stroke-dashoffset: 0;}100%{ stroke-dashoffset: 0;}}</style></svg>
