<svg id="svg" version="1.1" width="400" height="400" viewBox="0 0 400 400" xmlns="http://www.w3.org/2000/svg" xmlns:xlink="http://www.w3.org/1999/xlink" style=""><g id="svgg"><path id="path0" d="M180.800 0.276 C 179.151 0.366,177.630 0.610,177.420 0.820 C 177.211 1.029,175.996 1.200,174.720 1.200 C 173.440 1.200,172.400 1.379,172.400 1.600 C 172.400 1.820,171.601 2.000,170.624 2.000 C 169.647 2.000,168.736 2.180,168.600 2.400 C 168.464 2.620,167.643 2.800,166.776 2.800 C 165.909 2.800,165.200 2.980,165.200 3.200 C 165.200 3.420,164.581 3.600,163.824 3.600 C 163.067 3.600,162.336 3.780,162.200 4.000 C 162.064 4.220,161.513 4.400,160.976 4.400 C 160.439 4.400,160.000 4.580,160.000 4.800 C 160.000 5.020,159.460 5.200,158.800 5.200 C 158.140 5.200,157.600 5.380,157.600 5.600 C 157.600 5.820,157.060 6.000,156.400 6.000 C 155.740 6.000,155.200 6.180,155.200 6.400 C 155.200 6.620,154.935 6.800,154.612 6.800 C 154.289 6.800,153.383 7.160,152.600 7.600 C 151.817 8.040,150.911 8.400,150.588 8.400 C 150.265 8.400,150.000 8.580,150.000 8.800 C 150.000 9.020,149.640 9.200,149.200 9.200 C 148.760 9.200,148.400 9.357,148.400 9.550 C 148.400 9.742,147.905 10.001,147.300 10.124 C 146.199 10.348,142.883 12.362,141.425 13.692 C 140.998 14.082,140.453 14.400,140.213 14.400 C 139.973 14.400,139.517 14.760,139.200 15.200 C 138.883 15.640,138.403 16.000,138.134 16.000 C 137.574 16.000,129.600 23.807,129.600 24.355 C 129.600 24.553,129.105 25.271,128.500 25.949 C 126.616 28.062,126.400 28.354,126.400 28.783 C 126.400 29.012,126.250 29.200,126.068 29.200 C 125.885 29.200,125.480 29.695,125.168 30.300 C 124.855 30.905,124.285 31.749,123.900 32.175 C 123.515 32.602,123.200 33.187,123.200 33.475 C 123.200 33.764,123.020 34.000,122.800 34.000 C 122.580 34.000,122.400 34.360,122.400 34.800 C 122.400 35.240,122.220 35.600,122.000 35.600 C 121.780 35.600,121.600 35.960,121.600 36.400 C 121.600 36.840,121.420 37.200,121.200 37.200 C 120.980 37.200,120.800 37.560,120.800 38.000 C 120.800 38.440,120.620 38.800,120.400 38.800 C 120.180 38.800,120.000 39.160,120.000 39.600 C 120.000 40.040,119.820 40.400,119.600 40.400 C 119.380 40.400,119.200 40.940,119.200 41.600 C 119.200 42.260,119.065 42.801,118.900 42.803 C 118.499 42.807,117.600 44.781,117.600 45.656 C 117.600 46.039,117.420 46.464,117.200 46.600 C 116.980 46.736,116.800 47.276,116.800 47.800 C 116.800 48.324,116.620 48.864,116.400 49.000 C 116.180 49.136,116.000 49.867,116.000 50.624 C 116.000 51.381,115.820 52.000,115.600 52.000 C 115.380 52.000,115.200 52.720,115.200 53.600 C 115.200 54.480,115.020 55.200,114.800 55.200 C 114.580 55.200,114.400 55.909,114.400 56.776 C 114.400 57.643,114.220 58.464,114.000 58.600 C 113.780 58.736,113.600 59.636,113.600 60.600 C 113.600 61.564,113.420 62.464,113.200 62.600 C 112.980 62.736,112.800 64.241,112.800 65.944 C 112.800 67.647,112.634 69.211,112.430 69.420 C 111.577 70.296,110.728 87.348,110.737 103.400 C 110.746 118.824,111.018 126.000,111.593 126.000 C 111.779 126.000,112.031 127.125,112.152 128.500 C 112.591 133.463,112.880 135.407,113.237 135.780 C 113.437 135.989,113.600 136.653,113.600 137.256 C 113.600 137.859,113.780 138.464,114.000 138.600 C 114.220 138.736,114.400 139.467,114.400 140.224 C 114.400 140.981,114.580 141.600,114.800 141.600 C 115.020 141.600,115.200 142.219,115.200 142.976 C 115.200 143.733,115.380 144.464,115.600 144.600 C 115.820 144.736,116.000 145.377,116.000 146.024 C 116.000 146.671,116.180 147.200,116.400 147.200 C 116.620 147.200,116.800 147.740,116.800 148.400 C 116.800 149.060,116.980 149.600,117.200 149.600 C 117.420 149.600,117.600 149.960,117.600 150.400 C 117.600 150.840,117.780 151.200,118.000 151.200 C 118.220 151.200,118.400 151.740,118.400 152.400 C 118.400 153.060,118.580 153.600,118.800 153.600 C 119.020 153.600,119.200 153.872,119.200 154.205 C 119.200 154.538,119.368 155.123,119.574 155.505 C 119.779 155.887,120.183 156.785,120.471 157.500 C 120.760 158.215,121.131 158.800,121.298 158.800 C 121.464 158.800,121.600 159.160,121.600 159.600 C 121.600 160.040,121.780 160.400,122.000 160.400 C 122.220 160.400,122.400 160.760,122.400 161.200 C 122.400 161.640,122.580 162.000,122.800 162.000 C 123.020 162.000,123.200 162.360,123.200 162.800 C 123.200 163.240,123.380 163.600,123.600 163.600 C 123.820 163.600,124.000 163.960,124.000 164.400 C 124.000 164.840,124.180 165.200,124.400 165.200 C 124.620 165.200,124.800 165.560,124.800 166.000 C 124.800 166.440,124.980 166.800,125.200 166.800 C 125.420 166.800,125.600 167.120,125.600 167.512 C 125.600 167.903,125.960 168.483,126.400 168.800 C 126.840 169.117,127.200 169.606,127.200 169.887 C 127.200 170.168,127.830 171.275,128.600 172.347 C 129.370 173.419,130.000 174.459,130.000 174.659 C 130.000 174.860,130.360 175.283,130.800 175.600 C 131.240 175.917,131.600 176.385,131.600 176.640 C 131.600 176.895,132.320 177.845,133.200 178.752 C 134.080 179.659,134.800 180.560,134.800 180.754 C 134.800 180.948,135.925 182.275,137.300 183.702 C 138.675 185.129,141.060 187.668,142.600 189.344 C 144.140 191.021,145.549 192.394,145.731 192.396 C 145.914 192.398,146.724 193.081,147.531 193.913 C 148.339 194.745,149.630 195.868,150.400 196.409 C 151.170 196.949,152.322 197.888,152.959 198.496 C 153.597 199.103,154.322 199.600,154.571 199.600 C 154.820 199.600,155.283 199.960,155.600 200.400 C 155.917 200.840,156.431 201.200,156.741 201.200 C 157.052 201.200,157.598 201.515,157.954 201.900 C 158.694 202.699,161.046 204.400,161.412 204.400 C 161.546 204.400,162.408 204.911,163.328 205.535 C 164.248 206.159,165.585 206.923,166.300 207.232 C 167.015 207.542,167.600 207.916,167.600 208.062 C 167.600 208.209,168.320 208.451,169.200 208.600 C 170.080 208.749,170.800 209.034,170.800 209.235 C 170.800 209.436,171.160 209.600,171.600 209.600 C 172.040 209.600,172.400 209.780,172.400 210.000 C 172.400 210.220,172.760 210.400,173.200 210.400 C 173.640 210.400,174.000 210.580,174.000 210.800 C 174.000 211.020,174.360 211.200,174.800 211.200 C 175.240 211.200,175.600 211.380,175.600 211.600 C 175.600 211.820,176.050 212.000,176.600 212.000 C 177.150 212.000,177.600 212.180,177.600 212.400 C 177.600 212.620,178.050 212.800,178.600 212.800 C 179.150 212.800,179.600 212.980,179.600 213.200 C 179.600 213.420,180.050 213.600,180.600 213.600 C 181.150 213.600,181.600 213.780,181.600 214.000 C 181.600 214.220,182.219 214.400,182.976 214.400 C 183.733 214.400,184.464 214.580,184.600 214.800 C 184.736 215.020,185.377 215.200,186.024 215.200 C 186.671 215.200,187.200 215.380,187.200 215.600 C 187.200 215.820,187.999 216.000,188.976 216.000 C 189.953 216.000,190.864 216.180,191.000 216.400 C 191.136 216.620,192.407 216.800,193.824 216.800 C 195.275 216.800,196.400 216.975,196.400 217.200 C 196.400 217.437,197.859 217.600,199.976 217.600 C 201.943 217.600,203.664 217.420,203.800 217.200 C 203.936 216.980,205.106 216.800,206.400 216.800 C 207.694 216.800,208.864 216.620,209.000 216.400 C 209.136 216.180,210.047 216.000,211.024 216.000 C 212.001 216.000,212.800 215.820,212.800 215.600 C 212.800 215.380,213.419 215.200,214.176 215.200 C 214.933 215.200,215.664 215.020,215.800 214.800 C 215.936 214.580,216.577 214.400,217.224 214.400 C 217.871 214.400,218.400 214.220,218.400 214.000 C 218.400 213.780,218.839 213.600,219.376 213.600 C 219.913 213.600,220.464 213.420,220.600 213.200 C 220.736 212.980,221.197 212.800,221.624 212.800 C 222.051 212.800,222.400 212.620,222.400 212.400 C 222.400 212.180,222.850 212.000,223.400 212.000 C 223.950 212.000,224.400 211.820,224.400 211.600 C 224.400 211.380,224.760 211.200,225.200 211.200 C 225.640 211.200,226.000 211.020,226.000 210.800 C 226.000 210.580,226.360 210.400,226.800 210.400 C 227.240 210.400,227.600 210.220,227.600 210.000 C 227.600 209.780,227.960 209.600,228.400 209.600 C 228.840 209.600,229.200 209.440,229.200 209.245 C 229.200 209.049,229.875 208.762,230.699 208.608 C 231.524 208.453,232.289 208.208,232.399 208.063 C 232.510 207.918,233.320 207.426,234.200 206.970 C 236.273 205.894,237.749 205.051,238.000 204.799 C 238.110 204.689,238.707 204.337,239.326 204.018 C 239.945 203.698,240.979 202.934,241.622 202.319 C 242.266 201.703,243.025 201.200,243.308 201.200 C 243.591 201.200,244.083 200.840,244.400 200.400 C 244.717 199.960,245.169 199.600,245.404 199.600 C 245.640 199.600,246.628 198.880,247.600 198.000 C 248.572 197.120,249.522 196.400,249.710 196.400 C 249.898 196.400,250.929 195.500,252.000 194.400 C 253.071 193.300,254.108 192.400,254.303 192.400 C 254.498 192.400,255.905 191.036,257.429 189.369 C 258.953 187.702,261.325 185.161,262.700 183.723 C 264.075 182.284,265.200 180.934,265.200 180.722 C 265.200 180.510,265.920 179.646,266.800 178.800 C 267.680 177.954,268.400 177.045,268.400 176.778 C 268.400 176.512,268.716 176.003,269.103 175.647 C 269.489 175.291,270.060 174.505,270.370 173.900 C 270.681 173.295,271.085 172.800,271.268 172.800 C 271.450 172.800,271.600 172.612,271.600 172.383 C 271.600 172.154,271.788 171.749,272.017 171.483 C 273.095 170.235,275.200 166.551,275.200 165.913 C 275.200 165.521,275.380 165.200,275.600 165.200 C 275.820 165.200,276.000 164.840,276.000 164.400 C 276.000 163.960,276.180 163.600,276.400 163.600 C 276.620 163.600,276.800 163.240,276.800 162.800 C 276.800 162.360,276.980 162.000,277.200 162.000 C 277.420 162.000,277.600 161.640,277.600 161.200 C 277.600 160.760,277.780 160.400,278.000 160.400 C 278.220 160.400,278.400 160.040,278.400 159.600 C 278.400 159.160,278.536 158.800,278.702 158.800 C 278.869 158.800,279.240 158.215,279.529 157.500 C 279.817 156.785,280.221 155.887,280.426 155.505 C 280.632 155.123,280.800 154.538,280.800 154.205 C 280.800 153.872,280.980 153.600,281.200 153.600 C 281.420 153.600,281.600 153.060,281.600 152.400 C 281.600 151.740,281.780 151.200,282.000 151.200 C 282.220 151.200,282.400 150.840,282.400 150.400 C 282.400 149.960,282.580 149.600,282.800 149.600 C 283.020 149.600,283.200 149.060,283.200 148.400 C 283.200 147.740,283.380 147.200,283.600 147.200 C 283.820 147.200,284.000 146.671,284.000 146.024 C 284.000 145.377,284.180 144.736,284.400 144.600 C 284.620 144.464,284.800 143.733,284.800 142.976 C 284.800 142.219,284.980 141.600,285.200 141.600 C 285.420 141.600,285.600 140.981,285.600 140.224 C 285.600 139.467,285.780 138.736,286.000 138.600 C 286.220 138.464,286.400 137.859,286.400 137.256 C 286.400 136.653,286.563 135.989,286.763 135.780 C 287.120 135.407,287.409 133.463,287.848 128.500 C 287.969 127.125,288.233 126.000,288.434 126.000 C 288.635 126.000,288.800 124.391,288.800 122.424 C 288.800 120.457,288.980 118.736,289.200 118.600 C 289.727 118.274,289.748 88.309,289.222 87.780 C 289.013 87.571,288.751 84.880,288.638 81.800 C 288.348 73.904,288.000 69.861,287.570 69.420 C 287.366 69.211,287.200 67.647,287.200 65.944 C 287.200 64.241,287.020 62.736,286.800 62.600 C 286.580 62.464,286.400 61.463,286.400 60.376 C 286.400 59.289,286.220 58.400,286.000 58.400 C 285.780 58.400,285.600 57.680,285.600 56.800 C 285.600 55.920,285.420 55.200,285.200 55.200 C 284.980 55.200,284.800 54.480,284.800 53.600 C 284.800 52.720,284.620 52.000,284.400 52.000 C 284.180 52.000,284.000 51.381,284.000 50.624 C 284.000 49.867,283.820 49.136,283.600 49.000 C 283.380 48.864,283.200 48.324,283.200 47.800 C 283.200 47.276,283.020 46.736,282.800 46.600 C 282.580 46.464,282.400 46.039,282.400 45.656 C 282.400 44.781,281.501 42.807,281.100 42.803 C 280.935 42.801,280.800 42.260,280.800 41.600 C 280.800 40.940,280.620 40.400,280.400 40.400 C 280.180 40.400,280.000 40.040,280.000 39.600 C 280.000 39.160,279.820 38.800,279.600 38.800 C 279.380 38.800,279.200 38.440,279.200 38.000 C 279.200 37.560,279.020 37.200,278.800 37.200 C 278.580 37.200,278.400 36.840,278.400 36.400 C 278.400 35.960,278.220 35.600,278.000 35.600 C 277.780 35.600,277.600 35.240,277.600 34.800 C 277.600 34.360,277.420 34.000,277.200 34.000 C 276.980 34.000,276.800 33.764,276.800 33.475 C 276.800 33.187,276.485 32.597,276.100 32.165 C 275.715 31.732,275.048 30.691,274.617 29.852 C 274.186 29.012,273.151 27.622,272.317 26.762 C 271.483 25.902,270.800 25.026,270.800 24.813 C 270.800 24.277,262.473 16.000,261.933 16.000 C 261.691 16.000,261.200 15.685,260.841 15.300 C 260.482 14.915,259.892 14.420,259.530 14.200 C 259.168 13.980,257.777 13.035,256.440 12.100 C 255.103 11.165,253.872 10.399,253.705 10.398 C 253.537 10.397,252.514 9.947,251.432 9.398 C 250.350 8.849,249.225 8.400,248.932 8.400 C 248.639 8.400,248.399 8.265,248.397 8.100 C 248.393 7.694,246.414 6.800,245.520 6.800 C 245.124 6.800,244.800 6.620,244.800 6.400 C 244.800 6.180,244.260 6.000,243.600 6.000 C 242.940 6.000,242.400 5.820,242.400 5.600 C 242.400 5.380,241.961 5.200,241.424 5.200 C 240.887 5.200,240.336 5.020,240.200 4.800 C 240.064 4.580,239.513 4.400,238.976 4.400 C 238.439 4.400,238.000 4.220,238.000 4.000 C 238.000 3.780,237.280 3.600,236.400 3.600 C 235.520 3.600,234.800 3.420,234.800 3.200 C 234.800 2.980,234.091 2.800,233.224 2.800 C 232.357 2.800,231.536 2.620,231.400 2.400 C 231.264 2.180,230.353 2.000,229.376 2.000 C 228.399 2.000,227.600 1.820,227.600 1.600 C 227.600 1.378,226.544 1.200,225.233 1.200 C 223.726 1.200,222.808 1.023,222.704 0.712 C 222.542 0.227,188.248 -0.130,180.800 0.276 M205.400 36.000 C 205.536 36.220,207.167 36.400,209.024 36.400 C 211.008 36.400,212.400 36.565,212.400 36.800 C 212.400 37.020,213.390 37.200,214.600 37.200 C 215.810 37.200,216.800 37.380,216.800 37.600 C 216.800 37.820,217.599 38.000,218.576 38.000 C 219.553 38.000,220.464 38.180,220.600 38.400 C 220.736 38.620,221.366 38.800,222.000 38.800 C 222.634 38.800,223.264 38.980,223.400 39.200 C 223.536 39.420,224.222 39.606,224.924 39.613 C 226.837 39.632,227.499 40.328,227.290 42.100 C 227.192 42.925,226.952 43.600,226.756 43.600 C 226.560 43.600,226.400 43.960,226.400 44.400 C 226.400 44.840,226.220 45.200,226.000 45.200 C 225.780 45.200,225.600 45.650,225.600 46.200 C 225.600 46.750,225.420 47.200,225.200 47.200 C 224.980 47.200,224.800 47.650,224.800 48.200 C 224.800 48.750,224.620 49.200,224.400 49.200 C 224.180 49.200,224.000 49.650,224.000 50.200 C 224.000 50.750,223.820 51.200,223.600 51.200 C 223.380 51.200,223.200 51.639,223.200 52.176 C 223.200 52.713,223.020 53.264,222.800 53.400 C 222.580 53.536,222.400 53.997,222.400 54.424 C 222.400 55.251,221.053 55.532,220.600 54.800 C 220.464 54.580,219.553 54.400,218.576 54.400 C 217.599 54.400,216.800 54.220,216.800 54.000 C 216.800 53.780,216.080 53.600,215.200 53.600 C 214.320 53.600,213.600 53.420,213.600 53.200 C 213.600 52.978,212.533 52.800,211.200 52.800 C 209.867 52.800,208.800 52.622,208.800 52.400 C 208.800 52.145,205.600 52.000,200.000 52.000 C 194.400 52.000,191.200 52.145,191.200 52.400 C 191.200 52.622,190.133 52.800,188.800 52.800 C 187.467 52.800,186.400 52.978,186.400 53.200 C 186.400 53.420,185.680 53.600,184.800 53.600 C 183.920 53.600,183.200 53.780,183.200 54.000 C 183.200 54.220,182.401 54.400,181.424 54.400 C 180.447 54.400,179.536 54.580,179.400 54.800 C 178.947 55.532,177.600 55.251,177.600 54.424 C 177.600 53.997,177.420 53.536,177.200 53.400 C 176.980 53.264,176.800 52.713,176.800 52.176 C 176.800 51.639,176.620 51.200,176.400 51.200 C 176.180 51.200,176.000 50.750,176.000 50.200 C 176.000 49.650,175.820 49.200,175.600 49.200 C 175.380 49.200,175.201 48.885,175.202 48.500 C 175.204 47.770,173.957 43.948,173.603 43.600 C 171.862 41.887,172.694 39.636,175.076 39.613 C 175.778 39.606,176.464 39.420,176.600 39.200 C 176.736 38.980,177.366 38.800,178.000 38.800 C 178.634 38.800,179.264 38.620,179.400 38.400 C 179.536 38.180,180.436 38.000,181.400 38.000 C 182.364 38.000,183.264 37.820,183.400 37.600 C 183.536 37.380,184.526 37.200,185.600 37.200 C 186.674 37.200,187.664 37.020,187.800 36.800 C 187.936 36.580,189.466 36.400,191.200 36.400 C 192.934 36.400,194.464 36.220,194.600 36.000 C 194.744 35.767,196.996 35.600,200.000 35.600 C 203.004 35.600,205.256 35.767,205.400 36.000 M210.000 77.200 C 210.000 77.426,211.133 77.600,212.600 77.600 C 214.067 77.600,215.200 77.774,215.200 78.000 C 215.200 78.220,215.920 78.400,216.800 78.400 C 217.680 78.400,218.400 78.580,218.400 78.800 C 218.400 79.020,219.120 79.200,220.000 79.200 C 220.880 79.200,221.600 79.380,221.600 79.600 C 221.600 79.820,222.129 80.000,222.776 80.000 C 223.423 80.000,224.064 80.180,224.200 80.400 C 224.336 80.620,224.799 80.800,225.228 80.800 C 225.925 80.800,228.612 81.837,230.495 82.833 C 230.877 83.035,231.462 83.200,231.795 83.200 C 232.128 83.200,232.400 83.380,232.400 83.600 C 232.400 83.820,232.760 84.000,233.200 84.000 C 233.640 84.000,234.000 84.180,234.000 84.400 C 234.000 84.620,234.360 84.800,234.800 84.800 C 235.240 84.800,235.600 84.958,235.600 85.151 C 235.600 85.345,236.140 85.727,236.800 86.000 C 237.460 86.273,238.000 86.655,238.000 86.849 C 238.000 87.042,238.320 87.200,238.712 87.200 C 239.103 87.200,239.683 87.560,240.000 88.000 C 240.317 88.440,240.897 88.800,241.288 88.800 C 241.680 88.800,242.003 88.935,242.008 89.100 C 242.012 89.265,242.908 89.940,244.000 90.600 C 245.092 91.260,245.988 91.935,245.992 92.100 C 245.997 92.265,246.180 92.400,246.400 92.400 C 246.619 92.400,247.541 93.120,248.448 94.000 C 249.355 94.880,250.254 95.600,250.446 95.600 C 250.638 95.600,251.892 96.680,253.232 98.000 C 254.573 99.320,255.852 100.400,256.074 100.400 C 256.297 100.400,256.983 100.940,257.600 101.600 C 258.217 102.260,259.009 102.800,259.360 102.800 C 259.712 102.800,260.001 102.935,260.003 103.100 C 260.013 104.061,264.467 104.863,265.000 104.000 C 265.136 103.780,265.642 103.597,266.124 103.593 C 267.641 103.580,272.662 99.046,274.315 96.195 C 274.692 95.544,274.778 95.957,274.788 98.476 C 274.795 100.168,274.980 101.664,275.200 101.800 C 275.423 101.938,275.600 103.804,275.600 106.024 C 275.600 108.408,275.440 110.000,275.200 110.000 C 274.951 110.000,274.800 112.333,274.800 116.200 C 274.800 120.067,274.649 122.400,274.400 122.400 C 274.178 122.400,274.000 123.467,274.000 124.800 C 274.000 126.133,273.822 127.200,273.600 127.200 C 273.380 127.200,273.200 128.089,273.200 129.176 C 273.200 130.263,273.020 131.264,272.800 131.400 C 272.580 131.536,272.400 132.357,272.400 133.224 C 272.400 134.091,272.220 134.800,272.000 134.800 C 271.780 134.800,271.600 135.329,271.600 135.976 C 271.600 136.623,271.420 137.264,271.200 137.400 C 270.980 137.536,270.800 138.267,270.800 139.024 C 270.800 139.781,270.620 140.400,270.400 140.400 C 270.180 140.400,270.000 140.940,270.000 141.600 C 270.000 142.260,269.820 142.800,269.600 142.800 C 269.380 142.800,269.200 143.162,269.200 143.605 C 269.200 144.048,269.020 144.768,268.800 145.205 C 268.580 145.642,268.220 146.358,268.000 146.795 C 267.780 147.232,267.600 147.862,267.600 148.195 C 267.600 148.528,267.420 148.800,267.200 148.800 C 266.980 148.800,266.800 149.149,266.800 149.576 C 266.800 150.003,266.620 150.464,266.400 150.600 C 266.180 150.736,266.000 151.287,266.000 151.824 C 266.000 152.361,265.820 152.800,265.600 152.800 C 265.380 152.800,265.200 153.160,265.200 153.600 C 265.200 154.040,265.020 154.400,264.800 154.400 C 264.580 154.400,264.400 154.760,264.400 155.200 C 264.400 155.640,264.265 156.000,264.099 156.000 C 263.934 156.000,263.353 156.855,262.809 157.900 C 262.265 158.945,261.723 159.890,261.606 160.000 C 261.488 160.110,261.034 160.915,260.596 161.789 C 260.158 162.663,259.485 163.732,259.100 164.165 C 258.715 164.597,258.400 165.147,258.400 165.387 C 258.400 165.627,258.040 166.083,257.600 166.400 C 257.160 166.717,256.800 167.225,256.800 167.528 C 256.800 167.831,256.260 168.583,255.600 169.200 C 254.940 169.817,254.400 170.495,254.400 170.707 C 254.400 170.919,253.412 172.152,252.206 173.446 C 250.999 174.741,249.677 176.160,249.270 176.600 C 247.288 178.738,239.844 185.600,239.506 185.600 C 239.294 185.600,238.617 186.140,238.000 186.800 C 237.383 187.460,236.631 188.000,236.328 188.000 C 236.025 188.000,235.517 188.360,235.200 188.800 C 234.883 189.240,234.420 189.600,234.171 189.600 C 233.922 189.600,233.154 190.140,232.463 190.800 C 231.772 191.460,230.936 192.000,230.604 192.000 C 230.272 192.000,230.000 192.143,230.000 192.318 C 230.000 192.493,229.190 192.970,228.200 193.378 C 227.210 193.787,226.400 194.273,226.400 194.460 C 226.400 194.647,226.040 194.800,225.600 194.800 C 225.160 194.800,224.800 194.980,224.800 195.200 C 224.800 195.420,224.440 195.600,224.000 195.600 C 223.560 195.600,223.200 195.780,223.200 196.000 C 223.200 196.220,222.840 196.400,222.400 196.400 C 221.960 196.400,221.600 196.580,221.600 196.800 C 221.600 197.020,221.240 197.200,220.800 197.200 C 220.360 197.200,220.000 197.380,220.000 197.600 C 220.000 197.820,219.561 198.000,219.024 198.000 C 218.487 198.000,217.936 198.180,217.800 198.400 C 217.664 198.620,217.203 198.800,216.776 198.800 C 216.349 198.800,216.000 198.980,216.000 199.200 C 216.000 199.420,215.561 199.600,215.024 199.600 C 214.487 199.600,213.936 199.780,213.800 200.000 C 213.664 200.220,213.124 200.400,212.600 200.400 C 212.076 200.400,211.536 200.580,211.400 200.800 C 211.264 201.020,210.634 201.200,210.000 201.200 C 209.366 201.200,208.736 201.380,208.600 201.600 C 208.464 201.820,207.643 202.000,206.776 202.000 C 205.909 202.000,205.200 202.180,205.200 202.400 C 205.200 202.646,203.200 202.800,200.000 202.800 C 196.800 202.800,194.800 202.646,194.800 202.400 C 194.800 202.180,194.091 202.000,193.224 202.000 C 192.357 202.000,191.536 201.820,191.400 201.600 C 191.264 201.380,190.634 201.200,190.000 201.200 C 189.366 201.200,188.736 201.020,188.600 200.800 C 188.464 200.580,187.924 200.400,187.400 200.400 C 186.876 200.400,186.336 200.220,186.200 200.000 C 186.064 199.780,185.513 199.600,184.976 199.600 C 184.439 199.600,184.000 199.420,184.000 199.200 C 184.000 198.980,183.651 198.800,183.224 198.800 C 182.797 198.800,182.336 198.620,182.200 198.400 C 182.064 198.180,181.513 198.000,180.976 198.000 C 180.439 198.000,180.000 197.820,180.000 197.600 C 180.000 197.380,179.640 197.200,179.200 197.200 C 178.760 197.200,178.400 197.020,178.400 196.800 C 178.400 196.580,178.040 196.400,177.600 196.400 C 177.160 196.400,176.800 196.220,176.800 196.000 C 176.800 195.780,176.440 195.600,176.000 195.600 C 175.560 195.600,175.200 195.460,175.200 195.290 C 175.200 195.119,174.392 194.624,173.404 194.190 C 172.416 193.755,171.606 193.265,171.604 193.100 C 171.602 192.935,171.240 192.800,170.800 192.800 C 170.360 192.800,170.000 192.620,170.000 192.400 C 170.000 192.180,169.728 192.000,169.396 192.000 C 169.064 192.000,168.228 191.460,167.537 190.800 C 166.846 190.140,166.078 189.600,165.829 189.600 C 165.580 189.600,165.117 189.240,164.800 188.800 C 164.483 188.360,163.975 188.000,163.672 188.000 C 163.369 188.000,162.644 187.505,162.060 186.900 C 161.477 186.295,160.508 185.546,159.907 185.236 C 159.305 184.926,158.708 184.341,158.580 183.936 C 158.451 183.531,158.148 183.200,157.905 183.200 C 157.327 183.200,145.600 171.356,145.600 170.771 C 145.600 170.524,145.060 169.817,144.400 169.200 C 143.740 168.583,143.200 167.831,143.200 167.528 C 143.200 167.225,142.840 166.717,142.400 166.400 C 141.960 166.083,141.600 165.594,141.600 165.313 C 141.600 165.032,140.970 163.925,140.200 162.853 C 139.430 161.781,138.800 160.701,138.800 160.452 C 138.800 160.204,138.620 160.000,138.400 160.000 C 138.180 160.000,138.000 159.640,138.000 159.200 C 138.000 158.760,137.820 158.400,137.600 158.400 C 137.380 158.400,137.200 158.164,137.200 157.875 C 137.200 157.587,136.840 156.964,136.400 156.492 C 135.960 156.020,135.600 155.356,135.600 155.017 C 135.600 154.678,135.420 154.400,135.200 154.400 C 134.980 154.400,134.800 154.040,134.800 153.600 C 134.800 153.160,134.620 152.800,134.400 152.800 C 134.180 152.800,134.000 152.361,134.000 151.824 C 134.000 151.287,133.820 150.736,133.600 150.600 C 133.380 150.464,133.200 150.003,133.200 149.576 C 133.200 149.149,133.020 148.800,132.800 148.800 C 132.580 148.800,132.400 148.528,132.400 148.195 C 132.400 147.862,132.220 147.232,132.000 146.795 C 131.780 146.358,131.420 145.642,131.200 145.205 C 130.980 144.768,130.800 144.048,130.800 143.605 C 130.800 143.162,130.620 142.800,130.400 142.800 C 130.180 142.800,130.000 142.260,130.000 141.600 C 130.000 140.940,129.820 140.400,129.600 140.400 C 129.380 140.400,129.200 139.781,129.200 139.024 C 129.200 138.267,129.020 137.536,128.800 137.400 C 128.580 137.264,128.400 136.623,128.400 135.976 C 128.400 135.329,128.220 134.800,128.000 134.800 C 127.780 134.800,127.600 134.091,127.600 133.224 C 127.600 132.357,127.420 131.536,127.200 131.400 C 126.980 131.264,126.800 130.274,126.800 129.200 C 126.800 128.126,126.620 127.136,126.400 127.000 C 126.180 126.864,126.000 125.773,126.000 124.576 C 126.000 123.379,125.848 122.400,125.663 122.400 C 125.201 122.400,124.823 103.984,125.178 98.800 C 125.336 96.490,125.496 94.965,125.533 95.412 C 125.570 95.858,125.960 96.483,126.400 96.800 C 126.840 97.117,127.200 97.621,127.200 97.920 C 127.200 99.013,132.577 103.582,133.876 103.593 C 134.358 103.597,134.864 103.780,135.000 104.000 C 135.768 105.242,140.325 103.715,142.460 101.500 C 143.044 100.895,143.729 100.400,143.983 100.400 C 144.237 100.400,145.504 99.320,146.800 98.000 C 148.096 96.680,149.324 95.600,149.530 95.600 C 149.735 95.600,150.645 94.880,151.552 94.000 C 152.459 93.120,153.381 92.400,153.600 92.400 C 153.820 92.400,154.000 92.220,154.000 92.000 C 154.000 91.780,154.180 91.600,154.399 91.600 C 154.619 91.600,155.675 90.970,156.747 90.200 C 157.819 89.430,158.859 88.800,159.059 88.800 C 159.260 88.800,159.683 88.440,160.000 88.000 C 160.317 87.560,160.897 87.200,161.288 87.200 C 161.680 87.200,162.000 87.042,162.000 86.849 C 162.000 86.655,162.540 86.273,163.200 86.000 C 163.860 85.727,164.400 85.345,164.400 85.151 C 164.400 84.958,164.760 84.800,165.200 84.800 C 165.640 84.800,166.000 84.620,166.000 84.400 C 166.000 84.180,166.360 84.000,166.800 84.000 C 167.240 84.000,167.600 83.820,167.600 83.600 C 167.600 83.380,168.050 83.200,168.600 83.200 C 169.150 83.200,169.600 83.020,169.600 82.800 C 169.600 82.580,170.050 82.400,170.600 82.400 C 171.150 82.400,171.600 82.220,171.600 82.000 C 171.600 81.780,171.949 81.600,172.376 81.600 C 172.803 81.600,173.264 81.420,173.400 81.200 C 173.536 80.980,174.177 80.800,174.824 80.800 C 175.471 80.800,176.000 80.620,176.000 80.400 C 176.000 80.180,176.540 80.000,177.200 80.000 C 177.860 80.000,178.400 79.820,178.400 79.600 C 178.400 79.380,179.120 79.200,180.000 79.200 C 180.880 79.200,181.600 79.020,181.600 78.800 C 181.600 78.580,182.320 78.400,183.200 78.400 C 184.080 78.400,184.800 78.220,184.800 78.000 C 184.800 77.775,185.925 77.600,187.376 77.600 C 188.793 77.600,190.064 77.420,190.200 77.200 C 190.354 76.951,194.137 76.800,200.224 76.800 C 206.475 76.800,210.000 76.944,210.000 77.200 M144.800 206.400 C 144.800 206.620,144.474 206.800,144.075 206.800 C 143.677 206.800,142.964 207.160,142.492 207.600 C 142.020 208.040,141.356 208.400,141.017 208.400 C 140.678 208.400,140.400 208.580,140.400 208.800 C 140.400 209.020,140.040 209.200,139.600 209.200 C 139.160 209.200,138.800 209.380,138.800 209.600 C 138.800 209.820,138.509 210.000,138.154 210.000 C 137.438 210.000,133.477 212.026,133.267 212.500 C 133.193 212.665,132.803 212.800,132.400 212.800 C 131.997 212.800,131.607 212.935,131.533 213.100 C 131.460 213.265,130.500 213.848,129.400 214.395 C 128.300 214.942,127.310 215.482,127.200 215.595 C 126.818 215.987,124.596 217.251,123.900 217.471 C 123.515 217.593,123.200 217.852,123.200 218.047 C 123.200 218.241,122.840 218.400,122.400 218.400 C 121.960 218.400,121.600 218.580,121.600 218.800 C 121.600 219.020,121.240 219.200,120.800 219.200 C 120.360 219.200,120.000 219.380,120.000 219.600 C 120.000 219.820,119.640 220.000,119.200 220.000 C 118.760 220.000,118.400 220.180,118.400 220.400 C 118.400 220.620,118.040 220.800,117.600 220.800 C 117.160 220.800,116.800 220.980,116.800 221.200 C 116.800 221.420,116.530 221.600,116.200 221.600 C 115.870 221.600,115.600 221.780,115.600 222.000 C 115.600 222.220,115.330 222.400,115.000 222.400 C 114.670 222.400,114.400 222.580,114.400 222.800 C 114.400 223.020,114.040 223.200,113.600 223.200 C 113.160 223.200,112.800 223.380,112.800 223.600 C 112.800 223.820,112.440 224.000,112.000 224.000 C 111.560 224.000,111.200 224.180,111.200 224.400 C 111.200 224.620,110.930 224.800,110.600 224.800 C 110.270 224.800,110.000 224.980,110.000 225.200 C 110.000 225.420,109.640 225.600,109.200 225.600 C 108.760 225.600,108.400 225.780,108.400 226.000 C 108.400 226.220,108.040 226.400,107.600 226.400 C 107.160 226.400,106.800 226.577,106.800 226.792 C 106.800 227.008,106.305 227.306,105.700 227.454 C 105.095 227.602,104.510 227.832,104.400 227.965 C 104.290 228.097,102.985 228.833,101.500 229.599 C 100.015 230.365,98.800 231.128,98.800 231.296 C 98.800 231.463,98.440 231.600,98.000 231.600 C 97.560 231.600,97.200 231.746,97.200 231.925 C 97.200 232.104,96.570 232.498,95.800 232.800 C 95.030 233.102,94.400 233.496,94.400 233.675 C 94.400 233.854,94.164 234.000,93.875 234.000 C 93.587 234.000,92.964 234.360,92.492 234.800 C 92.020 235.240,91.356 235.600,91.017 235.600 C 90.678 235.600,90.400 235.780,90.400 236.000 C 90.400 236.220,90.040 236.400,89.600 236.400 C 89.160 236.400,88.800 236.580,88.800 236.800 C 88.800 237.020,88.564 237.200,88.275 237.200 C 87.987 237.200,87.364 237.560,86.892 238.000 C 86.420 238.440,85.756 238.800,85.417 238.800 C 85.078 238.800,84.800 238.980,84.800 239.200 C 84.800 239.420,84.440 239.600,84.000 239.600 C 83.560 239.600,83.200 239.780,83.200 240.000 C 83.200 240.220,82.880 240.400,82.488 240.400 C 82.097 240.400,81.517 240.760,81.200 241.200 C 80.883 241.640,80.303 242.000,79.912 242.000 C 79.520 242.000,79.200 242.180,79.200 242.400 C 79.200 242.620,79.007 242.800,78.771 242.800 C 78.536 242.800,78.073 243.070,77.743 243.400 C 77.413 243.730,76.796 244.000,76.371 244.000 C 75.947 244.000,75.600 244.158,75.600 244.351 C 75.600 244.545,75.060 244.927,74.400 245.200 C 73.740 245.473,73.200 245.855,73.200 246.049 C 73.200 246.242,72.840 246.400,72.400 246.400 C 71.960 246.400,71.600 246.558,71.600 246.751 C 71.600 246.945,71.060 247.327,70.400 247.600 C 69.740 247.873,69.200 248.255,69.200 248.449 C 69.200 248.642,68.880 248.800,68.488 248.800 C 68.097 248.800,67.517 249.160,67.200 249.600 C 66.883 250.040,66.407 250.400,66.142 250.400 C 65.336 250.400,59.200 256.784,59.200 257.623 C 59.200 257.874,58.660 258.583,58.000 259.200 C 57.340 259.817,56.800 260.519,56.800 260.760 C 56.800 261.002,56.620 261.200,56.400 261.200 C 56.180 261.200,56.000 261.470,56.000 261.800 C 56.000 262.130,55.820 262.400,55.600 262.400 C 55.380 262.400,55.200 262.670,55.200 263.000 C 55.200 263.330,55.020 263.600,54.800 263.600 C 54.580 263.600,54.400 263.960,54.400 264.400 C 54.400 264.840,54.248 265.200,54.063 265.200 C 53.877 265.200,53.318 266.055,52.819 267.100 C 52.320 268.145,51.752 269.313,51.556 269.695 C 51.360 270.077,51.200 270.662,51.200 270.995 C 51.200 271.328,51.020 271.600,50.800 271.600 C 50.580 271.600,50.400 271.960,50.400 272.400 C 50.400 272.840,50.220 273.200,50.000 273.200 C 49.780 273.200,49.600 273.560,49.600 274.000 C 49.600 274.440,49.420 274.800,49.200 274.800 C 48.980 274.800,48.800 275.160,48.800 275.600 C 48.800 276.040,48.665 276.401,48.500 276.403 C 48.139 276.407,47.200 278.345,47.200 279.085 C 47.200 279.374,47.034 279.923,46.832 280.305 C 46.630 280.687,46.075 282.080,45.600 283.400 C 45.125 284.720,44.579 286.099,44.386 286.465 C 44.194 286.831,43.915 288.046,43.767 289.165 C 43.618 290.284,43.340 291.200,43.148 291.200 C 42.957 291.200,42.800 291.740,42.800 292.400 C 42.800 293.060,42.620 293.600,42.400 293.600 C 42.180 293.600,42.000 294.129,42.000 294.776 C 42.000 295.423,41.820 296.064,41.600 296.200 C 41.380 296.336,41.200 296.977,41.200 297.624 C 41.200 298.271,41.020 298.800,40.800 298.800 C 40.580 298.800,40.400 299.329,40.400 299.976 C 40.400 300.623,40.220 301.264,40.000 301.400 C 39.780 301.536,39.600 302.256,39.600 303.000 C 39.600 303.744,39.420 304.464,39.200 304.600 C 38.980 304.736,38.800 305.546,38.800 306.400 C 38.800 307.254,38.620 308.064,38.400 308.200 C 38.180 308.336,38.000 309.056,38.000 309.800 C 38.000 310.544,37.820 311.264,37.600 311.400 C 37.380 311.536,37.200 312.357,37.200 313.224 C 37.200 314.091,37.020 314.800,36.800 314.800 C 36.580 314.800,36.400 315.790,36.400 317.000 C 36.400 318.210,36.220 319.200,36.000 319.200 C 35.780 319.200,35.600 320.100,35.600 321.200 C 35.600 322.300,35.420 323.200,35.200 323.200 C 34.980 323.200,34.800 324.064,34.800 325.120 C 34.800 326.176,34.604 327.236,34.365 327.475 C 34.052 327.788,34.052 327.985,34.365 328.178 C 34.604 328.326,34.800 329.337,34.800 330.424 C 34.800 331.511,34.980 332.400,35.200 332.400 C 35.420 332.400,35.600 332.760,35.600 333.200 C 35.600 333.640,35.780 334.000,36.000 334.000 C 36.220 334.000,36.400 334.360,36.400 334.800 C 36.400 335.240,36.580 335.600,36.800 335.600 C 37.020 335.600,37.200 335.870,37.200 336.200 C 37.200 336.530,37.380 336.800,37.600 336.800 C 37.820 336.800,38.000 337.030,38.000 337.312 C 38.000 337.593,38.360 338.083,38.800 338.400 C 39.240 338.717,39.600 339.207,39.600 339.488 C 39.600 339.770,39.780 340.000,40.000 340.000 C 40.220 340.000,40.400 340.258,40.400 340.573 C 40.400 340.888,40.715 341.253,41.100 341.383 C 41.485 341.513,42.250 342.165,42.800 342.833 C 44.734 345.181,48.360 348.800,48.778 348.800 C 49.010 348.800,49.200 348.980,49.200 349.200 C 49.200 349.420,49.380 349.600,49.600 349.600 C 49.819 349.600,50.741 350.320,51.648 351.200 C 52.555 352.080,53.505 352.800,53.760 352.800 C 54.015 352.800,54.483 353.160,54.800 353.600 C 55.117 354.040,55.657 354.400,56.000 354.400 C 56.343 354.400,56.883 354.760,57.200 355.200 C 57.517 355.640,58.014 356.000,58.305 356.000 C 58.596 356.000,59.191 356.333,59.628 356.740 C 60.065 357.148,61.453 357.997,62.711 358.628 C 63.970 359.259,65.060 359.915,65.133 360.087 C 65.207 360.259,65.612 360.400,66.033 360.400 C 66.455 360.400,66.800 360.580,66.800 360.800 C 66.800 361.020,67.160 361.200,67.600 361.200 C 68.040 361.200,68.400 361.380,68.400 361.600 C 68.400 361.820,68.760 362.000,69.200 362.000 C 69.640 362.000,70.000 362.180,70.000 362.400 C 70.000 362.620,70.360 362.800,70.800 362.800 C 71.240 362.800,71.600 362.980,71.600 363.200 C 71.600 363.420,71.960 363.600,72.400 363.600 C 72.840 363.600,73.200 363.741,73.200 363.913 C 73.200 364.085,74.055 364.474,75.100 364.778 C 76.145 365.082,77.090 365.436,77.200 365.565 C 77.654 366.098,79.243 366.800,79.995 366.800 C 80.438 366.800,80.800 366.980,80.800 367.200 C 80.800 367.420,81.149 367.600,81.576 367.600 C 82.003 367.600,82.464 367.780,82.600 368.000 C 82.736 368.220,83.287 368.400,83.824 368.400 C 84.361 368.400,84.800 368.580,84.800 368.800 C 84.800 369.020,85.340 369.200,86.000 369.200 C 86.660 369.200,87.200 369.380,87.200 369.600 C 87.200 369.820,87.740 370.000,88.400 370.000 C 89.060 370.000,89.600 370.180,89.600 370.400 C 89.600 370.620,90.140 370.800,90.800 370.800 C 91.460 370.800,92.000 370.980,92.000 371.200 C 92.000 371.420,92.414 371.600,92.920 371.600 C 93.426 371.600,94.034 371.794,94.271 372.031 C 94.508 372.268,95.219 372.403,95.851 372.331 L 97.000 372.200 97.105 356.500 C 97.171 346.493,97.353 340.800,97.605 340.800 C 97.822 340.800,98.000 340.260,98.000 339.600 C 98.000 338.940,98.146 338.400,98.325 338.400 C 98.504 338.400,98.898 337.770,99.200 337.000 C 99.502 336.230,99.896 335.600,100.075 335.600 C 100.254 335.600,100.400 335.327,100.400 334.993 C 100.400 334.321,105.344 329.200,105.993 329.200 C 106.217 329.200,106.400 329.020,106.400 328.800 C 106.400 328.580,106.636 328.400,106.925 328.400 C 107.213 328.400,107.836 328.040,108.308 327.600 C 108.780 327.160,109.703 326.800,110.360 326.800 C 111.016 326.800,111.664 326.620,111.800 326.400 C 111.936 326.180,113.016 326.000,114.200 326.000 C 115.384 326.000,116.464 325.820,116.600 325.600 C 116.762 325.337,131.130 325.200,158.400 325.200 C 185.670 325.200,200.038 325.337,200.200 325.600 C 200.336 325.820,201.517 326.000,202.824 326.000 C 204.141 326.000,205.200 326.178,205.200 326.400 C 205.200 326.620,205.740 326.800,206.400 326.800 C 207.060 326.800,207.600 326.980,207.600 327.200 C 207.600 327.420,207.960 327.600,208.400 327.600 C 208.840 327.600,209.200 327.780,209.200 328.000 C 209.200 328.220,209.377 328.400,209.593 328.400 C 209.995 328.400,211.779 329.882,213.333 331.507 C 216.255 334.562,216.800 335.235,216.800 335.787 C 216.800 336.124,216.980 336.400,217.200 336.400 C 217.420 336.400,217.600 336.760,217.600 337.200 C 217.600 337.640,217.780 338.000,218.000 338.000 C 218.220 338.000,218.400 338.439,218.400 338.976 C 218.400 339.513,218.580 340.064,218.800 340.200 C 219.020 340.336,219.200 341.427,219.200 342.624 C 219.200 343.821,219.380 344.800,219.600 344.800 C 219.820 344.800,220.000 345.520,220.000 346.400 L 220.000 348.000 239.000 348.000 C 251.400 348.000,258.000 347.861,258.000 347.600 C 258.000 347.380,258.720 347.200,259.600 347.200 C 260.480 347.200,261.200 347.040,261.200 346.844 C 261.200 346.648,261.875 346.373,262.700 346.232 C 266.351 345.610,266.800 345.493,266.800 345.156 C 266.800 344.960,267.520 344.800,268.400 344.800 C 269.280 344.800,270.000 344.620,270.000 344.400 C 270.000 344.180,270.619 344.000,271.376 344.000 C 272.133 344.000,272.864 343.820,273.000 343.600 C 273.136 343.380,273.867 343.200,274.624 343.200 C 275.381 343.200,276.000 343.020,276.000 342.800 C 276.000 342.580,276.720 342.400,277.600 342.400 C 278.480 342.400,279.200 342.220,279.200 342.000 C 279.200 341.780,279.729 341.600,280.376 341.600 C 281.023 341.600,281.664 341.780,281.800 342.000 C 281.936 342.220,283.027 342.400,284.224 342.400 C 285.421 342.400,286.400 342.580,286.400 342.800 C 286.400 343.020,287.289 343.200,288.376 343.200 C 289.463 343.200,290.464 343.380,290.600 343.600 C 290.736 343.820,291.726 344.000,292.800 344.000 C 293.874 344.000,294.864 344.180,295.000 344.400 C 295.136 344.620,296.137 344.800,297.224 344.800 C 298.311 344.800,299.200 344.980,299.200 345.200 C 299.200 345.420,300.190 345.600,301.400 345.600 C 302.610 345.600,303.600 345.780,303.600 346.000 C 303.600 346.220,304.489 346.400,305.576 346.400 C 306.663 346.400,307.664 346.580,307.800 346.800 C 307.936 347.020,309.027 347.200,310.224 347.200 C 311.421 347.200,312.400 347.380,312.400 347.600 C 312.400 347.820,313.289 348.000,314.376 348.000 C 315.463 348.000,316.464 348.180,316.600 348.400 C 316.736 348.620,317.377 348.800,318.024 348.800 C 318.671 348.800,319.200 348.980,319.200 349.200 C 319.200 349.420,319.560 349.600,320.000 349.600 C 320.440 349.600,320.800 349.750,320.800 349.932 C 320.800 350.115,321.295 350.520,321.900 350.832 C 323.281 351.545,324.000 352.215,324.000 352.788 C 324.000 353.033,324.360 353.620,324.800 354.092 C 325.240 354.564,325.600 355.457,325.600 356.075 C 325.600 356.694,325.780 357.200,326.000 357.200 C 326.233 357.200,326.400 358.533,326.400 360.400 C 326.400 363.547,326.417 363.600,327.400 363.600 C 327.950 363.600,328.400 363.420,328.400 363.200 C 328.400 362.980,328.760 362.800,329.200 362.800 C 329.640 362.800,330.000 362.620,330.000 362.400 C 330.000 362.180,330.360 362.000,330.800 362.000 C 331.240 362.000,331.600 361.820,331.600 361.600 C 331.600 361.380,331.960 361.200,332.400 361.200 C 332.840 361.200,333.200 361.054,333.200 360.875 C 333.200 360.696,333.830 360.302,334.600 360.000 C 335.370 359.698,336.000 359.324,336.000 359.169 C 336.000 359.014,336.474 358.768,337.053 358.623 C 338.145 358.348,342.899 355.303,343.133 354.728 C 343.207 354.547,343.572 354.400,343.945 354.400 C 344.318 354.400,344.883 354.040,345.200 353.600 C 345.517 353.160,345.985 352.800,346.240 352.800 C 346.495 352.800,347.445 352.080,348.352 351.200 C 349.259 350.320,350.187 349.600,350.414 349.600 C 351.114 349.600,360.400 340.008,360.400 339.285 C 360.400 339.116,360.760 338.717,361.200 338.400 C 361.640 338.083,362.000 337.593,362.000 337.312 C 362.000 337.030,362.180 336.800,362.400 336.800 C 362.620 336.800,362.800 336.530,362.800 336.200 C 362.800 335.870,362.980 335.600,363.200 335.600 C 363.420 335.600,363.600 335.240,363.600 334.800 C 363.600 334.360,363.780 334.000,364.000 334.000 C 364.220 334.000,364.400 333.640,364.400 333.200 C 364.400 332.760,364.580 332.400,364.800 332.400 C 365.020 332.400,365.200 331.536,365.200 330.480 C 365.200 329.424,365.425 328.321,365.700 328.030 C 366.100 327.606,366.100 327.463,365.700 327.317 C 365.385 327.201,365.200 326.340,365.200 324.990 C 365.200 323.812,365.020 322.736,364.800 322.600 C 364.580 322.464,364.400 321.463,364.400 320.376 C 364.400 319.289,364.220 318.400,364.000 318.400 C 363.780 318.400,363.600 317.500,363.600 316.400 C 363.600 315.300,363.420 314.400,363.200 314.400 C 362.980 314.400,362.800 313.590,362.800 312.600 C 362.800 311.610,362.620 310.800,362.400 310.800 C 362.180 310.800,362.000 310.001,362.000 309.024 C 362.000 308.047,361.820 307.136,361.600 307.000 C 361.380 306.864,361.200 306.043,361.200 305.176 C 361.200 304.309,361.020 303.600,360.800 303.600 C 360.580 303.600,360.400 302.981,360.400 302.224 C 360.400 301.467,360.220 300.736,360.000 300.600 C 359.780 300.464,359.600 299.823,359.600 299.176 C 359.600 298.529,359.441 298.000,359.247 298.000 C 359.052 298.000,358.768 296.832,358.615 295.404 C 358.462 293.977,358.171 292.706,357.969 292.581 C 357.766 292.455,357.600 291.924,357.600 291.400 C 357.600 290.876,357.420 290.336,357.200 290.200 C 356.980 290.064,356.800 289.601,356.800 289.171 C 356.800 288.741,356.638 288.077,356.439 287.695 C 356.240 287.313,355.848 286.190,355.567 285.200 C 355.071 283.454,353.917 280.522,353.167 279.105 C 352.965 278.723,352.800 278.138,352.800 277.805 C 352.800 277.472,352.620 277.200,352.400 277.200 C 352.180 277.200,352.000 276.840,352.000 276.400 C 352.000 275.960,351.820 275.600,351.600 275.600 C 351.380 275.600,351.200 275.161,351.200 274.624 C 351.200 274.087,351.020 273.536,350.800 273.400 C 350.580 273.264,350.400 272.803,350.400 272.376 C 350.400 271.949,350.220 271.600,350.000 271.600 C 349.780 271.600,349.600 271.364,349.600 271.075 C 349.600 270.787,349.240 270.164,348.800 269.692 C 348.360 269.220,348.000 268.556,348.000 268.217 C 348.000 267.878,347.820 267.600,347.600 267.600 C 347.380 267.600,347.200 267.240,347.200 266.800 C 347.200 266.360,347.020 266.000,346.800 266.000 C 346.580 266.000,346.400 265.640,346.400 265.200 C 346.400 264.760,346.220 264.400,346.000 264.400 C 345.780 264.400,345.600 264.164,345.600 263.875 C 345.600 263.587,345.240 262.964,344.800 262.492 C 344.360 262.020,344.000 261.534,344.000 261.413 C 344.000 261.292,343.460 260.628,342.800 259.937 C 342.140 259.246,341.600 258.453,341.600 258.174 C 341.600 257.514,334.535 250.400,333.879 250.400 C 333.603 250.400,333.117 250.040,332.800 249.600 C 332.483 249.160,331.986 248.800,331.695 248.800 C 331.404 248.800,330.780 248.440,330.308 248.000 C 329.836 247.560,329.213 247.200,328.925 247.200 C 328.636 247.200,328.400 247.020,328.400 246.800 C 328.400 246.580,328.122 246.400,327.783 246.400 C 327.444 246.400,326.806 246.064,326.365 245.653 C 325.924 245.242,324.896 244.567,324.081 244.153 C 323.267 243.739,322.540 243.265,322.467 243.100 C 322.393 242.935,322.071 242.800,321.750 242.800 C 321.429 242.800,320.780 242.440,320.308 242.000 C 319.836 241.560,319.213 241.200,318.925 241.200 C 318.636 241.200,318.400 241.020,318.400 240.800 C 318.400 240.580,318.040 240.400,317.600 240.400 C 317.160 240.400,316.800 240.220,316.800 240.000 C 316.800 239.780,316.480 239.600,316.088 239.600 C 315.697 239.600,315.117 239.240,314.800 238.800 C 314.483 238.360,313.903 238.000,313.512 238.000 C 313.120 238.000,312.800 237.820,312.800 237.600 C 312.800 237.380,312.440 237.200,312.000 237.200 C 311.560 237.200,311.200 237.020,311.200 236.800 C 311.200 236.580,310.922 236.400,310.583 236.400 C 310.244 236.400,309.580 236.040,309.108 235.600 C 308.636 235.160,308.013 234.800,307.725 234.800 C 307.436 234.800,307.200 234.620,307.200 234.400 C 307.200 234.180,306.930 234.000,306.600 234.000 C 306.270 234.000,306.000 233.820,306.000 233.600 C 306.000 233.380,305.640 233.200,305.200 233.200 C 304.760 233.200,304.400 233.020,304.400 232.800 C 304.400 232.580,304.040 232.400,303.600 232.400 C 303.160 232.400,302.800 232.255,302.800 232.079 C 302.800 231.902,301.903 231.317,300.806 230.779 C 299.710 230.240,298.810 229.665,298.806 229.500 C 298.803 229.335,298.455 229.200,298.033 229.200 C 297.612 229.200,297.207 229.065,297.133 228.900 C 296.923 228.427,294.544 227.200,293.838 227.200 C 293.487 227.200,293.200 227.020,293.200 226.800 C 293.200 226.580,292.840 226.400,292.400 226.400 C 291.960 226.400,291.600 226.220,291.600 226.000 C 291.600 225.780,291.330 225.600,291.000 225.600 C 290.670 225.600,290.400 225.420,290.400 225.200 C 290.400 224.980,290.040 224.800,289.600 224.800 C 289.160 224.800,288.800 224.620,288.800 224.400 C 288.800 224.180,288.440 224.000,288.000 224.000 C 287.560 224.000,287.200 223.820,287.200 223.600 C 287.200 223.380,286.930 223.200,286.600 223.200 C 286.270 223.200,286.000 223.020,286.000 222.800 C 286.000 222.580,285.730 222.400,285.400 222.400 C 285.070 222.400,284.800 222.220,284.800 222.000 C 284.800 221.780,284.440 221.600,284.000 221.600 C 283.560 221.600,283.200 221.420,283.200 221.200 C 283.200 220.980,282.840 220.800,282.400 220.800 C 281.960 220.800,281.600 220.620,281.600 220.400 C 281.600 220.180,281.240 220.000,280.800 220.000 C 280.360 220.000,280.000 219.820,280.000 219.600 C 280.000 219.380,279.640 219.200,279.200 219.200 C 278.760 219.200,278.400 219.020,278.400 218.800 C 278.400 218.580,278.122 218.400,277.783 218.400 C 277.444 218.400,276.780 218.040,276.308 217.600 C 275.836 217.160,275.213 216.800,274.925 216.800 C 274.636 216.800,274.399 216.665,274.399 216.500 C 274.398 216.335,273.408 215.750,272.200 215.200 C 270.992 214.650,270.002 214.065,270.001 213.900 C 270.001 213.735,269.640 213.600,269.200 213.600 C 268.760 213.600,268.400 213.420,268.400 213.200 C 268.400 212.980,268.055 212.800,267.633 212.800 C 267.212 212.800,266.807 212.643,266.733 212.451 C 266.553 211.979,262.581 210.000,261.813 210.000 C 261.476 210.000,261.200 209.820,261.200 209.600 C 261.200 209.380,260.840 209.200,260.400 209.200 C 259.960 209.200,259.600 209.020,259.600 208.800 C 259.600 208.580,259.330 208.400,259.000 208.400 C 258.670 208.400,258.399 208.265,258.397 208.100 C 258.393 207.741,256.456 206.800,255.720 206.800 C 255.434 206.800,255.200 206.620,255.200 206.400 C 255.200 205.607,250.565 205.953,248.838 206.874 C 247.937 207.355,247.200 207.895,247.200 208.074 C 247.200 208.253,246.930 208.400,246.600 208.400 C 246.270 208.400,246.000 208.580,246.000 208.800 C 246.000 209.020,245.730 209.200,245.400 209.200 C 245.070 209.200,244.800 209.339,244.800 209.509 C 244.800 209.679,244.170 210.157,243.400 210.572 C 242.630 210.987,242.000 211.456,242.000 211.614 C 242.000 211.773,241.460 212.127,240.800 212.400 C 240.140 212.673,239.600 213.055,239.600 213.249 C 239.600 213.442,239.240 213.600,238.800 213.600 C 238.360 213.600,238.000 213.780,238.000 214.000 C 238.000 214.220,237.640 214.400,237.200 214.400 C 236.760 214.400,236.399 214.535,236.397 214.700 C 236.395 214.865,235.990 215.187,235.497 215.417 C 235.004 215.646,233.790 216.253,232.800 216.767 C 229.761 218.343,229.629 218.400,229.005 218.400 C 228.672 218.400,228.400 218.580,228.400 218.800 C 228.400 219.020,227.950 219.200,227.400 219.200 C 226.850 219.200,226.400 219.380,226.400 219.600 C 226.400 219.820,226.040 220.000,225.600 220.000 C 225.160 220.000,224.800 220.180,224.800 220.400 C 224.800 220.620,224.181 220.800,223.424 220.800 C 222.667 220.800,221.936 220.980,221.800 221.200 C 221.664 221.420,221.023 221.600,220.376 221.600 C 219.729 221.600,219.200 221.780,219.200 222.000 C 219.200 222.220,218.581 222.400,217.824 222.400 C 217.067 222.400,216.336 222.580,216.200 222.800 C 216.064 223.020,215.603 223.200,215.176 223.200 C 214.749 223.200,214.400 223.380,214.400 223.600 C 214.400 223.820,214.070 224.000,213.668 224.000 C 213.265 224.000,212.680 224.495,212.368 225.100 C 212.055 225.705,211.492 226.541,211.116 226.959 C 210.739 227.376,210.314 228.501,210.170 229.459 C 210.027 230.416,209.750 231.200,209.555 231.200 C 209.360 231.200,209.200 231.650,209.200 232.200 C 209.200 232.750,209.020 233.200,208.800 233.200 C 208.580 233.200,208.400 233.740,208.400 234.400 C 208.400 235.060,208.220 235.600,208.000 235.600 C 207.780 235.600,207.600 235.949,207.600 236.376 C 207.600 236.803,207.420 237.264,207.200 237.400 C 206.980 237.536,206.800 238.087,206.800 238.624 C 206.800 239.161,206.620 239.600,206.400 239.600 C 206.180 239.600,206.000 240.140,206.000 240.800 C 206.000 241.460,205.820 242.000,205.600 242.000 C 205.380 242.000,205.200 242.360,205.200 242.800 C 205.200 243.240,205.020 243.600,204.800 243.600 C 204.580 243.600,204.400 243.962,204.400 244.405 C 204.400 244.848,204.241 245.523,204.047 245.905 C 203.852 246.287,203.471 247.140,203.200 247.800 C 202.929 248.460,202.548 249.313,202.353 249.695 C 202.159 250.077,202.000 250.752,202.000 251.195 C 202.000 251.638,201.820 252.000,201.600 252.000 C 201.380 252.000,201.200 252.439,201.200 252.976 C 201.200 253.513,201.020 254.064,200.800 254.200 C 200.580 254.336,200.400 254.797,200.400 255.224 C 200.400 255.651,200.220 256.000,200.000 256.000 C 199.780 256.000,199.600 255.561,199.600 255.024 C 199.600 254.487,199.420 253.936,199.200 253.800 C 198.980 253.664,198.800 253.203,198.800 252.776 C 198.800 252.349,198.620 252.000,198.400 252.000 C 198.180 252.000,198.000 251.460,198.000 250.800 C 198.000 250.140,197.820 249.600,197.600 249.600 C 197.380 249.600,197.200 249.328,197.200 248.995 C 197.200 248.662,197.020 248.032,196.800 247.595 C 196.580 247.158,196.220 246.442,196.000 246.005 C 195.780 245.568,195.600 244.848,195.600 244.405 C 195.600 243.962,195.420 243.600,195.200 243.600 C 194.980 243.600,194.800 243.240,194.800 242.800 C 194.800 242.360,194.620 242.000,194.400 242.000 C 194.180 242.000,194.000 241.460,194.000 240.800 C 194.000 240.140,193.820 239.600,193.600 239.600 C 193.380 239.600,193.200 239.060,193.200 238.400 C 193.200 237.740,193.020 237.200,192.800 237.200 C 192.580 237.200,192.400 236.840,192.400 236.400 C 192.400 235.960,192.244 235.600,192.054 235.600 C 191.864 235.600,191.598 234.794,191.463 233.809 C 191.328 232.824,191.034 231.654,190.809 231.209 C 190.584 230.764,190.220 230.042,190.000 229.605 C 189.780 229.168,189.600 228.488,189.600 228.094 C 189.600 227.699,189.240 227.117,188.800 226.800 C 188.360 226.483,188.000 225.980,188.000 225.683 C 188.000 224.951,187.000 224.000,186.229 224.000 C 185.883 224.000,185.600 223.820,185.600 223.600 C 185.600 223.380,185.251 223.200,184.824 223.200 C 184.397 223.200,183.936 223.020,183.800 222.800 C 183.664 222.580,182.933 222.400,182.176 222.400 C 181.419 222.400,180.800 222.220,180.800 222.000 C 180.800 221.780,180.271 221.600,179.624 221.600 C 178.977 221.600,178.336 221.420,178.200 221.200 C 178.064 220.980,177.333 220.800,176.576 220.800 C 175.819 220.800,175.200 220.620,175.200 220.400 C 175.200 220.180,174.840 220.000,174.400 220.000 C 173.960 220.000,173.600 219.820,173.600 219.600 C 173.600 219.380,173.150 219.200,172.600 219.200 C 172.050 219.200,171.600 219.020,171.600 218.800 C 171.600 218.580,171.240 218.400,170.800 218.400 C 170.360 218.400,170.000 218.220,170.000 218.000 C 170.000 217.780,169.595 217.596,169.100 217.591 C 168.605 217.586,167.750 217.230,167.200 216.800 C 166.650 216.370,165.975 216.014,165.700 216.009 C 165.425 216.004,165.200 215.820,165.200 215.600 C 165.200 215.380,164.840 215.200,164.400 215.200 C 163.960 215.200,163.600 215.020,163.600 214.800 C 163.600 214.580,163.240 214.400,162.800 214.400 C 162.360 214.400,162.000 214.220,162.000 214.000 C 162.000 213.780,161.655 213.600,161.233 213.600 C 160.812 213.600,160.407 213.465,160.333 213.300 C 160.260 213.135,159.120 212.280,157.800 211.400 C 156.480 210.520,155.340 209.665,155.267 209.500 C 155.193 209.335,154.878 209.200,154.567 209.200 C 154.255 209.200,154.000 209.020,154.000 208.800 C 154.000 208.580,153.730 208.400,153.400 208.400 C 153.070 208.400,152.800 208.253,152.800 208.074 C 152.800 207.895,152.063 207.355,151.162 206.874 C 149.435 205.953,144.800 205.607,144.800 206.400 M112.400 336.000 C 112.400 336.220,112.130 336.400,111.800 336.400 C 111.470 336.400,111.200 336.580,111.200 336.800 C 111.200 337.020,111.012 337.200,110.782 337.200 C 110.140 337.200,108.400 339.086,108.400 339.782 C 108.400 340.122,108.220 340.400,108.000 340.400 C 107.780 340.400,107.600 340.760,107.600 341.200 C 107.600 341.640,107.420 342.000,107.200 342.000 C 106.937 342.000,106.800 350.933,106.800 368.000 C 106.800 385.067,106.937 394.000,107.200 394.000 C 107.420 394.000,107.600 394.360,107.600 394.800 C 107.600 395.240,107.780 395.600,108.000 395.600 C 108.220 395.600,108.400 395.878,108.400 396.218 C 108.400 396.895,110.132 398.800,110.748 398.800 C 110.960 398.800,111.208 399.025,111.300 399.300 C 111.432 399.695,121.159 399.822,157.778 399.905 L 204.089 400.010 205.483 399.149 C 207.468 397.922,208.800 396.490,208.800 395.582 C 208.800 395.152,208.980 394.800,209.200 394.800 C 209.420 394.800,209.600 394.001,209.600 393.024 C 209.600 392.047,209.780 391.136,210.000 391.000 C 210.239 390.852,210.400 388.263,210.400 384.576 L 210.400 378.400 234.800 378.400 C 250.800 378.400,259.200 378.538,259.200 378.800 C 259.200 379.020,259.729 379.200,260.376 379.200 C 261.023 379.200,261.664 379.380,261.800 379.600 C 261.936 379.820,262.566 380.000,263.200 380.000 C 263.834 380.000,264.464 380.180,264.600 380.400 C 264.736 380.620,265.467 380.800,266.224 380.800 C 266.981 380.800,267.600 380.980,267.600 381.200 C 267.600 381.420,268.320 381.600,269.200 381.600 C 270.080 381.600,270.800 381.780,270.800 382.000 C 270.800 382.220,271.520 382.400,272.400 382.400 C 273.280 382.400,274.000 382.580,274.000 382.800 C 274.000 383.020,274.529 383.200,275.176 383.200 C 275.823 383.200,276.464 383.380,276.600 383.600 C 276.736 383.820,277.366 384.000,278.000 384.000 C 278.634 384.000,279.264 384.180,279.400 384.400 C 279.536 384.620,280.087 384.800,280.624 384.800 C 281.161 384.800,281.600 384.620,281.600 384.400 C 281.600 384.180,282.489 384.000,283.576 384.000 C 284.663 384.000,285.664 383.820,285.800 383.600 C 285.936 383.380,286.937 383.200,288.024 383.200 C 289.111 383.200,290.000 383.037,290.000 382.837 C 290.000 382.496,290.701 382.381,296.500 381.769 C 297.765 381.635,298.800 381.363,298.800 381.163 C 298.800 380.963,299.790 380.800,301.000 380.800 C 302.210 380.800,303.200 380.620,303.200 380.400 C 303.200 380.180,304.089 380.000,305.176 380.000 C 306.263 380.000,307.264 379.820,307.400 379.600 C 307.536 379.380,308.526 379.200,309.600 379.200 C 310.674 379.200,311.664 379.020,311.800 378.800 C 311.936 378.580,312.859 378.400,313.852 378.400 C 316.823 378.400,316.800 378.480,316.800 368.000 C 316.800 357.520,316.823 357.600,313.852 357.600 C 312.859 357.600,311.936 357.420,311.800 357.200 C 311.664 356.980,310.674 356.800,309.600 356.800 C 308.526 356.800,307.536 356.620,307.400 356.400 C 307.264 356.180,306.263 356.000,305.176 356.000 C 304.089 356.000,303.200 355.820,303.200 355.600 C 303.200 355.380,302.210 355.200,301.000 355.200 C 299.790 355.200,298.800 355.037,298.800 354.837 C 298.800 354.637,297.810 354.367,296.600 354.237 C 295.390 354.107,293.410 353.893,292.200 353.763 C 290.990 353.633,290.000 353.363,290.000 353.163 C 290.000 352.963,289.111 352.800,288.024 352.800 C 286.937 352.800,285.936 352.620,285.800 352.400 C 285.664 352.180,284.663 352.000,283.576 352.000 C 282.489 352.000,281.600 351.820,281.600 351.600 C 281.600 351.380,281.161 351.200,280.624 351.200 C 280.087 351.200,279.536 351.380,279.400 351.600 C 279.264 351.820,278.634 352.000,278.000 352.000 C 277.366 352.000,276.736 352.180,276.600 352.400 C 276.464 352.620,275.823 352.800,275.176 352.800 C 274.529 352.800,274.000 352.980,274.000 353.200 C 274.000 353.420,273.280 353.600,272.400 353.600 C 271.520 353.600,270.800 353.780,270.800 354.000 C 270.800 354.220,270.080 354.400,269.200 354.400 C 268.320 354.400,267.600 354.580,267.600 354.800 C 267.600 355.020,266.981 355.200,266.224 355.200 C 265.467 355.200,264.736 355.380,264.600 355.600 C 264.464 355.820,263.733 356.000,262.976 356.000 C 262.219 356.000,261.600 356.180,261.600 356.400 C 261.600 356.620,261.060 356.800,260.400 356.800 C 259.740 356.800,259.200 356.980,259.200 357.200 C 259.200 357.462,250.800 357.600,234.800 357.600 L 210.400 357.600 210.400 351.424 C 210.400 347.737,210.239 345.148,210.000 345.000 C 209.780 344.864,209.600 343.953,209.600 342.976 C 209.600 341.999,209.420 341.200,209.200 341.200 C 208.980 341.200,208.800 340.868,208.800 340.461 C 208.800 339.501,207.842 338.451,205.528 336.875 L 203.656 335.600 158.028 335.600 C 127.876 335.600,112.400 335.736,112.400 336.000 M186.400 351.502 C 186.400 351.669,186.940 352.044,187.600 352.336 C 188.331 352.659,188.800 353.167,188.800 353.634 C 188.800 354.055,188.980 354.400,189.200 354.400 C 189.420 354.400,189.600 355.120,189.600 356.000 C 189.600 356.880,189.420 357.600,189.200 357.600 C 188.980 357.600,188.800 357.960,188.800 358.400 C 188.800 358.840,188.545 359.200,188.233 359.200 C 187.922 359.200,187.592 359.425,187.500 359.700 C 187.369 360.094,181.222 360.200,158.553 360.200 L 129.773 360.200 128.287 358.713 C 125.913 356.340,126.569 353.977,130.227 351.724 C 131.107 351.181,186.400 350.964,186.400 351.502 M186.400 375.600 C 186.400 375.820,186.670 376.000,187.000 376.000 C 187.330 376.000,187.600 376.180,187.600 376.400 C 187.600 376.620,187.870 376.800,188.200 376.800 C 188.533 376.800,188.800 377.156,188.800 377.600 C 188.800 378.040,188.980 378.400,189.200 378.400 C 189.420 378.400,189.600 379.120,189.600 380.000 C 189.600 380.880,189.420 381.600,189.200 381.600 C 188.980 381.600,188.800 381.960,188.800 382.400 C 188.800 382.840,188.575 383.204,188.300 383.209 C 188.025 383.214,187.350 383.570,186.800 384.000 C 185.545 384.982,132.000 385.266,130.320 384.300 C 125.859 381.734,125.823 378.437,130.227 375.724 C 131.234 375.103,186.400 374.982,186.400 375.600 " stroke="#040404" fill="none" stroke-width="3" class="PTpZFNds_0"></path></g><style data-made-with="vivus-instant">.PTpZFNds_0{stroke-dasharray:3038 3040;stroke-dashoffset:3039;animation:PTpZFNds_draw_0 9200ms linear 0ms infinite,PTpZFNds_fade 9200ms linear 0ms infinite;}@keyframes PTpZFNds_draw{100%{stroke-dashoffset:0;}}@keyframes PTpZFNds_fade{0%{stroke-opacity:1;}95.65217391304348%{stroke-opacity:1;}100%{stroke-opacity:0;}}@keyframes PTpZFNds_draw_0{8.695652173913043%{stroke-dashoffset: 3039}63.04347826086957%{ stroke-dashoffset: 0;}100%{ stroke-dashoffset: 0;}}</style></svg>