<svg id="svg" version="1.1" width="400" height="400" xmlns="http://www.w3.org/2000/svg" xmlns:xlink="http://www.w3.org/1999/xlink" style=""><g id="svgg"><path id="path0" d="M104.957 21.830 C 102.656 22.446,100.526 24.052,99.058 26.278 C 97.012 29.381,97.100 341.470,99.147 344.828 C 102.230 349.884,101.116 349.740,137.182 349.742 C 180.565 349.744,176.755 352.121,177.250 324.740 C 177.586 306.103,177.605 305.909,179.409 302.059 C 188.835 281.948,215.921 281.835,225.264 301.868 L 227.165 305.942 227.504 324.618 C 228.004 352.081,224.264 349.745,267.744 349.745 L 299.969 349.745 302.214 348.217 C 303.449 347.377,305.098 345.826,305.880 344.772 L 307.301 342.855 307.301 185.859 C 307.301 9.241,307.799 26.063,302.472 22.951 C 300.359 21.717,109.429 20.634,104.957 21.830 M173.651 59.735 C 177.796 62.262,178.268 64.104,178.268 77.759 C 178.268 96.477,177.616 97.115,158.471 97.111 C 139.892 97.107,139.225 96.437,139.222 77.748 C 139.218 58.725,139.529 58.414,158.574 58.411 C 170.178 58.409,171.696 58.543,173.651 59.735 M262.335 61.070 L 265.195 63.737 265.385 76.860 C 265.669 96.534,265.125 97.107,246.169 97.111 C 227.290 97.115,226.136 96.000,226.161 77.785 C 226.186 59.205,227.015 58.410,246.376 58.407 L 259.475 58.404 262.335 61.070 M172.892 140.989 C 177.612 143.229,178.268 145.458,178.268 159.253 C 178.268 178.269,177.927 178.601,158.378 178.605 L 145.278 178.608 142.419 175.940 L 139.559 173.272 139.559 159.346 L 139.559 145.420 141.596 143.268 C 144.581 140.114,145.221 139.988,158.471 139.941 C 168.262 139.906,171.035 140.108,172.892 140.989 M260.617 141.253 C 265.246 144.075,265.597 145.466,265.385 160.152 L 265.195 173.275 262.335 175.942 L 259.475 178.608 246.376 178.605 C 227.014 178.602,226.176 177.798,226.176 159.253 C 226.176 140.806,227.094 139.903,245.840 139.903 C 257.182 139.903,258.619 140.035,260.617 141.253 M172.892 222.483 C 177.485 224.663,178.242 227.048,178.473 240.068 C 178.813 259.194,177.021 260.986,157.895 260.647 C 139.659 260.323,139.071 259.665,139.365 239.941 L 139.559 226.911 141.596 224.760 C 144.581 221.609,145.222 221.482,158.471 221.435 C 168.262 221.400,171.035 221.602,172.892 222.483 M260.617 222.747 C 265.081 225.468,265.529 227.101,265.532 240.644 C 265.536 259.479,264.779 260.310,247.284 260.671 C 228.084 261.068,226.601 259.753,226.261 242.043 C 226.002 228.577,226.800 225.346,231.023 222.771 C 234.411 220.706,257.239 220.687,260.617 222.747 M76.740 357.385 C 70.539 361.618,70.539 370.470,76.740 374.703 L 78.978 376.231 202.172 376.231 C 337.892 376.231,327.588 376.569,330.835 372.009 C 333.035 368.919,333.035 363.169,330.835 360.079 C 327.588 355.519,337.892 355.857,202.172 355.857 L 78.978 355.857 76.740 357.385 " stroke="#000000" fill="none" stroke-width="3" class="XLSkdCae_0"></path></g><style data-made-with="vivus-instant">.XLSkdCae_0{stroke-dasharray:2534 2536;stroke-dashoffset:2535;animation:XLSkdCae_draw_0 7200ms linear 0ms infinite,XLSkdCae_fade 7200ms linear 0ms infinite;}@keyframes XLSkdCae_draw{100%{stroke-dashoffset:0;}}@keyframes XLSkdCae_fade{0%{stroke-opacity:1;}94.44444444444444%{stroke-opacity:1;}100%{stroke-opacity:0;}}@keyframes XLSkdCae_draw_0{11.11111111111111%{stroke-dashoffset: 2535}52.77777777777778%{ stroke-dashoffset: 0;}100%{ stroke-dashoffset: 0;}}</style></svg>