<svg id="svg" version="1.1" width="400" height="400" xmlns="http://www.w3.org/2000/svg" xmlns:xlink="http://www.w3.org/1999/xlink" style=""><g id="svgg"><path id="path0" d="M173.913 92.559 C 169.854 94.414,165.915 98.249,163.592 102.609 L 161.739 106.087 161.533 138.609 L 161.327 171.130 203.446 171.130 L 245.565 171.130 245.565 139.254 C 245.565 100.582,245.272 99.281,235.246 93.386 L 232.000 91.478 204.522 91.304 C 178.075 91.135,176.926 91.183,173.913 92.559 M138.039 121.712 C 93.803 143.622,62.670 186.222,56.324 233.521 L 55.467 239.912 43.502 240.130 C 31.566 240.347,31.528 240.353,28.138 242.451 C 16.463 249.676,17.217 266.336,29.518 272.920 L 32.348 274.435 203.478 274.435 L 374.609 274.435 377.391 272.931 C 390.288 265.959,390.529 248.582,377.821 241.943 C 374.205 240.054,373.795 240.000,363.064 240.000 C 350.391 240.000,352.020 241.135,350.588 231.304 C 343.533 182.885,308.143 137.701,262.087 118.310 L 258.783 116.919 258.783 150.286 L 258.783 183.652 203.826 183.652 L 148.870 183.652 148.870 150.261 C 148.870 131.896,148.632 116.870,148.342 116.870 C 148.052 116.870,143.416 119.048,138.039 121.712 " stroke="#000" fill="none" stroke-width="3" class="eTEeYvJz_0"></path></g><style data-made-with="vivus-instant">.eTEeYvJz_0{stroke-dasharray:1357 1359;stroke-dashoffset:1358;animation:eTEeYvJz_draw_0 5700ms linear 0ms infinite,eTEeYvJz_fade 5700ms linear 0ms infinite;}@keyframes eTEeYvJz_draw{100%{stroke-dashoffset:0;}}@keyframes eTEeYvJz_fade{0%{stroke-opacity:1;}92.98245614035088%{stroke-opacity:1;}100%{stroke-opacity:0;}}@keyframes eTEeYvJz_draw_0{14.035087719298245%{stroke-dashoffset: 1358}40.35087719298245%{ stroke-dashoffset: 0;}100%{ stroke-dashoffset: 0;}}</style></svg>