<svg id="svg" version="1.1" width="400" height="400" xmlns="http://www.w3.org/2000/svg" xmlns:xlink="http://www.w3.org/1999/xlink" style=""><g id="svgg"><path id="path0" d="M36.155 32.671 L 33.449 35.376 33.449 130.580 L 33.449 225.784 200.697 225.784 L 367.944 225.784 367.944 130.580 L 367.944 35.376 365.239 32.671 L 362.533 29.965 200.697 29.965 L 38.860 29.965 36.155 32.671 M33.449 252.972 L 33.449 271.797 35.835 274.400 L 38.220 277.003 200.697 277.003 L 363.173 277.003 365.559 274.400 L 367.944 271.797 367.944 252.972 L 367.944 234.146 200.697 234.146 L 33.449 234.146 33.449 252.972 M203.139 247.387 C 206.586 247.387,210.196 253.877,209.023 257.965 C 206.594 266.436,194.800 266.436,192.370 257.965 C 190.832 252.603,196.547 245.631,201.277 247.099 C 201.787 247.257,202.625 247.387,203.139 247.387 M134.599 316.899 C 128.407 334.051,123.341 348.319,123.343 348.606 C 123.344 348.894,158.153 349.129,200.697 349.129 C 243.240 349.129,278.049 348.902,278.049 348.626 C 278.049 348.349,272.982 334.081,266.789 316.918 L 255.529 285.714 237.521 285.714 L 219.512 285.714 219.512 298.155 C 219.512 316.734,219.195 317.053,200.697 317.053 C 182.199 317.053,181.882 316.734,181.882 298.155 L 181.882 285.714 163.870 285.714 L 145.857 285.714 134.599 316.899 " stroke="#000000" fill="none" stroke-width="3" class="DpoXxkfb_0"></path></g><style data-made-with="vivus-instant">.DpoXxkfb_0{stroke-dasharray:2311 2313;stroke-dashoffset:2312;animation:DpoXxkfb_draw_0 7200ms linear 0ms infinite,DpoXxkfb_fade 7200ms linear 0ms infinite;}@keyframes DpoXxkfb_draw{100%{stroke-dashoffset:0;}}@keyframes DpoXxkfb_fade{0%{stroke-opacity:1;}94.44444444444444%{stroke-opacity:1;}100%{stroke-opacity:0;}}@keyframes DpoXxkfb_draw_0{11.11111111111111%{stroke-dashoffset: 2312}52.77777777777778%{ stroke-dashoffset: 0;}100%{ stroke-dashoffset: 0;}}</style></svg>