<svg id="svg" version="1.1" width="400" height="400" xmlns="http://www.w3.org/2000/svg" xmlns:xlink="http://www.w3.org/1999/xlink" style=""><g id="svgg"><path id="path0" d="M38.483 34.960 C 34.284 37.238,34.576 25.903,34.576 186.407 L 34.576 332.881 73.559 332.881 L 112.542 332.881 112.542 304.068 C 112.542 276.158,112.585 275.212,113.898 273.898 C 115.210 272.587,116.158 272.542,142.666 272.542 C 169.507 272.542,170.087 272.514,170.510 271.183 C 174.936 257.237,197.288 262.054,197.288 276.954 C 197.288 291.392,176.304 295.884,170.811 282.623 L 170.005 280.678 145.341 280.678 L 120.678 280.678 120.678 309.492 C 120.678 337.401,120.635 338.348,119.322 339.661 C 117.995 340.988,117.062 341.017,76.271 341.017 L 34.576 341.017 34.576 347.152 C 34.576 351.310,34.908 353.929,35.605 355.276 C 37.838 359.594,30.811 359.322,139.966 359.322 L 239.322 359.322 239.322 325.236 C 239.322 295.482,239.456 290.958,240.377 289.642 L 241.433 288.136 270.208 288.136 L 298.983 288.136 298.978 251.017 L 298.973 213.898 296.222 212.327 C 283.889 205.283,289.041 186.780,303.337 186.780 C 318.222 186.780,322.676 207.280,309.019 212.937 L 307.119 213.724 307.119 253.942 L 307.119 294.160 305.612 295.216 C 304.306 296.130,300.319 296.271,275.781 296.271 L 247.458 296.271 247.458 327.797 L 247.458 359.322 300.712 359.322 C 359.157 359.322,356.795 359.486,358.972 355.276 C 359.881 353.517,360.000 336.845,360.000 210.881 L 360.000 68.475 321.017 68.475 L 282.034 68.475 282.034 97.239 L 282.034 126.003 280.248 127.408 C 278.511 128.775,277.719 128.815,251.603 128.850 L 224.746 128.887 222.712 132.065 C 215.137 143.898,197.627 138.590,197.627 124.460 C 197.627 110.347,216.189 105.140,222.929 117.363 L 224.746 120.658 249.322 120.668 L 273.898 120.678 273.898 91.864 C 273.898 63.955,273.941 63.008,275.254 61.695 C 276.581 60.368,277.514 60.339,318.305 60.339 L 360.000 60.339 360.000 50.136 C 360.000 42.342,359.757 39.463,358.972 37.944 C 356.736 33.620,364.207 33.898,250.203 33.898 L 146.441 33.898 146.441 68.060 C 146.441 99.597,146.349 102.333,145.254 103.658 C 144.084 105.074,143.674 105.096,115.254 105.259 L 86.441 105.424 86.265 142.467 L 86.090 179.511 87.702 179.916 C 90.010 180.495,94.698 185.423,95.632 188.252 C 99.512 200.010,86.742 211.032,75.932 205.255 C 66.327 200.122,65.911 186.201,75.205 180.893 L 77.956 179.322 77.961 139.800 L 77.966 100.277 79.630 98.613 L 81.294 96.949 109.800 96.949 L 138.305 96.949 138.305 65.424 L 138.305 33.898 89.322 33.925 C 47.318 33.949,40.075 34.096,38.483 34.960 M204.683 164.434 C 214.075 166.648,223.114 173.928,227.113 182.500 C 242.507 215.499,200.759 245.430,174.504 220.218 C 150.562 197.228,172.418 156.828,204.683 164.434 " stroke="#000000" fill="none" stroke-width="3" class="eeTvTsbI_0"></path></g><style data-made-with="vivus-instant">.eeTvTsbI_0{stroke-dasharray:3367 3369;stroke-dashoffset:3368;animation:eeTvTsbI_draw_0 7200ms linear 0ms infinite,eeTvTsbI_fade 7200ms linear 0ms infinite;}@keyframes eeTvTsbI_draw{100%{stroke-dashoffset:0;}}@keyframes eeTvTsbI_fade{0%{stroke-opacity:1;}94.44444444444444%{stroke-opacity:1;}100%{stroke-opacity:0;}}@keyframes eeTvTsbI_draw_0{11.11111111111111%{stroke-dashoffset: 3368}52.77777777777778%{ stroke-dashoffset: 0;}100%{ stroke-dashoffset: 0;}}</style></svg>