<svg id="svg" version="1.1" width="400" height="400" xmlns="http://www.w3.org/2000/svg" xmlns:xlink="http://www.w3.org/1999/xlink" style=""><g id="svgg"><path id="path0" d="M176.955 104.971 C 139.344 154.072,108.571 194.397,108.571 194.583 C 108.571 194.769,125.602 194.921,146.418 194.921 L 184.265 194.921 183.839 196.667 C 183.605 197.627,175.987 225.654,166.912 258.949 C 157.836 292.244,150.511 319.786,150.633 320.152 C 150.829 320.740,291.429 142.752,291.429 141.917 C 291.429 141.735,274.429 141.587,253.651 141.587 C 232.220 141.587,215.873 141.345,215.873 141.027 C 215.873 140.718,222.605 112.701,230.834 78.766 C 239.062 44.831,245.692 16.758,245.566 16.382 C 245.441 16.005,214.566 55.870,176.955 104.971 " stroke="#000" fill="none" stroke-width="3" class="sFzmYIWa_0"></path></g><style data-made-with="vivus-instant">.sFzmYIWa_0{stroke-dasharray:862 864;stroke-dashoffset:863;animation:sFzmYIWa_draw_0 5200ms linear 0ms infinite,sFzmYIWa_fade 5200ms linear 0ms infinite;}@keyframes sFzmYIWa_draw{100%{stroke-dashoffset:0;}}@keyframes sFzmYIWa_fade{0%{stroke-opacity:1;}92.3076923076923%{stroke-opacity:1;}100%{stroke-opacity:0;}}@keyframes sFzmYIWa_draw_0{15.384615384615385%{stroke-dashoffset: 863}34.61538461538461%{ stroke-dashoffset: 0;}100%{ stroke-dashoffset: 0;}}</style></svg>