<svg id="svg" version="1.1" width="400" height="400" xmlns="http://www.w3.org/2000/svg" xmlns:xlink="http://www.w3.org/1999/xlink" style=""><g id="svgg"><path id="path0" d="M62.953 12.174 C 54.346 14.295,45.632 22.172,43.534 29.726 C 42.742 32.581,42.354 66.643,42.357 133.148 L 42.362 232.312 44.977 237.929 C 47.828 244.051,52.676 248.750,58.766 251.295 C 64.721 253.783,350.967 253.745,356.926 251.256 C 363.032 248.704,368.269 243.499,370.913 237.352 L 373.305 231.792 373.004 131.216 C 372.717 35.545,372.601 30.450,370.625 26.741 C 367.718 21.283,363.432 16.918,358.217 14.104 L 353.760 11.699 210.028 11.524 C 130.975 11.428,64.791 11.720,62.953 12.174 M335.479 32.676 C 338.180 34.102,341.894 37.404,343.733 40.014 L 347.075 44.760 347.075 132.591 L 347.075 220.421 343.726 225.252 C 341.525 228.427,338.291 231.141,334.295 233.167 L 328.214 236.250 206.168 235.952 L 84.123 235.655 78.860 232.561 C 75.447 230.555,72.509 227.617,70.503 224.204 L 67.409 218.942 67.104 133.604 L 66.799 48.267 69.928 42.278 C 72.468 37.416,74.175 35.704,78.996 33.186 L 84.934 30.084 207.751 30.084 L 330.569 30.084 335.479 32.676 M83.532 37.047 C 80.803 38.426,77.428 41.271,76.034 43.370 L 73.498 47.186 73.796 133.064 L 74.095 218.942 76.690 222.579 C 82.444 230.647,72.590 230.084,207.881 230.084 L 329.411 230.084 333.891 227.119 C 342.584 221.366,342.139 226.771,341.803 131.068 C 341.464 34.338,342.293 42.301,332.011 37.047 L 327.104 34.540 207.799 34.540 L 88.494 34.540 83.532 37.047 M210.658 240.708 C 214.833 242.942,212.694 249.582,207.799 249.582 C 206.513 249.582,204.858 248.981,204.123 248.245 C 199.660 243.782,204.967 237.662,210.658 240.708 M106.873 261.595 C 103.814 264.328,103.333 265.580,102.803 272.180 L 102.202 279.666 207.090 279.666 L 311.978 279.666 311.978 273.482 C 311.978 257.441,319.391 258.496,206.650 258.496 L 110.342 258.496 106.873 261.595 M49.571 291.154 C 45.612 295.112,44.083 300.849,44.762 309.192 L 45.125 313.649 207.799 313.649 L 370.474 313.649 370.418 305.022 C 370.359 295.679,368.543 291.659,363.124 288.874 C 361.037 287.802,326.535 287.494,206.852 287.482 L 53.259 287.465 49.571 291.154 " fill="none" stroke="#000000" stroke-width="3" class="UMyBaxbm_0"></path></g><style data-made-with="vivus-instant">.UMyBaxbm_0{stroke-dasharray:4107 4109;stroke-dashoffset:4108;animation:UMyBaxbm_draw_0 4500ms linear 0ms infinite,UMyBaxbm_fade 4500ms linear 0ms infinite;}@keyframes UMyBaxbm_draw{100%{stroke-dashoffset:0;}}@keyframes UMyBaxbm_fade{0%{stroke-opacity:1;}91.11111111111111%{stroke-opacity:1;}100%{stroke-opacity:0;}}@keyframes UMyBaxbm_draw_0{6.666666666666667%{stroke-dashoffset: 4108}73.33333333333333%{ stroke-dashoffset: 0;}100%{ stroke-dashoffset: 0;}}</style></svg>
