<svg id="svg" version="1.1" width="400" height="400" xmlns="http://www.w3.org/2000/svg" xmlns:xlink="http://www.w3.org/1999/xlink" style=""><g id="svgg"><path id="path0" d="M93.109 20.761 C 72.025 28.815,72.160 28.587,77.647 46.812 C 82.510 62.963,82.957 60.831,72.525 71.239 C 60.963 82.775,63.615 82.133,47.477 77.303 C 33.383 73.085,31.444 72.863,29.310 75.221 C 26.386 78.451,18.689 97.911,18.689 102.071 C 18.689 105.231,19.500 105.856,32.803 112.940 C 47.235 120.625,46.266 119.066,46.255 134.563 L 46.247 147.109 44.468 148.748 C 43.490 149.650,37.697 153.028,31.597 156.255 C 16.898 164.031,16.836 164.149,21.260 175.996 C 29.017 196.764,29.020 196.766,47.306 191.261 C 62.607 186.654,62.348 186.656,66.378 191.067 C 70.424 195.494,73.413 198.483,77.841 202.529 C 82.251 206.559,82.254 206.300,77.647 221.602 C 72.142 239.888,72.144 239.891,92.912 247.647 C 104.846 252.104,104.781 252.140,113.191 236.398 C 121.197 221.413,119.310 222.635,134.450 222.637 C 149.803 222.640,148.234 221.658,155.950 236.087 C 163.341 249.908,163.477 250.084,166.773 250.084 C 171.061 250.084,190.448 242.528,193.692 239.593 C 196.044 237.464,195.820 235.518,191.604 221.431 C 186.775 205.293,186.133 207.944,197.669 196.382 C 208.077 185.951,205.945 186.398,222.096 191.261 C 234.977 195.139,236.542 195.417,238.768 194.225 C 241.323 192.858,250.756 171.109,250.756 166.586 C 250.756 163.665,248.776 162.130,236.900 155.840 C 222.063 147.984,223.021 149.476,223.033 134.217 C 223.046 119.036,222.043 120.625,236.456 112.955 C 252.494 104.420,252.304 104.710,248.685 94.339 C 240.880 71.973,240.467 71.705,222.194 77.211 C 205.968 82.100,208.273 82.616,197.273 71.629 C 186.293 60.662,186.805 62.948,191.697 46.713 C 196.896 29.458,197.041 30.141,187.170 25.426 C 179.432 21.730,169.375 18.151,166.725 18.151 C 163.884 18.151,163.042 19.241,156.595 31.261 C 148.092 47.114,150.027 45.810,134.912 45.858 C 119.412 45.907,120.940 46.875,113.067 32.008 C 104.774 16.347,104.729 16.322,93.109 20.761 M308.414 70.084 C 307.623 70.696,307.113 73.026,306.538 78.655 C 305.605 87.802,305.857 87.406,299.482 89.731 C 296.713 90.741,294.280 91.839,294.075 92.170 C 293.238 93.524,291.301 92.527,285.307 87.656 C 277.649 81.433,277.550 81.439,270.582 88.475 C 264.261 94.858,264.262 95.021,270.622 102.855 C 273.414 106.293,275.545 109.440,275.359 109.847 C 275.172 110.255,273.976 113.116,272.700 116.205 C 271.424 119.295,270.124 122.071,269.812 122.375 C 269.328 122.847,258.170 124.370,255.201 124.370 C 252.673 124.370,252.101 126.224,252.101 134.419 C 252.101 144.054,251.833 143.746,260.961 144.602 C 269.786 145.430,270.466 145.734,271.544 149.339 C 272.026 150.950,273.161 153.731,274.065 155.519 C 275.985 159.312,276.111 158.995,269.469 167.087 C 264.332 173.346,264.378 173.785,270.843 180.250 C 277.561 186.968,277.838 186.978,285.371 180.770 C 291.984 175.320,291.658 175.363,299.981 178.837 C 305.856 181.289,305.566 180.787,306.566 190.252 C 307.539 199.452,307.366 199.302,316.975 199.302 C 326.584 199.302,326.411 199.452,327.383 190.252 C 328.384 180.787,328.094 181.289,333.969 178.837 C 342.292 175.363,341.966 175.320,348.578 180.770 C 356.111 186.978,356.388 186.968,363.107 180.250 C 369.571 173.785,369.617 173.346,364.481 167.087 C 357.838 158.995,357.964 159.312,359.884 155.519 C 360.789 153.731,361.924 150.950,362.405 149.339 C 363.477 145.755,364.100 145.478,372.989 144.620 C 382.120 143.739,381.849 144.051,381.849 134.419 C 381.849 126.224,381.277 124.370,378.749 124.370 C 375.779 124.370,364.622 122.847,364.138 122.375 C 363.826 122.071,362.526 119.295,361.250 116.205 C 359.974 113.116,358.778 110.256,358.592 109.850 C 358.406 109.444,360.538 106.316,363.329 102.897 C 369.719 95.071,369.719 94.889,363.368 88.475 C 356.400 81.439,356.300 81.433,348.642 87.656 C 342.649 92.527,340.711 93.524,339.875 92.170 C 339.670 91.839,337.237 90.741,334.468 89.731 C 328.093 87.406,328.345 87.802,327.411 78.655 C 326.428 69.024,326.671 69.244,316.975 69.244 C 312.023 69.244,309.134 69.527,308.414 70.084 M148.460 92.954 C 178.381 103.518,187.926 140.396,166.728 163.530 C 143.946 188.392,103.374 179.240,93.025 146.905 C 82.478 113.947,115.871 81.447,148.460 92.954 M327.002 113.338 C 341.165 120.273,344.519 139.191,333.571 150.397 C 322.274 161.961,302.817 158.591,295.864 143.866 C 286.787 124.644,307.874 103.972,327.002 113.338 M274.526 194.056 C 270.130 194.529,269.633 195.559,268.525 206.481 C 267.328 218.290,267.162 218.706,263.073 220.181 C 261.291 220.824,257.522 222.402,254.699 223.686 C 248.401 226.552,248.836 226.689,239.328 218.850 C 230.042 211.196,229.601 211.109,223.989 215.856 C 211.394 226.507,210.924 228.741,219.183 238.719 C 226.648 247.739,226.837 248.184,224.869 252.101 C 224.033 253.765,222.514 257.483,221.493 260.365 C 219.205 266.825,219.356 266.744,207.183 268.019 C 194.293 269.369,194.695 268.999,194.395 279.797 C 193.964 295.281,193.585 294.810,207.610 296.208 C 218.930 297.336,219.366 297.576,221.502 303.866 C 222.193 305.899,223.591 309.334,224.608 311.498 C 226.881 316.330,227.019 315.966,219.375 325.283 C 210.909 335.601,210.899 335.347,220.129 344.577 C 229.313 353.761,228.992 353.748,239.349 345.332 C 248.928 337.548,248.332 337.742,254.259 340.468 C 256.954 341.707,260.435 343.099,261.993 343.561 C 266.765 344.975,267.355 346.112,268.251 355.630 C 269.685 370.870,269.520 370.721,284.493 370.316 C 295.829 370.010,295.347 370.531,296.688 357.103 C 297.841 345.558,297.916 345.395,302.741 343.794 C 304.654 343.160,308.406 341.617,311.080 340.365 C 316.898 337.643,316.147 337.379,326.140 345.650 C 336.065 353.865,336.402 353.802,347.841 341.610 C 353.774 335.287,353.732 334.985,345.546 325.042 C 338.243 316.170,338.155 315.912,340.707 310.840 C 341.800 308.668,343.251 305.114,343.932 302.943 C 345.575 297.710,346.228 297.394,357.972 296.165 C 371.352 294.765,370.716 295.446,370.718 282.522 C 370.719 268.543,371.598 269.460,356.731 267.925 C 346.334 266.852,345.567 266.488,344.233 262.006 C 343.768 260.441,342.315 256.808,341.004 253.934 C 338.134 247.637,337.907 248.322,346.165 238.322 C 354.231 228.553,354.265 229.074,344.949 219.757 C 335.512 210.320,336.180 210.341,325.411 219.160 C 315.996 226.870,316.988 226.574,310.515 223.597 C 307.782 222.340,304.265 220.933,302.700 220.469 C 298.151 219.121,297.758 218.297,296.718 207.921 C 295.563 196.406,295.433 195.842,293.708 194.919 C 292.232 194.129,279.271 193.546,274.526 194.056 M288.485 251.051 C 314.272 256.517,323.070 288.152,303.657 305.606 C 285.852 321.614,257.965 313.077,251.748 289.715 C 245.947 267.918,266.418 246.373,288.485 251.051 " stroke="#000000" fill="none" stroke-width="3" class="LpSxLsdF_0"></path></g><style data-made-with="vivus-instant">.LpSxLsdF_0{stroke-dasharray:2852 2854;stroke-dashoffset:2853;animation:LpSxLsdF_draw_0 7200ms linear 0ms infinite,LpSxLsdF_fade 7200ms linear 0ms infinite;}@keyframes LpSxLsdF_draw{100%{stroke-dashoffset:0;}}@keyframes LpSxLsdF_fade{0%{stroke-opacity:1;}94.44444444444444%{stroke-opacity:1;}100%{stroke-opacity:0;}}@keyframes LpSxLsdF_draw_0{11.11111111111111%{stroke-dashoffset: 2853}52.77777777777778%{ stroke-dashoffset: 0;}100%{ stroke-dashoffset: 0;}}</style></svg>