<svg id="svg" version="1.1" width="400" height="400" xmlns="http://www.w3.org/2000/svg" xmlns:xlink="http://www.w3.org/1999/xlink" style=""><g id="svgg"><path id="path0" d="M197.943 1.001 C 197.020 1.923,196.942 2.306,196.942 5.881 C 196.942 9.021,196.780 10.072,196.091 11.393 C 195.173 13.154,195.283 15.033,196.356 15.924 C 197.458 16.838,197.137 21.287,195.884 22.457 C 192.869 25.273,192.890 30.162,195.928 32.551 C 196.952 33.357,196.967 33.446,196.853 38.184 L 196.738 42.999 185.321 49.047 C 138.312 73.950,128.406 78.430,113.815 81.384 C 94.654 85.264,72.768 79.658,56.826 66.787 C 52.666 63.429,52.778 63.488,52.021 64.246 C 51.093 65.174,51.061 78.729,51.985 79.653 C 53.551 81.220,82.900 97.723,94.167 103.373 C 106.389 109.502,110.177 110.703,119.011 111.250 L 123.344 111.519 123.344 125.382 L 123.344 139.246 115.596 143.132 C 99.360 151.277,84.070 155.007,71.904 153.791 C 55.541 152.155,40.063 145.481,28.338 135.006 C 22.782 130.042,22.832 129.985,22.840 141.264 C 22.844 145.985,22.981 150.058,23.146 150.315 C 23.731 151.229,48.768 166.935,61.978 174.674 C 81.096 185.876,87.471 188.045,101.432 188.103 L 108.063 188.131 107.956 203.036 L 107.849 217.941 101.591 221.075 C 91.407 226.175,79.081 230.321,69.049 232.023 C 47.869 235.615,21.051 227.347,4.428 212.099 C 0.311 208.323,0.000 208.888,0.000 220.141 C 0.000 230.494,-2.343 227.835,16.999 239.433 C 60.267 265.378,64.788 267.264,85.219 267.884 C 91.386 268.071,96.478 268.241,96.534 268.261 C 96.590 268.281,96.636 278.941,96.636 291.949 L 96.636 315.600 135.270 315.496 L 173.904 315.392 174.009 291.845 L 174.115 268.298 200.003 268.298 L 225.892 268.298 225.892 292.762 L 225.892 317.227 264.628 317.227 L 303.364 317.227 303.364 292.603 L 303.364 267.979 313.863 267.781 C 329.633 267.484,333.348 266.592,346.352 259.974 C 357.908 254.093,376.432 243.429,394.393 232.317 L 399.592 229.101 399.592 220.035 C 399.592 208.677,399.356 208.254,395.164 212.099 C 379.002 226.925,352.727 235.312,332.158 232.211 C 322.286 230.723,309.197 226.457,298.777 221.330 L 291.539 217.769 291.539 202.870 L 291.539 187.971 297.705 187.971 C 315.401 187.971,325.817 183.170,370.234 154.535 C 377.523 149.836,376.772 151.434,376.655 140.877 L 376.555 131.906 375.581 131.769 C 374.840 131.664,373.967 132.258,371.912 134.265 C 358.938 146.938,336.067 155.249,318.425 153.701 C 307.318 152.726,294.046 148.395,280.938 141.468 L 276.656 139.206 276.549 125.322 L 276.442 111.438 280.472 111.174 C 292.785 110.367,304.040 105.276,340.061 84.217 C 349.170 78.893,348.234 80.358,348.113 71.604 C 347.987 62.486,347.933 62.412,343.883 65.854 C 329.351 78.204,307.620 84.595,289.297 81.908 C 274.165 79.689,262.002 74.288,211.111 47.190 L 202.650 42.685 202.650 37.903 C 202.650 33.263,202.680 33.102,203.661 32.459 C 206.834 30.380,206.687 23.742,203.429 21.999 C 202.421 21.459,202.282 16.715,203.251 15.911 C 204.339 15.008,204.460 12.806,203.510 11.196 C 202.798 9.990,202.650 9.073,202.650 5.870 C 202.650 0.514,200.575 -1.632,197.943 1.001 M219.809 111.723 L 238.940 111.723 238.940 125.728 L 238.940 139.733 234.595 139.999 C 228.941 140.345,170.651 140.345,164.997 139.999 L 160.652 139.733 160.652 125.732 L 160.652 111.731 180.122 111.625 C 190.831 111.567,199.837 111.565,200.135 111.621 C 200.434 111.677,209.287 111.723,219.809 111.723 M148.012 125.790 L 148.012 139.857 143.629 139.853 C 141.218 139.850,138.558 139.735,137.717 139.596 L 136.188 139.343 136.188 125.533 L 136.188 111.723 142.100 111.723 L 148.012 111.723 148.012 125.790 M263.405 125.526 L 263.405 139.330 260.285 139.594 C 258.569 139.739,255.909 139.857,254.373 139.857 L 251.580 139.857 251.580 125.790 L 251.580 111.723 257.492 111.723 L 263.405 111.723 263.405 125.526 M132.518 203.262 L 132.518 218.145 126.809 218.145 L 121.101 218.145 121.101 203.262 L 121.101 188.379 126.809 188.379 L 132.518 188.379 132.518 203.262 M254.027 203.466 L 254.027 218.552 199.796 218.552 L 145.566 218.552 145.566 203.466 L 145.566 188.379 199.796 188.379 L 254.027 188.379 254.027 203.466 M278.491 203.262 L 278.491 218.145 272.783 218.145 L 267.074 218.145 267.074 203.262 L 267.074 188.379 272.783 188.379 L 278.491 188.379 278.491 203.262 M180.314 289.602 L 180.428 295.005 199.796 295.005 L 219.164 295.005 219.278 289.602 L 219.392 284.200 199.796 284.200 L 180.201 284.200 180.314 289.602 M180.314 309.582 L 180.428 314.985 199.796 314.985 L 219.164 314.985 219.278 309.582 L 219.392 304.179 199.796 304.179 L 180.201 304.179 180.314 309.582 M96.228 329.664 L 96.228 335.168 199.796 335.168 L 303.364 335.168 303.364 329.664 L 303.364 324.159 199.796 324.159 L 96.228 324.159 96.228 329.664 " stroke="#000000" fill="none" stroke-width="3" class="WVmxkicu_0"></path></g><style data-made-with="vivus-instant">.WVmxkicu_0{stroke-dasharray:3487 3489;stroke-dashoffset:3488;animation:WVmxkicu_draw_0 7200ms linear 0ms infinite,WVmxkicu_fade 7200ms linear 0ms infinite;}@keyframes WVmxkicu_draw{100%{stroke-dashoffset:0;}}@keyframes WVmxkicu_fade{0%{stroke-opacity:1;}94.44444444444444%{stroke-opacity:1;}100%{stroke-opacity:0;}}@keyframes WVmxkicu_draw_0{11.11111111111111%{stroke-dashoffset: 3488}52.77777777777778%{ stroke-dashoffset: 0;}100%{ stroke-dashoffset: 0;}}</style></svg>