<svg id="svg" version="1.1" width="400" height="400" xmlns="http://www.w3.org/2000/svg" xmlns:xlink="http://www.w3.org/1999/xlink" style=""><g id="svgg"><path id="path0" d="M290.520 1.778 C 280.162 6.083,256.621 17.663,159.532 66.207 C 23.982 133.983,2.914 144.817,1.681 147.378 C 0.671 149.475,0.449 169.213,0.428 258.799 L 0.408 345.733 2.548 347.892 C 5.925 351.297,15.109 356.194,59.327 378.166 C 107.153 401.930,104.006 400.639,109.072 398.584 C 122.870 392.986,361.130 274.069,389.514 258.614 C 398.723 253.599,398.721 253.601,399.295 248.318 C 399.975 242.062,399.990 59.734,399.311 55.454 C 398.515 50.430,399.320 50.902,346.585 24.520 C 294.417 -1.578,296.532 -0.720,290.520 1.778 M311.716 32.229 C 328.610 40.495,361.406 57.114,362.716 58.072 C 363.613 58.728,364.984 58.030,242.598 119.186 C 141.449 169.731,107.024 186.748,105.926 186.748 C 104.270 186.748,37.356 153.529,37.417 152.738 C 37.476 151.980,292.613 24.057,294.064 24.057 C 294.588 24.057,302.531 27.734,311.716 32.229 M378.034 82.981 C 378.175 86.118,378.312 90.844,378.340 93.483 L 378.389 98.281 342.768 116.070 C 323.176 125.854,306.938 133.730,306.683 133.572 C 306.355 133.370,306.218 130.205,306.219 122.810 L 306.219 112.334 341.387 94.714 C 360.729 85.022,376.830 77.134,377.166 77.185 C 377.662 77.259,377.826 78.357,378.034 82.981 M283.384 134.863 L 283.384 145.772 247.706 163.610 C 228.083 173.420,211.936 181.448,211.824 181.448 C 211.712 181.448,211.621 176.525,211.621 170.509 L 211.621 159.570 247.057 141.762 C 266.548 131.968,282.694 123.955,282.939 123.955 C 283.250 123.955,283.384 127.252,283.384 134.863 M378.120 131.600 C 378.267 135.805,378.388 140.667,378.388 142.404 L 378.389 145.563 365.743 151.889 L 353.096 158.215 353.204 147.165 L 353.313 136.115 365.209 130.035 C 371.752 126.691,377.273 123.955,377.479 123.955 C 377.685 123.955,377.973 127.396,378.120 131.600 M330.028 148.657 C 330.164 149.012,330.275 153.876,330.275 159.467 L 330.275 169.631 294.784 187.364 C 275.264 197.117,259.117 205.097,258.902 205.097 C 258.663 205.097,258.512 200.902,258.512 194.292 L 258.512 183.487 293.884 165.772 C 332.711 146.327,329.684 147.760,330.028 148.657 M35.477 177.575 L 47.299 183.489 47.299 194.065 C 47.299 200.028,47.136 204.742,46.925 204.872 C 46.720 204.999,41.123 202.399,34.489 199.095 L 22.426 193.088 22.426 182.375 C 22.426 173.103,22.509 171.662,23.040 171.662 C 23.378 171.662,28.975 174.323,35.477 177.575 M188.539 172.307 C 188.676 172.661,188.787 177.481,188.787 183.016 L 188.787 193.081 153.415 210.727 C 133.960 220.433,117.813 228.366,117.533 228.356 C 117.139 228.342,117.023 225.916,117.023 217.634 L 117.023 206.930 152.192 189.318 C 189.039 170.866,188.147 171.284,188.539 172.307 M378.034 177.578 C 378.175 180.716,378.312 185.442,378.340 188.082 L 378.389 192.882 342.764 210.667 C 323.170 220.449,306.932 228.324,306.679 228.167 C 306.355 227.967,306.218 224.667,306.218 217.081 L 306.218 206.280 321.203 198.914 C 329.444 194.863,338.206 190.578,340.673 189.391 C 343.140 188.205,352.222 183.736,360.856 179.460 C 369.490 175.185,376.830 171.729,377.166 171.780 C 377.662 171.856,377.826 172.956,378.034 177.578 M94.190 217.441 C 94.190 226.054,94.087 227.996,93.621 228.174 C 93.309 228.294,87.942 225.835,81.695 222.710 L 70.336 217.028 70.228 205.963 L 70.119 194.898 82.155 200.912 L 94.190 206.925 94.190 217.441 M235.678 205.919 L 235.678 216.934 200.548 234.479 C 180.874 244.305,165.264 251.870,165.067 251.673 C 164.874 251.479,164.765 246.595,164.825 240.818 L 164.934 230.314 200.168 212.609 C 219.546 202.871,235.464 194.903,235.540 194.903 C 235.616 194.903,235.678 199.860,235.678 205.919 M58.818 236.164 L 94.190 253.814 94.190 264.930 C 94.190 271.043,94.074 276.045,93.933 276.045 C 92.089 276.045,22.885 240.316,22.672 239.254 C 22.163 236.705,22.393 218.554,22.936 218.533 C 23.216 218.522,39.363 226.456,58.818 236.164 M283.288 229.567 L 283.396 240.367 247.712 258.206 C 228.085 268.017,211.936 276.045,211.824 276.045 C 211.712 276.045,211.621 271.044,211.621 264.933 L 211.621 253.820 246.789 236.204 C 266.131 226.515,282.232 218.628,282.569 218.677 C 283.092 218.754,283.196 220.334,283.288 229.567 M377.897 228.344 C 377.962 233.611,377.912 238.492,377.786 239.191 C 377.591 240.277,355.059 252.803,353.301 252.803 C 353.188 252.803,353.145 247.736,353.205 241.543 L 353.313 230.282 364.934 224.427 C 371.325 221.206,376.830 218.615,377.166 218.669 C 377.686 218.752,377.796 220.209,377.897 228.344 M330.275 253.007 L 330.275 264.219 295.311 281.697 C 276.081 291.310,259.934 299.305,259.429 299.462 L 258.512 299.749 258.556 291.057 C 258.580 286.276,258.718 281.301,258.862 280.000 L 259.123 277.635 268.298 272.919 C 276.134 268.891,329.880 241.873,330.173 241.814 C 330.229 241.803,330.275 246.840,330.275 253.007 M141.681 245.158 C 141.826 246.784,141.887 251.506,141.818 255.652 L 141.692 263.190 139.653 264.526 C 137.735 265.783,117.792 276.045,117.267 276.045 C 117.133 276.045,117.023 271.135,117.023 265.134 L 117.023 254.224 128.950 248.236 C 135.510 244.943,140.999 242.238,141.148 242.225 C 141.297 242.212,141.537 243.532,141.681 245.158 M188.787 276.563 L 188.787 287.683 153.415 305.325 C 133.960 315.028,117.813 322.960,117.533 322.952 C 117.138 322.939,117.024 320.475,117.024 312.029 L 117.025 301.121 152.485 283.282 C 171.989 273.471,188.135 265.443,188.366 265.443 C 188.645 265.443,188.787 269.194,188.787 276.563 M36.380 272.231 L 47.299 277.653 47.299 288.677 L 47.299 299.700 42.304 297.220 C 39.557 295.855,33.961 293.055,29.870 290.998 L 22.431 287.258 22.429 277.829 C 22.427 272.643,22.537 267.843,22.674 267.162 C 22.997 265.548,22.695 265.436,36.380 272.231 M82.567 295.308 L 94.190 301.115 94.190 312.025 C 94.190 318.026,94.097 322.936,93.983 322.936 C 93.869 322.936,88.457 320.275,81.954 317.022 L 70.133 311.108 70.133 300.304 C 70.133 293.407,70.279 289.501,70.538 289.501 C 70.762 289.501,76.174 292.114,82.567 295.308 M235.583 301.481 L 235.474 311.723 201.019 328.911 C 182.069 338.365,166.198 346.163,165.749 346.241 C 164.953 346.378,164.931 346.127,164.825 335.478 L 164.717 324.575 183.582 315.135 C 237.351 288.227,234.994 289.355,235.360 290.343 C 235.542 290.836,235.643 295.848,235.583 301.481 M58.818 330.761 L 94.190 348.407 94.190 358.889 C 94.190 366.383,94.055 369.454,93.718 369.662 C 93.455 369.825,77.572 362.121,57.836 352.259 L 22.426 334.565 22.426 323.857 C 22.426 315.573,22.541 313.146,22.936 313.132 C 23.216 313.122,39.363 321.055,58.818 330.761 M141.639 337.309 C 141.967 338.531,141.959 352.176,141.629 355.671 L 141.368 358.437 138.880 359.796 C 137.511 360.543,132.034 363.384,126.707 366.111 L 117.023 371.067 117.023 359.741 L 117.023 348.415 128.950 342.423 C 142.434 335.648,141.315 336.099,141.639 337.309 " stroke="#000000" fill="none" stroke-width="3" class="ubOFRFmj_0"></path></g><style data-made-with="vivus-instant">.ubOFRFmj_0{stroke-dasharray:5227 5229;stroke-dashoffset:5228;animation:ubOFRFmj_draw_0 7200ms linear 0ms infinite,ubOFRFmj_fade 7200ms linear 0ms infinite;}@keyframes ubOFRFmj_draw{100%{stroke-dashoffset:0;}}@keyframes ubOFRFmj_fade{0%{stroke-opacity:1;}94.44444444444444%{stroke-opacity:1;}100%{stroke-opacity:0;}}@keyframes ubOFRFmj_draw_0{11.11111111111111%{stroke-dashoffset: 5228}52.77777777777778%{ stroke-dashoffset: 0;}100%{ stroke-dashoffset: 0;}}</style></svg>