<svg id="svg" version="1.1" width="430" height="450" xmlns="http://www.w3.org/2000/svg" xmlns:xlink="http://www.w3.org/1999/xlink" style=""><g id="svgg"><path id="path0" d="M107.408 2.088 C 93.994 11.090,8.440 72.605,6.439 74.687 L 3.893 77.336 4.095 208.959 C 4.295 339.424,4.311 340.595,5.859 342.089 C 9.402 345.507,110.435 400.000,113.229 400.000 C 119.263 400.000,391.652 330.532,393.750 328.458 L 395.703 326.527 395.934 212.287 C 396.175 92.858,396.182 93.126,392.789 91.310 C 389.852 89.738,313.336 64.844,311.442 64.844 C 310.446 64.844,305.619 67.416,300.714 70.559 C 280.069 83.791,263.664 94.774,262.749 95.977 C 261.993 96.970,261.763 106.349,261.744 136.914 C 261.727 162.809,261.448 176.563,260.938 176.563 C 260.423 176.563,260.155 155.531,260.152 115.039 C 260.147 49.520,260.090 48.467,256.409 46.570 C 252.059 44.329,115.716 0.000,113.172 0.000 C 111.593 0.000,109.259 0.845,107.408 2.088 M142.031 40.747 C 156.345 44.793,155.469 43.624,155.469 58.679 C 155.469 75.880,156.912 74.765,140.021 70.601 C 125.683 67.065,126.563 68.239,126.563 52.649 C 126.563 34.928,125.188 35.985,142.031 40.747 M98.047 57.823 L 98.047 72.266 92.332 75.260 C 84.159 79.542,84.375 79.853,84.375 63.809 L 84.375 50.224 90.039 46.644 C 98.386 41.366,98.047 40.892,98.047 57.823 M186.559 53.612 C 200.656 57.632,199.219 55.685,199.219 70.755 C 199.219 86.808,201.277 85.982,177.148 79.619 L 174.219 78.846 174.219 65.334 C 174.219 57.903,174.453 51.589,174.740 51.302 C 175.537 50.505,175.941 50.584,186.559 53.612 M68.574 74.772 L 68.359 87.826 63.729 90.428 C 56.984 94.219,57.031 94.294,57.031 79.775 L 57.031 67.313 61.523 64.537 C 69.010 59.910,68.822 59.636,68.574 74.772 M226.894 65.169 C 238.103 68.399,237.476 67.469,237.476 80.859 C 237.476 95.239,238.101 94.595,226.801 91.865 C 213.604 88.677,214.844 90.334,214.844 75.884 C 214.844 60.269,213.632 61.347,226.894 65.169 M44.838 77.798 C 45.464 79.428,45.452 97.947,44.824 99.582 C 44.297 100.955,37.534 104.688,35.573 104.688 C 34.550 104.688,34.375 102.989,34.375 93.081 L 34.375 81.475 38.086 79.087 C 42.307 76.370,44.155 76.018,44.838 77.798 M24.827 100.203 L 25.044 110.934 22.483 112.514 C 15.656 116.728,14.872 115.838,14.856 103.860 C 14.843 93.999,15.070 93.358,19.531 90.685 C 24.364 87.789,24.583 88.184,24.827 100.203 M154.826 97.073 C 155.927 98.805,155.602 123.917,154.467 124.859 C 152.999 126.077,128.859 122.144,127.539 120.471 C 126.347 118.960,126.154 94.411,127.316 92.239 C 128.180 90.626,153.565 95.086,154.826 97.073 M336.914 96.992 C 338.449 97.799,339.027 117.416,337.543 118.333 C 336.726 118.838,326.178 116.631,324.023 115.504 C 322.389 114.649,321.936 95.564,323.512 93.988 C 324.352 93.148,333.507 95.201,336.914 96.992 M98.259 109.903 L 98.047 124.494 92.188 126.622 C 84.173 129.532,84.375 129.858,84.375 114.013 C 84.375 104.359,84.634 100.706,85.352 100.241 C 87.598 98.788,95.808 95.355,97.088 95.334 C 98.371 95.314,98.457 96.372,98.259 109.903 M356.250 102.277 L 360.547 103.577 360.767 113.248 C 361.033 124.895,361.099 124.802,353.769 123.038 C 345.791 121.119,346.094 121.610,346.094 110.581 C 346.094 98.558,345.516 99.030,356.250 102.277 M187.180 102.815 C 192.727 103.934,197.705 105.208,198.242 105.645 C 199.675 106.813,199.624 130.722,198.187 131.915 C 197.025 132.880,176.937 130.072,175.195 128.702 C 174.147 127.877,173.722 102.320,174.740 101.302 C 175.520 100.522,176.247 100.610,187.180 102.815 M374.558 107.544 C 381.424 109.419,381.250 109.114,381.250 119.261 C 381.250 129.640,381.266 129.620,374.115 128.103 C 367.411 126.680,367.188 126.316,367.188 116.805 C 367.188 105.186,366.961 105.470,374.558 107.544 M68.750 121.389 C 68.750 135.692,69.014 135.008,62.713 137.063 C 56.979 138.933,57.031 139.044,57.031 125.006 L 57.031 112.603 61.133 110.664 C 68.974 106.956,68.750 106.641,68.750 121.389 M236.523 113.882 C 237.923 115.689,237.894 136.982,236.490 138.147 C 235.286 139.146,217.652 136.515,215.921 135.077 C 214.576 133.962,214.346 110.967,215.665 109.647 C 216.842 108.471,235.222 112.202,236.523 113.882 M44.527 120.304 C 45.029 121.243,45.272 125.954,45.140 132.218 L 44.922 142.578 41.436 144.336 C 34.418 147.875,34.375 147.814,34.375 134.331 L 34.375 122.568 38.477 120.704 C 43.539 118.403,43.510 118.405,44.527 120.304 M24.609 139.429 L 24.609 150.342 20.807 151.753 C 15.163 153.849,14.844 153.315,14.844 141.797 C 14.844 131.492,14.949 131.203,19.450 129.150 C 24.370 126.907,24.609 127.384,24.609 139.429 M331.712 132.327 C 338.604 133.806,338.281 133.207,338.281 144.531 C 338.281 156.098,338.482 155.799,331.475 154.671 C 322.120 153.164,322.656 153.914,322.656 142.334 C 322.656 129.859,322.259 130.297,331.712 132.327 M354.362 136.835 C 361.042 138.132,360.938 137.949,360.938 148.377 C 360.938 159.419,360.987 159.351,353.648 158.200 C 345.700 156.953,346.094 157.560,346.094 146.568 C 346.094 134.658,345.677 135.149,354.362 136.835 M376.152 141.443 C 381.164 142.513,381.224 142.642,381.238 152.443 C 381.253 162.595,381.099 162.795,374.157 161.620 C 367.498 160.494,367.188 159.976,367.188 150.007 C 367.188 141.236,367.767 139.600,370.645 140.248 C 371.536 140.449,374.015 140.987,376.152 141.443 M142.578 146.527 C 156.548 148.143,155.471 146.815,155.457 162.400 C 155.442 178.971,156.492 177.745,143.224 176.665 C 137.254 176.179,131.615 175.781,130.694 175.781 C 126.969 175.781,126.563 174.270,126.563 160.440 C 126.563 146.606,127.065 144.275,129.914 144.890 C 130.864 145.095,136.563 145.832,142.578 146.527 M98.438 162.079 L 98.438 176.502 95.456 177.305 C 93.816 177.747,90.740 178.200,88.620 178.312 L 84.766 178.516 84.766 164.457 L 84.766 150.399 89.453 149.090 C 92.031 148.370,95.107 147.753,96.289 147.719 L 98.438 147.656 98.438 162.079 M187.802 151.952 C 199.998 153.473,199.219 152.429,199.219 167.256 C 199.219 182.204,200.151 181.273,186.328 180.134 C 173.106 179.044,174.219 180.441,174.219 164.928 C 174.219 148.633,172.714 150.070,187.802 151.952 M68.750 168.332 C 68.750 183.051,68.982 182.573,61.639 182.973 L 57.422 183.203 57.207 170.537 L 56.993 157.871 60.723 156.724 C 62.775 156.094,65.420 155.553,66.602 155.523 L 68.750 155.469 68.750 168.332 M226.526 156.636 C 231.393 157.278,235.853 158.200,236.438 158.685 C 237.671 159.708,237.976 180.850,236.785 182.732 C 235.961 184.034,217.523 183.282,215.831 181.878 C 214.795 181.018,214.351 159.224,215.318 156.705 C 215.896 155.198,215.638 155.200,226.526 156.636 M44.838 162.955 C 45.894 165.705,45.350 184.226,44.179 185.397 C 42.801 186.775,36.026 187.901,35.040 186.915 C 34.650 186.525,34.428 181.135,34.548 174.939 L 34.766 163.672 37.500 162.739 C 41.385 161.414,44.280 161.499,44.838 162.955 M25.000 178.125 C 25.000 189.336,24.837 189.700,19.483 190.418 C 15.131 191.002,14.868 190.390,14.868 179.688 C 14.868 169.375,15.149 168.665,19.697 167.505 C 24.772 166.212,25.000 166.669,25.000 178.125 M336.914 170.023 C 338.660 170.527,339.030 191.004,337.305 191.631 C 335.677 192.221,324.678 191.251,323.633 190.425 C 322.547 189.566,322.192 170.260,323.242 169.200 C 323.817 168.620,334.222 169.247,336.914 170.023 M354.828 172.251 C 360.870 172.937,361.026 173.249,360.768 184.095 L 360.547 193.359 354.380 193.166 C 346.026 192.905,346.094 192.995,346.094 182.092 C 346.094 172.762,346.680 170.737,349.182 171.418 C 349.847 171.599,352.388 171.974,354.828 172.251 M380.215 175.895 C 381.419 176.894,381.687 192.631,380.532 194.456 C 379.701 195.768,370.051 195.154,368.269 193.675 C 367.123 192.724,366.667 178.047,367.700 175.354 C 368.287 173.824,378.239 174.255,380.215 175.895 M149.877 199.500 C 155.416 199.832,155.443 199.906,155.457 214.593 C 155.472 230.801,156.538 229.688,141.016 229.688 C 125.457 229.688,126.563 230.882,126.563 214.063 C 126.563 196.916,124.828 197.999,149.877 199.500 M98.260 214.005 C 98.503 230.378,98.794 229.657,91.941 229.676 C 84.169 229.696,84.375 230.098,84.375 214.912 C 84.375 199.930,84.244 200.246,90.649 199.788 C 98.836 199.202,98.018 197.674,98.260 214.005 M198.484 202.393 C 199.364 203.783,199.433 226.578,198.561 227.951 C 198.083 228.705,195.072 228.896,186.269 228.733 L 174.609 228.516 174.394 215.655 C 174.275 208.582,174.369 202.297,174.602 201.690 C 175.219 200.082,197.436 200.736,198.484 202.393 M68.304 202.790 C 69.301 203.788,69.529 206.021,69.521 214.704 C 69.506 229.608,69.779 229.021,62.986 228.743 L 57.422 228.516 57.207 215.840 C 56.965 201.523,56.396 202.731,63.672 202.097 C 65.391 201.948,66.860 201.766,66.936 201.694 C 67.013 201.622,67.628 202.115,68.304 202.790 M236.272 203.571 C 237.532 204.831,238.154 224.730,237.026 227.670 C 236.317 229.516,216.026 229.516,215.318 227.670 C 215.057 226.991,214.844 221.570,214.844 215.625 C 214.844 209.680,215.057 204.259,215.318 203.580 C 216.016 201.761,234.455 201.754,236.272 203.571 M44.504 205.417 C 45.707 207.666,45.549 225.940,44.312 227.632 C 43.526 228.707,42.397 228.948,39.039 228.758 L 34.766 228.516 34.766 216.832 L 34.766 205.149 36.719 204.605 C 40.614 203.522,43.659 203.839,44.504 205.417 M296.988 206.964 C 305.601 210.246,310.994 215.855,313.010 223.627 C 314.207 228.243,314.577 341.729,313.401 343.583 C 312.703 344.684,253.289 360.081,251.738 359.564 C 250.993 359.315,250.781 344.242,250.781 291.466 L 250.781 223.687 253.170 218.906 C 259.413 206.413,280.478 200.672,296.988 206.964 M24.062 206.406 C 25.361 207.705,25.361 226.670,24.063 227.969 C 22.479 229.552,16.592 229.150,15.652 227.395 C 14.738 225.686,14.559 208.679,15.442 207.317 C 16.577 205.564,22.586 204.929,24.062 206.406 M337.045 206.724 C 338.891 207.433,338.891 227.724,337.045 228.432 C 334.793 229.296,324.569 228.944,323.594 227.969 C 322.608 226.983,322.221 209.856,323.130 207.486 C 323.620 206.211,334.199 205.632,337.045 206.724 M359.426 207.840 C 360.789 208.569,360.938 209.552,360.938 217.840 C 360.938 228.850,360.900 228.906,353.516 228.906 C 350.243 228.906,347.584 228.522,347.031 227.969 C 345.738 226.676,345.738 209.262,347.031 207.969 C 348.185 206.815,357.333 206.720,359.426 207.840 M379.739 208.621 C 381.098 209.348,381.250 210.331,381.250 218.359 C 381.250 228.708,381.113 228.906,373.935 228.906 C 367.630 228.906,367.188 228.195,367.188 218.069 C 367.188 212.592,367.512 209.363,368.125 208.750 C 369.274 207.601,377.659 207.508,379.739 208.621 M380.776 242.642 C 381.708 245.073,381.296 259.927,380.273 260.755 C 378.631 262.084,369.657 262.796,368.339 261.702 C 366.623 260.278,366.686 244.363,368.415 242.634 C 370.171 240.878,380.101 240.885,380.776 242.642 M360.000 243.125 C 360.624 243.749,360.938 247.158,360.938 253.306 C 360.938 264.066,361.336 263.587,352.344 263.638 L 346.484 263.672 346.257 255.078 C 345.966 244.078,346.204 243.151,349.417 242.752 C 354.846 242.078,359.103 242.228,360.000 243.125 M337.045 243.443 C 339.328 244.319,338.838 264.700,336.523 265.174 C 323.556 267.829,322.656 267.174,322.656 255.078 C 322.656 243.979,322.667 243.961,329.324 243.551 C 331.887 243.393,334.395 243.198,334.897 243.116 C 335.399 243.035,336.366 243.182,337.045 243.443 M24.402 245.616 C 25.316 246.999,25.111 265.982,24.172 266.922 C 23.125 267.969,16.360 266.804,15.485 265.425 C 14.440 263.779,14.715 245.753,15.803 244.666 C 16.936 243.533,23.504 244.258,24.402 245.616 M44.085 247.321 C 45.476 248.713,45.900 268.174,44.584 270.253 C 44.017 271.150,42.995 271.226,39.323 270.644 L 34.766 269.922 34.550 258.008 L 34.334 246.094 38.596 246.094 C 41.428 246.094,43.269 246.505,44.085 247.321 M66.992 248.877 C 68.732 249.245,68.750 249.385,68.750 262.605 L 68.750 275.961 64.258 275.402 C 56.686 274.458,57.031 275.147,57.031 260.975 C 57.031 252.918,57.322 248.471,57.861 248.291 C 58.817 247.972,64.406 248.331,66.992 248.877 M236.691 249.167 C 237.883 251.394,237.742 271.264,236.523 272.837 C 235.252 274.478,217.510 276.240,215.880 274.887 C 214.410 273.667,214.389 250.569,215.857 249.350 C 216.415 248.887,219.667 248.388,223.084 248.240 C 226.501 248.092,230.779 247.900,232.590 247.813 C 235.147 247.691,236.063 247.994,236.691 249.167 M197.708 250.027 C 199.654 251.069,200.061 274.891,198.159 276.469 C 196.923 277.496,177.384 279.389,175.498 278.665 C 173.825 278.023,173.541 252.093,175.195 251.023 C 175.732 250.675,180.391 250.189,185.547 249.943 C 190.703 249.697,195.209 249.434,195.559 249.357 C 195.910 249.281,196.876 249.583,197.708 250.027 M97.852 252.080 C 98.174 252.276,98.438 258.968,98.438 266.951 L 98.438 281.465 94.336 280.971 C 92.080 280.699,88.916 280.107,87.305 279.655 L 84.375 278.833 84.375 265.328 C 84.375 257.900,84.639 251.557,84.961 251.231 C 85.537 250.649,96.708 251.385,97.852 252.080 M154.660 253.074 C 155.875 255.343,155.727 279.282,154.491 280.307 C 152.713 281.784,128.901 283.477,127.641 282.217 C 126.362 280.938,126.083 255.875,127.326 253.906 C 128.040 252.776,130.433 252.548,150.558 251.701 C 153.104 251.594,154.035 251.906,154.660 253.074 M380.313 275.156 C 381.399 276.243,381.620 291.958,380.572 293.610 C 379.519 295.270,368.812 296.671,367.923 295.265 C 366.724 293.370,367.011 277.682,368.264 276.642 C 368.855 276.151,371.404 275.448,373.928 275.079 C 376.451 274.711,378.709 274.366,378.945 274.314 C 379.182 274.262,379.797 274.641,380.313 275.156 M360.768 286.999 C 361.031 298.025,361.076 297.949,353.522 299.167 C 345.858 300.404,346.094 300.710,346.094 289.503 C 346.094 277.692,346.380 277.381,357.031 277.647 L 360.547 277.734 360.768 286.999 M338.108 290.770 C 338.355 302.942,339.219 301.638,329.914 303.132 C 322.432 304.334,322.656 304.646,322.656 293.018 C 322.656 281.374,322.469 281.687,330.078 280.631 C 338.524 279.458,337.861 278.620,338.108 290.770 M23.535 283.646 C 25.504 284.700,25.803 305.210,23.860 305.955 C 22.302 306.553,17.018 304.795,15.820 303.280 C 14.783 301.968,14.400 285.658,15.349 283.186 C 15.894 281.766,20.506 282.025,23.535 283.646 M44.336 290.395 C 45.710 292.238,45.687 310.908,44.309 312.793 C 43.356 314.096,43.075 314.080,38.840 312.496 L 34.375 310.825 34.375 299.228 C 34.375 290.695,34.631 287.545,35.344 287.307 C 36.909 286.785,43.274 288.971,44.336 290.395 M237.026 294.205 C 238.034 296.833,237.543 317.033,236.443 318.132 C 235.202 319.374,217.961 322.339,216.111 321.629 C 214.721 321.096,214.174 298.359,215.501 296.268 C 215.858 295.706,219.518 294.808,223.887 294.212 C 234.659 292.741,236.464 292.740,237.026 294.205 M64.702 294.952 L 68.750 296.154 68.750 309.405 C 68.750 324.210,69.117 323.467,62.834 321.374 C 56.804 319.365,57.031 319.960,57.031 306.154 L 57.031 293.750 58.843 293.750 C 59.839 293.750,62.476 294.291,64.702 294.952 M198.281 298.594 C 199.629 299.942,199.594 323.725,198.242 324.816 C 196.966 325.846,176.854 329.185,175.365 328.614 C 173.812 328.018,173.652 302.022,175.195 301.023 C 175.732 300.675,180.391 299.820,185.547 299.123 C 197.676 297.484,197.192 297.504,198.281 298.594 M93.359 302.942 L 98.047 304.360 98.259 318.977 C 98.505 335.859,99.141 334.875,90.234 331.394 L 84.766 329.257 84.551 316.099 C 84.330 302.532,84.755 300.311,87.415 301.136 C 88.106 301.350,90.781 302.163,93.359 302.942 M154.531 304.063 C 155.609 305.140,155.870 330.190,154.820 331.843 C 153.725 333.568,129.012 337.494,127.674 336.156 C 126.367 334.849,126.056 309.830,127.321 307.813 C 127.956 306.800,135.997 305.352,152.773 303.229 C 153.225 303.172,154.016 303.547,154.531 304.063 " stroke="#000000" fill="none" stroke-width="3" class="zfcghOFz_0"></path></g><style data-made-with="vivus-instant">.zfcghOFz_0{stroke-dasharray:6699 6701;stroke-dashoffset:6700;animation:zfcghOFz_draw_0 7200ms linear 0ms infinite,zfcghOFz_fade 7200ms linear 0ms infinite;}@keyframes zfcghOFz_draw{100%{stroke-dashoffset:0;}}@keyframes zfcghOFz_fade{0%{stroke-opacity:1;}94.44444444444444%{stroke-opacity:1;}100%{stroke-opacity:0;}}@keyframes zfcghOFz_draw_0{11.11111111111111%{stroke-dashoffset: 6700}52.77777777777778%{ stroke-dashoffset: 0;}100%{ stroke-dashoffset: 0;}}</style></svg>