<svg id="svg" version="1.1" width="400" height="400" viewBox="0 0 400 400" xmlns="http://www.w3.org/2000/svg" xmlns:xlink="http://www.w3.org/1999/xlink" style=""><g id="svgg"><path id="path0" d="M187.600 14.004 C 180.226 14.451,172.800 15.279,172.800 15.654 C 172.800 15.844,172.283 16.000,171.652 16.000 C 168.974 16.000,153.074 19.081,152.867 19.641 C 152.793 19.838,152.471 20.000,152.151 20.000 C 151.265 20.000,139.917 23.174,139.428 23.558 C 139.193 23.743,136.766 24.655,134.035 25.584 C 131.304 26.514,128.816 27.527,128.506 27.837 C 128.196 28.147,127.691 28.400,127.382 28.400 C 127.074 28.400,126.052 28.746,125.111 29.169 C 124.170 29.592,122.800 30.160,122.066 30.432 C 121.332 30.703,120.522 31.128,120.266 31.376 C 120.010 31.623,118.197 32.536,116.237 33.404 C 114.278 34.272,112.478 35.166,112.237 35.391 C 111.997 35.616,110.270 36.586,108.400 37.548 C 106.530 38.509,104.856 39.544,104.680 39.848 C 104.504 40.151,104.168 40.400,103.932 40.400 C 103.449 40.400,98.976 43.056,97.888 43.990 C 97.497 44.325,96.380 45.050,95.406 45.600 C 94.432 46.150,93.132 47.006,92.517 47.502 C 91.903 47.998,89.510 49.827,87.200 51.566 C 84.890 53.305,82.650 55.059,82.223 55.464 C 81.796 55.869,80.711 56.740,79.811 57.400 C 77.687 58.959,76.235 60.331,68.231 68.342 C 59.814 76.767,58.866 77.779,57.215 80.100 C 56.472 81.145,55.725 82.000,55.554 82.000 C 55.383 82.000,54.575 83.007,53.758 84.237 C 52.941 85.467,52.032 86.566,51.737 86.680 C 51.441 86.793,51.200 87.057,51.200 87.267 C 51.200 87.637,49.362 90.255,47.513 92.517 C 47.011 93.132,46.150 94.432,45.600 95.406 C 45.050 96.380,44.325 97.497,43.990 97.888 C 43.056 98.976,40.400 103.449,40.400 103.932 C 40.400 104.168,40.151 104.504,39.848 104.680 C 39.544 104.856,38.509 106.530,37.548 108.400 C 36.586 110.270,35.616 111.997,35.391 112.237 C 35.166 112.478,34.272 114.278,33.404 116.237 C 32.536 118.197,31.623 120.010,31.376 120.266 C 31.128 120.522,30.703 121.332,30.432 122.066 C 30.160 122.800,29.592 124.170,29.169 125.111 C 28.746 126.052,28.400 127.074,28.400 127.382 C 28.400 127.691,28.147 128.196,27.837 128.506 C 27.527 128.816,26.514 131.304,25.584 134.035 C 24.655 136.766,23.743 139.193,23.558 139.428 C 23.174 139.917,20.000 151.265,20.000 152.151 C 20.000 152.471,19.838 152.793,19.641 152.867 C 19.086 153.072,16.000 168.968,16.000 171.618 C 16.000 172.232,15.840 172.793,15.644 172.867 C 15.069 173.082,13.997 185.721,13.739 195.320 C 13.435 206.627,14.678 227.200,15.665 227.200 C 15.849 227.200,16.000 227.717,16.000 228.348 C 16.000 230.678,19.045 246.821,19.556 247.200 C 19.705 247.310,20.064 248.390,20.356 249.600 C 21.385 253.878,22.870 259.015,23.421 260.200 C 23.727 260.860,24.725 263.560,25.639 266.200 C 26.552 268.840,27.420 271.090,27.568 271.200 C 27.715 271.310,28.403 272.840,29.095 274.600 C 30.859 279.082,38.940 294.881,39.591 295.119 C 39.770 295.185,40.519 296.413,41.254 297.847 C 41.990 299.282,42.912 300.799,43.304 301.219 C 43.695 301.639,44.625 303.021,45.371 304.291 C 46.116 305.561,47.088 307.016,47.531 307.524 C 47.974 308.033,49.026 309.453,49.868 310.679 C 50.711 311.906,51.985 313.550,52.700 314.333 C 53.415 315.116,54.000 315.978,54.000 316.249 C 54.000 316.520,54.470 317.112,55.045 317.564 C 55.620 318.016,56.655 319.162,57.345 320.111 C 59.055 322.460,60.720 324.234,68.400 331.885 C 76.688 340.142,77.583 340.985,79.656 342.486 C 80.584 343.159,81.777 344.224,82.307 344.854 C 82.837 345.484,83.498 346.000,83.774 346.000 C 84.051 346.000,84.926 346.630,85.719 347.400 C 86.512 348.170,87.270 348.800,87.404 348.800 C 87.641 348.800,90.274 350.715,92.499 352.505 C 93.103 352.991,94.363 353.811,95.299 354.327 C 96.234 354.842,97.180 355.479,97.400 355.741 C 97.913 356.354,103.413 359.600,103.937 359.600 C 104.155 359.600,104.400 359.801,104.482 360.047 C 104.803 361.009,125.791 371.600,127.377 371.600 C 127.683 371.600,127.994 371.782,128.068 372.004 C 128.142 372.227,130.252 373.118,132.758 373.985 C 135.263 374.853,137.872 375.819,138.556 376.133 C 140.216 376.895,143.074 377.782,147.200 378.816 C 149.070 379.285,150.780 379.811,151.000 379.985 C 151.546 380.417,157.518 381.730,163.800 382.799 C 166.660 383.286,169.360 383.841,169.800 384.032 C 176.246 386.840,223.654 386.836,230.200 384.027 C 230.640 383.838,233.340 383.286,236.200 382.801 C 242.875 381.667,247.866 380.533,249.460 379.789 C 250.154 379.465,250.964 379.197,251.260 379.194 C 252.120 379.184,261.210 376.487,261.729 376.087 C 261.988 375.888,264.130 375.060,266.490 374.247 C 268.849 373.434,271.854 372.236,273.168 371.585 C 274.481 370.933,275.678 370.400,275.828 370.400 C 276.261 370.400,280.979 368.260,281.200 367.963 C 281.310 367.815,283.110 366.866,285.200 365.853 C 290.233 363.416,294.904 360.860,295.400 360.273 C 295.620 360.013,297.027 359.170,298.526 358.400 C 300.025 357.630,301.645 356.620,302.126 356.156 C 302.607 355.691,303.540 355.034,304.200 354.695 C 305.712 353.918,312.083 349.267,314.187 347.405 C 315.060 346.632,315.989 346.000,316.251 346.000 C 316.514 346.000,317.153 345.505,317.670 344.900 C 318.188 344.295,319.329 343.273,320.206 342.628 C 324.042 339.809,339.809 324.042,342.628 320.206 C 343.273 319.329,344.295 318.188,344.900 317.670 C 345.505 317.153,346.000 316.514,346.000 316.251 C 346.000 315.989,346.632 315.060,347.405 314.187 C 349.267 312.083,353.918 305.712,354.695 304.200 C 355.034 303.540,355.691 302.607,356.156 302.126 C 356.620 301.645,357.630 300.025,358.400 298.526 C 359.170 297.027,360.013 295.620,360.273 295.400 C 360.860 294.904,363.416 290.233,365.853 285.200 C 366.866 283.110,367.815 281.310,367.963 281.200 C 368.260 280.979,370.400 276.261,370.400 275.828 C 370.400 275.678,370.933 274.481,371.585 273.168 C 372.236 271.854,373.434 268.849,374.247 266.490 C 375.060 264.130,375.888 261.988,376.087 261.729 C 376.502 261.191,379.184 252.108,379.196 251.200 C 379.201 250.870,379.487 250.060,379.831 249.400 C 380.453 248.209,383.600 233.246,383.600 231.480 C 383.600 230.974,383.761 230.389,383.958 230.180 C 384.849 229.234,386.399 210.165,386.395 200.200 C 386.391 190.407,384.954 171.916,384.032 169.800 C 383.841 169.360,383.286 166.660,382.799 163.800 C 381.730 157.518,380.417 151.546,379.985 151.000 C 379.811 150.780,379.285 149.070,378.816 147.200 C 377.782 143.074,376.895 140.216,376.133 138.556 C 375.819 137.872,374.853 135.263,373.985 132.758 C 373.118 130.252,372.227 128.142,372.004 128.068 C 371.782 127.994,371.600 127.683,371.600 127.377 C 371.600 127.072,371.259 126.052,370.843 125.111 C 370.426 124.170,369.663 122.410,369.147 121.200 C 368.631 119.990,368.093 118.910,367.951 118.800 C 367.810 118.690,366.863 116.890,365.848 114.800 C 363.523 110.013,360.669 104.824,360.167 104.470 C 359.956 104.322,359.569 103.750,359.306 103.200 C 358.312 101.118,356.312 97.823,355.799 97.420 C 355.505 97.189,354.842 96.234,354.327 95.299 C 353.811 94.363,352.991 93.103,352.505 92.499 C 350.727 90.289,348.800 87.642,348.800 87.409 C 348.800 87.277,348.080 86.420,347.200 85.504 C 346.320 84.588,345.600 83.618,345.600 83.348 C 345.600 83.079,345.183 82.530,344.674 82.129 C 344.165 81.728,343.190 80.628,342.506 79.684 C 340.984 77.582,340.159 76.706,331.885 68.400 C 324.234 60.720,322.460 59.055,320.111 57.345 C 319.162 56.655,318.016 55.620,317.564 55.045 C 317.112 54.470,316.520 54.000,316.249 54.000 C 315.978 54.000,315.116 53.415,314.333 52.700 C 313.550 51.985,311.906 50.711,310.679 49.868 C 309.453 49.026,308.033 47.974,307.524 47.531 C 307.016 47.088,305.528 46.097,304.218 45.328 C 302.908 44.559,301.648 43.694,301.418 43.407 C 301.188 43.120,299.747 42.230,298.216 41.430 C 296.684 40.629,295.334 39.817,295.215 39.624 C 294.751 38.874,278.975 30.817,274.600 29.095 C 272.840 28.403,271.310 27.715,271.200 27.568 C 271.090 27.420,268.840 26.552,266.200 25.639 C 263.560 24.725,260.860 23.727,260.200 23.421 C 259.015 22.870,253.878 21.385,249.600 20.356 C 248.390 20.064,247.310 19.705,247.200 19.556 C 246.821 19.045,230.678 16.000,228.348 16.000 C 227.717 16.000,227.200 15.848,227.200 15.663 C 227.200 14.333,200.573 13.217,187.600 14.004 M160.400 89.167 L 160.400 103.934 162.100 104.539 C 163.035 104.871,165.239 105.621,166.999 106.204 C 168.758 106.788,170.378 107.406,170.599 107.578 C 170.819 107.749,173.340 108.651,176.200 109.581 C 179.060 110.511,181.580 111.412,181.800 111.583 C 182.020 111.753,184.540 112.661,187.400 113.600 C 190.260 114.539,192.780 115.439,193.000 115.600 C 193.220 115.761,195.740 116.661,198.600 117.600 C 201.460 118.539,203.980 119.444,204.200 119.610 C 204.420 119.777,206.940 120.679,209.800 121.615 C 212.660 122.551,215.090 123.434,215.200 123.577 C 215.310 123.719,217.830 124.619,220.800 125.577 C 223.770 126.534,226.290 127.444,226.400 127.600 C 226.510 127.755,228.490 128.473,230.800 129.197 C 233.110 129.920,235.720 130.841,236.600 131.244 C 237.480 131.647,240.450 132.722,243.200 133.633 C 245.950 134.544,248.380 135.425,248.600 135.591 C 248.820 135.757,251.340 136.664,254.200 137.606 C 257.060 138.549,259.490 139.428,259.600 139.561 C 259.801 139.802,267.596 142.400,268.121 142.400 C 268.274 142.400,268.400 139.340,268.400 135.600 L 268.400 128.800 290.403 128.800 L 312.407 128.800 312.303 150.900 L 312.200 173.000 299.803 173.200 L 287.406 173.400 285.787 183.400 C 284.896 188.900,284.055 193.670,283.917 194.000 C 283.778 194.330,282.908 199.545,281.983 205.590 C 281.058 211.634,280.149 216.944,279.964 217.390 C 279.778 217.835,278.891 223.060,277.993 229.000 C 277.094 234.940,276.199 240.160,276.003 240.600 C 275.642 241.409,273.200 256.590,273.200 258.024 C 273.200 258.769,273.556 258.800,282.000 258.800 L 290.800 258.800 290.800 281.000 L 290.800 303.200 268.600 303.200 L 246.400 303.200 246.400 293.700 L 246.400 284.200 217.300 286.106 C 201.295 287.155,177.670 288.720,164.800 289.584 C 151.930 290.448,140.725 291.165,139.900 291.178 L 138.400 291.200 138.400 302.600 L 138.400 314.000 116.400 314.000 L 94.400 314.000 94.400 292.000 L 94.400 270.000 106.400 270.000 C 116.657 270.000,118.400 269.915,118.400 269.416 C 118.400 267.785,119.270 260.420,119.607 259.200 C 119.819 258.430,120.728 250.420,121.626 241.400 C 122.524 232.380,123.414 224.640,123.603 224.200 C 123.793 223.760,124.690 215.840,125.597 206.600 C 126.505 197.360,127.405 189.440,127.597 189.000 C 127.790 188.560,128.691 180.640,129.600 171.400 C 130.509 162.160,131.363 154.330,131.499 154.000 C 131.634 153.670,132.569 145.570,133.575 136.000 L 135.405 118.600 125.702 118.493 L 116.000 118.386 116.000 96.393 L 116.000 74.400 138.200 74.400 L 160.400 74.400 160.400 89.167 M127.600 96.400 L 127.600 106.800 138.200 106.800 L 148.800 106.800 148.800 96.400 L 148.800 86.000 138.200 86.000 L 127.600 86.000 127.600 96.400 M279.600 150.800 L 279.600 161.200 290.200 161.200 L 300.800 161.200 300.800 150.800 L 300.800 140.400 290.200 140.400 L 279.600 140.400 279.600 150.800 M258.000 281.400 L 258.000 292.000 268.400 292.000 L 278.800 292.000 278.800 281.400 L 278.800 270.800 268.400 270.800 L 258.000 270.800 258.000 281.400 M106.000 292.000 L 106.000 302.400 116.400 302.400 L 126.800 302.400 126.800 292.000 L 126.800 281.600 116.400 281.600 L 106.000 281.600 106.000 292.000 " stroke="#000000" fill="none" stroke-width="3" class="CpfVPwvN_0"></path><path id="path1" d="M116.000 96.400 C 116.000 108.500,116.135 118.400,116.300 118.400 C 116.465 118.400,116.552 108.590,116.493 96.600 L 116.387 74.800 138.193 74.800 L 160.000 74.800 160.000 89.553 L 160.000 104.307 160.883 104.537 C 162.023 104.836,162.320 104.555,161.230 104.210 C 160.410 103.949,160.400 103.774,160.400 89.173 L 160.400 74.400 138.200 74.400 L 116.000 74.400 116.000 96.400 M127.380 86.107 C 127.273 86.386,127.234 91.201,127.293 96.807 L 127.400 107.000 138.200 107.010 L 149.000 107.020 138.300 106.904 L 127.600 106.787 127.600 96.400 L 127.600 86.013 138.300 85.900 L 149.000 85.786 138.287 85.693 C 129.940 85.621,127.532 85.712,127.380 86.107 M163.600 105.362 C 163.600 105.531,170.246 108.000,170.701 108.000 C 171.521 108.000,169.804 107.125,167.230 106.231 C 164.296 105.212,163.600 105.046,163.600 105.362 M173.656 108.989 C 174.049 109.383,181.717 112.016,181.910 111.824 C 182.141 111.592,180.999 111.128,176.849 109.768 C 173.840 108.781,173.321 108.655,173.656 108.989 M185.200 113.170 C 186.311 113.811,192.913 116.020,193.115 115.818 C 193.345 115.588,193.359 115.594,188.625 114.002 C 184.933 112.761,184.167 112.575,185.200 113.170 M193.611 116.114 C 193.930 116.479,207.305 121.228,207.492 121.042 C 207.581 120.953,206.967 120.658,206.127 120.388 C 205.287 120.117,204.420 119.763,204.200 119.601 C 203.980 119.440,201.730 118.627,199.200 117.795 C 196.670 116.963,194.330 116.190,194.000 116.077 C 193.670 115.965,193.495 115.981,193.611 116.114 M135.445 118.843 C 135.131 119.847,133.095 140.828,133.292 141.025 C 133.398 141.131,133.595 140.179,133.731 138.909 C 133.867 137.639,134.441 132.573,135.006 127.650 C 135.903 119.842,136.049 116.908,135.445 118.843 M208.035 121.368 C 208.409 121.742,214.953 123.981,215.136 123.797 C 215.445 123.488,215.202 123.375,211.799 122.254 C 208.755 121.252,207.661 120.994,208.035 121.368 M216.800 124.600 C 218.626 125.303,219.345 125.293,217.800 124.586 C 217.140 124.283,216.330 124.042,216.000 124.048 C 215.670 124.055,216.030 124.303,216.800 124.600 M219.210 125.327 C 219.410 125.542,225.862 128.000,226.227 128.000 C 227.234 128.000,225.850 127.185,223.700 126.513 C 219.779 125.286,218.975 125.074,219.210 125.327 M228.033 128.553 C 228.463 128.947,237.322 132.012,237.504 131.830 C 237.754 131.579,236.516 131.078,231.882 129.556 C 228.480 128.439,227.681 128.230,228.033 128.553 M312.096 150.494 L 312.000 172.388 299.733 172.494 C 292.006 172.561,287.417 172.748,287.333 173.000 C 287.123 173.629,311.980 173.318,312.221 172.689 C 312.324 172.420,312.360 162.390,312.300 150.400 L 312.193 128.600 312.096 150.494 M240.456 132.989 C 240.849 133.383,248.517 136.016,248.710 135.824 C 248.931 135.603,248.456 135.407,243.933 133.853 C 240.928 132.822,240.076 132.610,240.456 132.989 M250.434 136.537 C 250.842 136.999,259.600 140.000,259.600 139.679 C 259.600 139.509,257.755 138.767,255.500 138.030 C 253.245 137.293,251.130 136.596,250.800 136.481 C 250.470 136.366,250.305 136.391,250.434 136.537 M260.423 140.126 C 260.824 140.582,268.400 143.193,268.400 142.875 C 268.400 142.705,266.825 142.053,264.900 141.428 C 262.975 140.803,261.130 140.197,260.800 140.082 C 260.470 139.967,260.300 139.986,260.423 140.126 M290.100 140.300 L 300.800 140.413 300.800 150.800 L 300.800 161.187 290.100 161.304 L 279.400 161.420 290.200 161.410 L 301.000 161.400 301.107 150.700 L 301.213 140.000 290.307 140.093 L 279.400 140.186 290.100 140.300 M132.901 143.400 C 132.905 144.280,132.987 144.593,133.083 144.095 C 133.179 143.598,133.175 142.878,133.075 142.495 C 132.975 142.113,132.896 142.520,132.901 143.400 M132.493 147.200 C 132.493 147.970,132.575 148.285,132.676 147.900 C 132.776 147.515,132.776 146.885,132.676 146.500 C 132.575 146.115,132.493 146.430,132.493 147.200 M132.093 150.800 C 132.093 151.570,132.175 151.885,132.276 151.500 C 132.376 151.115,132.376 150.485,132.276 150.100 C 132.175 149.715,132.093 150.030,132.093 150.800 M131.438 154.043 C 131.149 154.937,129.090 176.023,129.274 176.208 C 129.366 176.300,130.024 171.318,130.737 165.137 C 131.872 155.285,132.074 152.079,131.438 154.043 M128.893 178.400 C 128.893 179.170,128.975 179.485,129.076 179.100 C 129.176 178.715,129.176 178.085,129.076 177.700 C 128.975 177.315,128.893 177.630,128.893 178.400 M285.050 185.459 C 284.433 189.167,283.831 192.650,283.712 193.200 C 283.568 193.867,283.630 194.067,283.897 193.800 C 284.326 193.371,286.556 179.868,286.316 179.148 C 286.237 178.912,285.668 181.752,285.050 185.459 M127.438 189.243 C 127.144 190.151,125.092 211.225,125.279 211.412 C 125.374 211.507,126.027 206.520,126.730 200.330 C 127.858 190.406,128.054 187.342,127.438 189.243 M281.239 207.698 C 279.422 218.549,279.513 217.885,279.937 217.200 C 280.344 216.542,282.948 200.415,282.689 200.156 C 282.601 200.067,281.948 203.461,281.239 207.698 M124.893 213.600 C 124.893 214.370,124.975 214.685,125.076 214.300 C 125.176 213.915,125.176 213.285,125.076 212.900 C 124.975 212.515,124.893 212.830,124.893 213.600 M277.219 230.898 C 276.499 235.134,275.816 239.140,275.702 239.800 C 275.565 240.592,275.629 240.864,275.889 240.600 C 276.297 240.187,278.986 223.653,278.693 223.360 C 278.603 223.269,277.939 226.661,277.219 230.898 M123.438 224.443 C 123.152 225.326,121.103 246.437,121.286 246.620 C 121.377 246.710,122.027 241.720,122.730 235.530 C 123.858 225.604,124.054 222.545,123.438 224.443 M120.893 248.800 C 120.893 249.570,120.975 249.885,121.076 249.500 C 121.176 249.115,121.176 248.485,121.076 248.100 C 120.975 247.715,120.893 248.030,120.893 248.800 M273.486 252.623 C 273.122 254.810,272.707 257.181,272.563 257.892 L 272.303 259.184 281.252 259.292 L 290.200 259.400 290.303 281.100 L 290.407 302.800 268.603 302.800 L 246.800 302.800 246.800 293.200 C 246.800 287.787,246.643 283.600,246.440 283.600 C 245.566 283.600,221.181 285.309,215.400 285.775 C 211.880 286.059,209.900 286.303,211.000 286.318 C 212.100 286.332,220.515 285.862,229.700 285.272 L 246.400 284.200 246.400 293.700 L 246.400 303.200 268.600 303.200 L 290.800 303.200 290.800 281.000 L 290.800 258.800 282.000 258.800 C 271.807 258.800,272.831 259.482,273.818 253.350 C 274.158 251.237,274.371 249.314,274.292 249.077 C 274.213 248.839,273.850 250.435,273.486 252.623 M120.493 252.400 C 120.493 253.170,120.575 253.485,120.676 253.100 C 120.776 252.715,120.776 252.085,120.676 251.700 C 120.575 251.315,120.493 251.630,120.493 252.400 M119.435 259.653 C 119.222 260.641,118.400 268.398,118.400 269.416 C 118.400 269.915,116.657 270.000,106.400 270.000 L 94.400 270.000 94.400 292.000 L 94.400 314.000 116.500 313.903 L 138.600 313.807 116.700 313.700 L 94.800 313.593 94.800 291.997 L 94.800 270.400 106.576 270.400 C 113.540 270.400,118.448 270.246,118.586 270.022 C 118.919 269.483,120.086 259.153,119.842 258.908 C 119.730 258.797,119.547 259.132,119.435 259.653 M257.781 270.907 C 257.674 271.185,257.637 276.090,257.700 281.807 L 257.814 292.200 257.907 281.500 L 258.000 270.800 268.393 270.800 L 278.787 270.800 278.900 281.500 L 279.014 292.200 279.107 281.300 L 279.200 270.400 268.587 270.400 C 260.393 270.400,257.931 270.515,257.781 270.907 M105.600 292.000 L 105.600 302.800 116.400 302.800 L 127.200 302.800 127.200 292.000 L 127.200 281.200 116.400 281.200 L 105.600 281.200 105.600 292.000 M126.800 292.000 L 126.800 302.400 116.400 302.400 L 106.000 302.400 106.000 292.000 L 106.000 281.600 116.400 281.600 L 126.800 281.600 126.800 292.000 M204.905 286.687 C 205.514 286.779,206.414 286.777,206.905 286.682 C 207.397 286.587,206.900 286.511,205.800 286.514 C 204.700 286.517,204.297 286.595,204.905 286.687 M198.500 287.087 C 199.105 287.178,200.095 287.178,200.700 287.087 C 201.305 286.995,200.810 286.920,199.600 286.920 C 198.390 286.920,197.895 286.995,198.500 287.087 M192.300 287.482 C 192.795 287.578,193.605 287.578,194.100 287.482 C 194.595 287.387,194.190 287.309,193.200 287.309 C 192.210 287.309,191.805 287.387,192.300 287.482 M184.400 287.857 C 183.850 287.933,179.260 288.261,174.200 288.586 C 155.481 289.789,150.804 290.138,150.981 290.315 C 151.281 290.615,187.335 288.371,188.200 287.998 C 189.023 287.644,186.605 287.554,184.400 287.857 M146.500 290.687 C 147.105 290.778,148.095 290.778,148.700 290.687 C 149.305 290.595,148.810 290.520,147.600 290.520 C 146.390 290.520,145.895 290.595,146.500 290.687 M140.505 291.087 C 141.114 291.179,142.014 291.177,142.505 291.082 C 142.997 290.987,142.500 290.911,141.400 290.914 C 140.300 290.917,139.897 290.995,140.505 291.087 " stroke="#000000" fill="none" stroke-width="3" class="CpfVPwvN_1"></path><path id="path2" d="M187.600 14.004 C 180.226 14.451,172.800 15.279,172.800 15.654 C 172.800 15.844,172.283 16.000,171.652 16.000 C 168.974 16.000,153.074 19.081,152.867 19.641 C 152.793 19.838,152.471 20.000,152.151 20.000 C 151.265 20.000,139.917 23.174,139.428 23.558 C 139.193 23.743,136.766 24.655,134.035 25.584 C 131.304 26.514,128.816 27.527,128.506 27.837 C 128.196 28.147,127.691 28.400,127.382 28.400 C 127.074 28.400,126.052 28.746,125.111 29.169 C 124.170 29.592,122.800 30.160,122.066 30.432 C 121.332 30.703,120.522 31.128,120.266 31.376 C 120.010 31.623,118.197 32.536,116.237 33.404 C 114.278 34.272,112.478 35.166,112.237 35.391 C 111.997 35.616,110.270 36.586,108.400 37.548 C 106.530 38.509,104.856 39.544,104.680 39.848 C 104.504 40.151,104.168 40.400,103.932 40.400 C 103.449 40.400,98.976 43.056,97.888 43.990 C 97.497 44.325,96.380 45.050,95.406 45.600 C 94.432 46.150,93.132 47.006,92.517 47.502 C 91.903 47.998,89.510 49.827,87.200 51.566 C 84.890 53.305,82.650 55.059,82.223 55.464 C 81.796 55.869,80.711 56.740,79.811 57.400 C 77.687 58.959,76.235 60.331,68.231 68.342 C 59.814 76.767,58.866 77.779,57.215 80.100 C 56.472 81.145,55.725 82.000,55.554 82.000 C 55.383 82.000,54.575 83.007,53.758 84.237 C 52.941 85.467,52.032 86.566,51.737 86.680 C 51.441 86.793,51.200 87.057,51.200 87.267 C 51.200 87.637,49.362 90.255,47.513 92.517 C 47.011 93.132,46.150 94.432,45.600 95.406 C 45.050 96.380,44.325 97.497,43.990 97.888 C 43.056 98.976,40.400 103.449,40.400 103.932 C 40.400 104.168,40.151 104.504,39.848 104.680 C 39.544 104.856,38.509 106.530,37.548 108.400 C 36.586 110.270,35.616 111.997,35.391 112.237 C 35.166 112.478,34.272 114.278,33.404 116.237 C 32.536 118.197,31.623 120.010,31.376 120.266 C 31.128 120.522,30.703 121.332,30.432 122.066 C 30.160 122.800,29.592 124.170,29.169 125.111 C 28.746 126.052,28.400 127.074,28.400 127.382 C 28.400 127.691,28.147 128.196,27.837 128.506 C 27.527 128.816,26.514 131.304,25.584 134.035 C 24.655 136.766,23.743 139.193,23.558 139.428 C 23.174 139.917,20.000 151.265,20.000 152.151 C 20.000 152.471,19.838 152.793,19.641 152.867 C 19.086 153.072,16.000 168.968,16.000 171.618 C 16.000 172.232,15.840 172.793,15.644 172.867 C 15.069 173.082,13.997 185.721,13.739 195.320 C 13.435 206.627,14.678 227.200,15.665 227.200 C 15.849 227.200,16.000 227.717,16.000 228.348 C 16.000 230.678,19.045 246.821,19.556 247.200 C 19.705 247.310,20.064 248.390,20.356 249.600 C 21.385 253.878,22.870 259.015,23.421 260.200 C 23.727 260.860,24.725 263.560,25.639 266.200 C 26.552 268.840,27.420 271.090,27.568 271.200 C 27.715 271.310,28.403 272.840,29.095 274.600 C 30.859 279.082,38.940 294.881,39.591 295.119 C 39.770 295.185,40.519 296.413,41.254 297.847 C 41.990 299.282,42.912 300.799,43.304 301.219 C 43.695 301.639,44.625 303.021,45.371 304.291 C 46.116 305.561,47.088 307.016,47.531 307.524 C 47.974 308.033,49.026 309.453,49.868 310.679 C 50.711 311.906,51.985 313.550,52.700 314.333 C 53.415 315.116,54.000 315.978,54.000 316.249 C 54.000 316.520,54.470 317.112,55.045 317.564 C 55.620 318.016,56.655 319.162,57.345 320.111 C 59.055 322.460,60.720 324.234,68.400 331.885 C 76.688 340.142,77.583 340.985,79.656 342.486 C 80.584 343.159,81.777 344.224,82.307 344.854 C 82.837 345.484,83.498 346.000,83.774 346.000 C 84.051 346.000,84.926 346.630,85.719 347.400 C 86.512 348.170,87.270 348.800,87.404 348.800 C 87.641 348.800,90.274 350.715,92.499 352.505 C 93.103 352.991,94.363 353.811,95.299 354.327 C 96.234 354.842,97.180 355.479,97.400 355.741 C 97.913 356.354,103.413 359.600,103.937 359.600 C 104.155 359.600,104.400 359.801,104.482 360.047 C 104.803 361.009,125.791 371.600,127.377 371.600 C 127.683 371.600,127.994 371.782,128.068 372.004 C 128.142 372.227,130.252 373.118,132.758 373.985 C 135.263 374.853,137.872 375.819,138.556 376.133 C 140.216 376.895,143.074 377.782,147.200 378.816 C 149.070 379.285,150.780 379.811,151.000 379.985 C 151.546 380.417,157.518 381.730,163.800 382.799 C 166.660 383.286,169.360 383.841,169.800 384.032 C 176.246 386.840,223.654 386.836,230.200 384.027 C 230.640 383.838,233.340 383.286,236.200 382.801 C 242.875 381.667,247.866 380.533,249.460 379.789 C 250.154 379.465,250.964 379.197,251.260 379.194 C 252.120 379.184,261.210 376.487,261.729 376.087 C 261.988 375.888,264.130 375.060,266.490 374.247 C 268.849 373.434,271.854 372.236,273.168 371.585 C 274.481 370.933,275.678 370.400,275.828 370.400 C 276.261 370.400,280.979 368.260,281.200 367.963 C 281.310 367.815,283.110 366.866,285.200 365.853 C 290.233 363.416,294.904 360.860,295.400 360.273 C 295.620 360.013,297.027 359.170,298.526 358.400 C 300.025 357.630,301.645 356.620,302.126 356.156 C 302.607 355.691,303.540 355.034,304.200 354.695 C 305.712 353.918,312.083 349.267,314.187 347.405 C 315.060 346.632,315.989 346.000,316.251 346.000 C 316.514 346.000,317.153 345.505,317.670 344.900 C 318.188 344.295,319.329 343.273,320.206 342.628 C 324.042 339.809,339.809 324.042,342.628 320.206 C 343.273 319.329,344.295 318.188,344.900 317.670 C 345.505 317.153,346.000 316.514,346.000 316.251 C 346.000 315.989,346.632 315.060,347.405 314.187 C 349.267 312.083,353.918 305.712,354.695 304.200 C 355.034 303.540,355.691 302.607,356.156 302.126 C 356.620 301.645,357.630 300.025,358.400 298.526 C 359.170 297.027,360.013 295.620,360.273 295.400 C 360.860 294.904,363.416 290.233,365.853 285.200 C 366.866 283.110,367.815 281.310,367.963 281.200 C 368.260 280.979,370.400 276.261,370.400 275.828 C 370.400 275.678,370.933 274.481,371.585 273.168 C 372.236 271.854,373.434 268.849,374.247 266.490 C 375.060 264.130,375.888 261.988,376.087 261.729 C 376.502 261.191,379.184 252.108,379.196 251.200 C 379.201 250.870,379.487 250.060,379.831 249.400 C 380.453 248.209,383.600 233.246,383.600 231.480 C 383.600 230.974,383.761 230.389,383.958 230.180 C 384.849 229.234,386.399 210.165,386.395 200.200 C 386.391 190.407,384.954 171.916,384.032 169.800 C 383.841 169.360,383.286 166.660,382.799 163.800 C 381.730 157.518,380.417 151.546,379.985 151.000 C 379.811 150.780,379.285 149.070,378.816 147.200 C 377.782 143.074,376.895 140.216,376.133 138.556 C 375.819 137.872,374.853 135.263,373.985 132.758 C 373.118 130.252,372.227 128.142,372.004 128.068 C 371.782 127.994,371.600 127.683,371.600 127.377 C 371.600 127.072,371.259 126.052,370.843 125.111 C 370.426 124.170,369.663 122.410,369.147 121.200 C 368.631 119.990,368.093 118.910,367.951 118.800 C 367.810 118.690,366.863 116.890,365.848 114.800 C 363.523 110.013,360.669 104.824,360.167 104.470 C 359.956 104.322,359.569 103.750,359.306 103.200 C 358.312 101.118,356.312 97.823,355.799 97.420 C 355.505 97.189,354.842 96.234,354.327 95.299 C 353.811 94.363,352.991 93.103,352.505 92.499 C 350.727 90.289,348.800 87.642,348.800 87.409 C 348.800 87.277,348.080 86.420,347.200 85.504 C 346.320 84.588,345.600 83.618,345.600 83.348 C 345.600 83.079,345.183 82.530,344.674 82.129 C 344.165 81.728,343.190 80.628,342.506 79.684 C 340.984 77.582,340.159 76.706,331.885 68.400 C 324.234 60.720,322.460 59.055,320.111 57.345 C 319.162 56.655,318.016 55.620,317.564 55.045 C 317.112 54.470,316.520 54.000,316.249 54.000 C 315.978 54.000,315.116 53.415,314.333 52.700 C 313.550 51.985,311.906 50.711,310.679 49.868 C 309.453 49.026,308.033 47.974,307.524 47.531 C 307.016 47.088,305.528 46.097,304.218 45.328 C 302.908 44.559,301.648 43.694,301.418 43.407 C 301.188 43.120,299.747 42.230,298.216 41.430 C 296.684 40.629,295.334 39.817,295.215 39.624 C 294.751 38.874,278.975 30.817,274.600 29.095 C 272.840 28.403,271.310 27.715,271.200 27.568 C 271.090 27.420,268.840 26.552,266.200 25.639 C 263.560 24.725,260.860 23.727,260.200 23.421 C 259.015 22.870,253.878 21.385,249.600 20.356 C 248.390 20.064,247.310 19.705,247.200 19.556 C 246.821 19.045,230.678 16.000,228.348 16.000 C 227.717 16.000,227.200 15.848,227.200 15.663 C 227.200 14.333,200.573 13.217,187.600 14.004 M160.400 89.167 L 160.400 103.934 162.100 104.539 C 163.035 104.871,165.239 105.621,166.999 106.204 C 168.758 106.788,170.378 107.406,170.599 107.578 C 170.819 107.749,173.340 108.651,176.200 109.581 C 179.060 110.511,181.580 111.412,181.800 111.583 C 182.020 111.753,184.540 112.661,187.400 113.600 C 190.260 114.539,192.780 115.439,193.000 115.600 C 193.220 115.761,195.740 116.661,198.600 117.600 C 201.460 118.539,203.980 119.444,204.200 119.610 C 204.420 119.777,206.940 120.679,209.800 121.615 C 212.660 122.551,215.090 123.434,215.200 123.577 C 215.310 123.719,217.830 124.619,220.800 125.577 C 223.770 126.534,226.290 127.444,226.400 127.600 C 226.510 127.755,228.490 128.473,230.800 129.197 C 233.110 129.920,235.720 130.841,236.600 131.244 C 237.480 131.647,240.450 132.722,243.200 133.633 C 245.950 134.544,248.380 135.425,248.600 135.591 C 248.820 135.757,251.340 136.664,254.200 137.606 C 257.060 138.549,259.490 139.428,259.600 139.561 C 259.801 139.802,267.596 142.400,268.121 142.400 C 268.274 142.400,268.400 139.340,268.400 135.600 L 268.400 128.800 290.403 128.800 L 312.407 128.800 312.303 150.900 L 312.200 173.000 299.803 173.200 L 287.406 173.400 285.787 183.400 C 284.896 188.900,284.055 193.670,283.917 194.000 C 283.778 194.330,282.908 199.545,281.983 205.590 C 281.058 211.634,280.149 216.944,279.964 217.390 C 279.778 217.835,278.891 223.060,277.993 229.000 C 277.094 234.940,276.199 240.160,276.003 240.600 C 275.642 241.409,273.200 256.590,273.200 258.024 C 273.200 258.769,273.556 258.800,282.000 258.800 L 290.800 258.800 290.800 281.000 L 290.800 303.200 268.600 303.200 L 246.400 303.200 246.400 293.700 L 246.400 284.200 217.300 286.106 C 201.295 287.155,177.670 288.720,164.800 289.584 C 151.930 290.448,140.725 291.165,139.900 291.178 L 138.400 291.200 138.400 302.600 L 138.400 314.000 116.400 314.000 L 94.400 314.000 94.400 292.000 L 94.400 270.000 106.400 270.000 C 116.657 270.000,118.400 269.915,118.400 269.416 C 118.400 267.785,119.270 260.420,119.607 259.200 C 119.819 258.430,120.728 250.420,121.626 241.400 C 122.524 232.380,123.414 224.640,123.603 224.200 C 123.793 223.760,124.690 215.840,125.597 206.600 C 126.505 197.360,127.405 189.440,127.597 189.000 C 127.790 188.560,128.691 180.640,129.600 171.400 C 130.509 162.160,131.363 154.330,131.499 154.000 C 131.634 153.670,132.569 145.570,133.575 136.000 L 135.405 118.600 125.702 118.493 L 116.000 118.386 116.000 96.393 L 116.000 74.400 138.200 74.400 L 160.400 74.400 160.400 89.167 M127.600 96.400 L 127.600 106.800 138.200 106.800 L 148.800 106.800 148.800 96.400 L 148.800 86.000 138.200 86.000 L 127.600 86.000 127.600 96.400 M279.600 150.800 L 279.600 161.200 290.200 161.200 L 300.800 161.200 300.800 150.800 L 300.800 140.400 290.200 140.400 L 279.600 140.400 279.600 150.800 M258.000 281.400 L 258.000 292.000 268.400 292.000 L 278.800 292.000 278.800 281.400 L 278.800 270.800 268.400 270.800 L 258.000 270.800 258.000 281.400 M106.000 292.000 L 106.000 302.400 116.400 302.400 L 126.800 302.400 126.800 292.000 L 126.800 281.600 116.400 281.600 L 106.000 281.600 106.000 292.000 " stroke="#000000" fill="none" stroke-width="3" class="CpfVPwvN_2"></path><path id="path3" d="M187.600 14.004 C 180.226 14.451,172.800 15.279,172.800 15.654 C 172.800 15.844,172.283 16.000,171.652 16.000 C 168.974 16.000,153.074 19.081,152.867 19.641 C 152.793 19.838,152.471 20.000,152.151 20.000 C 151.265 20.000,139.917 23.174,139.428 23.558 C 139.193 23.743,136.766 24.655,134.035 25.584 C 131.304 26.514,128.816 27.527,128.506 27.837 C 128.196 28.147,127.691 28.400,127.382 28.400 C 127.074 28.400,126.052 28.746,125.111 29.169 C 124.170 29.592,122.800 30.160,122.066 30.432 C 121.332 30.703,120.522 31.128,120.266 31.376 C 120.010 31.623,118.197 32.536,116.237 33.404 C 114.278 34.272,112.478 35.166,112.237 35.391 C 111.997 35.616,110.270 36.586,108.400 37.548 C 106.530 38.509,104.856 39.544,104.680 39.848 C 104.504 40.151,104.168 40.400,103.932 40.400 C 103.449 40.400,98.976 43.056,97.888 43.990 C 97.497 44.325,96.380 45.050,95.406 45.600 C 94.432 46.150,93.132 47.006,92.517 47.502 C 91.903 47.998,89.510 49.827,87.200 51.566 C 84.890 53.305,82.650 55.059,82.223 55.464 C 81.796 55.869,80.711 56.740,79.811 57.400 C 77.687 58.959,76.235 60.331,68.231 68.342 C 59.814 76.767,58.866 77.779,57.215 80.100 C 56.472 81.145,55.725 82.000,55.554 82.000 C 55.383 82.000,54.575 83.007,53.758 84.237 C 52.941 85.467,52.032 86.566,51.737 86.680 C 51.441 86.793,51.200 87.057,51.200 87.267 C 51.200 87.637,49.362 90.255,47.513 92.517 C 47.011 93.132,46.150 94.432,45.600 95.406 C 45.050 96.380,44.325 97.497,43.990 97.888 C 43.056 98.976,40.400 103.449,40.400 103.932 C 40.400 104.168,40.151 104.504,39.848 104.680 C 39.544 104.856,38.509 106.530,37.548 108.400 C 36.586 110.270,35.616 111.997,35.391 112.237 C 35.166 112.478,34.272 114.278,33.404 116.237 C 32.536 118.197,31.623 120.010,31.376 120.266 C 31.128 120.522,30.703 121.332,30.432 122.066 C 30.160 122.800,29.592 124.170,29.169 125.111 C 28.746 126.052,28.400 127.074,28.400 127.382 C 28.400 127.691,28.147 128.196,27.837 128.506 C 27.527 128.816,26.514 131.304,25.584 134.035 C 24.655 136.766,23.743 139.193,23.558 139.428 C 23.174 139.917,20.000 151.265,20.000 152.151 C 20.000 152.471,19.838 152.793,19.641 152.867 C 19.086 153.072,16.000 168.968,16.000 171.618 C 16.000 172.232,15.840 172.793,15.644 172.867 C 15.069 173.082,13.997 185.721,13.739 195.320 C 13.435 206.627,14.678 227.200,15.665 227.200 C 15.849 227.200,16.000 227.717,16.000 228.348 C 16.000 230.678,19.045 246.821,19.556 247.200 C 19.705 247.310,20.064 248.390,20.356 249.600 C 21.385 253.878,22.870 259.015,23.421 260.200 C 23.727 260.860,24.725 263.560,25.639 266.200 C 26.552 268.840,27.420 271.090,27.568 271.200 C 27.715 271.310,28.403 272.840,29.095 274.600 C 30.859 279.082,38.940 294.881,39.591 295.119 C 39.770 295.185,40.519 296.413,41.254 297.847 C 41.990 299.282,42.912 300.799,43.304 301.219 C 43.695 301.639,44.625 303.021,45.371 304.291 C 46.116 305.561,47.088 307.016,47.531 307.524 C 47.974 308.033,49.026 309.453,49.868 310.679 C 50.711 311.906,51.985 313.550,52.700 314.333 C 53.415 315.116,54.000 315.978,54.000 316.249 C 54.000 316.520,54.470 317.112,55.045 317.564 C 55.620 318.016,56.655 319.162,57.345 320.111 C 59.055 322.460,60.720 324.234,68.400 331.885 C 76.688 340.142,77.583 340.985,79.656 342.486 C 80.584 343.159,81.777 344.224,82.307 344.854 C 82.837 345.484,83.498 346.000,83.774 346.000 C 84.051 346.000,84.926 346.630,85.719 347.400 C 86.512 348.170,87.270 348.800,87.404 348.800 C 87.641 348.800,90.274 350.715,92.499 352.505 C 93.103 352.991,94.363 353.811,95.299 354.327 C 96.234 354.842,97.180 355.479,97.400 355.741 C 97.913 356.354,103.413 359.600,103.937 359.600 C 104.155 359.600,104.400 359.801,104.482 360.047 C 104.803 361.009,125.791 371.600,127.377 371.600 C 127.683 371.600,127.994 371.782,128.068 372.004 C 128.142 372.227,130.252 373.118,132.758 373.985 C 135.263 374.853,137.872 375.819,138.556 376.133 C 140.216 376.895,143.074 377.782,147.200 378.816 C 149.070 379.285,150.780 379.811,151.000 379.985 C 151.546 380.417,157.518 381.730,163.800 382.799 C 166.660 383.286,169.360 383.841,169.800 384.032 C 176.246 386.840,223.654 386.836,230.200 384.027 C 230.640 383.838,233.340 383.286,236.200 382.801 C 242.875 381.667,247.866 380.533,249.460 379.789 C 250.154 379.465,250.964 379.197,251.260 379.194 C 252.120 379.184,261.210 376.487,261.729 376.087 C 261.988 375.888,264.130 375.060,266.490 374.247 C 268.849 373.434,271.854 372.236,273.168 371.585 C 274.481 370.933,275.678 370.400,275.828 370.400 C 276.261 370.400,280.979 368.260,281.200 367.963 C 281.310 367.815,283.110 366.866,285.200 365.853 C 290.233 363.416,294.904 360.860,295.400 360.273 C 295.620 360.013,297.027 359.170,298.526 358.400 C 300.025 357.630,301.645 356.620,302.126 356.156 C 302.607 355.691,303.540 355.034,304.200 354.695 C 305.712 353.918,312.083 349.267,314.187 347.405 C 315.060 346.632,315.989 346.000,316.251 346.000 C 316.514 346.000,317.153 345.505,317.670 344.900 C 318.188 344.295,319.329 343.273,320.206 342.628 C 324.042 339.809,339.809 324.042,342.628 320.206 C 343.273 319.329,344.295 318.188,344.900 317.670 C 345.505 317.153,346.000 316.514,346.000 316.251 C 346.000 315.989,346.632 315.060,347.405 314.187 C 349.267 312.083,353.918 305.712,354.695 304.200 C 355.034 303.540,355.691 302.607,356.156 302.126 C 356.620 301.645,357.630 300.025,358.400 298.526 C 359.170 297.027,360.013 295.620,360.273 295.400 C 360.860 294.904,363.416 290.233,365.853 285.200 C 366.866 283.110,367.815 281.310,367.963 281.200 C 368.260 280.979,370.400 276.261,370.400 275.828 C 370.400 275.678,370.933 274.481,371.585 273.168 C 372.236 271.854,373.434 268.849,374.247 266.490 C 375.060 264.130,375.888 261.988,376.087 261.729 C 376.502 261.191,379.184 252.108,379.196 251.200 C 379.201 250.870,379.487 250.060,379.831 249.400 C 380.453 248.209,383.600 233.246,383.600 231.480 C 383.600 230.974,383.761 230.389,383.958 230.180 C 384.849 229.234,386.399 210.165,386.395 200.200 C 386.391 190.407,384.954 171.916,384.032 169.800 C 383.841 169.360,383.286 166.660,382.799 163.800 C 381.730 157.518,380.417 151.546,379.985 151.000 C 379.811 150.780,379.285 149.070,378.816 147.200 C 377.782 143.074,376.895 140.216,376.133 138.556 C 375.819 137.872,374.853 135.263,373.985 132.758 C 373.118 130.252,372.227 128.142,372.004 128.068 C 371.782 127.994,371.600 127.683,371.600 127.377 C 371.600 127.072,371.259 126.052,370.843 125.111 C 370.426 124.170,369.663 122.410,369.147 121.200 C 368.631 119.990,368.093 118.910,367.951 118.800 C 367.810 118.690,366.863 116.890,365.848 114.800 C 363.523 110.013,360.669 104.824,360.167 104.470 C 359.956 104.322,359.569 103.750,359.306 103.200 C 358.312 101.118,356.312 97.823,355.799 97.420 C 355.505 97.189,354.842 96.234,354.327 95.299 C 353.811 94.363,352.991 93.103,352.505 92.499 C 350.727 90.289,348.800 87.642,348.800 87.409 C 348.800 87.277,348.080 86.420,347.200 85.504 C 346.320 84.588,345.600 83.618,345.600 83.348 C 345.600 83.079,345.183 82.530,344.674 82.129 C 344.165 81.728,343.190 80.628,342.506 79.684 C 340.984 77.582,340.159 76.706,331.885 68.400 C 324.234 60.720,322.460 59.055,320.111 57.345 C 319.162 56.655,318.016 55.620,317.564 55.045 C 317.112 54.470,316.520 54.000,316.249 54.000 C 315.978 54.000,315.116 53.415,314.333 52.700 C 313.550 51.985,311.906 50.711,310.679 49.868 C 309.453 49.026,308.033 47.974,307.524 47.531 C 307.016 47.088,305.528 46.097,304.218 45.328 C 302.908 44.559,301.648 43.694,301.418 43.407 C 301.188 43.120,299.747 42.230,298.216 41.430 C 296.684 40.629,295.334 39.817,295.215 39.624 C 294.751 38.874,278.975 30.817,274.600 29.095 C 272.840 28.403,271.310 27.715,271.200 27.568 C 271.090 27.420,268.840 26.552,266.200 25.639 C 263.560 24.725,260.860 23.727,260.200 23.421 C 259.015 22.870,253.878 21.385,249.600 20.356 C 248.390 20.064,247.310 19.705,247.200 19.556 C 246.821 19.045,230.678 16.000,228.348 16.000 C 227.717 16.000,227.200 15.848,227.200 15.663 C 227.200 14.333,200.573 13.217,187.600 14.004 M160.400 89.167 L 160.400 103.934 162.100 104.539 C 163.035 104.871,165.239 105.621,166.999 106.204 C 168.758 106.788,170.378 107.406,170.599 107.578 C 170.819 107.749,173.340 108.651,176.200 109.581 C 179.060 110.511,181.580 111.412,181.800 111.583 C 182.020 111.753,184.540 112.661,187.400 113.600 C 190.260 114.539,192.780 115.439,193.000 115.600 C 193.220 115.761,195.740 116.661,198.600 117.600 C 201.460 118.539,203.980 119.444,204.200 119.610 C 204.420 119.777,206.940 120.679,209.800 121.615 C 212.660 122.551,215.090 123.434,215.200 123.577 C 215.310 123.719,217.830 124.619,220.800 125.577 C 223.770 126.534,226.290 127.444,226.400 127.600 C 226.510 127.755,228.490 128.473,230.800 129.197 C 233.110 129.920,235.720 130.841,236.600 131.244 C 237.480 131.647,240.450 132.722,243.200 133.633 C 245.950 134.544,248.380 135.425,248.600 135.591 C 248.820 135.757,251.340 136.664,254.200 137.606 C 257.060 138.549,259.490 139.428,259.600 139.561 C 259.801 139.802,267.596 142.400,268.121 142.400 C 268.274 142.400,268.400 139.340,268.400 135.600 L 268.400 128.800 290.403 128.800 L 312.407 128.800 312.303 150.900 L 312.200 173.000 299.803 173.200 L 287.406 173.400 285.787 183.400 C 284.896 188.900,284.055 193.670,283.917 194.000 C 283.778 194.330,282.908 199.545,281.983 205.590 C 281.058 211.634,280.149 216.944,279.964 217.390 C 279.778 217.835,278.891 223.060,277.993 229.000 C 277.094 234.940,276.199 240.160,276.003 240.600 C 275.642 241.409,273.200 256.590,273.200 258.024 C 273.200 258.769,273.556 258.800,282.000 258.800 L 290.800 258.800 290.800 281.000 L 290.800 303.200 268.600 303.200 L 246.400 303.200 246.400 293.700 L 246.400 284.200 217.300 286.106 C 201.295 287.155,177.670 288.720,164.800 289.584 C 151.930 290.448,140.725 291.165,139.900 291.178 L 138.400 291.200 138.400 302.600 L 138.400 314.000 116.400 314.000 L 94.400 314.000 94.400 292.000 L 94.400 270.000 106.400 270.000 C 116.657 270.000,118.400 269.915,118.400 269.416 C 118.400 267.785,119.270 260.420,119.607 259.200 C 119.819 258.430,120.728 250.420,121.626 241.400 C 122.524 232.380,123.414 224.640,123.603 224.200 C 123.793 223.760,124.690 215.840,125.597 206.600 C 126.505 197.360,127.405 189.440,127.597 189.000 C 127.790 188.560,128.691 180.640,129.600 171.400 C 130.509 162.160,131.363 154.330,131.499 154.000 C 131.634 153.670,132.569 145.570,133.575 136.000 L 135.405 118.600 125.702 118.493 L 116.000 118.386 116.000 96.393 L 116.000 74.400 138.200 74.400 L 160.400 74.400 160.400 89.167 M127.600 96.400 L 127.600 106.800 138.200 106.800 L 148.800 106.800 148.800 96.400 L 148.800 86.000 138.200 86.000 L 127.600 86.000 127.600 96.400 M279.600 150.800 L 279.600 161.200 290.200 161.200 L 300.800 161.200 300.800 150.800 L 300.800 140.400 290.200 140.400 L 279.600 140.400 279.600 150.800 M258.000 281.400 L 258.000 292.000 268.400 292.000 L 278.800 292.000 278.800 281.400 L 278.800 270.800 268.400 270.800 L 258.000 270.800 258.000 281.400 M106.000 292.000 L 106.000 302.400 116.400 302.400 L 126.800 302.400 126.800 292.000 L 126.800 281.600 116.400 281.600 L 106.000 281.600 106.000 292.000 " stroke="#000000" fill="none" stroke-width="3" class="CpfVPwvN_3"></path></g><style data-made-with="vivus-instant">.CpfVPwvN_0{stroke-dasharray:2495 2497;stroke-dashoffset:2496;animation:CpfVPwvN_draw_0 7200ms linear 0ms infinite,CpfVPwvN_fade 7200ms linear 0ms infinite;}.CpfVPwvN_1{stroke-dasharray:2120 2122;stroke-dashoffset:2121;animation:CpfVPwvN_draw_1 7200ms linear 0ms infinite,CpfVPwvN_fade 7200ms linear 0ms infinite;}.CpfVPwvN_2{stroke-dasharray:2495 2497;stroke-dashoffset:2496;animation:CpfVPwvN_draw_2 7200ms linear 0ms infinite,CpfVPwvN_fade 7200ms linear 0ms infinite;}.CpfVPwvN_3{stroke-dasharray:2495 2497;stroke-dashoffset:2496;animation:CpfVPwvN_draw_3 7200ms linear 0ms infinite,CpfVPwvN_fade 7200ms linear 0ms infinite;}@keyframes CpfVPwvN_draw{100%{stroke-dashoffset:0;}}@keyframes CpfVPwvN_fade{0%{stroke-opacity:1;}94.44444444444444%{stroke-opacity:1;}100%{stroke-opacity:0;}}@keyframes CpfVPwvN_draw_0{11.11111111111111%{stroke-dashoffset: 2496}52.77777777777778%{ stroke-dashoffset: 0;}100%{ stroke-dashoffset: 0;}}@keyframes CpfVPwvN_draw_1{11.11111111111111%{stroke-dashoffset: 2121}52.77777777777778%{ stroke-dashoffset: 0;}100%{ stroke-dashoffset: 0;}}@keyframes CpfVPwvN_draw_2{11.11111111111111%{stroke-dashoffset: 2496}52.77777777777778%{ stroke-dashoffset: 0;}100%{ stroke-dashoffset: 0;}}@keyframes CpfVPwvN_draw_3{11.11111111111111%{stroke-dashoffset: 2496}52.77777777777778%{ stroke-dashoffset: 0;}100%{ stroke-dashoffset: 0;}}</style></svg>