<svg id="svg" version="1.1" width="400" height="400" viewBox="0 0 400 400" xmlns="http://www.w3.org/2000/svg" xmlns:xlink="http://www.w3.org/1999/xlink" style=""><g id="svgg"><path id="path0" d="M80.062 80.063 L 26.750 133.376 65.875 172.500 L 104.999 211.624 116.625 200.000 L 128.251 188.376 100.750 160.875 L 73.250 133.374 103.313 103.312 L 133.376 73.250 142.563 82.437 L 151.750 91.624 136.750 106.625 L 121.750 121.627 133.375 133.250 L 145.000 144.873 160.000 129.875 L 174.999 114.878 181.688 121.563 L 188.378 128.249 200.001 116.624 L 211.624 104.999 172.499 65.874 L 133.375 26.750 80.062 80.063 M295.116 50.274 C 292.058 50.647,288.834 52.227,287.567 53.973 C 287.207 54.469,281.280 60.528,274.394 67.438 L 261.876 80.001 291.813 109.937 L 321.749 139.874 333.149 128.499 C 339.419 122.243,345.500 116.067,346.662 114.774 C 351.544 109.345,352.821 103.229,350.201 97.833 C 349.244 95.865,309.210 55.674,306.494 53.957 C 301.695 50.923,298.439 49.869,295.116 50.274 M147.420 193.563 L 50.010 290.125 50.005 320.063 L 50.000 350.000 79.938 349.995 L 109.875 349.990 198.875 260.237 C 247.825 210.873,291.298 166.992,295.481 162.723 L 303.087 154.962 274.106 125.981 C 258.167 110.042,245.059 97.000,244.978 97.000 C 244.896 97.000,200.995 140.453,147.420 193.563 M283.436 201.689 C 277.146 207.980,272.000 213.202,272.000 213.293 C 272.000 213.384,274.672 215.791,277.938 218.640 C 281.203 221.490,284.155 224.088,284.497 224.413 L 285.119 225.005 270.123 240.002 L 255.127 255.000 266.750 266.625 L 278.373 278.250 293.385 263.240 L 308.397 248.229 317.605 258.269 L 326.813 268.309 324.094 270.995 C 322.599 272.473,309.071 285.637,294.034 300.249 L 266.692 326.816 239.158 299.283 L 211.624 271.749 200.000 283.375 L 188.376 295.001 227.501 334.116 L 266.625 373.232 319.907 320.803 L 373.188 268.375 334.157 229.313 C 312.690 207.828,295.069 190.250,294.999 190.250 C 294.930 190.250,289.727 195.397,283.436 201.689 " stroke="#000000" fill="none" stroke-width="3" class="zUjMIkTZ_0"></path><path id="path1" d="M80.062 80.063 L 26.750 133.376 65.875 172.500 L 104.999 211.624 116.625 200.000 L 128.251 188.376 100.750 160.875 L 73.250 133.374 103.313 103.312 L 133.376 73.250 142.563 82.437 L 151.750 91.624 136.750 106.625 L 121.750 121.627 133.375 133.250 L 145.000 144.873 160.000 129.875 L 174.999 114.878 181.688 121.563 L 188.378 128.249 200.001 116.624 L 211.624 104.999 172.499 65.874 L 133.375 26.750 80.062 80.063 M295.116 50.274 C 292.058 50.647,288.834 52.227,287.567 53.973 C 287.207 54.469,281.280 60.528,274.394 67.438 L 261.876 80.001 291.813 109.937 L 321.749 139.874 333.149 128.499 C 339.419 122.243,345.500 116.067,346.662 114.774 C 351.544 109.345,352.821 103.229,350.201 97.833 C 349.244 95.865,309.210 55.674,306.494 53.957 C 301.695 50.923,298.439 49.869,295.116 50.274 M147.420 193.563 L 50.010 290.125 50.005 320.063 L 50.000 350.000 79.938 349.995 L 109.875 349.990 198.875 260.237 C 247.825 210.873,291.298 166.992,295.481 162.723 L 303.087 154.962 274.106 125.981 C 258.167 110.042,245.059 97.000,244.978 97.000 C 244.896 97.000,200.995 140.453,147.420 193.563 M283.436 201.689 C 277.146 207.980,272.000 213.202,272.000 213.293 C 272.000 213.384,274.672 215.791,277.938 218.640 C 281.203 221.490,284.155 224.088,284.497 224.413 L 285.119 225.005 270.123 240.002 L 255.127 255.000 266.750 266.625 L 278.373 278.250 293.385 263.240 L 308.397 248.229 317.605 258.269 L 326.813 268.309 324.094 270.995 C 322.599 272.473,309.071 285.637,294.034 300.249 L 266.692 326.816 239.158 299.283 L 211.624 271.749 200.000 283.375 L 188.376 295.001 227.501 334.116 L 266.625 373.232 319.907 320.803 L 373.188 268.375 334.157 229.313 C 312.690 207.828,295.069 190.250,294.999 190.250 C 294.930 190.250,289.727 195.397,283.436 201.689 " stroke="#000000" fill="none" stroke-width="3" class="zUjMIkTZ_1"></path><path id="path2" d="M80.062 80.063 L 26.750 133.376 65.875 172.500 L 104.999 211.624 116.625 200.000 L 128.251 188.376 100.750 160.875 L 73.250 133.374 103.313 103.312 L 133.376 73.250 142.563 82.437 L 151.750 91.624 136.750 106.625 L 121.750 121.627 133.375 133.250 L 145.000 144.873 160.000 129.875 L 174.999 114.878 181.688 121.563 L 188.378 128.249 200.001 116.624 L 211.624 104.999 172.499 65.874 L 133.375 26.750 80.062 80.063 M295.116 50.274 C 292.058 50.647,288.834 52.227,287.567 53.973 C 287.207 54.469,281.280 60.528,274.394 67.438 L 261.876 80.001 291.813 109.937 L 321.749 139.874 333.149 128.499 C 339.419 122.243,345.500 116.067,346.662 114.774 C 351.544 109.345,352.821 103.229,350.201 97.833 C 349.244 95.865,309.210 55.674,306.494 53.957 C 301.695 50.923,298.439 49.869,295.116 50.274 M147.420 193.563 L 50.010 290.125 50.005 320.063 L 50.000 350.000 79.938 349.995 L 109.875 349.990 198.875 260.237 C 247.825 210.873,291.298 166.992,295.481 162.723 L 303.087 154.962 274.106 125.981 C 258.167 110.042,245.059 97.000,244.978 97.000 C 244.896 97.000,200.995 140.453,147.420 193.563 M283.436 201.689 C 277.146 207.980,272.000 213.202,272.000 213.293 C 272.000 213.384,274.672 215.791,277.938 218.640 C 281.203 221.490,284.155 224.088,284.497 224.413 L 285.119 225.005 270.123 240.002 L 255.127 255.000 266.750 266.625 L 278.373 278.250 293.385 263.240 L 308.397 248.229 317.605 258.269 L 326.813 268.309 324.094 270.995 C 322.599 272.473,309.071 285.637,294.034 300.249 L 266.692 326.816 239.158 299.283 L 211.624 271.749 200.000 283.375 L 188.376 295.001 227.501 334.116 L 266.625 373.232 319.907 320.803 L 373.188 268.375 334.157 229.313 C 312.690 207.828,295.069 190.250,294.999 190.250 C 294.930 190.250,289.727 195.397,283.436 201.689 " stroke="#000000" fill="none" stroke-width="3" class="zUjMIkTZ_2"></path><path id="path3" d="M80.062 80.063 L 26.750 133.376 65.875 172.500 L 104.999 211.624 116.625 200.000 L 128.251 188.376 100.750 160.875 L 73.250 133.374 103.313 103.312 L 133.376 73.250 142.563 82.437 L 151.750 91.624 136.750 106.625 L 121.750 121.627 133.375 133.250 L 145.000 144.873 160.000 129.875 L 174.999 114.878 181.688 121.563 L 188.378 128.249 200.001 116.624 L 211.624 104.999 172.499 65.874 L 133.375 26.750 80.062 80.063 M295.116 50.274 C 292.058 50.647,288.834 52.227,287.567 53.973 C 287.207 54.469,281.280 60.528,274.394 67.438 L 261.876 80.001 291.813 109.937 L 321.749 139.874 333.149 128.499 C 339.419 122.243,345.500 116.067,346.662 114.774 C 351.544 109.345,352.821 103.229,350.201 97.833 C 349.244 95.865,309.210 55.674,306.494 53.957 C 301.695 50.923,298.439 49.869,295.116 50.274 M147.420 193.563 L 50.010 290.125 50.005 320.063 L 50.000 350.000 79.938 349.995 L 109.875 349.990 198.875 260.237 C 247.825 210.873,291.298 166.992,295.481 162.723 L 303.087 154.962 274.106 125.981 C 258.167 110.042,245.059 97.000,244.978 97.000 C 244.896 97.000,200.995 140.453,147.420 193.563 M283.436 201.689 C 277.146 207.980,272.000 213.202,272.000 213.293 C 272.000 213.384,274.672 215.791,277.938 218.640 C 281.203 221.490,284.155 224.088,284.497 224.413 L 285.119 225.005 270.123 240.002 L 255.127 255.000 266.750 266.625 L 278.373 278.250 293.385 263.240 L 308.397 248.229 317.605 258.269 L 326.813 268.309 324.094 270.995 C 322.599 272.473,309.071 285.637,294.034 300.249 L 266.692 326.816 239.158 299.283 L 211.624 271.749 200.000 283.375 L 188.376 295.001 227.501 334.116 L 266.625 373.232 319.907 320.803 L 373.188 268.375 334.157 229.313 C 312.690 207.828,295.069 190.250,294.999 190.250 C 294.930 190.250,289.727 195.397,283.436 201.689 " stroke="#000000" fill="none" stroke-width="3" class="zUjMIkTZ_3"></path><path id="path4" d="M80.062 80.063 L 26.750 133.376 65.875 172.500 L 104.999 211.624 116.625 200.000 L 128.251 188.376 100.750 160.875 L 73.250 133.374 103.313 103.312 L 133.376 73.250 142.563 82.437 L 151.750 91.624 136.750 106.625 L 121.750 121.627 133.375 133.250 L 145.000 144.873 160.000 129.875 L 174.999 114.878 181.688 121.563 L 188.378 128.249 200.001 116.624 L 211.624 104.999 172.499 65.874 L 133.375 26.750 80.062 80.063 M295.116 50.274 C 292.058 50.647,288.834 52.227,287.567 53.973 C 287.207 54.469,281.280 60.528,274.394 67.438 L 261.876 80.001 291.813 109.937 L 321.749 139.874 333.149 128.499 C 339.419 122.243,345.500 116.067,346.662 114.774 C 351.544 109.345,352.821 103.229,350.201 97.833 C 349.244 95.865,309.210 55.674,306.494 53.957 C 301.695 50.923,298.439 49.869,295.116 50.274 M147.420 193.563 L 50.010 290.125 50.005 320.063 L 50.000 350.000 79.938 349.995 L 109.875 349.990 198.875 260.237 C 247.825 210.873,291.298 166.992,295.481 162.723 L 303.087 154.962 274.106 125.981 C 258.167 110.042,245.059 97.000,244.978 97.000 C 244.896 97.000,200.995 140.453,147.420 193.563 M283.436 201.689 C 277.146 207.980,272.000 213.202,272.000 213.293 C 272.000 213.384,274.672 215.791,277.938 218.640 C 281.203 221.490,284.155 224.088,284.497 224.413 L 285.119 225.005 270.123 240.002 L 255.127 255.000 266.750 266.625 L 278.373 278.250 293.385 263.240 L 308.397 248.229 317.605 258.269 L 326.813 268.309 324.094 270.995 C 322.599 272.473,309.071 285.637,294.034 300.249 L 266.692 326.816 239.158 299.283 L 211.624 271.749 200.000 283.375 L 188.376 295.001 227.501 334.116 L 266.625 373.232 319.907 320.803 L 373.188 268.375 334.157 229.313 C 312.690 207.828,295.069 190.250,294.999 190.250 C 294.930 190.250,289.727 195.397,283.436 201.689 " stroke="#000000" fill="none" stroke-width="3" class="zUjMIkTZ_4"></path></g><style data-made-with="vivus-instant">.zUjMIkTZ_0{stroke-dasharray:2533 2535;stroke-dashoffset:2534;animation:zUjMIkTZ_draw_0 7200ms linear 0ms infinite,zUjMIkTZ_fade 7200ms linear 0ms infinite;}.zUjMIkTZ_1{stroke-dasharray:2533 2535;stroke-dashoffset:2534;animation:zUjMIkTZ_draw_1 7200ms linear 0ms infinite,zUjMIkTZ_fade 7200ms linear 0ms infinite;}.zUjMIkTZ_2{stroke-dasharray:2533 2535;stroke-dashoffset:2534;animation:zUjMIkTZ_draw_2 7200ms linear 0ms infinite,zUjMIkTZ_fade 7200ms linear 0ms infinite;}.zUjMIkTZ_3{stroke-dasharray:2533 2535;stroke-dashoffset:2534;animation:zUjMIkTZ_draw_3 7200ms linear 0ms infinite,zUjMIkTZ_fade 7200ms linear 0ms infinite;}.zUjMIkTZ_4{stroke-dasharray:2533 2535;stroke-dashoffset:2534;animation:zUjMIkTZ_draw_4 7200ms linear 0ms infinite,zUjMIkTZ_fade 7200ms linear 0ms infinite;}@keyframes zUjMIkTZ_draw{100%{stroke-dashoffset:0;}}@keyframes zUjMIkTZ_fade{0%{stroke-opacity:1;}94.44444444444444%{stroke-opacity:1;}100%{stroke-opacity:0;}}@keyframes zUjMIkTZ_draw_0{11.11111111111111%{stroke-dashoffset: 2534}52.77777777777778%{ stroke-dashoffset: 0;}100%{ stroke-dashoffset: 0;}}@keyframes zUjMIkTZ_draw_1{11.11111111111111%{stroke-dashoffset: 2534}52.77777777777778%{ stroke-dashoffset: 0;}100%{ stroke-dashoffset: 0;}}@keyframes zUjMIkTZ_draw_2{11.11111111111111%{stroke-dashoffset: 2534}52.77777777777778%{ stroke-dashoffset: 0;}100%{ stroke-dashoffset: 0;}}@keyframes zUjMIkTZ_draw_3{11.11111111111111%{stroke-dashoffset: 2534}52.77777777777778%{ stroke-dashoffset: 0;}100%{ stroke-dashoffset: 0;}}@keyframes zUjMIkTZ_draw_4{11.11111111111111%{stroke-dashoffset: 2534}52.77777777777778%{ stroke-dashoffset: 0;}100%{ stroke-dashoffset: 0;}}</style></svg>