<svg id="svg" version="1.1" width="400" height="616.3522012578617" viewBox="0 0 400 616.3522012578617" xmlns="http://www.w3.org/2000/svg" xmlns:xlink="http://www.w3.org/1999/xlink" style=""><g id="svgg"><path id="path0" d="M0.800 144.800 L 0.800 289.600 54.600 289.600 L 108.400 289.600 108.400 144.800 L 108.400 0.000 54.600 0.000 L 0.800 0.000 0.800 144.800 M146.400 144.800 L 146.400 289.600 272.800 289.600 L 399.200 289.600 399.200 144.800 L 399.200 0.000 272.800 0.000 L 146.400 0.000 146.400 144.800 M17.200 326.595 C 17.200 326.822,21.663 334.101,21.985 334.400 C 22.103 334.510,22.413 334.960,22.673 335.400 C 23.255 336.383,28.327 344.409,32.499 350.945 C 34.203 353.615,35.720 356.070,35.869 356.400 C 36.019 356.730,36.257 357.090,36.398 357.200 C 36.539 357.310,37.659 359.033,38.886 361.029 C 40.113 363.025,41.946 365.893,42.959 367.403 C 43.971 368.913,44.800 370.385,44.800 370.674 C 44.800 370.963,44.943 371.200,45.117 371.200 C 45.291 371.200,46.109 372.325,46.934 373.700 C 47.759 375.075,48.651 376.560,48.917 377.000 C 49.183 377.440,49.501 377.890,49.624 378.000 C 49.985 378.323,53.600 384.244,53.600 384.513 C 53.600 384.648,54.016 385.208,54.525 385.757 C 55.033 386.305,55.798 387.437,56.225 388.271 C 56.651 389.105,57.225 390.028,57.500 390.322 C 57.775 390.617,58.000 391.114,58.000 391.429 C 58.000 391.743,58.147 392.000,58.326 392.000 C 58.506 392.000,59.091 392.741,59.626 393.646 C 60.162 394.552,60.913 395.767,61.296 396.346 C 61.678 396.926,62.115 397.670,62.266 398.000 C 62.418 398.330,62.651 398.690,62.784 398.800 C 63.277 399.207,65.600 403.085,65.600 403.502 C 65.600 403.739,65.736 403.993,65.903 404.067 C 66.404 404.287,70.002 409.760,70.001 410.300 C 70.000 410.575,70.168 410.800,70.373 410.800 C 70.578 410.800,70.872 411.205,71.027 411.700 C 71.181 412.195,71.428 412.690,71.575 412.800 C 72.053 413.159,74.400 416.830,74.400 417.220 C 74.400 417.429,74.568 417.600,74.773 417.600 C 74.978 417.600,75.270 417.991,75.422 418.469 C 75.574 418.947,75.991 419.655,76.349 420.043 C 76.707 420.430,77.450 421.614,78.000 422.674 C 78.550 423.733,79.225 424.744,79.500 424.920 C 79.775 425.096,80.000 425.501,80.000 425.820 C 80.000 426.139,80.139 426.400,80.309 426.400 C 80.479 426.400,80.974 427.075,81.408 427.900 C 81.843 428.725,82.424 429.638,82.699 429.929 C 82.975 430.219,83.200 430.714,83.200 431.029 C 83.200 431.343,83.368 431.600,83.573 431.600 C 83.778 431.600,84.070 431.991,84.222 432.469 C 84.374 432.947,84.853 433.712,85.287 434.169 C 85.722 434.626,86.239 435.360,86.437 435.800 C 86.898 436.821,87.662 438.015,88.300 438.712 C 88.575 439.012,88.800 439.514,88.800 439.829 C 88.800 440.143,88.952 440.400,89.137 440.400 C 89.322 440.400,89.817 441.075,90.237 441.900 C 90.657 442.725,91.090 443.490,91.200 443.600 C 91.803 444.203,93.200 446.427,93.200 446.784 C 93.200 447.013,93.359 447.200,93.553 447.200 C 93.748 447.200,94.012 447.515,94.142 447.900 C 94.411 448.701,95.170 449.915,95.900 450.712 C 96.175 451.012,96.400 451.499,96.400 451.795 C 96.400 452.091,96.535 452.393,96.700 452.467 C 96.865 452.540,97.537 453.410,98.194 454.400 C 99.989 457.106,100.363 457.734,100.640 458.500 C 100.779 458.885,101.011 459.200,101.156 459.200 C 101.300 459.200,101.774 459.875,102.208 460.700 C 102.643 461.525,103.224 462.438,103.499 462.729 C 103.775 463.019,104.000 463.499,104.000 463.795 C 104.000 464.091,104.135 464.393,104.300 464.467 C 104.735 464.660,107.200 468.353,107.200 468.812 C 107.200 469.025,107.377 469.200,107.592 469.200 C 107.808 469.200,108.098 469.650,108.236 470.200 C 108.374 470.750,108.635 471.200,108.816 471.200 C 108.998 471.200,109.272 471.605,109.427 472.100 C 109.581 472.595,109.828 473.090,109.975 473.200 C 110.453 473.559,112.800 477.230,112.800 477.620 C 112.800 477.829,112.977 478.000,113.192 478.000 C 113.408 478.000,113.698 478.450,113.836 479.000 C 113.974 479.550,114.226 480.000,114.397 480.000 C 114.567 480.000,114.812 480.315,114.942 480.700 C 115.183 481.417,116.026 482.843,116.421 483.200 C 116.543 483.310,117.073 484.120,117.600 485.000 C 118.127 485.880,118.657 486.690,118.779 486.800 C 119.070 487.063,119.933 488.443,120.280 489.200 C 120.431 489.530,120.790 490.038,121.078 490.329 C 121.365 490.619,121.600 491.114,121.600 491.429 C 121.600 491.743,121.777 492.000,121.992 492.000 C 122.208 492.000,122.498 492.450,122.636 493.000 C 122.774 493.550,123.047 494.000,123.243 494.000 C 123.440 494.000,123.600 494.270,123.600 494.600 C 123.600 494.930,123.784 495.200,124.010 495.200 C 124.235 495.200,124.595 495.605,124.809 496.100 C 125.280 497.189,126.024 498.374,126.700 499.112 C 126.975 499.412,127.200 499.914,127.200 500.229 C 127.200 500.543,127.359 500.800,127.553 500.800 C 127.748 500.800,128.012 501.115,128.142 501.500 C 128.383 502.217,129.226 503.643,129.621 504.000 C 129.743 504.110,130.273 504.920,130.800 505.800 C 131.327 506.680,131.857 507.490,131.979 507.600 C 132.270 507.863,133.133 509.243,133.480 510.000 C 133.631 510.330,133.990 510.838,134.278 511.129 C 134.565 511.419,134.800 511.914,134.800 512.229 C 134.800 512.543,134.980 512.800,135.200 512.800 C 135.420 512.800,135.600 512.999,135.600 513.242 C 135.600 513.486,136.140 514.367,136.800 515.200 C 137.460 516.033,138.000 516.914,138.000 517.158 C 138.000 517.401,138.177 517.600,138.392 517.600 C 138.608 517.600,138.898 518.050,139.036 518.600 C 139.174 519.150,139.428 519.600,139.600 519.600 C 139.772 519.600,140.026 520.050,140.164 520.600 C 140.302 521.150,140.592 521.600,140.808 521.600 C 141.023 521.600,141.200 521.775,141.200 521.988 C 141.200 522.362,143.540 525.989,144.046 526.400 C 144.181 526.510,144.419 527.005,144.573 527.500 C 144.728 527.995,145.022 528.400,145.227 528.400 C 145.432 528.400,145.600 528.642,145.600 528.938 C 145.600 530.887,143.056 530.800,200.103 530.800 C 256.956 530.800,254.400 530.886,254.400 528.971 C 254.400 528.657,254.539 528.400,254.708 528.400 C 254.878 528.400,255.459 527.590,256.000 526.600 C 256.541 525.610,257.122 524.800,257.292 524.800 C 257.461 524.800,257.600 524.530,257.600 524.200 C 257.600 523.870,257.777 523.600,257.992 523.600 C 258.208 523.600,258.498 523.150,258.636 522.600 C 258.774 522.050,259.035 521.600,259.216 521.600 C 259.398 521.600,259.670 521.209,259.822 520.731 C 259.974 520.253,260.266 519.668,260.472 519.431 C 261.252 518.534,264.400 513.510,264.400 513.163 C 264.400 512.963,264.559 512.800,264.753 512.800 C 264.948 512.800,265.212 512.485,265.342 512.100 C 265.559 511.452,266.152 510.443,266.915 509.422 C 267.941 508.049,270.800 503.427,270.800 503.141 C 270.800 502.953,270.977 502.800,271.192 502.800 C 271.408 502.800,271.698 502.350,271.836 501.800 C 271.974 501.250,272.235 500.800,272.416 500.800 C 272.598 500.800,272.872 500.395,273.027 499.900 C 273.181 499.405,273.419 498.910,273.554 498.800 C 274.060 498.389,276.400 494.762,276.400 494.388 C 276.400 494.175,276.580 494.000,276.800 494.000 C 277.020 494.000,277.200 493.743,277.200 493.429 C 277.200 493.114,277.425 492.612,277.700 492.312 C 278.298 491.659,279.103 490.428,279.473 489.600 C 279.621 489.270,279.856 488.910,279.995 488.800 C 280.135 488.690,280.948 487.430,281.803 486.000 C 282.658 484.570,283.502 483.340,283.679 483.267 C 283.856 483.193,284.000 482.878,284.000 482.567 C 284.000 482.255,284.168 482.000,284.373 482.000 C 284.578 482.000,284.872 481.603,285.026 481.119 C 285.180 480.634,285.552 479.991,285.853 479.690 C 286.154 479.389,286.400 478.886,286.400 478.571 C 286.400 478.257,286.580 478.000,286.800 478.000 C 287.020 478.000,287.200 477.825,287.200 477.612 C 287.200 477.153,289.665 473.460,290.100 473.267 C 290.265 473.193,290.400 472.891,290.400 472.595 C 290.400 472.299,290.625 471.812,290.900 471.512 C 291.630 470.715,292.389 469.501,292.658 468.700 C 292.788 468.315,293.011 468.000,293.155 468.000 C 293.299 468.000,293.859 467.190,294.400 466.200 C 294.941 465.210,295.503 464.400,295.648 464.400 C 295.794 464.400,296.026 463.950,296.164 463.400 C 296.302 462.850,296.592 462.400,296.808 462.400 C 297.023 462.400,297.200 462.130,297.200 461.800 C 297.200 461.470,297.380 461.200,297.600 461.200 C 297.820 461.200,298.000 460.943,298.000 460.629 C 298.000 460.314,298.225 459.812,298.500 459.512 C 299.176 458.774,299.920 457.589,300.391 456.500 C 300.605 456.005,300.965 455.600,301.190 455.600 C 301.416 455.600,301.600 455.330,301.600 455.000 C 301.600 454.670,301.760 454.400,301.957 454.400 C 302.153 454.400,302.426 453.950,302.564 453.400 C 302.702 452.850,302.992 452.400,303.208 452.400 C 303.423 452.400,303.600 452.143,303.600 451.829 C 303.600 451.514,303.825 451.012,304.100 450.712 C 304.698 450.059,305.503 448.828,305.873 448.000 C 306.021 447.670,306.254 447.310,306.392 447.200 C 306.530 447.090,307.073 446.280,307.600 445.400 C 308.127 444.520,308.657 443.710,308.779 443.600 C 309.174 443.243,310.017 441.817,310.258 441.100 C 310.388 440.715,310.633 440.400,310.803 440.400 C 310.974 440.400,311.226 439.950,311.364 439.400 C 311.502 438.850,311.792 438.400,312.008 438.400 C 312.223 438.400,312.400 438.229,312.400 438.020 C 312.400 437.630,314.747 433.959,315.225 433.600 C 315.372 433.490,315.619 432.995,315.773 432.500 C 315.928 432.005,316.202 431.600,316.384 431.600 C 316.565 431.600,316.826 431.150,316.964 430.600 C 317.102 430.050,317.392 429.600,317.608 429.600 C 317.823 429.600,318.000 429.425,318.000 429.212 C 318.000 428.753,320.465 425.060,320.900 424.867 C 321.065 424.793,321.200 424.491,321.200 424.195 C 321.200 423.899,321.425 423.419,321.701 423.129 C 321.976 422.838,322.557 421.925,322.992 421.100 C 323.426 420.275,323.900 419.600,324.044 419.600 C 324.189 419.600,324.416 419.285,324.549 418.900 C 324.682 418.515,325.108 417.726,325.495 417.146 C 325.883 416.567,326.638 415.352,327.174 414.446 C 327.709 413.541,328.294 412.800,328.474 412.800 C 328.653 412.800,328.800 412.543,328.800 412.229 C 328.800 411.914,329.025 411.412,329.300 411.112 C 330.030 410.315,330.789 409.101,331.058 408.300 C 331.188 407.915,331.452 407.600,331.647 407.600 C 331.841 407.600,332.000 407.413,332.000 407.184 C 332.000 406.827,333.397 404.603,334.000 404.000 C 334.110 403.890,334.543 403.125,334.963 402.300 C 335.383 401.475,335.858 400.800,336.020 400.800 C 336.181 400.800,336.426 400.350,336.564 399.800 C 336.702 399.250,336.992 398.800,337.208 398.800 C 337.423 398.800,337.600 398.629,337.600 398.420 C 337.600 398.030,339.947 394.359,340.425 394.000 C 340.572 393.890,340.819 393.395,340.973 392.900 C 341.128 392.405,341.422 392.000,341.627 392.000 C 341.832 392.000,342.000 391.743,342.000 391.429 C 342.000 391.114,342.225 390.619,342.501 390.329 C 342.776 390.038,343.357 389.125,343.792 388.300 C 344.226 387.475,344.721 386.800,344.891 386.800 C 345.061 386.800,345.200 386.539,345.200 386.220 C 345.200 385.901,345.425 385.496,345.700 385.320 C 345.975 385.144,346.650 384.133,347.200 383.074 C 347.750 382.014,348.493 380.830,348.851 380.443 C 349.209 380.055,349.626 379.347,349.778 378.869 C 349.930 378.391,350.222 378.000,350.427 378.000 C 350.632 378.000,350.800 377.829,350.800 377.620 C 350.800 377.230,353.147 373.559,353.625 373.200 C 353.772 373.090,354.019 372.595,354.173 372.100 C 354.328 371.605,354.602 371.200,354.784 371.200 C 354.965 371.200,355.226 370.750,355.364 370.200 C 355.502 369.650,355.792 369.200,356.008 369.200 C 356.223 369.200,356.400 369.004,356.400 368.765 C 356.400 368.402,358.549 365.051,359.200 364.400 C 359.310 364.290,359.850 363.333,360.400 362.274 C 360.950 361.214,361.679 360.044,362.020 359.674 C 362.361 359.303,362.768 358.730,362.925 358.400 C 363.081 358.070,363.522 357.326,363.904 356.746 C 364.287 356.167,365.038 354.952,365.574 354.046 C 366.109 353.141,366.694 352.400,366.874 352.400 C 367.053 352.400,367.200 352.190,367.200 351.934 C 367.200 351.248,370.793 345.600,371.228 345.600 C 371.433 345.600,371.600 345.390,371.600 345.134 C 371.600 344.710,375.047 338.873,375.576 338.400 C 375.699 338.290,376.017 337.840,376.283 337.400 C 376.549 336.960,377.441 335.475,378.266 334.100 C 379.091 332.725,379.909 331.600,380.083 331.600 C 380.257 331.600,380.400 331.395,380.400 331.144 C 380.400 330.894,380.940 329.811,381.600 328.738 C 382.260 327.666,382.800 326.701,382.800 326.594 C 382.800 326.487,300.540 326.400,200.000 326.400 C 99.460 326.400,17.200 326.488,17.200 326.595 M170.800 568.771 C 170.800 568.976,171.070 569.413,171.400 569.743 C 171.730 570.073,172.000 570.536,172.000 570.771 C 172.000 571.007,172.177 571.200,172.392 571.200 C 172.608 571.200,172.898 571.650,173.036 572.200 C 173.174 572.750,173.447 573.200,173.643 573.200 C 173.840 573.200,174.000 573.363,174.000 573.563 C 174.000 573.910,177.148 578.934,177.928 579.831 C 178.134 580.068,178.426 580.653,178.578 581.131 C 178.730 581.609,179.022 582.000,179.227 582.000 C 179.432 582.000,179.600 582.153,179.600 582.341 C 179.600 582.665,182.767 587.726,183.536 588.631 C 183.737 588.868,184.026 589.453,184.178 589.931 C 184.330 590.409,184.622 590.800,184.827 590.800 C 185.032 590.800,185.200 591.070,185.200 591.400 C 185.200 591.730,185.337 592.000,185.505 592.000 C 185.673 592.000,185.988 592.361,186.205 592.803 C 186.830 594.075,190.903 600.579,191.212 600.800 C 191.366 600.910,191.619 601.405,191.773 601.900 C 191.928 602.395,192.222 602.800,192.427 602.800 C 192.632 602.800,192.800 602.953,192.800 603.141 C 192.800 603.432,195.747 608.188,196.685 609.411 C 196.858 609.637,197.343 610.492,197.763 611.311 C 198.183 612.130,198.657 612.800,198.816 612.800 C 198.976 612.800,199.201 613.160,199.316 613.600 C 199.431 614.040,199.710 614.400,199.935 614.400 C 200.285 614.400,204.919 607.427,206.800 604.071 C 207.130 603.482,207.498 602.910,207.619 602.800 C 207.739 602.690,208.995 600.710,210.409 598.400 C 211.824 596.090,213.660 593.225,214.490 592.034 C 215.321 590.842,216.000 589.710,216.000 589.517 C 216.000 589.324,216.191 588.949,216.423 588.683 C 217.189 587.809,220.400 582.733,220.400 582.396 C 220.400 582.215,220.543 582.007,220.719 581.933 C 220.981 581.824,223.568 577.826,225.724 574.200 C 225.986 573.760,226.304 573.310,226.430 573.200 C 226.557 573.090,227.007 572.373,227.430 571.607 C 227.854 570.841,228.425 569.973,228.700 569.679 C 228.975 569.384,229.200 568.976,229.200 568.771 C 229.200 568.546,217.703 568.400,200.000 568.400 C 182.297 568.400,170.800 568.546,170.800 568.771 " stroke="#000000" fill="none" stroke-width="3" class="QhlUsGiA_0"></path><path id="path1" d="M0.000 145.400 L 0.000 290.800 54.800 290.800 L 109.600 290.800 109.600 145.400 C 109.600 16.422,109.532 0.000,109.000 0.000 C 108.468 0.000,108.400 16.356,108.400 144.800 L 108.400 289.600 54.600 289.600 L 0.800 289.600 0.800 144.800 C 0.800 48.533,0.666 0.000,0.400 0.000 C 0.134 0.000,0.000 48.733,0.000 145.400 M145.200 145.400 L 145.200 290.800 272.600 290.800 L 400.000 290.800 400.000 145.400 C 400.000 48.733,399.866 0.000,399.600 0.000 C 399.334 0.000,399.200 48.533,399.200 144.800 L 399.200 289.600 272.800 289.600 L 146.400 289.600 146.400 144.800 C 146.400 16.356,146.332 0.000,145.800 0.000 C 145.268 0.000,145.200 16.422,145.200 145.400 M15.723 326.604 C 15.848 327.376,16.232 328.289,16.576 328.633 C 16.919 328.976,17.200 329.514,17.200 329.829 C 17.200 330.143,17.380 330.400,17.600 330.400 C 17.820 330.400,18.000 330.676,18.000 331.013 C 18.000 331.349,18.270 331.729,18.600 331.855 C 18.930 331.982,19.200 332.407,19.200 332.800 C 19.200 333.193,19.470 333.618,19.800 333.745 C 20.130 333.871,20.400 334.251,20.400 334.587 C 20.400 334.924,20.577 335.200,20.792 335.200 C 21.008 335.200,21.298 335.650,21.436 336.200 C 21.574 336.750,21.828 337.200,22.000 337.200 C 22.172 337.200,22.426 337.650,22.564 338.200 C 22.702 338.750,22.992 339.200,23.208 339.200 C 23.423 339.200,23.600 339.451,23.600 339.757 C 23.600 340.064,23.870 340.418,24.200 340.545 C 24.530 340.671,24.800 341.141,24.800 341.587 C 24.800 342.034,24.980 342.400,25.200 342.400 C 25.420 342.400,25.600 342.676,25.600 343.013 C 25.600 343.349,25.854 343.722,26.164 343.841 C 26.474 343.961,26.837 344.495,26.972 345.029 C 27.106 345.563,27.392 346.000,27.608 346.000 C 27.823 346.000,28.000 346.270,28.000 346.600 C 28.000 346.930,28.177 347.200,28.392 347.200 C 28.608 347.200,28.898 347.650,29.036 348.200 C 29.174 348.750,29.428 349.200,29.600 349.200 C 29.772 349.200,30.026 349.650,30.164 350.200 C 30.302 350.750,30.592 351.200,30.808 351.200 C 31.023 351.200,31.200 351.451,31.200 351.757 C 31.200 352.064,31.470 352.418,31.800 352.545 C 32.130 352.671,32.400 353.051,32.400 353.387 C 32.400 353.724,32.577 354.000,32.792 354.000 C 33.008 354.000,33.298 354.450,33.436 355.000 C 33.574 355.550,33.828 356.000,34.000 356.000 C 34.172 356.000,34.426 356.450,34.564 357.000 C 34.702 357.550,34.992 358.000,35.208 358.000 C 35.423 358.000,35.600 358.270,35.600 358.600 C 35.600 358.930,35.777 359.200,35.992 359.200 C 36.208 359.200,36.494 359.637,36.628 360.171 C 36.763 360.705,37.126 361.239,37.436 361.359 C 37.746 361.478,38.000 361.851,38.000 362.187 C 38.000 362.524,38.180 362.800,38.400 362.800 C 38.620 362.800,38.800 363.166,38.800 363.613 C 38.800 364.059,39.070 364.529,39.400 364.655 C 39.730 364.782,40.000 365.136,40.000 365.443 C 40.000 365.749,40.177 366.000,40.392 366.000 C 40.608 366.000,40.898 366.450,41.036 367.000 C 41.174 367.550,41.428 368.000,41.600 368.000 C 41.772 368.000,42.026 368.450,42.164 369.000 C 42.302 369.550,42.592 370.000,42.808 370.000 C 43.023 370.000,43.200 370.276,43.200 370.613 C 43.200 370.949,43.470 371.329,43.800 371.455 C 44.130 371.582,44.400 372.007,44.400 372.400 C 44.400 372.793,44.670 373.218,45.000 373.345 C 45.330 373.471,45.600 373.851,45.600 374.187 C 45.600 374.524,45.780 374.800,46.000 374.800 C 46.220 374.800,46.400 375.057,46.400 375.371 C 46.400 375.686,46.646 376.189,46.947 376.490 C 47.248 376.791,47.620 377.434,47.774 377.919 C 47.928 378.403,48.222 378.800,48.427 378.800 C 48.632 378.800,48.800 379.051,48.800 379.357 C 48.800 379.664,49.070 380.018,49.400 380.145 C 49.730 380.271,50.000 380.741,50.000 381.187 C 50.000 381.634,50.180 382.000,50.400 382.000 C 50.620 382.000,50.800 382.276,50.800 382.613 C 50.800 382.949,51.054 383.322,51.364 383.441 C 51.674 383.561,52.037 384.095,52.172 384.629 C 52.306 385.163,52.592 385.600,52.808 385.600 C 53.023 385.600,53.200 385.870,53.200 386.200 C 53.200 386.530,53.377 386.800,53.592 386.800 C 53.808 386.800,54.098 387.250,54.236 387.800 C 54.374 388.350,54.628 388.800,54.800 388.800 C 54.972 388.800,55.226 389.250,55.364 389.800 C 55.502 390.350,55.792 390.800,56.008 390.800 C 56.223 390.800,56.400 391.076,56.400 391.413 C 56.400 391.749,56.670 392.129,57.000 392.255 C 57.330 392.382,57.600 392.736,57.600 393.043 C 57.600 393.349,57.777 393.600,57.992 393.600 C 58.208 393.600,58.498 394.050,58.636 394.600 C 58.774 395.150,59.047 395.600,59.243 395.600 C 59.440 395.600,59.600 395.857,59.600 396.171 C 59.600 396.486,59.846 396.989,60.147 397.290 C 60.448 397.591,60.820 398.234,60.974 398.719 C 61.128 399.203,61.422 399.600,61.627 399.600 C 61.832 399.600,62.000 399.870,62.000 400.200 C 62.000 400.530,62.180 400.800,62.400 400.800 C 62.620 400.800,62.800 401.076,62.800 401.413 C 62.800 401.749,63.070 402.129,63.400 402.255 C 63.730 402.382,64.000 402.832,64.000 403.255 C 64.000 403.679,64.254 404.122,64.564 404.241 C 64.874 404.361,65.237 404.895,65.372 405.429 C 65.506 405.963,65.792 406.400,66.008 406.400 C 66.223 406.400,66.400 406.670,66.400 407.000 C 66.400 407.330,66.560 407.600,66.757 407.600 C 66.953 407.600,67.226 408.050,67.364 408.600 C 67.502 409.150,67.792 409.600,68.008 409.600 C 68.223 409.600,68.400 409.876,68.400 410.213 C 68.400 410.549,68.670 410.929,69.000 411.055 C 69.330 411.182,69.600 411.632,69.600 412.055 C 69.600 412.479,69.870 412.929,70.200 413.055 C 70.530 413.182,70.800 413.536,70.800 413.843 C 70.800 414.149,70.980 414.400,71.200 414.400 C 71.420 414.400,71.600 414.657,71.600 414.971 C 71.600 415.286,71.846 415.789,72.147 416.090 C 72.448 416.391,72.820 417.034,72.974 417.519 C 73.128 418.003,73.422 418.400,73.627 418.400 C 73.832 418.400,74.000 418.676,74.000 419.013 C 74.000 419.349,74.270 419.729,74.600 419.855 C 74.930 419.982,75.200 420.426,75.200 420.843 C 75.200 421.259,75.380 421.600,75.600 421.600 C 75.820 421.600,76.000 421.876,76.000 422.213 C 76.000 422.549,76.270 422.929,76.600 423.055 C 76.930 423.182,77.200 423.523,77.200 423.814 C 77.200 424.105,77.446 424.589,77.747 424.890 C 78.048 425.191,78.420 425.834,78.574 426.319 C 78.728 426.803,79.022 427.200,79.227 427.200 C 79.432 427.200,79.600 427.470,79.600 427.800 C 79.600 428.130,79.760 428.400,79.957 428.400 C 80.153 428.400,80.426 428.850,80.564 429.400 C 80.702 429.950,80.992 430.400,81.208 430.400 C 81.423 430.400,81.600 430.676,81.600 431.013 C 81.600 431.349,81.865 431.727,82.189 431.851 C 82.513 431.976,82.892 432.684,83.031 433.425 C 83.186 434.250,83.578 434.866,84.042 435.013 C 84.459 435.146,84.800 435.499,84.800 435.798 C 84.800 436.098,85.046 436.589,85.347 436.890 C 85.648 437.191,86.020 437.834,86.174 438.319 C 86.328 438.803,86.607 439.200,86.795 439.200 C 86.983 439.200,87.253 439.732,87.396 440.382 C 87.542 441.045,87.995 441.671,88.428 441.809 C 88.853 441.944,89.200 442.407,89.200 442.840 C 89.200 443.272,89.454 443.722,89.764 443.841 C 90.074 443.961,90.437 444.495,90.572 445.029 C 90.706 445.563,90.978 446.000,91.176 446.000 C 91.374 446.000,91.647 446.505,91.783 447.122 C 91.919 447.740,92.383 448.499,92.815 448.811 C 93.247 449.122,93.600 449.613,93.600 449.901 C 93.600 450.189,93.870 450.529,94.200 450.655 C 94.530 450.782,94.800 451.232,94.800 451.655 C 94.800 452.079,95.054 452.522,95.364 452.641 C 95.674 452.761,96.046 453.329,96.191 453.905 C 96.335 454.481,96.776 455.233,97.170 455.576 C 97.563 455.919,98.013 456.605,98.170 457.100 C 98.326 457.595,98.622 458.000,98.827 458.000 C 99.032 458.000,99.200 458.276,99.200 458.613 C 99.200 458.949,99.452 459.322,99.761 459.440 C 100.069 459.559,100.435 460.263,100.575 461.005 C 100.728 461.822,101.122 462.448,101.574 462.592 C 101.985 462.722,102.432 463.272,102.568 463.814 C 102.704 464.356,102.978 464.800,103.176 464.800 C 103.374 464.800,103.655 465.340,103.800 466.000 C 103.945 466.660,104.217 467.200,104.405 467.200 C 104.593 467.200,104.874 467.605,105.030 468.100 C 105.187 468.595,105.616 469.270,105.985 469.600 C 106.354 469.930,106.772 470.515,106.915 470.900 C 107.058 471.285,107.352 471.600,107.569 471.600 C 107.786 471.600,108.082 472.230,108.226 473.000 C 108.371 473.770,108.655 474.400,108.857 474.400 C 109.059 474.400,109.342 474.715,109.485 475.100 C 109.628 475.485,110.046 476.070,110.415 476.400 C 110.784 476.730,111.213 477.405,111.370 477.900 C 111.526 478.395,111.807 478.800,111.995 478.800 C 112.183 478.800,112.452 479.325,112.593 479.967 C 112.734 480.608,113.108 481.233,113.424 481.354 C 113.741 481.476,114.000 481.928,114.000 482.360 C 114.000 482.793,114.342 483.255,114.760 483.387 C 115.178 483.520,115.632 484.072,115.768 484.614 C 115.904 485.156,116.178 485.600,116.376 485.600 C 116.574 485.600,116.855 486.140,117.000 486.800 C 117.145 487.460,117.426 488.000,117.624 488.000 C 117.822 488.000,118.096 488.444,118.232 488.986 C 118.368 489.528,118.822 490.080,119.240 490.213 C 119.658 490.345,120.000 490.807,120.000 491.240 C 120.000 491.672,120.259 492.124,120.576 492.246 C 120.892 492.367,121.266 492.992,121.407 493.633 C 121.548 494.275,121.817 494.800,122.005 494.800 C 122.193 494.800,122.474 495.205,122.630 495.700 C 122.787 496.195,123.223 496.870,123.600 497.200 C 123.977 497.530,124.425 498.242,124.596 498.781 C 124.766 499.321,125.152 500.009,125.453 500.310 C 125.754 500.611,126.000 501.095,126.000 501.386 C 126.000 501.677,126.270 502.018,126.600 502.145 C 126.930 502.271,127.200 502.611,127.200 502.899 C 127.200 503.187,127.553 503.678,127.985 503.989 C 128.417 504.301,128.881 505.060,129.017 505.678 C 129.153 506.295,129.417 506.800,129.605 506.800 C 129.793 506.800,130.074 507.205,130.230 507.700 C 130.387 508.195,130.816 508.870,131.185 509.200 C 131.554 509.530,131.972 510.115,132.115 510.500 C 132.258 510.885,132.552 511.200,132.769 511.200 C 132.986 511.200,133.282 511.830,133.426 512.600 C 133.571 513.370,133.855 514.000,134.057 514.000 C 134.259 514.000,134.542 514.315,134.685 514.700 C 134.828 515.085,135.246 515.670,135.615 516.000 C 135.984 516.330,136.413 517.005,136.570 517.500 C 136.726 517.995,137.007 518.400,137.195 518.400 C 137.383 518.400,137.652 518.925,137.793 519.567 C 137.934 520.208,138.308 520.833,138.624 520.954 C 138.941 521.076,139.200 521.528,139.200 521.960 C 139.200 522.393,139.547 522.856,139.972 522.991 C 140.405 523.129,140.858 523.755,141.004 524.418 C 141.147 525.068,141.417 525.600,141.605 525.600 C 141.793 525.600,142.072 525.997,142.226 526.481 C 142.380 526.966,142.752 527.609,143.053 527.910 C 143.354 528.211,143.600 528.702,143.600 529.002 C 143.600 529.301,143.949 529.657,144.375 529.792 C 144.801 529.927,145.206 530.434,145.275 530.919 L 145.400 531.800 199.400 531.910 C 256.265 532.025,255.200 532.047,255.200 530.780 C 255.200 530.337,255.470 529.871,255.800 529.745 C 256.130 529.618,256.400 529.277,256.400 528.986 C 256.400 528.695,256.646 528.211,256.947 527.910 C 257.248 527.609,257.620 526.966,257.774 526.481 C 257.928 525.997,258.222 525.600,258.427 525.600 C 258.632 525.600,258.800 525.330,258.800 525.000 C 258.800 524.670,258.980 524.400,259.200 524.400 C 259.420 524.400,259.600 524.124,259.600 523.787 C 259.600 523.451,259.870 523.071,260.200 522.945 C 260.530 522.818,260.800 522.368,260.800 521.945 C 260.800 521.521,261.054 521.078,261.364 520.959 C 261.674 520.839,262.046 520.271,262.191 519.695 C 262.335 519.119,262.776 518.367,263.170 518.024 C 263.563 517.681,264.013 516.995,264.170 516.500 C 264.326 516.005,264.622 515.600,264.827 515.600 C 265.032 515.600,265.200 515.324,265.200 514.987 C 265.200 514.651,265.452 514.278,265.761 514.160 C 266.069 514.041,266.435 513.337,266.575 512.595 C 266.734 511.747,267.120 511.152,267.614 510.996 C 268.046 510.858,268.400 510.501,268.400 510.202 C 268.400 509.902,268.646 509.411,268.947 509.110 C 269.248 508.809,269.620 508.166,269.774 507.681 C 269.928 507.197,270.207 506.800,270.395 506.800 C 270.583 506.800,270.847 506.295,270.983 505.678 C 271.119 505.060,271.583 504.301,272.015 503.989 C 272.447 503.678,272.800 503.187,272.800 502.899 C 272.800 502.611,273.070 502.271,273.400 502.145 C 273.730 502.018,274.000 501.677,274.000 501.386 C 274.000 501.095,274.246 500.611,274.547 500.310 C 274.848 500.009,275.234 499.321,275.404 498.781 C 275.575 498.242,276.023 497.530,276.400 497.200 C 276.777 496.870,277.213 496.195,277.370 495.700 C 277.526 495.205,277.822 494.800,278.027 494.800 C 278.232 494.800,278.400 494.524,278.400 494.187 C 278.400 493.851,278.665 493.473,278.989 493.349 C 279.313 493.224,279.692 492.516,279.831 491.775 C 279.980 490.983,280.380 490.333,280.802 490.199 C 281.197 490.074,281.632 489.528,281.768 488.986 C 281.904 488.444,282.178 488.000,282.376 488.000 C 282.574 488.000,282.855 487.460,283.000 486.800 C 283.145 486.140,283.426 485.600,283.624 485.600 C 283.822 485.600,284.096 485.156,284.232 484.614 C 284.368 484.072,284.822 483.520,285.240 483.387 C 285.658 483.255,286.000 482.793,286.000 482.360 C 286.000 481.928,286.259 481.476,286.576 481.354 C 286.892 481.233,287.266 480.608,287.407 479.967 C 287.548 479.325,287.817 478.800,288.005 478.800 C 288.193 478.800,288.474 478.395,288.630 477.900 C 288.787 477.405,289.216 476.730,289.585 476.400 C 289.954 476.070,290.372 475.485,290.515 475.100 C 290.658 474.715,290.941 474.400,291.143 474.400 C 291.345 474.400,291.626 473.787,291.766 473.039 C 291.907 472.290,292.287 471.576,292.611 471.451 C 292.935 471.327,293.200 471.016,293.200 470.759 C 293.200 470.503,293.534 470.003,293.943 469.647 C 294.351 469.291,294.813 468.595,294.970 468.100 C 295.126 467.605,295.407 467.200,295.595 467.200 C 295.783 467.200,296.055 466.660,296.200 466.000 C 296.345 465.340,296.626 464.800,296.824 464.800 C 297.022 464.800,297.296 464.356,297.432 463.814 C 297.568 463.272,298.022 462.720,298.440 462.587 C 298.858 462.455,299.200 462.101,299.200 461.802 C 299.200 461.502,299.446 461.011,299.747 460.710 C 300.048 460.409,300.434 459.721,300.604 459.181 C 300.775 458.642,301.223 457.930,301.600 457.600 C 301.977 457.270,302.413 456.595,302.570 456.100 C 302.726 455.605,303.007 455.200,303.195 455.200 C 303.383 455.200,303.652 454.675,303.793 454.033 C 303.934 453.392,304.308 452.767,304.624 452.646 C 304.941 452.524,305.200 452.072,305.200 451.640 C 305.200 451.207,305.542 450.745,305.960 450.613 C 306.378 450.480,306.832 449.928,306.968 449.386 C 307.104 448.844,307.378 448.400,307.576 448.400 C 307.774 448.400,308.055 447.860,308.200 447.200 C 308.345 446.540,308.626 446.000,308.824 446.000 C 309.022 446.000,309.296 445.556,309.432 445.014 C 309.568 444.472,310.022 443.920,310.440 443.787 C 310.858 443.655,311.200 443.193,311.200 442.760 C 311.200 442.328,311.459 441.876,311.776 441.754 C 312.092 441.633,312.466 441.008,312.607 440.367 C 312.748 439.725,313.017 439.200,313.205 439.200 C 313.393 439.200,313.674 438.795,313.830 438.300 C 313.987 437.805,314.416 437.130,314.785 436.800 C 315.154 436.470,315.572 435.885,315.715 435.500 C 315.858 435.115,316.141 434.800,316.343 434.800 C 316.545 434.800,316.829 434.170,316.974 433.400 C 317.118 432.630,317.414 432.000,317.631 432.000 C 317.848 432.000,318.142 431.685,318.285 431.300 C 318.428 430.915,318.846 430.330,319.215 430.000 C 319.584 429.670,320.013 428.995,320.170 428.500 C 320.326 428.005,320.607 427.600,320.795 427.600 C 320.983 427.600,321.255 427.060,321.400 426.400 C 321.545 425.740,321.826 425.200,322.024 425.200 C 322.222 425.200,322.496 424.756,322.632 424.214 C 322.768 423.672,323.215 423.122,323.626 422.992 C 324.078 422.848,324.472 422.222,324.625 421.405 C 324.765 420.663,325.131 419.959,325.439 419.840 C 325.748 419.722,326.000 419.349,326.000 419.013 C 326.000 418.676,326.168 418.400,326.373 418.400 C 326.578 418.400,326.874 417.995,327.030 417.500 C 327.187 417.005,327.637 416.319,328.030 415.976 C 328.424 415.633,328.865 414.881,329.009 414.305 C 329.154 413.729,329.526 413.161,329.836 413.041 C 330.146 412.922,330.400 412.479,330.400 412.055 C 330.400 411.632,330.670 411.182,331.000 411.055 C 331.330 410.929,331.600 410.589,331.600 410.301 C 331.600 410.013,331.953 409.522,332.385 409.211 C 332.817 408.899,333.281 408.140,333.417 407.522 C 333.553 406.905,333.826 406.400,334.024 406.400 C 334.222 406.400,334.494 405.963,334.628 405.429 C 334.763 404.895,335.126 404.361,335.436 404.241 C 335.746 404.122,336.000 403.672,336.000 403.240 C 336.000 402.807,336.347 402.344,336.772 402.209 C 337.205 402.071,337.658 401.445,337.804 400.782 C 337.947 400.132,338.217 399.600,338.405 399.600 C 338.593 399.600,338.872 399.203,339.026 398.719 C 339.180 398.234,339.552 397.591,339.853 397.290 C 340.154 396.989,340.400 396.498,340.400 396.198 C 340.400 395.899,340.741 395.546,341.158 395.413 C 341.622 395.266,342.014 394.650,342.169 393.825 C 342.308 393.084,342.687 392.376,343.011 392.251 C 343.335 392.127,343.600 391.749,343.600 391.413 C 343.600 391.076,343.777 390.800,343.992 390.800 C 344.208 390.800,344.498 390.350,344.636 389.800 C 344.774 389.250,345.047 388.800,345.243 388.800 C 345.440 388.800,345.600 388.530,345.600 388.200 C 345.600 387.870,345.768 387.600,345.973 387.600 C 346.178 387.600,346.472 387.203,346.626 386.719 C 346.780 386.234,347.152 385.591,347.453 385.290 C 347.754 384.989,348.000 384.505,348.000 384.214 C 348.000 383.923,348.270 383.582,348.600 383.455 C 348.930 383.329,349.200 382.949,349.200 382.613 C 349.200 382.276,349.380 382.000,349.600 382.000 C 349.820 382.000,350.000 381.659,350.000 381.243 C 350.000 380.826,350.270 380.382,350.600 380.255 C 350.930 380.129,351.200 379.749,351.200 379.413 C 351.200 379.076,351.368 378.800,351.573 378.800 C 351.778 378.800,352.072 378.403,352.226 377.919 C 352.380 377.434,352.752 376.791,353.053 376.490 C 353.354 376.189,353.600 375.686,353.600 375.371 C 353.600 375.057,353.780 374.800,354.000 374.800 C 354.220 374.800,354.400 374.549,354.400 374.243 C 354.400 373.936,354.670 373.582,355.000 373.455 C 355.330 373.329,355.600 372.879,355.600 372.455 C 355.600 372.032,355.870 371.582,356.200 371.455 C 356.530 371.329,356.800 370.949,356.800 370.613 C 356.800 370.276,356.977 370.000,357.192 370.000 C 357.408 370.000,357.698 369.550,357.836 369.000 C 357.974 368.450,358.247 368.000,358.443 368.000 C 358.640 368.000,358.800 367.730,358.800 367.400 C 358.800 367.070,358.977 366.800,359.192 366.800 C 359.408 366.800,359.694 366.363,359.828 365.829 C 359.963 365.295,360.326 364.761,360.636 364.641 C 360.946 364.522,361.200 364.059,361.200 363.613 C 361.200 363.166,361.380 362.800,361.600 362.800 C 361.820 362.800,362.000 362.524,362.000 362.187 C 362.000 361.851,362.270 361.471,362.600 361.345 C 362.930 361.218,363.200 360.864,363.200 360.557 C 363.200 360.251,363.368 360.000,363.573 360.000 C 363.778 360.000,364.072 359.603,364.226 359.119 C 364.380 358.634,364.752 357.991,365.053 357.690 C 365.354 357.389,365.600 356.886,365.600 356.571 C 365.600 356.257,365.760 356.000,365.957 356.000 C 366.153 356.000,366.426 355.550,366.564 355.000 C 366.702 354.450,366.992 354.000,367.208 354.000 C 367.423 354.000,367.600 353.749,367.600 353.443 C 367.600 353.136,367.870 352.782,368.200 352.655 C 368.530 352.529,368.800 352.149,368.800 351.813 C 368.800 351.476,368.977 351.200,369.192 351.200 C 369.408 351.200,369.698 350.750,369.836 350.200 C 369.974 349.650,370.228 349.200,370.400 349.200 C 370.572 349.200,370.826 348.750,370.964 348.200 C 371.102 347.650,371.392 347.200,371.608 347.200 C 371.823 347.200,372.000 346.930,372.000 346.600 C 372.000 346.270,372.177 346.000,372.392 346.000 C 372.608 346.000,372.894 345.563,373.028 345.029 C 373.163 344.495,373.526 343.961,373.836 343.841 C 374.146 343.722,374.400 343.349,374.400 343.013 C 374.400 342.676,374.580 342.400,374.800 342.400 C 375.020 342.400,375.200 342.034,375.200 341.587 C 375.200 341.141,375.470 340.671,375.800 340.545 C 376.130 340.418,376.400 340.064,376.400 339.757 C 376.400 339.451,376.568 339.200,376.773 339.200 C 376.978 339.200,377.272 338.803,377.426 338.319 C 377.580 337.834,377.952 337.191,378.253 336.890 C 378.554 336.589,378.800 336.086,378.800 335.771 C 378.800 335.457,378.980 335.200,379.200 335.200 C 379.420 335.200,379.600 334.924,379.600 334.587 C 379.600 334.251,379.870 333.871,380.200 333.745 C 380.530 333.618,380.800 333.193,380.800 332.800 C 380.800 332.407,381.070 331.982,381.400 331.855 C 381.730 331.729,382.000 331.349,382.000 331.013 C 382.000 330.676,382.180 330.400,382.400 330.400 C 382.620 330.400,382.800 330.143,382.800 329.829 C 382.800 329.514,383.081 328.976,383.424 328.633 C 383.768 328.289,384.152 327.376,384.277 326.604 L 384.505 325.200 200.000 325.200 L 15.495 325.200 15.723 326.604 M382.800 326.594 C 382.800 326.701,382.260 327.666,381.600 328.738 C 380.940 329.811,380.400 330.894,380.400 331.144 C 380.400 331.395,380.257 331.600,380.083 331.600 C 379.909 331.600,379.091 332.725,378.266 334.100 C 377.441 335.475,376.549 336.960,376.283 337.400 C 376.017 337.840,375.699 338.290,375.576 338.400 C 375.047 338.873,371.600 344.710,371.600 345.134 C 371.600 345.390,371.433 345.600,371.228 345.600 C 370.793 345.600,367.200 351.248,367.200 351.934 C 367.200 352.190,367.053 352.400,366.874 352.400 C 366.694 352.400,366.109 353.141,365.574 354.046 C 365.038 354.952,364.287 356.167,363.904 356.746 C 363.522 357.326,363.081 358.070,362.925 358.400 C 362.768 358.730,362.361 359.303,362.020 359.674 C 361.679 360.044,360.950 361.214,360.400 362.274 C 359.850 363.333,359.310 364.290,359.200 364.400 C 358.549 365.051,356.400 368.402,356.400 368.765 C 356.400 369.004,356.223 369.200,356.008 369.200 C 355.792 369.200,355.502 369.650,355.364 370.200 C 355.226 370.750,354.965 371.200,354.784 371.200 C 354.602 371.200,354.328 371.605,354.173 372.100 C 354.019 372.595,353.772 373.090,353.625 373.200 C 353.147 373.559,350.800 377.230,350.800 377.620 C 350.800 377.829,350.632 378.000,350.427 378.000 C 350.222 378.000,349.930 378.391,349.778 378.869 C 349.626 379.347,349.209 380.055,348.851 380.443 C 348.493 380.830,347.750 382.014,347.200 383.074 C 346.650 384.133,345.975 385.144,345.700 385.320 C 345.425 385.496,345.200 385.901,345.200 386.220 C 345.200 386.539,345.061 386.800,344.891 386.800 C 344.721 386.800,344.226 387.475,343.792 388.300 C 343.357 389.125,342.776 390.038,342.501 390.329 C 342.225 390.619,342.000 391.114,342.000 391.429 C 342.000 391.743,341.832 392.000,341.627 392.000 C 341.422 392.000,341.128 392.405,340.973 392.900 C 340.819 393.395,340.572 393.890,340.425 394.000 C 339.947 394.359,337.600 398.030,337.600 398.420 C 337.600 398.629,337.423 398.800,337.208 398.800 C 336.992 398.800,336.702 399.250,336.564 399.800 C 336.426 400.350,336.181 400.800,336.020 400.800 C 335.858 400.800,335.383 401.475,334.963 402.300 C 334.543 403.125,334.110 403.890,334.000 404.000 C 333.397 404.603,332.000 406.827,332.000 407.184 C 332.000 407.413,331.841 407.600,331.647 407.600 C 331.452 407.600,331.188 407.915,331.058 408.300 C 330.789 409.101,330.030 410.315,329.300 411.112 C 329.025 411.412,328.800 411.914,328.800 412.229 C 328.800 412.543,328.653 412.800,328.474 412.800 C 328.294 412.800,327.709 413.541,327.174 414.446 C 326.638 415.352,325.883 416.567,325.495 417.146 C 325.108 417.726,324.682 418.515,324.549 418.900 C 324.416 419.285,324.189 419.600,324.044 419.600 C 323.900 419.600,323.426 420.275,322.992 421.100 C 322.557 421.925,321.976 422.838,321.701 423.129 C 321.425 423.419,321.200 423.899,321.200 424.195 C 321.200 424.491,321.065 424.793,320.900 424.867 C 320.465 425.060,318.000 428.753,318.000 429.212 C 318.000 429.425,317.823 429.600,317.608 429.600 C 317.392 429.600,317.102 430.050,316.964 430.600 C 316.826 431.150,316.565 431.600,316.384 431.600 C 316.202 431.600,315.928 432.005,315.773 432.500 C 315.619 432.995,315.372 433.490,315.225 433.600 C 314.747 433.959,312.400 437.630,312.400 438.020 C 312.400 438.229,312.223 438.400,312.008 438.400 C 311.792 438.400,311.502 438.850,311.364 439.400 C 311.226 439.950,310.974 440.400,310.803 440.400 C 310.633 440.400,310.388 440.715,310.258 441.100 C 310.017 441.817,309.174 443.243,308.779 443.600 C 308.657 443.710,308.127 444.520,307.600 445.400 C 307.073 446.280,306.530 447.090,306.392 447.200 C 306.254 447.310,306.021 447.670,305.873 448.000 C 305.503 448.828,304.698 450.059,304.100 450.712 C 303.825 451.012,303.600 451.514,303.600 451.829 C 303.600 452.143,303.423 452.400,303.208 452.400 C 302.992 452.400,302.702 452.850,302.564 453.400 C 302.426 453.950,302.153 454.400,301.957 454.400 C 301.760 454.400,301.600 454.670,301.600 455.000 C 301.600 455.330,301.416 455.600,301.190 455.600 C 300.965 455.600,300.605 456.005,300.391 456.500 C 299.920 457.589,299.176 458.774,298.500 459.512 C 298.225 459.812,298.000 460.314,298.000 460.629 C 298.000 460.943,297.820 461.200,297.600 461.200 C 297.380 461.200,297.200 461.470,297.200 461.800 C 297.200 462.130,297.023 462.400,296.808 462.400 C 296.592 462.400,296.302 462.850,296.164 463.400 C 296.026 463.950,295.794 464.400,295.648 464.400 C 295.503 464.400,294.941 465.210,294.400 466.200 C 293.859 467.190,293.299 468.000,293.155 468.000 C 293.011 468.000,292.788 468.315,292.658 468.700 C 292.389 469.501,291.630 470.715,290.900 471.512 C 290.625 471.812,290.400 472.299,290.400 472.595 C 290.400 472.891,290.265 473.193,290.100 473.267 C 289.665 473.460,287.200 477.153,287.200 477.612 C 287.200 477.825,287.020 478.000,286.800 478.000 C 286.580 478.000,286.400 478.257,286.400 478.571 C 286.400 478.886,286.154 479.389,285.853 479.690 C 285.552 479.991,285.180 480.634,285.026 481.119 C 284.872 481.603,284.578 482.000,284.373 482.000 C 284.168 482.000,284.000 482.255,284.000 482.567 C 284.000 482.878,283.856 483.193,283.679 483.267 C 283.502 483.340,282.658 484.570,281.803 486.000 C 280.948 487.430,280.135 488.690,279.995 488.800 C 279.856 488.910,279.621 489.270,279.473 489.600 C 279.103 490.428,278.298 491.659,277.700 492.312 C 277.425 492.612,277.200 493.114,277.200 493.429 C 277.200 493.743,277.020 494.000,276.800 494.000 C 276.580 494.000,276.400 494.175,276.400 494.388 C 276.400 494.762,274.060 498.389,273.554 498.800 C 273.419 498.910,273.181 499.405,273.027 499.900 C 272.872 500.395,272.598 500.800,272.416 500.800 C 272.235 500.800,271.974 501.250,271.836 501.800 C 271.698 502.350,271.408 502.800,271.192 502.800 C 270.977 502.800,270.800 502.953,270.800 503.141 C 270.800 503.427,267.941 508.049,266.915 509.422 C 266.152 510.443,265.559 511.452,265.342 512.100 C 265.212 512.485,264.948 512.800,264.753 512.800 C 264.559 512.800,264.400 512.963,264.400 513.163 C 264.400 513.510,261.252 518.534,260.472 519.431 C 260.266 519.668,259.974 520.253,259.822 520.731 C 259.670 521.209,259.398 521.600,259.216 521.600 C 259.035 521.600,258.774 522.050,258.636 522.600 C 258.498 523.150,258.208 523.600,257.992 523.600 C 257.777 523.600,257.600 523.870,257.600 524.200 C 257.600 524.530,257.461 524.800,257.292 524.800 C 257.122 524.800,256.541 525.610,256.000 526.600 C 255.459 527.590,254.878 528.400,254.708 528.400 C 254.539 528.400,254.400 528.657,254.400 528.971 C 254.400 530.886,256.956 530.800,200.103 530.800 C 143.056 530.800,145.600 530.887,145.600 528.938 C 145.600 528.642,145.432 528.400,145.227 528.400 C 145.022 528.400,144.728 527.995,144.573 527.500 C 144.419 527.005,144.181 526.510,144.046 526.400 C 143.540 525.989,141.200 522.362,141.200 521.988 C 141.200 521.775,141.023 521.600,140.808 521.600 C 140.592 521.600,140.302 521.150,140.164 520.600 C 140.026 520.050,139.772 519.600,139.600 519.600 C 139.428 519.600,139.174 519.150,139.036 518.600 C 138.898 518.050,138.608 517.600,138.392 517.600 C 138.177 517.600,138.000 517.401,138.000 517.158 C 138.000 516.914,137.460 516.033,136.800 515.200 C 136.140 514.367,135.600 513.486,135.600 513.242 C 135.600 512.999,135.420 512.800,135.200 512.800 C 134.980 512.800,134.800 512.543,134.800 512.229 C 134.800 511.914,134.565 511.419,134.278 511.129 C 133.990 510.838,133.631 510.330,133.480 510.000 C 133.133 509.243,132.270 507.863,131.979 507.600 C 131.857 507.490,131.327 506.680,130.800 505.800 C 130.273 504.920,129.743 504.110,129.621 504.000 C 129.226 503.643,128.383 502.217,128.142 501.500 C 128.012 501.115,127.748 500.800,127.553 500.800 C 127.359 500.800,127.200 500.543,127.200 500.229 C 127.200 499.914,126.975 499.412,126.700 499.112 C 126.024 498.374,125.280 497.189,124.809 496.100 C 124.595 495.605,124.235 495.200,124.010 495.200 C 123.784 495.200,123.600 494.930,123.600 494.600 C 123.600 494.270,123.440 494.000,123.243 494.000 C 123.047 494.000,122.774 493.550,122.636 493.000 C 122.498 492.450,122.208 492.000,121.992 492.000 C 121.777 492.000,121.600 491.743,121.600 491.429 C 121.600 491.114,121.365 490.619,121.078 490.329 C 120.790 490.038,120.431 489.530,120.280 489.200 C 119.933 488.443,119.070 487.063,118.779 486.800 C 118.657 486.690,118.127 485.880,117.600 485.000 C 117.073 484.120,116.543 483.310,116.421 483.200 C 116.026 482.843,115.183 481.417,114.942 480.700 C 114.812 480.315,114.567 480.000,114.397 480.000 C 114.226 480.000,113.974 479.550,113.836 479.000 C 113.698 478.450,113.408 478.000,113.192 478.000 C 112.977 478.000,112.800 477.829,112.800 477.620 C 112.800 477.230,110.453 473.559,109.975 473.200 C 109.828 473.090,109.581 472.595,109.427 472.100 C 109.272 471.605,108.998 471.200,108.816 471.200 C 108.635 471.200,108.374 470.750,108.236 470.200 C 108.098 469.650,107.808 469.200,107.592 469.200 C 107.377 469.200,107.200 469.025,107.200 468.812 C 107.200 468.353,104.735 464.660,104.300 464.467 C 104.135 464.393,104.000 464.091,104.000 463.795 C 104.000 463.499,103.775 463.019,103.499 462.729 C 103.224 462.438,102.643 461.525,102.208 460.700 C 101.774 459.875,101.300 459.200,101.156 459.200 C 101.011 459.200,100.779 458.885,100.640 458.500 C 100.363 457.734,99.989 457.106,98.194 454.400 C 97.537 453.410,96.865 452.540,96.700 452.467 C 96.535 452.393,96.400 452.091,96.400 451.795 C 96.400 451.499,96.175 451.012,95.900 450.712 C 95.170 449.915,94.411 448.701,94.142 447.900 C 94.012 447.515,93.748 447.200,93.553 447.200 C 93.359 447.200,93.200 447.013,93.200 446.784 C 93.200 446.427,91.803 444.203,91.200 443.600 C 91.090 443.490,90.657 442.725,90.237 441.900 C 89.817 441.075,89.322 440.400,89.137 440.400 C 88.952 440.400,88.800 440.143,88.800 439.829 C 88.800 439.514,88.575 439.012,88.300 438.712 C 87.662 438.015,86.898 436.821,86.437 435.800 C 86.239 435.360,85.722 434.626,85.287 434.169 C 84.853 433.712,84.374 432.947,84.222 432.469 C 84.070 431.991,83.778 431.600,83.573 431.600 C 83.368 431.600,83.200 431.343,83.200 431.029 C 83.200 430.714,82.975 430.219,82.699 429.929 C 82.424 429.638,81.843 428.725,81.408 427.900 C 80.974 427.075,80.479 426.400,80.309 426.400 C 80.139 426.400,80.000 426.139,80.000 425.820 C 80.000 425.501,79.775 425.096,79.500 424.920 C 79.225 424.744,78.550 423.733,78.000 422.674 C 77.450 421.614,76.707 420.430,76.349 420.043 C 75.991 419.655,75.574 418.947,75.422 418.469 C 75.270 417.991,74.978 417.600,74.773 417.600 C 74.568 417.600,74.400 417.429,74.400 417.220 C 74.400 416.830,72.053 413.159,71.575 412.800 C 71.428 412.690,71.181 412.195,71.027 411.700 C 70.872 411.205,70.578 410.800,70.373 410.800 C 70.168 410.800,70.000 410.575,70.001 410.300 C 70.002 409.760,66.404 404.287,65.903 404.067 C 65.736 403.993,65.600 403.739,65.600 403.502 C 65.600 403.085,63.277 399.207,62.784 398.800 C 62.651 398.690,62.418 398.330,62.266 398.000 C 62.115 397.670,61.678 396.926,61.296 396.346 C 60.913 395.767,60.162 394.552,59.626 393.646 C 59.091 392.741,58.506 392.000,58.326 392.000 C 58.147 392.000,58.000 391.743,58.000 391.429 C 58.000 391.114,57.775 390.617,57.500 390.322 C 57.225 390.028,56.651 389.105,56.225 388.271 C 55.798 387.437,55.033 386.305,54.525 385.757 C 54.016 385.208,53.600 384.648,53.600 384.513 C 53.600 384.244,49.985 378.323,49.624 378.000 C 49.501 377.890,49.183 377.440,48.917 377.000 C 48.651 376.560,47.759 375.075,46.934 373.700 C 46.109 372.325,45.291 371.200,45.117 371.200 C 44.943 371.200,44.800 370.963,44.800 370.674 C 44.800 370.385,43.971 368.913,42.959 367.403 C 41.946 365.893,40.113 363.025,38.886 361.029 C 37.659 359.033,36.539 357.310,36.398 357.200 C 36.257 357.090,36.019 356.730,35.869 356.400 C 35.720 356.070,34.203 353.615,32.499 350.945 C 28.327 344.409,23.255 336.383,22.673 335.400 C 22.413 334.960,22.103 334.510,21.985 334.400 C 21.663 334.101,17.200 326.822,17.200 326.595 C 17.200 326.488,99.460 326.400,200.000 326.400 C 300.540 326.400,382.800 326.487,382.800 326.594 M168.800 568.157 C 168.800 568.684,169.070 569.218,169.400 569.345 C 169.730 569.471,170.000 569.928,170.000 570.360 C 170.000 570.793,170.347 571.256,170.772 571.391 C 171.205 571.529,171.658 572.155,171.804 572.818 C 171.947 573.468,172.217 574.000,172.405 574.000 C 172.593 574.000,172.872 574.397,173.026 574.881 C 173.180 575.366,173.552 576.009,173.853 576.310 C 174.154 576.611,174.400 577.114,174.400 577.429 C 174.400 577.743,174.580 578.000,174.800 578.000 C 175.020 578.000,175.200 578.270,175.200 578.600 C 175.200 578.930,175.377 579.200,175.592 579.200 C 175.808 579.200,176.094 579.637,176.228 580.171 C 176.363 580.705,176.726 581.239,177.036 581.359 C 177.346 581.478,177.600 581.851,177.600 582.187 C 177.600 582.524,177.777 582.800,177.992 582.800 C 178.208 582.800,178.498 583.250,178.636 583.800 C 178.774 584.350,179.047 584.800,179.243 584.800 C 179.440 584.800,179.600 585.070,179.600 585.400 C 179.600 585.730,179.768 586.000,179.973 586.000 C 180.178 586.000,180.472 586.397,180.626 586.881 C 180.780 587.366,181.152 588.009,181.453 588.310 C 181.754 588.611,182.000 589.095,182.000 589.386 C 182.000 589.677,182.270 590.018,182.600 590.145 C 182.930 590.271,183.200 590.651,183.200 590.987 C 183.200 591.324,183.380 591.600,183.600 591.600 C 183.820 591.600,184.000 591.941,184.000 592.357 C 184.000 592.774,184.270 593.218,184.600 593.345 C 184.930 593.471,185.200 593.851,185.200 594.187 C 185.200 594.524,185.368 594.800,185.573 594.800 C 185.778 594.800,186.072 595.197,186.226 595.681 C 186.380 596.166,186.752 596.809,187.053 597.110 C 187.354 597.411,187.600 597.914,187.600 598.229 C 187.600 598.543,187.780 598.800,188.000 598.800 C 188.220 598.800,188.400 599.051,188.400 599.357 C 188.400 599.664,188.670 600.018,189.000 600.145 C 189.330 600.271,189.600 600.721,189.600 601.145 C 189.600 601.568,189.870 602.018,190.200 602.145 C 190.530 602.271,190.800 602.651,190.800 602.987 C 190.800 603.324,190.977 603.600,191.192 603.600 C 191.408 603.600,191.698 604.050,191.836 604.600 C 191.974 605.150,192.247 605.600,192.443 605.600 C 192.640 605.600,192.800 605.870,192.800 606.200 C 192.800 606.530,192.977 606.800,193.192 606.800 C 193.408 606.800,193.694 607.237,193.828 607.771 C 193.963 608.305,194.326 608.839,194.636 608.959 C 194.946 609.078,195.200 609.541,195.200 609.987 C 195.200 610.434,195.380 610.800,195.600 610.800 C 195.820 610.800,196.000 611.076,196.000 611.413 C 196.000 611.749,196.270 612.129,196.600 612.255 C 196.930 612.382,197.200 612.736,197.200 613.043 C 197.200 613.349,197.377 613.600,197.592 613.600 C 197.808 613.600,198.096 614.044,198.232 614.586 C 198.620 616.132,201.600 616.475,201.600 614.973 C 201.600 614.658,201.777 614.400,201.992 614.400 C 202.208 614.400,202.494 613.963,202.628 613.429 C 202.763 612.895,203.126 612.361,203.436 612.241 C 203.746 612.122,204.000 611.749,204.000 611.413 C 204.000 611.076,204.180 610.800,204.400 610.800 C 204.620 610.800,204.800 610.434,204.800 609.987 C 204.800 609.541,205.070 609.071,205.400 608.945 C 205.730 608.818,206.000 608.464,206.000 608.157 C 206.000 607.851,206.168 607.600,206.373 607.600 C 206.578 607.600,206.872 607.203,207.026 606.719 C 207.180 606.234,207.552 605.591,207.853 605.290 C 208.154 604.989,208.400 604.486,208.400 604.171 C 208.400 603.857,208.580 603.600,208.800 603.600 C 209.020 603.600,209.200 603.324,209.200 602.987 C 209.200 602.651,209.470 602.271,209.800 602.145 C 210.130 602.018,210.400 601.593,210.400 601.200 C 210.400 600.807,210.670 600.382,211.000 600.255 C 211.330 600.129,211.600 599.749,211.600 599.413 C 211.600 599.076,211.780 598.800,212.000 598.800 C 212.220 598.800,212.400 598.543,212.400 598.229 C 212.400 597.914,212.646 597.411,212.947 597.110 C 213.248 596.809,213.620 596.166,213.774 595.681 C 213.928 595.197,214.222 594.800,214.427 594.800 C 214.632 594.800,214.800 594.549,214.800 594.243 C 214.800 593.936,215.070 593.582,215.400 593.455 C 215.730 593.329,216.000 592.859,216.000 592.413 C 216.000 591.966,216.180 591.600,216.400 591.600 C 216.620 591.600,216.800 591.324,216.800 590.987 C 216.800 590.651,217.054 590.278,217.364 590.159 C 217.674 590.039,218.037 589.505,218.172 588.971 C 218.306 588.437,218.592 588.000,218.808 588.000 C 219.023 588.000,219.200 587.730,219.200 587.400 C 219.200 587.070,219.377 586.800,219.592 586.800 C 219.808 586.800,220.098 586.350,220.236 585.800 C 220.374 585.250,220.628 584.800,220.800 584.800 C 220.972 584.800,221.226 584.350,221.364 583.800 C 221.502 583.250,221.792 582.800,222.008 582.800 C 222.223 582.800,222.400 582.524,222.400 582.187 C 222.400 581.851,222.670 581.471,223.000 581.345 C 223.330 581.218,223.600 580.864,223.600 580.557 C 223.600 580.251,223.777 580.000,223.992 580.000 C 224.208 580.000,224.498 579.550,224.636 579.000 C 224.774 578.450,225.047 578.000,225.243 578.000 C 225.440 578.000,225.600 577.743,225.600 577.429 C 225.600 577.114,225.846 576.611,226.147 576.310 C 226.448 576.009,226.820 575.366,226.974 574.881 C 227.128 574.397,227.422 574.000,227.627 574.000 C 227.832 574.000,228.000 573.749,228.000 573.443 C 228.000 573.136,228.270 572.782,228.600 572.655 C 228.930 572.529,229.200 572.149,229.200 571.813 C 229.200 571.476,229.380 571.200,229.600 571.200 C 229.820 571.200,230.000 570.834,230.000 570.387 C 230.000 569.941,230.270 569.471,230.600 569.345 C 230.930 569.218,231.200 568.684,231.200 568.157 L 231.200 567.200 200.000 567.200 L 168.800 567.200 168.800 568.157 M229.200 568.771 C 229.200 568.976,228.975 569.384,228.700 569.679 C 228.425 569.973,227.854 570.841,227.430 571.607 C 227.007 572.373,226.557 573.090,226.430 573.200 C 226.304 573.310,225.986 573.760,225.724 574.200 C 223.568 577.826,220.981 581.824,220.719 581.933 C 220.543 582.007,220.400 582.215,220.400 582.396 C 220.400 582.733,217.189 587.809,216.423 588.683 C 216.191 588.949,216.000 589.324,216.000 589.517 C 216.000 589.710,215.321 590.842,214.490 592.034 C 213.660 593.225,211.824 596.090,210.409 598.400 C 208.995 600.710,207.739 602.690,207.619 602.800 C 207.498 602.910,207.130 603.482,206.800 604.071 C 204.919 607.427,200.285 614.400,199.935 614.400 C 199.710 614.400,199.431 614.040,199.316 613.600 C 199.201 613.160,198.976 612.800,198.816 612.800 C 198.657 612.800,198.183 612.130,197.763 611.311 C 197.343 610.492,196.858 609.637,196.685 609.411 C 195.747 608.188,192.800 603.432,192.800 603.141 C 192.800 602.953,192.632 602.800,192.427 602.800 C 192.222 602.800,191.928 602.395,191.773 601.900 C 191.619 601.405,191.366 600.910,191.212 600.800 C 190.903 600.579,186.830 594.075,186.205 592.803 C 185.988 592.361,185.673 592.000,185.505 592.000 C 185.337 592.000,185.200 591.730,185.200 591.400 C 185.200 591.070,185.032 590.800,184.827 590.800 C 184.622 590.800,184.330 590.409,184.178 589.931 C 184.026 589.453,183.737 588.868,183.536 588.631 C 182.767 587.726,179.600 582.665,179.600 582.341 C 179.600 582.153,179.432 582.000,179.227 582.000 C 179.022 582.000,178.730 581.609,178.578 581.131 C 178.426 580.653,178.134 580.068,177.928 579.831 C 177.148 578.934,174.000 573.910,174.000 573.563 C 174.000 573.363,173.840 573.200,173.643 573.200 C 173.447 573.200,173.174 572.750,173.036 572.200 C 172.898 571.650,172.608 571.200,172.392 571.200 C 172.177 571.200,172.000 571.007,172.000 570.771 C 172.000 570.536,171.730 570.073,171.400 569.743 C 171.070 569.413,170.800 568.976,170.800 568.771 C 170.800 568.546,182.297 568.400,200.000 568.400 C 217.703 568.400,229.200 568.546,229.200 568.771 " stroke="#000000" fill="none" stroke-width="3" class="QhlUsGiA_1"></path><path id="path2" d="M0.800 144.800 L 0.800 289.600 54.600 289.600 L 108.400 289.600 108.400 144.800 L 108.400 0.000 54.600 0.000 L 0.800 0.000 0.800 144.800 M146.400 144.800 L 146.400 289.600 272.800 289.600 L 399.200 289.600 399.200 144.800 L 399.200 0.000 272.800 0.000 L 146.400 0.000 146.400 144.800 M17.200 326.595 C 17.200 326.822,21.663 334.101,21.985 334.400 C 22.103 334.510,22.413 334.960,22.673 335.400 C 23.255 336.383,28.327 344.409,32.499 350.945 C 34.203 353.615,35.720 356.070,35.869 356.400 C 36.019 356.730,36.257 357.090,36.398 357.200 C 36.539 357.310,37.659 359.033,38.886 361.029 C 40.113 363.025,41.946 365.893,42.959 367.403 C 43.971 368.913,44.800 370.385,44.800 370.674 C 44.800 370.963,44.943 371.200,45.117 371.200 C 45.291 371.200,46.109 372.325,46.934 373.700 C 47.759 375.075,48.651 376.560,48.917 377.000 C 49.183 377.440,49.501 377.890,49.624 378.000 C 49.985 378.323,53.600 384.244,53.600 384.513 C 53.600 384.648,54.016 385.208,54.525 385.757 C 55.033 386.305,55.798 387.437,56.225 388.271 C 56.651 389.105,57.225 390.028,57.500 390.322 C 57.775 390.617,58.000 391.114,58.000 391.429 C 58.000 391.743,58.147 392.000,58.326 392.000 C 58.506 392.000,59.091 392.741,59.626 393.646 C 60.162 394.552,60.913 395.767,61.296 396.346 C 61.678 396.926,62.115 397.670,62.266 398.000 C 62.418 398.330,62.651 398.690,62.784 398.800 C 63.277 399.207,65.600 403.085,65.600 403.502 C 65.600 403.739,65.736 403.993,65.903 404.067 C 66.404 404.287,70.002 409.760,70.001 410.300 C 70.000 410.575,70.168 410.800,70.373 410.800 C 70.578 410.800,70.872 411.205,71.027 411.700 C 71.181 412.195,71.428 412.690,71.575 412.800 C 72.053 413.159,74.400 416.830,74.400 417.220 C 74.400 417.429,74.568 417.600,74.773 417.600 C 74.978 417.600,75.270 417.991,75.422 418.469 C 75.574 418.947,75.991 419.655,76.349 420.043 C 76.707 420.430,77.450 421.614,78.000 422.674 C 78.550 423.733,79.225 424.744,79.500 424.920 C 79.775 425.096,80.000 425.501,80.000 425.820 C 80.000 426.139,80.139 426.400,80.309 426.400 C 80.479 426.400,80.974 427.075,81.408 427.900 C 81.843 428.725,82.424 429.638,82.699 429.929 C 82.975 430.219,83.200 430.714,83.200 431.029 C 83.200 431.343,83.368 431.600,83.573 431.600 C 83.778 431.600,84.070 431.991,84.222 432.469 C 84.374 432.947,84.853 433.712,85.287 434.169 C 85.722 434.626,86.239 435.360,86.437 435.800 C 86.898 436.821,87.662 438.015,88.300 438.712 C 88.575 439.012,88.800 439.514,88.800 439.829 C 88.800 440.143,88.952 440.400,89.137 440.400 C 89.322 440.400,89.817 441.075,90.237 441.900 C 90.657 442.725,91.090 443.490,91.200 443.600 C 91.803 444.203,93.200 446.427,93.200 446.784 C 93.200 447.013,93.359 447.200,93.553 447.200 C 93.748 447.200,94.012 447.515,94.142 447.900 C 94.411 448.701,95.170 449.915,95.900 450.712 C 96.175 451.012,96.400 451.499,96.400 451.795 C 96.400 452.091,96.535 452.393,96.700 452.467 C 96.865 452.540,97.537 453.410,98.194 454.400 C 99.989 457.106,100.363 457.734,100.640 458.500 C 100.779 458.885,101.011 459.200,101.156 459.200 C 101.300 459.200,101.774 459.875,102.208 460.700 C 102.643 461.525,103.224 462.438,103.499 462.729 C 103.775 463.019,104.000 463.499,104.000 463.795 C 104.000 464.091,104.135 464.393,104.300 464.467 C 104.735 464.660,107.200 468.353,107.200 468.812 C 107.200 469.025,107.377 469.200,107.592 469.200 C 107.808 469.200,108.098 469.650,108.236 470.200 C 108.374 470.750,108.635 471.200,108.816 471.200 C 108.998 471.200,109.272 471.605,109.427 472.100 C 109.581 472.595,109.828 473.090,109.975 473.200 C 110.453 473.559,112.800 477.230,112.800 477.620 C 112.800 477.829,112.977 478.000,113.192 478.000 C 113.408 478.000,113.698 478.450,113.836 479.000 C 113.974 479.550,114.226 480.000,114.397 480.000 C 114.567 480.000,114.812 480.315,114.942 480.700 C 115.183 481.417,116.026 482.843,116.421 483.200 C 116.543 483.310,117.073 484.120,117.600 485.000 C 118.127 485.880,118.657 486.690,118.779 486.800 C 119.070 487.063,119.933 488.443,120.280 489.200 C 120.431 489.530,120.790 490.038,121.078 490.329 C 121.365 490.619,121.600 491.114,121.600 491.429 C 121.600 491.743,121.777 492.000,121.992 492.000 C 122.208 492.000,122.498 492.450,122.636 493.000 C 122.774 493.550,123.047 494.000,123.243 494.000 C 123.440 494.000,123.600 494.270,123.600 494.600 C 123.600 494.930,123.784 495.200,124.010 495.200 C 124.235 495.200,124.595 495.605,124.809 496.100 C 125.280 497.189,126.024 498.374,126.700 499.112 C 126.975 499.412,127.200 499.914,127.200 500.229 C 127.200 500.543,127.359 500.800,127.553 500.800 C 127.748 500.800,128.012 501.115,128.142 501.500 C 128.383 502.217,129.226 503.643,129.621 504.000 C 129.743 504.110,130.273 504.920,130.800 505.800 C 131.327 506.680,131.857 507.490,131.979 507.600 C 132.270 507.863,133.133 509.243,133.480 510.000 C 133.631 510.330,133.990 510.838,134.278 511.129 C 134.565 511.419,134.800 511.914,134.800 512.229 C 134.800 512.543,134.980 512.800,135.200 512.800 C 135.420 512.800,135.600 512.999,135.600 513.242 C 135.600 513.486,136.140 514.367,136.800 515.200 C 137.460 516.033,138.000 516.914,138.000 517.158 C 138.000 517.401,138.177 517.600,138.392 517.600 C 138.608 517.600,138.898 518.050,139.036 518.600 C 139.174 519.150,139.428 519.600,139.600 519.600 C 139.772 519.600,140.026 520.050,140.164 520.600 C 140.302 521.150,140.592 521.600,140.808 521.600 C 141.023 521.600,141.200 521.775,141.200 521.988 C 141.200 522.362,143.540 525.989,144.046 526.400 C 144.181 526.510,144.419 527.005,144.573 527.500 C 144.728 527.995,145.022 528.400,145.227 528.400 C 145.432 528.400,145.600 528.642,145.600 528.938 C 145.600 530.887,143.056 530.800,200.103 530.800 C 256.956 530.800,254.400 530.886,254.400 528.971 C 254.400 528.657,254.539 528.400,254.708 528.400 C 254.878 528.400,255.459 527.590,256.000 526.600 C 256.541 525.610,257.122 524.800,257.292 524.800 C 257.461 524.800,257.600 524.530,257.600 524.200 C 257.600 523.870,257.777 523.600,257.992 523.600 C 258.208 523.600,258.498 523.150,258.636 522.600 C 258.774 522.050,259.035 521.600,259.216 521.600 C 259.398 521.600,259.670 521.209,259.822 520.731 C 259.974 520.253,260.266 519.668,260.472 519.431 C 261.252 518.534,264.400 513.510,264.400 513.163 C 264.400 512.963,264.559 512.800,264.753 512.800 C 264.948 512.800,265.212 512.485,265.342 512.100 C 265.559 511.452,266.152 510.443,266.915 509.422 C 267.941 508.049,270.800 503.427,270.800 503.141 C 270.800 502.953,270.977 502.800,271.192 502.800 C 271.408 502.800,271.698 502.350,271.836 501.800 C 271.974 501.250,272.235 500.800,272.416 500.800 C 272.598 500.800,272.872 500.395,273.027 499.900 C 273.181 499.405,273.419 498.910,273.554 498.800 C 274.060 498.389,276.400 494.762,276.400 494.388 C 276.400 494.175,276.580 494.000,276.800 494.000 C 277.020 494.000,277.200 493.743,277.200 493.429 C 277.200 493.114,277.425 492.612,277.700 492.312 C 278.298 491.659,279.103 490.428,279.473 489.600 C 279.621 489.270,279.856 488.910,279.995 488.800 C 280.135 488.690,280.948 487.430,281.803 486.000 C 282.658 484.570,283.502 483.340,283.679 483.267 C 283.856 483.193,284.000 482.878,284.000 482.567 C 284.000 482.255,284.168 482.000,284.373 482.000 C 284.578 482.000,284.872 481.603,285.026 481.119 C 285.180 480.634,285.552 479.991,285.853 479.690 C 286.154 479.389,286.400 478.886,286.400 478.571 C 286.400 478.257,286.580 478.000,286.800 478.000 C 287.020 478.000,287.200 477.825,287.200 477.612 C 287.200 477.153,289.665 473.460,290.100 473.267 C 290.265 473.193,290.400 472.891,290.400 472.595 C 290.400 472.299,290.625 471.812,290.900 471.512 C 291.630 470.715,292.389 469.501,292.658 468.700 C 292.788 468.315,293.011 468.000,293.155 468.000 C 293.299 468.000,293.859 467.190,294.400 466.200 C 294.941 465.210,295.503 464.400,295.648 464.400 C 295.794 464.400,296.026 463.950,296.164 463.400 C 296.302 462.850,296.592 462.400,296.808 462.400 C 297.023 462.400,297.200 462.130,297.200 461.800 C 297.200 461.470,297.380 461.200,297.600 461.200 C 297.820 461.200,298.000 460.943,298.000 460.629 C 298.000 460.314,298.225 459.812,298.500 459.512 C 299.176 458.774,299.920 457.589,300.391 456.500 C 300.605 456.005,300.965 455.600,301.190 455.600 C 301.416 455.600,301.600 455.330,301.600 455.000 C 301.600 454.670,301.760 454.400,301.957 454.400 C 302.153 454.400,302.426 453.950,302.564 453.400 C 302.702 452.850,302.992 452.400,303.208 452.400 C 303.423 452.400,303.600 452.143,303.600 451.829 C 303.600 451.514,303.825 451.012,304.100 450.712 C 304.698 450.059,305.503 448.828,305.873 448.000 C 306.021 447.670,306.254 447.310,306.392 447.200 C 306.530 447.090,307.073 446.280,307.600 445.400 C 308.127 444.520,308.657 443.710,308.779 443.600 C 309.174 443.243,310.017 441.817,310.258 441.100 C 310.388 440.715,310.633 440.400,310.803 440.400 C 310.974 440.400,311.226 439.950,311.364 439.400 C 311.502 438.850,311.792 438.400,312.008 438.400 C 312.223 438.400,312.400 438.229,312.400 438.020 C 312.400 437.630,314.747 433.959,315.225 433.600 C 315.372 433.490,315.619 432.995,315.773 432.500 C 315.928 432.005,316.202 431.600,316.384 431.600 C 316.565 431.600,316.826 431.150,316.964 430.600 C 317.102 430.050,317.392 429.600,317.608 429.600 C 317.823 429.600,318.000 429.425,318.000 429.212 C 318.000 428.753,320.465 425.060,320.900 424.867 C 321.065 424.793,321.200 424.491,321.200 424.195 C 321.200 423.899,321.425 423.419,321.701 423.129 C 321.976 422.838,322.557 421.925,322.992 421.100 C 323.426 420.275,323.900 419.600,324.044 419.600 C 324.189 419.600,324.416 419.285,324.549 418.900 C 324.682 418.515,325.108 417.726,325.495 417.146 C 325.883 416.567,326.638 415.352,327.174 414.446 C 327.709 413.541,328.294 412.800,328.474 412.800 C 328.653 412.800,328.800 412.543,328.800 412.229 C 328.800 411.914,329.025 411.412,329.300 411.112 C 330.030 410.315,330.789 409.101,331.058 408.300 C 331.188 407.915,331.452 407.600,331.647 407.600 C 331.841 407.600,332.000 407.413,332.000 407.184 C 332.000 406.827,333.397 404.603,334.000 404.000 C 334.110 403.890,334.543 403.125,334.963 402.300 C 335.383 401.475,335.858 400.800,336.020 400.800 C 336.181 400.800,336.426 400.350,336.564 399.800 C 336.702 399.250,336.992 398.800,337.208 398.800 C 337.423 398.800,337.600 398.629,337.600 398.420 C 337.600 398.030,339.947 394.359,340.425 394.000 C 340.572 393.890,340.819 393.395,340.973 392.900 C 341.128 392.405,341.422 392.000,341.627 392.000 C 341.832 392.000,342.000 391.743,342.000 391.429 C 342.000 391.114,342.225 390.619,342.501 390.329 C 342.776 390.038,343.357 389.125,343.792 388.300 C 344.226 387.475,344.721 386.800,344.891 386.800 C 345.061 386.800,345.200 386.539,345.200 386.220 C 345.200 385.901,345.425 385.496,345.700 385.320 C 345.975 385.144,346.650 384.133,347.200 383.074 C 347.750 382.014,348.493 380.830,348.851 380.443 C 349.209 380.055,349.626 379.347,349.778 378.869 C 349.930 378.391,350.222 378.000,350.427 378.000 C 350.632 378.000,350.800 377.829,350.800 377.620 C 350.800 377.230,353.147 373.559,353.625 373.200 C 353.772 373.090,354.019 372.595,354.173 372.100 C 354.328 371.605,354.602 371.200,354.784 371.200 C 354.965 371.200,355.226 370.750,355.364 370.200 C 355.502 369.650,355.792 369.200,356.008 369.200 C 356.223 369.200,356.400 369.004,356.400 368.765 C 356.400 368.402,358.549 365.051,359.200 364.400 C 359.310 364.290,359.850 363.333,360.400 362.274 C 360.950 361.214,361.679 360.044,362.020 359.674 C 362.361 359.303,362.768 358.730,362.925 358.400 C 363.081 358.070,363.522 357.326,363.904 356.746 C 364.287 356.167,365.038 354.952,365.574 354.046 C 366.109 353.141,366.694 352.400,366.874 352.400 C 367.053 352.400,367.200 352.190,367.200 351.934 C 367.200 351.248,370.793 345.600,371.228 345.600 C 371.433 345.600,371.600 345.390,371.600 345.134 C 371.600 344.710,375.047 338.873,375.576 338.400 C 375.699 338.290,376.017 337.840,376.283 337.400 C 376.549 336.960,377.441 335.475,378.266 334.100 C 379.091 332.725,379.909 331.600,380.083 331.600 C 380.257 331.600,380.400 331.395,380.400 331.144 C 380.400 330.894,380.940 329.811,381.600 328.738 C 382.260 327.666,382.800 326.701,382.800 326.594 C 382.800 326.487,300.540 326.400,200.000 326.400 C 99.460 326.400,17.200 326.488,17.200 326.595 M170.800 568.771 C 170.800 568.976,171.070 569.413,171.400 569.743 C 171.730 570.073,172.000 570.536,172.000 570.771 C 172.000 571.007,172.177 571.200,172.392 571.200 C 172.608 571.200,172.898 571.650,173.036 572.200 C 173.174 572.750,173.447 573.200,173.643 573.200 C 173.840 573.200,174.000 573.363,174.000 573.563 C 174.000 573.910,177.148 578.934,177.928 579.831 C 178.134 580.068,178.426 580.653,178.578 581.131 C 178.730 581.609,179.022 582.000,179.227 582.000 C 179.432 582.000,179.600 582.153,179.600 582.341 C 179.600 582.665,182.767 587.726,183.536 588.631 C 183.737 588.868,184.026 589.453,184.178 589.931 C 184.330 590.409,184.622 590.800,184.827 590.800 C 185.032 590.800,185.200 591.070,185.200 591.400 C 185.200 591.730,185.337 592.000,185.505 592.000 C 185.673 592.000,185.988 592.361,186.205 592.803 C 186.830 594.075,190.903 600.579,191.212 600.800 C 191.366 600.910,191.619 601.405,191.773 601.900 C 191.928 602.395,192.222 602.800,192.427 602.800 C 192.632 602.800,192.800 602.953,192.800 603.141 C 192.800 603.432,195.747 608.188,196.685 609.411 C 196.858 609.637,197.343 610.492,197.763 611.311 C 198.183 612.130,198.657 612.800,198.816 612.800 C 198.976 612.800,199.201 613.160,199.316 613.600 C 199.431 614.040,199.710 614.400,199.935 614.400 C 200.285 614.400,204.919 607.427,206.800 604.071 C 207.130 603.482,207.498 602.910,207.619 602.800 C 207.739 602.690,208.995 600.710,210.409 598.400 C 211.824 596.090,213.660 593.225,214.490 592.034 C 215.321 590.842,216.000 589.710,216.000 589.517 C 216.000 589.324,216.191 588.949,216.423 588.683 C 217.189 587.809,220.400 582.733,220.400 582.396 C 220.400 582.215,220.543 582.007,220.719 581.933 C 220.981 581.824,223.568 577.826,225.724 574.200 C 225.986 573.760,226.304 573.310,226.430 573.200 C 226.557 573.090,227.007 572.373,227.430 571.607 C 227.854 570.841,228.425 569.973,228.700 569.679 C 228.975 569.384,229.200 568.976,229.200 568.771 C 229.200 568.546,217.703 568.400,200.000 568.400 C 182.297 568.400,170.800 568.546,170.800 568.771 " stroke="#000000" fill="none" stroke-width="3" class="QhlUsGiA_2"></path><path id="path3" d="M0.800 144.800 L 0.800 289.600 54.600 289.600 L 108.400 289.600 108.400 144.800 L 108.400 0.000 54.600 0.000 L 0.800 0.000 0.800 144.800 M146.400 144.800 L 146.400 289.600 272.800 289.600 L 399.200 289.600 399.200 144.800 L 399.200 0.000 272.800 0.000 L 146.400 0.000 146.400 144.800 M17.200 326.595 C 17.200 326.822,21.663 334.101,21.985 334.400 C 22.103 334.510,22.413 334.960,22.673 335.400 C 23.255 336.383,28.327 344.409,32.499 350.945 C 34.203 353.615,35.720 356.070,35.869 356.400 C 36.019 356.730,36.257 357.090,36.398 357.200 C 36.539 357.310,37.659 359.033,38.886 361.029 C 40.113 363.025,41.946 365.893,42.959 367.403 C 43.971 368.913,44.800 370.385,44.800 370.674 C 44.800 370.963,44.943 371.200,45.117 371.200 C 45.291 371.200,46.109 372.325,46.934 373.700 C 47.759 375.075,48.651 376.560,48.917 377.000 C 49.183 377.440,49.501 377.890,49.624 378.000 C 49.985 378.323,53.600 384.244,53.600 384.513 C 53.600 384.648,54.016 385.208,54.525 385.757 C 55.033 386.305,55.798 387.437,56.225 388.271 C 56.651 389.105,57.225 390.028,57.500 390.322 C 57.775 390.617,58.000 391.114,58.000 391.429 C 58.000 391.743,58.147 392.000,58.326 392.000 C 58.506 392.000,59.091 392.741,59.626 393.646 C 60.162 394.552,60.913 395.767,61.296 396.346 C 61.678 396.926,62.115 397.670,62.266 398.000 C 62.418 398.330,62.651 398.690,62.784 398.800 C 63.277 399.207,65.600 403.085,65.600 403.502 C 65.600 403.739,65.736 403.993,65.903 404.067 C 66.404 404.287,70.002 409.760,70.001 410.300 C 70.000 410.575,70.168 410.800,70.373 410.800 C 70.578 410.800,70.872 411.205,71.027 411.700 C 71.181 412.195,71.428 412.690,71.575 412.800 C 72.053 413.159,74.400 416.830,74.400 417.220 C 74.400 417.429,74.568 417.600,74.773 417.600 C 74.978 417.600,75.270 417.991,75.422 418.469 C 75.574 418.947,75.991 419.655,76.349 420.043 C 76.707 420.430,77.450 421.614,78.000 422.674 C 78.550 423.733,79.225 424.744,79.500 424.920 C 79.775 425.096,80.000 425.501,80.000 425.820 C 80.000 426.139,80.139 426.400,80.309 426.400 C 80.479 426.400,80.974 427.075,81.408 427.900 C 81.843 428.725,82.424 429.638,82.699 429.929 C 82.975 430.219,83.200 430.714,83.200 431.029 C 83.200 431.343,83.368 431.600,83.573 431.600 C 83.778 431.600,84.070 431.991,84.222 432.469 C 84.374 432.947,84.853 433.712,85.287 434.169 C 85.722 434.626,86.239 435.360,86.437 435.800 C 86.898 436.821,87.662 438.015,88.300 438.712 C 88.575 439.012,88.800 439.514,88.800 439.829 C 88.800 440.143,88.952 440.400,89.137 440.400 C 89.322 440.400,89.817 441.075,90.237 441.900 C 90.657 442.725,91.090 443.490,91.200 443.600 C 91.803 444.203,93.200 446.427,93.200 446.784 C 93.200 447.013,93.359 447.200,93.553 447.200 C 93.748 447.200,94.012 447.515,94.142 447.900 C 94.411 448.701,95.170 449.915,95.900 450.712 C 96.175 451.012,96.400 451.499,96.400 451.795 C 96.400 452.091,96.535 452.393,96.700 452.467 C 96.865 452.540,97.537 453.410,98.194 454.400 C 99.989 457.106,100.363 457.734,100.640 458.500 C 100.779 458.885,101.011 459.200,101.156 459.200 C 101.300 459.200,101.774 459.875,102.208 460.700 C 102.643 461.525,103.224 462.438,103.499 462.729 C 103.775 463.019,104.000 463.499,104.000 463.795 C 104.000 464.091,104.135 464.393,104.300 464.467 C 104.735 464.660,107.200 468.353,107.200 468.812 C 107.200 469.025,107.377 469.200,107.592 469.200 C 107.808 469.200,108.098 469.650,108.236 470.200 C 108.374 470.750,108.635 471.200,108.816 471.200 C 108.998 471.200,109.272 471.605,109.427 472.100 C 109.581 472.595,109.828 473.090,109.975 473.200 C 110.453 473.559,112.800 477.230,112.800 477.620 C 112.800 477.829,112.977 478.000,113.192 478.000 C 113.408 478.000,113.698 478.450,113.836 479.000 C 113.974 479.550,114.226 480.000,114.397 480.000 C 114.567 480.000,114.812 480.315,114.942 480.700 C 115.183 481.417,116.026 482.843,116.421 483.200 C 116.543 483.310,117.073 484.120,117.600 485.000 C 118.127 485.880,118.657 486.690,118.779 486.800 C 119.070 487.063,119.933 488.443,120.280 489.200 C 120.431 489.530,120.790 490.038,121.078 490.329 C 121.365 490.619,121.600 491.114,121.600 491.429 C 121.600 491.743,121.777 492.000,121.992 492.000 C 122.208 492.000,122.498 492.450,122.636 493.000 C 122.774 493.550,123.047 494.000,123.243 494.000 C 123.440 494.000,123.600 494.270,123.600 494.600 C 123.600 494.930,123.784 495.200,124.010 495.200 C 124.235 495.200,124.595 495.605,124.809 496.100 C 125.280 497.189,126.024 498.374,126.700 499.112 C 126.975 499.412,127.200 499.914,127.200 500.229 C 127.200 500.543,127.359 500.800,127.553 500.800 C 127.748 500.800,128.012 501.115,128.142 501.500 C 128.383 502.217,129.226 503.643,129.621 504.000 C 129.743 504.110,130.273 504.920,130.800 505.800 C 131.327 506.680,131.857 507.490,131.979 507.600 C 132.270 507.863,133.133 509.243,133.480 510.000 C 133.631 510.330,133.990 510.838,134.278 511.129 C 134.565 511.419,134.800 511.914,134.800 512.229 C 134.800 512.543,134.980 512.800,135.200 512.800 C 135.420 512.800,135.600 512.999,135.600 513.242 C 135.600 513.486,136.140 514.367,136.800 515.200 C 137.460 516.033,138.000 516.914,138.000 517.158 C 138.000 517.401,138.177 517.600,138.392 517.600 C 138.608 517.600,138.898 518.050,139.036 518.600 C 139.174 519.150,139.428 519.600,139.600 519.600 C 139.772 519.600,140.026 520.050,140.164 520.600 C 140.302 521.150,140.592 521.600,140.808 521.600 C 141.023 521.600,141.200 521.775,141.200 521.988 C 141.200 522.362,143.540 525.989,144.046 526.400 C 144.181 526.510,144.419 527.005,144.573 527.500 C 144.728 527.995,145.022 528.400,145.227 528.400 C 145.432 528.400,145.600 528.642,145.600 528.938 C 145.600 530.887,143.056 530.800,200.103 530.800 C 256.956 530.800,254.400 530.886,254.400 528.971 C 254.400 528.657,254.539 528.400,254.708 528.400 C 254.878 528.400,255.459 527.590,256.000 526.600 C 256.541 525.610,257.122 524.800,257.292 524.800 C 257.461 524.800,257.600 524.530,257.600 524.200 C 257.600 523.870,257.777 523.600,257.992 523.600 C 258.208 523.600,258.498 523.150,258.636 522.600 C 258.774 522.050,259.035 521.600,259.216 521.600 C 259.398 521.600,259.670 521.209,259.822 520.731 C 259.974 520.253,260.266 519.668,260.472 519.431 C 261.252 518.534,264.400 513.510,264.400 513.163 C 264.400 512.963,264.559 512.800,264.753 512.800 C 264.948 512.800,265.212 512.485,265.342 512.100 C 265.559 511.452,266.152 510.443,266.915 509.422 C 267.941 508.049,270.800 503.427,270.800 503.141 C 270.800 502.953,270.977 502.800,271.192 502.800 C 271.408 502.800,271.698 502.350,271.836 501.800 C 271.974 501.250,272.235 500.800,272.416 500.800 C 272.598 500.800,272.872 500.395,273.027 499.900 C 273.181 499.405,273.419 498.910,273.554 498.800 C 274.060 498.389,276.400 494.762,276.400 494.388 C 276.400 494.175,276.580 494.000,276.800 494.000 C 277.020 494.000,277.200 493.743,277.200 493.429 C 277.200 493.114,277.425 492.612,277.700 492.312 C 278.298 491.659,279.103 490.428,279.473 489.600 C 279.621 489.270,279.856 488.910,279.995 488.800 C 280.135 488.690,280.948 487.430,281.803 486.000 C 282.658 484.570,283.502 483.340,283.679 483.267 C 283.856 483.193,284.000 482.878,284.000 482.567 C 284.000 482.255,284.168 482.000,284.373 482.000 C 284.578 482.000,284.872 481.603,285.026 481.119 C 285.180 480.634,285.552 479.991,285.853 479.690 C 286.154 479.389,286.400 478.886,286.400 478.571 C 286.400 478.257,286.580 478.000,286.800 478.000 C 287.020 478.000,287.200 477.825,287.200 477.612 C 287.200 477.153,289.665 473.460,290.100 473.267 C 290.265 473.193,290.400 472.891,290.400 472.595 C 290.400 472.299,290.625 471.812,290.900 471.512 C 291.630 470.715,292.389 469.501,292.658 468.700 C 292.788 468.315,293.011 468.000,293.155 468.000 C 293.299 468.000,293.859 467.190,294.400 466.200 C 294.941 465.210,295.503 464.400,295.648 464.400 C 295.794 464.400,296.026 463.950,296.164 463.400 C 296.302 462.850,296.592 462.400,296.808 462.400 C 297.023 462.400,297.200 462.130,297.200 461.800 C 297.200 461.470,297.380 461.200,297.600 461.200 C 297.820 461.200,298.000 460.943,298.000 460.629 C 298.000 460.314,298.225 459.812,298.500 459.512 C 299.176 458.774,299.920 457.589,300.391 456.500 C 300.605 456.005,300.965 455.600,301.190 455.600 C 301.416 455.600,301.600 455.330,301.600 455.000 C 301.600 454.670,301.760 454.400,301.957 454.400 C 302.153 454.400,302.426 453.950,302.564 453.400 C 302.702 452.850,302.992 452.400,303.208 452.400 C 303.423 452.400,303.600 452.143,303.600 451.829 C 303.600 451.514,303.825 451.012,304.100 450.712 C 304.698 450.059,305.503 448.828,305.873 448.000 C 306.021 447.670,306.254 447.310,306.392 447.200 C 306.530 447.090,307.073 446.280,307.600 445.400 C 308.127 444.520,308.657 443.710,308.779 443.600 C 309.174 443.243,310.017 441.817,310.258 441.100 C 310.388 440.715,310.633 440.400,310.803 440.400 C 310.974 440.400,311.226 439.950,311.364 439.400 C 311.502 438.850,311.792 438.400,312.008 438.400 C 312.223 438.400,312.400 438.229,312.400 438.020 C 312.400 437.630,314.747 433.959,315.225 433.600 C 315.372 433.490,315.619 432.995,315.773 432.500 C 315.928 432.005,316.202 431.600,316.384 431.600 C 316.565 431.600,316.826 431.150,316.964 430.600 C 317.102 430.050,317.392 429.600,317.608 429.600 C 317.823 429.600,318.000 429.425,318.000 429.212 C 318.000 428.753,320.465 425.060,320.900 424.867 C 321.065 424.793,321.200 424.491,321.200 424.195 C 321.200 423.899,321.425 423.419,321.701 423.129 C 321.976 422.838,322.557 421.925,322.992 421.100 C 323.426 420.275,323.900 419.600,324.044 419.600 C 324.189 419.600,324.416 419.285,324.549 418.900 C 324.682 418.515,325.108 417.726,325.495 417.146 C 325.883 416.567,326.638 415.352,327.174 414.446 C 327.709 413.541,328.294 412.800,328.474 412.800 C 328.653 412.800,328.800 412.543,328.800 412.229 C 328.800 411.914,329.025 411.412,329.300 411.112 C 330.030 410.315,330.789 409.101,331.058 408.300 C 331.188 407.915,331.452 407.600,331.647 407.600 C 331.841 407.600,332.000 407.413,332.000 407.184 C 332.000 406.827,333.397 404.603,334.000 404.000 C 334.110 403.890,334.543 403.125,334.963 402.300 C 335.383 401.475,335.858 400.800,336.020 400.800 C 336.181 400.800,336.426 400.350,336.564 399.800 C 336.702 399.250,336.992 398.800,337.208 398.800 C 337.423 398.800,337.600 398.629,337.600 398.420 C 337.600 398.030,339.947 394.359,340.425 394.000 C 340.572 393.890,340.819 393.395,340.973 392.900 C 341.128 392.405,341.422 392.000,341.627 392.000 C 341.832 392.000,342.000 391.743,342.000 391.429 C 342.000 391.114,342.225 390.619,342.501 390.329 C 342.776 390.038,343.357 389.125,343.792 388.300 C 344.226 387.475,344.721 386.800,344.891 386.800 C 345.061 386.800,345.200 386.539,345.200 386.220 C 345.200 385.901,345.425 385.496,345.700 385.320 C 345.975 385.144,346.650 384.133,347.200 383.074 C 347.750 382.014,348.493 380.830,348.851 380.443 C 349.209 380.055,349.626 379.347,349.778 378.869 C 349.930 378.391,350.222 378.000,350.427 378.000 C 350.632 378.000,350.800 377.829,350.800 377.620 C 350.800 377.230,353.147 373.559,353.625 373.200 C 353.772 373.090,354.019 372.595,354.173 372.100 C 354.328 371.605,354.602 371.200,354.784 371.200 C 354.965 371.200,355.226 370.750,355.364 370.200 C 355.502 369.650,355.792 369.200,356.008 369.200 C 356.223 369.200,356.400 369.004,356.400 368.765 C 356.400 368.402,358.549 365.051,359.200 364.400 C 359.310 364.290,359.850 363.333,360.400 362.274 C 360.950 361.214,361.679 360.044,362.020 359.674 C 362.361 359.303,362.768 358.730,362.925 358.400 C 363.081 358.070,363.522 357.326,363.904 356.746 C 364.287 356.167,365.038 354.952,365.574 354.046 C 366.109 353.141,366.694 352.400,366.874 352.400 C 367.053 352.400,367.200 352.190,367.200 351.934 C 367.200 351.248,370.793 345.600,371.228 345.600 C 371.433 345.600,371.600 345.390,371.600 345.134 C 371.600 344.710,375.047 338.873,375.576 338.400 C 375.699 338.290,376.017 337.840,376.283 337.400 C 376.549 336.960,377.441 335.475,378.266 334.100 C 379.091 332.725,379.909 331.600,380.083 331.600 C 380.257 331.600,380.400 331.395,380.400 331.144 C 380.400 330.894,380.940 329.811,381.600 328.738 C 382.260 327.666,382.800 326.701,382.800 326.594 C 382.800 326.487,300.540 326.400,200.000 326.400 C 99.460 326.400,17.200 326.488,17.200 326.595 M170.800 568.771 C 170.800 568.976,171.070 569.413,171.400 569.743 C 171.730 570.073,172.000 570.536,172.000 570.771 C 172.000 571.007,172.177 571.200,172.392 571.200 C 172.608 571.200,172.898 571.650,173.036 572.200 C 173.174 572.750,173.447 573.200,173.643 573.200 C 173.840 573.200,174.000 573.363,174.000 573.563 C 174.000 573.910,177.148 578.934,177.928 579.831 C 178.134 580.068,178.426 580.653,178.578 581.131 C 178.730 581.609,179.022 582.000,179.227 582.000 C 179.432 582.000,179.600 582.153,179.600 582.341 C 179.600 582.665,182.767 587.726,183.536 588.631 C 183.737 588.868,184.026 589.453,184.178 589.931 C 184.330 590.409,184.622 590.800,184.827 590.800 C 185.032 590.800,185.200 591.070,185.200 591.400 C 185.200 591.730,185.337 592.000,185.505 592.000 C 185.673 592.000,185.988 592.361,186.205 592.803 C 186.830 594.075,190.903 600.579,191.212 600.800 C 191.366 600.910,191.619 601.405,191.773 601.900 C 191.928 602.395,192.222 602.800,192.427 602.800 C 192.632 602.800,192.800 602.953,192.800 603.141 C 192.800 603.432,195.747 608.188,196.685 609.411 C 196.858 609.637,197.343 610.492,197.763 611.311 C 198.183 612.130,198.657 612.800,198.816 612.800 C 198.976 612.800,199.201 613.160,199.316 613.600 C 199.431 614.040,199.710 614.400,199.935 614.400 C 200.285 614.400,204.919 607.427,206.800 604.071 C 207.130 603.482,207.498 602.910,207.619 602.800 C 207.739 602.690,208.995 600.710,210.409 598.400 C 211.824 596.090,213.660 593.225,214.490 592.034 C 215.321 590.842,216.000 589.710,216.000 589.517 C 216.000 589.324,216.191 588.949,216.423 588.683 C 217.189 587.809,220.400 582.733,220.400 582.396 C 220.400 582.215,220.543 582.007,220.719 581.933 C 220.981 581.824,223.568 577.826,225.724 574.200 C 225.986 573.760,226.304 573.310,226.430 573.200 C 226.557 573.090,227.007 572.373,227.430 571.607 C 227.854 570.841,228.425 569.973,228.700 569.679 C 228.975 569.384,229.200 568.976,229.200 568.771 C 229.200 568.546,217.703 568.400,200.000 568.400 C 182.297 568.400,170.800 568.546,170.800 568.771 " stroke="#000000" fill="none" stroke-width="3" class="QhlUsGiA_3"></path><path id="path4" d="M0.800 144.800 L 0.800 289.600 54.600 289.600 L 108.400 289.600 108.400 144.800 L 108.400 0.000 54.600 0.000 L 0.800 0.000 0.800 144.800 M146.400 144.800 L 146.400 289.600 272.800 289.600 L 399.200 289.600 399.200 144.800 L 399.200 0.000 272.800 0.000 L 146.400 0.000 146.400 144.800 M17.200 326.595 C 17.200 326.822,21.663 334.101,21.985 334.400 C 22.103 334.510,22.413 334.960,22.673 335.400 C 23.255 336.383,28.327 344.409,32.499 350.945 C 34.203 353.615,35.720 356.070,35.869 356.400 C 36.019 356.730,36.257 357.090,36.398 357.200 C 36.539 357.310,37.659 359.033,38.886 361.029 C 40.113 363.025,41.946 365.893,42.959 367.403 C 43.971 368.913,44.800 370.385,44.800 370.674 C 44.800 370.963,44.943 371.200,45.117 371.200 C 45.291 371.200,46.109 372.325,46.934 373.700 C 47.759 375.075,48.651 376.560,48.917 377.000 C 49.183 377.440,49.501 377.890,49.624 378.000 C 49.985 378.323,53.600 384.244,53.600 384.513 C 53.600 384.648,54.016 385.208,54.525 385.757 C 55.033 386.305,55.798 387.437,56.225 388.271 C 56.651 389.105,57.225 390.028,57.500 390.322 C 57.775 390.617,58.000 391.114,58.000 391.429 C 58.000 391.743,58.147 392.000,58.326 392.000 C 58.506 392.000,59.091 392.741,59.626 393.646 C 60.162 394.552,60.913 395.767,61.296 396.346 C 61.678 396.926,62.115 397.670,62.266 398.000 C 62.418 398.330,62.651 398.690,62.784 398.800 C 63.277 399.207,65.600 403.085,65.600 403.502 C 65.600 403.739,65.736 403.993,65.903 404.067 C 66.404 404.287,70.002 409.760,70.001 410.300 C 70.000 410.575,70.168 410.800,70.373 410.800 C 70.578 410.800,70.872 411.205,71.027 411.700 C 71.181 412.195,71.428 412.690,71.575 412.800 C 72.053 413.159,74.400 416.830,74.400 417.220 C 74.400 417.429,74.568 417.600,74.773 417.600 C 74.978 417.600,75.270 417.991,75.422 418.469 C 75.574 418.947,75.991 419.655,76.349 420.043 C 76.707 420.430,77.450 421.614,78.000 422.674 C 78.550 423.733,79.225 424.744,79.500 424.920 C 79.775 425.096,80.000 425.501,80.000 425.820 C 80.000 426.139,80.139 426.400,80.309 426.400 C 80.479 426.400,80.974 427.075,81.408 427.900 C 81.843 428.725,82.424 429.638,82.699 429.929 C 82.975 430.219,83.200 430.714,83.200 431.029 C 83.200 431.343,83.368 431.600,83.573 431.600 C 83.778 431.600,84.070 431.991,84.222 432.469 C 84.374 432.947,84.853 433.712,85.287 434.169 C 85.722 434.626,86.239 435.360,86.437 435.800 C 86.898 436.821,87.662 438.015,88.300 438.712 C 88.575 439.012,88.800 439.514,88.800 439.829 C 88.800 440.143,88.952 440.400,89.137 440.400 C 89.322 440.400,89.817 441.075,90.237 441.900 C 90.657 442.725,91.090 443.490,91.200 443.600 C 91.803 444.203,93.200 446.427,93.200 446.784 C 93.200 447.013,93.359 447.200,93.553 447.200 C 93.748 447.200,94.012 447.515,94.142 447.900 C 94.411 448.701,95.170 449.915,95.900 450.712 C 96.175 451.012,96.400 451.499,96.400 451.795 C 96.400 452.091,96.535 452.393,96.700 452.467 C 96.865 452.540,97.537 453.410,98.194 454.400 C 99.989 457.106,100.363 457.734,100.640 458.500 C 100.779 458.885,101.011 459.200,101.156 459.200 C 101.300 459.200,101.774 459.875,102.208 460.700 C 102.643 461.525,103.224 462.438,103.499 462.729 C 103.775 463.019,104.000 463.499,104.000 463.795 C 104.000 464.091,104.135 464.393,104.300 464.467 C 104.735 464.660,107.200 468.353,107.200 468.812 C 107.200 469.025,107.377 469.200,107.592 469.200 C 107.808 469.200,108.098 469.650,108.236 470.200 C 108.374 470.750,108.635 471.200,108.816 471.200 C 108.998 471.200,109.272 471.605,109.427 472.100 C 109.581 472.595,109.828 473.090,109.975 473.200 C 110.453 473.559,112.800 477.230,112.800 477.620 C 112.800 477.829,112.977 478.000,113.192 478.000 C 113.408 478.000,113.698 478.450,113.836 479.000 C 113.974 479.550,114.226 480.000,114.397 480.000 C 114.567 480.000,114.812 480.315,114.942 480.700 C 115.183 481.417,116.026 482.843,116.421 483.200 C 116.543 483.310,117.073 484.120,117.600 485.000 C 118.127 485.880,118.657 486.690,118.779 486.800 C 119.070 487.063,119.933 488.443,120.280 489.200 C 120.431 489.530,120.790 490.038,121.078 490.329 C 121.365 490.619,121.600 491.114,121.600 491.429 C 121.600 491.743,121.777 492.000,121.992 492.000 C 122.208 492.000,122.498 492.450,122.636 493.000 C 122.774 493.550,123.047 494.000,123.243 494.000 C 123.440 494.000,123.600 494.270,123.600 494.600 C 123.600 494.930,123.784 495.200,124.010 495.200 C 124.235 495.200,124.595 495.605,124.809 496.100 C 125.280 497.189,126.024 498.374,126.700 499.112 C 126.975 499.412,127.200 499.914,127.200 500.229 C 127.200 500.543,127.359 500.800,127.553 500.800 C 127.748 500.800,128.012 501.115,128.142 501.500 C 128.383 502.217,129.226 503.643,129.621 504.000 C 129.743 504.110,130.273 504.920,130.800 505.800 C 131.327 506.680,131.857 507.490,131.979 507.600 C 132.270 507.863,133.133 509.243,133.480 510.000 C 133.631 510.330,133.990 510.838,134.278 511.129 C 134.565 511.419,134.800 511.914,134.800 512.229 C 134.800 512.543,134.980 512.800,135.200 512.800 C 135.420 512.800,135.600 512.999,135.600 513.242 C 135.600 513.486,136.140 514.367,136.800 515.200 C 137.460 516.033,138.000 516.914,138.000 517.158 C 138.000 517.401,138.177 517.600,138.392 517.600 C 138.608 517.600,138.898 518.050,139.036 518.600 C 139.174 519.150,139.428 519.600,139.600 519.600 C 139.772 519.600,140.026 520.050,140.164 520.600 C 140.302 521.150,140.592 521.600,140.808 521.600 C 141.023 521.600,141.200 521.775,141.200 521.988 C 141.200 522.362,143.540 525.989,144.046 526.400 C 144.181 526.510,144.419 527.005,144.573 527.500 C 144.728 527.995,145.022 528.400,145.227 528.400 C 145.432 528.400,145.600 528.642,145.600 528.938 C 145.600 530.887,143.056 530.800,200.103 530.800 C 256.956 530.800,254.400 530.886,254.400 528.971 C 254.400 528.657,254.539 528.400,254.708 528.400 C 254.878 528.400,255.459 527.590,256.000 526.600 C 256.541 525.610,257.122 524.800,257.292 524.800 C 257.461 524.800,257.600 524.530,257.600 524.200 C 257.600 523.870,257.777 523.600,257.992 523.600 C 258.208 523.600,258.498 523.150,258.636 522.600 C 258.774 522.050,259.035 521.600,259.216 521.600 C 259.398 521.600,259.670 521.209,259.822 520.731 C 259.974 520.253,260.266 519.668,260.472 519.431 C 261.252 518.534,264.400 513.510,264.400 513.163 C 264.400 512.963,264.559 512.800,264.753 512.800 C 264.948 512.800,265.212 512.485,265.342 512.100 C 265.559 511.452,266.152 510.443,266.915 509.422 C 267.941 508.049,270.800 503.427,270.800 503.141 C 270.800 502.953,270.977 502.800,271.192 502.800 C 271.408 502.800,271.698 502.350,271.836 501.800 C 271.974 501.250,272.235 500.800,272.416 500.800 C 272.598 500.800,272.872 500.395,273.027 499.900 C 273.181 499.405,273.419 498.910,273.554 498.800 C 274.060 498.389,276.400 494.762,276.400 494.388 C 276.400 494.175,276.580 494.000,276.800 494.000 C 277.020 494.000,277.200 493.743,277.200 493.429 C 277.200 493.114,277.425 492.612,277.700 492.312 C 278.298 491.659,279.103 490.428,279.473 489.600 C 279.621 489.270,279.856 488.910,279.995 488.800 C 280.135 488.690,280.948 487.430,281.803 486.000 C 282.658 484.570,283.502 483.340,283.679 483.267 C 283.856 483.193,284.000 482.878,284.000 482.567 C 284.000 482.255,284.168 482.000,284.373 482.000 C 284.578 482.000,284.872 481.603,285.026 481.119 C 285.180 480.634,285.552 479.991,285.853 479.690 C 286.154 479.389,286.400 478.886,286.400 478.571 C 286.400 478.257,286.580 478.000,286.800 478.000 C 287.020 478.000,287.200 477.825,287.200 477.612 C 287.200 477.153,289.665 473.460,290.100 473.267 C 290.265 473.193,290.400 472.891,290.400 472.595 C 290.400 472.299,290.625 471.812,290.900 471.512 C 291.630 470.715,292.389 469.501,292.658 468.700 C 292.788 468.315,293.011 468.000,293.155 468.000 C 293.299 468.000,293.859 467.190,294.400 466.200 C 294.941 465.210,295.503 464.400,295.648 464.400 C 295.794 464.400,296.026 463.950,296.164 463.400 C 296.302 462.850,296.592 462.400,296.808 462.400 C 297.023 462.400,297.200 462.130,297.200 461.800 C 297.200 461.470,297.380 461.200,297.600 461.200 C 297.820 461.200,298.000 460.943,298.000 460.629 C 298.000 460.314,298.225 459.812,298.500 459.512 C 299.176 458.774,299.920 457.589,300.391 456.500 C 300.605 456.005,300.965 455.600,301.190 455.600 C 301.416 455.600,301.600 455.330,301.600 455.000 C 301.600 454.670,301.760 454.400,301.957 454.400 C 302.153 454.400,302.426 453.950,302.564 453.400 C 302.702 452.850,302.992 452.400,303.208 452.400 C 303.423 452.400,303.600 452.143,303.600 451.829 C 303.600 451.514,303.825 451.012,304.100 450.712 C 304.698 450.059,305.503 448.828,305.873 448.000 C 306.021 447.670,306.254 447.310,306.392 447.200 C 306.530 447.090,307.073 446.280,307.600 445.400 C 308.127 444.520,308.657 443.710,308.779 443.600 C 309.174 443.243,310.017 441.817,310.258 441.100 C 310.388 440.715,310.633 440.400,310.803 440.400 C 310.974 440.400,311.226 439.950,311.364 439.400 C 311.502 438.850,311.792 438.400,312.008 438.400 C 312.223 438.400,312.400 438.229,312.400 438.020 C 312.400 437.630,314.747 433.959,315.225 433.600 C 315.372 433.490,315.619 432.995,315.773 432.500 C 315.928 432.005,316.202 431.600,316.384 431.600 C 316.565 431.600,316.826 431.150,316.964 430.600 C 317.102 430.050,317.392 429.600,317.608 429.600 C 317.823 429.600,318.000 429.425,318.000 429.212 C 318.000 428.753,320.465 425.060,320.900 424.867 C 321.065 424.793,321.200 424.491,321.200 424.195 C 321.200 423.899,321.425 423.419,321.701 423.129 C 321.976 422.838,322.557 421.925,322.992 421.100 C 323.426 420.275,323.900 419.600,324.044 419.600 C 324.189 419.600,324.416 419.285,324.549 418.900 C 324.682 418.515,325.108 417.726,325.495 417.146 C 325.883 416.567,326.638 415.352,327.174 414.446 C 327.709 413.541,328.294 412.800,328.474 412.800 C 328.653 412.800,328.800 412.543,328.800 412.229 C 328.800 411.914,329.025 411.412,329.300 411.112 C 330.030 410.315,330.789 409.101,331.058 408.300 C 331.188 407.915,331.452 407.600,331.647 407.600 C 331.841 407.600,332.000 407.413,332.000 407.184 C 332.000 406.827,333.397 404.603,334.000 404.000 C 334.110 403.890,334.543 403.125,334.963 402.300 C 335.383 401.475,335.858 400.800,336.020 400.800 C 336.181 400.800,336.426 400.350,336.564 399.800 C 336.702 399.250,336.992 398.800,337.208 398.800 C 337.423 398.800,337.600 398.629,337.600 398.420 C 337.600 398.030,339.947 394.359,340.425 394.000 C 340.572 393.890,340.819 393.395,340.973 392.900 C 341.128 392.405,341.422 392.000,341.627 392.000 C 341.832 392.000,342.000 391.743,342.000 391.429 C 342.000 391.114,342.225 390.619,342.501 390.329 C 342.776 390.038,343.357 389.125,343.792 388.300 C 344.226 387.475,344.721 386.800,344.891 386.800 C 345.061 386.800,345.200 386.539,345.200 386.220 C 345.200 385.901,345.425 385.496,345.700 385.320 C 345.975 385.144,346.650 384.133,347.200 383.074 C 347.750 382.014,348.493 380.830,348.851 380.443 C 349.209 380.055,349.626 379.347,349.778 378.869 C 349.930 378.391,350.222 378.000,350.427 378.000 C 350.632 378.000,350.800 377.829,350.800 377.620 C 350.800 377.230,353.147 373.559,353.625 373.200 C 353.772 373.090,354.019 372.595,354.173 372.100 C 354.328 371.605,354.602 371.200,354.784 371.200 C 354.965 371.200,355.226 370.750,355.364 370.200 C 355.502 369.650,355.792 369.200,356.008 369.200 C 356.223 369.200,356.400 369.004,356.400 368.765 C 356.400 368.402,358.549 365.051,359.200 364.400 C 359.310 364.290,359.850 363.333,360.400 362.274 C 360.950 361.214,361.679 360.044,362.020 359.674 C 362.361 359.303,362.768 358.730,362.925 358.400 C 363.081 358.070,363.522 357.326,363.904 356.746 C 364.287 356.167,365.038 354.952,365.574 354.046 C 366.109 353.141,366.694 352.400,366.874 352.400 C 367.053 352.400,367.200 352.190,367.200 351.934 C 367.200 351.248,370.793 345.600,371.228 345.600 C 371.433 345.600,371.600 345.390,371.600 345.134 C 371.600 344.710,375.047 338.873,375.576 338.400 C 375.699 338.290,376.017 337.840,376.283 337.400 C 376.549 336.960,377.441 335.475,378.266 334.100 C 379.091 332.725,379.909 331.600,380.083 331.600 C 380.257 331.600,380.400 331.395,380.400 331.144 C 380.400 330.894,380.940 329.811,381.600 328.738 C 382.260 327.666,382.800 326.701,382.800 326.594 C 382.800 326.487,300.540 326.400,200.000 326.400 C 99.460 326.400,17.200 326.488,17.200 326.595 M170.800 568.771 C 170.800 568.976,171.070 569.413,171.400 569.743 C 171.730 570.073,172.000 570.536,172.000 570.771 C 172.000 571.007,172.177 571.200,172.392 571.200 C 172.608 571.200,172.898 571.650,173.036 572.200 C 173.174 572.750,173.447 573.200,173.643 573.200 C 173.840 573.200,174.000 573.363,174.000 573.563 C 174.000 573.910,177.148 578.934,177.928 579.831 C 178.134 580.068,178.426 580.653,178.578 581.131 C 178.730 581.609,179.022 582.000,179.227 582.000 C 179.432 582.000,179.600 582.153,179.600 582.341 C 179.600 582.665,182.767 587.726,183.536 588.631 C 183.737 588.868,184.026 589.453,184.178 589.931 C 184.330 590.409,184.622 590.800,184.827 590.800 C 185.032 590.800,185.200 591.070,185.200 591.400 C 185.200 591.730,185.337 592.000,185.505 592.000 C 185.673 592.000,185.988 592.361,186.205 592.803 C 186.830 594.075,190.903 600.579,191.212 600.800 C 191.366 600.910,191.619 601.405,191.773 601.900 C 191.928 602.395,192.222 602.800,192.427 602.800 C 192.632 602.800,192.800 602.953,192.800 603.141 C 192.800 603.432,195.747 608.188,196.685 609.411 C 196.858 609.637,197.343 610.492,197.763 611.311 C 198.183 612.130,198.657 612.800,198.816 612.800 C 198.976 612.800,199.201 613.160,199.316 613.600 C 199.431 614.040,199.710 614.400,199.935 614.400 C 200.285 614.400,204.919 607.427,206.800 604.071 C 207.130 603.482,207.498 602.910,207.619 602.800 C 207.739 602.690,208.995 600.710,210.409 598.400 C 211.824 596.090,213.660 593.225,214.490 592.034 C 215.321 590.842,216.000 589.710,216.000 589.517 C 216.000 589.324,216.191 588.949,216.423 588.683 C 217.189 587.809,220.400 582.733,220.400 582.396 C 220.400 582.215,220.543 582.007,220.719 581.933 C 220.981 581.824,223.568 577.826,225.724 574.200 C 225.986 573.760,226.304 573.310,226.430 573.200 C 226.557 573.090,227.007 572.373,227.430 571.607 C 227.854 570.841,228.425 569.973,228.700 569.679 C 228.975 569.384,229.200 568.976,229.200 568.771 C 229.200 568.546,217.703 568.400,200.000 568.400 C 182.297 568.400,170.800 568.546,170.800 568.771 " stroke="#000000" fill="none" stroke-width="3" class="QhlUsGiA_4"></path></g><style data-made-with="vivus-instant">.QhlUsGiA_0{stroke-dasharray:3011 3013;stroke-dashoffset:3012;animation:QhlUsGiA_draw_0 7200ms linear 0ms infinite,QhlUsGiA_fade 7200ms linear 0ms infinite;}.QhlUsGiA_1{stroke-dasharray:5351 5353;stroke-dashoffset:5352;animation:QhlUsGiA_draw_1 7200ms linear 0ms infinite,QhlUsGiA_fade 7200ms linear 0ms infinite;}.QhlUsGiA_2{stroke-dasharray:3011 3013;stroke-dashoffset:3012;animation:QhlUsGiA_draw_2 7200ms linear 0ms infinite,QhlUsGiA_fade 7200ms linear 0ms infinite;}.QhlUsGiA_3{stroke-dasharray:3011 3013;stroke-dashoffset:3012;animation:QhlUsGiA_draw_3 7200ms linear 0ms infinite,QhlUsGiA_fade 7200ms linear 0ms infinite;}.QhlUsGiA_4{stroke-dasharray:3011 3013;stroke-dashoffset:3012;animation:QhlUsGiA_draw_4 7200ms linear 0ms infinite,QhlUsGiA_fade 7200ms linear 0ms infinite;}@keyframes QhlUsGiA_draw{100%{stroke-dashoffset:0;}}@keyframes QhlUsGiA_fade{0%{stroke-opacity:1;}94.44444444444444%{stroke-opacity:1;}100%{stroke-opacity:0;}}@keyframes QhlUsGiA_draw_0{11.11111111111111%{stroke-dashoffset: 3012}52.77777777777778%{ stroke-dashoffset: 0;}100%{ stroke-dashoffset: 0;}}@keyframes QhlUsGiA_draw_1{11.11111111111111%{stroke-dashoffset: 5352}52.77777777777778%{ stroke-dashoffset: 0;}100%{ stroke-dashoffset: 0;}}@keyframes QhlUsGiA_draw_2{11.11111111111111%{stroke-dashoffset: 3012}52.77777777777778%{ stroke-dashoffset: 0;}100%{ stroke-dashoffset: 0;}}@keyframes QhlUsGiA_draw_3{11.11111111111111%{stroke-dashoffset: 3012}52.77777777777778%{ stroke-dashoffset: 0;}100%{ stroke-dashoffset: 0;}}@keyframes QhlUsGiA_draw_4{11.11111111111111%{stroke-dashoffset: 3012}52.77777777777778%{ stroke-dashoffset: 0;}100%{ stroke-dashoffset: 0;}}</style></svg>