<svg id="svg" version="1.1" width="420" height="450" xmlns="http://www.w3.org/2000/svg" xmlns:xlink="http://www.w3.org/1999/xlink" style=""><g id="svgg"><path id="path0" d="M149.275 5.901 C 134.046 9.203,120.585 20.090,113.555 34.788 C 108.881 44.559,108.622 47.264,108.607 86.483 L 108.594 121.793 77.148 122.029 L 45.703 122.266 39.973 124.359 C 24.240 130.106,12.424 141.985,7.252 157.254 L 5.078 163.672 4.857 249.609 C 4.658 327.244,4.761 336.113,5.930 341.406 C 9.348 356.884,19.358 369.803,33.203 376.608 C 44.152 381.989,44.934 382.074,81.524 381.845 L 114.114 381.641 107.281 376.594 C 103.522 373.818,96.729 367.955,92.185 363.565 L 83.924 355.583 67.157 355.331 C 44.952 354.996,39.607 352.537,33.699 339.938 L 31.641 335.547 31.641 251.953 L 31.641 168.359 33.673 164.027 C 36.472 158.059,39.713 154.618,45.480 151.491 L 50.391 148.828 67.176 148.575 L 83.961 148.322 91.785 140.739 C 103.142 129.733,115.472 120.786,129.089 113.672 L 135.070 110.547 135.329 81.250 C 135.644 45.596,136.321 43.058,147.497 35.651 C 154.088 31.282,155.630 31.163,202.426 31.413 L 244.922 31.641 249.367 33.824 C 262.943 40.490,264.332 44.799,264.663 81.263 L 264.928 110.574 270.059 113.234 C 283.925 120.423,296.569 129.529,308.079 140.615 L 316.082 148.323 332.846 148.576 L 349.609 148.828 354.520 151.491 C 360.287 154.618,363.528 158.059,366.327 164.027 L 368.359 168.359 368.359 251.953 L 368.359 335.547 366.301 339.938 C 360.393 352.537,355.048 354.996,332.843 355.331 L 316.076 355.583 307.815 363.565 C 303.271 367.955,296.478 373.818,292.719 376.594 L 285.886 381.641 318.476 381.845 C 355.066 382.074,355.848 381.989,366.797 376.608 C 380.642 369.803,390.652 356.884,394.070 341.406 C 395.239 336.113,395.342 327.244,395.143 249.609 L 394.922 163.672 392.748 157.254 C 387.582 142.003,374.705 129.173,359.387 124.017 C 354.542 122.387,352.784 122.292,322.852 122.049 L 291.406 121.793 291.393 86.483 C 291.378 47.264,291.119 44.559,286.445 34.788 C 279.331 19.914,265.918 9.162,250.368 5.868 C 242.626 4.228,156.860 4.256,149.275 5.901 M166.584 41.391 C 135.451 46.156,134.556 91.789,165.468 98.341 C 171.706 99.663,229.519 99.510,235.271 98.156 C 262.398 91.771,265.320 53.174,239.453 42.928 C 234.471 40.955,177.310 39.749,166.584 41.391 M187.109 109.053 C 185.820 109.236,181.953 109.765,178.516 110.229 C 84.526 122.919,29.228 227.539,70.777 314.063 C 118.737 413.935,257.420 423.750,319.149 331.641 C 376.940 245.409,326.719 128.902,223.828 110.509 C 217.123 109.311,192.253 108.324,187.109 109.053 M210.746 135.945 C 318.579 147.305,354.845 284.021,266.797 347.245 C 197.389 397.084,97.550 354.244,84.776 269.141 C 73.671 195.161,137.021 128.178,210.746 135.945 M188.358 158.686 C 110.827 167.676,78.454 264.170,134.448 319.372 C 179.515 363.801,256.718 350.434,284.399 293.411 C 316.989 226.273,262.667 150.069,188.358 158.686 M212.141 201.961 C 252.188 212.107,264.864 262.457,234.328 290.091 C 204.973 316.655,158.005 301.199,149.566 262.198 C 141.802 226.312,176.482 192.927,212.141 201.961 " stroke="#000000" fill="none" stroke-width="3" class="rQRAUyUO_0"></path></g><style data-made-with="vivus-instant">.rQRAUyUO_0{stroke-dasharray:5126 5128;stroke-dashoffset:5127;animation:rQRAUyUO_draw_0 7200ms linear 0ms infinite,rQRAUyUO_fade 7200ms linear 0ms infinite;}@keyframes rQRAUyUO_draw{100%{stroke-dashoffset:0;}}@keyframes rQRAUyUO_fade{0%{stroke-opacity:1;}94.44444444444444%{stroke-opacity:1;}100%{stroke-opacity:0;}}@keyframes rQRAUyUO_draw_0{11.11111111111111%{stroke-dashoffset: 5127}52.77777777777778%{ stroke-dashoffset: 0;}100%{ stroke-dashoffset: 0;}}</style></svg>