<svg id="svg" version="1.1" width="400" height="400" viewBox="0 0 400 400" xmlns="http://www.w3.org/2000/svg" xmlns:xlink="http://www.w3.org/1999/xlink" style=""><g id="svgg"><path id="path0" d="M379.600 0.367 C 377.464 0.832,376.400 1.257,376.400 1.647 C 376.400 1.841,376.040 2.000,375.600 2.000 C 375.160 2.000,374.800 2.180,374.800 2.400 C 374.800 2.620,374.440 2.800,374.000 2.800 C 373.560 2.800,373.200 2.980,373.200 3.200 C 373.200 3.420,372.964 3.600,372.675 3.600 C 372.387 3.600,371.764 3.960,371.292 4.400 C 370.820 4.840,370.156 5.200,369.817 5.200 C 369.478 5.200,369.200 5.380,369.200 5.600 C 369.200 5.820,368.840 6.000,368.400 6.000 C 367.960 6.000,367.600 6.180,367.600 6.400 C 367.600 6.620,367.240 6.800,366.800 6.800 C 366.360 6.800,366.000 6.980,366.000 7.200 C 366.000 7.420,365.640 7.600,365.200 7.600 C 364.760 7.600,364.400 7.780,364.400 8.000 C 364.400 8.220,364.203 8.400,363.962 8.400 C 363.721 8.400,363.035 8.748,362.437 9.173 C 361.840 9.599,360.867 10.068,360.276 10.217 C 359.684 10.365,359.200 10.647,359.200 10.843 C 359.200 11.040,358.855 11.200,358.433 11.200 C 358.012 11.200,357.607 11.335,357.533 11.500 C 357.460 11.665,356.185 12.428,354.700 13.196 C 353.215 13.963,352.000 14.728,352.000 14.896 C 352.000 15.063,351.640 15.200,351.200 15.200 C 350.760 15.200,350.400 15.380,350.400 15.600 C 350.400 15.820,350.040 16.000,349.600 16.000 C 349.160 16.000,348.800 16.180,348.800 16.400 C 348.800 16.620,348.440 16.800,348.000 16.800 C 347.560 16.800,347.200 16.980,347.200 17.200 C 347.200 17.420,346.930 17.600,346.600 17.600 C 346.270 17.600,346.000 17.780,346.000 18.000 C 346.000 18.220,345.640 18.400,345.200 18.400 C 344.760 18.400,344.400 18.558,344.400 18.751 C 344.400 18.945,343.860 19.327,343.200 19.600 C 342.540 19.873,342.000 20.255,342.000 20.449 C 342.000 20.642,341.640 20.800,341.200 20.800 C 340.760 20.800,340.400 20.980,340.400 21.200 C 340.400 21.420,340.040 21.600,339.600 21.600 C 339.160 21.600,338.800 21.780,338.800 22.000 C 338.800 22.220,338.440 22.400,338.000 22.400 C 337.560 22.400,337.200 22.580,337.200 22.800 C 337.200 23.020,336.840 23.200,336.400 23.200 C 335.960 23.200,335.600 23.380,335.600 23.600 C 335.600 23.820,335.364 24.000,335.075 24.000 C 334.787 24.000,334.164 24.360,333.692 24.800 C 333.220 25.240,332.556 25.600,332.217 25.600 C 331.878 25.600,331.600 25.780,331.600 26.000 C 331.600 26.220,331.240 26.400,330.800 26.400 C 330.360 26.400,330.000 26.580,330.000 26.800 C 330.000 27.020,329.715 27.200,329.367 27.200 C 329.019 27.200,327.660 27.830,326.346 28.600 C 325.032 29.370,323.787 30.000,323.579 30.000 C 323.370 30.000,323.200 30.180,323.200 30.400 C 323.200 30.620,322.840 30.800,322.400 30.800 C 321.960 30.800,321.600 30.980,321.600 31.200 C 321.600 31.420,321.240 31.600,320.800 31.600 C 320.360 31.600,320.000 31.780,320.000 32.000 C 320.000 32.220,319.640 32.400,319.200 32.400 C 318.760 32.400,318.400 32.546,318.400 32.725 C 318.400 32.904,317.770 33.298,317.000 33.600 C 316.230 33.902,315.600 34.296,315.600 34.475 C 315.600 34.654,315.330 34.800,315.000 34.800 C 314.670 34.800,314.400 34.980,314.400 35.200 C 314.400 35.420,314.040 35.600,313.600 35.600 C 313.160 35.600,312.800 35.746,312.800 35.925 C 312.800 36.104,312.170 36.498,311.400 36.800 C 310.630 37.102,310.000 37.496,310.000 37.675 C 310.000 37.854,309.640 38.000,309.200 38.000 C 308.760 38.000,308.400 38.180,308.400 38.400 C 308.400 38.620,308.040 38.800,307.600 38.800 C 307.160 38.800,306.800 38.980,306.800 39.200 C 306.800 39.420,306.564 39.600,306.275 39.600 C 305.987 39.600,305.364 39.960,304.892 40.400 C 304.420 40.840,303.756 41.200,303.417 41.200 C 303.078 41.200,302.800 41.380,302.800 41.600 C 302.800 41.820,302.440 42.000,302.000 42.000 C 301.560 42.000,301.200 42.180,301.200 42.400 C 301.200 42.620,300.840 42.800,300.400 42.800 C 299.960 42.800,299.600 42.980,299.600 43.200 C 299.600 43.420,299.282 43.600,298.893 43.600 C 298.504 43.600,297.559 44.020,296.793 44.533 C 296.027 45.046,294.815 45.720,294.100 46.031 C 293.385 46.341,292.800 46.731,292.800 46.898 C 292.800 47.064,292.440 47.200,292.000 47.200 C 291.560 47.200,291.200 47.380,291.200 47.600 C 291.200 47.820,290.855 48.000,290.433 48.000 C 290.012 48.000,289.607 48.135,289.533 48.300 C 289.366 48.676,287.236 49.975,286.300 50.271 C 285.915 50.393,285.600 50.652,285.600 50.847 C 285.600 51.041,285.240 51.200,284.800 51.200 C 284.360 51.200,284.000 51.380,284.000 51.600 C 284.000 51.820,283.640 52.000,283.200 52.000 C 282.760 52.000,282.400 52.180,282.400 52.400 C 282.400 52.620,282.040 52.800,281.600 52.800 C 281.160 52.800,280.800 52.936,280.800 53.102 C 280.800 53.269,280.215 53.660,279.500 53.972 C 278.785 54.284,277.909 54.868,277.553 55.270 C 277.197 55.671,276.612 56.000,276.253 56.000 C 275.894 56.000,275.600 56.180,275.600 56.400 C 275.600 56.620,275.240 56.800,274.800 56.800 C 274.360 56.800,274.000 56.980,274.000 57.200 C 274.000 57.420,273.640 57.600,273.200 57.600 C 272.760 57.600,272.400 57.780,272.400 58.000 C 272.400 58.220,272.040 58.400,271.600 58.400 C 271.160 58.400,270.800 58.580,270.800 58.800 C 270.800 59.020,270.440 59.200,270.000 59.200 C 269.560 59.200,269.200 59.360,269.200 59.557 C 269.200 59.753,268.707 60.037,268.104 60.188 C 267.501 60.340,266.916 60.588,266.804 60.740 C 266.692 60.892,265.340 61.639,263.800 62.400 C 262.260 63.161,260.910 63.878,260.800 63.993 C 260.690 64.107,260.105 64.456,259.500 64.768 C 258.895 65.080,258.400 65.485,258.400 65.668 C 258.400 65.850,258.040 66.000,257.600 66.000 C 257.160 66.000,256.800 66.180,256.800 66.400 C 256.800 66.620,256.440 66.800,256.000 66.800 C 255.560 66.800,255.200 66.980,255.200 67.200 C 255.200 67.420,254.840 67.600,254.400 67.600 C 253.960 67.600,253.600 67.780,253.600 68.000 C 253.600 68.220,253.255 68.400,252.833 68.400 C 252.412 68.400,252.007 68.535,251.933 68.700 C 251.766 69.076,249.636 70.375,248.700 70.671 C 248.315 70.793,248.000 71.052,248.000 71.247 C 248.000 71.441,247.640 71.600,247.200 71.600 C 246.760 71.600,246.400 71.746,246.400 71.925 C 246.400 72.104,245.770 72.498,245.000 72.800 C 244.230 73.102,243.600 73.496,243.600 73.675 C 243.600 73.854,243.240 74.000,242.800 74.000 C 242.360 74.000,242.000 74.180,242.000 74.400 C 242.000 74.620,241.680 74.800,241.288 74.800 C 240.897 74.800,240.317 75.160,240.000 75.600 C 239.683 76.040,239.103 76.400,238.712 76.400 C 238.320 76.400,238.000 76.557,238.000 76.750 C 238.000 76.942,237.505 77.200,236.900 77.322 C 236.295 77.445,234.470 78.277,232.845 79.172 C 231.219 80.068,229.734 80.800,229.545 80.800 C 229.355 80.800,229.200 80.946,229.200 81.125 C 229.200 81.304,228.570 81.698,227.800 82.000 C 227.030 82.302,226.400 82.696,226.400 82.875 C 226.400 83.054,226.040 83.200,225.600 83.200 C 225.160 83.200,224.800 83.380,224.800 83.600 C 224.800 83.820,224.440 84.000,224.000 84.000 C 223.560 84.000,223.200 84.180,223.200 84.400 C 223.200 84.620,222.964 84.800,222.675 84.800 C 222.387 84.800,221.764 85.160,221.292 85.600 C 220.820 86.040,220.156 86.400,219.817 86.400 C 219.478 86.400,219.200 86.580,219.200 86.800 C 219.200 87.020,218.840 87.200,218.400 87.200 C 217.960 87.200,217.600 87.380,217.600 87.600 C 217.600 87.820,217.240 88.000,216.800 88.000 C 216.360 88.000,216.000 88.180,216.000 88.400 C 216.000 88.620,215.655 88.800,215.233 88.800 C 214.812 88.800,214.407 88.935,214.333 89.100 C 214.166 89.476,212.036 90.775,211.100 91.071 C 210.715 91.193,210.400 91.452,210.400 91.647 C 210.400 91.841,210.130 92.000,209.800 92.000 C 209.470 92.000,209.200 92.180,209.200 92.400 C 209.200 92.620,208.840 92.800,208.400 92.800 C 207.960 92.800,207.600 92.980,207.600 93.200 C 207.600 93.420,207.324 93.600,206.987 93.600 C 206.219 93.600,202.247 95.579,202.067 96.051 C 201.993 96.243,201.588 96.400,201.167 96.400 C 200.745 96.400,200.400 96.580,200.400 96.800 C 200.400 97.020,200.040 97.200,199.600 97.200 C 199.160 97.200,198.800 97.346,198.800 97.525 C 198.800 97.704,198.170 98.098,197.400 98.400 C 196.630 98.702,196.000 99.096,196.000 99.275 C 196.000 99.454,195.640 99.600,195.200 99.600 C 194.760 99.600,194.400 99.780,194.400 100.000 C 194.400 100.220,194.164 100.400,193.875 100.400 C 193.587 100.400,192.964 100.760,192.492 101.200 C 192.020 101.640,191.356 102.000,191.017 102.000 C 190.678 102.000,190.400 102.180,190.400 102.400 C 190.400 102.620,190.040 102.800,189.600 102.800 C 189.160 102.800,188.800 102.980,188.800 103.200 C 188.800 103.420,188.440 103.600,188.000 103.600 C 187.560 103.600,187.200 103.780,187.200 104.000 C 187.200 104.220,186.840 104.400,186.400 104.400 C 185.960 104.400,185.600 104.580,185.600 104.800 C 185.600 105.020,185.364 105.200,185.075 105.200 C 184.787 105.200,184.164 105.560,183.692 106.000 C 183.220 106.440,182.556 106.800,182.217 106.800 C 181.878 106.800,181.600 106.980,181.600 107.200 C 181.600 107.420,181.240 107.600,180.800 107.600 C 180.360 107.600,180.000 107.780,180.000 108.000 C 180.000 108.220,179.640 108.400,179.200 108.400 C 178.760 108.400,178.400 108.580,178.400 108.800 C 178.400 109.020,178.130 109.200,177.800 109.200 C 177.470 109.200,177.200 109.380,177.200 109.600 C 177.200 109.820,176.913 110.000,176.562 110.000 C 175.856 110.000,173.477 111.227,173.267 111.700 C 173.193 111.865,172.788 112.000,172.367 112.000 C 171.945 112.000,171.600 112.180,171.600 112.400 C 171.600 112.620,171.255 112.800,170.833 112.800 C 170.412 112.800,170.007 112.935,169.933 113.100 C 169.813 113.370,167.711 114.578,165.303 115.760 C 164.810 116.002,164.405 116.335,164.403 116.500 C 164.401 116.665,164.040 116.800,163.600 116.800 C 163.160 116.800,162.800 116.946,162.800 117.125 C 162.800 117.304,162.170 117.698,161.400 118.000 C 160.630 118.302,160.000 118.696,160.000 118.875 C 160.000 119.054,159.640 119.200,159.200 119.200 C 158.760 119.200,158.400 119.380,158.400 119.600 C 158.400 119.820,158.040 120.000,157.600 120.000 C 157.160 120.000,156.800 120.180,156.800 120.400 C 156.800 120.620,156.564 120.800,156.275 120.800 C 155.987 120.800,155.364 121.160,154.892 121.600 C 154.420 122.040,153.756 122.400,153.417 122.400 C 153.078 122.400,152.800 122.580,152.800 122.800 C 152.800 123.020,152.440 123.200,152.000 123.200 C 151.560 123.200,151.200 123.380,151.200 123.600 C 151.200 123.820,150.840 124.000,150.400 124.000 C 149.960 124.000,149.600 124.180,149.600 124.400 C 149.600 124.620,149.240 124.800,148.800 124.800 C 148.360 124.800,148.000 124.980,148.000 125.200 C 148.000 125.420,147.730 125.600,147.400 125.600 C 147.070 125.600,146.800 125.780,146.800 126.000 C 146.800 126.220,146.530 126.400,146.200 126.400 C 145.870 126.400,145.600 126.560,145.600 126.755 C 145.600 126.951,144.970 127.229,144.200 127.374 C 143.430 127.518,142.799 127.763,142.797 127.918 C 142.793 128.255,140.845 129.200,140.154 129.200 C 139.886 129.200,139.607 129.335,139.533 129.500 C 139.366 129.876,137.236 131.175,136.300 131.471 C 135.915 131.593,135.600 131.852,135.600 132.047 C 135.600 132.241,135.240 132.400,134.800 132.400 C 134.360 132.400,134.000 132.580,134.000 132.800 C 134.000 133.020,133.655 133.200,133.233 133.200 C 132.812 133.200,132.407 133.335,132.333 133.500 C 132.260 133.665,131.300 134.247,130.200 134.793 C 129.100 135.339,127.909 136.104,127.553 136.493 C 127.197 136.882,126.612 137.200,126.253 137.200 C 125.894 137.200,125.600 137.380,125.600 137.600 C 125.600 137.820,125.240 138.000,124.800 138.000 C 124.360 138.000,124.000 138.180,124.000 138.400 C 124.000 138.620,123.640 138.800,123.200 138.800 C 122.760 138.800,122.400 138.980,122.400 139.200 C 122.400 139.420,122.040 139.600,121.600 139.600 C 121.160 139.600,120.800 139.780,120.800 140.000 C 120.800 140.220,120.440 140.400,120.000 140.400 C 119.560 140.400,119.200 140.580,119.200 140.800 C 119.200 141.020,118.964 141.200,118.675 141.200 C 118.387 141.200,117.764 141.560,117.292 142.000 C 116.820 142.440,116.156 142.800,115.817 142.800 C 115.478 142.800,115.200 142.960,115.200 143.155 C 115.200 143.351,114.570 143.629,113.800 143.774 C 113.030 143.918,112.397 144.163,112.394 144.318 C 112.390 144.473,111.490 145.040,110.394 145.579 C 109.297 146.117,108.400 146.702,108.400 146.879 C 108.400 147.055,108.040 147.200,107.600 147.200 C 107.160 147.200,106.800 147.380,106.800 147.600 C 106.800 147.820,106.440 148.000,106.000 148.000 C 105.560 148.000,105.200 148.180,105.200 148.400 C 105.200 148.620,104.840 148.800,104.400 148.800 C 103.960 148.800,103.600 148.980,103.600 149.200 C 103.600 149.420,103.255 149.600,102.833 149.600 C 102.412 149.600,102.007 149.735,101.933 149.900 C 101.766 150.276,99.636 151.575,98.700 151.871 C 98.315 151.993,98.000 152.252,98.000 152.447 C 98.000 152.641,97.640 152.800,97.200 152.800 C 96.760 152.800,96.400 152.946,96.400 153.125 C 96.400 153.304,95.770 153.698,95.000 154.000 C 94.230 154.302,93.600 154.696,93.600 154.875 C 93.600 155.054,93.240 155.200,92.800 155.200 C 92.360 155.200,92.000 155.380,92.000 155.600 C 92.000 155.820,91.680 156.000,91.288 156.000 C 90.897 156.000,90.317 156.360,90.000 156.800 C 89.683 157.240,89.103 157.600,88.712 157.600 C 88.320 157.600,88.000 157.780,88.000 158.000 C 88.000 158.220,87.640 158.400,87.200 158.400 C 86.760 158.400,86.400 158.580,86.400 158.800 C 86.400 159.020,86.040 159.200,85.600 159.200 C 85.160 159.200,84.800 159.380,84.800 159.600 C 84.800 159.820,84.474 160.000,84.076 160.000 C 83.679 160.000,82.341 160.609,81.104 161.354 C 79.867 162.099,78.302 162.953,77.627 163.252 C 76.952 163.551,76.400 163.931,76.400 164.098 C 76.400 164.264,76.040 164.400,75.600 164.400 C 75.160 164.400,74.800 164.580,74.800 164.800 C 74.800 165.020,74.440 165.200,74.000 165.200 C 73.560 165.200,73.200 165.380,73.200 165.600 C 73.200 165.820,72.964 166.000,72.675 166.000 C 72.387 166.000,71.764 166.360,71.292 166.800 C 70.820 167.240,70.156 167.600,69.817 167.600 C 69.478 167.600,69.200 167.780,69.200 168.000 C 69.200 168.220,68.840 168.400,68.400 168.400 C 67.960 168.400,67.600 168.580,67.600 168.800 C 67.600 169.020,67.240 169.200,66.800 169.200 C 66.360 169.200,66.000 169.380,66.000 169.600 C 66.000 169.820,65.655 170.000,65.233 170.000 C 64.812 170.000,64.407 170.135,64.333 170.300 C 64.166 170.676,62.036 171.975,61.100 172.271 C 60.715 172.393,60.400 172.652,60.400 172.847 C 60.400 173.041,60.130 173.200,59.800 173.200 C 59.470 173.200,59.200 173.380,59.200 173.600 C 59.200 173.820,58.840 174.000,58.400 174.000 C 57.960 174.000,57.600 174.180,57.600 174.400 C 57.600 174.620,57.240 174.800,56.800 174.800 C 56.360 174.800,56.000 174.980,56.000 175.200 C 56.000 175.420,55.640 175.600,55.200 175.600 C 54.760 175.600,54.400 175.780,54.400 176.000 C 54.400 176.220,54.040 176.400,53.600 176.400 C 53.160 176.400,52.800 176.577,52.800 176.792 C 52.800 177.008,52.305 177.306,51.700 177.454 C 51.095 177.602,50.510 177.833,50.400 177.967 C 50.290 178.101,49.300 178.656,48.200 179.200 C 47.100 179.744,46.110 180.286,46.000 180.404 C 45.890 180.523,44.945 181.065,43.900 181.609 C 42.855 182.153,42.000 182.734,42.000 182.899 C 42.000 183.065,41.640 183.200,41.200 183.200 C 40.760 183.200,40.400 183.380,40.400 183.600 C 40.400 183.820,40.040 184.000,39.600 184.000 C 39.160 184.000,38.800 184.180,38.800 184.400 C 38.800 184.620,38.440 184.800,38.000 184.800 C 37.560 184.800,37.200 184.980,37.200 185.200 C 37.200 185.420,36.855 185.600,36.433 185.600 C 36.012 185.600,35.607 185.735,35.533 185.900 C 35.366 186.276,33.236 187.575,32.300 187.871 C 31.915 187.993,31.600 188.252,31.600 188.447 C 31.600 188.641,31.240 188.800,30.800 188.800 C 30.360 188.800,30.000 188.946,30.000 189.125 C 30.000 189.304,29.370 189.698,28.600 190.000 C 27.830 190.302,27.200 190.696,27.200 190.875 C 27.200 191.054,26.840 191.200,26.400 191.200 C 25.960 191.200,25.600 191.380,25.600 191.600 C 25.600 191.820,25.364 192.000,25.075 192.000 C 24.787 192.000,24.164 192.360,23.692 192.800 C 23.220 193.240,22.594 193.600,22.301 193.600 C 22.008 193.600,20.425 194.326,18.784 195.214 C 17.143 196.102,15.485 196.933,15.100 197.061 C 14.715 197.189,14.400 197.452,14.400 197.647 C 14.400 197.841,14.040 198.000,13.600 198.000 C 13.160 198.000,12.800 198.146,12.800 198.325 C 12.800 198.504,12.170 198.898,11.400 199.200 C 10.630 199.502,10.000 199.896,10.000 200.075 C 10.000 200.254,9.640 200.400,9.200 200.400 C 8.760 200.400,8.400 200.550,8.400 200.732 C 8.400 200.915,7.908 201.320,7.306 201.632 C 5.794 202.417,2.000 206.249,2.000 206.991 C 2.000 207.326,1.820 207.600,1.600 207.600 C 1.380 207.600,1.200 207.945,1.200 208.367 C 1.200 208.788,1.018 209.194,0.795 209.268 C -0.464 209.688,-0.088 221.325,1.230 222.740 C 1.654 223.195,2.000 223.844,2.000 224.183 C 2.000 224.522,2.180 224.800,2.400 224.800 C 2.620 224.800,2.800 224.993,2.800 225.229 C 2.800 225.754,3.807 226.800,4.312 226.800 C 4.515 226.800,5.216 227.295,5.870 227.900 C 7.325 229.246,8.591 230.000,9.395 230.000 C 9.728 230.000,10.000 230.180,10.000 230.400 C 10.000 230.620,10.439 230.800,10.976 230.800 C 11.513 230.800,12.064 230.980,12.200 231.200 C 12.336 231.420,12.876 231.600,13.400 231.600 C 13.924 231.600,14.464 231.780,14.600 232.000 C 14.736 232.220,15.467 232.400,16.224 232.400 C 16.981 232.400,17.600 232.580,17.600 232.800 C 17.600 233.020,18.140 233.200,18.800 233.200 C 19.460 233.200,20.000 233.380,20.000 233.600 C 20.000 233.820,20.529 234.000,21.176 234.000 C 21.823 234.000,22.464 234.180,22.600 234.400 C 22.736 234.620,23.467 234.800,24.224 234.800 C 24.981 234.800,25.600 234.980,25.600 235.200 C 25.600 235.420,26.039 235.600,26.576 235.600 C 27.113 235.600,27.664 235.780,27.800 236.000 C 27.936 236.220,28.577 236.400,29.224 236.400 C 29.871 236.400,30.400 236.580,30.400 236.800 C 30.400 237.020,31.030 237.200,31.800 237.200 C 32.570 237.200,33.200 237.380,33.200 237.600 C 33.200 237.820,33.652 238.000,34.205 238.000 C 34.758 238.000,35.523 238.158,35.905 238.351 C 37.072 238.940,39.408 239.600,40.328 239.600 C 40.808 239.600,41.200 239.780,41.200 240.000 C 41.200 240.220,41.729 240.400,42.376 240.400 C 43.023 240.400,43.659 240.572,43.789 240.782 C 43.918 240.991,45.099 241.285,46.412 241.433 C 47.725 241.582,48.800 241.860,48.800 242.052 C 48.800 242.243,49.340 242.400,50.000 242.400 C 50.660 242.400,51.200 242.580,51.200 242.800 C 51.200 243.020,51.740 243.200,52.400 243.200 C 53.060 243.200,53.600 243.380,53.600 243.600 C 53.600 243.820,54.320 244.000,55.200 244.000 C 56.080 244.000,56.800 244.180,56.800 244.400 C 56.800 244.620,57.340 244.800,58.000 244.800 C 58.660 244.800,59.200 244.980,59.200 245.200 C 59.200 245.420,59.740 245.600,60.400 245.600 C 61.060 245.600,61.600 245.780,61.600 246.000 C 61.600 246.220,62.230 246.400,63.000 246.400 C 63.770 246.400,64.400 246.580,64.400 246.800 C 64.400 247.020,64.940 247.200,65.600 247.200 C 66.260 247.200,66.800 247.380,66.800 247.600 C 66.800 247.820,67.329 248.000,67.976 248.000 C 68.623 248.000,69.264 248.180,69.400 248.400 C 69.536 248.620,70.267 248.800,71.024 248.800 C 71.781 248.800,72.400 248.980,72.400 249.200 C 72.400 249.420,72.940 249.600,73.600 249.600 C 74.260 249.600,74.800 249.780,74.800 250.000 C 74.800 250.220,75.340 250.400,76.000 250.400 C 76.660 250.400,77.200 250.580,77.200 250.800 C 77.200 251.020,77.830 251.200,78.600 251.200 C 79.370 251.200,80.000 251.380,80.000 251.600 C 80.000 251.820,80.529 252.000,81.176 252.000 C 81.823 252.000,82.464 252.180,82.600 252.400 C 82.736 252.620,83.276 252.800,83.800 252.800 C 84.324 252.800,84.864 252.980,85.000 253.200 C 85.136 253.420,85.867 253.600,86.624 253.600 C 87.381 253.600,88.000 253.780,88.000 254.000 C 88.000 254.220,88.540 254.400,89.200 254.400 C 89.860 254.400,90.400 254.580,90.400 254.800 C 90.400 255.020,90.929 255.200,91.576 255.200 C 92.223 255.200,92.864 255.380,93.000 255.600 C 93.136 255.820,93.766 256.000,94.400 256.000 C 95.034 256.000,95.664 256.180,95.800 256.400 C 95.936 256.620,96.399 256.800,96.829 256.800 C 97.259 256.800,97.923 256.958,98.305 257.151 C 99.527 257.768,101.740 258.354,103.900 258.632 C 105.055 258.781,106.000 259.060,106.000 259.252 C 106.000 259.443,106.463 259.600,107.029 259.600 C 108.706 259.600,109.200 260.458,109.200 263.371 C 109.200 264.817,109.351 266.000,109.536 266.000 C 109.721 266.000,110.076 268.655,110.325 271.900 C 110.751 277.451,110.978 279.554,112.000 287.400 C 112.948 294.678,113.235 297.130,113.428 299.600 C 113.540 301.030,113.797 302.560,114.000 303.000 C 114.203 303.440,114.469 305.060,114.591 306.600 C 114.713 308.140,114.914 310.660,115.037 312.200 C 115.161 313.740,115.428 315.171,115.631 315.380 C 115.834 315.589,116.000 316.973,116.000 318.456 C 116.000 319.939,116.180 321.264,116.400 321.400 C 116.620 321.536,116.800 322.987,116.800 324.624 C 116.800 326.341,116.969 327.600,117.200 327.600 C 117.433 327.600,117.600 328.933,117.600 330.800 C 117.600 332.667,117.767 334.000,118.000 334.000 C 118.231 334.000,118.400 335.267,118.400 337.000 C 118.400 338.733,118.569 340.000,118.800 340.000 C 119.033 340.000,119.200 341.333,119.200 343.200 C 119.200 345.067,119.367 346.400,119.600 346.400 C 119.831 346.400,120.000 347.659,120.000 349.376 C 120.000 351.013,120.180 352.464,120.400 352.600 C 120.620 352.736,120.800 354.187,120.800 355.824 C 120.800 357.541,120.969 358.800,121.200 358.800 C 121.431 358.800,121.600 360.059,121.600 361.776 C 121.600 363.413,121.780 364.864,122.000 365.000 C 122.220 365.136,122.400 366.587,122.400 368.224 C 122.400 369.941,122.569 371.200,122.800 371.200 C 123.020 371.200,123.200 372.100,123.200 373.200 C 123.200 374.300,123.380 375.200,123.600 375.200 C 123.820 375.200,124.000 375.740,124.000 376.400 C 124.000 377.060,124.180 377.600,124.400 377.600 C 124.620 377.600,124.800 377.960,124.800 378.400 C 124.800 378.840,124.980 379.200,125.200 379.200 C 125.420 379.200,125.600 379.478,125.600 379.818 C 125.600 380.158,126.050 380.886,126.600 381.436 C 127.150 381.986,127.600 382.575,127.600 382.744 C 127.600 382.913,128.337 383.445,129.238 383.926 C 130.984 384.858,136.400 385.217,136.400 384.400 C 136.400 384.180,136.760 384.000,137.200 384.000 C 137.640 384.000,138.000 383.820,138.000 383.600 C 138.000 383.380,138.360 383.200,138.800 383.200 C 139.240 383.200,139.600 383.020,139.600 382.800 C 139.600 382.580,139.783 382.400,140.006 382.400 C 140.640 382.400,146.400 376.484,146.400 375.833 C 146.400 375.515,146.760 375.140,147.200 375.000 C 147.640 374.860,148.000 374.488,148.000 374.173 C 148.000 373.858,148.180 373.600,148.400 373.600 C 148.620 373.600,148.800 373.330,148.800 373.000 C 148.800 372.670,148.941 372.400,149.114 372.400 C 149.286 372.400,149.721 371.905,150.079 371.300 C 150.437 370.695,151.196 369.660,151.765 369.000 C 152.334 368.340,152.799 367.575,152.800 367.300 C 152.800 367.025,152.950 366.800,153.132 366.800 C 153.315 366.800,153.720 366.305,154.032 365.700 C 154.345 365.095,154.991 364.201,155.469 363.713 C 155.947 363.225,156.454 362.460,156.596 362.013 C 156.738 361.566,157.001 361.200,157.181 361.200 C 157.361 361.200,157.808 360.570,158.173 359.800 C 158.539 359.030,159.009 358.400,159.219 358.400 C 159.428 358.400,159.600 358.130,159.600 357.800 C 159.600 357.470,159.780 357.200,160.000 357.200 C 160.220 357.200,160.400 356.930,160.400 356.600 C 160.400 356.270,160.550 356.000,160.732 356.000 C 160.915 356.000,161.319 355.505,161.630 354.900 C 161.940 354.295,162.511 353.509,162.897 353.153 C 163.284 352.797,163.600 352.302,163.600 352.053 C 163.600 351.804,163.780 351.600,164.000 351.600 C 164.220 351.600,164.400 351.370,164.400 351.088 C 164.400 350.807,164.760 350.317,165.200 350.000 C 165.640 349.683,166.000 349.143,166.000 348.800 C 166.000 348.457,166.360 347.917,166.800 347.600 C 167.240 347.283,167.600 346.838,167.601 346.612 C 167.601 346.385,168.141 345.570,168.800 344.800 C 169.459 344.030,169.999 343.215,169.999 342.988 C 170.000 342.762,170.360 342.317,170.800 342.000 C 171.240 341.683,171.600 341.208,171.600 340.945 C 171.600 340.682,171.737 340.407,171.905 340.333 C 172.366 340.132,175.200 336.057,175.200 335.595 C 175.200 335.374,175.740 334.628,176.400 333.937 C 177.060 333.246,177.600 332.478,177.600 332.229 C 177.600 331.980,177.960 331.517,178.400 331.200 C 178.840 330.883,179.200 330.391,179.200 330.108 C 179.200 329.825,179.740 329.028,180.400 328.337 C 181.060 327.646,181.600 326.878,181.600 326.629 C 181.600 326.380,181.960 325.917,182.400 325.600 C 182.840 325.283,183.200 324.793,183.200 324.512 C 183.200 324.230,183.341 324.000,183.514 324.000 C 183.686 324.000,184.121 323.505,184.479 322.900 C 184.837 322.295,185.596 321.260,186.165 320.600 C 186.734 319.940,187.199 319.175,187.200 318.900 C 187.200 318.625,187.338 318.400,187.506 318.400 C 187.674 318.400,188.256 317.680,188.800 316.800 C 189.344 315.920,189.899 315.200,190.034 315.200 C 190.168 315.200,190.603 314.480,191.000 313.600 C 191.397 312.720,191.874 312.000,192.061 312.000 C 192.247 312.000,192.400 311.717,192.400 311.371 C 192.400 310.652,193.335 309.600,193.974 309.600 C 194.305 309.600,208.626 323.664,226.822 341.859 C 281.209 396.245,276.820 391.851,279.735 394.821 C 281.019 396.130,282.284 397.200,282.547 397.200 C 282.809 397.200,283.283 397.560,283.600 398.000 C 283.917 398.440,284.482 398.800,284.855 398.800 C 285.228 398.800,285.606 399.018,285.695 399.285 C 285.930 399.989,298.462 400.004,298.699 399.300 C 298.791 399.025,299.212 398.800,299.633 398.800 C 300.055 398.800,300.400 398.620,300.400 398.400 C 300.400 398.180,300.674 398.000,301.009 398.000 C 301.801 398.000,306.000 393.801,306.000 393.009 C 306.000 392.674,306.180 392.400,306.400 392.400 C 306.620 392.400,306.800 392.128,306.800 391.795 C 306.800 391.462,307.008 390.787,307.262 390.295 C 308.230 388.424,308.329 388.066,308.608 385.463 C 308.766 383.992,309.053 382.691,309.247 382.571 C 309.441 382.451,309.600 381.744,309.600 381.000 C 309.600 380.256,309.780 379.536,310.000 379.400 C 310.220 379.264,310.400 378.544,310.400 377.800 C 310.400 377.056,310.580 376.336,310.800 376.200 C 311.020 376.064,311.200 375.434,311.200 374.800 C 311.200 374.166,311.380 373.536,311.600 373.400 C 311.820 373.264,312.000 372.544,312.000 371.800 C 312.000 371.056,312.180 370.336,312.400 370.200 C 312.620 370.064,312.800 369.344,312.800 368.600 C 312.800 367.856,312.980 367.136,313.200 367.000 C 313.420 366.864,313.600 366.144,313.600 365.400 C 313.600 364.656,313.780 363.936,314.000 363.800 C 314.220 363.664,314.400 362.944,314.400 362.200 C 314.400 361.456,314.580 360.736,314.800 360.600 C 315.020 360.464,315.200 359.733,315.200 358.976 C 315.200 358.219,315.380 357.600,315.600 357.600 C 315.820 357.600,316.000 356.981,316.000 356.224 C 316.000 355.467,316.180 354.736,316.400 354.600 C 316.620 354.464,316.800 353.744,316.800 353.000 C 316.800 352.256,316.980 351.536,317.200 351.400 C 317.420 351.264,317.600 350.544,317.600 349.800 C 317.600 349.056,317.780 348.336,318.000 348.200 C 318.220 348.064,318.400 347.344,318.400 346.600 C 318.400 345.856,318.580 345.136,318.800 345.000 C 319.020 344.864,319.200 344.144,319.200 343.400 C 319.200 342.656,319.380 341.936,319.600 341.800 C 319.820 341.664,320.000 340.933,320.000 340.176 C 320.000 339.419,320.180 338.800,320.400 338.800 C 320.620 338.800,320.800 338.080,320.800 337.200 C 320.800 336.320,320.980 335.600,321.200 335.600 C 321.420 335.600,321.600 334.981,321.600 334.224 C 321.600 333.467,321.780 332.736,322.000 332.600 C 322.220 332.464,322.400 331.744,322.400 331.000 C 322.400 330.256,322.580 329.536,322.800 329.400 C 323.020 329.264,323.200 328.544,323.200 327.800 C 323.200 327.056,323.380 326.336,323.600 326.200 C 323.820 326.064,324.000 325.344,324.000 324.600 C 324.000 323.856,324.162 323.147,324.359 323.025 C 324.557 322.903,324.845 321.542,325.000 320.000 C 325.155 318.458,325.443 317.097,325.641 316.975 C 325.838 316.853,326.000 316.144,326.000 315.400 C 326.000 314.656,326.180 313.936,326.400 313.800 C 326.620 313.664,326.800 312.944,326.800 312.200 C 326.800 311.456,326.980 310.736,327.200 310.600 C 327.420 310.464,327.600 309.834,327.600 309.200 C 327.600 308.566,327.780 307.936,328.000 307.800 C 328.220 307.664,328.400 306.944,328.400 306.200 C 328.400 305.456,328.580 304.736,328.800 304.600 C 329.020 304.464,329.200 303.744,329.200 303.000 C 329.200 302.256,329.380 301.536,329.600 301.400 C 329.820 301.264,330.000 300.544,330.000 299.800 C 330.000 299.056,330.180 298.336,330.400 298.200 C 330.620 298.064,330.800 297.344,330.800 296.600 C 330.800 295.856,330.980 295.136,331.200 295.000 C 331.420 294.864,331.600 294.144,331.600 293.400 C 331.600 292.656,331.780 291.936,332.000 291.800 C 332.220 291.664,332.400 291.034,332.400 290.400 C 332.400 289.766,332.580 289.136,332.800 289.000 C 333.020 288.864,333.200 288.144,333.200 287.400 C 333.200 286.656,333.380 285.936,333.600 285.800 C 333.820 285.664,334.000 284.944,334.000 284.200 C 334.000 283.456,334.180 282.736,334.400 282.600 C 334.620 282.464,334.800 281.744,334.800 281.000 C 334.800 280.256,334.980 279.536,335.200 279.400 C 335.420 279.264,335.600 278.544,335.600 277.800 C 335.600 277.056,335.780 276.336,336.000 276.200 C 336.220 276.064,336.400 275.344,336.400 274.600 C 336.400 273.856,336.580 273.136,336.800 273.000 C 337.020 272.864,337.200 272.133,337.200 271.376 C 337.200 270.619,337.380 270.000,337.600 270.000 C 337.820 270.000,338.000 269.280,338.000 268.400 C 338.000 267.520,338.180 266.800,338.400 266.800 C 338.620 266.800,338.800 266.181,338.800 265.424 C 338.800 264.667,338.980 263.936,339.200 263.800 C 339.420 263.664,339.600 262.944,339.600 262.200 C 339.600 261.456,339.780 260.736,340.000 260.600 C 340.220 260.464,340.400 259.744,340.400 259.000 C 340.400 258.256,340.562 257.547,340.759 257.425 C 340.957 257.303,341.245 255.942,341.400 254.400 C 341.555 252.858,341.843 251.497,342.041 251.375 C 342.238 251.253,342.400 250.544,342.400 249.800 C 342.400 249.056,342.580 248.336,342.800 248.200 C 343.020 248.064,343.200 247.344,343.200 246.600 C 343.200 245.856,343.380 245.136,343.600 245.000 C 343.820 244.864,344.000 244.144,344.000 243.400 C 344.000 242.656,344.180 241.936,344.400 241.800 C 344.620 241.664,344.800 241.034,344.800 240.400 C 344.800 239.766,344.980 239.136,345.200 239.000 C 345.420 238.864,345.600 238.144,345.600 237.400 C 345.600 236.656,345.780 235.936,346.000 235.800 C 346.220 235.664,346.400 234.944,346.400 234.200 C 346.400 233.456,346.580 232.736,346.800 232.600 C 347.020 232.464,347.200 231.744,347.200 231.000 C 347.200 230.256,347.380 229.536,347.600 229.400 C 347.820 229.264,348.000 228.544,348.000 227.800 C 348.000 227.056,348.180 226.336,348.400 226.200 C 348.620 226.064,348.800 225.333,348.800 224.576 C 348.800 223.819,348.980 223.200,349.200 223.200 C 349.420 223.200,349.600 222.581,349.600 221.824 C 349.600 221.067,349.780 220.336,350.000 220.200 C 350.220 220.064,350.400 219.344,350.400 218.600 C 350.400 217.856,350.580 217.136,350.800 217.000 C 351.020 216.864,351.200 216.144,351.200 215.400 C 351.200 214.656,351.380 213.936,351.600 213.800 C 351.820 213.664,352.000 212.944,352.000 212.200 C 352.000 211.456,352.180 210.736,352.400 210.600 C 352.620 210.464,352.800 209.744,352.800 209.000 C 352.800 208.256,352.980 207.536,353.200 207.400 C 353.420 207.264,353.600 206.533,353.600 205.776 C 353.600 205.019,353.780 204.400,354.000 204.400 C 354.220 204.400,354.400 203.680,354.400 202.800 C 354.400 201.920,354.580 201.200,354.800 201.200 C 355.020 201.200,355.200 200.581,355.200 199.824 C 355.200 199.067,355.380 198.336,355.600 198.200 C 355.820 198.064,356.000 197.344,356.000 196.600 C 356.000 195.856,356.180 195.136,356.400 195.000 C 356.620 194.864,356.800 194.144,356.800 193.400 C 356.800 192.656,356.980 191.936,357.200 191.800 C 357.420 191.664,357.600 190.944,357.600 190.200 C 357.600 189.456,357.762 188.747,357.959 188.625 C 358.157 188.503,358.445 187.142,358.600 185.600 C 358.755 184.058,359.043 182.697,359.241 182.575 C 359.438 182.453,359.600 181.744,359.600 181.000 C 359.600 180.256,359.780 179.536,360.000 179.400 C 360.220 179.264,360.400 178.544,360.400 177.800 C 360.400 177.056,360.580 176.336,360.800 176.200 C 361.020 176.064,361.200 175.434,361.200 174.800 C 361.200 174.166,361.380 173.536,361.600 173.400 C 361.820 173.264,362.000 172.544,362.000 171.800 C 362.000 171.056,362.180 170.336,362.400 170.200 C 362.620 170.064,362.800 169.344,362.800 168.600 C 362.800 167.856,362.980 167.136,363.200 167.000 C 363.420 166.864,363.600 166.144,363.600 165.400 C 363.600 164.656,363.780 163.936,364.000 163.800 C 364.220 163.664,364.400 162.944,364.400 162.200 C 364.400 161.456,364.580 160.736,364.800 160.600 C 365.020 160.464,365.200 159.733,365.200 158.976 C 365.200 158.219,365.380 157.600,365.600 157.600 C 365.820 157.600,366.000 156.981,366.000 156.224 C 366.000 155.467,366.180 154.736,366.400 154.600 C 366.620 154.464,366.800 153.744,366.800 153.000 C 366.800 152.256,366.980 151.536,367.200 151.400 C 367.420 151.264,367.600 150.544,367.600 149.800 C 367.600 149.056,367.780 148.336,368.000 148.200 C 368.220 148.064,368.400 147.344,368.400 146.600 C 368.400 145.856,368.580 145.136,368.800 145.000 C 369.020 144.864,369.200 144.144,369.200 143.400 C 369.200 142.656,369.380 141.936,369.600 141.800 C 369.820 141.664,370.000 140.933,370.000 140.176 C 370.000 139.419,370.180 138.800,370.400 138.800 C 370.620 138.800,370.800 138.080,370.800 137.200 C 370.800 136.320,370.980 135.600,371.200 135.600 C 371.420 135.600,371.600 134.981,371.600 134.224 C 371.600 133.467,371.780 132.736,372.000 132.600 C 372.220 132.464,372.400 131.744,372.400 131.000 C 372.400 130.256,372.580 129.536,372.800 129.400 C 373.020 129.264,373.200 128.544,373.200 127.800 C 373.200 127.056,373.380 126.336,373.600 126.200 C 373.820 126.064,374.000 125.344,374.000 124.600 C 374.000 123.856,374.162 123.147,374.359 123.025 C 374.557 122.903,374.845 121.542,375.000 120.000 C 375.155 118.458,375.443 117.097,375.641 116.975 C 375.838 116.853,376.000 116.144,376.000 115.400 C 376.000 114.656,376.180 113.936,376.400 113.800 C 376.620 113.664,376.800 112.944,376.800 112.200 C 376.800 111.456,376.980 110.736,377.200 110.600 C 377.420 110.464,377.600 109.834,377.600 109.200 C 377.600 108.566,377.780 107.936,378.000 107.800 C 378.220 107.664,378.400 106.944,378.400 106.200 C 378.400 105.456,378.580 104.736,378.800 104.600 C 379.020 104.464,379.200 103.744,379.200 103.000 C 379.200 102.256,379.380 101.536,379.600 101.400 C 379.820 101.264,380.000 100.544,380.000 99.800 C 380.000 99.056,380.180 98.336,380.400 98.200 C 380.620 98.064,380.800 97.344,380.800 96.600 C 380.800 95.856,380.980 95.136,381.200 95.000 C 381.420 94.864,381.600 94.144,381.600 93.400 C 381.600 92.656,381.780 91.936,382.000 91.800 C 382.220 91.664,382.400 91.034,382.400 90.400 C 382.400 89.766,382.580 89.136,382.800 89.000 C 383.020 88.864,383.200 88.144,383.200 87.400 C 383.200 86.656,383.380 85.936,383.600 85.800 C 383.820 85.664,384.000 84.944,384.000 84.200 C 384.000 83.456,384.180 82.736,384.400 82.600 C 384.620 82.464,384.800 81.744,384.800 81.000 C 384.800 80.256,384.980 79.536,385.200 79.400 C 385.420 79.264,385.600 78.544,385.600 77.800 C 385.600 77.056,385.780 76.336,386.000 76.200 C 386.220 76.064,386.400 75.344,386.400 74.600 C 386.400 73.856,386.580 73.136,386.800 73.000 C 387.020 72.864,387.200 72.133,387.200 71.376 C 387.200 70.619,387.380 70.000,387.600 70.000 C 387.820 70.000,388.000 69.280,388.000 68.400 C 388.000 67.520,388.180 66.800,388.400 66.800 C 388.620 66.800,388.800 66.181,388.800 65.424 C 388.800 64.667,388.980 63.936,389.200 63.800 C 389.420 63.664,389.600 62.944,389.600 62.200 C 389.600 61.456,389.780 60.736,390.000 60.600 C 390.220 60.464,390.400 59.744,390.400 59.000 C 390.400 58.256,390.562 57.547,390.759 57.425 C 390.957 57.303,391.245 55.942,391.400 54.400 C 391.555 52.858,391.843 51.497,392.041 51.375 C 392.238 51.253,392.400 50.544,392.400 49.800 C 392.400 49.056,392.580 48.336,392.800 48.200 C 393.020 48.064,393.200 47.344,393.200 46.600 C 393.200 45.856,393.380 45.136,393.600 45.000 C 393.820 44.864,394.000 44.144,394.000 43.400 C 394.000 42.656,394.180 41.936,394.400 41.800 C 394.620 41.664,394.800 41.034,394.800 40.400 C 394.800 39.766,394.980 39.136,395.200 39.000 C 395.420 38.864,395.600 38.144,395.600 37.400 C 395.600 36.656,395.780 35.936,396.000 35.800 C 396.220 35.664,396.400 34.944,396.400 34.200 C 396.400 33.456,396.580 32.736,396.800 32.600 C 397.020 32.464,397.200 31.744,397.200 31.000 C 397.200 30.256,397.380 29.536,397.600 29.400 C 397.820 29.264,398.000 28.544,398.000 27.800 C 398.000 27.056,398.180 26.336,398.400 26.200 C 398.620 26.064,398.800 25.348,398.800 24.610 C 398.800 23.871,399.025 23.192,399.300 23.100 C 399.674 22.976,399.800 21.231,399.800 16.200 C 399.800 11.170,399.674 9.425,399.300 9.300 C 399.025 9.209,398.800 8.788,398.800 8.367 C 398.800 7.945,398.620 7.600,398.400 7.600 C 398.180 7.600,398.000 7.326,398.000 6.991 C 398.000 6.199,393.801 2.000,393.009 2.000 C 392.674 2.000,392.400 1.820,392.400 1.600 C 392.400 1.380,392.145 1.200,391.833 1.200 C 391.522 1.200,391.198 0.994,391.114 0.742 C 390.932 0.196,381.760 -0.102,379.600 0.367 M360.000 48.376 C 360.000 49.023,359.820 49.664,359.600 49.800 C 359.380 49.936,359.200 50.656,359.200 51.400 C 359.200 52.144,359.020 52.864,358.800 53.000 C 358.580 53.136,358.400 53.856,358.400 54.600 C 358.400 55.344,358.220 56.064,358.000 56.200 C 357.780 56.336,357.600 57.067,357.600 57.824 C 357.600 58.581,357.420 59.200,357.200 59.200 C 356.980 59.200,356.800 59.920,356.800 60.800 C 356.800 61.680,356.620 62.400,356.400 62.400 C 356.180 62.400,356.000 63.120,356.000 64.000 C 356.000 64.880,355.820 65.600,355.600 65.600 C 355.380 65.600,355.200 66.219,355.200 66.976 C 355.200 67.733,355.020 68.464,354.800 68.600 C 354.580 68.736,354.400 69.456,354.400 70.200 C 354.400 70.944,354.220 71.664,354.000 71.800 C 353.780 71.936,353.600 72.656,353.600 73.400 C 353.600 74.144,353.420 74.864,353.200 75.000 C 352.980 75.136,352.800 75.867,352.800 76.624 C 352.800 77.381,352.620 78.000,352.400 78.000 C 352.180 78.000,352.000 78.720,352.000 79.600 C 352.000 80.480,351.820 81.200,351.600 81.200 C 351.380 81.200,351.200 81.819,351.200 82.576 C 351.200 83.333,351.039 84.052,350.842 84.174 C 350.645 84.295,350.382 85.071,350.258 85.897 C 349.728 89.407,349.492 90.420,349.156 90.627 C 348.960 90.748,348.800 91.456,348.800 92.200 C 348.800 92.944,348.620 93.664,348.400 93.800 C 348.180 93.936,348.000 94.656,348.000 95.400 C 348.000 96.144,347.820 96.864,347.600 97.000 C 347.380 97.136,347.200 97.856,347.200 98.600 C 347.200 99.344,347.040 100.052,346.844 100.173 C 346.649 100.294,346.392 100.979,346.273 101.696 C 346.155 102.413,345.873 103.720,345.647 104.600 C 344.634 108.549,344.313 109.970,343.872 112.469 C 343.612 113.936,343.265 115.271,343.100 115.435 C 342.935 115.599,342.800 116.323,342.800 117.043 C 342.800 117.763,342.620 118.464,342.400 118.600 C 342.180 118.736,342.000 119.456,342.000 120.200 C 342.000 120.944,341.820 121.664,341.600 121.800 C 341.380 121.936,341.200 122.667,341.200 123.424 C 341.200 124.181,341.020 124.800,340.800 124.800 C 340.580 124.800,340.400 125.520,340.400 126.400 C 340.400 127.280,340.220 128.000,340.000 128.000 C 339.780 128.000,339.600 128.720,339.600 129.600 C 339.600 130.480,339.420 131.200,339.200 131.200 C 338.980 131.200,338.800 131.819,338.800 132.576 C 338.800 133.333,338.620 134.064,338.400 134.200 C 338.180 134.336,338.000 135.056,338.000 135.800 C 338.000 136.544,337.820 137.264,337.600 137.400 C 337.380 137.536,337.200 138.256,337.200 139.000 C 337.200 139.744,337.020 140.464,336.800 140.600 C 336.580 140.736,336.400 141.467,336.400 142.224 C 336.400 142.981,336.220 143.600,336.000 143.600 C 335.780 143.600,335.600 144.309,335.600 145.176 C 335.600 146.043,335.420 146.864,335.200 147.000 C 334.980 147.136,334.800 147.867,334.800 148.624 C 334.800 149.381,334.620 150.000,334.400 150.000 C 334.180 150.000,334.000 150.619,334.000 151.376 C 334.000 152.133,333.820 152.864,333.600 153.000 C 333.380 153.136,333.200 153.856,333.200 154.600 C 333.200 155.344,333.020 156.064,332.800 156.200 C 332.580 156.336,332.400 157.056,332.400 157.800 C 332.400 158.544,332.220 159.264,332.000 159.400 C 331.780 159.536,331.600 160.256,331.600 161.000 C 331.600 161.744,331.420 162.464,331.200 162.600 C 330.980 162.736,330.800 163.456,330.800 164.200 C 330.800 164.944,330.620 165.664,330.400 165.800 C 330.180 165.936,330.000 166.656,330.000 167.400 C 330.000 168.144,329.840 168.852,329.644 168.973 C 329.449 169.094,329.192 169.779,329.073 170.496 C 328.955 171.213,328.648 172.610,328.392 173.600 C 328.135 174.590,327.726 176.705,327.483 178.300 C 327.240 179.895,326.897 181.200,326.721 181.200 C 326.544 181.200,326.400 181.819,326.400 182.576 C 326.400 183.333,326.220 184.064,326.000 184.200 C 325.780 184.336,325.600 185.056,325.600 185.800 C 325.600 186.544,325.420 187.264,325.200 187.400 C 324.980 187.536,324.800 188.267,324.800 189.024 C 324.800 189.781,324.620 190.400,324.400 190.400 C 324.180 190.400,324.000 191.120,324.000 192.000 C 324.000 192.880,323.820 193.600,323.600 193.600 C 323.380 193.600,323.200 194.320,323.200 195.200 C 323.200 196.080,323.020 196.800,322.800 196.800 C 322.580 196.800,322.400 197.520,322.400 198.400 C 322.400 199.280,322.220 200.000,322.000 200.000 C 321.780 200.000,321.600 200.619,321.600 201.376 C 321.600 202.133,321.420 202.864,321.200 203.000 C 320.980 203.136,320.800 203.856,320.800 204.600 C 320.800 205.344,320.620 206.064,320.400 206.200 C 320.180 206.336,320.000 207.056,320.000 207.800 C 320.000 208.544,319.820 209.264,319.600 209.400 C 319.380 209.536,319.200 210.256,319.200 211.000 C 319.200 211.744,319.020 212.464,318.800 212.600 C 318.580 212.736,318.400 213.467,318.400 214.224 C 318.400 214.981,318.220 215.600,318.000 215.600 C 317.780 215.600,317.600 216.219,317.600 216.976 C 317.600 217.733,317.439 218.452,317.242 218.574 C 317.045 218.695,316.782 219.471,316.658 220.297 C 316.128 223.807,315.892 224.820,315.556 225.027 C 315.360 225.148,315.200 225.856,315.200 226.600 C 315.200 227.344,315.020 228.064,314.800 228.200 C 314.580 228.336,314.400 229.056,314.400 229.800 C 314.400 230.544,314.220 231.264,314.000 231.400 C 313.780 231.536,313.600 232.256,313.600 233.000 C 313.600 233.744,313.440 234.452,313.244 234.573 C 313.049 234.694,312.792 235.379,312.673 236.096 C 312.470 237.326,312.107 238.881,311.153 242.600 C 310.928 243.480,310.531 245.401,310.272 246.869 C 310.012 248.336,309.665 249.671,309.500 249.835 C 309.335 249.999,309.200 250.723,309.200 251.443 C 309.200 252.163,309.020 252.864,308.800 253.000 C 308.580 253.136,308.400 253.856,308.400 254.600 C 308.400 255.344,308.220 256.064,308.000 256.200 C 307.780 256.336,307.600 257.067,307.600 257.824 C 307.600 258.581,307.420 259.200,307.200 259.200 C 306.980 259.200,306.800 259.920,306.800 260.800 C 306.800 261.680,306.620 262.400,306.400 262.400 C 306.180 262.400,306.000 263.120,306.000 264.000 C 306.000 264.880,305.820 265.600,305.600 265.600 C 305.380 265.600,305.200 266.219,305.200 266.976 C 305.200 267.733,305.020 268.464,304.800 268.600 C 304.580 268.736,304.400 269.456,304.400 270.200 C 304.400 270.944,304.220 271.664,304.000 271.800 C 303.780 271.936,303.600 272.656,303.600 273.400 C 303.600 274.144,303.420 274.864,303.200 275.000 C 302.980 275.136,302.800 275.867,302.800 276.624 C 302.800 277.381,302.620 278.000,302.400 278.000 C 302.180 278.000,302.000 278.720,302.000 279.600 C 302.000 280.480,301.820 281.200,301.600 281.200 C 301.380 281.200,301.200 281.819,301.200 282.576 C 301.200 283.333,301.039 284.052,300.842 284.174 C 300.645 284.295,300.382 285.071,300.258 285.897 C 299.728 289.407,299.492 290.420,299.156 290.627 C 298.960 290.748,298.800 291.456,298.800 292.200 C 298.800 292.944,298.620 293.664,298.400 293.800 C 298.180 293.936,298.000 294.656,298.000 295.400 C 298.000 296.144,297.820 296.864,297.600 297.000 C 297.380 297.136,297.200 297.856,297.200 298.600 C 297.200 299.344,297.040 300.052,296.844 300.173 C 296.649 300.294,296.392 300.979,296.273 301.696 C 296.155 302.413,295.873 303.720,295.647 304.600 C 294.634 308.549,294.313 309.970,293.872 312.469 C 293.612 313.936,293.265 315.271,293.100 315.435 C 292.935 315.599,292.800 316.323,292.800 317.043 C 292.800 317.763,292.620 318.464,292.400 318.600 C 292.180 318.736,292.000 319.456,292.000 320.200 C 292.000 320.944,291.820 321.664,291.600 321.800 C 291.380 321.936,291.200 322.667,291.200 323.424 C 291.200 324.181,291.020 324.800,290.800 324.800 C 290.580 324.800,290.400 325.520,290.400 326.400 C 290.400 327.280,290.220 328.000,290.000 328.000 C 289.780 328.000,289.600 328.720,289.600 329.600 C 289.600 330.480,289.420 331.200,289.200 331.200 C 288.980 331.200,288.800 331.819,288.800 332.576 C 288.800 333.333,288.620 334.064,288.400 334.200 C 288.180 334.336,288.000 335.056,288.000 335.800 C 288.000 336.544,287.820 337.264,287.600 337.400 C 287.380 337.536,287.200 338.256,287.200 339.000 C 287.200 339.744,287.020 340.464,286.800 340.600 C 286.580 340.736,286.400 341.467,286.400 342.224 C 286.400 342.981,286.220 343.600,286.000 343.600 C 285.780 343.600,285.600 344.309,285.600 345.176 C 285.600 346.043,285.420 346.864,285.200 347.000 C 284.980 347.136,284.800 347.867,284.800 348.624 C 284.800 349.381,284.620 350.000,284.400 350.000 C 284.180 350.000,284.000 350.630,284.000 351.400 C 284.000 352.170,283.899 352.800,283.775 352.800 C 283.651 352.800,264.309 333.558,240.793 310.040 L 198.037 267.280 199.219 266.043 C 199.868 265.364,200.400 264.624,200.400 264.400 C 200.400 264.176,200.940 263.428,201.600 262.737 C 202.260 262.046,202.800 261.278,202.800 261.029 C 202.800 260.780,203.160 260.317,203.600 260.000 C 204.040 259.683,204.400 259.278,204.400 259.100 C 204.400 258.922,205.300 257.617,206.400 256.200 C 207.500 254.783,208.400 253.446,208.400 253.230 C 208.400 253.013,208.850 252.386,209.400 251.836 C 209.950 251.286,210.400 250.640,210.400 250.400 C 210.400 250.160,210.850 249.514,211.400 248.964 C 211.950 248.414,212.400 247.800,212.400 247.600 C 212.400 247.400,212.850 246.786,213.400 246.236 C 213.950 245.686,214.400 245.040,214.400 244.800 C 214.400 244.560,214.805 243.944,215.300 243.432 C 216.774 241.907,217.600 240.816,217.600 240.395 C 217.600 240.178,217.780 240.000,218.000 240.000 C 218.220 240.000,218.400 239.818,218.400 239.596 C 218.400 239.374,218.940 238.628,219.600 237.937 C 220.260 237.246,220.800 236.438,220.800 236.141 C 220.800 235.843,220.950 235.600,221.132 235.600 C 221.315 235.600,221.720 235.105,222.032 234.500 C 222.345 233.895,222.930 233.040,223.334 232.600 C 223.738 232.160,224.342 231.277,224.676 230.638 C 225.011 229.998,225.626 229.109,226.043 228.662 C 226.459 228.215,226.800 227.653,226.800 227.413 C 226.800 227.173,227.160 226.717,227.600 226.400 C 228.040 226.083,228.400 225.670,228.400 225.483 C 228.400 225.296,228.625 224.906,228.900 224.616 C 229.955 223.504,230.800 222.378,230.800 222.084 C 230.800 221.915,231.160 221.517,231.600 221.200 C 232.040 220.883,232.400 220.391,232.400 220.108 C 232.400 219.825,232.940 219.028,233.600 218.337 C 234.260 217.646,234.800 216.878,234.800 216.629 C 234.800 216.380,235.160 215.917,235.600 215.600 C 236.040 215.283,236.400 214.791,236.400 214.508 C 236.400 214.225,236.940 213.428,237.600 212.737 C 238.260 212.046,238.800 211.253,238.800 210.974 C 238.800 210.695,238.935 210.407,239.100 210.333 C 239.586 210.118,241.600 207.292,241.600 206.827 C 241.600 206.592,241.780 206.400,242.000 206.400 C 242.220 206.400,242.400 206.170,242.400 205.888 C 242.400 205.607,242.760 205.117,243.200 204.800 C 243.640 204.483,244.000 203.993,244.000 203.712 C 244.000 203.430,244.180 203.200,244.400 203.200 C 244.620 203.200,244.800 202.970,244.800 202.688 C 244.800 202.407,245.160 201.917,245.600 201.600 C 246.040 201.283,246.400 200.791,246.400 200.508 C 246.400 200.225,246.940 199.428,247.600 198.737 C 248.260 198.046,248.800 197.278,248.800 197.029 C 248.800 196.780,249.160 196.317,249.600 196.000 C 250.040 195.683,250.400 195.169,250.400 194.859 C 250.400 194.548,250.715 194.003,251.100 193.647 C 252.216 192.615,254.400 189.687,254.400 189.223 C 254.400 188.991,254.535 188.799,254.700 188.797 C 254.865 188.796,255.450 188.121,256.000 187.297 C 256.550 186.474,257.313 185.453,257.695 185.029 C 258.078 184.606,258.509 183.886,258.653 183.429 C 258.797 182.973,259.249 182.309,259.657 181.953 C 260.066 181.597,260.400 181.101,260.400 180.849 C 260.400 180.598,260.940 179.828,261.600 179.137 C 262.260 178.446,262.800 177.678,262.800 177.429 C 262.800 177.180,263.160 176.717,263.600 176.400 C 264.040 176.083,264.400 175.670,264.400 175.483 C 264.400 175.296,264.625 174.906,264.900 174.616 C 265.955 173.504,266.800 172.378,266.800 172.084 C 266.800 171.915,267.160 171.517,267.600 171.200 C 268.040 170.883,268.400 170.438,268.401 170.212 C 268.401 169.985,268.941 169.170,269.600 168.400 C 270.259 167.630,270.799 166.815,270.799 166.588 C 270.800 166.362,271.160 165.917,271.600 165.600 C 272.040 165.283,272.400 164.827,272.400 164.587 C 272.400 164.347,272.741 163.785,273.157 163.338 C 273.574 162.891,274.231 161.912,274.617 161.162 C 275.003 160.413,275.652 159.509,276.059 159.153 C 276.467 158.797,276.800 158.302,276.800 158.053 C 276.800 157.804,276.950 157.600,277.132 157.600 C 277.315 157.600,277.720 157.108,278.032 156.507 C 278.345 155.906,279.095 154.889,279.700 154.248 C 280.305 153.606,280.800 152.878,280.800 152.629 C 280.800 152.380,281.160 151.917,281.600 151.600 C 282.040 151.283,282.400 150.820,282.400 150.571 C 282.400 150.322,282.940 149.554,283.600 148.863 C 284.260 148.172,284.800 147.375,284.800 147.092 C 284.800 146.809,285.160 146.317,285.600 146.000 C 286.040 145.683,286.400 145.220,286.400 144.971 C 286.400 144.722,286.940 143.954,287.600 143.263 C 288.260 142.572,288.800 141.917,288.800 141.807 C 288.800 141.628,290.995 138.553,292.005 137.317 C 292.222 137.051,292.400 136.645,292.400 136.413 C 292.400 136.182,292.940 135.428,293.600 134.737 C 294.260 134.046,294.800 133.278,294.800 133.029 C 294.800 132.780,295.160 132.317,295.600 132.000 C 296.040 131.683,296.400 131.175,296.400 130.872 C 296.400 130.569,296.940 129.817,297.600 129.200 C 298.260 128.583,298.800 127.873,298.800 127.621 C 298.800 127.370,299.237 126.727,299.771 126.193 C 300.305 125.659,301.064 124.677,301.457 124.011 C 301.851 123.345,302.314 122.800,302.486 122.800 C 302.659 122.800,302.800 122.530,302.800 122.200 C 302.800 121.870,302.938 121.600,303.106 121.600 C 303.274 121.600,303.856 120.880,304.400 120.000 C 304.944 119.120,305.514 118.400,305.667 118.400 C 305.821 118.400,306.055 118.056,306.188 117.637 C 306.322 117.217,306.961 116.272,307.609 115.537 C 308.257 114.801,308.790 113.925,308.794 113.588 C 308.797 113.252,309.160 112.717,309.600 112.400 C 310.040 112.083,310.400 111.575,310.400 111.272 C 310.400 110.969,310.940 110.217,311.600 109.600 C 312.260 108.983,312.800 108.281,312.800 108.040 C 312.800 107.798,312.941 107.600,313.114 107.600 C 313.286 107.600,313.721 107.105,314.079 106.500 C 314.437 105.895,315.196 104.860,315.765 104.200 C 316.334 103.540,316.799 102.815,316.800 102.588 C 316.800 102.362,317.160 101.917,317.600 101.600 C 318.040 101.283,318.400 100.820,318.400 100.571 C 318.400 100.322,318.940 99.554,319.600 98.863 C 320.260 98.172,320.800 97.402,320.800 97.151 C 320.800 96.899,321.123 96.403,321.518 96.047 C 322.473 95.186,323.994 92.528,323.700 92.233 C 323.186 91.719,321.743 92.046,321.200 92.800 C 320.883 93.240,320.331 93.600,319.973 93.600 C 319.615 93.600,318.890 93.976,318.361 94.435 C 317.833 94.895,316.905 95.563,316.300 95.921 C 315.695 96.280,315.200 96.714,315.200 96.886 C 315.200 97.059,314.975 97.203,314.700 97.207 C 314.190 97.215,312.197 98.684,310.506 100.300 C 309.988 100.795,309.342 101.200,309.070 101.200 C 308.799 101.200,308.317 101.560,308.000 102.000 C 307.683 102.440,307.220 102.800,306.971 102.800 C 306.722 102.800,305.954 103.340,305.263 104.000 C 304.572 104.660,303.775 105.200,303.492 105.200 C 303.209 105.200,302.717 105.560,302.400 106.000 C 302.083 106.440,301.620 106.800,301.371 106.800 C 301.122 106.800,300.354 107.340,299.663 108.000 C 298.972 108.660,298.151 109.200,297.837 109.200 C 297.523 109.200,297.207 109.353,297.133 109.540 C 297.060 109.727,296.235 110.360,295.300 110.945 C 294.365 111.531,293.600 112.188,293.600 112.405 C 293.600 112.622,293.322 112.800,292.982 112.800 C 292.642 112.800,291.914 113.250,291.364 113.800 C 290.814 114.350,290.200 114.800,290.000 114.800 C 289.800 114.800,289.186 115.250,288.636 115.800 C 288.086 116.350,287.440 116.800,287.200 116.800 C 286.960 116.800,286.314 117.250,285.764 117.800 C 285.214 118.350,284.600 118.800,284.400 118.800 C 284.200 118.800,283.623 119.205,283.118 119.700 C 282.613 120.195,281.705 120.855,281.100 121.168 C 280.495 121.480,280.000 121.885,280.000 122.068 C 280.000 122.250,279.730 122.400,279.400 122.400 C 279.070 122.400,278.800 122.580,278.800 122.800 C 278.800 123.020,278.542 123.200,278.227 123.200 C 277.912 123.200,277.540 123.560,277.400 124.000 C 277.260 124.440,276.838 124.800,276.461 124.800 C 276.085 124.800,275.517 125.160,275.200 125.600 C 274.883 126.040,274.386 126.400,274.095 126.400 C 273.804 126.400,273.349 126.583,273.083 126.807 C 271.286 128.323,270.644 128.800,270.401 128.800 C 270.249 128.800,269.601 129.250,268.962 129.800 C 268.323 130.349,267.615 130.799,267.388 130.800 C 267.162 130.800,266.717 131.160,266.400 131.600 C 266.083 132.040,265.638 132.400,265.412 132.400 C 265.185 132.401,264.460 132.866,263.800 133.435 C 263.140 134.004,262.105 134.763,261.500 135.121 C 260.895 135.479,260.400 135.914,260.400 136.086 C 260.400 136.259,260.170 136.400,259.888 136.400 C 259.607 136.400,259.117 136.760,258.800 137.200 C 258.483 137.640,258.020 138.000,257.771 138.000 C 257.522 138.000,256.754 138.540,256.063 139.200 C 255.372 139.860,254.575 140.400,254.292 140.400 C 254.009 140.400,253.517 140.760,253.200 141.200 C 252.883 141.640,252.438 142.000,252.212 142.000 C 251.985 142.001,251.277 142.451,250.638 143.000 C 249.999 143.550,249.349 144.000,249.195 144.000 C 249.041 144.000,247.711 144.900,246.239 146.000 C 244.767 147.100,243.431 148.000,243.270 148.000 C 243.109 148.000,242.717 148.360,242.400 148.800 C 242.083 149.240,241.620 149.600,241.371 149.600 C 241.122 149.600,240.354 150.140,239.663 150.800 C 238.972 151.460,238.175 152.000,237.892 152.000 C 237.609 152.000,237.117 152.360,236.800 152.800 C 236.483 153.240,236.020 153.600,235.771 153.600 C 235.522 153.600,234.754 154.140,234.063 154.800 C 233.372 155.460,232.575 156.000,232.292 156.000 C 232.009 156.000,231.517 156.360,231.200 156.800 C 230.883 157.240,230.393 157.600,230.112 157.600 C 229.830 157.600,229.600 157.780,229.600 158.000 C 229.600 158.220,229.370 158.400,229.088 158.400 C 228.807 158.400,228.317 158.760,228.000 159.200 C 227.683 159.640,227.221 160.000,226.973 160.000 C 226.725 160.000,226.107 160.360,225.600 160.800 C 225.093 161.240,224.533 161.600,224.357 161.600 C 224.181 161.600,223.586 162.050,223.036 162.600 C 222.486 163.150,221.893 163.600,221.718 163.600 C 221.543 163.601,220.877 164.051,220.238 164.600 C 219.599 165.150,218.932 165.600,218.756 165.600 C 218.580 165.600,218.023 166.005,217.518 166.500 C 217.013 166.995,216.105 167.655,215.500 167.968 C 214.895 168.280,214.400 168.685,214.400 168.868 C 214.400 169.050,214.207 169.200,213.971 169.200 C 213.736 169.200,213.306 169.425,213.016 169.700 C 211.904 170.755,210.778 171.600,210.484 171.600 C 210.315 171.600,209.917 171.960,209.600 172.400 C 209.283 172.840,208.775 173.200,208.472 173.200 C 208.169 173.200,207.417 173.740,206.800 174.400 C 206.183 175.060,205.431 175.600,205.128 175.600 C 204.825 175.600,204.317 175.960,204.000 176.400 C 203.683 176.840,203.146 177.200,202.808 177.200 C 202.469 177.200,201.707 177.650,201.113 178.200 C 200.520 178.750,199.892 179.200,199.717 179.200 C 199.543 179.201,198.860 179.666,198.200 180.235 C 197.540 180.804,196.505 181.563,195.900 181.921 C 195.295 182.279,194.800 182.714,194.800 182.886 C 194.800 183.059,194.570 183.200,194.288 183.200 C 194.007 183.200,193.517 183.560,193.200 184.000 C 192.883 184.440,192.420 184.800,192.171 184.800 C 191.922 184.800,191.154 185.340,190.463 186.000 C 189.772 186.660,188.975 187.200,188.692 187.200 C 188.409 187.200,187.917 187.560,187.600 188.000 C 187.283 188.440,186.820 188.800,186.571 188.800 C 186.322 188.800,185.554 189.340,184.863 190.000 C 184.172 190.660,183.375 191.200,183.092 191.200 C 182.809 191.200,182.317 191.560,182.000 192.000 C 181.683 192.440,181.193 192.800,180.912 192.800 C 180.630 192.800,180.400 192.980,180.400 193.200 C 180.400 193.420,180.208 193.600,179.973 193.600 C 179.565 193.600,177.183 195.248,176.071 196.300 C 175.781 196.575,175.384 196.800,175.190 196.800 C 174.995 196.800,174.386 197.250,173.836 197.800 C 173.286 198.350,172.598 198.800,172.306 198.800 C 172.015 198.800,171.517 199.160,171.200 199.600 C 170.883 200.040,170.420 200.400,170.171 200.400 C 169.922 200.400,169.154 200.940,168.463 201.600 C 167.772 202.260,166.975 202.800,166.692 202.800 C 166.409 202.800,165.917 203.160,165.600 203.600 C 165.283 204.040,164.793 204.400,164.512 204.400 C 164.230 204.400,164.000 204.580,164.000 204.800 C 164.000 205.020,163.770 205.200,163.488 205.200 C 163.207 205.200,162.717 205.560,162.400 206.000 C 162.083 206.440,161.595 206.800,161.315 206.800 C 161.036 206.800,160.582 207.160,160.307 207.600 C 160.032 208.040,159.573 208.400,159.286 208.400 C 158.999 208.400,158.314 208.850,157.764 209.400 C 157.214 209.950,156.547 210.400,156.282 210.400 C 156.017 210.401,155.277 210.851,154.638 211.400 C 153.999 211.950,153.332 212.400,153.156 212.400 C 152.980 212.400,152.386 212.850,151.836 213.400 C 151.286 213.950,150.693 214.400,150.518 214.401 C 150.343 214.401,149.570 214.941,148.800 215.600 C 148.030 216.259,147.215 216.799,146.988 216.799 C 146.762 216.800,146.317 217.160,146.000 217.600 C 145.683 218.040,145.233 218.400,145.000 218.400 C 144.767 218.400,144.317 218.760,144.000 219.200 C 143.683 219.640,143.220 220.000,142.971 220.000 C 142.722 220.000,141.954 220.540,141.263 221.200 C 140.572 221.860,139.775 222.400,139.492 222.400 C 139.209 222.400,138.717 222.760,138.400 223.200 C 138.083 223.640,137.620 224.000,137.371 224.000 C 137.122 224.000,136.354 224.540,135.663 225.200 C 134.972 225.860,134.136 226.400,133.804 226.400 C 133.472 226.400,133.196 226.535,133.192 226.700 C 133.188 226.865,132.288 227.532,131.192 228.183 C 130.096 228.833,129.200 229.508,129.200 229.683 C 129.200 229.857,128.970 230.000,128.688 230.000 C 128.407 230.000,127.917 230.360,127.600 230.800 C 126.985 231.653,124.650 231.928,124.200 231.200 C 124.064 230.980,123.423 230.800,122.776 230.800 C 122.129 230.800,121.600 230.620,121.600 230.400 C 121.600 230.180,121.148 230.000,120.595 230.000 C 120.042 230.000,119.277 229.842,118.895 229.649 C 117.728 229.060,115.392 228.400,114.472 228.400 C 113.992 228.400,113.600 228.238,113.600 228.039 C 113.600 227.841,112.520 227.553,111.200 227.400 C 109.880 227.247,108.800 226.959,108.800 226.761 C 108.800 226.562,108.170 226.400,107.400 226.400 C 106.630 226.400,106.000 226.220,106.000 226.000 C 106.000 225.780,105.460 225.600,104.800 225.600 C 104.140 225.600,103.600 225.420,103.600 225.200 C 103.600 224.980,103.060 224.800,102.400 224.800 C 101.740 224.800,101.200 224.620,101.200 224.400 C 101.200 224.180,100.480 224.000,99.600 224.000 C 98.720 224.000,98.000 223.820,98.000 223.600 C 98.000 223.380,97.460 223.200,96.800 223.200 C 96.140 223.200,95.600 223.020,95.600 222.800 C 95.600 222.580,95.060 222.400,94.400 222.400 C 93.740 222.400,93.200 222.220,93.200 222.000 C 93.200 221.780,92.570 221.600,91.800 221.600 C 91.030 221.600,90.400 221.420,90.400 221.200 C 90.400 220.980,89.860 220.800,89.200 220.800 C 88.540 220.800,88.000 220.620,88.000 220.400 C 88.000 220.180,87.471 220.000,86.824 220.000 C 86.177 220.000,85.536 219.820,85.400 219.600 C 85.264 219.380,84.533 219.200,83.776 219.200 C 83.019 219.200,82.400 219.020,82.400 218.800 C 82.400 218.580,81.860 218.400,81.200 218.400 C 80.540 218.400,80.000 218.220,80.000 218.000 C 80.000 217.780,79.460 217.600,78.800 217.600 C 78.140 217.600,77.600 217.420,77.600 217.200 C 77.600 216.980,76.981 216.800,76.224 216.800 C 75.467 216.800,74.736 216.620,74.600 216.400 C 74.464 216.180,73.924 216.000,73.400 216.000 C 72.876 216.000,72.336 215.820,72.200 215.600 C 72.064 215.380,71.524 215.200,71.000 215.200 C 70.476 215.200,69.936 215.020,69.800 214.800 C 69.664 214.580,68.933 214.400,68.176 214.400 C 67.419 214.400,66.800 214.220,66.800 214.000 C 66.800 213.780,66.260 213.600,65.600 213.600 C 64.940 213.600,64.400 213.440,64.400 213.244 C 64.400 212.907,63.951 212.790,60.300 212.168 C 59.475 212.027,58.800 211.752,58.800 211.556 C 58.800 211.360,58.530 211.200,58.200 211.200 C 57.870 211.200,57.600 211.020,57.600 210.800 C 57.600 210.580,57.870 210.400,58.200 210.400 C 58.530 210.400,58.800 210.220,58.800 210.000 C 58.800 209.780,59.160 209.600,59.600 209.600 C 60.040 209.600,60.400 209.420,60.400 209.200 C 60.400 208.980,60.691 208.800,61.046 208.800 C 61.762 208.800,65.723 206.774,65.933 206.300 C 66.007 206.135,66.397 206.000,66.800 206.000 C 67.203 206.000,67.593 205.865,67.667 205.700 C 67.780 205.445,70.550 203.909,73.897 202.246 C 74.390 202.001,74.795 201.665,74.797 201.500 C 74.799 201.335,75.070 201.200,75.400 201.200 C 75.730 201.200,76.000 201.020,76.000 200.800 C 76.000 200.580,76.360 200.400,76.800 200.400 C 77.240 200.400,77.600 200.220,77.600 200.000 C 77.600 199.780,77.960 199.600,78.400 199.600 C 78.840 199.600,79.200 199.420,79.200 199.200 C 79.200 198.980,79.560 198.800,80.000 198.800 C 80.440 198.800,80.800 198.620,80.800 198.400 C 80.800 198.180,81.078 198.000,81.417 198.000 C 81.756 198.000,82.420 197.640,82.892 197.200 C 83.364 196.760,83.987 196.400,84.275 196.400 C 84.564 196.400,84.800 196.220,84.800 196.000 C 84.800 195.780,85.160 195.600,85.600 195.600 C 86.040 195.600,86.400 195.420,86.400 195.200 C 86.400 194.980,86.760 194.800,87.200 194.800 C 87.640 194.800,88.000 194.620,88.000 194.400 C 88.000 194.180,88.360 194.000,88.800 194.000 C 89.240 194.000,89.600 193.820,89.600 193.600 C 89.600 193.380,89.870 193.200,90.200 193.200 C 90.530 193.200,90.800 193.020,90.800 192.800 C 90.800 192.580,91.083 192.400,91.429 192.400 C 91.774 192.400,92.327 192.130,92.657 191.800 C 92.987 191.470,93.604 191.200,94.029 191.200 C 94.453 191.200,94.800 191.020,94.800 190.800 C 94.800 190.580,95.160 190.400,95.600 190.400 C 96.040 190.400,96.400 190.220,96.400 190.000 C 96.400 189.780,96.760 189.600,97.200 189.600 C 97.640 189.600,98.001 189.465,98.003 189.300 C 98.005 189.135,98.410 188.813,98.903 188.583 C 100.766 187.718,103.405 186.189,103.533 185.900 C 103.607 185.735,104.012 185.600,104.433 185.600 C 104.855 185.600,105.201 185.465,105.201 185.300 C 105.202 185.135,106.192 184.550,107.400 184.000 C 108.608 183.450,109.598 182.865,109.599 182.700 C 109.599 182.535,109.836 182.400,110.125 182.400 C 110.413 182.400,111.036 182.040,111.508 181.600 C 111.980 181.160,112.644 180.800,112.983 180.800 C 113.322 180.800,113.600 180.620,113.600 180.400 C 113.600 180.180,113.960 180.000,114.400 180.000 C 114.840 180.000,115.200 179.820,115.200 179.600 C 115.200 179.380,115.560 179.200,116.000 179.200 C 116.440 179.200,116.800 179.020,116.800 178.800 C 116.800 178.580,117.160 178.400,117.600 178.400 C 118.040 178.400,118.400 178.241,118.400 178.047 C 118.400 177.852,118.715 177.593,119.100 177.471 C 119.880 177.224,122.090 175.938,122.400 175.550 C 122.510 175.413,123.185 175.174,123.900 175.018 C 124.615 174.863,125.203 174.616,125.206 174.468 C 125.210 174.321,126.470 173.574,128.006 172.809 C 129.543 172.044,130.800 171.279,130.800 171.109 C 130.800 170.939,131.160 170.800,131.600 170.800 C 132.040 170.800,132.400 170.620,132.400 170.400 C 132.400 170.180,132.760 170.000,133.200 170.000 C 133.640 170.000,134.000 169.820,134.000 169.600 C 134.000 169.380,134.360 169.200,134.800 169.200 C 135.240 169.200,135.600 169.054,135.600 168.875 C 135.600 168.696,136.230 168.302,137.000 168.000 C 137.770 167.698,138.400 167.338,138.400 167.200 C 138.400 167.062,139.030 166.702,139.800 166.400 C 140.570 166.098,141.200 165.704,141.200 165.525 C 141.200 165.346,141.470 165.200,141.800 165.200 C 142.130 165.200,142.400 165.020,142.400 164.800 C 142.400 164.580,142.760 164.400,143.200 164.400 C 143.640 164.400,144.000 164.220,144.000 164.000 C 144.000 163.780,144.360 163.600,144.800 163.600 C 145.240 163.600,145.600 163.420,145.600 163.200 C 145.600 162.980,145.960 162.800,146.400 162.800 C 146.840 162.800,147.200 162.620,147.200 162.400 C 147.200 162.180,147.436 162.000,147.725 162.000 C 148.013 162.000,148.636 161.640,149.108 161.200 C 149.580 160.760,150.244 160.400,150.583 160.400 C 150.922 160.400,151.200 160.220,151.200 160.000 C 151.200 159.780,151.560 159.600,152.000 159.600 C 152.440 159.600,152.800 159.420,152.800 159.200 C 152.800 158.980,153.126 158.800,153.524 158.800 C 153.921 158.800,155.293 158.170,156.572 157.400 C 157.851 156.630,159.055 156.000,159.248 156.000 C 159.442 156.000,159.600 155.820,159.600 155.600 C 159.600 155.380,159.960 155.200,160.400 155.200 C 160.840 155.200,161.200 155.020,161.200 154.800 C 161.200 154.580,161.560 154.400,162.000 154.400 C 162.440 154.400,162.800 154.220,162.800 154.000 C 162.800 153.780,163.145 153.600,163.567 153.600 C 163.988 153.600,164.393 153.465,164.467 153.300 C 164.540 153.135,165.455 152.567,166.500 152.037 C 167.545 151.508,168.400 150.923,168.400 150.737 C 168.400 150.552,168.760 150.400,169.200 150.400 C 169.640 150.400,170.000 150.220,170.000 150.000 C 170.000 149.780,170.360 149.600,170.800 149.600 C 171.240 149.600,171.601 149.465,171.601 149.300 C 171.602 149.135,172.592 148.550,173.800 148.000 C 175.008 147.450,175.998 146.865,175.999 146.700 C 175.999 146.535,176.236 146.400,176.525 146.400 C 176.813 146.400,177.436 146.040,177.908 145.600 C 178.380 145.160,179.044 144.800,179.383 144.800 C 179.722 144.800,180.000 144.620,180.000 144.400 C 180.000 144.180,180.360 144.000,180.800 144.000 C 181.240 144.000,181.600 143.820,181.600 143.600 C 181.600 143.380,181.960 143.200,182.400 143.200 C 182.840 143.200,183.200 143.020,183.200 142.800 C 183.200 142.580,183.560 142.400,184.000 142.400 C 184.440 142.400,184.800 142.234,184.800 142.032 C 184.800 141.829,185.340 141.545,186.000 141.400 C 186.660 141.255,187.201 141.016,187.201 140.868 C 187.202 140.721,188.192 140.150,189.400 139.600 C 190.608 139.050,191.598 138.465,191.599 138.300 C 191.599 138.135,191.960 138.000,192.400 138.000 C 192.840 138.000,193.200 137.841,193.200 137.647 C 193.200 137.452,193.515 137.193,193.900 137.071 C 194.836 136.775,196.966 135.476,197.133 135.100 C 197.207 134.935,197.612 134.800,198.033 134.800 C 198.455 134.800,198.800 134.620,198.800 134.400 C 198.800 134.180,199.160 134.000,199.600 134.000 C 200.040 134.000,200.400 133.820,200.400 133.600 C 200.400 133.380,200.760 133.200,201.200 133.200 C 201.640 133.200,202.000 133.054,202.000 132.875 C 202.000 132.696,202.630 132.302,203.400 132.000 C 204.170 131.698,204.800 131.304,204.800 131.125 C 204.800 130.946,205.070 130.800,205.400 130.800 C 205.730 130.800,206.000 130.620,206.000 130.400 C 206.000 130.180,206.360 130.000,206.800 130.000 C 207.240 130.000,207.600 129.820,207.600 129.600 C 207.600 129.380,207.870 129.200,208.200 129.200 C 208.530 129.200,208.800 129.020,208.800 128.800 C 208.800 128.580,209.160 128.400,209.600 128.400 C 210.040 128.400,210.400 128.220,210.400 128.000 C 210.400 127.780,210.760 127.600,211.200 127.600 C 211.640 127.600,212.000 127.420,212.000 127.200 C 212.000 126.980,212.360 126.800,212.800 126.800 C 213.240 126.800,213.600 126.620,213.600 126.400 C 213.600 126.180,213.870 126.000,214.200 126.000 C 214.530 126.000,214.800 125.820,214.800 125.600 C 214.800 125.380,215.025 125.200,215.300 125.199 C 215.575 125.198,217.420 124.367,219.400 123.352 C 221.380 122.336,223.404 121.302,223.897 121.053 C 224.390 120.804,224.795 120.465,224.797 120.300 C 224.799 120.135,225.070 120.000,225.400 120.000 C 225.730 120.000,226.000 119.820,226.000 119.600 C 226.000 119.380,226.360 119.200,226.800 119.200 C 227.240 119.200,227.600 119.020,227.600 118.800 C 227.600 118.580,227.960 118.400,228.400 118.400 C 228.840 118.400,229.200 118.220,229.200 118.000 C 229.200 117.780,229.560 117.600,230.000 117.600 C 230.440 117.600,230.800 117.441,230.800 117.247 C 230.800 117.052,231.115 116.793,231.500 116.671 C 232.436 116.375,234.566 115.076,234.733 114.700 C 234.807 114.535,235.212 114.400,235.633 114.400 C 236.055 114.400,236.400 114.220,236.400 114.000 C 236.400 113.780,236.760 113.600,237.200 113.600 C 237.640 113.600,238.000 113.420,238.000 113.200 C 238.000 112.980,238.360 112.800,238.800 112.800 C 239.240 112.800,239.600 112.620,239.600 112.400 C 239.600 112.180,239.870 112.000,240.200 112.000 C 240.530 112.000,240.800 111.820,240.800 111.600 C 240.800 111.380,241.078 111.200,241.417 111.200 C 241.756 111.200,242.420 110.840,242.892 110.400 C 243.364 109.960,243.987 109.600,244.275 109.600 C 244.564 109.600,244.800 109.420,244.800 109.200 C 244.800 108.980,245.115 108.799,245.500 108.798 C 245.885 108.796,246.687 108.541,247.281 108.231 C 251.763 105.893,253.427 104.990,253.600 104.801 C 253.710 104.682,255.060 103.961,256.600 103.200 C 258.140 102.439,259.490 101.722,259.600 101.607 C 259.710 101.493,260.295 101.144,260.900 100.832 C 261.505 100.520,262.000 100.115,262.000 99.932 C 262.000 99.750,262.360 99.600,262.800 99.600 C 263.240 99.600,263.600 99.420,263.600 99.200 C 263.600 98.980,263.960 98.800,264.400 98.800 C 264.840 98.800,265.200 98.620,265.200 98.400 C 265.200 98.180,265.560 98.000,266.000 98.000 C 266.440 98.000,266.800 97.820,266.800 97.600 C 266.800 97.380,267.160 97.200,267.600 97.200 C 268.040 97.200,268.400 97.041,268.400 96.847 C 268.400 96.652,268.715 96.393,269.100 96.271 C 270.036 95.975,272.166 94.676,272.333 94.300 C 272.407 94.135,272.812 94.000,273.233 94.000 C 273.655 94.000,274.000 93.820,274.000 93.600 C 274.000 93.380,274.270 93.200,274.600 93.200 C 274.930 93.200,275.200 93.020,275.200 92.800 C 275.200 92.580,275.560 92.400,276.000 92.400 C 276.440 92.400,276.800 92.220,276.800 92.000 C 276.800 91.780,277.064 91.600,277.386 91.600 C 278.199 91.600,280.800 90.324,280.800 89.926 C 280.800 89.747,281.160 89.600,281.600 89.600 C 282.040 89.600,282.400 89.420,282.400 89.200 C 282.400 88.980,282.760 88.800,283.200 88.800 C 283.640 88.800,284.000 88.620,284.000 88.400 C 284.000 88.180,284.360 88.000,284.800 88.000 C 285.240 88.000,285.600 87.854,285.600 87.675 C 285.600 87.496,286.230 87.102,287.000 86.800 C 287.770 86.498,288.400 86.138,288.400 86.000 C 288.400 85.862,289.030 85.502,289.800 85.200 C 290.570 84.898,291.200 84.504,291.200 84.325 C 291.200 84.146,291.470 84.000,291.800 84.000 C 292.130 84.000,292.400 83.820,292.400 83.600 C 292.400 83.380,292.760 83.200,293.200 83.200 C 293.640 83.200,294.000 83.020,294.000 82.800 C 294.000 82.580,294.360 82.400,294.800 82.400 C 295.240 82.400,295.600 82.220,295.600 82.000 C 295.600 81.780,295.960 81.600,296.400 81.600 C 296.840 81.600,297.200 81.420,297.200 81.200 C 297.200 80.980,297.436 80.800,297.725 80.800 C 298.013 80.800,298.636 80.440,299.108 80.000 C 299.580 79.560,300.244 79.200,300.583 79.200 C 300.922 79.200,301.200 79.020,301.200 78.800 C 301.200 78.580,301.560 78.400,302.000 78.400 C 302.440 78.400,302.800 78.220,302.800 78.000 C 302.800 77.780,303.160 77.600,303.600 77.600 C 304.040 77.600,304.400 77.420,304.400 77.200 C 304.400 76.980,304.760 76.800,305.200 76.800 C 305.640 76.800,306.000 76.620,306.000 76.400 C 306.000 76.180,306.270 76.000,306.600 76.000 C 306.930 76.000,307.200 75.834,307.200 75.632 C 307.200 75.429,307.740 75.145,308.400 75.000 C 309.060 74.855,309.600 74.571,309.600 74.368 C 309.600 74.166,309.960 74.000,310.400 74.000 C 310.840 74.000,311.201 73.865,311.203 73.700 C 311.207 73.341,313.144 72.400,313.880 72.400 C 314.166 72.400,314.403 72.265,314.406 72.100 C 314.410 71.935,315.310 71.360,316.406 70.821 C 317.503 70.283,318.400 69.698,318.400 69.521 C 318.400 69.345,318.760 69.200,319.200 69.200 C 319.640 69.200,320.000 69.020,320.000 68.800 C 320.000 68.580,320.360 68.400,320.800 68.400 C 321.240 68.400,321.601 68.265,321.601 68.100 C 321.602 67.935,322.592 67.350,323.800 66.800 C 325.008 66.250,325.998 65.687,325.999 65.549 C 325.999 65.410,326.540 65.073,327.200 64.800 C 327.860 64.527,328.400 64.145,328.400 63.951 C 328.400 63.758,328.760 63.600,329.200 63.600 C 329.640 63.600,330.000 63.420,330.000 63.200 C 330.000 62.980,330.360 62.800,330.800 62.800 C 331.240 62.800,331.600 62.620,331.600 62.400 C 331.600 62.180,331.960 62.000,332.400 62.000 C 332.840 62.000,333.200 61.820,333.200 61.600 C 333.200 61.380,333.560 61.200,334.000 61.200 C 334.440 61.200,334.800 61.020,334.800 60.800 C 334.800 60.580,335.036 60.400,335.325 60.400 C 335.613 60.400,336.236 60.040,336.708 59.600 C 337.180 59.160,337.772 58.800,338.023 58.800 C 338.515 58.800,341.272 57.583,341.600 57.221 C 341.793 57.007,344.461 55.542,346.297 54.640 C 346.790 54.398,347.195 54.065,347.197 53.900 C 347.199 53.735,347.560 53.600,348.000 53.600 C 348.440 53.600,348.800 53.420,348.800 53.200 C 348.800 52.980,349.160 52.800,349.600 52.800 C 350.040 52.800,350.400 52.620,350.400 52.400 C 350.400 52.180,350.745 52.000,351.167 52.000 C 351.588 52.000,351.993 51.865,352.067 51.700 C 352.234 51.324,354.364 50.025,355.300 49.729 C 355.685 49.607,356.000 49.348,356.000 49.153 C 356.000 48.959,356.360 48.800,356.800 48.800 C 357.240 48.800,357.600 48.620,357.600 48.400 C 357.600 48.180,357.870 48.000,358.200 48.000 C 358.530 48.000,358.800 47.820,358.800 47.600 C 358.800 47.380,359.070 47.200,359.400 47.200 C 359.797 47.200,360.000 47.597,360.000 48.376 " stroke="#000000" fill="none" stroke-width="3" class="FDitShxL_0"></path></g><style data-made-with="vivus-instant">.FDitShxL_0{stroke-dasharray:2744 2746;stroke-dashoffset:2745;animation:FDitShxL_draw_0 7200ms linear 0ms infinite,FDitShxL_fade 7200ms linear 0ms infinite;}@keyframes FDitShxL_draw{100%{stroke-dashoffset:0;}}@keyframes FDitShxL_fade{0%{stroke-opacity:1;}94.44444444444444%{stroke-opacity:1;}100%{stroke-opacity:0;}}@keyframes FDitShxL_draw_0{11.11111111111111%{stroke-dashoffset: 2745}52.77777777777778%{ stroke-dashoffset: 0;}100%{ stroke-dashoffset: 0;}}</style></svg>