<svg id="svg" version="1.1" width="400" height="450" xmlns="http://www.w3.org/2000/svg" xmlns:xlink="http://www.w3.org/1999/xlink" style=""><g id="svgg"><path id="path0" d="M216.040 48.474 C 177.295 54.553,153.403 94.166,166.051 131.355 C 182.774 180.520,249.566 188.961,277.689 145.463 C 307.029 100.081,268.950 40.172,216.040 48.474 M72.672 50.006 C 33.775 60.502,14.505 102.556,32.043 138.672 C 58.761 193.693,140.307 181.388,150.028 120.869 C 157.093 76.884,115.221 38.526,72.672 50.006 M49.411 266.992 L 49.609 351.953 158.398 352.151 L 267.187 352.349 267.188 267.190 L 267.188 182.031 158.200 182.031 L 49.212 182.031 49.411 266.992 M348.633 205.271 L 324.219 224.479 324.219 261.658 L 324.219 298.837 349.028 323.637 C 362.673 337.277,374.099 348.438,374.419 348.438 C 374.738 348.438,375.000 311.875,375.000 267.188 C 375.000 202.675,374.799 185.950,374.023 186.001 C 373.486 186.035,362.061 194.707,348.633 205.271 M280.469 267.188 L 280.469 308.594 296.094 308.594 L 311.719 308.594 311.719 267.188 L 311.719 225.781 296.094 225.781 L 280.469 225.781 280.469 267.188 " stroke="#000000" fill="none" stroke-width="3" class="pQYAnZJh_0"></path></g><style data-made-with="vivus-instant">.pQYAnZJh_0{stroke-dasharray:2164 2166;stroke-dashoffset:2165;animation:pQYAnZJh_draw_0 7200ms linear 0ms infinite,pQYAnZJh_fade 7200ms linear 0ms infinite;}@keyframes pQYAnZJh_draw{100%{stroke-dashoffset:0;}}@keyframes pQYAnZJh_fade{0%{stroke-opacity:1;}94.44444444444444%{stroke-opacity:1;}100%{stroke-opacity:0;}}@keyframes pQYAnZJh_draw_0{11.11111111111111%{stroke-dashoffset: 2165}52.77777777777778%{ stroke-dashoffset: 0;}100%{ stroke-dashoffset: 0;}}</style></svg>