<svg id="svg" version="1.1" width="400" height="400" viewBox="0 0 400 400" xmlns="http://www.w3.org/2000/svg" xmlns:xlink="http://www.w3.org/1999/xlink" style=""><g id="svgg"><path id="path0" d="M194.500 39.779 C 191.907 40.076,188.539 41.081,186.222 42.249 C 182.687 44.032,66.163 108.790,64.398 109.953 C 59.211 113.371,55.291 118.873,53.550 125.181 L 52.875 127.625 52.875 223.750 L 52.875 319.875 53.559 322.357 C 56.128 331.672,63.096 338.619,72.470 341.210 L 74.875 341.875 197.375 341.875 L 319.875 341.875 322.296 341.206 C 331.816 338.576,338.878 331.366,341.325 321.779 L 341.875 319.625 341.875 223.625 L 341.875 127.625 341.191 125.143 C 339.469 118.901,335.459 113.308,330.257 109.894 C 328.480 108.727,211.927 43.971,208.570 42.284 C 205.971 40.979,202.980 40.109,199.916 39.767 C 197.272 39.472,197.182 39.473,194.500 39.779 M129.737 118.905 C 144.671 122.586,149.841 141.069,139.000 152.022 C 125.276 165.889,101.986 153.600,105.523 134.358 C 107.529 123.442,118.845 116.221,129.737 118.905 M280.323 118.928 C 284.898 120.674,287.983 123.948,289.137 128.283 C 289.426 129.371,289.495 132.315,289.497 143.813 L 289.500 158.000 223.600 158.000 L 157.701 158.000 157.823 149.438 C 157.955 140.179,158.041 139.456,159.482 135.510 C 162.796 126.429,171.178 119.777,180.875 118.533 C 181.864 118.407,203.560 118.323,230.750 118.342 L 278.875 118.375 280.323 118.928 M279.589 171.396 C 291.163 174.380,293.086 190.295,282.542 195.836 C 279.094 197.647,286.398 197.511,196.703 197.439 L 115.875 197.375 114.250 196.796 C 101.916 192.405,102.456 174.776,115.028 171.395 C 117.171 170.819,277.354 170.820,279.589 171.396 M130.116 237.387 C 152.218 243.417,147.895 276.309,125.000 276.309 C 100.751 276.309,98.158 240.769,122.125 236.912 C 123.560 236.681,128.634 236.982,130.116 237.387 M279.050 237.023 C 282.535 237.740,286.261 240.526,287.933 243.663 C 289.494 246.592,289.500 246.658,289.500 262.303 L 289.500 276.500 223.625 276.500 L 157.750 276.500 157.751 269.063 C 157.753 260.933,158.006 258.303,159.111 254.934 C 162.125 245.742,170.047 238.887,179.664 237.149 C 182.207 236.690,276.847 236.569,279.050 237.023 M280.268 289.934 C 292.586 294.123,292.489 311.422,280.125 315.323 L 278.375 315.875 197.375 315.875 L 116.375 315.875 114.615 315.321 C 101.046 311.052,102.789 291.136,116.875 289.490 C 117.700 289.394,154.431 289.328,198.500 289.345 L 278.625 289.375 280.268 289.934 " stroke="#000000" fill="none" stroke-width="3" class="kRtkIIYy_0"></path><path id="path1" d="M194.500 39.779 C 191.907 40.076,188.539 41.081,186.222 42.249 C 182.687 44.032,66.163 108.790,64.398 109.953 C 59.211 113.371,55.291 118.873,53.550 125.181 L 52.875 127.625 52.875 223.750 L 52.875 319.875 53.559 322.357 C 56.128 331.672,63.096 338.619,72.470 341.210 L 74.875 341.875 197.375 341.875 L 319.875 341.875 322.296 341.206 C 331.816 338.576,338.878 331.366,341.325 321.779 L 341.875 319.625 341.875 223.625 L 341.875 127.625 341.191 125.143 C 339.469 118.901,335.459 113.308,330.257 109.894 C 328.480 108.727,211.927 43.971,208.570 42.284 C 205.971 40.979,202.980 40.109,199.916 39.767 C 197.272 39.472,197.182 39.473,194.500 39.779 M129.737 118.905 C 144.671 122.586,149.841 141.069,139.000 152.022 C 125.276 165.889,101.986 153.600,105.523 134.358 C 107.529 123.442,118.845 116.221,129.737 118.905 M280.323 118.928 C 284.898 120.674,287.983 123.948,289.137 128.283 C 289.426 129.371,289.495 132.315,289.497 143.813 L 289.500 158.000 223.600 158.000 L 157.701 158.000 157.823 149.438 C 157.955 140.179,158.041 139.456,159.482 135.510 C 162.796 126.429,171.178 119.777,180.875 118.533 C 181.864 118.407,203.560 118.323,230.750 118.342 L 278.875 118.375 280.323 118.928 M279.589 171.396 C 291.163 174.380,293.086 190.295,282.542 195.836 C 279.094 197.647,286.398 197.511,196.703 197.439 L 115.875 197.375 114.250 196.796 C 101.916 192.405,102.456 174.776,115.028 171.395 C 117.171 170.819,277.354 170.820,279.589 171.396 M130.116 237.387 C 152.218 243.417,147.895 276.309,125.000 276.309 C 100.751 276.309,98.158 240.769,122.125 236.912 C 123.560 236.681,128.634 236.982,130.116 237.387 M279.050 237.023 C 282.535 237.740,286.261 240.526,287.933 243.663 C 289.494 246.592,289.500 246.658,289.500 262.303 L 289.500 276.500 223.625 276.500 L 157.750 276.500 157.751 269.063 C 157.753 260.933,158.006 258.303,159.111 254.934 C 162.125 245.742,170.047 238.887,179.664 237.149 C 182.207 236.690,276.847 236.569,279.050 237.023 M280.268 289.934 C 292.586 294.123,292.489 311.422,280.125 315.323 L 278.375 315.875 197.375 315.875 L 116.375 315.875 114.615 315.321 C 101.046 311.052,102.789 291.136,116.875 289.490 C 117.700 289.394,154.431 289.328,198.500 289.345 L 278.625 289.375 280.268 289.934 " stroke="#000000" fill="none" stroke-width="3" class="kRtkIIYy_1"></path><path id="path2" d="M194.500 39.779 C 191.907 40.076,188.539 41.081,186.222 42.249 C 182.687 44.032,66.163 108.790,64.398 109.953 C 59.211 113.371,55.291 118.873,53.550 125.181 L 52.875 127.625 52.875 223.750 L 52.875 319.875 53.559 322.357 C 56.128 331.672,63.096 338.619,72.470 341.210 L 74.875 341.875 197.375 341.875 L 319.875 341.875 322.296 341.206 C 331.816 338.576,338.878 331.366,341.325 321.779 L 341.875 319.625 341.875 223.625 L 341.875 127.625 341.191 125.143 C 339.469 118.901,335.459 113.308,330.257 109.894 C 328.480 108.727,211.927 43.971,208.570 42.284 C 205.971 40.979,202.980 40.109,199.916 39.767 C 197.272 39.472,197.182 39.473,194.500 39.779 M129.737 118.905 C 144.671 122.586,149.841 141.069,139.000 152.022 C 125.276 165.889,101.986 153.600,105.523 134.358 C 107.529 123.442,118.845 116.221,129.737 118.905 M280.323 118.928 C 284.898 120.674,287.983 123.948,289.137 128.283 C 289.426 129.371,289.495 132.315,289.497 143.813 L 289.500 158.000 223.600 158.000 L 157.701 158.000 157.823 149.438 C 157.955 140.179,158.041 139.456,159.482 135.510 C 162.796 126.429,171.178 119.777,180.875 118.533 C 181.864 118.407,203.560 118.323,230.750 118.342 L 278.875 118.375 280.323 118.928 M279.589 171.396 C 291.163 174.380,293.086 190.295,282.542 195.836 C 279.094 197.647,286.398 197.511,196.703 197.439 L 115.875 197.375 114.250 196.796 C 101.916 192.405,102.456 174.776,115.028 171.395 C 117.171 170.819,277.354 170.820,279.589 171.396 M130.116 237.387 C 152.218 243.417,147.895 276.309,125.000 276.309 C 100.751 276.309,98.158 240.769,122.125 236.912 C 123.560 236.681,128.634 236.982,130.116 237.387 M279.050 237.023 C 282.535 237.740,286.261 240.526,287.933 243.663 C 289.494 246.592,289.500 246.658,289.500 262.303 L 289.500 276.500 223.625 276.500 L 157.750 276.500 157.751 269.063 C 157.753 260.933,158.006 258.303,159.111 254.934 C 162.125 245.742,170.047 238.887,179.664 237.149 C 182.207 236.690,276.847 236.569,279.050 237.023 M280.268 289.934 C 292.586 294.123,292.489 311.422,280.125 315.323 L 278.375 315.875 197.375 315.875 L 116.375 315.875 114.615 315.321 C 101.046 311.052,102.789 291.136,116.875 289.490 C 117.700 289.394,154.431 289.328,198.500 289.345 L 278.625 289.375 280.268 289.934 " stroke="#000000" fill="none" stroke-width="3" class="kRtkIIYy_2"></path><path id="path3" d="M194.500 39.779 C 191.907 40.076,188.539 41.081,186.222 42.249 C 182.687 44.032,66.163 108.790,64.398 109.953 C 59.211 113.371,55.291 118.873,53.550 125.181 L 52.875 127.625 52.875 223.750 L 52.875 319.875 53.559 322.357 C 56.128 331.672,63.096 338.619,72.470 341.210 L 74.875 341.875 197.375 341.875 L 319.875 341.875 322.296 341.206 C 331.816 338.576,338.878 331.366,341.325 321.779 L 341.875 319.625 341.875 223.625 L 341.875 127.625 341.191 125.143 C 339.469 118.901,335.459 113.308,330.257 109.894 C 328.480 108.727,211.927 43.971,208.570 42.284 C 205.971 40.979,202.980 40.109,199.916 39.767 C 197.272 39.472,197.182 39.473,194.500 39.779 M129.737 118.905 C 144.671 122.586,149.841 141.069,139.000 152.022 C 125.276 165.889,101.986 153.600,105.523 134.358 C 107.529 123.442,118.845 116.221,129.737 118.905 M280.323 118.928 C 284.898 120.674,287.983 123.948,289.137 128.283 C 289.426 129.371,289.495 132.315,289.497 143.813 L 289.500 158.000 223.600 158.000 L 157.701 158.000 157.823 149.438 C 157.955 140.179,158.041 139.456,159.482 135.510 C 162.796 126.429,171.178 119.777,180.875 118.533 C 181.864 118.407,203.560 118.323,230.750 118.342 L 278.875 118.375 280.323 118.928 M279.589 171.396 C 291.163 174.380,293.086 190.295,282.542 195.836 C 279.094 197.647,286.398 197.511,196.703 197.439 L 115.875 197.375 114.250 196.796 C 101.916 192.405,102.456 174.776,115.028 171.395 C 117.171 170.819,277.354 170.820,279.589 171.396 M130.116 237.387 C 152.218 243.417,147.895 276.309,125.000 276.309 C 100.751 276.309,98.158 240.769,122.125 236.912 C 123.560 236.681,128.634 236.982,130.116 237.387 M279.050 237.023 C 282.535 237.740,286.261 240.526,287.933 243.663 C 289.494 246.592,289.500 246.658,289.500 262.303 L 289.500 276.500 223.625 276.500 L 157.750 276.500 157.751 269.063 C 157.753 260.933,158.006 258.303,159.111 254.934 C 162.125 245.742,170.047 238.887,179.664 237.149 C 182.207 236.690,276.847 236.569,279.050 237.023 M280.268 289.934 C 292.586 294.123,292.489 311.422,280.125 315.323 L 278.375 315.875 197.375 315.875 L 116.375 315.875 114.615 315.321 C 101.046 311.052,102.789 291.136,116.875 289.490 C 117.700 289.394,154.431 289.328,198.500 289.345 L 278.625 289.375 280.268 289.934 " stroke="#000000" fill="none" stroke-width="3" class="kRtkIIYy_3"></path><path id="path4" d="M194.500 39.779 C 191.907 40.076,188.539 41.081,186.222 42.249 C 182.687 44.032,66.163 108.790,64.398 109.953 C 59.211 113.371,55.291 118.873,53.550 125.181 L 52.875 127.625 52.875 223.750 L 52.875 319.875 53.559 322.357 C 56.128 331.672,63.096 338.619,72.470 341.210 L 74.875 341.875 197.375 341.875 L 319.875 341.875 322.296 341.206 C 331.816 338.576,338.878 331.366,341.325 321.779 L 341.875 319.625 341.875 223.625 L 341.875 127.625 341.191 125.143 C 339.469 118.901,335.459 113.308,330.257 109.894 C 328.480 108.727,211.927 43.971,208.570 42.284 C 205.971 40.979,202.980 40.109,199.916 39.767 C 197.272 39.472,197.182 39.473,194.500 39.779 M129.737 118.905 C 144.671 122.586,149.841 141.069,139.000 152.022 C 125.276 165.889,101.986 153.600,105.523 134.358 C 107.529 123.442,118.845 116.221,129.737 118.905 M280.323 118.928 C 284.898 120.674,287.983 123.948,289.137 128.283 C 289.426 129.371,289.495 132.315,289.497 143.813 L 289.500 158.000 223.600 158.000 L 157.701 158.000 157.823 149.438 C 157.955 140.179,158.041 139.456,159.482 135.510 C 162.796 126.429,171.178 119.777,180.875 118.533 C 181.864 118.407,203.560 118.323,230.750 118.342 L 278.875 118.375 280.323 118.928 M279.589 171.396 C 291.163 174.380,293.086 190.295,282.542 195.836 C 279.094 197.647,286.398 197.511,196.703 197.439 L 115.875 197.375 114.250 196.796 C 101.916 192.405,102.456 174.776,115.028 171.395 C 117.171 170.819,277.354 170.820,279.589 171.396 M130.116 237.387 C 152.218 243.417,147.895 276.309,125.000 276.309 C 100.751 276.309,98.158 240.769,122.125 236.912 C 123.560 236.681,128.634 236.982,130.116 237.387 M279.050 237.023 C 282.535 237.740,286.261 240.526,287.933 243.663 C 289.494 246.592,289.500 246.658,289.500 262.303 L 289.500 276.500 223.625 276.500 L 157.750 276.500 157.751 269.063 C 157.753 260.933,158.006 258.303,159.111 254.934 C 162.125 245.742,170.047 238.887,179.664 237.149 C 182.207 236.690,276.847 236.569,279.050 237.023 M280.268 289.934 C 292.586 294.123,292.489 311.422,280.125 315.323 L 278.375 315.875 197.375 315.875 L 116.375 315.875 114.615 315.321 C 101.046 311.052,102.789 291.136,116.875 289.490 C 117.700 289.394,154.431 289.328,198.500 289.345 L 278.625 289.375 280.268 289.934 " stroke="#000000" fill="none" stroke-width="3" class="kRtkIIYy_4"></path></g><style data-made-with="vivus-instant">.kRtkIIYy_0{stroke-dasharray:2739 2741;stroke-dashoffset:2740;animation:kRtkIIYy_draw_0 7200ms linear 0ms infinite,kRtkIIYy_fade 7200ms linear 0ms infinite;}.kRtkIIYy_1{stroke-dasharray:2739 2741;stroke-dashoffset:2740;animation:kRtkIIYy_draw_1 7200ms linear 0ms infinite,kRtkIIYy_fade 7200ms linear 0ms infinite;}.kRtkIIYy_2{stroke-dasharray:2739 2741;stroke-dashoffset:2740;animation:kRtkIIYy_draw_2 7200ms linear 0ms infinite,kRtkIIYy_fade 7200ms linear 0ms infinite;}.kRtkIIYy_3{stroke-dasharray:2739 2741;stroke-dashoffset:2740;animation:kRtkIIYy_draw_3 7200ms linear 0ms infinite,kRtkIIYy_fade 7200ms linear 0ms infinite;}.kRtkIIYy_4{stroke-dasharray:2739 2741;stroke-dashoffset:2740;animation:kRtkIIYy_draw_4 7200ms linear 0ms infinite,kRtkIIYy_fade 7200ms linear 0ms infinite;}@keyframes kRtkIIYy_draw{100%{stroke-dashoffset:0;}}@keyframes kRtkIIYy_fade{0%{stroke-opacity:1;}94.44444444444444%{stroke-opacity:1;}100%{stroke-opacity:0;}}@keyframes kRtkIIYy_draw_0{11.11111111111111%{stroke-dashoffset: 2740}52.77777777777778%{ stroke-dashoffset: 0;}100%{ stroke-dashoffset: 0;}}@keyframes kRtkIIYy_draw_1{11.11111111111111%{stroke-dashoffset: 2740}52.77777777777778%{ stroke-dashoffset: 0;}100%{ stroke-dashoffset: 0;}}@keyframes kRtkIIYy_draw_2{11.11111111111111%{stroke-dashoffset: 2740}52.77777777777778%{ stroke-dashoffset: 0;}100%{ stroke-dashoffset: 0;}}@keyframes kRtkIIYy_draw_3{11.11111111111111%{stroke-dashoffset: 2740}52.77777777777778%{ stroke-dashoffset: 0;}100%{ stroke-dashoffset: 0;}}@keyframes kRtkIIYy_draw_4{11.11111111111111%{stroke-dashoffset: 2740}52.77777777777778%{ stroke-dashoffset: 0;}100%{ stroke-dashoffset: 0;}}</style></svg>