<svg width="400" height="200.2302821" xmlns="http://www.w3.org/2000/svg" style=""><path d="M142.333 6.564v6.563l-1.375.099c-.756.055-7.806.149-15.666.209-7.879.06-14.292.174-14.292.254 0 .079.056.145.125.145s.388.23.708.511c.321.282.846.712 1.167.957.321.246.621.487.667.536.045.049.458.387.916.751.459.364.871.701.917.75.046.049.456.386.912.75 1.209.965 1.411 1.128 1.81 1.467.199.168.616.506.926.75.311.244.648.519.75.611.102.091.561.464 1.019.827.458.364.87.701.916.75.046.049.459.387.917.75.458.364.871.702.917.751.045.05.346.291.666.536.321.245.784.619 1.028.832.245.213.835.687 1.313 1.054.477.366 1.027.818 1.222 1.004.195.185.654.56 1.021.831.366.272.779.612.916.755.138.143.55.481.916.752.366.27.825.641 1.02.824.196.184.746.634 1.224 1 .477.367 1.068.841 1.312 1.054.245.213.707.588 1.028.833.321.246.733.586.917.755.183.17.596.508.917.75.32.243.808.648 1.083.899.275.252.556.458.625.459.069 0 .125 2.888.125 6.417v6.417h-21.833v10h1.166l.042 37.787.042 37.788 1.25.296c1.236.294 4.922.994 6.291 1.195l.709.104v-31.504h13.166V136.5h.354c2.289 0 7.729-1.729 10.605-3.37l1.208-.689v-36.84l-.55.533c-.302.293-.602.533-.667.533-.064 0-.098-18.582-.075-41.292l.042-41.292 6.708-.043 6.709-.044v29.671h10V13.833h13.5v29.834H199v-30h13.333V44.5h12.834V13.667h13.5v118.992l-2.913.045-2.914.046 1.789 1.411c4.074 3.215 7.203 4.523 12.013 5.019 7.29.752 18.313-2.193 27.169-7.258 1.323-.757 1.192-.558-1.367 2.078-1.723 1.774-4.11 4.28-12.941 13.583-2.698 2.842-5.59 5.879-6.427 6.75-.837.871-2.589 2.709-3.892 4.084-1.303 1.375-2.426 2.52-2.496 2.545-.07.025-.722-.612-1.449-1.415-18.139-20.031-39.711-29.076-61.489-25.781-3.248.492-6.069 1.137-8.833 2.022-13.842 4.432-25.051 12.907-36.307 27.451l-.378.489-4.822-5.989c-2.652-3.294-6.06-7.528-7.574-9.41-1.514-1.882-3.792-4.713-5.063-6.292-1.27-1.579-2.339-2.87-2.375-2.87-.035 0-.065 13.612-.065 30.25v30.25h.584c.407 0 .583.075.583.25 0 .216.628.25 4.649.25 3.978 0 4.663-.036 4.745-.25.146-.381 133.187-.381 133.333 0 .082.213.741.25 4.518.25 3.819 0 4.422-.034 4.422-.25s.592-.25 4.333-.25h4.333v-140.5h1.834V48.333h-29.834V35.251l10.788-10.788c6.962-6.963 10.729-10.845 10.625-10.949-.265-.262-4.543-.513-8.76-.513-2.162-.001-7.544-.051-11.959-.112l-8.027-.11V0H142.333v6.564m101 .16v5.558l-8.791.117c-4.836.065-21.28.187-36.542.272-15.263.085-33.806.206-41.208.269l-13.459.115V1.167h100v5.557M139.833 56v2h-13.166v-1.889c0-1.039.05-1.939.111-2 .061-.061 3.023-.111 6.583-.111h6.472v2m123.667.25v1.917h-13.167v-3.834H263.5v1.917M0 129.333v70.334h100V59H0v70.333m298.167 0v70.334H400V59H298.167v70.333m-134-55.916v11.25h10v-22.5h-10v11.25m23.5 0v11.25H199v-22.5h-11.333v11.25m-47.834 2.75V89.5h-13.166V76.278c0-7.272.05-13.272.111-13.334.061-.061 3.023-.111 6.583-.111h6.472v13.334m72.541-2.375l.043 10.791 6.375.044 6.375.044V63h-12.836l.043 10.792M263.5 76.5v13.333h-13.167V63.167H263.5V76.5m130.333 14.333v16.334H306.5V74.5h87.333v16.333m-300.707.792L93.168 108H5.833V75.166l43.625.042 43.625.042.043 16.375m215.707-7.167v.459l7.625-.031 7.625-.03.053-.428.053-.428h-15.356v.458m50.698-.03l.052.429h15.167l.053-.429.052-.428H359.478l.053.428m-22.698.155V85h15.334v-.833h-15.334v.416M8 85.25v.417h15.333v-.834H8v.417m28 .085v.502l7.625-.044 7.625-.043.053-.458.052-.459H36v.502m22.667-.085v.417H74v-.834H58.667v.417m268.666 5.583v4.676l2.375-.046 2.375-.046V86.25l-2.375-.046-2.375-.046v4.675m25.334 0V95.5h4.666v-9.333h-4.666v4.666m-326.167.75v4.584h4.833V87H26.5v4.583m25.333 0v4.584h4.834V87h-4.834v4.583m324.706.042l.044 4.625 2.375.046 2.375.046V87h-4.838l.044 4.625m-300.706.792V97h4.834v-9.167h-4.834v4.584m64 4.333v2.417h-13.166v-4.834h13.166v2.417m122.834 0v2.417h-11.5v-4.834h11.5v2.417M333 99.833v.5h15.167v-1H333v.5m26.531.092l.052.426 7.584.004 7.583.004.053-.429.052-.43H359.478l.053.425m-327.364.658V101H47.5v-.833H32.167v.416m26.5.167v.417H74v-.834H58.667v.417m204 19.25v16.167h-11.5v-32.334h11.5V120M163 116.518c0 8.841.016 9.344.292 9.23 2.307-.957 7.469-2.431 10.583-3.023l1.624-.308.001-7.625v-7.625H163v9.351m23.167-2.285v7.066l3.958.013c2.177.007 4.896.088 6.042.18s2.327.169 2.625.171l.541.004v-14.5h-13.166v7.066M211 115.41v8.244l.708.183c5.005 1.292 8.42 2.418 12.075 3.983.659.282 1.24.513 1.291.513.051 0 .093-4.762.093-10.583v-10.583H211v8.243m182.833 17.09v12H306.5v-24h87.333v12m-300.707.792l-.043 11.958-43.625.042-43.625.042V121.333h87.336l-.043 11.959m282.655-3.184c-.063.063-.114 1.116-.114 2.34v2.226l3.291-.045 3.292-.046v-4.5l-3.177-.045c-1.747-.025-3.229.007-3.292.07M326.5 132.75V135h6.5v-4.5h-6.5v2.25m24.333 0V135h6.5v-4.5h-6.5v2.25M75 133.17v2.337l3.208-.045 3.209-.045.046-2.292.046-2.292H75v2.337m-49.333.33v2.333h6.5v-4.666h-6.5v2.333m24.5 0v2.333h6.5v-4.666h-6.5v2.333m149.628.807c7.79 1.012 15.053 3.456 22.538 7.583 1.884 1.039 7.497 4.642 8.032 5.157.12.116.631.508 1.135.873 2.695 1.948 5.762 4.671 9.756 8.661 3.408 3.404 4.064 4.118 6.892 7.502 1.876 2.246 1.872 2.241 2.437 3 .273.367.537.704.587.75.938.861 7.771 10.874 9.839 14.417 3.659 6.271 8.656 15.938 8.656 16.748 0 .119-1.092.161-3.361.13l-3.361-.045-.276-.5c-.151-.275-.598-1.1-.993-1.833-2.217-4.121-7.454-12.431-10.397-16.5-5-6.911-9.743-12.532-15.042-17.823-1.564-1.561-2.393-2.348-4.493-4.265-.653-.596-3.356-2.839-5.077-4.213-2.826-2.256-7.61-5.284-11.584-7.332-22.397-11.544-45.666-5.341-64.833 17.283-.458.541-.913 1.066-1.009 1.167-.508.528-2.988 3.642-4.26 5.35-3.388 4.545-6.309 8.993-9.686 14.75-2.225 3.792-5.28 9.756-6.81 13.291l-.306.709h-7.504l.18-.459c.099-.252.396-1.072.659-1.822.63-1.796 2.171-5.731 2.697-6.886.229-.504.66-1.479.957-2.167 2.605-6.035 9.591-18.394 12.2-21.583.075-.092.748-.992 1.495-2 1.345-1.814 3.111-4.089 3.3-4.25.054-.046.271-.308.483-.583 1.858-2.419 9.283-9.834 11.088-11.074.192-.132.387-.29.433-.35.3-.398 5.028-3.794 6.833-4.909.321-.199.9-.561 1.287-.805 10.158-6.412 25.089-9.586 37.508-7.972M317.833 176v17.333H306.5v-34.666h11.333V176m25 0v17.333H324.5v-34.666h18.333V176m24.793-.042l-.043 17.292-9.375.043-9.375.043v-34.669h18.835l-.042 17.291m26.207-.208v17.083h-20.5v-34.166h20.5v17.083m-367.583.75v17.083l-10.208.043-10.209.043v-34.338l10.209.043 10.208.043V176.5m24.542.208L50.835 194H32v-34.669l9.375.043 9.375.043.042 17.291m24.334 0L75.168 194H56.833v-34.67l9.125.044 9.125.043.043 17.291m18 0L93.168 194H81.833v-34.671l5.625.044 5.625.044.043 17.291" stroke="#040c0c" fill="none" stroke-width="4" class="OGoXAzNr_0"></path><style data-made-with="vivus-instant">.OGoXAzNr_0{stroke-dasharray:6397 6399;stroke-dashoffset:6398;animation:OGoXAzNr_draw_0 6200ms ease-in-out 0ms infinite,OGoXAzNr_fade 6200ms linear 0ms infinite;}@keyframes OGoXAzNr_draw{100%{stroke-dashoffset:0;}}@keyframes OGoXAzNr_fade{0%{stroke-opacity:1;}91.93548387096774%{stroke-opacity:1;}100%{stroke-opacity:0;}}@keyframes OGoXAzNr_draw_0{3.225806451612903%{stroke-dashoffset: 6398}83.87096774193549%{ stroke-dashoffset: 0;}100%{ stroke-dashoffset: 0;}}</style></svg>