<svg id="svg" version="1.1" width="400" height="350.739773716275" viewBox="0 0 400 350.739773716275" xmlns="http://www.w3.org/2000/svg" xmlns:xlink="http://www.w3.org/1999/xlink" style=""><g id="svgg"><path id="path0" d="M155.571 49.911 L 155.527 83.287 153.351 84.463 C 152.154 85.109,150.580 85.947,149.854 86.323 L 148.533 87.008 148.418 90.284 C 148.355 92.086,148.304 99.446,148.303 106.640 L 148.303 119.720 151.815 116.170 C 153.747 114.217,155.392 112.620,155.472 112.620 C 155.551 112.620,155.614 122.028,155.612 133.527 L 155.608 154.434 154.871 154.330 C 154.088 154.219,149.557 153.821,148.825 153.799 L 148.390 153.786 148.335 157.177 C 148.258 161.833,148.221 161.701,149.695 161.950 C 149.935 161.990,150.248 162.067,150.392 162.120 C 150.535 162.174,150.849 162.256,151.088 162.303 C 151.327 162.350,152.111 162.545,152.829 162.735 C 153.547 162.925,154.408 163.128,154.743 163.186 C 155.078 163.244,155.411 163.350,155.484 163.422 C 155.556 163.493,155.595 175.625,155.571 190.381 L 155.527 217.211 152.567 215.427 C 138.616 207.016,129.280 197.941,124.224 187.873 C 123.259 185.953,123.378 195.245,123.396 123.020 L 123.412 61.445 132.724 61.445 L 142.037 61.445 142.037 61.010 L 142.037 60.574 129.678 60.574 L 117.319 60.574 117.319 83.605 L 117.319 106.636 116.841 107.074 C 116.577 107.315,115.109 108.441,113.577 109.576 C 91.761 125.742,72.259 146.516,62.104 164.404 C 42.002 199.816,54.558 231.940,96.867 253.345 C 101.914 255.898,104.095 256.877,108.703 258.657 C 109.756 259.064,110.910 259.516,111.266 259.662 C 111.851 259.901,112.013 259.899,112.943 259.638 L 113.972 259.349 115.428 259.907 C 116.229 260.214,116.982 260.539,117.102 260.628 C 117.276 260.759,117.311 267.896,117.276 295.683 L 117.232 330.575 115.144 331.446 C 113.186 332.262,110.063 333.543,104.091 335.981 L 101.567 337.011 105.962 336.909 C 108.379 336.853,110.357 336.847,110.357 336.896 C 110.357 336.998,109.366 337.443,108.355 337.795 C 107.477 338.101,112.338 338.036,143.168 337.333 C 147.380 337.237,154.861 337.082,159.791 336.990 C 164.721 336.897,172.163 336.743,176.327 336.647 C 180.492 336.551,187.894 336.391,192.776 336.292 C 197.659 336.192,204.943 336.033,208.964 335.939 C 212.985 335.844,220.387 335.688,225.413 335.593 C 234.114 335.428,250.001 335.095,266.493 334.732 C 270.657 334.640,276.576 334.511,279.647 334.446 L 285.229 334.326 288.698 330.662 C 290.606 328.647,294.479 324.566,297.305 321.593 C 300.130 318.620,306.002 312.428,310.354 307.833 C 314.705 303.238,320.428 297.206,323.071 294.430 C 335.227 281.660,335.066 281.852,337.888 276.810 C 347.209 260.158,345.884 243.235,333.967 226.719 C 324.769 213.971,309.140 201.560,289.935 191.755 C 288.158 190.847,286.249 189.798,285.693 189.423 C 281.101 186.326,272.682 182.144,264.949 179.119 L 264.014 178.753 264.089 201.779 L 264.165 224.804 264.809 226.066 C 265.163 226.760,265.393 227.329,265.320 227.331 C 265.247 227.332,265.273 227.391,265.379 227.461 C 265.567 227.587,266.328 229.426,266.405 229.939 C 266.426 230.083,266.539 230.435,266.656 230.722 C 266.875 231.262,267.507 234.112,267.544 234.726 C 267.756 238.287,267.671 239.784,267.123 242.124 C 267.067 242.363,266.971 242.794,266.910 243.081 C 266.849 243.368,266.714 243.760,266.609 243.951 C 266.504 244.143,266.408 244.339,266.397 244.386 C 266.358 244.544,266.119 245.162,265.926 245.605 C 265.821 245.844,265.752 246.107,265.772 246.189 C 265.792 246.271,265.728 246.435,265.630 246.553 C 265.532 246.671,265.496 246.814,265.552 246.869 C 265.607 246.924,265.332 247.652,264.941 248.487 L 264.230 250.005 264.209 253.854 C 264.198 255.970,264.139 257.914,264.079 258.174 C 263.750 259.580,253.466 267.260,244.038 273.138 C 239.808 275.776,239.293 276.066,238.835 276.066 L 238.449 276.066 238.502 214.795 L 238.555 153.525 248.085 153.525 C 256.339 153.525,257.615 153.491,257.615 153.270 C 257.615 152.683,257.012 152.654,244.659 152.654 L 232.376 152.654 232.355 160.531 C 232.344 164.863,232.342 168.461,232.352 168.527 C 232.374 168.682,232.310 168.669,228.721 167.745 C 227.045 167.314,225.557 166.934,225.413 166.901 C 225.119 166.833,224.938 185.504,225.197 189.269 L 225.326 191.158 226.371 191.716 C 226.945 192.023,227.768 192.501,228.198 192.777 C 228.629 193.053,229.264 193.440,229.608 193.637 C 229.953 193.834,230.716 194.269,231.303 194.604 L 232.372 195.213 232.374 234.925 C 232.376 271.295,232.400 274.645,232.657 274.744 C 232.886 274.832,232.897 274.900,232.719 275.115 C 232.599 275.260,232.459 275.337,232.408 275.285 C 232.357 275.234,232.152 275.340,231.954 275.520 C 231.755 275.700,231.382 275.955,231.125 276.087 C 230.680 276.315,229.145 277.204,227.241 278.334 C 226.762 278.619,226.116 278.978,225.805 279.132 L 225.239 279.413 225.239 281.731 C 225.239 284.190,225.167 284.429,224.341 284.691 C 224.136 284.756,223.608 285.022,223.168 285.281 C 219.746 287.294,200.378 297.167,200.139 297.019 C 200.067 296.975,200.026 249.768,200.048 192.116 L 200.087 87.293 209.443 87.248 C 218.654 87.204,218.799 87.198,218.799 86.857 C 218.799 86.514,218.665 86.510,206.440 86.510 L 194.082 86.510 194.061 123.194 C 194.050 143.370,194.054 159.948,194.070 160.034 C 194.105 160.226,193.049 160.095,189.513 159.466 L 186.771 158.978 186.771 165.629 C 186.771 173.964,186.616 173.220,188.489 173.900 C 189.315 174.201,190.892 174.811,191.993 175.256 L 193.995 176.066 194.039 206.832 C 194.063 223.753,194.041 237.598,193.989 237.598 C 193.938 237.598,192.743 237.002,191.334 236.274 C 189.926 235.547,187.363 234.225,185.640 233.338 C 183.916 232.451,182.076 231.492,181.549 231.207 C 181.023 230.921,179.809 230.272,178.851 229.763 C 177.894 229.255,176.210 228.353,175.109 227.759 C 174.008 227.165,172.324 226.265,171.366 225.760 C 170.409 225.255,168.607 224.290,167.363 223.617 C 166.118 222.943,164.865 222.277,164.578 222.136 C 164.291 221.995,163.532 221.577,162.892 221.208 L 161.729 220.538 161.733 118.972 L 161.737 17.406 171.097 17.406 L 180.457 17.406 180.373 16.971 L 180.290 16.536 167.952 16.536 L 155.614 16.536 155.571 49.911 M186.491 21.932 C 186.491 23.225,186.519 23.753,186.552 23.107 C 186.586 22.461,186.586 21.403,186.552 20.757 C 186.519 20.111,186.491 20.640,186.491 21.932 M186.485 26.197 C 186.484 27.058,186.514 27.433,186.550 27.029 C 186.587 26.625,186.587 25.920,186.551 25.462 C 186.515 25.005,186.485 25.335,186.485 26.197 M186.495 31.506 C 186.495 33.277,186.521 34.001,186.553 33.116 C 186.584 32.230,186.584 30.781,186.553 29.896 C 186.521 29.010,186.495 29.735,186.495 31.506 M307.050 33.676 C 293.257 36.490,285.330 38.180,279.286 39.597 C 265.904 42.734,255.298 45.458,245.953 48.158 C 244.469 48.586,242.045 49.287,240.566 49.715 C 229.689 52.860,214.493 57.906,203.829 61.913 C 203.207 62.147,202.306 62.483,201.828 62.661 C 199.742 63.436,192.466 66.291,191.384 66.759 C 187.480 68.448,187.063 68.583,186.694 68.278 C 186.497 68.115,186.434 68.093,186.554 68.229 C 186.722 68.421,186.771 70.735,186.771 78.528 L 186.771 88.578 188.816 87.295 C 200.967 79.673,217.216 71.066,231.593 64.635 C 232.550 64.207,233.647 63.711,234.030 63.533 C 235.172 63.001,241.922 60.070,243.516 59.413 C 250.770 56.425,252.948 55.552,258.050 53.582 C 274.146 47.368,291.563 41.544,308.529 36.701 C 309.199 36.510,309.943 36.287,310.183 36.205 C 310.422 36.123,311.401 35.848,312.359 35.594 C 314.964 34.900,316.583 34.463,317.842 34.112 C 318.464 33.938,319.388 33.702,319.896 33.588 C 320.404 33.474,320.783 33.345,320.739 33.301 C 320.695 33.257,319.535 33.458,318.162 33.749 C 316.789 34.039,314.452 34.512,312.968 34.799 C 309.060 35.557,294.701 38.521,291.049 39.324 C 289.204 39.729,288.721 39.683,290.277 39.249 C 290.838 39.093,292.354 38.626,293.647 38.212 C 296.072 37.434,296.588 37.277,299.391 36.464 C 300.300 36.200,301.789 35.767,302.698 35.501 C 303.607 35.235,305.644 34.663,307.224 34.229 C 308.803 33.795,310.801 33.245,311.662 33.008 C 314.214 32.304,312.699 32.523,307.050 33.676 M186.499 40.122 C 186.499 42.707,186.523 43.788,186.553 42.526 C 186.583 41.263,186.583 39.148,186.553 37.826 C 186.524 36.504,186.499 37.537,186.499 40.122 M186.484 56.919 C 186.484 57.733,186.514 58.066,186.550 57.659 C 186.587 57.252,186.587 56.586,186.550 56.179 C 186.514 55.772,186.484 56.105,186.484 56.919 M186.487 90.775 C 186.487 91.732,186.516 92.101,186.552 91.596 C 186.587 91.090,186.586 90.306,186.551 89.855 C 186.515 89.403,186.486 89.817,186.487 90.775 M186.475 94.517 C 186.475 95.044,186.508 95.259,186.548 94.996 C 186.588 94.732,186.588 94.302,186.548 94.038 C 186.508 93.775,186.475 93.990,186.475 94.517 M186.491 100.609 C 186.491 101.902,186.519 102.430,186.552 101.784 C 186.586 101.138,186.586 100.081,186.552 99.434 C 186.519 98.788,186.491 99.317,186.491 100.609 M186.490 106.353 C 186.490 107.550,186.518 108.040,186.552 107.441 C 186.586 106.843,186.586 105.864,186.552 105.265 C 186.518 104.667,186.490 105.157,186.490 106.353 M186.501 115.927 C 186.501 119.326,186.525 120.716,186.553 119.017 C 186.582 117.317,186.582 114.537,186.553 112.837 C 186.525 111.138,186.501 112.528,186.501 115.927 M186.507 140.296 C 186.507 150.205,186.528 154.258,186.553 149.304 C 186.579 144.349,186.579 136.242,186.553 131.288 C 186.528 126.334,186.507 130.387,186.507 140.296 M194.082 268.915 C 194.082 296.401,194.088 296.084,193.541 296.084 C 193.360 296.084,193.211 296.151,193.211 296.233 C 193.211 296.315,192.694 296.608,192.062 296.885 C 191.430 297.162,190.039 297.827,188.972 298.363 L 187.032 299.337 186.925 301.322 C 186.865 302.414,186.807 303.371,186.794 303.449 C 186.781 303.527,185.968 303.968,184.987 304.429 C 184.006 304.889,182.196 305.746,180.966 306.332 C 179.736 306.918,178.704 307.398,178.674 307.398 C 178.643 307.398,177.887 307.741,176.994 308.162 C 175.107 309.049,171.616 310.657,170.235 311.275 C 169.335 311.677,168.713 311.961,166.275 313.079 C 164.738 313.784,161.837 315.057,161.768 315.057 C 161.582 315.057,161.721 250.316,161.908 250.201 C 162.109 250.076,163.142 249.822,165.448 249.329 C 166.118 249.185,166.823 248.998,167.015 248.912 C 167.206 248.826,167.911 248.640,168.581 248.497 C 169.694 248.261,171.150 247.908,173.716 247.254 C 177.707 246.236,180.254 245.616,181.636 245.326 C 182.306 245.186,182.974 245.006,183.121 244.926 C 183.267 244.845,183.956 244.678,184.651 244.554 C 185.347 244.430,185.957 244.263,186.006 244.183 C 186.055 244.103,186.267 244.037,186.477 244.035 C 186.687 244.034,188.386 243.649,190.252 243.181 C 192.119 242.713,193.745 242.322,193.864 242.314 C 194.037 242.301,194.082 247.729,194.082 268.915 M155.614 282.915 L 155.614 313.959 154.874 314.278 C 154.467 314.453,153.782 314.745,153.351 314.928 C 151.341 315.781,149.651 316.543,148.999 316.891 C 148.580 317.114,148.562 317.195,148.515 319.049 L 148.466 320.975 147.906 321.217 C 131.483 328.314,123.572 331.637,123.432 331.497 C 123.298 331.363,123.189 261.038,123.321 260.297 C 123.438 259.643,123.770 259.518,127.502 258.726 C 128.172 258.584,128.877 258.397,129.069 258.312 C 129.260 258.226,129.965 258.037,130.635 257.892 C 131.305 257.747,132.500 257.469,133.290 257.274 C 136.985 256.361,137.672 256.194,138.729 255.950 C 139.352 255.807,140.096 255.615,140.383 255.524 C 140.670 255.432,142.393 255.002,144.212 254.568 C 146.031 254.133,147.794 253.705,148.129 253.615 C 150.070 253.097,155.051 251.897,155.309 251.885 C 155.598 251.872,155.614 253.460,155.614 282.915 " stroke="#000000" fill="none" stroke-width="3" class="Tpedefco_0"></path><path id="path1" d="M161.733 118.972 L 161.729 220.538 162.892 221.208 C 163.532 221.577,164.291 221.995,164.578 222.136 C 164.865 222.277,166.118 222.943,167.363 223.617 C 168.607 224.290,170.409 225.255,171.366 225.760 C 172.324 226.265,174.008 227.165,175.109 227.759 C 176.210 228.353,177.894 229.255,178.851 229.764 C 179.809 230.272,181.062 230.939,181.636 231.245 C 184.870 232.972,187.179 234.129,186.989 233.928 C 186.618 233.537,186.675 173.742,187.047 173.600 C 187.268 173.515,187.277 173.466,187.090 173.350 C 186.618 173.059,186.389 117.927,186.697 78.766 C 186.741 73.215,186.730 68.554,186.672 68.410 C 186.615 68.265,186.538 56.789,186.501 42.907 L 186.435 17.668 183.165 17.560 C 181.367 17.500,175.810 17.442,170.816 17.429 L 161.737 17.406 161.733 118.972 M292.515 38.569 C 291.845 38.787,290.838 39.093,290.277 39.249 C 289.716 39.405,289.292 39.568,289.334 39.610 C 289.442 39.718,293.528 38.813,293.710 38.641 C 294.127 38.246,293.604 38.214,292.515 38.569 M123.396 123.020 C 123.378 195.245,123.259 185.953,124.224 187.873 C 128.580 196.547,137.054 205.408,147.570 212.286 L 148.390 212.822 148.345 187.491 C 148.318 171.972,148.363 162.098,148.463 161.998 C 148.564 161.898,148.561 161.665,148.455 161.388 C 148.240 160.821,148.283 154.030,148.504 153.758 C 148.609 153.629,148.598 153.513,148.475 153.436 C 148.334 153.349,148.291 144.281,148.315 120.081 C 148.333 101.802,148.299 86.796,148.239 86.736 C 148.178 86.675,148.129 81.012,148.129 74.150 L 148.129 61.675 143.662 61.560 C 141.205 61.496,135.644 61.445,131.303 61.445 L 123.412 61.445 123.396 123.020 M200.108 87.346 C 199.967 87.575,199.997 296.932,200.139 297.019 C 200.374 297.165,219.511 287.415,223.151 285.295 C 223.581 285.045,224.183 284.738,224.487 284.614 C 224.791 284.491,225.081 284.283,225.131 284.152 C 225.261 283.813,225.297 279.199,225.171 279.073 C 225.015 278.917,225.042 191.506,225.198 191.409 C 225.271 191.364,225.276 190.556,225.208 189.615 C 225.049 187.421,224.999 175.657,224.939 127.023 L 224.890 87.554 222.029 87.554 C 220.309 87.554,219.125 87.485,219.060 87.380 C 218.930 87.169,200.239 87.135,200.108 87.346 M238.502 214.777 L 238.449 276.066 238.835 276.066 C 239.293 276.066,239.808 275.776,244.038 273.138 C 253.466 267.260,263.750 259.580,264.079 258.174 C 264.139 257.914,264.198 255.954,264.209 253.818 C 264.221 251.515,264.303 249.797,264.410 249.597 C 264.552 249.332,264.533 249.260,264.322 249.260 C 264.082 249.260,264.058 248.005,264.098 237.554 C 264.140 226.619,264.162 225.850,264.441 225.872 C 264.720 225.893,264.721 225.858,264.459 225.352 C 264.205 224.861,264.163 221.433,264.014 189.384 C 263.923 169.901,263.816 153.926,263.776 153.885 C 263.659 153.765,261.483 153.721,249.695 153.601 L 238.555 153.488 238.502 214.777 M193.603 176.098 C 193.963 176.504,194.090 236.943,193.731 237.165 C 193.532 237.287,193.666 237.598,193.918 237.598 C 194.020 237.598,194.082 225.959,194.082 206.882 L 194.082 176.165 193.690 175.960 C 193.310 175.760,193.308 175.765,193.603 176.098 M267.603 237.337 C 267.604 238.486,267.632 238.933,267.666 238.331 C 267.700 237.729,267.700 236.789,267.665 236.242 C 267.631 235.695,267.603 236.188,267.603 237.337 M193.699 242.507 C 194.003 242.810,194.003 295.571,193.699 295.875 C 193.559 296.014,193.553 296.084,193.680 296.084 C 194.066 296.084,194.082 295.028,194.082 268.915 C 194.082 243.979,194.063 242.298,193.786 242.298 C 193.556 242.298,193.536 242.344,193.699 242.507 M186.771 243.982 C 186.532 244.021,186.179 244.124,185.988 244.211 C 185.796 244.297,185.170 244.455,184.595 244.560 C 184.021 244.666,183.394 244.823,183.203 244.909 C 183.011 244.994,182.306 245.181,181.636 245.323 C 180.966 245.465,179.791 245.737,179.025 245.927 C 176.505 246.552,174.688 247.006,173.716 247.254 C 171.150 247.908,169.694 248.261,168.581 248.497 C 167.911 248.640,167.206 248.826,167.015 248.912 C 166.823 248.998,166.118 249.185,165.448 249.329 C 163.142 249.822,162.109 250.076,161.908 250.201 C 161.721 250.316,161.582 315.057,161.768 315.057 C 161.837 315.057,164.738 313.784,166.275 313.079 C 168.713 311.961,169.335 311.677,170.235 311.275 C 171.616 310.657,175.107 309.049,176.994 308.162 C 177.887 307.741,178.643 307.398,178.674 307.398 C 178.704 307.398,179.736 306.918,180.966 306.332 C 182.196 305.746,183.995 304.894,184.963 304.440 C 186.606 303.668,186.731 303.574,186.827 303.025 C 186.981 302.140,187.030 299.070,186.892 298.931 C 186.592 298.632,186.757 244.516,187.059 244.183 C 187.218 244.007,187.316 243.875,187.277 243.888 C 187.238 243.901,187.010 243.943,186.771 243.982 M147.955 253.629 C 147.715 253.713,146.031 254.137,144.212 254.570 C 142.393 255.003,140.670 255.432,140.383 255.524 C 140.096 255.615,139.352 255.807,138.729 255.950 C 137.672 256.194,136.985 256.361,133.290 257.274 C 132.500 257.469,131.305 257.747,130.635 257.892 C 129.965 258.037,129.260 258.226,129.069 258.312 C 128.877 258.397,128.172 258.584,127.502 258.726 C 123.770 259.518,123.438 259.643,123.321 260.297 C 123.189 261.038,123.298 331.363,123.432 331.497 C 123.572 331.637,131.683 328.230,147.901 321.219 L 148.456 320.979 148.510 318.932 C 148.540 317.806,148.505 316.810,148.433 316.719 C 148.197 316.419,148.274 253.884,148.512 253.647 C 148.748 253.410,148.588 253.405,147.955 253.629 M232.376 275.043 C 232.376 275.351,232.419 275.376,232.635 275.197 C 232.897 274.980,232.841 274.674,232.540 274.674 C 232.450 274.674,232.376 274.840,232.376 275.043 M109.085 337.151 C 109.161 337.444,109.233 337.462,109.634 337.292 C 110.429 336.955,110.452 336.815,109.712 336.815 C 109.091 336.815,109.008 336.859,109.085 337.151 " stroke="#000000" fill="none" stroke-width="3" class="Tpedefco_1"></path></g><style data-made-with="vivus-instant">.Tpedefco_0{stroke-dasharray:3220 3222;stroke-dashoffset:3221;animation:Tpedefco_draw_0 7200ms linear 0ms infinite,Tpedefco_fade 7200ms linear 0ms infinite;}.Tpedefco_1{stroke-dasharray:2177 2179;stroke-dashoffset:2178;animation:Tpedefco_draw_1 7200ms linear 0ms infinite,Tpedefco_fade 7200ms linear 0ms infinite;}@keyframes Tpedefco_draw{100%{stroke-dashoffset:0;}}@keyframes Tpedefco_fade{0%{stroke-opacity:1;}94.44444444444444%{stroke-opacity:1;}100%{stroke-opacity:0;}}@keyframes Tpedefco_draw_0{11.11111111111111%{stroke-dashoffset: 3221}52.77777777777778%{ stroke-dashoffset: 0;}100%{ stroke-dashoffset: 0;}}@keyframes Tpedefco_draw_1{11.11111111111111%{stroke-dashoffset: 2178}52.77777777777778%{ stroke-dashoffset: 0;}100%{ stroke-dashoffset: 0;}}</style></svg>