
<svg version="1.0" xmlns="http://www.w3.org/2000/svg"
 width="2874.000000pt" height="3470.000000pt" viewBox="0 0 2874.000000 3470.000000"
 preserveAspectRatio="xMidYMid meet">
<metadata>
Created by potrace 1.15, written by Peter Selinger 2001-2017
</metadata>
<g transform="translate(0.000000,3470.000000) scale(0.100000,-0.100000)"
fill="#000000" stroke="none">
<path d="M4096 32578 c-9 -12 -16 -28 -16 -35 0 -14 520 -533 5897 -5888 1027
-1023 2201 -2193 2609 -2600 408 -407 1580 -1575 2605 -2595 1024 -1020 2199
-2190 2610 -2600 411 -410 1668 -1663 2795 -2785 1912 -1905 3049 -3037 5239
-5220 490 -488 925 -921 968 -963 l77 -75 0 11391 0 11392 -1670 0 -1670 0 -2
-7391 -3 -7390 -707 703 c-389 387 -1714 1707 -2945 2934 -1231 1228 -2574
2566 -2985 2975 -410 409 -1675 1669 -2810 2800 -1134 1132 -2472 2465 -2973
2963 -500 499 -1236 1233 -1635 1631 -620 619 -733 728 -780 749 l-55 26
-2267 0 -2267 0 -15 -22z"/>
<path d="M14430 32478 c0 -6 356 -368 2385 -2423 396 -401 887 -899 1090
-1105 204 -206 424 -429 491 -495 66 -66 317 -320 558 -564 265 -268 441 -440
447 -434 5 5 8 1007 7 2514 l-3 2504 -2488 5 c-1368 3 -2487 2 -2487 -2z"/>
<path d="M2011 31401 l-31 -15 0 -2260 0 -2261 31 -65 c28 -59 80 -115 584
-620 305 -305 769 -772 1032 -1037 500 -504 2878 -2894 3713 -3732 267 -268
1185 -1190 2040 -2050 1647 -1656 1925 -1935 3665 -3682 605 -607 1689 -1696
2409 -2419 l1308 -1315 -7391 -3 -7391 -2 0 -1675 0 -1675 11391 0 c6857 0
11389 4 11387 9 -1 5 -710 720 -1575 1588 -865 868 -1870 1877 -2234 2243
-364 366 -1164 1169 -1777 1785 -614 616 -1617 1624 -2231 2240 -2292 2302
-3396 3411 -4471 4490 -3031 3044 -4961 4983 -5393 5418 -479 483 -1698 1706
-3872 3888 l-1162 1165 -32 -15z"/>
<path d="M2100 18570 l0 -2490 2493 0 2494 0 12 27 c11 25 9 29 -36 73 -94 91
-2374 2339 -2748 2709 -209 207 -636 628 -948 936 -312 308 -722 712 -910 897
-188 186 -345 338 -349 338 -5 0 -8 -1120 -8 -2490z"/>
<path d="M14565 6169 c-272 -20 -507 -103 -740 -259 -266 -179 -416 -442 -432
-762 -13 -264 63 -527 199 -691 58 -69 182 -159 292 -212 147 -71 268 -101
691 -170 612 -100 672 -115 773 -189 50 -37 67 -57 97 -119 64 -130 57 -238
-26 -399 -98 -187 -258 -288 -554 -349 -82 -17 -126 -20 -245 -17 -131 4 -154
7 -233 35 -117 41 -186 83 -280 173 -91 86 -122 128 -179 241 -61 123 -59 122
-310 115 -114 -4 -215 -9 -224 -13 -14 -5 -16 -21 -12 -122 4 -98 10 -129 36
-200 66 -175 139 -282 274 -399 114 -99 208 -162 333 -221 180 -87 141 -82
681 -79 l479 3 116 51 c184 81 390 226 489 344 100 120 194 316 225 469 13 63
16 118 13 229 -4 134 -7 156 -37 242 -38 111 -72 174 -148 270 -200 257 -484
365 -1268 485 -251 38 -334 59 -435 110 -197 99 -275 342 -177 549 45 95 111
166 207 222 170 100 344 141 559 131 156 -7 256 -31 380 -94 118 -59 194 -130
244 -228 19 -39 47 -83 62 -99 l27 -29 171 7 c95 3 202 9 240 13 63 5 67 7 67
31 0 90 -93 335 -170 447 -92 134 -224 244 -400 334 -230 118 -507 171 -785
150z"/>
<path d="M5448 6133 l-58 -4 0 -271 0 -271 463 7 c254 3 595 2 757 -3 323 -10
382 -19 573 -93 337 -130 596 -432 705 -823 22 -81 25 -113 29 -320 4 -219 3
-236 -21 -348 -89 -407 -347 -727 -701 -867 -230 -92 -236 -92 -1085 -99
l-725 -6 -3 -253 -2 -253 882 3 883 3 125 42 c381 129 652 334 882 668 219
318 345 809 310 1214 -36 417 -184 800 -411 1063 -78 91 -213 220 -296 283
-39 30 -136 88 -215 128 -212 107 -424 171 -660 196 -87 9 -1291 12 -1432 4z"/>
<path d="M8790 6126 l-35 -13 -3 -1791 -2 -1792 265 0 265 0 0 1534 0 1534
443 -3 c410 -3 448 -4 519 -23 233 -63 360 -178 432 -393 56 -166 42 -341 -39
-505 -81 -163 -203 -254 -395 -294 -84 -17 -135 -20 -452 -20 -204 0 -359 -4
-362 -9 -10 -15 53 -263 78 -306 32 -58 379 -486 776 -959 96 -115 224 -268
283 -340 60 -72 127 -150 150 -173 l41 -43 343 0 342 0 -147 178 c-179 218
-370 447 -506 607 -56 66 -142 170 -191 230 -49 61 -122 148 -162 194 -40 46
-73 86 -73 90 0 3 84 48 188 100 267 135 345 191 460 335 116 145 153 211 205
371 38 118 51 227 44 389 -11 255 -88 468 -248 686 -180 246 -471 396 -814
420 -208 15 -1362 11 -1405 -4z"/>
<path d="M12030 4330 l0 -1800 260 0 260 0 0 1800 0 1800 -260 0 -260 0 0
-1800z"/>
<path d="M18330 5380 l0 -750 -755 0 -755 0 0 745 0 745 -262 -2 -263 -3 -3
-1792 -2 -1793 270 0 270 0 0 760 0 760 753 0 752 0 -3 -760 -2 -760 265 0
265 0 0 1800 0 1800 -265 0 -265 0 0 -750z"/>
<path d="M19030 5860 l0 -270 540 0 540 0 0 -1530 0 -1530 270 0 270 0 0 1530
0 1530 540 0 540 0 0 270 0 270 -1350 0 -1350 0 0 -270z"/>
<path d="M22197 6123 c-4 -3 -7 -813 -7 -1800 l0 -1793 260 0 260 0 0 1800 0
1800 -253 0 c-140 0 -257 -3 -260 -7z"/>
</g>
</svg>
