<svg id="svg" version="1.1" width="400" height="350" xmlns="http://www.w3.org/2000/svg" xmlns:xlink="http://www.w3.org/1999/xlink" style=""><g id="svgg"><path id="path0" d="M118.095 22.779 C 105.793 26.820,103.244 32.157,102.969 54.444 L 102.764 71.111 123.818 71.111 L 144.872 71.111 144.610 54.762 C 144.310 35.998,143.991 34.485,139.216 29.175 C 134.157 23.548,124.582 20.649,118.095 22.779 M270.476 22.779 C 258.372 26.755,255.722 32.372,255.387 54.762 L 255.143 71.111 276.190 71.111 L 297.236 71.111 297.031 54.444 C 296.797 35.481,296.483 34.085,291.239 28.677 C 286.162 23.439,276.672 20.744,270.476 22.779 M73.832 65.048 C 67.582 67.001,62.064 71.735,59.452 77.383 C 58.163 80.170,58.086 81.407,57.906 102.063 L 57.716 123.810 200.000 123.810 L 342.284 123.810 342.094 102.063 C 341.881 77.576,341.848 77.389,336.742 71.737 C 331.759 66.222,326.333 64.127,317.028 64.127 L 311.111 64.127 311.111 72.444 L 311.111 80.762 308.952 82.921 L 306.794 85.079 276.264 85.079 L 245.734 85.079 243.661 83.228 L 241.587 81.377 241.379 72.752 L 241.171 64.127 200.000 64.127 L 158.829 64.127 158.621 72.752 L 158.413 81.377 156.339 83.228 L 154.266 85.079 123.736 85.079 L 93.206 85.079 91.048 82.921 L 88.889 80.762 88.889 72.444 L 88.889 64.127 82.698 64.169 C 79.294 64.193,75.304 64.588,73.832 65.048 M57.927 218.254 L 58.095 298.095 59.479 301.090 C 61.419 305.289,66.183 310.144,70.396 312.213 L 73.968 313.968 200.000 313.968 L 326.032 313.968 329.604 312.213 C 333.817 310.144,338.581 305.289,340.521 301.090 L 341.905 298.095 342.073 218.254 L 342.241 138.413 200.000 138.413 L 57.759 138.413 57.927 218.254 M159.993 157.774 C 163.866 159.777,163.810 159.386,163.810 184.329 C 163.810 215.462,167.100 212.381,133.856 212.381 C 101.684 212.381,104.784 215.349,104.771 184.542 C 104.761 160.072,104.801 159.812,108.856 157.810 C 111.729 156.393,157.259 156.360,159.993 157.774 M118.730 184.762 L 118.730 198.095 134.286 198.095 L 149.841 198.095 149.841 184.762 L 149.841 171.429 134.286 171.429 L 118.730 171.429 118.730 184.762 M291.926 176.864 C 294.974 178.999,295.949 182.815,294.275 186.053 C 292.230 190.008,293.870 189.884,245.986 189.695 L 202.435 189.524 200.583 187.450 C 197.870 184.414,197.983 180.938,200.889 178.032 L 203.048 175.873 246.779 175.873 C 285.380 175.873,290.677 175.989,291.926 176.864 M159.993 240.314 C 163.870 242.319,163.810 241.894,163.810 267.189 L 163.810 290.286 161.651 292.444 L 159.492 294.603 134.490 294.603 C 101.418 294.603,104.762 297.710,104.762 266.984 C 104.762 243.006,104.860 242.291,108.421 240.359 C 111.016 238.951,157.278 238.910,159.993 240.314 M118.730 266.984 L 118.730 280.635 134.286 280.635 L 149.841 280.635 149.841 266.984 L 149.841 253.333 134.286 253.333 L 118.730 253.333 118.730 266.984 M292.628 260.038 C 296.235 263.073,295.812 268.735,291.797 271.184 C 289.096 272.831,205.700 273.063,202.547 271.432 C 198.942 269.568,197.640 265.223,199.616 261.657 C 201.429 258.387,200.362 258.459,247.094 258.435 L 290.696 258.413 292.628 260.038 " stroke="#000" fill="none" stroke-width="3" class="LWarPlyv_0"></path></g><style data-made-with="vivus-instant">.LWarPlyv_0{stroke-dasharray:3053 3055;stroke-dashoffset:3054;animation:LWarPlyv_draw_0 7200ms linear 0ms infinite,LWarPlyv_fade 7200ms linear 0ms infinite;}@keyframes LWarPlyv_draw{100%{stroke-dashoffset:0;}}@keyframes LWarPlyv_fade{0%{stroke-opacity:1;}94.44444444444444%{stroke-opacity:1;}100%{stroke-opacity:0;}}@keyframes LWarPlyv_draw_0{11.11111111111111%{stroke-dashoffset: 3054}52.77777777777778%{ stroke-dashoffset: 0;}100%{ stroke-dashoffset: 0;}}</style></svg>