<svg id="Layer_1" data-name="Layer 1" xmlns="http://www.w3.org/2000/svg" viewBox="0 0 512 512"><title>facebook-handdrawn</title><path d="M327,116.59c-5.22,9,162.14,80.58,156.48,90.39-6.36,11-156.43-99.34-162.08-89.55-6.54,11.33,167.27,89.18,164,94.76-4.67,8.09-152.52-99.23-158.18-89.43-6.1,10.56,163.54,78.83,156.77,90.56-4.35,7.53-150.72-97.09-156.89-86.4-5.17,9,161.64,79.82,155.78,90-6.23,10.8-150.51-100.74-156.51-90.33-4,7,167.85,83.55,162,93.6-5.53,9.57-165.86-100.32-169-94.93-5.19,9,178,90.51,172.69,99.75-5.63,9.75-162-97.79-165.08-92.36C320.48,144,493,221,489.76,226.59c-6.28,10.88-160.65-96.2-163.91-90.55-6.25,10.83,166.08,84.95,161.33,93.19C482.7,237,324.58,131,321.54,136.3c-3.41,5.92,166.22,88.61,163,94.16S332.87,133.93,328.23,142C324.76,148,496,228,491.3,236.16c-3.18,5.51-166.83-108-172.11-98.84-4.9,8.48,173.51,85.59,167.17,96.56C482.24,241,322.22,135,318.74,141c-3.23,5.6,168.27,89.39,164.89,95.24-3.08,5.33-157.72-94.61-161-89-4.38,7.59,168.81,84.94,163.37,94.37-5.58,9.66-153.24-101.43-159.14-91.22-6.38,11.06,161,84.79,157.43,90.94-2.7,4.69-151.72-96.35-156-88.88-7,12.14,167.62,81.73,161.09,93.05S330.42,140.1,324,151.19c-3,5.28,169.39,87.34,164.84,95.22-5.27,9.13-155.84-99.35-161.42-89.68-6.43,11.15,169.11,88.75,165.24,95.45-5.74,10-164.83-105.32-170-96.29-6.37,11,176.77,89.11,171.15,98.86-6.12,10.6-161.22-102.8-166.39-93.84-4.89,8.48,167.38,82.53,161.25,93.14C483.52,263,328.8,152.79,324.18,160.8c-6.92,12,172.33,84.83,166,95.86-4.21,7.3-165.42-104.75-169.78-97.19-6.87,11.9,176.47,86.12,169.63,98-6.12,10.6-161.83-99.71-165.68-93-6.8,11.79,176.56,86.25,169.75,98.05-4.58,7.94-174.6-110-180.54-99.7C309.75,169.3,496,257.14,491.25,265.44,484.57,277,314.52,152.81,308.83,162.68c-5.2,9,183.53,89.5,176.38,101.88-4.79,8.29-168.61-107.08-173.3-99C306.42,175.11,491.85,256,486,266.16c-6.4,11.08-172.5-111.24-178.53-100.8-4.28,7.42,182.62,96,178.51,103.11S305.28,157.39,301.46,164c-4.58,7.93,191.43,94.33,184.4,106.51S295.13,150.83,289.39,160.78c-5.24,9.09,207,103.11,199.85,115.44-4.36,7.55-192.67-116.92-196.13-110.91C289.19,172.1,496,274.11,492.35,280.39c-5.46,9.46-199.18-123.78-204.28-114.93-7.2,12.47,201.9,105.88,197.25,113.94-7.13,12.35-200.25-126.55-206.66-115.45-5.86,10.15,213,109.56,207.18,119.67-6.3,10.92-198.42-130.21-205.24-118.39C272,180.13,489.9,272.2,483.88,282.64c-4.19,7.25-196.6-124.88-203.34-113.2C273.31,182,498.89,276.69,490.72,290.84c-4.83,8.37-203.38-129.91-209.4-119.47-6.72,11.64,212,104.71,204.32,118-6.31,10.94-196.25-122.2-201.77-112.62C275.55,191.2,486.65,281.15,481.14,290.7,475,301.36,282.16,169.5,278.4,176c-6.55,11.34,209.86,106.21,203.36,117.47-7.33,12.7-198.06-121.14-202.43-113.56C274.74,187.86,487,286.43,481.16,296.5c-4.88,8.46-190.9-122.59-197.78-110.66-1.44,2.5,25.45,12.06,24.31,14-.83,1.44-27.45-16.94-28.48-15.15-.91,1.58,32.62,16.62,31.66,18.29s-33.36-21.25-34.7-18.92c-1.25,2.16,28.77,13.36,27.36,15.8-.63,1.08-26.51-13.62-27-12.81-.58,1,30.58,15.89,29.81,17.22-.92,1.6-29-17-29.53-16-1,1.7,24.49,12.35,23.71,13.7-.31.54-16.18-6.09-16.78-5-.71,1.24,5.89,1.83,5.21,3-.16.28-8.91-3.91-9.16-3.47-.57,1,14.74,6.93,14.05,8.12-.34.58-16-10.28-16.47-9.4s16.64,8.05,16,9.22-18.71-10.58-19.21-9.72c-.36.63,14.94,7.72,14.55,8.4-.25.43-12.51-5.83-12.92-5.13s9.59,4.4,9.1,5.26c-.18.32-11.3-3-11.52-2.61s7.89,4.3,7.78,4.49c-.27.47-7.56-4.31-7.78-3.93-.13.23,6.92,3.72,6.8,3.93s-6.64-1.51-6.8-1.23c0,0,2.16,1.22,2.15,1.24" fill="none" stroke="#999" stroke-linecap="round" stroke-linejoin="round" stroke-width="0.84"/><path d="M322.23,206.28c-5.73,9.94,172.53,85.22,166.28,96-4,6.87-156.67-101.7-162.85-91-3.69,6.39,164.21,83.57,159.32,92-4.37,7.58-158.24-96.45-161.12-91.45-6.6,11.44,160.52,80,155,89.55-3.36,5.82-147-90.57-150.88-83.85-3.63,6.29,153.56,80.74,150.12,86.71-5.72,9.91-144.58-96-150.63-85.51C323.92,225.06,486.45,296,480.11,307c-5,8.69-158.07-98.27-161.21-92.83-5,8.65,171.76,88.83,167.26,96.62-2.89,5-156-96.37-159.68-90-5.41,9.38,155,78.86,150.4,86.87-3.06,5.3-148.1-92.49-152.43-85-4.16,7.21,160.81,83.5,156.74,90.54-3.51,6.08-156.8-96-159.92-90.62-3.64,6.31,164.72,84.77,160.23,92.55-4,6.88-158.34-101.05-164.3-90.72-3.31,5.73,167.3,85,162.27,93.73-5.15,8.93-153.19-96.85-157.15-90-3,5.22,161,81.21,155.91,90.06-4.87,8.44-151.9-97.51-157.92-87.08-5.29,9.16,159.94,80.48,154.79,89.41-4.34,7.52-151.94-94.27-155.67-87.8-4,6.91,168.94,82.28,162.32,93.76-4.64,8-151.83-99-157.67-88.89-5.29,9.17,162.53,84.43,158.44,91.52-3.36,5.82-160.51-102-165.08-94.08-4.73,8.19,169.29,84.66,163.6,94.5-6,10.41-157.49-94.3-160.56-89-4.55,7.88,161.17,78.61,154.9,89.47-5.47,9.47-147.7-90.66-150.68-85.49-4,6.88,153,76,147.64,85.28-6.13,10.62-148-95.52-152.49-87.72-5.74,9.94,164.84,84.5,160.2,92.54-4,6.87-153.6-97.89-159-88.49-5.84,10.12,161.32,78.87,155.13,89.61-3.17,5.49-147.43-91.62-151-85.45-3.78,6.56,149.87,77.9,146.12,84.4C468,340.29,326.74,247,324,251.7c-3.12,5.42,155.38,76.55,149.67,86.45-2.87,5-151.28-94.48-154.71-88.54-6.5,11.27,163.81,80.67,157.77,91.13-3.49,6-148.17-97.25-153.38-88.22C320,258.41,475,327.41,469.52,337c-3.38,5.85-144.2-86.28-147.19-81.09-3.42,5.93,159.22,80.43,154.23,89.08-5.75,10-148.22-95.09-153.78-85.47-5.89,10.21,154.58,82.12,151.48,87.5-4.18,7.24-155.29-95.29-159.32-88.31-4.59,8,155.46,78.81,150.7,87-4.4,7.63-154.58-96.83-158.27-90.44-3.93,6.81,169.59,85.06,164,94.74-5.45,9.45-157.83-102.7-163.68-92.57-3.88,6.73,163.09,86.53,159.77,92.28-4.76,8.25-160.22-103.33-166.53-92.39s173.63,91.8,170,98.17C465.53,364.79,303,248,296.47,259.26,289.6,271.17,467.6,349.71,464,356S298.57,254.83,295.49,260.17C291,268,473.71,346.61,466.57,359c-3.84,6.66-172.5-105.65-175.83-99.87-5.35,9.27,181.35,90.09,175,101.08C461,368.41,284.27,248.71,280.3,255.59c-3.85,6.67,193.26,99.23,187.9,108.53C463.1,373,290.9,252.59,286.4,260.39c-4.26,7.38,187.92,93.79,181.53,104.86-3.41,5.9-180.12-111-183.42-105.25C277,273.09,468,354.37,463,363.08c-3.13,5.43-173.67-113.74-180-102.75-3.62,6.28,180.27,92.74,175.34,101.28-6.87,11.9-169.36-111.1-175.54-100.39-6.37,11,188.36,91.68,181,104.52-4.8,8.32-182.47-116.19-187.44-107.59C268.55,271.53,462.74,358,459.36,363.9,453.63,373.83,282.2,250.51,276.14,261c-4.87,8.44,188.23,94.7,182.16,105.22-4,6.92-169.93-112.3-176.23-101.38-4.55,7.88,185.87,97.81,181.74,105C457.94,380,282.32,254.75,276,265.71c-5.76,10,183.94,94.78,179,103.38C450.78,376.35,280,258.52,275.55,266.3c-5.47,9.49,188,94.39,181.82,105-3.47,6-171.65-107.79-176.81-98.85-4.29,7.43,178.42,86.45,171.23,98.91-5.59,9.69-165.68-106-171.62-95.7-4.72,8.19,177.19,85.92,170.08,98.24-4.06,7-169.92-110-175.51-100.34-4.44,7.69,183.64,97,179.71,103.8-6.8,11.79-166.33-109.81-172.3-99.46-5.35,9.28,178.22,87.5,171.53,99.08-3.47,6-169.21-107.88-175-97.9-3.68,6.38,176,88.57,170.37,98.41-3.44,6-168.82-101.45-171.81-96.27-4,7,183.13,96.86,179.27,103.55-7.22,12.52-177.87-110-181.2-104.23-7.27,12.6,180.67,90.27,174.57,100.84-3.07,5.32-170.47-103.94-174.68-96.64C271.16,291.84,457.7,374,450.71,386.12c-6.5,11.26-170.64-103.38-174.46-96.75-5.4,9.36,172.24,87.66,167.12,96.53-5.72,9.92-160.31-105.3-166.26-95-3.85,6.67,176,87.72,170,98.17-5.25,9.09-168.44-108.76-173.79-99.48-7,12.14,172.63,89.63,168.26,97.19-6.41,11.11-161.27-104.31-167.86-92.89-3.27,5.67,174.66,87.43,168.84,97.52-5.44,9.43-154.59-97.54-159.65-88.76-5.62,9.74,160.59,79.91,155,89.55-4.55,7.88-153.76-94.69-157.67-87.9-4.29,7.44,160.5,84.72,157,90.71-5.33,9.23-151.1-94.21-155.9-85.9-6.63,11.48,164.44,80.79,158.29,91.43-3,5.22-153.86-95.65-157.17-89.9-3.69,6.4,158.09,79.69,153.06,88.41S280.89,301,276.08,309.33c-5.38,9.33,165.42,82.95,160,92.4-3.69,6.39-156.17-96.75-161-88.43-5.68,9.84,164.7,87.82,161.53,93.31-3.08,5.33-153.79-94.16-157.94-87-2.9,5,162.24,84.6,158.29,91.43-3,5.21-156.43-100.14-161.27-91.76C270,329.21,437,405.86,434.11,410.8c-5.88,10.19-148.74-98.68-154.72-88.31-5.65,9.79,151.44,78.25,147.45,85.17-3.69,6.39-140.69-87.89-144.44-81.4-6,10.45,154.75,79.51,150.47,86.92-4.47,7.75-144.06-93.18-149.53-83.7-6.25,10.82,148.45,78.76,145.43,84-5.13,8.9-144.41-95.32-149.61-86.32-6,10.45,156.9,82.56,153.41,88.61-4.83,8.37-144.68-91.61-148.89-84.32s150.58,75,145.41,84c-4.64,8-143.47-86.61-146.81-80.83-3.7,6.4,146.34,72.29,141,81.47-3.51,6.08-144.38-91.33-148-85-5.62,9.74,154.1,80.92,150.6,87-5.12,8.87-145.26-92.55-150.59-83.32s154.58,78.46,149.9,86.58-140.25-89.08-143.84-82.85c-4.22,7.32,145.62,77.94,142.95,82.57-3.61,6.25-140.63-89.18-145.22-81.21-4.23,7.33,149.6,73.61,144.06,83.21-2.85,4.94-140.23-92.49-145.55-83.27-4.16,7.21,151.69,77.1,147.13,85-5.61,9.72-143.63-92.81-148.12-85-5,8.73,144,73,139.55,80.61C411.07,429.16,280.46,340,278,344.25c-5.8,10.06,138.63,71.57,134.95,77.95-2.27,3.93-127.89-81-131.68-74.4-4.53,7.85,138.68,67.39,133.18,76.92-2.45,4.24-130.29-78.87-133.68-73-5.1,8.84,133.4,68,129.48,74.79-5.18,9-125.39-80.4-130.56-71.44-5.65,9.79,135.35,67,130.49,75.38-3.08,5.34-126.56-80.63-131.62-71.87-3.08,5.33,136.85,70.53,133.17,76.92-5.1,8.83-125.25-76.79-128.18-71.71-4.43,7.68,129.42,68,126.5,73.07-3.08,5.34-130.91-77.65-133.54-73.09-4.5,7.8,134,69.49,130.58,75.42-4.12,7.13-125.39-77.37-128.67-71.68-3.49,6,127,68,124.7,72-3.33,5.77-119.14-75.1-122.87-68.63-2.83,4.9,121.58,64,118.89,68.68-2.94,5.1-117.25-72.65-119.64-68.52-4.37,7.58,121.08,64.31,118.64,68.53-4.41,7.63-119.88-79.74-124.52-71.69-2.87,5,129.52,64,124.84,72.11C395,446.1,282,367.13,278.73,372.84c-3.57,6.18,127.1,65.92,123.85,71.54s-118.9-75.16-122.39-69.12c-3,5.17,121.4,62.33,118,68.18-4.46,7.72-116.68-72.11-120.69-65.15-4.84,8.39,116.58,60,113.39,65.5-3.43,5.94-108.74-66.27-110.7-62.88-4,6.9,113,59.74,110.61,63.89-4,7-113.06-74.32-117-67.45-2.41,4.18,119.8,64.2,117.64,67.95-2.43,4.22-111-70.3-114-65.21C273.78,386.51,399.7,440,395.08,448c-3.23,5.59-116.86-72.51-120.53-66.14-2.37,4.1,123.54,60.72,118.93,68.7-2.88,5-108.4-69.7-111.69-64-4.78,8.28,105.74,52.11,101.86,58.84-3.27,5.67-101.44-62.47-104.44-57.28-4.48,7.76,112.56,56.65,108.94,62.93-2.86,5-108.8-63.92-111-60.15-3.52,6.09,112.8,58.67,110,63.53-3.32,5.76-108.94-68.83-111.84-63.79-2.18,3.78,111.69,55.08,107.61,62.16-2.14,3.71-97.23-60.85-99.82-56.36-3.26,5.65,101.38,48.61,97.07,56.07-3.6,6.24-95.95-60.51-98.45-56.17-3.44,6,103.25,52.49,100.15,57.85-1.88,3.25-102.77-62.56-105.45-57.9-3.2,5.54,102.06,51.59,98.88,57.11C371.64,459.77,283,397.72,280,403c-2.27,3.93,95.74,46.53,91.94,53.11-3.65,6.32-97.58-62-101-56-2.46,4.27,109.46,54.53,105.7,61.05-4,6.87-104.74-66-107.32-61.55-3.82,6.63,108.33,53.81,104.54,60.39-3.9,6.77-100.43-60.92-103.06-56.37-4.18,7.24,104.63,52.88,101.35,58.54-2.56,4.44-97.86-65.22-101.66-58.64-3.94,6.83,97.17,49.28,94.21,54.41-4,6.86-102.8-64.31-105.92-58.89-2.84,4.91,113.23,55.88,109.11,63-3.79,6.56-105.37-65.47-108.27-60.45-4.53,7.85,112.31,56.92,108.87,62.88-2.1,3.64-112.59-69.67-116-63.76-4.46,7.73,111.6,56.69,108.23,62.52-2.08,3.6-101.9-64.7-105.12-59.12C253.12,408.35,363.76,460,360.92,465c-2.49,4.32-111.76-69.38-114.72-64.26-4.16,7.21,119,58,114.38,66.07-3.88,6.73-110.52-69.89-113.63-64.5-3.55,6.15,119.09,58.65,114.7,66.25-3.1,5.37-116.43-73.87-120.5-66.81-3.12,5.41,120.29,61.87,117,67.58-2.6,4.5-119.24-71.39-122.33-66-4.53,7.84,116.88,59.49,113.41,65.51-4.5,7.8-112.73-71.74-116.89-64.54-3.5,6.06,115.32,58.9,112,64.68-3.58,6.21-114.11-71.66-117.74-65.35C222.29,411,354,469.8,350.81,475.31c-4.3,7.45-124.81-78.23-128.49-71.85-2.74,4.75,124,63.37,120.41,69.55" fill="none" stroke="#999" stroke-linecap="round" stroke-linejoin="round" stroke-width="0.84"/><path d="M213,254.84s2.16,1.23,2.15,1.24c-.14.25-5-.94-5-.8s2.33,1,2.18,1.26c-.07.12-3-.58-3-.47s4,1.93,3.81,2.2c-.34.59-9-3.53-9.35-3s11.44,5.89,11.13,6.43c-.55.95-15.86-6.91-16.15-6.41s15.48,8.28,15.19,8.78c-.54.93-19-9.27-19.35-8.62-.58,1,18.16,9.46,17.71,10.23-.3.51-12-6.17-12.35-5.61-.59,1,8.74,3.16,7.92,4.57-.32.55-13.13-6.7-13.61-5.87-.95,1.64,16.6,8.34,16.06,9.27-.75,1.3-18.68-10.93-19.07-10.26-.65,1.12,24.3,11.83,23.35,13.49-.77,1.34-27.19-16.51-27.75-15.53s20,9.42,19.11,11" fill="none" stroke="#999" stroke-linecap="round" stroke-linejoin="round" stroke-width="0.84"/><path d="M365,42.26c-.78,1.36,17.53,9.17,17.12,9.89s-25.56-14.91-26.1-14c-1.45,2.52,37.78,19.35,36.71,21.21-.89,1.53-38.76-24-39.88-22.07-1.25,2.16,43,22.52,42,24.25C392.84,64.92,339,28,337.84,30.14c-1.89,3.28,70.08,34.24,67.37,38.92-2.88,5-83-47.64-84.76-44.61-4,7,96.8,50.67,94.53,54.6-2.66,4.61-94.54-59.22-96.61-55.63-2.92,5.06,100.07,53.51,98.21,56.73-3,5.14-89.86-57.83-92.76-52.8-2.18,3.78,97.33,50.73,95,54.85-2.94,5.1-98.2-61-100.46-57.12C315.49,30,422.78,80.85,420.8,84.28c-3.95,6.84-113.23-66.78-115.73-62.44-3.44,6,124.59,65.7,121.88,70.4C422.7,99.6,294.73,11.72,291.07,18.06c-2.93,5.08,153.09,75.72,147.59,85.25-5.7,9.88-142.87-94.1-148.42-84.49-3.25,5.64,149.59,79.6,146.65,84.71-3.28,5.69-156-95.57-160.3-88.06-6,10.48,171.73,86.86,166.39,96.11-3.82,6.62-166.8-105.82-172.23-96.42-4,6.89,177.91,88.39,171.69,99.17C439.34,119.68,282.07,7.7,275.8,18.56c-4.16,7.21,180.78,90.28,174.66,100.89C445.75,127.6,276.87,9,271.88,17.64,266.53,26.92,454.25,110.78,449,119.93,442.55,131.05,266.95,7.62,262,16.12s196.8,95.71,189,109.19C447.29,131.85,271,8,264.32,19.6c-4.47,7.74,200.55,101.25,194.23,112.19-6,10.39-197-124.53-202.47-115.08C249.41,28.28,464.8,127.46,460.55,134.82c-4.92,8.53-197-121-200.49-114.89-5.94,10.29,207.31,109.72,203,117.24C458.18,145.58,263.36,5.58,255.55,19.1S463.13,129.45,459,136.62C450.58,151.19,248.68,5.89,242.8,16.09,237.1,26,467.61,131.79,461.48,142.41c-5.9,10.23-210-129.35-214.27-122C242.75,28.15,472.07,132.3,464.28,145.8,455.45,161.11,251.17,5.88,243.35,19.43c-5,8.68,222.38,114.22,216.22,124.89C455.39,151.58,243.75,10.39,238.9,18.78,231.5,31.6,475.45,133.72,466.06,150,458.14,163.71,244.29,8.17,237,20.82c-7,12.21,240.89,128.26,236.18,136.42-7.46,12.92-237.84-153.51-245.62-140C217.8,34.12,478.29,150,473.09,159.06c-10,17.35-245.71-155.14-252.86-142.75C214,27.08,479.63,148.91,472.17,161.84c-7.32,12.69-248.1-155.3-254.61-144C207,36,486.75,152.25,477.62,168.06,472.78,176.46,228.3,6.4,219.8,21.14c-6.4,11.1,263.63,135,256.14,148C465.78,186.69,227.85,5,217.63,22.69c-6.16,10.68,268,130.25,257.38,148.67-4.78,8.28-253-168.47-263.2-150.82-5.24,9.08,271.76,132,261,150.73C465.61,183.68,222.09,4.45,212.51,21.06c-8,13.86,270,141.1,263.61,152.26C466.55,189.89,211.28,11.09,205.69,20.78,200.87,29.14,482,159.22,472.8,175.07,462.66,192.65,216.53,3.33,205.89,21.77,198,35.37,481.29,161.61,473,176,462.53,194.12,208.9,13.43,203,23.64c-5.33,9.24,283.5,145.26,275.49,159.13-10.39,18-271.82-168-278.08-157.11-5.49,9.52,286.88,139,275.32,159-6,10.37-267-178.41-277.84-159.57C188.05,42.21,494.57,170.38,483.28,190,475.55,203.35,206.1,12.6,196.85,28.65,188.42,43.25,489.2,183.13,483,193.92,472.79,211.58,200.11,14.61,192.53,27.73c-9.12,15.8,298.2,155.93,291.14,168.17-9,15.6-284-179.73-292.34-165.23C182.78,45.48,492.06,179,481.08,198c-7,12.08-295.64-181.46-301.53-171.26-10.19,17.66,318,160.91,308.17,178-9,15.54-288.82-192.4-300.08-172.88-7.26,12.58,303,157.66,295.52,170.7C477.47,212.44,187.39,9.93,177.71,26.7,168.62,42.46,498.6,188.48,488.4,206.16c-11.25,19.49-299.21-187-306.2-174.86C176.57,41.05,490.05,192.93,483,205.07c-8.67,15-294.54-191.2-304.91-173.24-5.63,9.75,138.69,74.29,136.17,78.66-4.28,7.42-137.24-86.1-141.1-79.42-3,5.24,145.45,71,139.81,80.76-2.7,4.69-138.51-90.39-143.09-82.46C165.71,36.68,305,101.71,302.57,106c-3.21,5.57-128-82.79-132.22-75.53-3.27,5.66,139.84,72,136.05,78.59-3.3,5.72-132.89-82.79-135.57-78.15-3.07,5.32,143.45,73,139.16,80.38-4.48,7.76-131.25-80-133.88-75.41-3.43,6,132.58,67.7,128.74,74.36C300,118.57,169.73,28.66,166.48,34.3c-5.25,9.1,133,70.69,130.37,75.3-5.12,8.87-125.49-76.84-128.61-71.44s127.29,65.2,123.69,71.44C289.15,114.42,166.81,32,164,36.86c-5.37,9.3,129.08,69.1,126.72,73.19-3.28,5.69-130.73-81.45-134.6-74.74-4.47,7.75,125.07,66.85,122.74,70.9C274.35,114,161,34.22,157.78,39.84c-3.59,6.21,120.13,60,116.09,67.05-3.45,6-113.79-70.53-116.29-66.2s120.72,58,115.63,66.79C268.87,115,160.29,34.28,156.6,40.67c-2.88,5,126.36,61.7,121.48,70.17-5,8.64-121.22-76.07-125.14-69.29-2.29,4,117.49,60.41,114.26,66C264.6,112.06,151.94,35.24,148,42.08c-4.45,7.71,115.91,61,113.32,65.46-3.43,5.95-109.79-68-112.07-64-4.76,8.24,117.59,57.51,113.08,65.32-3,5.12-111.06-68.73-114-63.69-2.6,4.51,118.87,61,115.54,66.74-4.73,8.2-120.17-76.57-124.24-69.52-2.83,4.91,126,62.95,121.74,70.32-2.24,3.88-118.87-75.36-121.93-70.07C137,47,257.82,102.29,254.07,108.79c-3,5.19-107.52-66.8-111.12-60.55-4,6.88,111.44,57.21,108.34,62.58C247.71,117,143,44,140.43,48.49c-3.86,6.69,108.36,52.88,104.15,60.16C241.49,114,140.26,43.8,137.93,47.83c-2.88,5,111.88,58.55,109.25,63.11-3.65,6.33-110.61-71.24-114.45-64.58-4.62,8,122.36,63.66,119.32,68.92-2.11,3.66-116.54-72.23-120.49-65.38-2.67,4.62,111,58.54,108.59,62.73s-104.43-67.5-107.66-61.9c-4.45,7.72,112,56.75,108.57,62.71-1.87,3.23-106.42-64-108.33-60.68-4.43,7.68,113.65,59.17,110.85,64C240.42,122.25,132.3,47,128.24,54c-3.65,6.33,115.71,59.88,112.69,65.09-2.37,4.1-110.05-66.06-112.21-62.32s110.17,56.56,107.1,61.87c-3.5,6.07-110.89-68.34-114.11-62.75-3.76,6.52,118.13,62,115.42,66.67-4,7-106-70.24-110.37-62.58-3.93,6.81,111.67,59.51,109.51,63.26-3,5.17-111.75-68.75-114-64.79-4.27,7.4,109.7,57.33,107.09,61.85-2.19,3.79-100.61-64.46-103.91-58.74-3.15,5.46,102.65,54.22,100.46,58-2.93,5.07-103.18-62.45-105.8-57.9-4.75,8.23,111.51,58.31,108.87,62.88-3.29,5.71-111.43-68.2-114.16-63.46-2.3,4,112.7,55.13,108.39,62.61C220,129.29,122.75,60.42,119.91,65.33c-3.26,5.64,105.08,54,102.19,59-3.73,6.47-103.43-68.2-107.11-61.82-3.12,5.41,111.83,57.81,108.89,62.9-3.29,5.7-106.69-69.31-110.48-62.75-3.55,6.15,111.09,53.63,106.53,61.54-3.9,6.76-100.2-65-104.18-58.12-2.93,5.08,112.51,54.32,107.89,62.32-2,3.46-106.79-66-110.6-59.4-3,5.14,107.14,53.45,103.49,59.78-3,5.27-101.48-65.68-104.56-60.33-3.58,6.21,106.35,56,104,60.07-3.36,5.82-106.8-70-110.77-63.18-2.76,4.79,116.47,59.44,113.07,65.31-3,5.28-108.14-67.86-110.93-63-4.08,7.08,111.86,57.11,108.61,62.74-3.08,5.35-104.14-65.4-108.08-58.58-3.55,6.15,115.4,59.52,112.31,64.87-3.52,6.1-106.13-70.24-110.37-62.9-3,5.26,115.91,57.56,111.85,64.6-3.37,5.84-115-75.55-119.33-68-4.24,7.35,119.71,58.43,115.07,66.47-3.56,6.17-109.82-72.22-114.32-64.43-4.24,7.35,113.7,55.28,109.2,63.08-2.16,3.75-109-69-113.31-61.54-2.18,3.78,124,64.47,120.92,69.85-2.8,4.86-117.37-76.76-122.25-68.3C93.85,82.13,220.31,141,218,145c-4.56,7.9-121-72.81-123.62-68.28-3.7,6.42,119.49,58.13,114.78,66.3C205.87,148.7,102.36,75.68,99.8,80.13c-2.76,4.79,112.1,58.76,109.5,63.25-2.14,3.71-114-74.39-117.8-67.75-2.72,4.72,125.77,61.92,121.13,70C210.11,150,98.49,73.82,95.12,79.66c-4.77,8.27,119.27,59.42,115.17,66.52C205.76,154,101,75.53,96.8,82.81c-3.35,5.8,114.48,59.54,111.63,64.48-3.52,6.09-111.82-67.57-114.62-62.73-4.06,7,126.73,64.57,123,71-4.59,8-121.85-73.1-124.41-68.66-3.83,6.64,117.85,59,113.92,65.8-2.58,4.48-109.69-70.51-113.46-64-4.53,7.85,126.34,64.45,122.65,70.85-3.27,5.67-124.55-79.14-129.27-71-5.36,9.29,132,65.72,127.45,73.62s-122.4-79-126.21-72.45c-3,5.15,129.37,66.06,125.62,72.56S91,87.47,88.77,91.4c-4,7,130.55,64.09,125.65,72.58C211.8,168.52,85.06,85,81.69,90.81,78,97.24,211,157.72,207.65,163.57,205,168.16,89,88.25,86,93.45,81,102,215.13,158.84,211.15,165.75,207.4,172.24,91,89.31,87.64,95.22s125.69,66.58,123.08,71.09C205.82,174.81,89.36,90.63,86,96.37c-4.47,7.75,124.61,60.17,119.5,69C201,173.22,81.18,88.5,78.29,93.52,74.61,99.88,215.72,161.3,210.7,170c-4.47,7.74-123.29-79.26-127.8-71.45-2.66,4.61,132.65,67.28,128.61,74.29C206.22,182,76.83,92.57,74.33,96.91c-4.75,8.23,138.46,71.76,134.9,77.92-2.37,4.11-132.56-83.26-136.76-76-4.44,7.7,145.94,73.27,141.16,81.54-4.66,8.07-135.08-86.11-139.74-78-3.41,5.91,137.26,72.83,134.47,77.67C203.06,189.23,79.62,97.24,75,105.16c-3.18,5.51,139.85,73.32,136.62,78.91-4.77,8.27-138.83-89.85-144.49-80-4,6.93,143.18,70.94,138.09,79.76C200,193,73.7,100.72,69.33,108.28c-4.19,7.26,145.61,75.53,141.9,82-3.85,6.67-143.82-91.77-149.48-82-3.19,5.53,154.06,76.39,148.6,85.84-2.53,4.39-138.85-83.51-142.22-77.67-3.93,6.8,144.18,72.31,139.43,80.54-4.3,7.45-135.8-87.24-140.73-78.71C63.2,124.61,213.45,195.16,210.07,201c-3.6,6.23-147.4-92.87-151.91-85-2.88,5,148.31,78.28,145.11,83.82-5.7,9.87-143.61-87.53-146.95-81.73-4,7,146.12,73.55,141.43,81.69S62.68,111.68,58.11,119.6c-4.84,8.39,146.72,71.57,141,81.45-5,8.58-132-82.7-135.69-76.28-5.75,10,134.38,71,131.51,76-3.7,6.4-128.88-81.56-133.43-73.66-2.78,4.82,135.56,67.76,131,75.67-2.89,5-131.75-79.73-135-74.07-3.87,6.7,132.5,69,129.26,74.66-2.57,4.45-134.57-83.24-137.33-78.46-3.33,5.77,135.1,69.05,131.21,75.79-3.61,6.26-118.71-77.72-122.82-70.6-5.27,9.13,129,63,124,71.65-2.46,4.27-124-79.35-127.43-73.5C50.8,134.53,190.12,196,185.55,204c-4,7-134.31-81.91-137.54-76.3-5.22,9,142.26,70.49,137.2,79.25-2.6,4.51-127.77-84.53-132.89-75.65-4.29,7.44,133,68.92,129.56,74.84C177.51,213.65,48,126.87,45.49,131.22c-4.31,7.47,136.05,69.14,132,76.22C173.1,215,54.38,127.77,50,135.37c-4.5,7.8,131.65,65.22,127,73.34-3.95,6.84-124-81.7-128.79-73.46-4.07,7,133.34,70,130.31,75.27-2.33,4-129.07-77.2-131.5-73-5.56,9.63,141,72.88,137.26,79.28-4.44,7.7-129.52-80.67-132.7-75.15-3.37,5.84,132.73,69.48,129.62,74.87C178.59,221,51.65,130.48,46.55,139.31c-4,6.92,136.32,70.38,132.7,76.65-4.4,7.63-125.72-78.24-129.81-71.15-3.62,6.27,134.69,65,129.15,74.6-4.74,8.22-126.87-80.79-130.26-74.91-5,8.59,137.68,69.6,133.39,77-4.14,7.17-139-82.36-141.88-77.41-5.73,9.92,142.67,73.85,139,80.27S44.43,138.17,40.08,145.71c-5.17,9,148.26,75.05,143.68,83C180.07,235.1,46.41,143,43.46,148.08c-4.33,7.51,137.4,70.3,133.48,77.1-4.92,8.52-126.47-80.34-131-72.52C42.23,159.1,189.14,229,186.38,233.77,183.3,239.09,39.16,143.41,36.5,148s153.76,75.27,147.9,85.43c-3.92,6.8-140.95-89.57-144.74-83-2.75,4.76,148.85,73.9,143.62,83-3.15,5.47-140-89.35-144-82.38-5.87,10.18,152.57,76.1,147.36,85.12-3,5.15-144.11-94.3-150.13-83.88s151.79,77.28,147.29,85.08c-4.16,7.2-143.13-88.78-147.54-81.14-3.37,5.83,155.2,76.12,149.35,86.27-5.53,9.58-143.3-86.88-146.58-81.2-3.59,6.21,153.16,74.82,147.25,85.05-3,5.18-145-90.32-148.56-84.11-4.43,7.68,148.57,77,144.73,83.6S40.31,161.56,37.68,166.13c-6.05,10.49,142.09,74.37,138.75,80.15-4.57,7.92-134.16-83.73-138.71-75.86C31,182,212.83,263.62,209.39,269.57c-6.16,10.68-174.44-111.76-180-102.2-5.12,8.88,184,90.74,177.28,102.4-5.1,8.85-168.22-112.58-175.15-100.56-7.18,12.43,180.83,89,174.16,100.6C198.9,281.65,36.18,164.09,31.94,171.43c-4.89,8.48,182.63,95.14,178.15,102.9C203.53,285.7,35.18,166.93,31.89,172.62c-4.49,7.78,188.4,95.9,182.8,105.59-6.37,11-176.57-113.53-183.21-102-5.08,8.81,186.93,95.89,181.7,105-3.28,5.68-175.65-113.26-182.6-101.22-4,7,183.21,93.77,178,102.81C203.89,290.85,32,168.48,26.53,178,19.35,190.43,221.26,272.82,213.63,286,207.37,296.88,39.7,172.91,33.86,183c-6,10.31,184.63,98.46,181.09,104.6-4.73,8.2-179.58-112.87-185.53-102.56C22.85,196.46,218.21,282,213,291.09,206.68,302,37.48,175.24,30.42,187.48c-3.81,6.6,184.63,95,179.58,103.73C204.15,301.35,31.33,179.75,27.17,187,21,197.71,210.61,285.09,207.23,291,200.46,302.68,30.58,181.8,26.09,189.58s192.24,100.09,187.5,108.3C206.13,310.8,30.63,178.48,23.73,190.44c-4.94,8.56,186.4,96.94,181.76,105C202.11,301.28,25.17,182.75,21,190c-5.56,9.64,199.56,100.05,193,111.47-5.29,9.17-188-120.21-194.62-108.74-4,6.92,193.18,100.08,188.2,108.71C201.24,312.34,35,186.75,27.87,199c-4.37,7.58,186,95.13,180.64,104.34-3.44,6-177.32-113.93-183.5-103.22C21.4,206.4,219.77,295.3,212.27,308.3c-6.94,12-187.38-116.74-191.53-109.56-4.25,7.37,193.81,102.67,189.79,109.63C204.63,318.6,25.69,194,21.11,202c-7.27,12.59,193.95,93.79,186.05,107.47C203,316.73,26,196.49,22.14,203.22s199.21,99.06,192.28,111.06c-3.47,6-186-124.77-193.66-111.48-4.11,7.12,194.11,101.51,189.52,109.47C204.67,322,33.35,195.72,26.1,208.27c-5.35,9.27,193.39,94.12,185.78,107.31C208.1,322.15,28.06,202.83,23.69,210.4c-5.32,9.22,185.64,97.36,181.37,104.76C199.22,325.28,23.57,205,19.31,212.4,14,221.58,220.6,313.85,214.19,325c-3.71,6.42-190.83-121.63-197.45-110.17-6.29,10.89,198.48,101.13,192.63,111.26-6.52,11.3-178.55-118.83-185.7-106.44-4.07,7,185.83,97.64,181.63,104.91C198.83,335.74,23.12,209.79,18.95,217c-7.22,12.51,193,96.54,186.55,107.76-4.56,7.91-182.17-111.31-186.39-104C15,227.91,216.73,321.35,210.85,331.55,203.53,344.22,25.47,212,18.36,224.31c-7.64,13.24,197,97.38,189.89,109.69C204,341.37,23.74,223.8,20.52,229.39c-4,6.86,194.3,96.29,187.4,108.24C203.45,345.38,29.65,224.1,23.07,235.5c-4.15,7.19,188.09,98.11,183.53,106-7.5,13-183.37-118.16-189.55-107.45-4.53,7.85,198.15,104.11,193.67,111.87C205.19,355.53,22.16,226.45,16,237.09c-7.18,12.44,200.15,101.51,194,112.08C203,361.48,26.69,227.24,19.61,239.5c-3.81,6.6,199.23,105.08,194.91,112.58C210.8,358.52,22,225.44,14.78,238c-5.57,9.65,203.46,108.62,199.61,115.3-5.52,9.57-189.32-115.22-192.68-109.38C16.64,252.71,221,344.24,214.62,355.35,211.09,361.46,29.41,231.76,21.79,245,15.48,255.9,214,347.16,210.18,353.79c-5.1,8.84-188.43-117.45-192.23-110.86-5.32,9.22,201.59,99.37,194.2,112.17C208.78,360.94,23.71,238.89,19.67,245.9,15.33,253.42,213.87,347,209.08,355.3S26.48,240.78,20.9,250.44C13.57,263.15,211,346.58,205.08,356.83c-3.9,6.75-186.26-115.33-190-108.78-7.53,13,203.27,101.5,196.38,113.44C205.29,372.12,19.81,241.62,14.84,250.23,8.93,260.47,216,353.27,210.32,363.15c-6,10.37-187.14-117-192.41-107.85-7.66,13.27,204.36,101.12,197,113.81C210.68,376.5,24.14,252.4,19.47,260.49c-5.65,9.79,195,94.51,187.17,108.11-6.94,12-181.58-120.45-188.42-108.6-8,13.82,199.52,99.74,192.81,111.37C204.88,382,19.17,252.6,14,261.5,6.74,274.14,216,361.88,209,374.11,202.6,385.18,18.86,250.18,11.9,262.23,6.32,271.9,218.17,366,211.5,377.52,206.72,385.8,17.14,257.33,13.62,263.44c-6.17,10.69,200.42,101,194,112.08-6.23,10.79-182.93-114.21-188.25-105C12.2,283,221.84,369.7,214.15,383,208,393.61,25.28,265.79,20.65,273.8,17.1,280,217.23,371.32,210.29,383.35,202.63,396.62,25.56,263.62,19.74,273.7,13.23,285,209.81,373.33,205.41,380.94,198.25,393.36,24.77,262.83,17.88,274.77c-5,8.62,196.68,102.47,191.86,110.82-5.79,10-183.48-117.9-190.16-106.33C16,285.52,214.2,377.81,208.2,388.21,200.66,401.28,21.83,267.07,15.49,278.06,8.06,290.93,213.61,376.54,206.7,388.5c-6.22,10.77-187.67-121.7-194-110.68C7.2,287.31,216.09,384.1,211.24,392.52,207.32,399.31,19,272.9,13.32,282.77,7.07,293.59,221.42,385.84,214,398.69c-4.49,7.77-190.77-118-194.41-111.7C7.46,308,346.14,457.37,338.24,471,329.55,486.11,29.14,263.62,16.5,285.53,10,296.76,354.92,453,342.8,474c-6.15,10.66-313-208.17-325.86-185.81C7.5,304.55,351.65,453,339.3,474.4c-12.69,22-307.86-200-319-180.75C10.88,310,348,459.7,338,477.12c-9.81,17-312.76-192.71-318.47-182.82C8.07,314.12,343.71,465.19,336.62,477.47c-6.84,11.85-306.88-201.2-318.18-181.62C8.28,313.46,341.16,464,333.27,477.71,326,490.3,31,282.63,21,300c-9.72,16.84,323.38,160.7,312.09,180.27S27.88,291.42,22.24,301.18c-10.41,18,320.28,166.51,312.28,180.38C327.35,494,34,282.55,21.8,303.61S342.58,461.18,330.58,482c-12.37,21.43-297.92-194.73-308-177.3C12.43,322.29,339.35,470,331.71,483.22,325.51,494,28.2,294.59,22,305.28c-7.32,12.68,312.83,154,301.27,174C315.59,492.68,34.77,292.91,24.46,310.78c-8.59,14.88,302.47,150.75,292.1,168.72C305.21,499.17,25.22,302.94,20.07,311.86,11.64,326.48,324.3,466.15,315,482.23,304,501.28,28.39,295,18.76,311.7c-11.54,20,306.91,150.84,295.47,170.67C308.59,492.13,31,292.55,19.19,313,10.53,328,326,473.84,318.89,486.13c-9.66,16.75-287.67-184-296-169.51-8.22,14.24,297,153.77,289.32,167.11C302.05,501.27,28.5,308.1,23.08,317.49,16.94,328.13,323.71,470.63,314.83,486,307.5,498.71,32.21,305.08,24.55,318.36c-9.81,17,299.11,145.64,287.36,166-7.17,12.42-279.21-172.91-284.33-164-9.35,16.2,293.21,144.12,282.29,163.05C303.08,495.12,27.11,305.81,20,318.07,8.58,337.94,312.31,469.52,304.79,482.55c-6.75,11.7-274-169.67-280.33-158.66C13.23,343.35,313.4,478.19,307.95,487.64c-6.21,10.76-270.4-167.7-277.21-155.91-9,15.58,280,147.92,274.05,158.3-8.58,14.86-266-168-273.63-154.9-6,10.42,272.92,140.21,265.38,153.29C287.07,504.85,38.63,322,30.09,336.75c-5.79,10,272,136.71,263.19,152C287.49,498.81,43,324.17,34,339.66,23.82,357.35,304.3,470.5,293.36,489.46,283.45,506.62,33.64,328.65,28,338.34,21,350.55,296.21,480.44,290.67,490,281.46,506,37.72,327.4,30.19,340.45c-7.85,13.61,259.29,138.91,254.59,147.05-7.3,12.65-242.86-159.9-251.56-144.83-9.79,17,265.69,132.59,256.66,148.25-7.64,13.24-254.7-164.11-262.12-151.24-9.55,16.55,270,131.89,259.59,149.95C282.57,497.92,42.43,329.42,33.3,345.25c-8.2,14.2,263.43,136.27,256.55,148.19-7,12.21-251.14-161.2-259.74-146.29C20.17,364.36,292,476.46,282.53,492.95,275.25,505.56,45.38,347.29,39.74,357.06c-7.89,13.68,237,121.3,230.29,133C264,500.47,44.71,347,37.95,358.74c-9.08,15.73,236.48,118.38,228.59,132-7.15,12.38-223-140.9-229.07-130.39-7.82,13.55,236.6,115,227.2,131.24C258,503.2,53.59,355.12,46.51,367.38,38.37,381.5,263.25,482.41,258.85,490,250.09,505.2,42.5,356.73,38.15,364.26,32,375,262.91,484.21,258.64,491.62S54.26,366.52,49.32,375.07C43.19,385.7,264.13,487.62,259.14,496.27,253.53,506,53.32,358.42,45.05,372.74c-7.49,13,215.28,109.67,208.93,120.68-6.47,11.21-201.84-132.53-210.19-118-4.92,8.52,216.46,106,208.21,120.27C244.75,508.2,60.81,371.85,53.65,384.25c-6.46,11.2,198.72,100.83,192.68,111.29C239.44,507.48,58.74,379.34,53.78,388,48.91,396.38,245,483.76,238.65,494.74,234.12,502.59,62.41,384.9,58.9,391s183.84,93.9,178.52,103.12c-5.75,10-175.84-116.74-182.86-104.58-4.25,7.36,191.1,95.22,184.54,106.59-6.17,10.7-168.78-108.45-175.53-96.74C57.16,410.47,233,489,229.46,495.2c-5.15,8.93-158.36-105.79-164.7-94.81-3,5.22,162.51,78.68,155.94,90.07-6.19,10.73-152.57-97.93-158.21-88.16-4.9,8.48,156.28,81.54,152.5,88.09-4.2,7.28-143.89-89.87-147.8-83.09-4.89,8.47,144.87,77.56,142.22,82.15-3.06,5.3-134.14-81.26-137.4-75.6-4.54,7.86,129.33,67.59,126.26,72.93-3.93,6.81-115.28-71.29-118.34-66-4.09,7.09,116.69,61,113.91,65.8C190.17,492.94,85,414,80.69,421.44s121.14,62,117.7,68S82.55,417.18,79.62,422.26c-2.26,3.92,113.84,56.21,109.71,63.37-2.57,4.46-91.8-58.94-95.53-52.47-2.31,4,87.85,43.63,84.77,49-2.73,4.73-74.72-45.18-77.22-40.85-1.32,2.28,73.33,37.43,71.2,41.13-1.59,2.75-44.77-24.56-46.07-22.32-.44.75,7.94,3.76,7.59,4.38" fill="none" stroke="#999" stroke-linecap="round" stroke-linejoin="round" stroke-width="0.84"/><path d="M249.91,14.45C115.61,9.53,9.7,129.44,9.8,253.44,6.42,391.82,120.28,493.22,250.34,500.21,385,499.33,500.71,380.3,495.78,251,496.5,126.59,388.79,13.77,249.91,14.45Zm63,239.54c1.25-.06-38.58,6.56-40.33.25.83,2.41,2.22,142.93.59,147.19.52-.57-57.88-6.66-57.14-6.45-1.92,8.93-1.58-136.49-.64-140-2.56,5.87-29.63-5.32-28.09-2.63-2.2,7.09-.72-44.83.48-46.18-3.29-5.28,26.44-5.67,27.87-1.39-.89,3.66-.92-38.9-1-32.53-1.24-20.82,9.8-62.11,60.61-58.11.89-4.8,45.27-9.22,44-2-.69-4.93.11,52.12-.7,47.4,2,6.23-30.86-1-32.4-2.76-5.21,5.37-11.77,10.16-11.42,19-.93-5.17-1.2,33.32,0,29.91,0,.52,45.48,1.62,44.8.05C321.53,205,315.44,256.49,312.94,254Z" fill="none" stroke="#666" stroke-width="2.09"/><path d="M257.37,11.53C112.58,21.3,17.52,118.69,14.21,252.71c-1.52,137.72,116,244,246.73,246.81C378.41,491.11,492.9,384,502.53,255,496.82,127.15,387.79,19.35,257.37,11.53Zm58.87,243.61c-4.86,2.95-41.48-2.68-40.64-1.32-2.18,3.56.81,145.46,1,147.15-4.37-5-61.33-5.22-60.76-.7.52-.53.47-147.48-2-145.11-.18,2.29-28.72.21-26.68.78,2.25-1,1.69-53.53.49-52.38-2.73,0,27,3.65,27.26-.69,2.22,5.09,1.22-31.06-1.28-34.56-.39-17.93,12.49-53.27,63.08-58.2-3.17,1.09,40.06,5.45,44.69.36-2.14,3.64-3.1,53-.44,49.78-.11,2.06-33.73.79-33.78,1.62-5.14-.65-10.85,4.78-11.58,10.05-.26,3.46-3.43,33.94-.13,33.91.94-3.19,45.28-3.25,46.8.28C318,207.25,314.66,256.92,316.25,255.14Z" fill="none" stroke="#4c4c4c" stroke-width="1.57"/></svg>