<svg id="svg" version="1.1" width="400" height="400" xmlns="http://www.w3.org/2000/svg" xmlns:xlink="http://www.w3.org/1999/xlink" style=""><g id="svgg"><path id="path0" d="M118.980 0.406 C 96.069 3.816,84.467 30.175,97.709 48.732 C 110.779 67.048,136.273 66.968,148.840 48.571 C 164.077 26.266,145.590 -3.555,118.980 0.406 M203.993 33.866 C 192.664 34.187,192.606 34.199,191.845 36.504 C 190.614 40.235,192.753 41.351,201.531 41.559 L 208.163 41.717 208.163 74.786 L 208.163 107.856 211.737 111.594 C 222.418 122.766,222.355 137.904,211.581 149.349 L 208.163 152.980 208.163 166.648 L 208.163 180.317 200.855 180.469 C 194.383 180.603,193.448 180.709,192.691 181.394 C 191.471 182.498,191.517 185.297,192.779 186.765 L 193.722 187.860 207.371 188.193 C 226.765 188.665,373.800 188.640,384.869 188.162 C 398.434 187.577,400.384 187.012,399.865 183.813 C 399.410 181.014,397.650 180.492,388.469 180.433 L 384.490 180.408 384.490 111.062 L 384.490 41.717 391.122 41.541 C 398.769 41.339,399.015 41.269,399.653 39.141 C 400.222 37.242,399.598 34.563,398.466 34.046 C 397.563 33.633,218.070 33.467,203.993 33.866 M116.122 64.541 C 88.221 66.537,64.757 82.974,48.229 112.100 C 35.520 134.495,25.557 169.718,29.542 178.163 C 32.775 185.013,41.727 189.597,49.160 188.207 C 56.098 186.910,56.900 185.390,68.784 151.020 C 72.316 140.806,75.325 132.224,75.470 131.949 C 75.616 131.675,75.662 144.578,75.574 160.623 L 75.413 189.796 122.605 189.796 L 169.796 189.796 169.798 163.980 C 169.801 139.527,169.996 131.429,170.583 131.429 C 170.724 131.429,175.111 135.088,180.331 139.561 C 193.012 150.426,193.998 150.953,199.174 149.626 C 210.771 146.655,217.139 134.488,213.281 122.669 C 212.055 118.913,207.105 114.035,187.551 97.317 C 155.413 69.841,150.163 66.725,133.337 65.137 C 123.893 64.246,121.436 64.161,116.122 64.541 M134.031 66.340 C 135.075 66.773,134.727 70.000,133.129 74.710 C 131.152 80.537,130.642 81.217,128.232 81.231 C 125.725 81.245,125.669 80.363,129.549 101.911 C 131.522 112.870,133.772 125.231,134.549 129.380 L 135.961 136.924 134.436 139.928 C 131.665 145.388,124.824 154.286,123.398 154.286 C 121.873 154.286,110.081 139.283,110.417 137.770 C 110.751 136.264,119.648 87.613,120.110 84.766 C 120.619 81.631,120.401 81.242,118.132 81.231 C 115.801 81.219,112.577 74.683,111.949 68.695 C 111.704 66.354,111.672 66.381,115.102 65.966 C 117.433 65.683,133.200 65.995,134.031 66.340 M277.608 82.017 C 279.698 83.030,280.239 86.141,278.647 87.992 C 277.106 89.783,251.932 90.591,247.505 88.990 C 244.952 88.067,244.518 83.262,246.892 82.199 C 249.221 81.156,275.512 81.000,277.608 82.017 M339.725 99.572 C 346.263 100.019,347.599 100.917,346.306 103.993 C 344.927 107.272,341.732 107.454,289.374 107.244 C 247.187 107.074,247.676 107.100,246.289 104.992 C 244.359 102.060,245.654 99.991,249.674 99.582 C 253.783 99.164,333.626 99.155,339.725 99.572 M330.408 116.101 C 337.367 116.203,343.693 116.438,344.465 116.624 C 347.347 117.318,347.275 121.406,344.356 122.792 C 340.357 124.691,250.644 124.569,246.951 122.659 C 244.355 121.317,244.525 117.815,247.243 116.637 C 249.102 115.831,292.770 115.549,330.408 116.101 M328.980 132.633 C 337.203 132.828,344.358 133.173,344.950 133.403 C 347.513 134.398,347.031 138.266,344.197 139.453 C 339.735 141.322,251.707 141.327,247.246 139.459 C 244.525 138.319,244.250 135.519,246.680 133.704 C 248.439 132.391,293.811 131.801,328.980 132.633 M247.035 242.245 C 228.685 245.565,219.427 259.076,222.668 277.804 C 226.474 299.800,254.450 307.225,271.070 290.651 C 277.679 284.061,279.252 278.730,278.336 266.040 C 277.661 256.692,269.705 247.292,259.288 243.535 C 256.774 242.628,255.635 242.391,251.224 241.857 C 250.551 241.775,248.666 241.950,247.035 242.245 M36.909 242.625 C 3.734 252.024,9.498 299.650,43.802 299.585 C 77.156 299.522,82.669 251.038,50.204 243.279 C 45.511 242.158,39.588 241.866,36.909 242.625 M141.429 242.646 C 118.404 247.723,110.213 274.762,126.701 291.260 C 145.597 310.167,176.852 295.843,175.398 268.942 C 174.482 251.990,157.759 239.045,141.429 242.646 M348.305 242.488 C 339.074 244.030,328.132 253.865,326.098 262.449 C 325.341 265.641,325.453 276.174,326.281 279.698 C 329.552 293.624,347.239 303.079,361.842 298.708 C 377.033 294.162,384.698 279.636,381.033 262.339 C 378.334 249.602,362.653 240.091,348.305 242.488 M31.117 301.628 C 16.846 302.665,4.486 312.316,0.999 325.145 C 0.185 328.141,-0.261 347.433,0.192 360.053 L 0.494 368.472 32.390 368.641 C 83.228 368.909,86.195 368.755,86.819 365.811 C 87.281 363.632,87.031 334.863,86.508 330.048 C 85.135 317.415,74.300 305.519,61.156 302.213 C 58.117 301.449,38.764 301.072,31.117 301.628 M339.991 301.622 C 326.172 302.962,314.074 313.466,310.826 326.945 C 309.216 333.627,308.932 364.771,310.464 366.822 C 311.840 368.666,312.231 368.688,346.531 368.870 C 391.385 369.107,396.705 368.810,397.416 366.024 C 397.862 364.276,397.649 336.084,397.149 330.741 C 395.848 316.820,383.038 303.541,369.492 302.069 C 364.475 301.524,344.172 301.216,339.991 301.622 M129.005 302.038 C 121.281 303.224,110.866 311.652,106.387 320.341 C 103.740 325.474,103.673 326.173,103.673 348.648 L 103.673 368.575 146.837 368.471 L 190.000 368.367 190.112 362.035 C 190.388 346.414,189.568 325.690,188.571 323.091 C 185.046 313.906,175.730 305.168,166.735 302.610 C 163.986 301.829,133.388 301.364,129.005 302.038 M232.857 302.216 C 220.834 304.510,209.636 315.432,207.508 326.939 C 206.119 334.445,205.920 366.083,207.252 367.416 C 208.332 368.496,212.718 368.658,245.918 368.850 C 283.490 369.067,291.769 368.820,293.147 367.442 C 295.361 365.228,295.084 332.596,292.791 325.510 C 289.328 314.809,280.038 305.479,269.983 302.604 C 266.681 301.659,237.376 301.353,232.857 302.216 " stroke="#000000" fill="none" stroke-width="3" class="yubwHlOx_0"></path></g><style data-made-with="vivus-instant">.yubwHlOx_0{stroke-dasharray:4377 4379;stroke-dashoffset:4378;animation:yubwHlOx_draw_0 7200ms linear 0ms infinite,yubwHlOx_fade 7200ms linear 0ms infinite;}@keyframes yubwHlOx_draw{100%{stroke-dashoffset:0;}}@keyframes yubwHlOx_fade{0%{stroke-opacity:1;}94.44444444444444%{stroke-opacity:1;}100%{stroke-opacity:0;}}@keyframes yubwHlOx_draw_0{11.11111111111111%{stroke-dashoffset: 4378}52.77777777777778%{ stroke-dashoffset: 0;}100%{ stroke-dashoffset: 0;}}</style></svg>