<svg id="svg" version="1.1" width="400" height="400" viewBox="0 0 400 400" xmlns="http://www.w3.org/2000/svg" xmlns:xlink="http://www.w3.org/1999/xlink" style=""><g id="svgg"><path id="path0" d="M44.600 120.000 C 44.464 120.220,44.003 120.400,43.576 120.400 C 43.149 120.400,42.800 120.568,42.800 120.773 C 42.800 120.978,42.422 121.266,41.961 121.413 C 41.019 121.711,39.600 123.006,39.600 123.567 C 39.600 123.768,39.410 123.997,39.179 124.074 C 38.415 124.328,38.019 127.322,38.010 132.923 C 37.999 138.842,38.708 146.104,39.262 145.762 C 39.448 145.647,39.600 146.013,39.600 146.576 C 39.600 147.139,39.778 147.600,39.995 147.600 C 40.213 147.600,40.506 148.320,40.646 149.200 C 40.787 150.080,41.045 150.800,41.219 150.800 C 41.394 150.800,41.655 151.340,41.800 152.000 C 41.945 152.660,42.190 153.200,42.344 153.200 C 42.498 153.200,42.973 154.100,43.400 155.200 C 43.827 156.300,44.302 157.200,44.456 157.200 C 44.610 157.200,44.855 157.740,45.000 158.400 C 45.145 159.060,45.426 159.600,45.624 159.600 C 45.822 159.600,46.098 160.050,46.236 160.600 C 46.374 161.150,46.647 161.600,46.843 161.600 C 47.040 161.600,47.200 161.870,47.200 162.200 C 47.200 162.530,47.360 162.800,47.557 162.800 C 47.753 162.800,48.026 163.250,48.164 163.800 C 48.302 164.350,48.578 164.800,48.776 164.800 C 48.974 164.800,49.255 165.340,49.400 166.000 C 49.545 166.660,49.790 167.200,49.946 167.200 C 50.101 167.200,50.568 167.785,50.985 168.500 C 52.775 171.575,54.952 174.800,55.238 174.800 C 55.407 174.800,55.666 175.179,55.814 175.643 C 56.081 176.484,56.601 177.210,58.300 179.110 C 58.795 179.664,59.200 180.230,59.200 180.369 C 59.200 180.631,60.003 181.558,64.146 186.076 C 65.496 187.548,66.801 188.988,67.046 189.276 C 67.292 189.564,67.900 190.070,68.398 190.400 C 68.896 190.730,70.307 191.945,71.533 193.100 C 72.758 194.255,73.897 195.200,74.063 195.200 C 74.228 195.200,74.777 195.614,75.283 196.119 C 75.788 196.625,76.517 197.159,76.901 197.307 C 77.285 197.454,77.600 197.761,77.600 197.987 C 77.600 198.214,77.857 198.400,78.171 198.400 C 78.486 198.400,78.981 198.635,79.271 198.922 C 79.562 199.210,80.385 199.789,81.100 200.209 C 81.815 200.629,82.400 201.114,82.400 201.286 C 82.400 201.459,82.657 201.600,82.971 201.600 C 83.286 201.600,83.783 201.825,84.078 202.100 C 84.372 202.375,85.284 202.943,86.106 203.363 C 86.928 203.783,87.600 204.258,87.600 204.420 C 87.600 204.581,88.050 204.826,88.600 204.964 C 89.150 205.102,89.600 205.392,89.600 205.608 C 89.600 205.823,89.857 206.000,90.171 206.000 C 90.486 206.000,90.988 206.225,91.288 206.500 C 91.931 207.089,93.156 207.893,94.000 208.280 C 94.330 208.431,94.838 208.790,95.129 209.078 C 95.419 209.365,95.914 209.600,96.229 209.600 C 96.543 209.600,96.800 209.739,96.800 209.909 C 96.800 210.079,97.430 210.557,98.200 210.972 C 98.970 211.387,99.600 211.878,99.600 212.063 C 99.600 212.248,99.857 212.400,100.171 212.400 C 100.486 212.400,100.989 212.646,101.290 212.947 C 101.591 213.248,102.234 213.620,102.719 213.774 C 103.203 213.928,103.600 214.202,103.600 214.384 C 103.600 214.565,104.050 214.826,104.600 214.964 C 105.150 215.102,105.600 215.392,105.600 215.608 C 105.600 215.823,105.870 216.000,106.200 216.000 C 106.530 216.000,106.800 216.177,106.800 216.392 C 106.800 216.608,107.250 216.898,107.800 217.036 C 108.350 217.174,108.800 217.426,108.800 217.597 C 108.800 217.767,109.115 218.021,109.500 218.160 C 110.715 218.599,112.004 219.463,111.779 219.688 C 111.660 219.807,112.021 220.019,112.581 220.160 C 113.142 220.300,113.600 220.592,113.600 220.808 C 113.600 221.023,113.857 221.200,114.171 221.200 C 114.486 221.200,114.983 221.425,115.278 221.700 C 115.572 221.975,116.484 222.543,117.306 222.963 C 118.128 223.383,118.800 223.878,118.800 224.063 C 118.800 224.248,119.057 224.400,119.371 224.400 C 119.686 224.400,120.189 224.646,120.490 224.947 C 120.791 225.248,121.434 225.620,121.919 225.774 C 122.403 225.928,122.800 226.222,122.800 226.427 C 122.800 226.632,123.070 226.800,123.400 226.800 C 123.730 226.800,124.000 226.968,124.000 227.173 C 124.000 227.378,124.405 227.672,124.900 227.827 C 125.395 227.981,125.890 228.228,126.000 228.375 C 126.110 228.522,126.905 229.071,127.768 229.596 C 129.394 230.584,131.627 232.448,132.751 233.754 C 133.108 234.168,134.069 235.248,134.886 236.154 C 135.703 237.059,136.603 238.250,136.886 238.800 C 137.169 239.350,137.625 240.038,137.900 240.329 C 138.175 240.619,138.400 241.114,138.400 241.429 C 138.400 241.743,138.566 242.000,138.768 242.000 C 138.971 242.000,139.255 242.540,139.400 243.200 C 139.545 243.860,139.806 244.400,139.981 244.400 C 140.155 244.400,140.406 245.076,140.538 245.902 C 140.670 246.729,141.131 248.136,141.563 249.029 C 141.995 249.923,142.469 251.137,142.617 251.727 C 142.766 252.317,143.028 252.800,143.200 252.800 C 143.372 252.800,143.616 253.211,143.742 253.713 C 143.997 254.727,148.055 259.200,148.720 259.200 C 148.953 259.200,149.381 259.436,149.671 259.724 C 150.371 260.417,152.776 261.600,153.485 261.600 C 153.794 261.600,153.936 261.780,153.800 262.000 C 153.664 262.220,153.788 262.406,154.076 262.413 C 154.364 262.420,155.860 262.594,157.400 262.798 C 160.367 263.192,167.200 262.599,167.200 261.948 C 167.200 261.756,167.639 261.600,168.176 261.600 C 168.713 261.600,169.258 261.430,169.386 261.223 C 169.514 261.016,170.427 260.725,171.414 260.577 C 172.402 260.429,173.302 260.159,173.414 259.977 C 173.527 259.795,174.424 259.525,175.409 259.378 C 176.394 259.230,177.200 258.966,177.200 258.792 C 177.200 258.618,178.100 258.351,179.200 258.200 C 180.300 258.049,181.200 257.762,181.200 257.562 C 181.200 257.363,181.539 257.200,181.954 257.200 C 182.369 257.200,183.224 256.931,183.854 256.602 C 184.484 256.274,185.315 256.004,185.700 256.002 C 186.085 256.001,186.400 255.834,186.400 255.632 C 186.400 255.429,186.940 255.145,187.600 255.000 C 188.260 254.855,188.800 254.610,188.800 254.454 C 188.800 254.299,189.370 253.836,190.067 253.424 C 191.879 252.354,196.800 247.194,196.800 246.365 C 196.800 245.608,198.300 243.233,198.603 243.511 C 198.776 243.670,198.826 243.423,198.713 242.963 C 198.600 242.502,198.843 241.435,199.254 240.591 C 200.057 238.941,200.401 227.600,199.648 227.600 C 199.455 227.600,199.166 225.350,199.008 222.600 C 198.849 219.850,198.558 217.600,198.360 217.600 C 198.162 217.600,198.000 216.531,198.000 215.224 C 198.000 213.917,197.836 212.746,197.635 212.622 C 197.434 212.498,197.141 210.237,196.984 207.598 C 196.826 204.959,196.565 202.800,196.403 202.800 C 196.242 202.800,195.982 201.068,195.827 198.950 C 195.672 196.833,195.390 194.808,195.202 194.450 C 194.519 193.152,193.600 190.365,193.600 189.592 C 193.600 189.156,193.428 188.800,193.218 188.800 C 193.008 188.800,192.718 188.172,192.574 187.404 C 192.430 186.635,192.193 186.081,192.047 186.171 C 191.902 186.261,191.437 185.494,191.014 184.467 C 190.591 183.440,190.010 182.362,189.723 182.071 C 189.435 181.781,189.200 181.286,189.200 180.971 C 189.200 180.657,189.020 180.400,188.800 180.400 C 188.580 180.400,188.400 180.226,188.400 180.014 C 188.400 179.801,187.860 179.075,187.200 178.400 C 186.540 177.725,186.000 177.025,186.000 176.845 C 186.000 176.325,179.913 170.400,179.380 170.400 C 178.868 170.400,177.235 168.898,177.480 168.653 C 177.619 168.514,177.461 168.400,177.128 168.400 C 176.795 168.400,176.090 168.042,175.561 167.606 C 175.033 167.169,174.096 166.404,173.480 165.906 C 172.865 165.407,172.113 164.775,171.809 164.500 C 171.505 164.225,171.135 164.000,170.986 164.000 C 170.743 164.000,168.092 162.034,166.949 161.006 C 166.701 160.783,166.081 160.330,165.572 160.000 C 165.063 159.670,164.223 158.995,163.705 158.500 C 163.187 158.005,162.616 157.600,162.436 157.600 C 162.256 157.600,161.499 157.063,160.754 156.406 C 160.009 155.750,159.273 155.210,159.118 155.206 C 158.963 155.203,158.386 154.750,157.836 154.200 C 157.286 153.650,156.643 153.200,156.406 153.200 C 156.169 153.200,155.871 152.930,155.745 152.600 C 155.618 152.270,155.309 151.997,155.057 151.994 C 154.806 151.990,154.025 151.495,153.323 150.894 C 151.878 149.657,150.861 148.872,149.575 148.000 C 149.088 147.670,148.273 146.995,147.763 146.500 C 147.253 146.005,146.661 145.600,146.447 145.600 C 146.232 145.600,145.811 145.375,145.510 145.100 C 144.717 144.375,142.424 143.200,141.801 143.200 C 141.507 143.200,141.192 142.975,141.100 142.700 C 140.896 142.088,132.913 142.004,132.480 142.609 C 132.179 143.030,130.972 143.839,130.000 144.273 C 129.459 144.514,128.547 145.448,127.110 147.234 C 125.970 148.650,125.521 149.803,125.309 151.861 C 125.186 153.050,124.931 154.119,124.743 154.235 C 124.286 154.517,124.300 160.400,124.757 160.400 C 124.953 160.400,125.218 160.818,125.346 161.328 C 125.474 161.838,126.214 162.909,126.990 163.708 C 127.765 164.507,128.400 165.349,128.400 165.580 C 128.400 165.811,128.610 166.000,128.867 166.000 C 129.123 166.000,129.228 166.105,129.099 166.234 C 128.893 166.441,129.685 167.554,131.047 168.972 C 131.293 169.228,131.620 169.834,131.774 170.319 C 131.928 170.803,132.222 171.200,132.427 171.200 C 132.632 171.200,132.800 171.451,132.800 171.757 C 132.800 172.064,133.070 172.418,133.400 172.545 C 133.730 172.671,134.000 173.121,134.000 173.545 C 134.000 173.968,134.270 174.418,134.600 174.545 C 134.930 174.671,135.200 175.051,135.200 175.387 C 135.200 175.724,135.351 176.000,135.536 176.000 C 135.720 176.000,136.215 176.718,136.636 177.595 C 137.056 178.473,137.516 179.193,137.657 179.195 C 137.799 179.198,138.005 179.436,138.116 179.725 C 138.261 180.104,137.997 180.202,137.159 180.079 C 136.521 179.986,136.000 179.770,136.000 179.600 C 136.000 179.430,135.190 179.169,134.200 179.021 C 133.210 178.872,132.400 178.602,132.400 178.421 C 132.400 178.239,131.594 177.970,130.609 177.822 C 129.624 177.675,128.714 177.384,128.586 177.177 C 128.458 176.970,128.003 176.800,127.576 176.800 C 127.149 176.800,126.800 176.640,126.800 176.445 C 126.800 176.250,125.994 175.970,125.009 175.822 C 124.024 175.675,123.114 175.384,122.986 175.177 C 122.858 174.970,122.358 174.799,121.876 174.798 C 121.394 174.796,120.484 174.526,119.854 174.198 C 119.224 173.869,118.369 173.600,117.954 173.600 C 117.539 173.600,117.200 173.440,117.200 173.245 C 117.200 173.050,116.390 172.769,115.400 172.621 C 114.410 172.472,113.600 172.205,113.600 172.027 C 113.600 171.848,112.844 171.581,111.920 171.434 C 110.996 171.286,110.051 171.026,109.820 170.856 C 109.589 170.686,108.275 170.199,106.900 169.773 C 105.525 169.348,104.400 168.865,104.400 168.700 C 104.400 168.535,104.120 168.400,103.778 168.400 C 103.211 168.400,100.760 167.430,98.500 166.311 C 98.005 166.065,97.600 165.730,97.600 165.564 C 97.600 165.399,97.060 165.145,96.400 165.000 C 95.740 164.855,95.200 164.583,95.200 164.395 C 95.200 164.207,94.809 163.930,94.331 163.778 C 93.418 163.488,92.977 163.176,91.399 161.700 C 90.870 161.205,90.255 160.800,90.033 160.800 C 89.595 160.800,87.079 158.579,83.852 155.342 C 81.343 152.826,78.006 149.200,78.198 149.200 C 78.275 149.200,77.857 148.687,77.269 148.061 C 75.442 146.115,70.859 141.060,69.780 139.800 C 69.214 139.140,67.862 137.680,66.776 136.555 C 65.689 135.431,64.800 134.410,64.800 134.286 C 64.800 134.162,63.714 132.948,62.388 131.587 C 61.061 130.227,59.517 128.514,58.957 127.779 C 57.687 126.115,54.393 122.800,54.009 122.800 C 53.851 122.800,53.307 122.440,52.800 122.000 C 52.293 121.560,51.635 121.200,51.339 121.200 C 51.042 121.200,50.800 121.020,50.800 120.800 C 50.800 120.580,50.350 120.400,49.800 120.400 C 49.250 120.400,48.800 120.220,48.800 120.000 C 48.800 119.780,47.911 119.600,46.824 119.600 C 45.737 119.600,44.736 119.780,44.600 120.000 M351.600 120.000 C 351.600 120.220,351.150 120.400,350.600 120.400 C 350.050 120.400,349.600 120.580,349.600 120.800 C 349.600 121.020,349.358 121.200,349.061 121.200 C 348.765 121.200,348.107 121.560,347.600 122.000 C 347.093 122.440,346.549 122.800,346.391 122.800 C 346.007 122.800,342.713 126.115,341.443 127.779 C 340.883 128.514,339.339 130.227,338.012 131.587 C 336.686 132.948,335.600 134.162,335.600 134.286 C 335.600 134.410,334.711 135.431,333.624 136.555 C 332.538 137.680,331.186 139.140,330.620 139.800 C 329.541 141.060,324.958 146.115,323.131 148.061 C 322.543 148.687,322.125 149.200,322.202 149.200 C 322.394 149.200,319.057 152.826,316.548 155.342 C 313.321 158.579,310.805 160.800,310.367 160.800 C 310.145 160.800,309.530 161.205,309.001 161.700 C 307.423 163.176,306.982 163.488,306.069 163.778 C 305.591 163.930,305.200 164.207,305.200 164.395 C 305.200 164.583,304.660 164.855,304.000 165.000 C 303.340 165.145,302.800 165.399,302.800 165.564 C 302.800 165.730,302.395 166.065,301.900 166.311 C 299.640 167.430,297.189 168.400,296.622 168.400 C 296.280 168.400,296.000 168.535,296.000 168.700 C 296.000 168.865,294.875 169.348,293.500 169.773 C 292.125 170.199,290.811 170.686,290.580 170.856 C 290.349 171.026,289.404 171.286,288.480 171.434 C 287.556 171.581,286.800 171.848,286.800 172.027 C 286.800 172.205,285.990 172.472,285.000 172.621 C 284.010 172.769,283.200 173.050,283.200 173.245 C 283.200 173.440,282.861 173.600,282.446 173.600 C 282.031 173.600,281.176 173.869,280.546 174.198 C 279.916 174.526,279.006 174.796,278.524 174.798 C 278.042 174.799,277.542 174.970,277.414 175.177 C 277.286 175.384,276.376 175.675,275.391 175.822 C 274.406 175.970,273.600 176.250,273.600 176.445 C 273.600 176.640,273.251 176.800,272.824 176.800 C 272.397 176.800,271.942 176.970,271.814 177.177 C 271.686 177.384,270.776 177.675,269.791 177.822 C 268.806 177.970,268.000 178.235,268.000 178.410 C 268.000 178.586,267.235 178.858,266.300 179.014 C 265.365 179.170,264.510 179.428,264.400 179.587 C 264.170 179.920,262.000 180.507,262.000 180.236 C 262.000 180.138,262.225 179.812,262.500 179.512 C 263.230 178.715,263.989 177.501,264.258 176.700 C 264.388 176.315,264.652 176.000,264.847 176.000 C 265.041 176.000,265.200 175.724,265.200 175.387 C 265.200 175.051,265.470 174.671,265.800 174.545 C 266.130 174.418,266.400 173.968,266.400 173.545 C 266.400 173.121,266.670 172.671,267.000 172.545 C 267.330 172.418,267.600 172.064,267.600 171.757 C 267.600 171.451,267.768 171.200,267.973 171.200 C 268.178 171.200,268.467 170.820,268.614 170.356 C 268.855 169.595,269.752 168.374,271.081 166.994 C 271.345 166.720,271.450 166.384,271.314 166.248 C 271.178 166.111,271.277 166.000,271.533 166.000 C 271.790 166.000,272.000 165.811,272.000 165.580 C 272.000 165.349,272.635 164.507,273.410 163.708 C 274.186 162.909,274.926 161.838,275.054 161.328 C 275.182 160.818,275.447 160.400,275.643 160.400 C 275.840 160.400,276.000 158.960,276.000 157.200 C 276.000 155.440,275.845 154.000,275.656 154.000 C 275.467 154.000,275.212 153.032,275.090 151.849 C 274.879 149.802,274.429 148.649,273.290 147.234 C 271.490 144.997,270.384 144.035,268.800 143.327 C 268.470 143.179,268.074 142.869,267.920 142.638 C 267.500 142.007,259.512 142.064,259.300 142.700 C 259.208 142.975,258.893 143.200,258.599 143.200 C 257.976 143.200,255.683 144.375,254.890 145.100 C 254.589 145.375,254.168 145.600,253.953 145.600 C 253.739 145.600,253.147 146.005,252.637 146.500 C 252.127 146.995,251.309 147.670,250.818 148.000 C 250.025 148.533,249.059 149.274,247.790 150.325 C 247.564 150.511,246.844 151.005,246.190 151.422 C 245.535 151.840,244.856 152.410,244.680 152.690 C 244.504 152.971,244.181 153.200,243.962 153.200 C 243.743 153.200,243.114 153.650,242.564 154.200 C 242.014 154.750,241.437 155.203,241.282 155.206 C 241.127 155.210,240.391 155.750,239.646 156.406 C 238.901 157.063,238.144 157.600,237.964 157.600 C 237.784 157.600,237.213 158.005,236.695 158.500 C 236.177 158.995,235.337 159.670,234.828 160.000 C 234.319 160.330,233.699 160.783,233.451 161.006 C 232.308 162.034,229.657 164.000,229.414 164.000 C 229.265 164.000,228.895 164.225,228.591 164.500 C 228.287 164.775,227.535 165.407,226.920 165.906 C 226.304 166.404,225.367 167.169,224.839 167.606 C 224.310 168.042,223.605 168.400,223.272 168.400 C 222.939 168.400,222.781 168.514,222.920 168.653 C 223.169 168.902,221.528 170.400,221.006 170.400 C 220.859 170.400,220.224 170.895,219.595 171.500 C 218.966 172.105,217.540 173.473,216.426 174.539 C 215.312 175.606,214.400 176.602,214.400 176.753 C 214.400 177.052,212.985 178.937,211.939 180.030 C 211.576 180.410,211.159 181.099,211.013 181.561 C 210.866 182.022,210.618 182.400,210.461 182.400 C 210.304 182.400,209.827 183.300,209.400 184.400 C 208.973 185.500,208.498 186.400,208.344 186.400 C 208.190 186.400,207.945 186.940,207.800 187.600 C 207.655 188.260,207.371 188.800,207.168 188.800 C 206.966 188.800,206.800 189.156,206.800 189.592 C 206.800 190.365,205.881 193.152,205.198 194.450 C 205.010 194.808,204.728 196.833,204.573 198.950 C 204.418 201.068,204.158 202.800,203.997 202.800 C 203.835 202.800,203.574 204.959,203.416 207.598 C 203.259 210.237,202.966 212.498,202.765 212.622 C 202.564 212.746,202.400 214.017,202.400 215.447 C 202.400 216.877,202.241 217.949,202.048 217.830 C 201.854 217.710,201.566 219.859,201.407 222.606 C 201.249 225.353,200.958 227.600,200.760 227.600 C 200.562 227.600,200.400 230.300,200.400 233.600 C 200.400 236.900,200.558 239.600,200.750 239.600 C 201.098 239.600,201.775 241.871,201.632 242.563 C 201.591 242.763,201.702 243.033,201.879 243.163 C 202.349 243.510,203.600 245.848,203.600 246.381 C 203.600 246.632,204.050 247.255,204.600 247.765 C 205.150 248.275,205.600 248.822,205.600 248.982 C 205.600 249.443,209.040 252.660,210.380 253.452 C 211.051 253.848,211.600 254.299,211.600 254.454 C 211.600 254.610,212.140 254.855,212.800 255.000 C 213.460 255.145,214.000 255.429,214.000 255.632 C 214.000 255.834,214.315 256.001,214.700 256.002 C 215.085 256.004,215.916 256.274,216.546 256.602 C 217.176 256.931,218.031 257.200,218.446 257.200 C 218.861 257.200,219.200 257.363,219.200 257.562 C 219.200 257.762,220.100 258.049,221.200 258.200 C 222.300 258.351,223.200 258.621,223.200 258.800 C 223.200 258.979,224.100 259.249,225.200 259.400 C 226.300 259.551,227.200 259.818,227.200 259.992 C 227.200 260.166,228.006 260.430,228.991 260.578 C 229.976 260.725,230.886 261.016,231.014 261.223 C 231.142 261.430,231.672 261.600,232.190 261.600 C 232.709 261.600,233.193 261.763,233.267 261.961 C 233.508 262.616,240.030 263.169,243.001 262.787 C 244.541 262.588,246.036 262.420,246.324 262.413 C 246.612 262.406,246.736 262.220,246.600 262.000 C 246.464 261.780,246.606 261.600,246.915 261.600 C 247.624 261.600,250.029 260.417,250.729 259.724 C 251.019 259.436,251.440 259.200,251.664 259.200 C 252.175 259.200,255.600 255.706,255.600 255.185 C 255.600 254.973,255.777 254.800,255.992 254.800 C 256.208 254.800,256.498 254.350,256.636 253.800 C 256.774 253.250,257.017 252.800,257.176 252.800 C 257.336 252.800,257.811 251.720,258.233 250.400 C 258.655 249.080,259.124 248.000,259.275 248.000 C 259.427 248.000,259.672 247.190,259.821 246.200 C 259.969 245.210,260.236 244.400,260.414 244.400 C 260.591 244.400,260.855 243.860,261.000 243.200 C 261.145 242.540,261.429 242.000,261.632 242.000 C 261.834 242.000,262.000 241.743,262.000 241.429 C 262.000 241.114,262.225 240.619,262.500 240.329 C 262.775 240.038,263.233 239.350,263.519 238.800 C 263.804 238.250,264.839 236.918,265.819 235.839 C 266.798 234.760,267.600 233.725,267.600 233.539 C 267.600 233.353,267.783 233.200,268.007 233.200 C 268.231 233.200,268.996 232.608,269.707 231.884 C 270.418 231.160,271.720 230.135,272.600 229.605 C 273.480 229.076,274.290 228.522,274.400 228.375 C 274.510 228.228,275.005 227.981,275.500 227.827 C 275.995 227.672,276.400 227.378,276.400 227.173 C 276.400 226.968,276.670 226.800,277.000 226.800 C 277.330 226.800,277.600 226.632,277.600 226.427 C 277.600 226.222,277.997 225.928,278.481 225.774 C 278.966 225.620,279.609 225.248,279.910 224.947 C 280.211 224.646,280.714 224.400,281.029 224.400 C 281.343 224.400,281.600 224.248,281.600 224.063 C 281.600 223.878,282.272 223.383,283.094 222.963 C 283.916 222.543,284.828 221.975,285.122 221.700 C 285.417 221.425,285.914 221.200,286.229 221.200 C 286.543 221.200,286.800 221.023,286.800 220.808 C 286.800 220.592,287.258 220.300,287.819 220.160 C 288.379 220.019,288.740 219.807,288.621 219.688 C 288.396 219.463,289.685 218.599,290.900 218.160 C 291.285 218.021,291.600 217.767,291.600 217.597 C 291.600 217.426,292.050 217.174,292.600 217.036 C 293.150 216.898,293.600 216.608,293.600 216.392 C 293.600 216.177,293.870 216.000,294.200 216.000 C 294.530 216.000,294.800 215.823,294.800 215.608 C 294.800 215.392,295.250 215.102,295.800 214.964 C 296.350 214.826,296.800 214.565,296.800 214.384 C 296.800 214.202,297.197 213.928,297.681 213.774 C 298.166 213.620,298.809 213.248,299.110 212.947 C 299.411 212.646,299.914 212.400,300.229 212.400 C 300.543 212.400,300.800 212.248,300.800 212.063 C 300.800 211.878,301.430 211.387,302.200 210.972 C 302.970 210.557,303.600 210.099,303.600 209.952 C 303.600 209.806,304.050 209.574,304.600 209.436 C 305.150 209.298,305.600 209.008,305.600 208.792 C 305.600 208.577,305.870 208.400,306.200 208.400 C 306.530 208.400,306.800 208.232,306.800 208.027 C 306.800 207.822,307.197 207.528,307.681 207.374 C 308.166 207.220,308.809 206.848,309.110 206.547 C 309.411 206.246,309.914 206.000,310.229 206.000 C 310.543 206.000,310.800 205.832,310.800 205.627 C 310.800 205.422,311.191 205.130,311.669 204.978 C 312.147 204.826,312.855 204.409,313.243 204.051 C 313.630 203.693,314.809 202.950,315.862 202.400 C 316.915 201.850,318.128 201.087,318.559 200.705 C 318.989 200.322,319.669 199.905,320.071 199.778 C 320.472 199.650,320.800 199.390,320.800 199.200 C 320.800 199.010,321.191 198.730,321.669 198.578 C 322.572 198.292,322.800 198.128,324.851 196.300 C 325.529 195.695,326.238 195.200,326.425 195.200 C 326.612 195.200,327.733 194.255,328.916 193.100 C 330.099 191.945,331.481 190.730,331.987 190.400 C 332.493 190.070,333.108 189.573,333.354 189.295 C 334.115 188.435,336.512 185.796,338.511 183.620 C 339.561 182.476,340.731 181.061,341.111 180.476 C 341.490 179.892,342.070 179.122,342.400 178.767 C 343.664 177.405,344.329 176.455,344.586 175.643 C 344.734 175.179,344.991 174.800,345.160 174.800 C 345.448 174.800,346.436 173.362,349.007 169.200 C 349.619 168.210,350.228 167.310,350.360 167.200 C 350.492 167.090,351.050 166.100,351.600 165.000 C 352.150 163.900,352.735 162.940,352.900 162.867 C 353.065 162.793,353.200 162.478,353.200 162.167 C 353.200 161.855,353.360 161.600,353.557 161.600 C 353.753 161.600,354.026 161.150,354.164 160.600 C 354.302 160.050,354.578 159.600,354.776 159.600 C 354.974 159.600,355.255 159.060,355.400 158.400 C 355.545 157.740,355.790 157.200,355.944 157.200 C 356.098 157.200,356.573 156.300,357.000 155.200 C 357.427 154.100,357.902 153.200,358.056 153.200 C 358.210 153.200,358.455 152.660,358.600 152.000 C 358.745 151.340,359.006 150.800,359.181 150.800 C 359.355 150.800,359.613 150.080,359.754 149.200 C 359.894 148.320,360.187 147.600,360.405 147.600 C 360.622 147.600,360.800 147.139,360.800 146.576 C 360.800 146.013,360.952 145.647,361.138 145.762 C 361.685 146.100,362.400 138.877,362.400 133.000 C 362.400 127.737,361.882 124.000,361.153 124.000 C 360.959 124.000,360.800 123.820,360.800 123.600 C 360.800 123.011,359.406 121.719,358.439 121.413 C 357.978 121.266,357.600 120.978,357.600 120.773 C 357.600 120.568,357.251 120.400,356.824 120.400 C 356.397 120.400,355.936 120.220,355.800 120.000 C 355.664 119.780,354.663 119.600,353.576 119.600 C 352.489 119.600,351.600 119.780,351.600 120.000 M55.806 142.600 C 57.215 144.140,58.804 145.940,59.336 146.600 C 59.868 147.260,61.091 148.627,62.052 149.637 C 63.013 150.647,64.970 152.772,66.400 154.358 C 67.830 155.945,69.225 157.491,69.500 157.793 C 69.775 158.095,70.000 158.430,70.000 158.538 C 70.000 158.803,79.276 167.952,80.810 169.200 C 81.486 169.750,82.287 170.425,82.591 170.700 C 82.895 170.975,83.308 171.200,83.510 171.200 C 83.833 171.200,84.422 171.623,86.283 173.193 C 86.549 173.417,86.964 173.600,87.207 173.600 C 87.449 173.600,87.545 173.765,87.420 173.967 C 87.295 174.170,87.735 174.454,88.397 174.599 C 89.058 174.745,89.600 175.029,89.600 175.232 C 89.600 175.434,89.857 175.600,90.171 175.600 C 90.486 175.600,90.984 175.825,91.279 176.100 C 92.137 176.901,94.268 178.000,94.962 178.000 C 95.313 178.000,95.600 178.160,95.600 178.355 C 95.600 178.551,96.230 178.829,97.000 178.974 C 97.770 179.118,98.400 179.408,98.400 179.618 C 98.400 179.828,98.715 180.001,99.100 180.002 C 99.485 180.004,100.316 180.274,100.946 180.602 C 101.576 180.931,102.441 181.200,102.869 181.200 C 103.297 181.200,103.546 181.363,103.423 181.562 C 103.300 181.762,104.099 182.049,105.200 182.200 C 106.300 182.351,107.200 182.618,107.200 182.792 C 107.200 182.966,108.010 183.231,109.000 183.379 C 109.990 183.528,110.800 183.818,110.800 184.025 C 110.800 184.231,111.239 184.400,111.776 184.400 C 112.313 184.400,112.854 184.564,112.978 184.765 C 113.103 184.966,113.923 185.252,114.802 185.400 C 115.681 185.549,116.400 185.814,116.400 185.990 C 116.400 186.165,117.206 186.430,118.191 186.578 C 119.176 186.725,120.086 187.016,120.214 187.223 C 120.342 187.430,120.842 187.601,121.324 187.602 C 121.806 187.604,122.716 187.874,123.346 188.202 C 123.976 188.531,124.841 188.800,125.269 188.800 C 125.697 188.800,125.950 188.957,125.831 189.149 C 125.712 189.342,126.512 189.618,127.608 189.763 C 128.703 189.909,129.600 190.181,129.600 190.368 C 129.600 190.556,130.410 190.831,131.400 190.979 C 132.390 191.128,133.200 191.377,133.200 191.534 C 133.200 191.799,135.579 192.542,138.100 193.063 C 138.705 193.188,139.200 193.450,139.200 193.645 C 139.200 193.840,140.910 194.000,143.000 194.000 C 145.090 194.000,146.800 193.864,146.800 193.698 C 146.800 193.531,147.354 193.150,148.030 192.851 C 150.178 191.900,152.337 189.292,152.638 187.284 C 152.955 185.171,152.570 180.356,152.059 180.029 C 151.862 179.903,151.574 179.215,151.418 178.500 C 151.263 177.785,150.971 177.200,150.768 177.200 C 150.566 177.200,150.400 176.944,150.400 176.631 C 150.400 176.318,149.988 175.553,149.484 174.931 C 148.981 174.309,148.352 173.350,148.087 172.800 C 147.544 171.671,146.708 170.300,146.382 170.000 C 146.262 169.890,145.380 168.540,144.421 167.000 C 143.463 165.460,142.481 164.068,142.239 163.906 C 141.998 163.744,141.943 163.609,142.118 163.606 C 142.293 163.603,141.978 163.142,141.418 162.582 C 140.858 162.022,140.400 161.384,140.400 161.165 C 140.400 160.946,140.218 160.549,139.996 160.283 C 139.773 160.017,139.056 159.170,138.402 158.400 C 136.542 156.211,137.033 153.490,138.943 155.400 C 139.273 155.730,139.665 156.000,139.814 156.000 C 140.057 156.000,142.708 157.966,143.851 158.994 C 144.099 159.217,144.706 159.670,145.200 160.000 C 145.694 160.330,146.333 160.825,146.620 161.100 C 146.908 161.375,147.270 161.600,147.426 161.600 C 147.581 161.600,148.125 162.050,148.635 162.600 C 149.145 163.150,149.723 163.600,149.920 163.600 C 150.117 163.600,150.710 163.975,151.239 164.434 C 151.767 164.893,152.711 165.658,153.335 166.134 C 153.959 166.610,154.711 167.225,155.006 167.500 C 155.301 167.775,155.691 168.003,155.871 168.006 C 156.052 168.010,156.767 168.505,157.459 169.106 C 158.152 169.708,159.113 170.470,159.596 170.800 C 160.079 171.130,160.953 171.806,161.537 172.302 C 162.122 172.799,162.918 173.307,163.306 173.431 C 163.694 173.556,163.908 173.825,163.782 174.029 C 163.656 174.233,163.806 174.400,164.115 174.400 C 164.425 174.400,165.055 174.715,165.517 175.100 C 165.978 175.485,166.861 176.190,167.478 176.666 C 168.095 177.142,169.033 177.907,169.561 178.366 C 170.090 178.825,170.676 179.200,170.863 179.200 C 171.428 179.200,177.600 185.659,177.600 186.250 C 177.600 186.553,177.751 186.800,177.936 186.800 C 178.120 186.800,178.615 187.518,179.036 188.395 C 179.456 189.273,179.921 189.993,180.068 189.995 C 180.216 189.998,180.455 190.540,180.600 191.200 C 180.745 191.860,181.009 192.400,181.187 192.400 C 181.365 192.400,181.629 193.030,181.774 193.800 C 181.918 194.570,182.208 195.200,182.418 195.200 C 182.628 195.200,182.800 195.614,182.800 196.120 C 182.800 196.626,182.973 197.213,183.185 197.425 C 183.397 197.637,183.692 199.608,183.839 201.805 C 183.987 204.002,184.247 205.980,184.416 206.200 C 184.586 206.420,184.855 208.670,185.016 211.200 C 185.176 213.730,185.450 215.892,185.624 216.005 C 185.798 216.118,186.069 218.408,186.226 221.094 C 186.383 223.780,186.651 225.892,186.822 225.787 C 186.992 225.681,187.240 226.811,187.374 228.298 C 188.013 235.439,188.055 236.800,187.632 236.800 C 187.394 236.800,187.200 237.150,187.200 237.577 C 187.200 238.557,185.664 241.200,185.094 241.200 C 184.859 241.200,184.772 241.305,184.900 241.433 C 185.133 241.666,183.805 243.200,183.371 243.200 C 183.246 243.200,182.873 243.470,182.543 243.800 C 182.213 244.130,181.596 244.400,181.171 244.400 C 180.747 244.400,180.400 244.569,180.400 244.775 C 180.400 244.982,179.590 245.272,178.600 245.421 C 177.610 245.569,176.800 245.850,176.800 246.045 C 176.800 246.240,176.361 246.400,175.824 246.400 C 175.287 246.400,174.742 246.570,174.614 246.777 C 174.486 246.984,173.576 247.275,172.591 247.422 C 171.606 247.570,170.800 247.834,170.800 248.008 C 170.800 248.182,169.900 248.449,168.800 248.600 C 167.700 248.751,166.800 249.038,166.800 249.238 C 166.800 249.437,166.386 249.600,165.880 249.600 C 165.374 249.600,164.770 249.790,164.537 250.023 C 162.713 251.847,154.800 250.269,154.800 248.082 C 154.800 247.848,154.570 247.419,154.289 247.129 C 154.008 246.838,153.443 245.520,153.033 244.200 C 152.623 242.880,152.145 241.440,151.971 241.000 C 151.049 238.673,150.195 236.968,149.821 236.706 C 149.589 236.544,149.541 236.409,149.714 236.406 C 149.887 236.403,149.572 235.728,149.014 234.907 C 148.456 234.086,148.000 233.276,148.000 233.107 C 148.000 232.938,147.685 232.451,147.300 232.025 C 146.915 231.599,146.240 230.770,145.800 230.182 C 143.571 227.203,138.226 221.600,137.614 221.600 C 137.358 221.600,136.727 221.134,134.917 219.607 C 134.651 219.383,134.236 219.200,133.993 219.200 C 133.751 219.200,133.655 219.035,133.780 218.833 C 133.905 218.630,133.465 218.346,132.803 218.201 C 132.142 218.055,131.600 217.774,131.600 217.576 C 131.600 217.378,131.150 217.102,130.600 216.964 C 130.050 216.826,129.600 216.581,129.600 216.420 C 129.600 216.258,128.970 215.787,128.200 215.372 C 127.430 214.957,126.800 214.479,126.800 214.309 C 126.800 214.139,126.543 214.000,126.229 214.000 C 125.914 214.000,125.417 213.775,125.122 213.500 C 124.828 213.225,123.916 212.657,123.094 212.237 C 122.272 211.817,121.600 211.322,121.600 211.137 C 121.600 210.952,121.343 210.800,121.029 210.800 C 120.714 210.800,120.211 210.554,119.910 210.253 C 119.609 209.952,118.966 209.580,118.481 209.426 C 117.997 209.272,117.600 208.978,117.600 208.773 C 117.600 208.568,117.330 208.400,117.000 208.400 C 116.670 208.400,116.400 208.223,116.400 208.008 C 116.400 207.792,115.942 207.500,115.381 207.360 C 114.821 207.219,114.454 207.013,114.565 206.902 C 114.676 206.791,113.872 206.239,112.779 205.676 C 111.686 205.112,110.464 204.347,110.065 203.975 C 109.665 203.602,108.947 203.174,108.469 203.022 C 107.991 202.870,107.600 202.578,107.600 202.373 C 107.600 202.168,107.343 202.000,107.029 202.000 C 106.714 202.000,106.211 201.754,105.910 201.453 C 105.609 201.152,104.966 200.780,104.481 200.626 C 103.997 200.472,103.600 200.178,103.600 199.973 C 103.600 199.768,103.330 199.600,103.000 199.600 C 102.670 199.600,102.400 199.423,102.400 199.208 C 102.400 198.992,101.950 198.702,101.400 198.564 C 100.850 198.426,100.400 198.165,100.400 197.984 C 100.400 197.802,99.995 197.526,99.500 197.370 C 99.005 197.213,98.309 196.751,97.953 196.343 C 97.597 195.934,97.115 195.600,96.882 195.600 C 96.648 195.600,96.216 195.375,95.921 195.100 C 95.627 194.825,94.522 194.150,93.466 193.600 C 92.411 193.050,91.230 192.307,90.843 191.949 C 90.455 191.591,89.747 191.174,89.269 191.022 C 88.791 190.870,88.400 190.578,88.400 190.373 C 88.400 190.168,88.138 190.000,87.818 190.000 C 87.498 190.000,86.786 189.550,86.236 189.000 C 85.686 188.450,85.076 188.000,84.879 188.000 C 84.683 188.000,84.145 187.685,83.683 187.300 C 83.222 186.915,82.261 186.150,81.549 185.600 C 80.836 185.050,79.672 184.060,78.962 183.400 C 78.252 182.740,77.305 181.942,76.857 181.627 C 76.409 181.312,76.134 180.907,76.245 180.727 C 76.356 180.547,76.271 180.400,76.055 180.400 C 75.658 180.400,72.864 177.674,71.400 175.858 C 70.960 175.312,70.023 174.176,69.319 173.333 C 66.582 170.058,66.000 169.269,66.000 168.830 C 66.000 168.580,65.746 168.278,65.436 168.159 C 65.126 168.039,64.763 167.505,64.628 166.971 C 64.494 166.437,64.208 166.000,63.992 166.000 C 63.777 166.000,63.600 165.730,63.600 165.400 C 63.600 165.070,63.423 164.800,63.208 164.800 C 62.992 164.800,62.706 164.363,62.572 163.829 C 62.437 163.295,62.074 162.761,61.764 162.641 C 61.454 162.522,61.200 162.142,61.200 161.796 C 61.200 161.207,60.947 160.805,59.700 159.415 C 59.425 159.108,59.200 158.574,59.200 158.229 C 59.200 157.883,59.020 157.600,58.800 157.600 C 58.580 157.600,58.400 157.354,58.400 157.054 C 58.400 156.754,58.040 156.050,57.600 155.491 C 57.160 154.931,56.800 154.187,56.800 153.837 C 56.800 153.487,56.620 153.200,56.400 153.200 C 56.180 153.200,56.000 152.930,56.000 152.600 C 56.000 152.270,55.809 152.000,55.576 152.000 C 55.343 152.000,55.264 151.820,55.400 151.600 C 55.536 151.380,55.499 151.200,55.318 151.200 C 54.979 151.200,53.600 148.307,53.600 147.597 C 53.600 147.379,53.440 147.200,53.245 147.200 C 53.049 147.200,52.771 146.570,52.626 145.800 C 52.482 145.030,52.192 144.400,51.982 144.400 C 51.772 144.400,51.600 144.076,51.600 143.680 C 51.600 143.284,51.437 142.789,51.238 142.580 C 51.038 142.371,50.707 140.867,50.502 139.238 L 50.129 136.276 51.686 138.038 C 52.543 139.007,54.396 141.060,55.806 142.600 M349.890 139.300 C 349.689 140.895,349.362 142.371,349.162 142.580 C 348.963 142.789,348.800 143.284,348.800 143.680 C 348.800 144.076,348.628 144.400,348.418 144.400 C 348.208 144.400,347.918 145.030,347.774 145.800 C 347.629 146.570,347.351 147.200,347.155 147.200 C 346.960 147.200,346.800 147.487,346.800 147.838 C 346.800 148.546,345.572 150.924,345.098 151.134 C 344.931 151.208,344.897 151.433,345.021 151.634 C 345.145 151.835,345.057 152.000,344.824 152.000 C 344.591 152.000,344.400 152.270,344.400 152.600 C 344.400 152.930,344.220 153.200,344.000 153.200 C 343.780 153.200,343.596 153.515,343.591 153.900 C 343.586 154.285,343.230 155.050,342.800 155.600 C 342.370 156.150,342.014 156.825,342.009 157.100 C 342.004 157.375,341.820 157.600,341.600 157.600 C 341.380 157.600,341.200 157.878,341.200 158.217 C 341.200 158.794,340.944 159.198,339.700 160.585 C 339.425 160.892,339.200 161.431,339.200 161.784 C 339.200 162.137,338.946 162.522,338.636 162.641 C 338.326 162.761,337.963 163.295,337.828 163.829 C 337.694 164.363,337.408 164.800,337.192 164.800 C 336.977 164.800,336.800 165.070,336.800 165.400 C 336.800 165.730,336.623 166.000,336.408 166.000 C 336.192 166.000,335.902 166.450,335.764 167.000 C 335.626 167.550,335.383 168.000,335.224 168.000 C 335.065 168.000,334.323 168.945,333.576 170.100 C 332.829 171.255,331.809 172.581,331.309 173.046 C 330.809 173.511,330.400 174.018,330.400 174.171 C 330.400 174.711,324.870 180.400,324.345 180.400 C 324.129 180.400,324.044 180.547,324.155 180.727 C 324.266 180.907,323.991 181.312,323.543 181.627 C 323.095 181.942,322.148 182.740,321.438 183.400 C 320.728 184.060,319.564 185.050,318.851 185.600 C 318.139 186.150,317.178 186.915,316.717 187.300 C 316.255 187.685,315.717 188.000,315.521 188.000 C 315.324 188.000,314.714 188.450,314.164 189.000 C 313.614 189.550,312.902 190.000,312.582 190.000 C 312.262 190.000,312.000 190.168,312.000 190.373 C 312.000 190.578,311.609 190.870,311.131 191.022 C 310.653 191.174,309.945 191.591,309.557 191.949 C 309.170 192.307,307.989 193.050,306.934 193.600 C 305.878 194.150,304.773 194.825,304.479 195.100 C 304.184 195.375,303.752 195.600,303.518 195.600 C 303.285 195.600,302.803 195.934,302.447 196.343 C 302.091 196.751,301.395 197.213,300.900 197.370 C 300.405 197.526,300.000 197.802,300.000 197.984 C 300.000 198.165,299.550 198.426,299.000 198.564 C 298.450 198.702,298.000 198.992,298.000 199.208 C 298.000 199.423,297.730 199.600,297.400 199.600 C 297.070 199.600,296.800 199.768,296.800 199.973 C 296.800 200.178,296.403 200.472,295.919 200.626 C 295.434 200.780,294.791 201.152,294.490 201.453 C 294.189 201.754,293.686 202.000,293.371 202.000 C 293.057 202.000,292.800 202.168,292.800 202.373 C 292.800 202.578,292.409 202.870,291.931 203.022 C 291.453 203.174,290.735 203.602,290.335 203.975 C 289.936 204.347,288.714 205.112,287.621 205.676 C 286.528 206.239,285.724 206.791,285.835 206.902 C 285.946 207.013,285.579 207.219,285.019 207.360 C 284.458 207.500,284.000 207.792,284.000 208.008 C 284.000 208.223,283.730 208.400,283.400 208.400 C 283.070 208.400,282.800 208.568,282.800 208.773 C 282.800 208.978,282.403 209.272,281.919 209.426 C 281.434 209.580,280.791 209.952,280.490 210.253 C 280.189 210.554,279.686 210.800,279.371 210.800 C 279.057 210.800,278.800 210.952,278.800 211.137 C 278.800 211.322,278.128 211.817,277.306 212.237 C 276.484 212.657,275.572 213.225,275.278 213.500 C 274.983 213.775,274.486 214.000,274.171 214.000 C 273.857 214.000,273.600 214.139,273.600 214.309 C 273.600 214.479,272.970 214.957,272.200 215.372 C 271.430 215.787,270.800 216.258,270.800 216.420 C 270.800 216.581,270.350 216.826,269.800 216.964 C 269.250 217.102,268.800 217.378,268.800 217.576 C 268.800 217.774,268.258 218.055,267.597 218.201 C 266.935 218.346,266.495 218.630,266.620 218.833 C 266.745 219.035,266.649 219.200,266.407 219.200 C 266.164 219.200,265.749 219.383,265.483 219.607 C 263.673 221.134,263.042 221.600,262.786 221.600 C 262.145 221.600,256.417 227.636,254.600 230.225 C 254.160 230.852,253.485 231.688,253.100 232.083 C 252.715 232.477,252.400 232.938,252.400 233.107 C 252.400 233.276,251.944 234.086,251.386 234.907 C 250.828 235.728,250.513 236.403,250.686 236.406 C 250.859 236.409,250.820 236.544,250.599 236.706 C 250.126 237.054,249.363 238.597,248.971 240.000 C 248.818 240.550,248.578 241.090,248.439 241.200 C 248.171 241.412,247.287 244.268,246.929 246.080 C 246.612 247.680,243.842 250.318,242.145 250.637 C 240.362 250.971,236.427 250.587,235.863 250.023 C 235.630 249.790,235.015 249.600,234.496 249.600 C 233.977 249.600,233.651 249.440,233.772 249.246 C 233.892 249.051,233.003 248.768,231.795 248.617 C 230.588 248.466,229.600 248.196,229.600 248.017 C 229.600 247.837,228.794 247.570,227.809 247.422 C 226.824 247.275,225.914 246.984,225.786 246.777 C 225.658 246.570,225.113 246.400,224.576 246.400 C 224.039 246.400,223.600 246.240,223.600 246.045 C 223.600 245.850,222.790 245.569,221.800 245.421 C 220.810 245.272,220.000 244.982,220.000 244.775 C 220.000 244.569,219.653 244.400,219.229 244.400 C 218.804 244.400,218.187 244.130,217.857 243.800 C 217.527 243.470,217.154 243.200,217.029 243.200 C 216.595 243.200,215.267 241.666,215.500 241.433 C 215.628 241.305,215.541 241.200,215.306 241.200 C 214.736 241.200,213.200 238.557,213.200 237.577 C 213.200 237.150,213.006 236.800,212.768 236.800 C 212.345 236.800,212.387 235.436,213.026 228.300 C 213.159 226.815,213.410 225.600,213.583 225.600 C 213.756 225.600,214.026 223.440,214.184 220.800 C 214.341 218.160,214.610 216.000,214.781 216.000 C 214.952 216.000,215.220 213.904,215.378 211.343 C 215.536 208.781,215.822 206.396,216.015 206.043 C 216.207 205.689,216.479 203.645,216.620 201.501 C 216.760 199.356,217.038 197.500,217.237 197.377 C 217.437 197.254,217.600 196.713,217.600 196.176 C 217.600 195.639,217.772 195.200,217.982 195.200 C 218.192 195.200,218.482 194.570,218.626 193.800 C 218.771 193.030,219.035 192.400,219.213 192.400 C 219.391 192.400,219.655 191.860,219.800 191.200 C 219.945 190.540,220.184 189.998,220.332 189.995 C 220.479 189.993,220.944 189.273,221.364 188.395 C 221.785 187.518,222.280 186.800,222.464 186.800 C 222.649 186.800,222.800 186.556,222.800 186.259 C 222.800 185.675,227.678 180.585,229.182 179.600 C 229.686 179.270,230.301 178.814,230.549 178.588 C 231.502 177.716,235.950 174.400,236.167 174.400 C 236.292 174.400,236.800 174.051,237.297 173.624 C 239.242 171.954,239.959 171.377,240.812 170.800 C 241.299 170.470,241.933 169.975,242.220 169.700 C 242.508 169.425,242.916 169.200,243.129 169.200 C 243.341 169.200,243.618 168.930,243.745 168.600 C 243.871 168.270,244.173 168.000,244.416 168.000 C 244.659 168.000,245.099 167.775,245.394 167.500 C 245.689 167.225,246.441 166.610,247.065 166.134 C 247.689 165.658,248.633 164.893,249.161 164.434 C 249.690 163.975,250.275 163.600,250.461 163.600 C 250.648 163.600,251.123 163.285,251.517 162.900 C 251.912 162.515,252.737 161.840,253.350 161.400 C 253.963 160.960,254.855 160.288,255.332 159.907 C 255.810 159.526,256.380 159.075,256.600 158.904 C 256.820 158.733,257.746 158.010,258.658 157.296 C 259.569 156.583,260.437 156.000,260.586 156.000 C 260.735 156.000,261.127 155.730,261.457 155.400 C 261.787 155.070,262.314 154.800,262.629 154.800 C 263.416 154.800,263.391 157.152,262.600 157.455 C 262.270 157.582,262.000 157.854,262.000 158.060 C 262.000 158.413,261.669 158.882,260.500 160.185 C 260.225 160.492,260.000 160.928,260.000 161.153 C 260.000 161.379,259.542 162.022,258.982 162.582 C 258.422 163.142,258.107 163.603,258.282 163.606 C 258.457 163.609,258.399 163.744,258.153 163.906 C 257.725 164.188,253.657 170.415,252.387 172.734 C 252.049 173.350,251.374 174.361,250.887 174.981 C 250.399 175.601,250.000 176.354,250.000 176.654 C 250.000 176.954,249.840 177.200,249.645 177.200 C 249.449 177.200,249.173 177.817,249.032 178.571 C 248.890 179.325,248.598 180.001,248.381 180.073 C 247.847 180.251,247.431 185.081,247.762 187.284 C 248.063 189.292,250.222 191.900,252.370 192.851 C 253.046 193.150,253.600 193.531,253.600 193.698 C 253.600 193.864,255.310 194.000,257.400 194.000 C 259.490 194.000,261.200 193.840,261.200 193.645 C 261.200 193.450,261.695 193.188,262.300 193.063 C 264.821 192.542,267.200 191.799,267.200 191.534 C 267.200 191.377,268.010 191.128,269.000 190.979 C 269.990 190.831,270.800 190.556,270.800 190.368 C 270.800 190.181,271.697 189.909,272.792 189.763 C 273.888 189.618,274.688 189.342,274.569 189.149 C 274.450 188.957,274.703 188.800,275.131 188.800 C 275.559 188.800,276.424 188.531,277.054 188.202 C 277.684 187.874,278.594 187.604,279.076 187.602 C 279.558 187.601,280.058 187.430,280.186 187.223 C 280.314 187.016,281.224 186.725,282.209 186.578 C 283.194 186.430,284.000 186.165,284.000 185.990 C 284.000 185.814,284.719 185.549,285.598 185.400 C 286.477 185.252,287.297 184.966,287.422 184.765 C 287.546 184.564,288.087 184.400,288.624 184.400 C 289.161 184.400,289.600 184.231,289.600 184.025 C 289.600 183.818,290.410 183.528,291.400 183.379 C 292.390 183.231,293.200 182.966,293.200 182.792 C 293.200 182.618,294.100 182.351,295.200 182.200 C 296.301 182.049,297.100 181.762,296.977 181.562 C 296.854 181.363,297.103 181.200,297.531 181.200 C 297.959 181.200,298.824 180.931,299.454 180.602 C 300.084 180.274,300.915 180.004,301.300 180.002 C 301.685 180.001,302.000 179.828,302.000 179.618 C 302.000 179.408,302.630 179.118,303.400 178.974 C 304.170 178.829,304.800 178.551,304.800 178.355 C 304.800 178.160,305.087 178.000,305.438 178.000 C 306.132 178.000,308.263 176.901,309.121 176.100 C 309.416 175.825,309.914 175.600,310.229 175.600 C 310.543 175.600,310.800 175.434,310.800 175.232 C 310.800 175.029,311.342 174.745,312.003 174.599 C 312.665 174.454,313.105 174.170,312.980 173.967 C 312.855 173.765,312.951 173.600,313.193 173.600 C 313.436 173.600,313.851 173.417,314.117 173.193 C 315.978 171.623,316.567 171.200,316.890 171.200 C 317.092 171.200,317.505 170.975,317.809 170.700 C 318.113 170.425,318.914 169.750,319.590 169.200 C 321.398 167.729,330.310 158.867,330.993 157.863 C 331.580 156.997,335.143 153.009,338.275 149.709 C 339.196 148.739,340.814 146.922,341.869 145.672 C 342.925 144.423,344.511 142.657,345.394 141.749 C 346.277 140.841,347.700 139.266,348.556 138.249 C 349.412 137.232,350.145 136.400,350.184 136.400 C 350.223 136.400,350.091 137.705,349.890 139.300 M385.800 274.000 C 386.659 274.880,387.452 275.600,387.562 275.600 C 387.672 275.600,387.059 274.880,386.200 274.000 C 385.341 273.120,384.548 272.400,384.438 272.400 C 384.328 272.400,384.941 273.120,385.800 274.000 M386.175 290.900 L 385.000 292.200 386.300 291.025 C 387.015 290.379,387.600 289.794,387.600 289.725 C 387.600 289.416,387.270 289.688,386.175 290.900 M7.178 293.100 L 5.800 294.600 7.300 293.222 C 8.696 291.938,8.984 291.600,8.678 291.600 C 8.612 291.600,7.937 292.275,7.178 293.100 M36.307 318.690 C 37.026 318.779,38.106 318.777,38.707 318.686 C 39.308 318.595,38.720 318.522,37.400 318.524 C 36.080 318.526,35.588 318.601,36.307 318.690 M392.175 333.700 L 391.000 335.000 392.300 333.825 C 393.015 333.179,393.600 332.594,393.600 332.525 C 393.600 332.216,393.270 332.488,392.175 333.700 M40.912 361.095 C 41.964 361.177,43.584 361.176,44.512 361.092 C 45.440 361.008,44.580 360.941,42.600 360.942 C 40.620 360.943,39.860 361.012,40.912 361.095 M181.100 362.689 C 181.815 362.778,182.985 362.778,183.700 362.689 C 184.415 362.601,183.830 362.528,182.400 362.528 C 180.970 362.528,180.385 362.601,181.100 362.689 M82.093 364.000 C 82.093 364.770,82.175 365.085,82.276 364.700 C 82.376 364.315,82.376 363.685,82.276 363.300 C 82.175 362.915,82.093 363.230,82.093 364.000 M153.000 366.800 C 154.083 367.900,155.060 368.800,155.170 368.800 C 155.280 368.800,154.483 367.900,153.400 366.800 C 152.317 365.700,151.340 364.800,151.230 364.800 C 151.120 364.800,151.917 365.700,153.000 366.800 M158.909 378.400 C 158.909 379.390,158.987 379.795,159.082 379.300 C 159.178 378.805,159.178 377.995,159.082 377.500 C 158.987 377.005,158.909 377.410,158.909 378.400 M136.000 384.600 C 136.746 385.370,137.447 386.000,137.557 386.000 C 137.667 386.000,137.146 385.370,136.400 384.600 C 135.654 383.830,134.953 383.200,134.843 383.200 C 134.733 383.200,135.254 383.830,136.000 384.600 M146.100 390.276 C 146.485 390.376,147.115 390.376,147.500 390.276 C 147.885 390.175,147.570 390.093,146.800 390.093 C 146.030 390.093,145.715 390.175,146.100 390.276 " stroke="#e3e3e4" fill="none" stroke-width="4" class="berraJAL_0"></path><path id="path1" d="M165.200 11.686 C 163.110 11.893,161.340 12.228,161.267 12.431 C 161.193 12.634,160.709 12.800,160.190 12.800 C 159.672 12.800,159.146 12.964,159.022 13.165 C 158.897 13.366,158.077 13.652,157.198 13.800 C 156.319 13.949,155.600 14.226,155.600 14.417 C 155.600 14.608,154.970 14.882,154.200 15.026 C 153.430 15.171,152.800 15.435,152.800 15.613 C 152.800 15.791,152.260 16.055,151.600 16.200 C 150.940 16.345,150.400 16.601,150.400 16.769 C 150.400 16.937,149.730 17.417,148.911 17.837 C 147.170 18.729,147.001 18.846,145.344 20.299 C 144.654 20.904,143.684 21.670,143.189 22.000 C 141.681 23.006,136.451 28.408,136.191 29.229 C 136.056 29.653,135.797 30.000,135.615 30.000 C 135.433 30.000,134.686 30.945,133.955 32.100 C 133.224 33.255,132.500 34.292,132.345 34.404 C 132.190 34.516,131.940 35.101,131.788 35.704 C 131.637 36.307,131.374 36.800,131.203 36.800 C 131.033 36.800,130.762 37.205,130.600 37.700 C 130.439 38.195,130.269 38.690,130.221 38.800 C 130.174 38.910,129.995 39.495,129.824 40.100 C 129.653 40.705,129.366 41.200,129.185 41.200 C 129.005 41.200,128.734 42.190,128.583 43.400 C 128.432 44.610,128.149 45.600,127.954 45.600 C 127.759 45.600,127.600 48.480,127.600 52.000 C 127.600 55.520,127.759 58.400,127.954 58.400 C 128.149 58.400,128.432 59.390,128.583 60.600 C 128.734 61.810,128.980 62.802,129.129 62.804 C 129.278 62.806,129.755 63.616,130.190 64.604 C 130.624 65.592,131.119 66.400,131.290 66.400 C 131.460 66.400,131.600 66.751,131.600 67.180 C 131.600 67.609,131.825 68.104,132.100 68.280 C 132.602 68.601,133.365 69.680,133.882 70.800 C 134.035 71.130,134.302 71.580,134.476 71.800 C 140.525 79.441,152.107 91.811,156.275 95.083 C 158.594 96.903,159.578 97.889,159.326 98.140 C 159.183 98.283,159.270 98.400,159.518 98.400 C 159.766 98.400,160.782 99.165,161.776 100.100 C 163.971 102.166,166.670 104.524,167.940 105.487 C 168.457 105.879,169.658 106.920,170.609 107.800 C 171.560 108.680,172.847 109.793,173.469 110.272 C 174.091 110.752,175.263 111.742,176.074 112.472 C 176.885 113.203,178.055 114.190,178.674 114.666 C 179.293 115.142,180.188 115.862,180.663 116.266 C 181.137 116.670,181.916 117.270,182.394 117.600 C 183.198 118.156,184.694 119.346,186.415 120.800 C 186.806 121.130,187.522 121.670,188.007 122.000 C 188.492 122.330,189.389 123.050,190.000 123.600 C 190.611 124.150,191.504 124.870,191.983 125.200 C 193.361 126.148,194.877 127.340,195.660 128.090 C 196.056 128.469,196.834 128.894,197.390 129.033 C 197.945 129.173,198.400 129.447,198.400 129.643 C 198.400 129.840,199.210 130.000,200.200 130.000 C 201.190 130.000,202.000 129.840,202.000 129.643 C 202.000 129.447,202.455 129.173,203.010 129.033 C 203.566 128.894,204.344 128.469,204.740 128.090 C 205.523 127.340,207.039 126.148,208.417 125.200 C 208.896 124.870,209.789 124.150,210.400 123.600 C 211.011 123.050,211.905 122.330,212.387 122.000 C 213.195 121.446,214.667 120.276,216.415 118.800 C 216.806 118.470,217.519 117.930,218.000 117.600 C 218.481 117.270,219.263 116.670,219.737 116.266 C 220.212 115.862,221.107 115.142,221.726 114.666 C 222.345 114.190,223.515 113.203,224.326 112.472 C 225.137 111.742,226.309 110.752,226.931 110.272 C 227.553 109.793,228.840 108.680,229.791 107.800 C 230.742 106.920,231.943 105.879,232.460 105.487 C 233.668 104.572,236.328 102.261,238.663 100.100 C 239.674 99.165,240.688 98.400,240.917 98.400 C 241.146 98.400,241.229 98.296,241.101 98.168 C 240.904 97.971,242.910 95.984,244.702 94.600 C 245.433 94.036,256.725 82.800,256.561 82.800 C 256.487 82.800,257.409 81.765,258.610 80.500 C 259.811 79.235,261.876 76.850,263.200 75.200 C 264.524 73.550,265.785 71.983,266.004 71.717 C 266.222 71.451,266.400 71.046,266.400 70.817 C 266.400 70.588,266.577 70.400,266.792 70.400 C 267.008 70.400,267.294 69.963,267.428 69.429 C 267.563 68.895,267.926 68.361,268.236 68.241 C 268.546 68.122,268.800 67.659,268.800 67.213 C 268.800 66.766,268.940 66.400,269.110 66.400 C 269.281 66.400,269.776 65.592,270.210 64.604 C 270.645 63.616,271.118 62.806,271.262 62.804 C 271.407 62.802,271.654 61.855,271.811 60.700 C 271.968 59.545,272.276 58.486,272.496 58.347 C 273.000 58.027,272.968 45.953,272.461 45.632 C 272.261 45.504,271.968 44.455,271.811 43.300 C 271.654 42.145,271.381 41.200,271.206 41.200 C 271.030 41.200,270.747 40.705,270.576 40.100 C 270.405 39.495,270.226 38.910,270.179 38.800 C 270.131 38.690,269.961 38.195,269.800 37.700 C 269.638 37.205,269.367 36.800,269.197 36.800 C 269.026 36.800,268.763 36.307,268.612 35.704 C 268.460 35.101,268.210 34.516,268.055 34.404 C 267.900 34.292,267.176 33.255,266.445 32.100 C 265.714 30.945,264.967 30.000,264.785 30.000 C 264.603 30.000,264.344 29.653,264.209 29.229 C 263.949 28.408,258.719 23.006,257.211 22.000 C 256.716 21.670,255.771 20.927,255.110 20.349 C 253.425 18.876,253.166 18.696,251.489 17.837 C 250.670 17.417,250.000 16.937,250.000 16.769 C 250.000 16.601,249.460 16.345,248.800 16.200 C 248.140 16.055,247.600 15.791,247.600 15.613 C 247.600 15.435,246.970 15.171,246.200 15.026 C 245.430 14.882,244.800 14.608,244.800 14.417 C 244.800 14.226,244.081 13.949,243.202 13.800 C 242.323 13.652,241.503 13.366,241.378 13.165 C 241.254 12.964,240.703 12.800,240.153 12.800 C 239.603 12.800,239.247 12.647,239.363 12.460 C 239.479 12.273,237.363 11.917,234.662 11.668 C 229.552 11.198,220.347 11.685,220.067 12.440 C 219.993 12.638,219.419 12.800,218.790 12.800 C 218.162 12.800,217.545 12.966,217.419 13.169 C 217.294 13.372,216.641 13.659,215.968 13.807 C 215.296 13.955,214.263 14.327,213.673 14.635 C 213.083 14.943,212.375 15.196,212.100 15.198 C 211.825 15.199,211.600 15.366,211.600 15.568 C 211.600 15.771,211.060 16.055,210.400 16.200 C 209.740 16.345,209.200 16.629,209.200 16.832 C 209.200 17.034,208.930 17.200,208.600 17.200 C 208.270 17.200,208.000 17.368,208.000 17.573 C 208.000 17.778,207.603 18.072,207.119 18.226 C 206.634 18.380,206.019 18.707,205.753 18.953 C 205.487 19.199,204.678 19.850,203.955 20.400 C 203.232 20.950,202.130 21.895,201.506 22.500 C 200.126 23.840,200.274 23.840,198.894 22.500 C 198.270 21.895,197.168 20.950,196.445 20.400 C 195.722 19.850,194.913 19.199,194.647 18.953 C 194.381 18.707,193.766 18.380,193.281 18.226 C 192.797 18.072,192.400 17.778,192.400 17.573 C 192.400 17.368,192.130 17.200,191.800 17.200 C 191.470 17.200,191.200 17.034,191.200 16.832 C 191.200 16.629,190.660 16.345,190.000 16.200 C 189.340 16.055,188.800 15.771,188.800 15.568 C 188.800 15.366,188.575 15.199,188.300 15.198 C 188.025 15.196,187.317 14.943,186.727 14.635 C 186.137 14.327,185.104 13.955,184.432 13.807 C 183.759 13.659,183.106 13.372,182.981 13.169 C 182.855 12.966,182.238 12.800,181.610 12.800 C 180.981 12.800,180.407 12.638,180.333 12.440 C 180.211 12.110,171.421 11.128,169.731 11.255 C 169.329 11.286,167.290 11.479,165.200 11.686 M177.710 24.350 C 177.958 24.598,178.574 24.800,179.080 24.800 C 179.586 24.800,180.000 24.964,180.000 25.165 C 180.000 25.366,180.720 25.651,181.600 25.800 C 182.480 25.949,183.200 26.234,183.200 26.435 C 183.200 26.636,183.409 26.800,183.665 26.800 C 184.087 26.800,187.457 28.799,188.713 29.794 C 189.687 30.566,191.405 32.329,192.800 33.990 C 197.011 39.002,196.975 38.978,200.200 38.978 C 203.425 38.978,203.389 39.002,207.600 33.990 C 210.007 31.125,212.560 28.800,213.298 28.800 C 213.483 28.800,214.027 28.433,214.509 27.985 C 214.990 27.536,215.793 27.066,216.292 26.941 C 216.791 26.816,217.200 26.569,217.200 26.392 C 217.200 26.215,217.920 25.949,218.800 25.800 C 219.680 25.651,220.400 25.366,220.400 25.165 C 220.400 24.964,220.814 24.800,221.320 24.800 C 221.826 24.800,222.465 24.575,222.740 24.300 C 223.098 23.942,225.045 23.800,229.600 23.800 C 234.154 23.800,236.102 23.942,236.460 24.300 C 236.735 24.575,237.385 24.800,237.904 24.800 C 238.423 24.800,238.750 24.958,238.631 25.150 C 238.512 25.343,239.131 25.615,240.007 25.755 C 240.883 25.895,241.600 26.165,241.600 26.355 C 241.600 26.545,242.095 26.800,242.700 26.923 C 243.305 27.045,244.197 27.517,244.683 27.973 C 245.169 28.428,245.717 28.800,245.902 28.800 C 246.894 28.800,255.600 37.250,255.600 38.213 C 255.600 38.536,255.777 38.800,255.992 38.800 C 256.208 38.800,256.498 39.250,256.636 39.800 C 256.774 40.350,257.047 40.800,257.243 40.800 C 257.440 40.800,257.600 41.070,257.600 41.400 C 257.600 41.730,257.780 42.000,258.000 42.000 C 258.220 42.000,258.367 42.135,258.326 42.300 C 258.285 42.465,258.572 43.320,258.963 44.200 C 259.355 45.080,259.772 46.475,259.890 47.300 C 260.009 48.125,260.262 48.800,260.453 48.800 C 260.916 48.800,260.901 55.090,260.437 55.377 C 260.238 55.500,259.951 56.501,259.800 57.600 C 259.649 58.700,259.362 59.600,259.162 59.600 C 258.963 59.600,258.800 59.870,258.800 60.200 C 258.800 60.530,258.609 60.800,258.376 60.800 C 258.143 60.800,258.064 60.980,258.200 61.200 C 258.336 61.420,258.257 61.600,258.024 61.600 C 257.791 61.600,257.600 61.791,257.600 62.023 C 257.600 62.476,255.201 65.711,254.700 65.933 C 254.535 66.007,254.400 66.256,254.400 66.487 C 254.400 66.719,253.950 67.325,253.400 67.835 C 252.850 68.345,252.400 68.862,252.400 68.984 C 252.400 69.595,236.213 85.987,232.240 89.400 C 231.215 90.280,229.592 91.765,228.633 92.700 C 227.673 93.635,226.785 94.400,226.658 94.400 C 226.531 94.400,225.917 94.895,225.294 95.500 C 224.670 96.105,223.573 97.050,222.856 97.600 C 222.138 98.150,220.775 99.320,219.827 100.200 C 218.878 101.080,217.706 102.070,217.221 102.400 C 215.481 103.585,214.694 104.217,213.612 105.300 C 213.008 105.905,212.390 106.400,212.240 106.400 C 211.885 106.400,211.007 107.128,209.709 108.500 C 209.136 109.105,208.524 109.600,208.348 109.600 C 208.172 109.600,207.501 110.095,206.857 110.700 C 206.214 111.305,205.173 112.190,204.544 112.666 C 203.519 113.442,202.323 114.406,200.917 115.593 C 200.651 115.817,200.329 116.000,200.200 116.000 C 200.071 116.000,199.749 115.817,199.483 115.593 C 198.077 114.406,196.881 113.442,195.856 112.666 C 195.227 112.190,194.186 111.305,193.543 110.700 C 192.899 110.095,192.212 109.600,192.015 109.600 C 191.819 109.600,191.304 109.150,190.871 108.600 C 190.439 108.050,189.931 107.600,189.742 107.600 C 189.554 107.600,188.735 107.015,187.923 106.300 C 186.344 104.910,184.777 103.633,183.261 102.501 C 182.744 102.116,181.612 101.125,180.745 100.300 C 179.877 99.475,179.040 98.797,178.884 98.794 C 178.728 98.791,177.553 97.801,176.272 96.594 C 174.992 95.387,173.847 94.400,173.728 94.400 C 173.609 94.400,172.727 93.635,171.767 92.700 C 170.808 91.765,169.185 90.280,168.160 89.400 C 164.187 85.987,148.000 69.595,148.000 68.984 C 148.000 68.862,147.550 68.345,147.000 67.835 C 146.450 67.325,146.000 66.719,146.000 66.487 C 146.000 66.256,145.865 66.007,145.700 65.933 C 145.199 65.711,142.800 62.476,142.800 62.023 C 142.800 61.791,142.623 61.600,142.408 61.600 C 142.192 61.600,141.902 61.150,141.764 60.600 C 141.626 60.050,141.370 59.600,141.194 59.600 C 141.019 59.600,140.751 58.700,140.600 57.600 C 140.449 56.501,140.162 55.500,139.963 55.377 C 139.461 55.067,139.497 48.800,140.000 48.800 C 140.220 48.800,140.400 48.354,140.400 47.808 C 140.400 46.667,141.562 43.523,142.124 43.145 C 142.332 43.004,142.379 42.689,142.228 42.445 C 142.076 42.200,142.143 42.000,142.376 42.000 C 142.609 42.000,142.800 41.730,142.800 41.400 C 142.800 41.070,142.960 40.800,143.157 40.800 C 143.353 40.800,143.626 40.350,143.764 39.800 C 143.902 39.250,144.192 38.800,144.408 38.800 C 144.623 38.800,144.800 38.530,144.800 38.199 C 144.800 37.226,153.494 28.800,154.498 28.800 C 154.683 28.800,155.231 28.428,155.717 27.973 C 156.203 27.517,157.095 27.045,157.700 26.923 C 158.305 26.800,158.800 26.545,158.800 26.355 C 158.800 26.165,159.517 25.895,160.393 25.755 C 161.269 25.615,161.888 25.343,161.769 25.150 C 161.650 24.958,161.977 24.800,162.496 24.800 C 163.015 24.800,163.611 24.634,163.820 24.431 C 164.735 23.542,176.832 23.472,177.710 24.350 " stroke="#f48c8c" fill="none" stroke-width="4" class="berraJAL_1"></path><path id="path2" d="M106.200 264.710 C 99.464 265.325,90.678 269.040,78.700 276.337 C 76.115 277.912,71.885 280.485,69.300 282.056 C 49.754 293.936,39.218 296.140,23.800 291.574 C 14.503 288.822,10.994 289.288,6.845 293.826 C 1.336 299.854,3.302 309.010,10.892 312.676 C 23.155 318.600,38.975 319.986,52.800 316.348 C 63.041 313.652,71.074 309.684,91.977 296.994 C 109.375 286.431,112.107 286.497,129.861 297.908 C 132.907 299.866,138.730 303.625,142.800 306.262 C 168.521 322.924,177.820 324.008,199.600 312.883 C 219.192 302.876,223.234 300.910,227.200 299.458 C 244.867 292.990,254.736 295.157,280.200 311.095 C 312.756 331.472,320.816 331.029,358.000 306.814 C 371.421 298.074,373.473 296.929,380.281 294.383 C 390.631 290.513,392.991 280.700,385.296 273.523 C 378.387 267.079,369.680 269.872,343.679 286.872 C 316.128 304.885,317.195 304.819,292.600 290.020 C 268.627 275.596,258.274 271.782,243.200 271.820 C 228.464 271.857,220.279 274.527,195.926 287.238 C 178.891 296.131,178.897 296.129,173.956 295.192 C 169.816 294.406,165.546 292.025,150.600 282.166 C 127.805 267.128,118.738 263.564,106.200 264.710 M109.994 307.809 C 103.123 308.880,95.461 312.509,80.400 321.822 C 56.043 336.884,47.193 339.055,29.968 334.191 C 17.872 330.775,10.553 334.865,10.622 345.000 C 10.670 352.190,13.927 355.010,26.292 358.569 C 46.030 364.250,64.363 360.272,89.800 344.790 C 118.240 327.480,116.214 327.416,145.313 346.541 C 174.763 365.896,184.138 367.106,207.800 354.605 C 247.481 333.641,253.761 333.609,287.200 354.191 C 318.722 373.593,327.986 373.277,360.800 351.679 C 376.919 341.069,380.366 339.086,385.600 337.413 C 395.961 334.101,399.208 323.897,392.199 316.680 C 387.136 311.466,375.848 312.894,364.436 320.191 C 363.646 320.697,357.600 324.612,351.000 328.892 C 322.091 347.640,323.721 347.480,300.800 333.808 C 270.005 315.440,258.516 312.054,238.212 315.362 C 229.738 316.743,222.818 319.287,211.200 325.292 C 183.327 339.698,184.135 339.393,178.687 337.565 C 175.166 336.383,170.607 333.730,157.800 325.409 C 131.391 308.249,124.183 305.596,109.994 307.809 M99.858 350.040 C 87.653 351.822,82.052 356.480,82.473 364.496 C 82.990 374.351,89.328 377.550,102.600 374.654 C 115.801 371.773,125.430 374.718,137.000 385.173 C 143.952 391.455,150.327 391.810,155.763 386.216 C 163.930 377.813,155.992 365.078,136.594 355.465 C 126.199 350.313,112.169 348.241,99.858 350.040 M241.767 355.806 C 222.026 358.616,201.646 372.943,201.609 384.036 C 201.586 390.755,207.511 396.346,214.200 395.920 C 217.299 395.722,219.692 394.510,223.513 391.203 C 230.144 385.464,232.784 383.678,237.570 381.697 C 243.500 379.242,251.488 378.989,260.000 380.988 C 266.282 382.464,269.399 382.326,272.331 380.444 C 279.217 376.025,279.917 366.268,273.737 360.828 C 269.164 356.802,252.811 354.233,241.767 355.806 " stroke="#6c93fb" fill="none" stroke-width="4" class="berraJAL_2"></path></g><style data-made-with="vivus-instant">.berraJAL_0{stroke-dasharray:2131 2133;stroke-dashoffset:2132;animation:berraJAL_draw_0 7200ms ease-in-out 0ms infinite,berraJAL_fade 7200ms linear 0ms infinite;}.berraJAL_1{stroke-dasharray:765 767;stroke-dashoffset:766;animation:berraJAL_draw_1 7200ms ease-in-out 0ms infinite,berraJAL_fade 7200ms linear 0ms infinite;}.berraJAL_2{stroke-dasharray:2117 2119;stroke-dashoffset:2118;animation:berraJAL_draw_2 7200ms ease-in-out 0ms infinite,berraJAL_fade 7200ms linear 0ms infinite;}@keyframes berraJAL_draw{100%{stroke-dashoffset:0;}}@keyframes berraJAL_fade{0%{stroke-opacity:1;}94.44444444444444%{stroke-opacity:1;}100%{stroke-opacity:0;}}@keyframes berraJAL_draw_0{11.11111111111111%{stroke-dashoffset: 2132}52.77777777777778%{ stroke-dashoffset: 0;}100%{ stroke-dashoffset: 0;}}@keyframes berraJAL_draw_1{11.11111111111111%{stroke-dashoffset: 766}52.77777777777778%{ stroke-dashoffset: 0;}100%{ stroke-dashoffset: 0;}}@keyframes berraJAL_draw_2{11.11111111111111%{stroke-dashoffset: 2118}52.77777777777778%{ stroke-dashoffset: 0;}100%{ stroke-dashoffset: 0;}}</style></svg>