<svg width="400" height="229.2" xmlns="http://www.w3.org/2000/svg" style=""><g fill="none" stroke-width="3"><path d="M222.908 40.778c.103.167-.123.254-.66.254-.448 0-.815.103-.815.229s-.203.229-.451.229c-1.27 0-3.688 1.891-4.759 3.721l-.501.855.637 1.21c.35.666.693 1.427.762 1.693.09.341.384.53 1.008.647 4.151.779 4.864 5.494 1.058 6.998-.416.164-.904.584-1.084.933-.523 1.012-1.919 2.014-3.207 2.302-1.154.258-1.351.238-3.95-.405-.304-.075-.516-.022-.516.128 0 .141.148.256.328.256.181 0 .402.23.491.511.089.281.457.787.818 1.124.36.337.655.725.655.864 0 .138.117.252.26.252.143 0 .426.188.63.418.417.47 1.769 1.186 2.24 1.186.17 0 .308.104.308.23s.304.229.675.229c.37 0 .733.095.805.211.071.117 1.212.212 2.535.212 1.322 0 2.404-.095 2.404-.212 0-.116.252-.211.559-.211.308 0 .624-.103.702-.229.077-.126.341-.23.586-.23.245 0 .447-.129.449-.286.002-.178.067-.199.171-.057.275.373 1.16.802 1.656.802.254 0 .461.089.461.198 0 .291 3.826.332 4.005.042.082-.132.4-.24.708-.24.308 0 .56-.103.56-.229s.206-.23.458-.23.458-.096.458-.213c0-.118.181-.272.402-.343.918-.294 2.349-2.158 2.349-3.06 0-.123.712-.598 1.581-1.054 1.669-.877 2.856-2.025 3.373-3.263.171-.41.416-.811.544-.89.128-.079.233-.298.233-.487s-.103-.28-.229-.203c-.126.078-.23-.019-.23-.215 0-.197.104-.358.23-.358s.229-.154.229-.343c0-.19-.103-.344-.229-.344s-.23-.258-.23-.573c0-.316-.103-.573-.229-.573s-.229-.196-.229-.435c0-.652-2.182-2.775-2.854-2.775-.18 0-.392-.103-.47-.229-.078-.126-.428-.229-.777-.229-.35 0-.714-.077-.808-.172-.18-.179-.304-.21-1.031-.258-.396-.026-.912-1.504-.751-2.149.024-.094-.06-.172-.186-.172s-.229-.132-.229-.293c0-.161-.206-.442-.459-.624-.252-.181-.458-.497-.458-.7 0-.391-1.209-1.592-1.603-1.592-.127 0-.231-.084-.231-.187 0-.256-1.517-.959-2.071-.959-.248 0-.45-.092-.45-.204 0-.268-1.245-.478-3.754-.634-1.453-.091-1.989-.054-1.877.126m-13.854 3.692c0 .126.258.229.574.229.315 0 .573-.103.573-.229s-.258-.229-.573-.229c-.316 0-.574.103-.574.229m3.21 0c0 .126.154.229.343.229.19 0 .344-.103.344-.229s-.154-.229-.344-.229c-.189 0-.343.103-.343.229m-7.521 4.143c-.033.432.037.648.18.559.274-.169.32-1.264.054-1.264-.099 0-.204.317-.234.705m-.273 1.702c-.159.192-.184.344-.056.344.126 0 .357-.155.514-.344.16-.192.184-.344.057-.344s-.358.155-.515.344m-2.813 3.462c-.092.092-.167.326-.167.519 0 .258.068.284.255.097.14-.141.215-.374.167-.519-.048-.145-.163-.188-.255-.097m-36.327 1.638c-2.526.041-4.184.157-4.184.292 0 .404 8.143.289 8.482-.12.156-.189.195-.32.085-.292-.11.029-2.083.083-4.383.12m36.16.631c0 .189.103.344.229.344s.229-.155.229-.344c0-.189-.103-.344-.229-.344s-.229.155-.229.344m-36.275 1.891c3.507.057 4.183.122 4.183.406 0 .187.103.339.23.339.369 0 .262-.626-.134-.778-.199-.076-2.185-.116-4.412-.087l-4.05.052 4.183.068m38.567 1.105c0 .201.55.665.865.729.155.031.281-.046.281-.172s-.154-.229-.343-.229c-.19 0-.344-.104-.344-.23s-.103-.229-.23-.229c-.126 0-.229.059-.229.131m-42.409 1.701c.466.289 4.423.293 4.245.005-.097-.157-.969-.236-2.339-.213-1.201.02-2.059.114-1.906.208m74.272 30.948c0 .126.154.229.344.229.189 0 .343-.103.343-.229 0-.127-.154-.23-.343-.23-.19 0-.344.103-.344.23m-106.304 18.466c-.338.366-.366.559-.082.559.196 0 .562-.689.431-.812-.034-.032-.191.082-.349.253m-4.814 24.34c.851.044 2.244.044 3.095 0s.155-.081-1.548-.081c-1.702 0-2.398.037-1.547.081m-85.788 22.709c0 .103-.483.212-1.074.242-.591.031-1.184.128-1.318.215-.134.088-.914.291-1.734.452-2.549.5-2.751.556-2.751.765 0 .112-.251.203-.559.203-.308 0-.623.103-.701.229-.078.126-.301.23-.495.23-.331 0-1.522.46-2.425.936-.219.115-.554.21-.745.21-.191 0-.347.103-.347.229s-.102.229-.227.229c-.392 0-2.065.787-2.065.971 0 .096-.198.175-.439.175-.242 0-.474.078-.516.172-.042.095-.644.471-1.337.836-2.293 1.208-3.323 1.788-3.439 1.938-.063.082-.501.346-.974.586-.473.241-.859.524-.859.63 0 .107-.207.194-.459.194s-.458.08-.458.179c0 .099-.336.375-.745.613-.41.239-.797.503-.86.589-.063.085-.579.444-1.146.798-.567.354-1.198.833-1.402 1.066-.204.232-.463.422-.576.422-.112 0-.483.258-.822.573-.34.315-.726.573-.858.573-.131 0-.24.078-.241.172 0 .095-.359.416-.797.714-.438.298-1.03.746-1.317.994-.286.249-.878.727-1.316 1.063-.438.336-1.065.868-1.395 1.183-.329.316-1.105.986-1.725 1.49-1.859 1.512-1.929 1.581-1.929 1.892 0 .165-.155.36-.344.432-.303.117-.344 3.104-.344 24.979v24.846h2.222l1.353-2.691c9.951-19.792 19.51-30.766 26.807-30.774 5.391-.006 10.485 4.529 17.681 15.74.248.387.26.382.153-.067-.131-.546 2.778-3.082 7.84-6.836 1.507-1.118 3.102-2.303 3.543-2.635 4.575-3.438 14.332-8.795 20.458-11.234 1.21-.481 1.985-1.617 1.105-1.617-.118 0-.276-.195-.351-.432-.076-.237-.433-.741-.794-1.119-.361-.378-.726-.905-.811-1.173-.084-.267-.25-.485-.368-.485-.117 0-.213-.132-.213-.294 0-.161-.207-.442-.459-.623-.252-.182-.458-.467-.458-.634 0-.167-.258-.562-.573-.877-.316-.315-.573-.723-.573-.907 0-.183-.087-.333-.194-.333-.106 0-.387-.361-.625-.802-.237-.442-.495-.803-.573-.803-.077 0-.335-.361-.573-.802-.237-.441-.512-.802-.609-.802-.097 0-.177-.132-.177-.293 0-.162-.206-.442-.459-.624-.252-.182-.458-.458-.458-.613 0-.156-.258-.541-.573-.856-.315-.315-.573-.634-.573-.708 0-.15-.319-.553-1.089-1.377-.284-.303-.516-.633-.516-.734 0-.1-.387-.617-.859-1.147-1.102-1.237-2.653-3.006-3.255-3.712-.259-.303-.471-.458-.471-.344-.001.114-.2-.119-.443-.517-.243-.399-.629-.785-.858-.859-.23-.073-.624-.443-.876-.822-.252-.378-.535-.688-.628-.689-.094 0-.466-.31-.827-.688-.362-.378-.756-.688-.876-.688-.121 0-.491-.283-.824-.63-.332-.347-.996-.835-1.475-1.086-.479-.25-1.032-.63-1.229-.844-.196-.214-.661-.464-1.031-.556-.371-.091-.83-.343-1.02-.559-.19-.216-.912-.586-1.604-.823-.693-.236-1.294-.507-1.336-.602-.042-.095-.224-.172-.404-.172-.324 0-.596-.11-1.677-.677-.304-.159-1.155-.345-1.891-.411-.736-.067-1.338-.211-1.338-.319 0-.109-.458-.197-1.018-.197s-1.082-.104-1.16-.23c-.17-.275-6.304-.316-6.304-.043m124.585 22.061c-4.448.445-11.102 1.7-15.687 2.959-.937.257-1.936.467-2.221.467-.285 0-.576.094-.646.208-.071.114-.644.279-1.275.366-.63.086-1.145.251-1.145.365 0 .114-.208.208-.462.208s-.666.103-.917.229c-.25.126-.657.33-.904.454-.246.124-.865.292-1.375.373-.51.082-.927.238-.927.348 0 .11-.258.2-.573.2-.315 0-.573.103-.573.229s-.206.23-.459.23c-.252 0-.458.103-.458.229s-.232.23-.516.23c-.283.001-.811.156-1.172.344-.361.189-.8.343-.974.343-.175 0-.318.091-.318.203 0 .112-.464.273-1.031.358-1.571.235-1.373.874.458 1.48 4.313 1.428 12.055 6.183 16.162 9.927.317.289 1.966 1.762 3.666 3.275 1.699 1.513 3.297 2.94 3.551 3.172 10.642 9.725 22.781 11.189 37.939 4.576 1.576-.688 2.995-1.26 3.154-1.271.229-.016.276-2.672.229-12.856l-.059-12.836-2.865-.752c-10.578-2.777-22.005-3.919-30.602-3.058m213.889.413c-.067.107-.82.26-1.674.34-.855.08-1.589.25-1.631.378-.043.128-.27.232-.504.232-.234 0-.489.104-.567.23-.078.126-.342.229-.587.229-.245 0-.445.103-.445.229s-.102.229-.227.229c-.392 0-2.065.787-2.065.971 0 .097-.161.175-.357.175-.221 0-.295.11-.193.287.091.158.081.21-.022.118-.187-.17-1.44.506-2.293 1.238-1.251 1.073-2.558 2.245-3.603 3.228-.635.599-1.191 1.089-1.235 1.089-.077 0-.828.802-2.327 2.486-.411.461-.838.927-.949 1.036-.111.108-.446.432-.743.719-.298.287-1.204 1.255-2.013 2.152-1.45 1.607-1.932 1.907-2.159 1.344-.079-.196-.122-.202-.134-.02-.01.147.843 1.539 1.896 3.094 3.493 5.163 10.464 17.932 10.464 19.169 0 .237.084.267.287.105.157-.126.905-.302 1.662-.392 7.939-.94 21.957-4.39 30.601-7.532l1.49-.542.06-12.754.059-12.754-.74-.707c-.407-.389-1.027-.765-1.378-.835-.35-.07-.637-.218-.637-.328 0-.11-.154-.201-.344-.201-.189 0-.343-.103-.343-.229s-.195-.229-.433-.229c-.237 0-.727-.154-1.088-.342-.362-.189-.883-.344-1.159-.344-.277-.001-.566-.105-.644-.231-.078-.126-.439-.229-.802-.229-.364 0-.725-.103-.803-.229-.078-.126-.527-.23-.999-.23s-.962-.104-1.09-.232c-.127-.127-1.382-.298-2.788-.378-1.406-.081-2.503-.234-2.437-.341.067-.107-1.478-.195-3.432-.195s-3.608.088-3.674.196m-111.709 3.659c-.2.127.038.483.802 1.2l1.086 1.02-.886-.954c-.487-.524-.816-1.066-.731-1.203.182-.294.117-.309-.271-.063m.914.2c.221.058.582.058.803 0 .22-.058.04-.105-.402-.105-.441 0-.621.047-.401.105m3.439.459c.22.057.581.057.802 0 .221-.058.04-.105-.401-.105s-.622.047-.401.105m2.005.3c.316.101.78.184 1.032.184.363 0 .339-.039-.115-.184-.315-.101-.779-.184-1.031-.184-.363 0-.339.039.114.184m-24.63 1.36c.51.576 1.361 1.535 1.891 2.131.53.596.961 1.008.959.916-.002-.091-.853-1.05-1.891-2.13-1.038-1.08-1.47-1.493-.959-.917m22.806 3.058c1.541 1.736 2.917 3.226 3.058 3.31.295.177-2.344-2.782-4.437-4.977-.782-.82-.161-.07 1.379 1.667m-33.591-1.086c-.573.276-.592.308-.115.191.65-.159 1.38-.531 1.032-.526-.126.002-.539.153-.917.335m-37.02 4.691v4.584h9.436c5.19 0 9.368-.068 9.284-.152-.126-.127 3.272-2.14 3.612-2.14.059 0 .151.439.204.974.054.536.051-.108-.006-1.432-.058-1.324-.143-2.446-.191-2.494-.14-.14-6.805-2.58-7.554-2.765-.378-.093-1.191-.392-1.806-.665-1.051-.465-1.469-.495-7.048-.495h-5.931v4.585m32.55-2.865c-.567.303-.928.552-.802.552s.693-.249 1.261-.552c.567-.304.928-.553.802-.553s-.694.249-1.261.553m18.343-.392c.003.089.803.994 1.777 2.011 1.743 1.82 1.415 1.362-.702-.979-.594-.657-1.077-1.121-1.075-1.032m82.319 1.431c-.297.248-.442.451-.321.451s.457-.207.748-.459c.684-.593.286-.586-.427.008m-104.1.565c-.568.304-.95.557-.851.563.244.014 1.997-.887 1.997-1.026 0-.152.009-.156-1.146.463m45.387 2.063c.427.441.819.803.869.803.193 0-1.224-1.573-1.43-1.589-.12-.009.133.345.561.786m-49.796 13.503c-.034 7.741.016 14.027.111 13.969.094-.058.172-6.352.172-13.985 0-12.45.036-13.866.355-13.743.204.078.296.04.216-.09-.745-1.206-.793-.436-.854 13.849m30.683-12.378c.489.555.98 1.019 1.091 1.031.111.012-.199-.433-.688-.988-.489-.556-.98-1.02-1.091-1.032-.111-.011.198.433.688.989m20.749 1.11c.153.284.407.929.566 1.433.159.504.293.71.299.458.011-.496-.789-2.407-1.008-2.407-.074 0-.009.232.143.516m-18.588 1.187c2.017 2.315 2.739 3.089 2.738 2.934-.001-.092-.801-.999-1.777-2.017-.976-1.017-1.409-1.43-.961-.917m68.623 1.163c-.491 1.059-.496 1.245-.019.745.252-.266.84-1.436.84-1.673 0-.411-.422.067-.821.928m-1.429 1.998c-.321.321-.354.638-.066.638.21 0 .555-.691.415-.831-.043-.043-.2.044-.349.193m-47.919.333c-.017.273-.091.686-.163.916-.125.398-.118.399.13.013.143-.225.217-.637.163-.917-.099-.509-.099-.509-.13-.012m-14.523 1.795c1.99 2.306 3.658 3.782 4.272 3.782.123 0-.235-.291-.796-.647-.56-.356-1.883-1.568-2.939-2.694-1.409-1.5-1.552-1.618-.537-.441m13.689.489c-.635 1.179-2.474 2.74-3.851 3.27-.655.251-1.007.463-.781.47 1.349.039 5.811-3.815 5.164-4.461-.051-.052-.291.273-.532.721m47.152-.329c-.323.324-.359.642-.072.642.111 0 .256-.206.322-.458.14-.535.118-.552-.25-.184m-123.258.699c-.07.284-.098 2.373-.062 4.642l.065 4.126 11.232.004 11.233.003-11.175-.063-11.175-.063v-4.068l3.248-1.803c1.786-.992 3.857-2.139 4.603-2.548l1.357-.745h-4.6c-4.579 0-4.6.002-4.726.515m121.538 1.867c-.093.239-.116.488-.05.554.209.209.393-.134.305-.569-.08-.399-.092-.398-.255.015m-6.348 11.83c-.258.504-.417.917-.354.917s.326-.413.583-.917c.257-.505.416-.917.353-.917s-.325.412-.582.917m-115.303 2.339c-.062 1.097-.031 1.913.069 1.812.101-.101.151-.999.113-1.995l-.07-1.812-.112 1.995m167.127.984c0 .127.198.591.439 1.032.242.441.439.699.439.573s-.197-.59-.439-1.031c-.241-.442-.439-.7-.439-.574m-54.586 2.2c-.264.517-.44.979-.392 1.027.048.048.312-.375.586-.939.625-1.286.456-1.362-.194-.088" stroke="#748bf3" class="LcLdMEao_0"></path><path d="M157.937 106.285c-6.147.439-9.979 4.012-10.248 9.558-.145 2.969-.116 2.943-1.623 1.472-4.904-4.786-12.656-1.704-12.656 5.032 0 1.21-.043 1.301-1.038 2.176-1.158 1.019-2.401 2.704-2.401 3.255 0 .198-.206.566-.458.818-.408.408-.459.764-.459 3.209v2.751H121.335l-.954.908c-.525.499-.954 1.118-.954 1.375 0 .257-.103.468-.229.468s-.23.465-.23 1.034.104 1.24.23 1.49c.126.251.319.64.43.865.11.226.274.844.364 1.375.089.53.257 1.022.372 1.093.115.071.209.433.209.804 0 .37.103.674.229.674s.23.155.23.344c0 .189.103.344.229.344s.229.171.229.381c0 .607.753 2.828.959 2.828.103 0 .187.206.187.458s.081.459.179.459c.262 0 .748 1.402.581 1.673-.081.131-.029.161.122.068.173-.108.264.038.264.423 0 .322.103.586.229.586.127 0 .23.155.23.344 0 .189.103.344.229.344s.229.155.229.346c0 .334 1.121 2.631 1.398 2.863.075.063.21.418.301.789.091.371.381.861.644 1.089.263.228.395.414.293.414-.102 0-.028.181.165.402.192.22.529.788.749 1.26.22.473.491.86.602.86.112 0 .203.206.203.458 0 .253.102.459.225.459.124 0 .29.258.369.573.079.315.236.573.348.573.113 0 .205.154.205.342 0 .188.206.471.458.628.252.158.458.455.458.662 0 .206.155.503.344.66.189.157.344.405.344.551 0 .146.206.414.459.595.252.182.458.458.458.614 0 .155.258.54.573.855.315.316.573.637.573.715 0 .078.129.285.287.461.609.679.859 1.008.859 1.13 0 .069.31.45.688.846.378.396.688.796.688.891 0 .094.309.502.687.907.379.405.688.834.688.954 0 .121.096.16.213.087.117-.072.277.072.356.32.078.248.952 1.274 1.941 2.281.989 1.006 1.74 1.888 1.669 1.959-.071.071-.035.129.081.13.32 0 1.593 1.166 1.528 1.399-.032.113.039.205.157.205.117 0 .752.525 1.411 1.166.866.844 1.329 1.137 1.677 1.06.264-.058 1.46-.367 2.658-.685 14.071-3.746 27.52-3.689 42.937.184 2.246.564 4.232 1.026 4.413 1.026.283 0 .329-3.314.329-24.069v-24.069h-6.763c-5.984 0-6.762-.041-6.762-.359 0-.644.461-1.24 1.212-1.568 5.034-2.195 4.235-9.164-1.211-10.56-.995-.255-1.036-.301-1.179-1.3-.694-4.854-6.555-7.565-10.971-5.073-1.691.955-3.897.628-3.897-.577 0-3.304-3.127-7.284-6.622-8.428-.644-.21-1.171-.474-1.171-.585 0-.112-.181-.185-.401-.163-.221.022-.866.073-1.433.113m119.569 8.84c-1.183.313-2.514 1.676-2.894 2.962-.293.99-.344 1.033-1.563 1.317-3.047.708-5.083 3.206-5.083 6.235 0 1.021-.082 1.168-1.359 2.445-1.66 1.66-2.225 3.19-1.98 5.359l.152 1.342h-40.596v3.4c0 3.835-.036 3.718 1.068 3.469 2.551-.576 5.209 1.457 5.52 4.219.202 1.791-1.607 4.789-2.648 4.389-.209-.08-.002.196.459.613s2.158 2.254 3.772 4.082c2.544 2.882 3.498 3.957 4.551 5.134 3.085 3.447 4.149 4.629 4.25 4.723.069.063 1.035 1.146 2.148 2.407 2.403 2.722 2.228 2.63 3.259 1.724 2.452-2.153 4.209-1.689 7.547 1.993 1.233 1.36 2.714 2.993 3.292 3.631.579.637 2.575 2.864 4.437 4.948 3.175 3.554 3.438 3.792 4.241 3.826.47.02 2.248.259 3.95.531 4.521.722 4.256.768 6.15-1.082 1.867-1.825 1.877-1.834 2.726-2.684.35-.35.74-.739.866-.865.126-.127.458-.459.739-.739.28-.28.614-.613.742-.739.233-.228 1.319-1.421 2.668-2.929.391-.437 1.01-1.193 1.375-1.68.366-.487.897-1.106 1.181-1.374.283-.268.515-.616.515-.772 0-.157.258-.488.573-.736.316-.248.574-.598.574-.778 0-.18.103-.327.229-.327s.229-.161.229-.357c0-.197.092-.301.204-.232.112.07.373-.208.579-.616.48-.95.862-1.56 1.223-1.954.157-.171.286-.388.286-.482 0-.093.184-.369.409-.614.702-.764 1.427-2.085 1.25-2.279-.093-.103-.04-.113.118-.022.177.102.286.028.286-.193 0-.196.103-.357.23-.357.126 0 .229-.155.229-.344 0-.189.095-.344.211-.344.116 0 .284-.335.374-.744.09-.41.356-.912.592-1.116.235-.204.427-.488.427-.631 0-.143.092-.259.204-.259.112 0 .271-.361.354-.803.083-.441.249-.802.37-.802.12 0 .218-.155.218-.344 0-.189.104-.344.23-.344s.229-.197.229-.439.077-.474.172-.516c.094-.042.338-.437.541-.878.203-.442.512-1.112.687-1.49.176-.379.448-.824.606-.991.157-.167.286-.553.286-.86 0-.306.103-.556.229-.556s.23-.207.23-.459.082-.458.184-.458c.217 0 .965-2.001.963-2.579-.001-.221.102-.401.228-.401s.229-.206.229-.459c0-.252.091-.458.203-.458.111 0 .278-.232.37-.516.092-.283.186-.567.209-.63.023-.063.121-.527.22-1.032.098-.504.359-1.228.581-1.61.222-.381.469-1.051.55-1.49.081-.438.238-1.169.351-1.624.213-.862-.185-2.532-.729-3.057-1.298-1.256-1.751-1.386-4.964-1.431l-3.095-.043-.071-.702c-.04-.386-.161-.702-.269-.702-.108 0-.264-.31-.348-.689-.083-.38-.246-.632-.362-.56-.115.072-.21.028-.21-.097s-.232-.3-.516-.388c-.284-.089-.567-.226-.63-.305-.063-.08-.416-.246-.784-.371-.44-.148-.746-.461-.895-.913-.549-1.675-2.234-3.324-3.395-3.324-.858 0-1.001-.341-.462-1.098 1.614-2.267.546-4.656-2.516-5.625-.213-.067-.441-.493-.535-.995-.5-2.697-3.243-4.236-6.171-3.461m-78.26 21.551l.066 1.891 7.188.061 7.188.061-1.772-1.952-1.772-1.952h-10.965l.067 1.891m15.195-1.662c-.078.126-.039.23.087.23.125 0 .879.773 1.675 1.718l1.447 1.718 2.178-.056 2.178-.057.066-1.891.067-1.891h-3.778c-2.271 0-3.835.092-3.92.229m-71.299 7.182c3.081 1.691 3.168 6.067.158 7.975-2.878 1.825-6.661-.032-7.068-3.47-.447-3.77 3.528-6.361 6.91-4.505m19.028-.144c1.639.828 2.644 2.376 2.644 4.078 0 5.071-6.781 6.594-8.887 1.996-1.814-3.963 2.366-8.03 6.243-6.074m23.431.206c4.079 2.347 2.419 8.569-2.286 8.572-2.739.002-4.748-1.938-4.748-4.584 0-3.644 3.844-5.824 7.034-3.988m63.328-.141c1.57.806 2.532 2.374 2.532 4.129 0 4.885-6.777 6.422-8.834 2.004-1.911-4.103 2.29-8.191 6.302-6.133m22.403.141c2.17 1.248 2.899 3.634 1.819 5.953-2.073 4.452-8.853 2.947-8.853-1.965 0-3.657 3.832-5.83 7.034-3.988m23.682-.23c4.977 2.711 2.286 9.756-3.324 8.703-2.722-.51-4.296-4.497-2.73-6.912 1.361-2.1 4.035-2.891 6.054-1.791m-95.714 1.99c-.062.162-.084 2.302-.05 4.757l.062 4.463h22.694l.064-2.42c.073-2.728.231-2.371-2.471-5.587l-1.261-1.5-4.325-.003-4.324-.003.169.516c1.727 5.262-4.24 9.077-7.762 4.962-1.343-1.569-1.526-2.954-.68-5.158.094-.246-.125-.32-.94-.32-.652 0-1.107.113-1.176.293m20.471-.127c.41.051 1.08.051 1.49 0 .409-.051.074-.093-.745-.093-.82 0-1.155.042-.745.093m4.486 4.648c0 .819.041 1.154.092.745.051-.41.051-1.081 0-1.49-.051-.41-.092-.075-.092.745m-.074 22.795c0 20.353.013 20.978.435 21.203.349.187 1.175-.124 4.183-1.575 4.181-2.016 8.083-3.604 11.397-4.64 1.215-.38 2.621-.824 3.126-.987.504-.163 1.355-.369 1.891-.458 1.3-.215 1.27-.301-.928-2.724-4.775-5.261-5.025-6.252-2.298-9.11l1.264-1.325-4.183-4.656c-2.3-2.56-4.914-5.478-5.809-6.484-2.348-2.639-3.548-3.97-4.756-5.274-.585-.632-1.797-2.003-2.693-3.045l-1.629-1.897v20.972m-24.985-8.237v4.701l11.404-.059 11.404-.06.062-4.642.062-4.642h-22.932v4.702m.103 10.031c-.063.162-.085 2.304-.051 4.758l.062 4.464h22.694V172.951l-11.296-.059c-9.05-.048-11.318-.001-11.409.236m12.275 14.552c0 .1.748.435 1.662.744.914.31 3.242 1.148 5.173 1.864 3.969 1.471 3.763 1.526 3.663-.968l-.068-1.698-5.215-.062c-2.868-.034-5.215.02-5.215.12" stroke="#748bf3" class="LcLdMEao_1"></path><path d="M140.258 35.839c-.202.148-.436.68-.521 1.183-.084.503-.25 1.482-.368 2.176-.118.693-.331 2.185-.473 3.314-.177 1.411-.376 2.144-.637 2.342-.209.159-.295.292-.191.296.104.004.052.159-.115.343-.624.693-.876 1.025-.876 1.155 0 .074-.258.393-.573.708-.315.315-.573.7-.573.856 0 .156-.206.431-.458.613s-.459.418-.459.526c0 .107-.129.338-.286.514-.68.759-.86 1.018-.86 1.243 0 .131-.103.239-.229.239s-.229.161-.229.357c0 .197-.103.294-.229.216-.15-.093-.23 1.449-.23 4.456v4.598h-2.75v24.315c0 19.128-.062 24.382-.287 24.633-.158.176-.415.474-.573.662-.366.437-.422 18.012-.057 18.012.126 0 .229-.152.229-.338 0-.865 2.813-4.476 3.488-4.476.099 0 .181-.593.182-1.318.013-6.927 8.159-10.22 13.051-5.276.637.644 1.162 1.127 1.167 1.074.004-.052.038-1.083.074-2.29.167-5.608 4.349-9.565 10.462-9.898l1.031-.057v-29.57l-4.756-.062-4.756-.062V60.995l-1.494-.068-1.493-.067-.054-4.719-.054-4.719-1.284-1.294c-.706-.712-1.245-1.333-1.198-1.38.047-.047-.311-.495-.796-.995-1.312-1.351-1.362-1.518-1.57-5.179-.077-1.358-.229-2.524-.339-2.592-.11-.068-.2-1.04-.2-2.16 0-2.128-.108-2.427-.716-1.983m28.966 8.399c-.156.25-.284.972-.284 1.604v1.149h-9.169v4.356l.745.029c.41.017 1.957.006 3.438-.024 1.846-.037 2.694.026 2.694.2 0 .157.524.253 1.375.253h1.375v1.719c0 1.119.09 1.72.258 1.72.177 0 .169.106-.028.343-.235.283-1.034.344-4.506.344-4.573 0-4.651.023-4.34 1.261l.144.573h4.103c4.276 0 4.828.068 4.828.598 0 .261-.771.319-4.257.319-4.589 0-5.027.108-4.871 1.203.073.511.112.517 4.297.579 5.275.078 4.95-.165 4.515 3.376-.017.14-1.891.273-4.842.343l-4.814.115-.058 20.994-.059 20.995.976.308c3.354 1.059 6.29 4.434 6.89 7.922l.239 1.394 1.251.262c1.129.237 1.314.218 1.894-.195 4.083-2.908 10.563-.243 11.56 4.754.253 1.265.296 1.325 1.012 1.383 2.529.205 4.834 2.986 4.834 5.832 0 1.792-2.16 5.004-3.365 5.004-.412 0-1.219.837-1.219 1.265 0 .303.816.339 6.475.286l6.476-.061.062-4.688c.043-3.233.144-4.74.327-4.852.327-.203 26.333-.269 26.855-.068.334.128.378.698.378 4.934v4.789H264.51l-.129-1.433c-.182-2.018.447-3.605 2.066-5.207 1.195-1.183 1.232-1.257 1.359-2.772.254-3.029 2.499-5.534 5.317-5.932.839-.118.943-.211 1.223-1.095 1.496-4.726 8.658-4.331 9.57.527.113.605.27.765.862.88 2.305.444 3.527 3.268 2.325 5.37-.313.549-.57 1.026-.57 1.06 0 .034.404.127.899.206 1.138.182 2.776 1.757 3.218 3.096.308.933.697 1.268.697.601 0-.189.123-.344.275-.344.214 0 .214-.061 0-.275-.401-.401-.396-18.443.005-18.577.178-.059.052-.32-.346-.719-.626-.626-4.748-1.112-4.748-.56 0 .104-3.043.188-6.762.188h-6.762V99.273l-.86-.218c-.473-.12-1.685-.397-2.693-.616-1.009-.218-2.763-.614-3.897-.879l-2.063-.483-.062-4.527-.063-4.527h-7.764c-6.869 0-7.78.042-7.903.363-.077.199-.14 1.591-.14 3.094s-.086 2.732-.191 2.732c-.235 0-7.265-1.418-9.78-1.972-1.008-.222-1.909-.514-2.002-.649-.206-.298-.192-1.156-.176 10.93l.014 10.029h-9.179l-.059-12.39-.059-12.389h-6.365c-3.5 0-6.466.063-6.59.139-.136.085-.226 1.995-.226 4.826v4.685l-3.954-.049-3.954-.049 3.897-.131 3.897-.131-4.083-.049c-2.675-.032-4.033.03-3.94.18.078.126-.019.229-.216.229-.318 0-.357-1.034-.357-9.352 0-6.969-.07-9.423-.275-9.628-.366-.366-12.104-.397-12.104-.032 0 .133-.103.179-.229.101-.145-.089-.229-2.749-.229-7.221 0-4.255-.087-7.133-.219-7.214-.24-.148-2.964-.283-6.543-.323l-2.292-.026.077-1.376.078-1.376h3.533c1.943 0 3.563.026 3.6.058.368.311 1.331-1.305 1.068-1.795-.296-.554-.302-.555-4.256-.555-2.392 0-4.015-.091-4.1-.229-.093-.15 1.215-.23 3.753-.23h3.894l.474-.665c.507-.711.609-1.168.261-1.168-.118 0-.279-.207-.36-.459-.138-.435-.346-.458-4.084-.458h-3.938l.037-1.865c.025-1.275.134-1.927.343-2.06.376-.238 6.097-.236 6.706.003 1.007.395 1.968-1.018 1.968-2.896v-1.664h-9.169v-3.209h-6.363c-6.101 0-6.375.019-6.648.456m-5.843 13.927c1.04.042 2.742.042 3.782 0 1.04-.043.189-.077-1.891-.077s-2.931.034-1.891.077m73.059 17.709c0 7.88.029 11.103.064 7.163.035-3.94.035-10.387 0-14.326-.035-3.94-.064-.717-.064 7.163m-36.918 51.557c-.052.052-.095 1.677-.095 3.61v3.515h5.158c2.836 0 5.157-.057 5.157-.126 0-.138-2.926-3.48-4.505-5.148-.539-.568-1.113-1.216-1.277-1.44-.276-.378-4.117-.733-4.438-.411m8.459.086c-.114.185.044.371 3.71 4.375 1.134 1.24 2.097 2.346 2.139 2.459.042.113 1.876.205 4.075.205h3.998l-.063-3.567-.063-3.566-6.842-.044c-3.762-.024-6.892.038-6.954.138" stroke="#748bf3" class="LcLdMEao_2"></path><path d="M226.819 40.802c.631.271.856.271.688 0-.078-.126-.368-.222-.644-.213-.484.016-.486.023-.044.213m-24.2 17.506c.62.673.743.739.579.312-.062-.161-.342-.432-.624-.603-.487-.298-.485-.284.045.291m4.776 2.141c.285.054.698.052.917-.005.219-.057-.014-.102-.518-.1-.505.003-.684.05-.399.105m-61.836 122.015c0 .126.154.229.344.229.189 0 .343-.103.343-.229s-.154-.229-.343-.229c-.19 0-.344.103-.344.229m120.153 1.126c.042.113 1.726 2.037 3.744 4.276 2.017 2.239 4.047 4.493 4.512 5.008 4.949 5.492 2.141 13.191-4.813 13.198-3.472.004-4.043-.382-9.327-6.299-2.888-3.234-3.888-4.349-4.012-4.472-.063-.063-1.352-1.507-2.865-3.209-3.947-4.44-4.466-5.017-5.616-6.238l-1.031-1.096-1.719.436c-5.163 1.31-10.802 3.48-17.042 6.558-1.366.674-2.629 1.171-2.806 1.103-.272-.105-.33 1.977-.38 13.826l-.059 13.949h-2.292l-.067-1.891-.066-1.891h-22.428l-.066 1.891-.067 1.891-1.203.07-1.204.069v-5.934c0-3.263-.058-5.992-.13-6.064-.072-.072-.975.257-2.006.73-15.725 7.215-28.349 5.916-39.241-4.037-.254-.232-1.852-1.659-3.551-3.172-1.7-1.513-3.349-2.986-3.666-3.275-4.108-3.746-11.87-8.513-16.162-9.925-.504-.166-1.15-.536-1.435-.821-.333-.334-.928-.574-1.667-.672-.632-.084-1.204-.242-1.272-.351-.068-.11-.42-.199-.784-.199-.363 0-.72-.097-.794-.216-.073-.119-.855-.287-1.737-.374-.883-.087-1.66-.248-1.728-.357-.068-.11-.612-.199-1.21-.199-.597 0-1.184-.093-1.304-.206-1.005-.946-22.373-.949-23.358-.003-.12.115-.713.209-1.318.209-.606 0-1.101.091-1.101.202 0 .111-.773.275-1.717.363-.945.089-1.776.256-1.848.371-.071.115-.427.21-.79.21-.363 0-.724.103-.802.229-.078.126-.39.229-.694.229-.589 0-2.485.558-3.143.924-.219.122-.599.222-.846.222-.246 0-.501.086-.566.191-.064.104-.689.318-1.388.475-.752.168-1.272.407-1.272.585 0 .165-.593.537-1.318.825-6.126 2.439-15.883 7.796-20.458 11.234-.441.332-2.036 1.517-3.543 2.635-3.468 2.572-7.918 6.25-7.918 6.544 0 .124.677 1.417 1.504 2.875 1.625 2.862 5.501 10.555 6.768 13.433l.782 1.776h251.232l.781-1.776c1.561-3.552 5.971-12.398 7.742-15.53 2.093-3.702 2.234-4.012 1.828-4.012-.161 0-.515-.206-.785-.458-.271-.252-.584-.459-.696-.459-.112 0-.447-.211-.744-.468-.298-.258-.907-.693-1.353-.967-.447-.274-1.013-.682-1.257-.907-.245-.225-.58-.408-.745-.408-.166 0-.301-.097-.301-.214 0-.118-.232-.287-.516-.377-.283-.089-.682-.354-.886-.588-.204-.234-.488-.426-.631-.426-.142 0-.259-.096-.259-.214 0-.117-.232-.287-.516-.376-.284-.09-.683-.355-.887-.589-.203-.234-.474-.425-.602-.425-.127 0-.36-.155-.517-.344-.157-.189-.454-.344-.66-.344-.207 0-.504-.206-.662-.459-.157-.252-.44-.458-.628-.458s-.342-.096-.342-.214c0-.117-.232-.287-.516-.376-.283-.09-.682-.355-.886-.589-.204-.234-.475-.426-.603-.426-.127 0-.36-.154-.517-.343-.156-.19-.456-.344-.665-.344-.209 0-.528-.207-.71-.459-.182-.252-.462-.458-.624-.458-.161 0-.293-.092-.293-.205 0-.112-.258-.269-.573-.348-.315-.079-.573-.245-.573-.369 0-.123-.206-.224-.458-.224-.253 0-.459-.104-.459-.23s-.155-.229-.344-.229c-.189 0-.344-.101-.344-.225 0-.123-.257-.289-.573-.368-.315-.079-.573-.236-.573-.349 0-.112-.159-.204-.353-.204-.194 0-.581-.213-.86-.474-.278-.261-.79-.532-1.136-.602-.347-.07-.631-.218-.631-.328 0-.11-.154-.201-.343-.201-.19 0-.344-.103-.344-.229s-.207-.229-.459-.229-.458-.098-.458-.219c0-.12-.361-.286-.802-.369-.442-.083-.803-.242-.803-.354 0-.112-.154-.204-.344-.204-.189 0-.343-.079-.343-.175 0-.213-1.702-.971-2.18-.971-.188 0-.342-.103-.342-.229 0-.127-.1-.23-.222-.23-.123 0-.787-.258-1.476-.573-.689-.315-1.364-.573-1.5-.573-.135 0-.477-.119-.759-.265-1.096-.566-1.325-.648-2.222-.791-.51-.082-.927-.239-.927-.348 0-.11-.252-.2-.559-.2-.308 0-.624-.104-.702-.23-.078-.126-.387-.229-.687-.229-.301 0-.604-.093-.675-.208-.07-.114-.67-.274-1.331-.356-.662-.082-1.442-.268-1.734-.412-.409-.203-.571-.198-.708.024-.141.228-.502.217-1.762-.052-.871-.187-2.461-.454-3.532-.594-1.072-.141-2.241-.302-2.598-.358-.357-.057-.614-.011-.573.102m63.557 9.931c-.54.595-.561.651-.107.286.927-.745 1.198-1.028.983-1.028-.111 0-.505.334-.876.742m-109.498 2.098c-2.091 1.155-2.058 1.286.325 1.286h1.795v-1.146c0-1.37.095-1.364-2.12-.14m96.569 6.272c.033.737 3.239 3.993 3.589 3.643.207-.207-1.78-2.226-2.036-2.069-.108.067-.168.032-.134-.078.035-.11-.214-.53-.552-.934-.606-.722-.882-.901-.867-.562m-109.062 1.032c-.746.409-2.817 1.556-4.603 2.548l-3.248 1.803v4.073h22.464v-9.169h-13.256l-1.357.745m191.117 7.872c-7.939 2.987-22.966 6.69-30.664 7.556-1.759.198-1.808.269-1.131 1.64.299.604 1.298 2.929 2.221 5.167l1.678 4.068H400v-9.513c0-5.232-.026-9.505-.057-9.496-.032.01-.728.269-1.548.578" stroke="#748bf3" class="LcLdMEao_3"></path><path d="M210.201 44.47c0 .126-.413.229-.917.229-.505 0-.917.108-.917.239 0 .132-.129.219-.287.193-.728-.117-2.693 1.485-2.693 2.197 0 .193-.094.351-.208.351-.114 0-.152.213-.084.474.068.26-.019.741-.193 1.069-.256.48-.26.614-.021.695.323.108-.05.742-.437.742-.189 0-.645.352-1.693 1.307-.678.616-1.018 1.331-.883 1.85.066.252.008.528-.129.613-.328.203-.322 1.273.007 1.273.148 0 .202.205.129.485-.204.779 1.258 2.724 2.046 2.724.176 0 .32.103.32.229s.154.23.344.23c.189 0 .343.103.343.229s.264.229.587.229c.333 0 .525.099.445.229-.09.145.49.23 1.577.23.946 0 1.783-.104 1.861-.23.078-.126.334-.229.568-.229.234 0 .469-.129.522-.286.076-.228.258-.229.879-.009 2.764.98 5.412.229 6.662-1.89.242-.41.772-.877 1.177-1.037 3.759-1.483 3.155-5.919-.949-6.966-.894-.228-1.044-.366-1.393-1.28-.55-1.442-1.563-2.973-1.967-2.973-.188 0-.341-.1-.341-.222 0-.121-.516-.289-1.146-.373-.631-.084-1.146-.242-1.146-.352 0-.109-.465-.199-1.032-.199s-1.031.103-1.031.229m-13.156 128.155c-.179 51.819-.27 48.199 1.216 48.074l.822-.069.067-1.891c.036-1.04.165-1.892.286-1.894 4.222-.066 22.325.026 22.412.113.067.067.098.74.067 1.494-.082 2.004.06 2.293 1.124 2.293.489 0 .946-.094 1.017-.209.072-.115.129-16.826.129-37.135-.001-30.949.049-36.925.31-36.925.171 0 1.074.876 2.006 1.947 1.918 2.206 1.813 2.153 2.708 1.356 3.468-3.09.504-9.132-3.984-8.119-1.116.251-1.04.825-1.102-8.367l-.054-8.021-13.43-.059-13.431-.059-.163 47.471m24.961-39.788v5.73h-22.694l-.061-5.6c-.036-3.247.027-5.654.15-5.73.116-.072 5.25-.131 11.408-.131h11.197v5.731m-82.063 8.803c-2.507.636-3.995 2.665-3.711 5.061.691 5.833 9.212 5.378 9.212-.492 0-2.948-2.782-5.259-5.501-4.569m19.218.005c-2.962.735-4.476 3.767-3.234 6.481 2.106 4.598 8.887 3.075 8.887-1.996 0-2.813-2.952-5.154-5.653-4.485m23.072-.003c-5.467 1.711-4.587 9.192 1.082 9.188 4.705-.003 6.365-6.225 2.286-8.572-1.082-.623-2.511-.884-3.368-.616m63.552.008c-4.011.989-4.957 6.306-1.511 8.491 3.104 1.969 7.187-.244 7.187-3.895 0-2.927-2.905-5.279-5.676-4.596m22.179-.008c-5.497 1.72-4.603 9.189 1.099 9.189 4.673 0 6.324-6.24 2.269-8.573-1.082-.623-2.512-.884-3.368-.616m23.897.01c-2.748.67-4.387 4.111-3.144 6.601 2.19 4.389 8.819 2.892 8.819-1.992 0-3.119-2.722-5.329-5.675-4.609m-90.445 2.393c-.846 2.204-.663 3.589.68 5.158 3.524 4.117 9.487.302 7.761-4.966l-.17-.52 6.159.061 6.16.062v9.398h-22.694l-.062-4.463c-.074-5.282-.13-5.05 1.226-5.05.815 0 1.034.074.94.32m20.652 18.992l-.062 4.642-11.404.06-11.404.059V158.395h22.932l-.062 4.642m-.062 14.613v4.7h-22.694l-.062-4.464c-.034-2.454-.012-4.596.051-4.758.091-.237 2.359-.284 11.409-.236l11.296.059v4.699m0 14.556v4.585l-11.29.059-11.289.06v-9.166l6.132-.067c3.372-.037 8.452-.064 11.289-.061l5.158.006v4.584m115.789-4.351c-.361.187-.85.34-1.088.34-.237 0-.432.103-.432.229s-.206.229-.458.229c-.253 0-.459.091-.459.203 0 .111-.18.263-.401.337-.538.181-1.178.613-1.831 1.237-.297.283-.655.516-.795.516-.428 0-5.843 5.696-6.164 6.484-.165.405-.589 1.01-.941 1.344-.353.334-.641.716-.641.849s-.258.499-.574.815c-.315.315-.573.681-.573.812 0 .132-.096.24-.213.24-.118 0-.287.232-.377.516-.09.283-.354.682-.589.886-.234.204-.425.528-.425.721 0 .192-.155.409-.344.481-.189.073-.344.342-.344.598 0 .256-.103.466-.229.466s-.229.135-.229.3c0 .166-.2.516-.445.778-.245.263-.384.538-.311.611.073.073-.029.196-.229.273-.199.076-.306.285-.237.463.068.179.017.325-.114.325s-.304.208-.385.462c-.08.254-.826 1.672-1.657 3.152-1.815 3.229-6.258 12.084-7.705 15.355l-1.04 2.349h61.666l-.16-.515c-.088-.284-.652-1.702-1.253-3.152-4.857-11.715-8.518-18.826-13.437-26.095-1.053-1.555-1.914-2.958-1.914-3.118 0-.16-.286-.538-.635-.84-.349-.302-.941-.962-1.316-1.466-.765-1.031-1.795-2.068-2.729-2.751-.345-.252-.867-.664-1.161-.917-1.033-.887-1.59-1.26-1.885-1.26-.163 0-.297-.103-.297-.229 0-.127-.206-.23-.458-.23s-.459-.103-.459-.229-.155-.229-.344-.229c-.189 0-.343-.086-.343-.191 0-.244-.103-.258-2.982-.384-1.843-.08-2.562-.025-3.063.235m-309.783 8.242c-5.68 1.774-12.782 9.523-19.53 21.309-.221.387-.814 1.425-1.318 2.307-.504.883-1.812 3.359-2.907 5.502l-1.991 3.897 27.214.058c14.967.032 27.264.007 27.326-.055.392-.391-6.088-13.343-9.004-17.998-7.472-11.925-13.951-16.842-19.79-15.02m193.91 10.665c-.01 2.459-.021 4.548-.024 4.644-.004.096-5.087.147-11.296.115l-11.29-.06-.065-4.126c-.036-2.269-.008-4.359.062-4.644l.128-.518 11.251.06 11.252.059-.018 4.47" stroke="#748bf3" class="LcLdMEao_4"></path><path d="M163.16 51.516c.666.046 1.697.046 2.292-.001.594-.047.049-.085-1.211-.085-1.261.001-1.748.04-1.081.086m21.185 0c.846.044 2.29.045 3.209.001.92-.044.228-.079-1.537-.08-1.765 0-2.517.035-1.672.079m57.066 4.071c-.084.126-.346.609-.58 1.072-.564 1.116-1.481 1.966-3.032 2.815l-1.274.698-.039 15.877c-.034 13.936.003 15.889.305 15.98.993.3 10.127 2.18 10.602 2.182.094.001.171-1.228.171-2.731s.063-2.895.14-3.094c.123-.321 1.034-.363 7.903-.363h7.764l.063 4.527.062 4.527 2.063.483c1.134.265 2.888.661 3.897.879 1.008.219 2.22.496 2.693.616l.86.218v10.297h13.524V83.015c0-25.553-.016-26.574-.426-27.046l-.426-.492-22.058-.059c-14.516-.039-22.11.019-22.212.169m-75.044 5.097c.539.048 1.364.048 1.834-.002.469-.049.028-.088-.98-.088-1.009.001-1.393.041-.854.09m50.296 27.052c1.6.039 4.282.039 5.96 0s.368-.072-2.91-.072c-3.277 0-4.65.032-3.05.072m-9.614 9.627c1.103.042 2.908.042 4.011 0 1.103-.042.201-.077-2.006-.077-2.206 0-3.108.035-2.005.077m-50.311 8.935c.412.051 1.031.05 1.375-.002.344-.053.007-.094-.749-.093-.757.001-1.038.044-.626.095m134.656 13.645c.026 5.074.076 8.349.112 7.278.16-4.751.168-16.505.013-16.505-.095 0-.151 4.152-.125 9.227m-143.936-4.069c.002.63.046.861.099.513.053-.349.051-.865-.003-1.147-.054-.282-.098.004-.096.634m34.478 3.435c.21.44.422.759.472.709.104-.104-.591-1.508-.748-1.508-.058 0 .066.36.276.799m87.738 1.78l-.906.974.974-.906c.906-.843 1.08-1.042.906-1.042-.037 0-.476.438-.974.974m17.814 1.815c-.021.462-.098 1.03-.17 1.261-.124.395-.117.396.128.014.143-.222.22-.79.171-1.26l-.09-.856-.039.841m-90.3 1.991c-.292.181-.513 9.891-.225 9.89.094 0 .172-2.167.172-4.815v-4.816l13.467.059 13.467.059.036 4.659c.02 2.562.097 4.72.172 4.795.074.074.136-2.088.136-4.807 0-4.377-.044-4.958-.378-5.086-.513-.197-26.525-.136-26.847.062m70.566 1.391c-.009.179-.194.54-.41.802-.37.449-.362.448.141-.015.294-.271.479-.632.411-.803-.1-.251-.127-.248-.142.016m-68.27.857c-.319.129-.432 7.642-.114 7.642.094 0 .172-1.669.172-3.709v-3.709l2.177.021c1.372.014 2.008-.05 1.719-.171-.494-.208-3.483-.264-3.954-.074m8.424.074c-.225.145 2.1.219 6.762.213l7.107-.008.126 3.739.126 3.739-.012-3.897-.011-3.897-6.877-.056c-4.146-.033-7.013.033-7.221.167m-21.447 4.645l-.673.745.745-.673c.694-.627.85-.817.673-.817-.039 0-.374.336-.745.745m77.906.631c0 .693.043.977.095.63.053-.346.053-.914 0-1.261-.052-.346-.095-.063-.095.631m-49.747 6.128c.603.048 1.531.047 2.063-.001.532-.048.039-.087-1.096-.086-1.134.001-1.57.04-.967.087m7.352 7.282c0 1.134.039 1.627.087 1.095.048-.532.048-1.46.001-2.063-.047-.602-.087-.167-.088.968m4.618 2.865c.493.504.947.917 1.01.917.063 0-.288-.413-.781-.917-.492-.504-.946-.917-1.009-.917-.064 0 .288.413.78.917m-62.407 30.416c.221.057.582.057.803 0 .22-.058.04-.105-.401-.105-.442 0-.622.047-.402.105" stroke="#748bf3" class="LcLdMEao_5"></path><path d="M163.782 51.576l-2.75.137 2.808.046c1.749.029 2.808-.04 2.808-.183 0-.126-.026-.209-.058-.183-.031.025-1.295.108-2.808.183m20.459.17c1.04.043 2.742.043 3.782 0 1.04-.042.189-.077-1.891-.077s-2.931.035-1.891.077m-23.859 7.547c-.212.212-.192.764.028.764.099 0 .196-.206.215-.458.037-.493-.004-.544-.243-.306m6.208 1.62c.536.048 1.413.048 1.949 0 .535-.048.097-.088-.975-.088-1.071 0-1.51.04-.974.088m2.871 1.895c0 .567.044.799.099.516.055-.284.055-.748 0-1.032-.055-.283-.099-.051-.099.516m18.906 1.083c.41.051 1.08.051 1.49 0 .409-.051.074-.093-.745-.093-.82 0-1.155.042-.745.093m40.458 1.367c.221.058.582.058.803 0 .22-.057.04-.105-.402-.105-.441 0-.621.048-.401.105m6.466 37.321c0 5.421.03 7.606.067 4.855.037-2.75.037-7.186 0-9.856-.037-2.671-.067-.42-.067 5.001m-71.394 5.917c0 .039.335.374.745.745l.745.673-.673-.745c-.628-.694-.817-.85-.817-.673m124.069.78c.346.052.914.052 1.26 0 .347-.053.063-.096-.63-.096-.693 0-.977.043-.63.096m3.714 11.068c0 4.98.031 7.017.068 4.527.037-2.49.037-6.564 0-9.054s-.068-.453-.068 4.527m-156.336-3.152l-.674.745.745-.673c.41-.371.745-.706.745-.745 0-.177-.189-.021-.816.673m9.986-.673c0 .039.335.374.744.745l.745.673-.673-.745c-.627-.694-.816-.85-.816-.673m-13.883 8.696l-.673.745.745-.673c.409-.371.745-.706.745-.745 0-.177-.19-.022-.817.673m72.335 2.24c0 .209 1.353 1.814 2.31 2.739 1.312 1.269 3.661 4.159 3.54 4.355-.08.13.004.236.187.236s1.077.825 1.986 1.834l1.653 1.834h1.924c2.303 0 2.291.052.464-1.911-1.717-1.845-1.874-1.735 2.607-1.818l3.553-.066-4.058-.051c-3.202-.04-4.096-.119-4.24-.373-.101-.177-1.02-1.234-2.042-2.349-1.022-1.116-2.363-2.618-2.98-3.339l-1.122-1.312-1.891-.007c-1.14-.004-1.891.087-1.891.228m87.027 2.803c.147.237.713.216.866-.033.07-.113-.12-.19-.422-.172-.303.018-.502.11-.444.205m-107.199 4.355c0 .095 2.966.15 6.591.124 6.579-.049 5.828-.126-2.293-.237-2.364-.032-4.298.019-4.298.113m18.396.114c1.355.04 3.573.04 4.928 0 1.355-.041.247-.074-2.464-.074s-3.82.033-2.464.074m32.435.001c5.579.034 14.708.034 20.287 0 5.579-.034 1.014-.062-10.143-.062-11.158 0-15.723.028-10.144.062m-15.689 9.297c-.062.101.534.927 1.325 1.833.791.907 1.523 1.747 1.626 1.867.104.12.188-.671.188-1.757v-1.975l-1.512-.077c-.832-.042-1.564.007-1.627.109m5.651 2.68c-.013.189-.008 1.165.009 2.168l.032 1.825 1.503 1.728c.826.951 1.979 2.246 2.562 2.878 1.231 1.334 2.477 2.718 4.752 5.274.895 1.006 3.509 3.924 5.809 6.484l4.183 4.656-1.264 1.325c-2.071 2.171-2.203 3.905-.456 5.995 1.018 1.218 4.326 4.918 5.829 6.521.592.63 2.03 2.229 3.197 3.553 1.167 1.324 2.647 2.974 3.288 3.667.642.694 1.889 2.08 2.772 3.082 7.719 8.758 8.452 9.432 10.856 9.988 4.971 1.148 9.736-3.484 8.726-8.484-.352-1.746-1.106-2.948-3.52-5.617-1.144-1.263-2.898-3.225-3.899-4.358-1.001-1.133-1.929-2.164-2.063-2.29-.134-.126-.809-.899-1.5-1.719-.691-.819-2.187-2.526-3.324-3.793-1.137-1.267-2.892-3.224-3.901-4.348-6.697-7.467-6.673-7.446-8.455-7.446-1.306 0-1.949.248-2.977 1.151-1.031.906-.856.998-3.259-1.724-1.113-1.261-2.079-2.344-2.148-2.407-.13-.121-3.273-3.621-4.608-5.133-.433-.49-.895-1.006-1.025-1.146-.131-.14-1.568-1.75-3.194-3.578-1.626-1.828-3.7-4.097-4.608-5.043-.909-.946-2.022-2.132-2.473-2.636-.509-.567-.831-.786-.844-.573m-82.045 32.247c.171.275.574.618.896.763.579.261.58.259.124-.155-1.099-.999-1.361-1.155-1.02-.608m1.651 1.681c.158.253.463.517.678.585.214.068.454.325.532.57.127.401.569.645.569.314 0-.149-1.817-1.93-1.969-1.93-.054 0 .032.207.19.461" stroke="#748bf3" class="LcLdMEao_6"></path></g><style data-made-with="vivus-instant">.LcLdMEao_0{stroke-dasharray:1094 1096;stroke-dashoffset:1095;animation:LcLdMEao_draw_0 7200ms ease-in-out 0ms infinite,LcLdMEao_fade 7200ms linear 0ms infinite;}.LcLdMEao_1{stroke-dasharray:1105 1107;stroke-dashoffset:1106;animation:LcLdMEao_draw_1 7200ms ease-in-out 0ms infinite,LcLdMEao_fade 7200ms linear 0ms infinite;}.LcLdMEao_2{stroke-dasharray:1007 1009;stroke-dashoffset:1008;animation:LcLdMEao_draw_2 7200ms ease-in-out 0ms infinite,LcLdMEao_fade 7200ms linear 0ms infinite;}.LcLdMEao_3{stroke-dasharray:871 873;stroke-dashoffset:872;animation:LcLdMEao_draw_3 7200ms ease-in-out 0ms infinite,LcLdMEao_fade 7200ms linear 0ms infinite;}.LcLdMEao_4{stroke-dasharray:1214 1216;stroke-dashoffset:1215;animation:LcLdMEao_draw_4 7200ms ease-in-out 0ms infinite,LcLdMEao_fade 7200ms linear 0ms infinite;}.LcLdMEao_5{stroke-dasharray:497 499;stroke-dashoffset:498;animation:LcLdMEao_draw_5 7200ms ease-in-out 0ms infinite,LcLdMEao_fade 7200ms linear 0ms infinite;}.LcLdMEao_6{stroke-dasharray:432 434;stroke-dashoffset:433;animation:LcLdMEao_draw_6 7200ms ease-in-out 0ms infinite,LcLdMEao_fade 7200ms linear 0ms infinite;}@keyframes LcLdMEao_draw{100%{stroke-dashoffset:0;}}@keyframes LcLdMEao_fade{0%{stroke-opacity:1;}94.44444444444444%{stroke-opacity:1;}100%{stroke-opacity:0;}}@keyframes LcLdMEao_draw_0{11.11111111111111%{stroke-dashoffset: 1095}52.77777777777778%{ stroke-dashoffset: 0;}100%{ stroke-dashoffset: 0;}}@keyframes LcLdMEao_draw_1{11.11111111111111%{stroke-dashoffset: 1106}52.77777777777778%{ stroke-dashoffset: 0;}100%{ stroke-dashoffset: 0;}}@keyframes LcLdMEao_draw_2{11.11111111111111%{stroke-dashoffset: 1008}52.77777777777778%{ stroke-dashoffset: 0;}100%{ stroke-dashoffset: 0;}}@keyframes LcLdMEao_draw_3{11.11111111111111%{stroke-dashoffset: 872}52.77777777777778%{ stroke-dashoffset: 0;}100%{ stroke-dashoffset: 0;}}@keyframes LcLdMEao_draw_4{11.11111111111111%{stroke-dashoffset: 1215}52.77777777777778%{ stroke-dashoffset: 0;}100%{ stroke-dashoffset: 0;}}@keyframes LcLdMEao_draw_5{11.11111111111111%{stroke-dashoffset: 498}52.77777777777778%{ stroke-dashoffset: 0;}100%{ stroke-dashoffset: 0;}}@keyframes LcLdMEao_draw_6{11.11111111111111%{stroke-dashoffset: 433}52.77777777777778%{ stroke-dashoffset: 0;}100%{ stroke-dashoffset: 0;}}</style></svg>