<svg id="svg" version="1.1" width="420" height="420" xmlns="http://www.w3.org/2000/svg" xmlns:xlink="http://www.w3.org/1999/xlink" style=""><g id="svgg"><path id="path0" d="M49.141 10.940 C 45.433 12.677,22.408 35.892,20.988 39.325 C 19.679 42.490,19.638 46.076,20.875 49.039 C 22.743 53.510,60.347 109.089,62.579 110.679 C 67.999 114.538,74.826 113.383,80.995 107.563 L 85.652 103.171 112.410 129.936 C 127.127 144.657,139.418 156.701,139.722 156.701 C 140.026 156.701,146.501 151.211,154.110 144.502 C 161.720 137.792,168.276 132.078,168.681 131.803 C 169.117 131.506,158.048 119.928,141.400 103.268 L 113.384 75.233 117.511 71.149 C 122.267 66.442,123.294 63.993,122.885 58.337 C 122.447 52.287,122.233 52.102,92.067 31.823 C 56.286 7.769,56.102 7.679,49.141 10.940 M278.787 10.357 C 223.313 18.011,186.949 75.574,204.803 127.467 L 206.213 131.565 203.965 133.734 C 202.729 134.927,165.533 167.707,121.306 206.579 C 31.025 285.930,32.503 284.590,28.503 290.722 C -0.350 334.954,47.746 388.762,95.189 365.328 C 104.426 360.765,103.126 362.157,184.001 270.279 C 228.904 219.266,259.606 184.924,260.130 185.125 C 310.830 204.581,368.582 172.103,379.726 117.869 C 382.199 105.832,381.112 80.494,377.988 77.370 C 377.533 76.914,367.217 86.736,347.243 106.643 C 312.333 141.434,311.460 142.031,299.223 139.505 C 292.269 138.070,290.350 136.589,272.737 119.072 C 252.455 98.901,249.720 94.529,251.201 84.653 C 252.548 75.670,251.944 76.412,284.423 43.823 C 303.074 25.107,314.131 13.525,313.720 13.135 C 311.252 10.794,288.648 8.996,278.787 10.357 M240.220 244.091 C 225.281 261.048,213.058 275.155,213.058 275.440 C 213.058 275.725,233.703 296.553,258.935 321.724 C 311.165 373.828,307.369 370.724,318.915 370.766 C 329.799 370.806,330.324 370.438,355.807 344.877 C 381.007 319.599,381.090 319.480,381.079 308.591 C 381.068 297.033,383.112 299.601,338.160 254.655 L 299.066 215.565 288.536 215.426 C 282.745 215.350,275.616 214.831,272.694 214.274 L 267.382 213.261 240.220 244.091 M82.639 296.439 C 106.797 308.302,98.678 343.986,71.821 343.986 C 43.620 343.986,36.817 305.995,63.128 295.440 C 68.158 293.422,77.466 293.899,82.639 296.439 " stroke="#000000" fill="none" stroke-width="3" class="vAhZoPWU_0"></path></g><style data-made-with="vivus-instant">.vAhZoPWU_0{stroke-dasharray:2381 2383;stroke-dashoffset:2382;animation:vAhZoPWU_draw_0 7200ms linear 0ms infinite,vAhZoPWU_fade 7200ms linear 0ms infinite;}@keyframes vAhZoPWU_draw{100%{stroke-dashoffset:0;}}@keyframes vAhZoPWU_fade{0%{stroke-opacity:1;}94.44444444444444%{stroke-opacity:1;}100%{stroke-opacity:0;}}@keyframes vAhZoPWU_draw_0{11.11111111111111%{stroke-dashoffset: 2382}52.77777777777778%{ stroke-dashoffset: 0;}100%{ stroke-dashoffset: 0;}}</style></svg>